<?xml version="1.0" encoding="UTF-8" standalone="no"?>
<!DOCTYPE svg PUBLIC "-//W3C//DTD SVG 1.1//EN"
 "http://www.w3.org/Graphics/SVG/1.1/DTD/svg11.dtd">
<!-- Generated by graphviz version 2.43.0 (0)
 -->
<!-- Title: Tree Pages: 1 -->
<svg width="1977pt" height="696pt"
 viewBox="0.00 0.00 1976.57 695.71" xmlns="http://www.w3.org/2000/svg" xmlns:xlink="http://www.w3.org/1999/xlink">
<g id="graph0" class="graph" transform="scale(1 1) rotate(0) translate(18 677.71)">
<title>Tree</title>
<polygon fill="white" stroke="transparent" points="-18,18 -18,-677.71 1958.57,-677.71 1958.57,18 -18,18"/>
<!-- 0 -->
<g id="node1" class="node">
<title>0</title>
<polygon fill="white" stroke="transparent" points="833.97,-659.71 779.97,-659.71 779.97,-623.71 833.97,-623.71 833.97,-659.71"/>
<text text-anchor="middle" x="806.97" y="-638.01" font-family="Helvetica,sans-Serif" font-size="14.00">0</text>
</g>
<!-- 1 -->
<g id="node2" class="node">
<title>1</title>
<polygon fill="#cc3d3d" stroke="black" points="893.47,-586.71 720.47,-586.71 720.47,-508.71 893.47,-508.71 893.47,-586.71"/>
<text text-anchor="start" x="767.97" y="-572.51" font-family="Helvetica,sans-Serif" font-weight="bold" font-size="14.00"> Class=1 </text>
<text text-anchor="start" x="840.97" y="-572.51" font-family="Helvetica,sans-Serif" font-size="14.00"> </text>
<text text-anchor="start" x="728.47" y="-558.51" font-family="Helvetica,sans-Serif" font-size="14.00"> error: 0.991, n=1372 </text>
<text text-anchor="start" x="751.97" y="-544.51" font-family="Helvetica,sans-Serif" font-size="14.00"> p: (0.56, 0.44) </text>
<text text-anchor="start" x="801.47" y="-530.51" font-family="Helvetica,sans-Serif" font-size="14.00">&#45;&#45;</text>
<text text-anchor="start" x="796.47" y="-516.51" font-family="Helvetica,sans-Serif" font-weight="bold" font-size="14.00">V1</text>
</g>
<!-- 0&#45;&gt;1 -->
<!-- 2 -->
<g id="node3" class="node">
<title>2</title>
<polygon fill="#e5d544" stroke="black" points="724.97,-457.71 560.97,-457.71 560.97,-379.71 724.97,-379.71 724.97,-457.71"/>
<text text-anchor="start" x="603.97" y="-443.51" font-family="Helvetica,sans-Serif" font-weight="bold" font-size="14.00"> Class=1 </text>
<text text-anchor="start" x="676.97" y="-443.51" font-family="Helvetica,sans-Serif" font-size="14.00"> </text>
<text text-anchor="start" x="568.97" y="-429.51" font-family="Helvetica,sans-Serif" font-size="14.00"> error: 0.459, n=682 </text>
<text text-anchor="start" x="587.97" y="-415.51" font-family="Helvetica,sans-Serif" font-size="14.00"> p: (0.90, 0.10) </text>
<text text-anchor="start" x="637.47" y="-401.51" font-family="Helvetica,sans-Serif" font-size="14.00">&#45;&#45;</text>
<text text-anchor="start" x="632.47" y="-387.51" font-family="Helvetica,sans-Serif" font-weight="bold" font-size="14.00">V1</text>
</g>
<!-- 1&#45;&gt;2 -->
<g id="edge2" class="edge">
<title>1:s&#45;&gt;2:n</title>
<path fill="none" stroke="black" d="M806.97,-508.71C806.97,-508.71 688.04,-471.73 652.73,-460.75"/>
<polygon fill="black" stroke="black" points="653.55,-457.34 642.97,-457.71 651.48,-464.02 653.55,-457.34"/>
<text text-anchor="middle" x="773.97" y="-479.51" font-family="Helvetica,sans-Serif" font-size="14.00">&gt; 0.518</text>
</g>
<!-- 10 -->
<g id="node4" class="node">
<title>10</title>
<polygon fill="#e5d544" stroke="black" points="1158.97,-457.71 994.97,-457.71 994.97,-379.71 1158.97,-379.71 1158.97,-457.71"/>
<text text-anchor="start" x="1037.97" y="-443.51" font-family="Helvetica,sans-Serif" font-weight="bold" font-size="14.00"> Class=2 </text>
<text text-anchor="start" x="1110.97" y="-443.51" font-family="Helvetica,sans-Serif" font-size="14.00"> </text>
<text text-anchor="start" x="1002.97" y="-429.51" font-family="Helvetica,sans-Serif" font-size="14.00"> error: 0.745, n=690 </text>
<text text-anchor="start" x="1021.97" y="-415.51" font-family="Helvetica,sans-Serif" font-size="14.00"> p: (0.21, 0.79) </text>
<text text-anchor="start" x="1071.47" y="-401.51" font-family="Helvetica,sans-Serif" font-size="14.00">&#45;&#45;</text>
<text text-anchor="start" x="1066.47" y="-387.51" font-family="Helvetica,sans-Serif" font-weight="bold" font-size="14.00">V2</text>
</g>
<!-- 1&#45;&gt;10 -->
<g id="edge3" class="edge">
<title>1:s&#45;&gt;10:n</title>
<path fill="none" stroke="black" d="M806.97,-508.71C806.97,-508.71 1018.32,-468.79 1067.04,-459.59"/>
<polygon fill="black" stroke="black" points="1067.79,-463.01 1076.97,-457.71 1066.49,-456.13 1067.79,-463.01"/>
<text text-anchor="middle" x="1009.97" y="-479.51" font-family="Helvetica,sans-Serif" font-size="14.00">&lt;= 0.518</text>
</g>
<!-- 3 -->
<g id="node5" class="node">
<title>3</title>
<polygon fill="#59cc3d" stroke="black" points="475.97,-328.71 311.97,-328.71 311.97,-250.71 475.97,-250.71 475.97,-328.71"/>
<text text-anchor="start" x="354.97" y="-314.51" font-family="Helvetica,sans-Serif" font-weight="bold" font-size="14.00"> Class=1 </text>
<text text-anchor="start" x="427.97" y="-314.51" font-family="Helvetica,sans-Serif" font-size="14.00"> </text>
<text text-anchor="start" x="319.97" y="-300.51" font-family="Helvetica,sans-Serif" font-size="14.00"> error: 0.898, n=178 </text>
<text text-anchor="start" x="338.97" y="-286.51" font-family="Helvetica,sans-Serif" font-size="14.00"> p: (0.69, 0.31) </text>
<text text-anchor="start" x="388.47" y="-272.51" font-family="Helvetica,sans-Serif" font-size="14.00">&#45;&#45;</text>
<text text-anchor="start" x="383.47" y="-258.51" font-family="Helvetica,sans-Serif" font-weight="bold" font-size="14.00">V3</text>
</g>
<!-- 2&#45;&gt;3 -->
<g id="edge4" class="edge">
<title>2:s&#45;&gt;3:n</title>
<path fill="none" stroke="black" d="M642.97,-379.71C642.97,-379.71 450.62,-340.31 404.04,-330.77"/>
<polygon fill="black" stroke="black" points="404.46,-327.29 393.97,-328.71 403.06,-334.15 404.46,-327.29"/>
<text text-anchor="middle" x="589.97" y="-350.51" font-family="Helvetica,sans-Serif" font-size="14.00">&lt;= 1.602</text>
</g>
<!-- 6 -->
<g id="node6" class="node">
<title>6</title>
<polygon fill="#59cc3d" stroke="black" points="724.97,-328.71 560.97,-328.71 560.97,-250.71 724.97,-250.71 724.97,-328.71"/>
<text text-anchor="start" x="603.97" y="-314.51" font-family="Helvetica,sans-Serif" font-weight="bold" font-size="14.00"> Class=1 </text>
<text text-anchor="start" x="676.97" y="-314.51" font-family="Helvetica,sans-Serif" font-size="14.00"> </text>
<text text-anchor="start" x="568.97" y="-300.51" font-family="Helvetica,sans-Serif" font-size="14.00"> error: 0.141, n=504 </text>
<text text-anchor="start" x="587.97" y="-286.51" font-family="Helvetica,sans-Serif" font-size="14.00"> p: (0.98, 0.02) </text>
<text text-anchor="start" x="637.47" y="-272.51" font-family="Helvetica,sans-Serif" font-size="14.00">&#45;&#45;</text>
<text text-anchor="start" x="632.47" y="-258.51" font-family="Helvetica,sans-Serif" font-weight="bold" font-size="14.00">V1</text>
</g>
<!-- 2&#45;&gt;6 -->
<g id="edge5" class="edge">
<title>2:s&#45;&gt;6:n</title>
<path fill="none" stroke="black" d="M642.97,-379.71C642.97,-379.71 642.97,-353.93 642.97,-339.03"/>
<polygon fill="black" stroke="black" points="646.47,-338.71 642.97,-328.71 639.47,-338.71 646.47,-338.71"/>
<text text-anchor="middle" x="671.97" y="-350.51" font-family="Helvetica,sans-Serif" font-size="14.00">&gt; 1.602</text>
</g>
<!-- 11 -->
<g id="node12" class="node">
<title>11</title>
<polygon fill="#59cc3d" stroke="black" points="1158.97,-328.71 994.97,-328.71 994.97,-250.71 1158.97,-250.71 1158.97,-328.71"/>
<text text-anchor="start" x="1037.97" y="-314.51" font-family="Helvetica,sans-Serif" font-weight="bold" font-size="14.00"> Class=2 </text>
<text text-anchor="start" x="1110.97" y="-314.51" font-family="Helvetica,sans-Serif" font-size="14.00"> </text>
<text text-anchor="start" x="1002.97" y="-300.51" font-family="Helvetica,sans-Serif" font-size="14.00"> error: 0.389, n=512 </text>
<text text-anchor="start" x="1021.97" y="-286.51" font-family="Helvetica,sans-Serif" font-size="14.00"> p: (0.08, 0.92) </text>
<text text-anchor="start" x="1071.47" y="-272.51" font-family="Helvetica,sans-Serif" font-size="14.00">&#45;&#45;</text>
<text text-anchor="start" x="1066.47" y="-258.51" font-family="Helvetica,sans-Serif" font-weight="bold" font-size="14.00">V1</text>
</g>
<!-- 10&#45;&gt;11 -->
<g id="edge11" class="edge">
<title>10:s&#45;&gt;11:n</title>
<path fill="none" stroke="black" d="M1076.97,-379.71C1076.97,-379.71 1076.97,-353.93 1076.97,-339.03"/>
<polygon fill="black" stroke="black" points="1080.47,-338.71 1076.97,-328.71 1073.47,-338.71 1080.47,-338.71"/>
<text text-anchor="middle" x="1111.97" y="-350.51" font-family="Helvetica,sans-Serif" font-size="14.00">&lt;= 3.667</text>
</g>
<!-- 16 -->
<g id="node13" class="node">
<title>16</title>
<polygon fill="#59cc3d" stroke="black" points="1621.97,-328.71 1457.97,-328.71 1457.97,-250.71 1621.97,-250.71 1621.97,-328.71"/>
<text text-anchor="start" x="1500.97" y="-314.51" font-family="Helvetica,sans-Serif" font-weight="bold" font-size="14.00"> Class=1 </text>
<text text-anchor="start" x="1573.97" y="-314.51" font-family="Helvetica,sans-Serif" font-size="14.00"> </text>
<text text-anchor="start" x="1465.97" y="-300.51" font-family="Helvetica,sans-Serif" font-size="14.00"> error: 0.970, n=178 </text>
<text text-anchor="start" x="1484.97" y="-286.51" font-family="Helvetica,sans-Serif" font-size="14.00"> p: (0.60, 0.40) </text>
<text text-anchor="start" x="1534.47" y="-272.51" font-family="Helvetica,sans-Serif" font-size="14.00">&#45;&#45;</text>
<text text-anchor="start" x="1529.47" y="-258.51" font-family="Helvetica,sans-Serif" font-weight="bold" font-size="14.00">V1</text>
</g>
<!-- 10&#45;&gt;16 -->
<g id="edge12" class="edge">
<title>10:s&#45;&gt;16:n</title>
<path fill="none" stroke="black" d="M1076.97,-379.71C1076.97,-379.71 1462.16,-337.28 1529.86,-329.82"/>
<polygon fill="black" stroke="black" points="1530.41,-333.28 1539.97,-328.71 1529.64,-326.33 1530.41,-333.28"/>
<text text-anchor="middle" x="1392.97" y="-350.51" font-family="Helvetica,sans-Serif" font-size="14.00">&gt; 3.667</text>
</g>
<!-- 4 -->
<g id="node7" class="node">
<title>4</title>
<polygon fill="#44e5b5" stroke="black" points="228.97,-199.71 64.97,-199.71 64.97,-121.71 228.97,-121.71 228.97,-199.71"/>
<text text-anchor="start" x="107.97" y="-185.51" font-family="Helvetica,sans-Serif" font-weight="bold" font-size="14.00"> Class=1 </text>
<text text-anchor="start" x="180.97" y="-185.51" font-family="Helvetica,sans-Serif" font-size="14.00"> </text>
<text text-anchor="start" x="72.97" y="-171.51" font-family="Helvetica,sans-Serif" font-size="14.00"> error: 0.503, n=135 </text>
<text text-anchor="start" x="91.97" y="-157.51" font-family="Helvetica,sans-Serif" font-size="14.00"> p: (0.89, 0.11) </text>
<text text-anchor="start" x="141.47" y="-143.51" font-family="Helvetica,sans-Serif" font-size="14.00">&#45;&#45;</text>
<text text-anchor="start" x="136.47" y="-129.51" font-family="Helvetica,sans-Serif" font-weight="bold" font-size="14.00">V4</text>
</g>
<!-- 3&#45;&gt;4 -->
<g id="edge6" class="edge">
<title>3:s&#45;&gt;4:n</title>
<path fill="none" stroke="black" d="M393.97,-250.71C393.97,-250.71 203.16,-211.31 156.95,-201.77"/>
<polygon fill="black" stroke="black" points="157.47,-198.31 146.97,-199.71 156.05,-205.16 157.47,-198.31"/>
<text text-anchor="middle" x="331.47" y="-221.51" font-family="Helvetica,sans-Serif" font-size="14.00">&gt; &#45;2.471</text>
</g>
<!-- 7 -->
<g id="node9" class="node">
<title>7</title>
<polygon fill="#44e5b5" stroke="black" points="479.97,-199.71 315.97,-199.71 315.97,-121.71 479.97,-121.71 479.97,-199.71"/>
<text text-anchor="start" x="358.97" y="-185.51" font-family="Helvetica,sans-Serif" font-weight="bold" font-size="14.00"> Class=1 </text>
<text text-anchor="start" x="431.97" y="-185.51" font-family="Helvetica,sans-Serif" font-size="14.00"> </text>
<text text-anchor="start" x="323.97" y="-171.51" font-family="Helvetica,sans-Serif" font-size="14.00"> error: 0.398, n=127 </text>
<text text-anchor="start" x="342.97" y="-157.51" font-family="Helvetica,sans-Serif" font-size="14.00"> p: (0.92, 0.08) </text>
<text text-anchor="start" x="392.47" y="-143.51" font-family="Helvetica,sans-Serif" font-size="14.00">&#45;&#45;</text>
<text text-anchor="start" x="387.47" y="-129.51" font-family="Helvetica,sans-Serif" font-weight="bold" font-size="14.00">V3</text>
</g>
<!-- 6&#45;&gt;7 -->
<g id="edge8" class="edge">
<title>6:s&#45;&gt;7:n</title>
<path fill="none" stroke="black" d="M642.97,-250.71C642.97,-250.71 453.71,-211.31 407.87,-201.77"/>
<polygon fill="black" stroke="black" points="408.47,-198.32 397.97,-199.71 407.04,-205.18 408.47,-198.32"/>
<text text-anchor="middle" x="584.97" y="-221.51" font-family="Helvetica,sans-Serif" font-size="14.00">&lt;= 2.563</text>
</g>
<!-- 9 -->
<g id="node10" class="node">
<title>9</title>
<ellipse fill="#44e5b5" stroke="black" cx="667.97" cy="-160.71" rx="115.93" ry="35.21"/>
<text text-anchor="start" x="628.97" y="-171.51" font-family="Helvetica,sans-Serif" font-weight="bold" font-size="14.00"> Class=1 </text>
<text text-anchor="start" x="701.97" y="-171.51" font-family="Helvetica,sans-Serif" font-size="14.00"> </text>
<text text-anchor="start" x="593.97" y="-157.51" font-family="Helvetica,sans-Serif" font-size="14.00"> error: 0.000, n=377 </text>
<text text-anchor="start" x="612.97" y="-143.51" font-family="Helvetica,sans-Serif" font-size="14.00"> p: (1.00, 0.00) </text>
</g>
<!-- 6&#45;&gt;9 -->
<g id="edge9" class="edge">
<title>6:s&#45;&gt;9:n</title>
<path fill="none" stroke="black" d="M642.97,-250.71C642.97,-250.71 656.45,-222.13 663.61,-206.94"/>
<polygon fill="black" stroke="black" points="666.86,-208.25 667.97,-197.71 660.53,-205.26 666.86,-208.25"/>
<text text-anchor="middle" x="687.97" y="-221.51" font-family="Helvetica,sans-Serif" font-size="14.00">&gt; 2.563</text>
</g>
<!-- 5 -->
<g id="node8" class="node">
<title>5</title>
<ellipse fill="#3d76cc" stroke="black" cx="115.97" cy="-35.36" rx="115.93" ry="35.21"/>
<text text-anchor="start" x="76.97" y="-46.16" font-family="Helvetica,sans-Serif" font-weight="bold" font-size="14.00"> Class=1 </text>
<text text-anchor="start" x="149.97" y="-46.16" font-family="Helvetica,sans-Serif" font-size="14.00"> </text>
<text text-anchor="start" x="41.97" y="-32.16" font-family="Helvetica,sans-Serif" font-size="14.00"> error: 0.137, n=104 </text>
<text text-anchor="start" x="60.97" y="-18.16" font-family="Helvetica,sans-Serif" font-size="14.00"> p: (0.98, 0.02) </text>
</g>
<!-- 4&#45;&gt;5 -->
<g id="edge7" class="edge">
<title>4:s&#45;&gt;5:n</title>
<path fill="none" stroke="black" d="M146.97,-121.71C146.97,-121.71 130.25,-94.21 121.37,-79.59"/>
<polygon fill="black" stroke="black" points="124.15,-77.44 115.97,-70.71 118.17,-81.07 124.15,-77.44"/>
<text text-anchor="middle" x="175.47" y="-92.51" font-family="Helvetica,sans-Serif" font-size="14.00">&lt;= 0.0974</text>
</g>
<!-- 8 -->
<g id="node11" class="node">
<title>8</title>
<ellipse fill="#3d76cc" stroke="black" cx="413.97" cy="-35.36" rx="109.7" ry="35.21"/>
<text text-anchor="start" x="374.97" y="-46.16" font-family="Helvetica,sans-Serif" font-weight="bold" font-size="14.00"> Class=1 </text>
<text text-anchor="start" x="447.97" y="-46.16" font-family="Helvetica,sans-Serif" font-size="14.00"> </text>
<text text-anchor="start" x="344.47" y="-32.16" font-family="Helvetica,sans-Serif" font-size="14.00"> error: 0.000, n=95 </text>
<text text-anchor="start" x="358.97" y="-18.16" font-family="Helvetica,sans-Serif" font-size="14.00"> p: (1.00, 0.00) </text>
</g>
<!-- 7&#45;&gt;8 -->
<g id="edge10" class="edge">
<title>7:s&#45;&gt;8:n</title>
<path fill="none" stroke="black" d="M397.97,-121.71C397.97,-121.71 406.23,-95.36 410.88,-80.54"/>
<polygon fill="black" stroke="black" points="414.31,-81.3 413.97,-70.71 407.63,-79.2 414.31,-81.3"/>
<text text-anchor="middle" x="443.97" y="-92.51" font-family="Helvetica,sans-Serif" font-size="14.00">&gt; &#45;0.8074</text>
</g>
<!-- 12 -->
<g id="node14" class="node">
<title>12</title>
<ellipse fill="#44e5b5" stroke="black" cx="971.97" cy="-160.71" rx="115.93" ry="35.21"/>
<text text-anchor="start" x="932.97" y="-171.51" font-family="Helvetica,sans-Serif" font-weight="bold" font-size="14.00"> Class=2 </text>
<text text-anchor="start" x="1005.97" y="-171.51" font-family="Helvetica,sans-Serif" font-size="14.00"> </text>
<text text-anchor="start" x="897.97" y="-157.51" font-family="Helvetica,sans-Serif" font-size="14.00"> error: 0.067, n=252 </text>
<text text-anchor="start" x="916.97" y="-143.51" font-family="Helvetica,sans-Serif" font-size="14.00"> p: (0.01, 0.99) </text>
</g>
<!-- 11&#45;&gt;12 -->
<g id="edge13" class="edge">
<title>11:s&#45;&gt;12:n</title>
<path fill="none" stroke="black" d="M1076.97,-250.71C1076.97,-250.71 1006.31,-215.05 980.92,-202.23"/>
<polygon fill="black" stroke="black" points="982.47,-199.09 971.97,-197.71 979.32,-205.34 982.47,-199.09"/>
<text text-anchor="middle" x="1055.47" y="-221.51" font-family="Helvetica,sans-Serif" font-size="14.00">&lt;= &#45;1.749</text>
</g>
<!-- 13 -->
<g id="node15" class="node">
<title>13</title>
<polygon fill="#44e5b5" stroke="black" points="1323.97,-199.71 1159.97,-199.71 1159.97,-121.71 1323.97,-121.71 1323.97,-199.71"/>
<text text-anchor="start" x="1202.97" y="-185.51" font-family="Helvetica,sans-Serif" font-weight="bold" font-size="14.00"> Class=2 </text>
<text text-anchor="start" x="1275.97" y="-185.51" font-family="Helvetica,sans-Serif" font-size="14.00"> </text>
<text text-anchor="start" x="1167.97" y="-171.51" font-family="Helvetica,sans-Serif" font-size="14.00"> error: 0.590, n=260 </text>
<text text-anchor="start" x="1186.97" y="-157.51" font-family="Helvetica,sans-Serif" font-size="14.00"> p: (0.14, 0.86) </text>
<text text-anchor="start" x="1236.47" y="-143.51" font-family="Helvetica,sans-Serif" font-size="14.00">&#45;&#45;</text>
<text text-anchor="start" x="1231.47" y="-129.51" font-family="Helvetica,sans-Serif" font-weight="bold" font-size="14.00">V3</text>
</g>
<!-- 11&#45;&gt;13 -->
<g id="edge14" class="edge">
<title>11:s&#45;&gt;13:n</title>
<path fill="none" stroke="black" d="M1076.97,-250.71C1076.97,-250.71 1196.62,-213.73 1232.14,-202.75"/>
<polygon fill="black" stroke="black" points="1233.45,-206.01 1241.97,-199.71 1231.38,-199.32 1233.45,-206.01"/>
<text text-anchor="middle" x="1211.47" y="-221.51" font-family="Helvetica,sans-Serif" font-size="14.00">&gt; &#45;1.749</text>
</g>
<!-- 17 -->
<g id="node18" class="node">
<title>17</title>
<polygon fill="#44e5b5" stroke="black" points="1617.47,-199.71 1462.47,-199.71 1462.47,-121.71 1617.47,-121.71 1617.47,-199.71"/>
<text text-anchor="start" x="1500.97" y="-185.51" font-family="Helvetica,sans-Serif" font-weight="bold" font-size="14.00"> Class=2 </text>
<text text-anchor="start" x="1573.97" y="-185.51" font-family="Helvetica,sans-Serif" font-size="14.00"> </text>
<text text-anchor="start" x="1470.47" y="-171.51" font-family="Helvetica,sans-Serif" font-size="14.00"> error: 0.816, n=87 </text>
<text text-anchor="start" x="1484.97" y="-157.51" font-family="Helvetica,sans-Serif" font-size="14.00"> p: (0.25, 0.75) </text>
<text text-anchor="start" x="1534.47" y="-143.51" font-family="Helvetica,sans-Serif" font-size="14.00">&#45;&#45;</text>
<text text-anchor="start" x="1529.47" y="-129.51" font-family="Helvetica,sans-Serif" font-weight="bold" font-size="14.00">V2</text>
</g>
<!-- 16&#45;&gt;17 -->
<g id="edge17" class="edge">
<title>16:s&#45;&gt;17:n</title>
<path fill="none" stroke="black" d="M1539.97,-250.71C1539.97,-250.71 1539.97,-224.93 1539.97,-210.03"/>
<polygon fill="black" stroke="black" points="1543.47,-209.71 1539.97,-199.71 1536.47,-209.71 1543.47,-209.71"/>
<text text-anchor="middle" x="1577.47" y="-221.51" font-family="Helvetica,sans-Serif" font-size="14.00">&lt;= &#45;2.015</text>
</g>
<!-- 19 -->
<g id="node19" class="node">
<title>19</title>
<polygon fill="#44e5b5" stroke="black" points="1876.47,-199.71 1721.47,-199.71 1721.47,-121.71 1876.47,-121.71 1876.47,-199.71"/>
<text text-anchor="start" x="1759.97" y="-185.51" font-family="Helvetica,sans-Serif" font-weight="bold" font-size="14.00"> Class=1 </text>
<text text-anchor="start" x="1832.97" y="-185.51" font-family="Helvetica,sans-Serif" font-size="14.00"> </text>
<text text-anchor="start" x="1729.47" y="-171.51" font-family="Helvetica,sans-Serif" font-size="14.00"> error: 0.351, n=91 </text>
<text text-anchor="start" x="1743.97" y="-157.51" font-family="Helvetica,sans-Serif" font-size="14.00"> p: (0.93, 0.07) </text>
<text text-anchor="start" x="1793.47" y="-143.51" font-family="Helvetica,sans-Serif" font-size="14.00">&#45;&#45;</text>
<text text-anchor="start" x="1788.47" y="-129.51" font-family="Helvetica,sans-Serif" font-weight="bold" font-size="14.00">V2</text>
</g>
<!-- 16&#45;&gt;19 -->
<g id="edge18" class="edge">
<title>16:s&#45;&gt;19:n</title>
<path fill="none" stroke="black" d="M1539.97,-250.71C1539.97,-250.71 1741.82,-210.96 1789.13,-201.65"/>
<polygon fill="black" stroke="black" points="1789.83,-205.08 1798.97,-199.71 1788.48,-198.21 1789.83,-205.08"/>
<text text-anchor="middle" x="1738.47" y="-221.51" font-family="Helvetica,sans-Serif" font-size="14.00">&gt; &#45;2.015</text>
</g>
<!-- 14 -->
<g id="node16" class="node">
<title>14</title>
<ellipse fill="#3d76cc" stroke="black" cx="937.97" cy="-35.36" rx="115.93" ry="35.21"/>
<text text-anchor="start" x="898.97" y="-46.16" font-family="Helvetica,sans-Serif" font-weight="bold" font-size="14.00"> Class=2 </text>
<text text-anchor="start" x="971.97" y="-46.16" font-family="Helvetica,sans-Serif" font-size="14.00"> </text>
<text text-anchor="start" x="863.97" y="-32.16" font-family="Helvetica,sans-Serif" font-size="14.00"> error: 0.000, n=127 </text>
<text text-anchor="start" x="882.97" y="-18.16" font-family="Helvetica,sans-Serif" font-size="14.00"> p: (0.00, 1.00) </text>
</g>
<!-- 13&#45;&gt;14 -->
<g id="edge15" class="edge">
<title>13:s&#45;&gt;14:n</title>
<path fill="none" stroke="black" d="M1241.97,-121.71C1241.97,-121.71 1000.83,-81.26 948.08,-72.41"/>
<polygon fill="black" stroke="black" points="948.41,-68.91 937.97,-70.71 947.25,-75.82 948.41,-68.91"/>
<text text-anchor="middle" x="1168.97" y="-92.51" font-family="Helvetica,sans-Serif" font-size="14.00">&lt;= &#45;0.0517</text>
</g>
<!-- 15 -->
<g id="node17" class="node">
<title>15</title>
<ellipse fill="#3d76cc" stroke="black" cx="1241.97" cy="-35.36" rx="115.93" ry="35.21"/>
<text text-anchor="start" x="1202.97" y="-46.16" font-family="Helvetica,sans-Serif" font-weight="bold" font-size="14.00"> Class=2 </text>
<text text-anchor="start" x="1275.97" y="-46.16" font-family="Helvetica,sans-Serif" font-size="14.00"> </text>
<text text-anchor="start" x="1167.97" y="-32.16" font-family="Helvetica,sans-Serif" font-size="14.00"> error: 0.853, n=133 </text>
<text text-anchor="start" x="1186.97" y="-18.16" font-family="Helvetica,sans-Serif" font-size="14.00"> p: (0.28, 0.72) </text>
</g>
<!-- 13&#45;&gt;15 -->
<g id="edge16" class="edge">
<title>13:s&#45;&gt;15:n</title>
<path fill="none" stroke="black" d="M1241.97,-121.71C1241.97,-121.71 1241.97,-95.93 1241.97,-81.03"/>
<polygon fill="black" stroke="black" points="1245.47,-80.71 1241.97,-70.71 1238.47,-80.71 1245.47,-80.71"/>
<text text-anchor="middle" x="1277.97" y="-92.51" font-family="Helvetica,sans-Serif" font-size="14.00">&gt; &#45;0.0517</text>
</g>
<!-- 18 -->
<g id="node20" class="node">
<title>18</title>
<ellipse fill="#3d76cc" stroke="black" cx="1539.97" cy="-35.36" rx="109.7" ry="35.21"/>
<text text-anchor="start" x="1500.97" y="-46.16" font-family="Helvetica,sans-Serif" font-weight="bold" font-size="14.00"> Class=2 </text>
<text text-anchor="start" x="1573.97" y="-46.16" font-family="Helvetica,sans-Serif" font-size="14.00"> </text>
<text text-anchor="start" x="1470.47" y="-32.16" font-family="Helvetica,sans-Serif" font-size="14.00"> error: 0.116, n=64 </text>
<text text-anchor="start" x="1484.97" y="-18.16" font-family="Helvetica,sans-Serif" font-size="14.00"> p: (0.02, 0.98) </text>
</g>
<!-- 17&#45;&gt;18 -->
<g id="edge19" class="edge">
<title>17:s&#45;&gt;18:n</title>
<path fill="none" stroke="black" d="M1539.97,-121.71C1539.97,-121.71 1539.97,-95.93 1539.97,-81.03"/>
<polygon fill="black" stroke="black" points="1543.47,-80.71 1539.97,-70.71 1536.47,-80.71 1543.47,-80.71"/>
<text text-anchor="middle" x="1574.97" y="-92.51" font-family="Helvetica,sans-Serif" font-size="14.00">&lt;= 9.295</text>
</g>
<!-- 20 -->
<g id="node21" class="node">
<title>20</title>
<ellipse fill="#3d76cc" stroke="black" cx="1830.97" cy="-35.36" rx="109.7" ry="35.21"/>
<text text-anchor="start" x="1791.97" y="-46.16" font-family="Helvetica,sans-Serif" font-weight="bold" font-size="14.00"> Class=1 </text>
<text text-anchor="start" x="1864.97" y="-46.16" font-family="Helvetica,sans-Serif" font-size="14.00"> </text>
<text text-anchor="start" x="1761.47" y="-32.16" font-family="Helvetica,sans-Serif" font-size="14.00"> error: 0.000, n=70 </text>
<text text-anchor="start" x="1775.97" y="-18.16" font-family="Helvetica,sans-Serif" font-size="14.00"> p: (1.00, 0.00) </text>
</g>
<!-- 19&#45;&gt;20 -->
<g id="edge20" class="edge">
<title>19:s&#45;&gt;20:n</title>
<path fill="none" stroke="black" d="M1798.97,-121.71C1798.97,-121.71 1816.22,-94.21 1825.39,-79.59"/>
<polygon fill="black" stroke="black" points="1828.62,-81.04 1830.97,-70.71 1822.69,-77.32 1828.62,-81.04"/>
<text text-anchor="middle" x="1847.97" y="-92.51" font-family="Helvetica,sans-Serif" font-size="14.00">&gt; 6.874</text>
</g>
</g>
</svg>
