<?xml version="1.0" encoding="UTF-8" standalone="no"?>
<!DOCTYPE svg PUBLIC "-//W3C//DTD SVG 1.1//EN"
 "http://www.w3.org/Graphics/SVG/1.1/DTD/svg11.dtd">
<!-- Generated by graphviz version 2.43.0 (0)
 -->
<!-- Title: Tree Pages: 1 -->
<svg width="1758pt" height="696pt"
 viewBox="0.00 0.00 1757.66 695.71" xmlns="http://www.w3.org/2000/svg" xmlns:xlink="http://www.w3.org/1999/xlink">
<g id="graph0" class="graph" transform="scale(1 1) rotate(0) translate(18 677.71)">
<title>Tree</title>
<polygon fill="white" stroke="transparent" points="-18,18 -18,-677.71 1739.66,-677.71 1739.66,18 -18,18"/>
<!-- 0 -->
<g id="node1" class="node">
<title>0</title>
<polygon fill="white" stroke="transparent" points="768.33,-659.71 714.33,-659.71 714.33,-623.71 768.33,-623.71 768.33,-659.71"/>
<text text-anchor="middle" x="741.33" y="-638.01" font-family="Helvetica,sans-Serif" font-size="14.00">0</text>
</g>
<!-- 1 -->
<g id="node2" class="node">
<title>1</title>
<polygon fill="#cc3d3d" stroke="black" points="832.33,-586.71 650.33,-586.71 650.33,-508.71 832.33,-508.71 832.33,-586.71"/>
<text text-anchor="start" x="702.33" y="-572.51" font-family="Helvetica,sans-Serif" font-weight="bold" font-size="14.00"> Class=1 </text>
<text text-anchor="start" x="775.33" y="-572.51" font-family="Helvetica,sans-Serif" font-size="14.00"> </text>
<text text-anchor="start" x="658.33" y="-558.51" font-family="Helvetica,sans-Serif" font-size="14.00"> error: 0.521, n=45211 </text>
<text text-anchor="start" x="686.33" y="-544.51" font-family="Helvetica,sans-Serif" font-size="14.00"> p: (0.88, 0.12) </text>
<text text-anchor="start" x="733.33" y="-530.51" font-family="Helvetica,sans-Serif" font-size="14.00">&#45;&#45;&#45;</text>
<text text-anchor="start" x="725.83" y="-516.51" font-family="Helvetica,sans-Serif" font-weight="bold" font-size="14.00">V12</text>
</g>
<!-- 0&#45;&gt;1 -->
<!-- 2 -->
<g id="node3" class="node">
<title>2</title>
<polygon fill="#e5d544" stroke="black" points="685.83,-457.71 512.83,-457.71 512.83,-379.71 685.83,-379.71 685.83,-457.71"/>
<text text-anchor="start" x="560.33" y="-443.51" font-family="Helvetica,sans-Serif" font-weight="bold" font-size="14.00"> Class=1 </text>
<text text-anchor="start" x="633.33" y="-443.51" font-family="Helvetica,sans-Serif" font-size="14.00"> </text>
<text text-anchor="start" x="520.83" y="-429.51" font-family="Helvetica,sans-Serif" font-size="14.00"> error: 0.934, n=8115 </text>
<text text-anchor="start" x="544.33" y="-415.51" font-family="Helvetica,sans-Serif" font-size="14.00"> p: (0.65, 0.35) </text>
<text text-anchor="start" x="591.33" y="-401.51" font-family="Helvetica,sans-Serif" font-size="14.00">&#45;&#45;&#45;</text>
<text text-anchor="start" x="583.83" y="-387.51" font-family="Helvetica,sans-Serif" font-weight="bold" font-size="14.00">V12</text>
</g>
<!-- 1&#45;&gt;2 -->
<g id="edge2" class="edge">
<title>1:s&#45;&gt;2:n</title>
<path fill="none" stroke="black" d="M741.33,-508.71C741.33,-508.71 641.17,-472.74 609.09,-461.22"/>
<polygon fill="black" stroke="black" points="609.92,-457.8 599.33,-457.71 607.56,-464.38 609.92,-457.8"/>
<text text-anchor="middle" x="709.33" y="-479.51" font-family="Helvetica,sans-Serif" font-size="14.00">&gt; 393</text>
</g>
<!-- 6 -->
<g id="node4" class="node">
<title>6</title>
<polygon fill="#e5d544" stroke="black" points="1053.33,-457.71 871.33,-457.71 871.33,-379.71 1053.33,-379.71 1053.33,-457.71"/>
<text text-anchor="start" x="923.33" y="-443.51" font-family="Helvetica,sans-Serif" font-weight="bold" font-size="14.00"> Class=1 </text>
<text text-anchor="start" x="996.33" y="-443.51" font-family="Helvetica,sans-Serif" font-size="14.00"> </text>
<text text-anchor="start" x="879.33" y="-429.51" font-family="Helvetica,sans-Serif" font-size="14.00"> error: 0.350, n=37096 </text>
<text text-anchor="start" x="907.33" y="-415.51" font-family="Helvetica,sans-Serif" font-size="14.00"> p: (0.93, 0.07) </text>
<text text-anchor="start" x="954.33" y="-401.51" font-family="Helvetica,sans-Serif" font-size="14.00">&#45;&#45;&#45;</text>
<text text-anchor="start" x="946.83" y="-387.51" font-family="Helvetica,sans-Serif" font-weight="bold" font-size="14.00">V16</text>
</g>
<!-- 1&#45;&gt;6 -->
<g id="edge3" class="edge">
<title>1:s&#45;&gt;6:n</title>
<path fill="none" stroke="black" d="M741.33,-508.71C741.33,-508.71 909.78,-469.84 952.55,-459.97"/>
<polygon fill="black" stroke="black" points="953.37,-463.37 962.33,-457.71 951.8,-456.55 953.37,-463.37"/>
<text text-anchor="middle" x="906.33" y="-479.51" font-family="Helvetica,sans-Serif" font-size="14.00">&lt;= 393</text>
</g>
<!-- 3 -->
<g id="node5" class="node">
<title>3</title>
<polygon fill="#59cc3d" stroke="black" points="248.83,-328.71 75.83,-328.71 75.83,-250.71 248.83,-250.71 248.83,-328.71"/>
<text text-anchor="start" x="123.33" y="-314.51" font-family="Helvetica,sans-Serif" font-weight="bold" font-size="14.00"> Class=1 </text>
<text text-anchor="start" x="196.33" y="-314.51" font-family="Helvetica,sans-Serif" font-size="14.00"> </text>
<text text-anchor="start" x="83.83" y="-300.51" font-family="Helvetica,sans-Serif" font-size="14.00"> error: 0.826, n=5322 </text>
<text text-anchor="start" x="107.33" y="-286.51" font-family="Helvetica,sans-Serif" font-size="14.00"> p: (0.74, 0.26) </text>
<text text-anchor="start" x="154.33" y="-272.51" font-family="Helvetica,sans-Serif" font-size="14.00">&#45;&#45;&#45;</text>
<text text-anchor="start" x="146.83" y="-258.51" font-family="Helvetica,sans-Serif" font-weight="bold" font-size="14.00">V16</text>
</g>
<!-- 2&#45;&gt;3 -->
<g id="edge4" class="edge">
<title>2:s&#45;&gt;3:n</title>
<path fill="none" stroke="black" d="M599.33,-379.71C599.33,-379.71 237.33,-337.46 172.28,-329.87"/>
<polygon fill="black" stroke="black" points="172.67,-326.39 162.33,-328.71 171.86,-333.35 172.67,-326.39"/>
<text text-anchor="middle" x="461.33" y="-350.51" font-family="Helvetica,sans-Serif" font-size="14.00">&lt;= 688</text>
</g>
<!-- 5 -->
<g id="node6" class="node">
<title>5</title>
<ellipse fill="#59cc3d" stroke="black" cx="599.33" cy="-289.71" rx="122.16" ry="35.21"/>
<text text-anchor="start" x="560.33" y="-300.51" font-family="Helvetica,sans-Serif" font-weight="bold" font-size="14.00"> Class=2 </text>
<text text-anchor="start" x="633.33" y="-300.51" font-family="Helvetica,sans-Serif" font-size="14.00"> </text>
<text text-anchor="start" x="520.83" y="-286.51" font-family="Helvetica,sans-Serif" font-size="14.00"> error: 0.998, n=2793 </text>
<text text-anchor="start" x="544.33" y="-272.51" font-family="Helvetica,sans-Serif" font-size="14.00"> p: (0.48, 0.52) </text>
</g>
<!-- 2&#45;&gt;5 -->
<g id="edge5" class="edge">
<title>2:s&#45;&gt;5:n</title>
<path fill="none" stroke="black" d="M599.33,-379.71C599.33,-379.71 599.33,-352.33 599.33,-336.93"/>
<polygon fill="black" stroke="black" points="602.83,-336.71 599.33,-326.71 595.83,-336.71 602.83,-336.71"/>
<text text-anchor="middle" x="621.33" y="-350.51" font-family="Helvetica,sans-Serif" font-size="14.00">&gt; 688</text>
</g>
<!-- 7 -->
<g id="node8" class="node">
<title>7</title>
<polygon fill="#59cc3d" stroke="black" points="1053.33,-328.71 871.33,-328.71 871.33,-250.71 1053.33,-250.71 1053.33,-328.71"/>
<text text-anchor="start" x="923.33" y="-314.51" font-family="Helvetica,sans-Serif" font-weight="bold" font-size="14.00"> Class=1 </text>
<text text-anchor="start" x="996.33" y="-314.51" font-family="Helvetica,sans-Serif" font-size="14.00"> </text>
<text text-anchor="start" x="879.33" y="-300.51" font-family="Helvetica,sans-Serif" font-size="14.00"> error: 0.248, n=30324 </text>
<text text-anchor="start" x="907.33" y="-286.51" font-family="Helvetica,sans-Serif" font-size="14.00"> p: (0.96, 0.04) </text>
<text text-anchor="start" x="954.33" y="-272.51" font-family="Helvetica,sans-Serif" font-size="14.00">&#45;&#45;&#45;</text>
<text text-anchor="start" x="946.83" y="-258.51" font-family="Helvetica,sans-Serif" font-weight="bold" font-size="14.00">V11</text>
</g>
<!-- 6&#45;&gt;7 -->
<g id="edge7" class="edge">
<title>6:s&#45;&gt;7:n</title>
<path fill="none" stroke="black" d="M962.33,-379.71C962.33,-379.71 962.33,-353.93 962.33,-339.03"/>
<polygon fill="black" stroke="black" points="965.83,-338.71 962.33,-328.71 958.83,-338.71 965.83,-338.71"/>
<text text-anchor="middle" x="994.33" y="-350.51" font-family="Helvetica,sans-Serif" font-size="14.00">unknown</text>
</g>
<!-- 15 -->
<g id="node9" class="node">
<title>15</title>
<ellipse fill="#59cc3d" stroke="black" cx="1247.33" cy="-289.71" rx="122.16" ry="35.21"/>
<text text-anchor="start" x="1208.33" y="-300.51" font-family="Helvetica,sans-Serif" font-weight="bold" font-size="14.00"> Class=1 </text>
<text text-anchor="start" x="1281.33" y="-300.51" font-family="Helvetica,sans-Serif" font-size="14.00"> </text>
<text text-anchor="start" x="1168.83" y="-286.51" font-family="Helvetica,sans-Serif" font-size="14.00"> error: 0.404, n=4129 </text>
<text text-anchor="start" x="1192.33" y="-272.51" font-family="Helvetica,sans-Serif" font-size="14.00"> p: (0.92, 0.08) </text>
</g>
<!-- 6&#45;&gt;15 -->
<g id="edge8" class="edge">
<title>6:s&#45;&gt;15:n</title>
<path fill="none" stroke="black" d="M962.33,-379.71C962.33,-379.71 1186.42,-338.04 1237.19,-328.6"/>
<polygon fill="black" stroke="black" points="1238.14,-331.98 1247.33,-326.71 1236.86,-325.1 1238.14,-331.98"/>
<text text-anchor="middle" x="1161.33" y="-350.51" font-family="Helvetica,sans-Serif" font-size="14.00">failure</text>
</g>
<!-- 4 -->
<g id="node7" class="node">
<title>4</title>
<ellipse fill="#44e5b5" stroke="black" cx="122.33" cy="-160.71" rx="122.16" ry="35.21"/>
<text text-anchor="start" x="83.33" y="-171.51" font-family="Helvetica,sans-Serif" font-weight="bold" font-size="14.00"> Class=1 </text>
<text text-anchor="start" x="156.33" y="-171.51" font-family="Helvetica,sans-Serif" font-size="14.00"> </text>
<text text-anchor="start" x="43.83" y="-157.51" font-family="Helvetica,sans-Serif" font-size="14.00"> error: 0.755, n=4295 </text>
<text text-anchor="start" x="67.33" y="-143.51" font-family="Helvetica,sans-Serif" font-size="14.00"> p: (0.78, 0.22) </text>
</g>
<!-- 3&#45;&gt;4 -->
<g id="edge6" class="edge">
<title>3:s&#45;&gt;4:n</title>
<path fill="none" stroke="black" d="M162.33,-250.71C162.33,-250.71 139.83,-220.9 128.58,-205.99"/>
<polygon fill="black" stroke="black" points="131.15,-203.58 122.33,-197.71 125.56,-207.8 131.15,-203.58"/>
<text text-anchor="middle" x="180.33" y="-221.51" font-family="Helvetica,sans-Serif" font-size="14.00">unknown</text>
</g>
<!-- 8 -->
<g id="node10" class="node">
<title>8</title>
<ellipse fill="#44e5b5" stroke="black" cx="439.33" cy="-160.71" rx="122.16" ry="35.21"/>
<text text-anchor="start" x="400.33" y="-171.51" font-family="Helvetica,sans-Serif" font-weight="bold" font-size="14.00"> Class=1 </text>
<text text-anchor="start" x="473.33" y="-171.51" font-family="Helvetica,sans-Serif" font-size="14.00"> </text>
<text text-anchor="start" x="360.83" y="-157.51" font-family="Helvetica,sans-Serif" font-size="14.00"> error: 0.083, n=9209 </text>
<text text-anchor="start" x="384.33" y="-143.51" font-family="Helvetica,sans-Serif" font-size="14.00"> p: (0.99, 0.01) </text>
</g>
<!-- 7&#45;&gt;8 -->
<g id="edge9" class="edge">
<title>7:s&#45;&gt;8:n</title>
<path fill="none" stroke="black" d="M962.33,-250.71C962.33,-250.71 521.61,-206.05 449.31,-198.72"/>
<polygon fill="black" stroke="black" points="449.63,-195.24 439.33,-197.71 448.93,-202.2 449.63,-195.24"/>
<text text-anchor="middle" x="779.83" y="-221.51" font-family="Helvetica,sans-Serif" font-size="14.00">may</text>
</g>
<!-- 9 -->
<g id="node11" class="node">
<title>9</title>
<polygon fill="#44e5b5" stroke="black" points="806.83,-199.71 633.83,-199.71 633.83,-121.71 806.83,-121.71 806.83,-199.71"/>
<text text-anchor="start" x="681.33" y="-185.51" font-family="Helvetica,sans-Serif" font-weight="bold" font-size="14.00"> Class=1 </text>
<text text-anchor="start" x="754.33" y="-185.51" font-family="Helvetica,sans-Serif" font-size="14.00"> </text>
<text text-anchor="start" x="641.83" y="-171.51" font-family="Helvetica,sans-Serif" font-size="14.00"> error: 0.213, n=4187 </text>
<text text-anchor="start" x="665.33" y="-157.51" font-family="Helvetica,sans-Serif" font-size="14.00"> p: (0.97, 0.03) </text>
<text text-anchor="start" x="714.83" y="-143.51" font-family="Helvetica,sans-Serif" font-size="14.00">&#45;&#45;</text>
<text text-anchor="start" x="709.83" y="-129.51" font-family="Helvetica,sans-Serif" font-weight="bold" font-size="14.00">V9</text>
</g>
<!-- 7&#45;&gt;9 -->
<g id="edge10" class="edge">
<title>7:s&#45;&gt;9:n</title>
<path fill="none" stroke="black" d="M962.33,-250.71C962.33,-250.71 775.39,-211.31 730.12,-201.77"/>
<polygon fill="black" stroke="black" points="730.84,-198.35 720.33,-199.71 729.39,-205.2 730.84,-198.35"/>
<text text-anchor="middle" x="881.33" y="-221.51" font-family="Helvetica,sans-Serif" font-size="14.00">jun</text>
</g>
<!-- 11 -->
<g id="node12" class="node">
<title>11</title>
<ellipse fill="#44e5b5" stroke="black" cx="1001.33" cy="-160.71" rx="122.16" ry="35.21"/>
<text text-anchor="start" x="962.33" y="-171.51" font-family="Helvetica,sans-Serif" font-weight="bold" font-size="14.00"> Class=1 </text>
<text text-anchor="start" x="1035.33" y="-171.51" font-family="Helvetica,sans-Serif" font-size="14.00"> </text>
<text text-anchor="start" x="922.83" y="-157.51" font-family="Helvetica,sans-Serif" font-size="14.00"> error: 0.113, n=5336 </text>
<text text-anchor="start" x="946.33" y="-143.51" font-family="Helvetica,sans-Serif" font-size="14.00"> p: (0.98, 0.02) </text>
</g>
<!-- 7&#45;&gt;11 -->
<g id="edge11" class="edge">
<title>7:s&#45;&gt;11:n</title>
<path fill="none" stroke="black" d="M962.33,-250.71C962.33,-250.71 984.27,-220.9 995.24,-205.99"/>
<polygon fill="black" stroke="black" points="998.22,-207.84 1001.33,-197.71 992.58,-203.69 998.22,-207.84"/>
<text text-anchor="middle" x="995.83" y="-221.51" font-family="Helvetica,sans-Serif" font-size="14.00">jul</text>
</g>
<!-- 12 -->
<g id="node13" class="node">
<title>12</title>
<ellipse fill="#44e5b5" stroke="black" cx="1318.33" cy="-160.71" rx="122.16" ry="35.21"/>
<text text-anchor="start" x="1279.33" y="-171.51" font-family="Helvetica,sans-Serif" font-weight="bold" font-size="14.00"> Class=1 </text>
<text text-anchor="start" x="1352.33" y="-171.51" font-family="Helvetica,sans-Serif" font-size="14.00"> </text>
<text text-anchor="start" x="1239.83" y="-157.51" font-family="Helvetica,sans-Serif" font-size="14.00"> error: 0.174, n=4906 </text>
<text text-anchor="start" x="1263.33" y="-143.51" font-family="Helvetica,sans-Serif" font-size="14.00"> p: (0.97, 0.03) </text>
</g>
<!-- 7&#45;&gt;12 -->
<g id="edge12" class="edge">
<title>7:s&#45;&gt;12:n</title>
<path fill="none" stroke="black" d="M962.33,-250.71C962.33,-250.71 1250.94,-207.74 1308.44,-199.18"/>
<polygon fill="black" stroke="black" points="1308.95,-202.65 1318.33,-197.71 1307.92,-195.72 1308.95,-202.65"/>
<text text-anchor="middle" x="1196.83" y="-221.51" font-family="Helvetica,sans-Serif" font-size="14.00">aug</text>
</g>
<!-- 13 -->
<g id="node14" class="node">
<title>13</title>
<polygon fill="#44e5b5" stroke="black" points="1685.83,-199.71 1512.83,-199.71 1512.83,-121.71 1685.83,-121.71 1685.83,-199.71"/>
<text text-anchor="start" x="1560.33" y="-185.51" font-family="Helvetica,sans-Serif" font-weight="bold" font-size="14.00"> Class=1 </text>
<text text-anchor="start" x="1633.33" y="-185.51" font-family="Helvetica,sans-Serif" font-size="14.00"> </text>
<text text-anchor="start" x="1520.83" y="-171.51" font-family="Helvetica,sans-Serif" font-size="14.00"> error: 0.211, n=2313 </text>
<text text-anchor="start" x="1544.33" y="-157.51" font-family="Helvetica,sans-Serif" font-size="14.00"> p: (0.97, 0.03) </text>
<text text-anchor="start" x="1591.33" y="-143.51" font-family="Helvetica,sans-Serif" font-size="14.00">&#45;&#45;&#45;</text>
<text text-anchor="start" x="1583.83" y="-129.51" font-family="Helvetica,sans-Serif" font-weight="bold" font-size="14.00">V10</text>
</g>
<!-- 7&#45;&gt;13 -->
<g id="edge13" class="edge">
<title>7:s&#45;&gt;13:n</title>
<path fill="none" stroke="black" d="M962.33,-250.71C962.33,-250.71 1508.28,-207 1589.32,-200.51"/>
<polygon fill="black" stroke="black" points="1589.64,-204 1599.33,-199.71 1589.08,-197.02 1589.64,-204"/>
<text text-anchor="middle" x="1405.33" y="-221.51" font-family="Helvetica,sans-Serif" font-size="14.00">nov</text>
</g>
<!-- 10 -->
<g id="node15" class="node">
<title>10</title>
<ellipse fill="#3d76cc" stroke="black" cx="720.33" cy="-35.36" rx="122.16" ry="35.21"/>
<text text-anchor="start" x="681.33" y="-46.16" font-family="Helvetica,sans-Serif" font-weight="bold" font-size="14.00"> Class=1 </text>
<text text-anchor="start" x="754.33" y="-46.16" font-family="Helvetica,sans-Serif" font-size="14.00"> </text>
<text text-anchor="start" x="641.83" y="-32.16" font-family="Helvetica,sans-Serif" font-size="14.00"> error: 0.026, n=3777 </text>
<text text-anchor="start" x="665.33" y="-18.16" font-family="Helvetica,sans-Serif" font-size="14.00"> p: (1.00, 0.00) </text>
</g>
<!-- 9&#45;&gt;10 -->
<g id="edge14" class="edge">
<title>9:s&#45;&gt;10:n</title>
<path fill="none" stroke="black" d="M720.33,-121.71C720.33,-121.71 720.33,-95.93 720.33,-81.03"/>
<polygon fill="black" stroke="black" points="723.83,-80.71 720.33,-70.71 716.83,-80.71 723.83,-80.71"/>
<text text-anchor="middle" x="752.33" y="-92.51" font-family="Helvetica,sans-Serif" font-size="14.00">unknown</text>
</g>
<!-- 14 -->
<g id="node16" class="node">
<title>14</title>
<ellipse fill="#3d76cc" stroke="black" cx="1599.33" cy="-35.36" rx="122.16" ry="35.21"/>
<text text-anchor="start" x="1560.33" y="-46.16" font-family="Helvetica,sans-Serif" font-weight="bold" font-size="14.00"> Class=1 </text>
<text text-anchor="start" x="1633.33" y="-46.16" font-family="Helvetica,sans-Serif" font-size="14.00"> </text>
<text text-anchor="start" x="1520.83" y="-32.16" font-family="Helvetica,sans-Serif" font-size="14.00"> error: 0.115, n=2201 </text>
<text text-anchor="start" x="1544.33" y="-18.16" font-family="Helvetica,sans-Serif" font-size="14.00"> p: (0.98, 0.02) </text>
</g>
<!-- 13&#45;&gt;14 -->
<g id="edge15" class="edge">
<title>13:s&#45;&gt;14:n</title>
<path fill="none" stroke="black" d="M1599.33,-121.71C1599.33,-121.71 1599.33,-95.93 1599.33,-81.03"/>
<polygon fill="black" stroke="black" points="1602.83,-80.71 1599.33,-70.71 1595.83,-80.71 1602.83,-80.71"/>
<text text-anchor="middle" x="1616.83" y="-92.51" font-family="Helvetica,sans-Serif" font-size="14.00">&gt; 13</text>
</g>
</g>
</svg>
