<?xml version="1.0" encoding="UTF-8" standalone="no"?>
<!DOCTYPE svg PUBLIC "-//W3C//DTD SVG 1.1//EN"
 "http://www.w3.org/Graphics/SVG/1.1/DTD/svg11.dtd">
<!-- Generated by graphviz version 2.43.0 (0)
 -->
<!-- Title: Tree Pages: 1 -->
<svg width="702pt" height="696pt"
 viewBox="0.00 0.00 701.93 695.71" xmlns="http://www.w3.org/2000/svg" xmlns:xlink="http://www.w3.org/1999/xlink">
<g id="graph0" class="graph" transform="scale(1 1) rotate(0) translate(18 677.71)">
<title>Tree</title>
<polygon fill="white" stroke="transparent" points="-18,18 -18,-677.71 683.93,-677.71 683.93,18 -18,18"/>
<!-- 0 -->
<g id="node1" class="node">
<title>0</title>
<polygon fill="white" stroke="transparent" points="365.97,-659.71 311.97,-659.71 311.97,-623.71 365.97,-623.71 365.97,-659.71"/>
<text text-anchor="middle" x="338.97" y="-638.01" font-family="Helvetica,sans-Serif" font-size="14.00">0</text>
</g>
<!-- 1 -->
<g id="node2" class="node">
<title>1</title>
<polygon fill="#cc3d3d" stroke="black" points="425.47,-586.71 252.47,-586.71 252.47,-508.71 425.47,-508.71 425.47,-586.71"/>
<text text-anchor="start" x="299.97" y="-572.51" font-family="Helvetica,sans-Serif" font-weight="bold" font-size="14.00"> Class=1 </text>
<text text-anchor="start" x="372.97" y="-572.51" font-family="Helvetica,sans-Serif" font-size="14.00"> </text>
<text text-anchor="start" x="260.47" y="-558.51" font-family="Helvetica,sans-Serif" font-size="14.00"> error: 0.995, n=3751 </text>
<text text-anchor="start" x="283.97" y="-544.51" font-family="Helvetica,sans-Serif" font-size="14.00"> p: (0.46, 0.54) </text>
<text text-anchor="start" x="317.47" y="-530.51" font-family="Helvetica,sans-Serif" font-size="14.00">&#45;&#45;&#45;&#45;&#45;&#45;&#45;&#45;</text>
<text text-anchor="start" x="302.47" y="-516.51" font-family="Helvetica,sans-Serif" font-weight="bold" font-size="14.00">v_3=0.03</text>
</g>
<!-- 0&#45;&gt;1 -->
<!-- 2 -->
<g id="node3" class="node">
<title>2</title>
<polygon fill="#e5d544" stroke="black" points="284.47,-457.71 111.47,-457.71 111.47,-379.71 284.47,-379.71 284.47,-457.71"/>
<text text-anchor="start" x="158.97" y="-443.51" font-family="Helvetica,sans-Serif" font-weight="bold" font-size="14.00"> Class=1 </text>
<text text-anchor="start" x="231.97" y="-443.51" font-family="Helvetica,sans-Serif" font-size="14.00"> </text>
<text text-anchor="start" x="119.47" y="-429.51" font-family="Helvetica,sans-Serif" font-size="14.00"> error: 0.929, n=1876 </text>
<text text-anchor="start" x="142.97" y="-415.51" font-family="Helvetica,sans-Serif" font-size="14.00"> p: (0.34, 0.66) </text>
<text text-anchor="start" x="173.97" y="-401.51" font-family="Helvetica,sans-Serif" font-size="14.00">&#45;&#45;&#45;&#45;&#45;&#45;&#45;&#45;&#45;</text>
<text text-anchor="start" x="156.97" y="-387.51" font-family="Helvetica,sans-Serif" font-weight="bold" font-size="14.00">v_15=0.01</text>
</g>
<!-- 1&#45;&gt;2 -->
<g id="edge2" class="edge">
<title>1:s&#45;&gt;2:n</title>
<path fill="none" stroke="black" d="M338.97,-508.71C338.97,-508.71 239.51,-472.74 207.66,-461.22"/>
<polygon fill="black" stroke="black" points="208.56,-457.82 197.97,-457.71 206.18,-464.4 208.56,-457.82"/>
<text text-anchor="middle" x="326.47" y="-479.51" font-family="Helvetica,sans-Serif" font-size="14.00">&gt; &#45;0.01649</text>
</g>
<!-- 8 -->
<g id="node4" class="node">
<title>8</title>
<ellipse fill="#e5d544" stroke="black" cx="478.97" cy="-418.71" rx="122.16" ry="35.21"/>
<text text-anchor="start" x="439.97" y="-429.51" font-family="Helvetica,sans-Serif" font-weight="bold" font-size="14.00"> Class=0 </text>
<text text-anchor="start" x="512.97" y="-429.51" font-family="Helvetica,sans-Serif" font-size="14.00"> </text>
<text text-anchor="start" x="400.47" y="-415.51" font-family="Helvetica,sans-Serif" font-size="14.00"> error: 0.985, n=1875 </text>
<text text-anchor="start" x="423.97" y="-401.51" font-family="Helvetica,sans-Serif" font-size="14.00"> p: (0.57, 0.43) </text>
</g>
<!-- 1&#45;&gt;8 -->
<g id="edge3" class="edge">
<title>1:s&#45;&gt;8:n</title>
<path fill="none" stroke="black" d="M338.97,-508.71C338.97,-508.71 437.71,-471.33 469.34,-459.35"/>
<polygon fill="black" stroke="black" points="470.85,-462.52 478.97,-455.71 468.37,-455.98 470.85,-462.52"/>
<text text-anchor="middle" x="472.47" y="-479.51" font-family="Helvetica,sans-Serif" font-size="14.00">&lt;= &#45;0.01649</text>
</g>
<!-- 3 -->
<g id="node5" class="node">
<title>3</title>
<ellipse fill="#59cc3d" stroke="black" cx="115.97" cy="-289.71" rx="115.93" ry="35.21"/>
<text text-anchor="start" x="76.97" y="-300.51" font-family="Helvetica,sans-Serif" font-weight="bold" font-size="14.00"> Class=1 </text>
<text text-anchor="start" x="149.97" y="-300.51" font-family="Helvetica,sans-Serif" font-size="14.00"> </text>
<text text-anchor="start" x="41.97" y="-286.51" font-family="Helvetica,sans-Serif" font-size="14.00"> error: 0.731, n=939 </text>
<text text-anchor="start" x="60.97" y="-272.51" font-family="Helvetica,sans-Serif" font-size="14.00"> p: (0.20, 0.80) </text>
</g>
<!-- 2&#45;&gt;3 -->
<g id="edge4" class="edge">
<title>2:s&#45;&gt;3:n</title>
<path fill="none" stroke="black" d="M197.97,-379.71C197.97,-379.71 145.38,-345.72 124.43,-332.18"/>
<polygon fill="black" stroke="black" points="126.26,-329.2 115.97,-326.71 122.46,-335.08 126.26,-329.2"/>
<text text-anchor="middle" x="198.97" y="-350.51" font-family="Helvetica,sans-Serif" font-size="14.00">&lt;= 0.06475</text>
</g>
<!-- 4 -->
<g id="node6" class="node">
<title>4</title>
<polygon fill="#59cc3d" stroke="black" points="467.97,-328.71 303.97,-328.71 303.97,-250.71 467.97,-250.71 467.97,-328.71"/>
<text text-anchor="start" x="346.97" y="-314.51" font-family="Helvetica,sans-Serif" font-weight="bold" font-size="14.00"> Class=1 </text>
<text text-anchor="start" x="419.97" y="-314.51" font-family="Helvetica,sans-Serif" font-size="14.00"> </text>
<text text-anchor="start" x="311.97" y="-300.51" font-family="Helvetica,sans-Serif" font-size="14.00"> error: 0.999, n=937 </text>
<text text-anchor="start" x="330.97" y="-286.51" font-family="Helvetica,sans-Serif" font-size="14.00"> p: (0.48, 0.52) </text>
<text text-anchor="start" x="364.47" y="-272.51" font-family="Helvetica,sans-Serif" font-size="14.00">&#45;&#45;&#45;&#45;&#45;&#45;&#45;&#45;</text>
<text text-anchor="start" x="349.47" y="-258.51" font-family="Helvetica,sans-Serif" font-weight="bold" font-size="14.00">v_7=0.02</text>
</g>
<!-- 2&#45;&gt;4 -->
<g id="edge5" class="edge">
<title>2:s&#45;&gt;4:n</title>
<path fill="none" stroke="black" d="M197.97,-379.71C197.97,-379.71 337.44,-341.87 376.12,-331.38"/>
<polygon fill="black" stroke="black" points="377.23,-334.71 385.97,-328.71 375.4,-327.95 377.23,-334.71"/>
<text text-anchor="middle" x="352.97" y="-350.51" font-family="Helvetica,sans-Serif" font-size="14.00">&gt; 0.06475</text>
</g>
<!-- 5 -->
<g id="node7" class="node">
<title>5</title>
<ellipse fill="#44e5b5" stroke="black" cx="279.97" cy="-160.71" rx="115.93" ry="35.21"/>
<text text-anchor="start" x="240.97" y="-171.51" font-family="Helvetica,sans-Serif" font-weight="bold" font-size="14.00"> Class=0 </text>
<text text-anchor="start" x="313.97" y="-171.51" font-family="Helvetica,sans-Serif" font-size="14.00"> </text>
<text text-anchor="start" x="205.97" y="-157.51" font-family="Helvetica,sans-Serif" font-size="14.00"> error: 0.993, n=703 </text>
<text text-anchor="start" x="224.97" y="-143.51" font-family="Helvetica,sans-Serif" font-size="14.00"> p: (0.55, 0.45) </text>
</g>
<!-- 4&#45;&gt;5 -->
<g id="edge6" class="edge">
<title>4:s&#45;&gt;5:n</title>
<path fill="none" stroke="black" d="M385.97,-250.71C385.97,-250.71 314.64,-215.05 289,-202.23"/>
<polygon fill="black" stroke="black" points="290.48,-199.05 279.97,-197.71 287.34,-205.31 290.48,-199.05"/>
<text text-anchor="middle" x="363.47" y="-221.51" font-family="Helvetica,sans-Serif" font-size="14.00">&lt;= 0.3043</text>
</g>
<!-- 6 -->
<g id="node8" class="node">
<title>6</title>
<polygon fill="#44e5b5" stroke="black" points="631.97,-199.71 467.97,-199.71 467.97,-121.71 631.97,-121.71 631.97,-199.71"/>
<text text-anchor="start" x="510.97" y="-185.51" font-family="Helvetica,sans-Serif" font-weight="bold" font-size="14.00"> Class=1 </text>
<text text-anchor="start" x="583.97" y="-185.51" font-family="Helvetica,sans-Serif" font-size="14.00"> </text>
<text text-anchor="start" x="475.97" y="-171.51" font-family="Helvetica,sans-Serif" font-size="14.00"> error: 0.864, n=234 </text>
<text text-anchor="start" x="494.97" y="-157.51" font-family="Helvetica,sans-Serif" font-size="14.00"> p: (0.29, 0.71) </text>
<text text-anchor="start" x="525.97" y="-143.51" font-family="Helvetica,sans-Serif" font-size="14.00">&#45;&#45;&#45;&#45;&#45;&#45;&#45;&#45;&#45;</text>
<text text-anchor="start" x="508.97" y="-129.51" font-family="Helvetica,sans-Serif" font-weight="bold" font-size="14.00">v_21=0.01</text>
</g>
<!-- 4&#45;&gt;6 -->
<g id="edge7" class="edge">
<title>4:s&#45;&gt;6:n</title>
<path fill="none" stroke="black" d="M385.97,-250.71C385.97,-250.71 504.89,-213.73 540.2,-202.75"/>
<polygon fill="black" stroke="black" points="541.46,-206.02 549.97,-199.71 539.38,-199.34 541.46,-206.02"/>
<text text-anchor="middle" x="521.47" y="-221.51" font-family="Helvetica,sans-Serif" font-size="14.00">&gt; 0.3043</text>
</g>
<!-- 7 -->
<g id="node9" class="node">
<title>7</title>
<ellipse fill="#3d76cc" stroke="black" cx="549.97" cy="-35.36" rx="115.93" ry="35.21"/>
<text text-anchor="start" x="510.97" y="-46.16" font-family="Helvetica,sans-Serif" font-weight="bold" font-size="14.00"> Class=1 </text>
<text text-anchor="start" x="583.97" y="-46.16" font-family="Helvetica,sans-Serif" font-size="14.00"> </text>
<text text-anchor="start" x="475.97" y="-32.16" font-family="Helvetica,sans-Serif" font-size="14.00"> error: 0.765, n=175 </text>
<text text-anchor="start" x="494.97" y="-18.16" font-family="Helvetica,sans-Serif" font-size="14.00"> p: (0.22, 0.78) </text>
</g>
<!-- 6&#45;&gt;7 -->
<g id="edge8" class="edge">
<title>6:s&#45;&gt;7:n</title>
<path fill="none" stroke="black" d="M549.97,-121.71C549.97,-121.71 549.97,-95.93 549.97,-81.03"/>
<polygon fill="black" stroke="black" points="553.47,-80.71 549.97,-70.71 546.47,-80.71 553.47,-80.71"/>
<text text-anchor="middle" x="585.97" y="-92.51" font-family="Helvetica,sans-Serif" font-size="14.00">&gt; &#45;0.5617</text>
</g>
</g>
</svg>
