<?xml version="1.0" encoding="UTF-8" standalone="no"?>
<!DOCTYPE svg PUBLIC "-//W3C//DTD SVG 1.1//EN"
 "http://www.w3.org/Graphics/SVG/1.1/DTD/svg11.dtd">
<!-- Generated by graphviz version 2.43.0 (0)
 -->
<!-- Title: Tree Pages: 1 -->
<svg width="1359pt" height="825pt"
 viewBox="0.00 0.00 1358.52 824.71" xmlns="http://www.w3.org/2000/svg" xmlns:xlink="http://www.w3.org/1999/xlink">
<g id="graph0" class="graph" transform="scale(1 1) rotate(0) translate(18 806.71)">
<title>Tree</title>
<polygon fill="white" stroke="transparent" points="-18,18 -18,-806.71 1340.52,-806.71 1340.52,18 -18,18"/>
<!-- 0 -->
<g id="node1" class="node">
<title>0</title>
<polygon fill="white" stroke="transparent" points="557.26,-788.71 503.26,-788.71 503.26,-752.71 557.26,-752.71 557.26,-788.71"/>
<text text-anchor="middle" x="530.26" y="-767.01" font-family="Helvetica,sans-Serif" font-size="14.00">0</text>
</g>
<!-- 1 -->
<g id="node2" class="node">
<title>1</title>
<polygon fill="#cc3d3d" stroke="black" points="617.26,-715.71 443.26,-715.71 443.26,-637.71 617.26,-637.71 617.26,-715.71"/>
<text text-anchor="start" x="469.76" y="-701.51" font-family="Helvetica,sans-Serif" font-weight="bold" font-size="14.00"> Class=benign </text>
<text text-anchor="start" x="585.76" y="-701.51" font-family="Helvetica,sans-Serif" font-size="14.00"> </text>
<text text-anchor="start" x="456.26" y="-687.51" font-family="Helvetica,sans-Serif" font-size="14.00"> error: 0.929, n=699 </text>
<text text-anchor="start" x="475.26" y="-673.51" font-family="Helvetica,sans-Serif" font-size="14.00"> p: (0.66, 0.34) </text>
<text text-anchor="start" x="477.26" y="-659.51" font-family="Helvetica,sans-Serif" font-size="14.00">&#45;&#45;&#45;&#45;&#45;&#45;&#45;&#45;&#45;&#45;&#45;&#45;&#45;&#45;&#45;&#45;&#45;&#45;&#45;&#45;</text>
<text text-anchor="start" x="451.26" y="-645.51" font-family="Helvetica,sans-Serif" font-weight="bold" font-size="14.00">Cell_Size_Uniformity</text>
</g>
<!-- 0&#45;&gt;1 -->
<!-- 2 -->
<g id="node3" class="node">
<title>2</title>
<polygon fill="#e5b844" stroke="black" points="470.26,-586.71 306.26,-586.71 306.26,-508.71 470.26,-508.71 470.26,-586.71"/>
<text text-anchor="start" x="314.76" y="-572.51" font-family="Helvetica,sans-Serif" font-weight="bold" font-size="14.00"> Class=malignant </text>
<text text-anchor="start" x="456.76" y="-572.51" font-family="Helvetica,sans-Serif" font-size="14.00"> </text>
<text text-anchor="start" x="314.26" y="-558.51" font-family="Helvetica,sans-Serif" font-size="14.00"> error: 0.344, n=218 </text>
<text text-anchor="start" x="333.26" y="-544.51" font-family="Helvetica,sans-Serif" font-size="14.00"> p: (0.06, 0.94) </text>
<text text-anchor="start" x="359.26" y="-530.51" font-family="Helvetica,sans-Serif" font-size="14.00">&#45;&#45;&#45;&#45;&#45;&#45;&#45;&#45;&#45;&#45;&#45;</text>
<text text-anchor="start" x="341.76" y="-516.51" font-family="Helvetica,sans-Serif" font-weight="bold" font-size="14.00">Bare_Nuclei</text>
</g>
<!-- 1&#45;&gt;2 -->
<g id="edge2" class="edge">
<title>1:s&#45;&gt;2:n</title>
<path fill="none" stroke="black" d="M530.26,-637.71C530.26,-637.71 430.1,-601.74 398.02,-590.22"/>
<polygon fill="black" stroke="black" points="398.85,-586.8 388.26,-586.71 396.49,-593.38 398.85,-586.8"/>
<text text-anchor="middle" x="489.26" y="-608.51" font-family="Helvetica,sans-Serif" font-size="14.00">&gt; 3</text>
</g>
<!-- 9 -->
<g id="node4" class="node">
<title>9</title>
<polygon fill="#e5b844" stroke="black" points="744.26,-586.71 580.26,-586.71 580.26,-508.71 744.26,-508.71 744.26,-586.71"/>
<text text-anchor="start" x="601.76" y="-572.51" font-family="Helvetica,sans-Serif" font-weight="bold" font-size="14.00"> Class=benign </text>
<text text-anchor="start" x="717.76" y="-572.51" font-family="Helvetica,sans-Serif" font-size="14.00"> </text>
<text text-anchor="start" x="588.26" y="-558.51" font-family="Helvetica,sans-Serif" font-size="14.00"> error: 0.391, n=481 </text>
<text text-anchor="start" x="607.26" y="-544.51" font-family="Helvetica,sans-Serif" font-size="14.00"> p: (0.92, 0.08) </text>
<text text-anchor="start" x="633.26" y="-530.51" font-family="Helvetica,sans-Serif" font-size="14.00">&#45;&#45;&#45;&#45;&#45;&#45;&#45;&#45;&#45;&#45;&#45;</text>
<text text-anchor="start" x="615.76" y="-516.51" font-family="Helvetica,sans-Serif" font-weight="bold" font-size="14.00">Bare_Nuclei</text>
</g>
<!-- 1&#45;&gt;9 -->
<g id="edge3" class="edge">
<title>1:s&#45;&gt;9:n</title>
<path fill="none" stroke="black" d="M530.26,-637.71C530.26,-637.71 622.5,-602.07 652.77,-590.38"/>
<polygon fill="black" stroke="black" points="654.19,-593.58 662.26,-586.71 651.67,-587.05 654.19,-593.58"/>
<text text-anchor="middle" x="631.26" y="-608.51" font-family="Helvetica,sans-Serif" font-size="14.00">&lt;= 3</text>
</g>
<!-- 3 -->
<g id="node5" class="node">
<title>3</title>
<polygon fill="#8dcc3d" stroke="black" points="227.26,-457.71 53.26,-457.71 53.26,-379.71 227.26,-379.71 227.26,-457.71"/>
<text text-anchor="start" x="66.76" y="-443.51" font-family="Helvetica,sans-Serif" font-weight="bold" font-size="14.00"> Class=malignant </text>
<text text-anchor="start" x="208.76" y="-443.51" font-family="Helvetica,sans-Serif" font-size="14.00"> </text>
<text text-anchor="start" x="70.76" y="-429.51" font-family="Helvetica,sans-Serif" font-size="14.00"> error: 0.503, n=72 </text>
<text text-anchor="start" x="85.26" y="-415.51" font-family="Helvetica,sans-Serif" font-size="14.00"> p: (0.11, 0.89) </text>
<text text-anchor="start" x="87.26" y="-401.51" font-family="Helvetica,sans-Serif" font-size="14.00">&#45;&#45;&#45;&#45;&#45;&#45;&#45;&#45;&#45;&#45;&#45;&#45;&#45;&#45;&#45;&#45;&#45;&#45;&#45;&#45;</text>
<text text-anchor="start" x="61.26" y="-387.51" font-family="Helvetica,sans-Serif" font-weight="bold" font-size="14.00">Cell_Size_Uniformity</text>
</g>
<!-- 2&#45;&gt;3 -->
<g id="edge4" class="edge">
<title>2:s&#45;&gt;3:n</title>
<path fill="none" stroke="black" d="M388.26,-508.71C388.26,-508.71 196.68,-469.31 150.29,-459.77"/>
<polygon fill="black" stroke="black" points="150.76,-456.3 140.26,-457.71 149.35,-463.15 150.76,-456.3"/>
<text text-anchor="middle" x="313.26" y="-479.51" font-family="Helvetica,sans-Serif" font-size="14.00">&lt;= 7</text>
</g>
<!-- 6 -->
<g id="node6" class="node">
<title>6</title>
<polygon fill="#8dcc3d" stroke="black" points="470.26,-457.71 306.26,-457.71 306.26,-379.71 470.26,-379.71 470.26,-457.71"/>
<text text-anchor="start" x="314.76" y="-443.51" font-family="Helvetica,sans-Serif" font-weight="bold" font-size="14.00"> Class=malignant </text>
<text text-anchor="start" x="456.76" y="-443.51" font-family="Helvetica,sans-Serif" font-size="14.00"> </text>
<text text-anchor="start" x="314.26" y="-429.51" font-family="Helvetica,sans-Serif" font-size="14.00"> error: 0.149, n=141 </text>
<text text-anchor="start" x="333.26" y="-415.51" font-family="Helvetica,sans-Serif" font-size="14.00"> p: (0.02, 0.98) </text>
<text text-anchor="start" x="348.76" y="-401.51" font-family="Helvetica,sans-Serif" font-size="14.00">&#45;&#45;&#45;&#45;&#45;&#45;&#45;&#45;&#45;&#45;&#45;&#45;&#45;&#45;&#45;</text>
<text text-anchor="start" x="321.76" y="-387.51" font-family="Helvetica,sans-Serif" font-weight="bold" font-size="14.00">Bland_Chromatin</text>
</g>
<!-- 2&#45;&gt;6 -->
<g id="edge5" class="edge">
<title>2:s&#45;&gt;6:n</title>
<path fill="none" stroke="black" d="M388.26,-508.71C388.26,-508.71 388.26,-482.93 388.26,-468.03"/>
<polygon fill="black" stroke="black" points="391.76,-467.71 388.26,-457.71 384.76,-467.71 391.76,-467.71"/>
<text text-anchor="middle" x="401.26" y="-479.51" font-family="Helvetica,sans-Serif" font-size="14.00">&gt; 7</text>
</g>
<!-- 10 -->
<g id="node11" class="node">
<title>10</title>
<ellipse fill="#8dcc3d" stroke="black" cx="662.26" cy="-418.71" rx="115.93" ry="35.21"/>
<text text-anchor="start" x="601.76" y="-429.51" font-family="Helvetica,sans-Serif" font-weight="bold" font-size="14.00"> Class=benign </text>
<text text-anchor="start" x="717.76" y="-429.51" font-family="Helvetica,sans-Serif" font-size="14.00"> </text>
<text text-anchor="start" x="588.26" y="-415.51" font-family="Helvetica,sans-Serif" font-size="14.00"> error: 0.026, n=386 </text>
<text text-anchor="start" x="607.26" y="-401.51" font-family="Helvetica,sans-Serif" font-size="14.00"> p: (1.00, 0.00) </text>
</g>
<!-- 9&#45;&gt;10 -->
<g id="edge10" class="edge">
<title>9:s&#45;&gt;10:n</title>
<path fill="none" stroke="black" d="M662.26,-508.71C662.26,-508.71 662.26,-481.33 662.26,-465.93"/>
<polygon fill="black" stroke="black" points="665.76,-465.71 662.26,-455.71 658.76,-465.71 665.76,-465.71"/>
<text text-anchor="middle" x="681.26" y="-479.51" font-family="Helvetica,sans-Serif" font-size="14.00">&lt;= 1</text>
</g>
<!-- 11 -->
<g id="node12" class="node">
<title>11</title>
<polygon fill="#8dcc3d" stroke="black" points="1047.76,-457.71 856.76,-457.71 856.76,-379.71 1047.76,-379.71 1047.76,-457.71"/>
<text text-anchor="start" x="891.76" y="-443.51" font-family="Helvetica,sans-Serif" font-weight="bold" font-size="14.00"> Class=benign </text>
<text text-anchor="start" x="1007.76" y="-443.51" font-family="Helvetica,sans-Serif" font-size="14.00"> </text>
<text text-anchor="start" x="882.76" y="-429.51" font-family="Helvetica,sans-Serif" font-size="14.00"> error: 0.985, n=84 </text>
<text text-anchor="start" x="897.26" y="-415.51" font-family="Helvetica,sans-Serif" font-size="14.00"> p: (0.57, 0.43) </text>
<text text-anchor="start" x="896.76" y="-401.51" font-family="Helvetica,sans-Serif" font-size="14.00">&#45;&#45;&#45;&#45;&#45;&#45;&#45;&#45;&#45;&#45;&#45;&#45;&#45;&#45;&#45;&#45;&#45;&#45;&#45;&#45;&#45;</text>
<text text-anchor="start" x="864.76" y="-387.51" font-family="Helvetica,sans-Serif" font-weight="bold" font-size="14.00">Cell_Shape_Uniformity</text>
</g>
<!-- 9&#45;&gt;11 -->
<g id="edge11" class="edge">
<title>9:s&#45;&gt;11:n</title>
<path fill="none" stroke="black" d="M662.26,-508.71C662.26,-508.71 891.28,-468.43 942.28,-459.47"/>
<polygon fill="black" stroke="black" points="943.02,-462.89 952.26,-457.71 941.8,-456 943.02,-462.89"/>
<text text-anchor="middle" x="855.26" y="-479.51" font-family="Helvetica,sans-Serif" font-size="14.00">&gt; 1</text>
</g>
<!-- 4 -->
<g id="node7" class="node">
<title>4</title>
<polygon fill="#44e55e" stroke="black" points="197.26,-328.71 33.26,-328.71 33.26,-250.71 197.26,-250.71 197.26,-328.71"/>
<text text-anchor="start" x="41.76" y="-314.51" font-family="Helvetica,sans-Serif" font-weight="bold" font-size="14.00"> Class=malignant </text>
<text text-anchor="start" x="183.76" y="-314.51" font-family="Helvetica,sans-Serif" font-size="14.00"> </text>
<text text-anchor="start" x="45.76" y="-300.51" font-family="Helvetica,sans-Serif" font-size="14.00"> error: 0.129, n=56 </text>
<text text-anchor="start" x="60.26" y="-286.51" font-family="Helvetica,sans-Serif" font-size="14.00"> p: (0.02, 0.98) </text>
<text text-anchor="start" x="70.26" y="-272.51" font-family="Helvetica,sans-Serif" font-size="14.00">&#45;&#45;&#45;&#45;&#45;&#45;&#45;&#45;&#45;&#45;&#45;&#45;&#45;&#45;&#45;&#45;&#45;</text>
<text text-anchor="start" x="41.26" y="-258.51" font-family="Helvetica,sans-Serif" font-weight="bold" font-size="14.00">Marginal_Adhesion</text>
</g>
<!-- 3&#45;&gt;4 -->
<g id="edge6" class="edge">
<title>3:s&#45;&gt;4:n</title>
<path fill="none" stroke="black" d="M140.26,-379.71C140.26,-379.71 127.06,-352.79 119.84,-338.06"/>
<polygon fill="black" stroke="black" points="122.8,-336.15 115.26,-328.71 116.52,-339.23 122.8,-336.15"/>
<text text-anchor="middle" x="144.26" y="-350.51" font-family="Helvetica,sans-Serif" font-size="14.00">&gt; 4</text>
</g>
<!-- 7 -->
<g id="node9" class="node">
<title>7</title>
<ellipse fill="#44e55e" stroke="black" cx="384.26" cy="-289.71" rx="115.02" ry="35.21"/>
<text text-anchor="start" x="310.76" y="-300.51" font-family="Helvetica,sans-Serif" font-weight="bold" font-size="14.00"> Class=malignant </text>
<text text-anchor="start" x="452.76" y="-300.51" font-family="Helvetica,sans-Serif" font-size="14.00"> </text>
<text text-anchor="start" x="314.76" y="-286.51" font-family="Helvetica,sans-Serif" font-size="14.00"> error: 0.414, n=36 </text>
<text text-anchor="start" x="329.26" y="-272.51" font-family="Helvetica,sans-Serif" font-size="14.00"> p: (0.08, 0.92) </text>
</g>
<!-- 6&#45;&gt;7 -->
<g id="edge8" class="edge">
<title>6:s&#45;&gt;7:n</title>
<path fill="none" stroke="black" d="M388.26,-379.71C388.26,-379.71 386.19,-351.81 385.03,-336.12"/>
<polygon fill="black" stroke="black" points="388.49,-335.42 384.26,-325.71 381.51,-335.94 388.49,-335.42"/>
<text text-anchor="middle" x="406.26" y="-350.51" font-family="Helvetica,sans-Serif" font-size="14.00">&lt;= 4</text>
</g>
<!-- 8 -->
<g id="node10" class="node">
<title>8</title>
<ellipse fill="#44e55e" stroke="black" cx="687.26" cy="-289.71" rx="115.93" ry="35.21"/>
<text text-anchor="start" x="613.76" y="-300.51" font-family="Helvetica,sans-Serif" font-weight="bold" font-size="14.00"> Class=malignant </text>
<text text-anchor="start" x="755.76" y="-300.51" font-family="Helvetica,sans-Serif" font-size="14.00"> </text>
<text text-anchor="start" x="613.26" y="-286.51" font-family="Helvetica,sans-Serif" font-size="14.00"> error: 0.000, n=105 </text>
<text text-anchor="start" x="632.26" y="-272.51" font-family="Helvetica,sans-Serif" font-size="14.00"> p: (0.00, 1.00) </text>
</g>
<!-- 6&#45;&gt;8 -->
<g id="edge9" class="edge">
<title>6:s&#45;&gt;8:n</title>
<path fill="none" stroke="black" d="M388.26,-379.71C388.26,-379.71 625.43,-337.67 677.31,-328.47"/>
<polygon fill="black" stroke="black" points="678.02,-331.9 687.26,-326.71 676.8,-325.01 678.02,-331.9"/>
<text text-anchor="middle" x="587.26" y="-350.51" font-family="Helvetica,sans-Serif" font-size="14.00">&gt; 4</text>
</g>
<!-- 5 -->
<g id="node8" class="node">
<title>5</title>
<ellipse fill="#3dccba" stroke="black" cx="115.26" cy="-160.71" rx="115.02" ry="35.21"/>
<text text-anchor="start" x="41.76" y="-171.51" font-family="Helvetica,sans-Serif" font-weight="bold" font-size="14.00"> Class=malignant </text>
<text text-anchor="start" x="183.76" y="-171.51" font-family="Helvetica,sans-Serif" font-size="14.00"> </text>
<text text-anchor="start" x="45.76" y="-157.51" font-family="Helvetica,sans-Serif" font-size="14.00"> error: 0.000, n=49 </text>
<text text-anchor="start" x="60.26" y="-143.51" font-family="Helvetica,sans-Serif" font-size="14.00"> p: (0.00, 1.00) </text>
</g>
<!-- 4&#45;&gt;5 -->
<g id="edge7" class="edge">
<title>4:s&#45;&gt;5:n</title>
<path fill="none" stroke="black" d="M115.26,-250.71C115.26,-250.71 115.26,-222.81 115.26,-207.12"/>
<polygon fill="black" stroke="black" points="118.76,-206.71 115.26,-196.71 111.76,-206.71 118.76,-206.71"/>
<text text-anchor="middle" x="128.26" y="-221.51" font-family="Helvetica,sans-Serif" font-size="14.00">&gt; 1</text>
</g>
<!-- 12 -->
<g id="node13" class="node">
<title>12</title>
<polygon fill="#44e55e" stroke="black" points="1029.76,-328.71 874.76,-328.71 874.76,-250.71 1029.76,-250.71 1029.76,-328.71"/>
<text text-anchor="start" x="891.76" y="-314.51" font-family="Helvetica,sans-Serif" font-weight="bold" font-size="14.00"> Class=benign </text>
<text text-anchor="start" x="1007.76" y="-314.51" font-family="Helvetica,sans-Serif" font-size="14.00"> </text>
<text text-anchor="start" x="882.76" y="-300.51" font-family="Helvetica,sans-Serif" font-size="14.00"> error: 0.599, n=48 </text>
<text text-anchor="start" x="897.26" y="-286.51" font-family="Helvetica,sans-Serif" font-size="14.00"> p: (0.85, 0.15) </text>
<text text-anchor="start" x="912.76" y="-272.51" font-family="Helvetica,sans-Serif" font-size="14.00">&#45;&#45;&#45;&#45;&#45;&#45;&#45;&#45;&#45;&#45;&#45;&#45;&#45;&#45;&#45;</text>
<text text-anchor="start" x="885.76" y="-258.51" font-family="Helvetica,sans-Serif" font-weight="bold" font-size="14.00">Clump_Thickness</text>
</g>
<!-- 11&#45;&gt;12 -->
<g id="edge12" class="edge">
<title>11:s&#45;&gt;12:n</title>
<path fill="none" stroke="black" d="M952.26,-379.71C952.26,-379.71 952.26,-353.93 952.26,-339.03"/>
<polygon fill="black" stroke="black" points="955.76,-338.71 952.26,-328.71 948.76,-338.71 955.76,-338.71"/>
<text text-anchor="middle" x="971.26" y="-350.51" font-family="Helvetica,sans-Serif" font-size="14.00">&lt;= 2</text>
</g>
<!-- 15 -->
<g id="node14" class="node">
<title>15</title>
<polygon fill="#44e55e" stroke="black" points="1283.76,-328.71 1120.76,-328.71 1120.76,-250.71 1283.76,-250.71 1283.76,-328.71"/>
<text text-anchor="start" x="1128.76" y="-314.51" font-family="Helvetica,sans-Serif" font-weight="bold" font-size="14.00"> Class=malignant </text>
<text text-anchor="start" x="1270.76" y="-314.51" font-family="Helvetica,sans-Serif" font-size="14.00"> </text>
<text text-anchor="start" x="1132.76" y="-300.51" font-family="Helvetica,sans-Serif" font-size="14.00"> error: 0.711, n=36 </text>
<text text-anchor="start" x="1147.26" y="-286.51" font-family="Helvetica,sans-Serif" font-size="14.00"> p: (0.19, 0.81) </text>
<text text-anchor="start" x="1173.26" y="-272.51" font-family="Helvetica,sans-Serif" font-size="14.00">&#45;&#45;&#45;&#45;&#45;&#45;&#45;&#45;&#45;&#45;&#45;</text>
<text text-anchor="start" x="1155.76" y="-258.51" font-family="Helvetica,sans-Serif" font-weight="bold" font-size="14.00">Bare_Nuclei</text>
</g>
<!-- 11&#45;&gt;15 -->
<g id="edge13" class="edge">
<title>11:s&#45;&gt;15:n</title>
<path fill="none" stroke="black" d="M952.26,-379.71C952.26,-379.71 1146.24,-340.14 1192.46,-330.71"/>
<polygon fill="black" stroke="black" points="1193.16,-334.14 1202.26,-328.71 1191.76,-327.28 1193.16,-334.14"/>
<text text-anchor="middle" x="1120.26" y="-350.51" font-family="Helvetica,sans-Serif" font-size="14.00">&gt; 2</text>
</g>
<!-- 13 -->
<g id="node15" class="node">
<title>13</title>
<polygon fill="#3dccba" stroke="black" points="1020.26,-199.71 856.26,-199.71 856.26,-121.71 1020.26,-121.71 1020.26,-199.71"/>
<text text-anchor="start" x="877.76" y="-185.51" font-family="Helvetica,sans-Serif" font-weight="bold" font-size="14.00"> Class=benign </text>
<text text-anchor="start" x="993.76" y="-185.51" font-family="Helvetica,sans-Serif" font-size="14.00"> </text>
<text text-anchor="start" x="868.76" y="-171.51" font-family="Helvetica,sans-Serif" font-size="14.00"> error: 0.271, n=43 </text>
<text text-anchor="start" x="883.26" y="-157.51" font-family="Helvetica,sans-Serif" font-size="14.00"> p: (0.95, 0.05) </text>
<text text-anchor="start" x="893.26" y="-143.51" font-family="Helvetica,sans-Serif" font-size="14.00">&#45;&#45;&#45;&#45;&#45;&#45;&#45;&#45;&#45;&#45;&#45;&#45;&#45;&#45;&#45;&#45;&#45;</text>
<text text-anchor="start" x="864.26" y="-129.51" font-family="Helvetica,sans-Serif" font-weight="bold" font-size="14.00">Marginal_Adhesion</text>
</g>
<!-- 12&#45;&gt;13 -->
<g id="edge14" class="edge">
<title>12:s&#45;&gt;13:n</title>
<path fill="none" stroke="black" d="M952.26,-250.71C952.26,-250.71 945.03,-224.36 940.96,-209.54"/>
<polygon fill="black" stroke="black" points="944.28,-208.43 938.26,-199.71 937.53,-210.28 944.28,-208.43"/>
<text text-anchor="middle" x="966.26" y="-221.51" font-family="Helvetica,sans-Serif" font-size="14.00">&lt;= 5</text>
</g>
<!-- 16 -->
<g id="node17" class="node">
<title>16</title>
<ellipse fill="#3dccba" stroke="black" cx="1207.26" cy="-160.71" rx="115.02" ry="35.21"/>
<text text-anchor="start" x="1133.76" y="-171.51" font-family="Helvetica,sans-Serif" font-weight="bold" font-size="14.00"> Class=malignant </text>
<text text-anchor="start" x="1275.76" y="-171.51" font-family="Helvetica,sans-Serif" font-size="14.00"> </text>
<text text-anchor="start" x="1137.76" y="-157.51" font-family="Helvetica,sans-Serif" font-size="14.00"> error: 0.459, n=31 </text>
<text text-anchor="start" x="1152.26" y="-143.51" font-family="Helvetica,sans-Serif" font-size="14.00"> p: (0.10, 0.90) </text>
</g>
<!-- 15&#45;&gt;16 -->
<g id="edge16" class="edge">
<title>15:s&#45;&gt;16:n</title>
<path fill="none" stroke="black" d="M1202.26,-250.71C1202.26,-250.71 1204.84,-222.81 1206.29,-207.12"/>
<polygon fill="black" stroke="black" points="1209.82,-206.99 1207.26,-196.71 1202.85,-206.35 1209.82,-206.99"/>
<text text-anchor="middle" x="1218.26" y="-221.51" font-family="Helvetica,sans-Serif" font-size="14.00">&gt; 2</text>
</g>
<!-- 14 -->
<g id="node16" class="node">
<title>14</title>
<ellipse fill="#4485e5" stroke="black" cx="938.26" cy="-35.36" rx="109.7" ry="35.21"/>
<text text-anchor="start" x="877.76" y="-46.16" font-family="Helvetica,sans-Serif" font-weight="bold" font-size="14.00"> Class=benign </text>
<text text-anchor="start" x="993.76" y="-46.16" font-family="Helvetica,sans-Serif" font-size="14.00"> </text>
<text text-anchor="start" x="868.76" y="-32.16" font-family="Helvetica,sans-Serif" font-size="14.00"> error: 0.000, n=35 </text>
<text text-anchor="start" x="883.26" y="-18.16" font-family="Helvetica,sans-Serif" font-size="14.00"> p: (1.00, 0.00) </text>
</g>
<!-- 13&#45;&gt;14 -->
<g id="edge15" class="edge">
<title>13:s&#45;&gt;14:n</title>
<path fill="none" stroke="black" d="M938.26,-121.71C938.26,-121.71 938.26,-95.93 938.26,-81.03"/>
<polygon fill="black" stroke="black" points="941.76,-80.71 938.26,-70.71 934.76,-80.71 941.76,-80.71"/>
<text text-anchor="middle" x="957.26" y="-92.51" font-family="Helvetica,sans-Serif" font-size="14.00">&lt;= 2</text>
</g>
</g>
</svg>
