<?xml version="1.0" encoding="UTF-8" standalone="no"?>
<!DOCTYPE svg PUBLIC "-//W3C//DTD SVG 1.1//EN"
 "http://www.w3.org/Graphics/SVG/1.1/DTD/svg11.dtd">
<!-- Generated by graphviz version 2.43.0 (0)
 -->
<!-- Title: Tree Pages: 1 -->
<svg width="2082pt" height="567pt"
 viewBox="0.00 0.00 2081.93 566.71" xmlns="http://www.w3.org/2000/svg" xmlns:xlink="http://www.w3.org/1999/xlink">
<g id="graph0" class="graph" transform="scale(1 1) rotate(0) translate(18 548.71)">
<title>Tree</title>
<polygon fill="white" stroke="transparent" points="-18,18 -18,-548.71 2063.93,-548.71 2063.93,18 -18,18"/>
<!-- 0 -->
<g id="node1" class="node">
<title>0</title>
<polygon fill="white" stroke="transparent" points="817.97,-530.71 763.97,-530.71 763.97,-494.71 817.97,-494.71 817.97,-530.71"/>
<text text-anchor="middle" x="790.97" y="-509.01" font-family="Helvetica,sans-Serif" font-size="14.00">0</text>
</g>
<!-- 1 -->
<g id="node2" class="node">
<title>1</title>
<polygon fill="#cc3d3d" stroke="black" points="921.97,-457.71 659.97,-457.71 659.97,-379.71 921.97,-379.71 921.97,-457.71"/>
<text text-anchor="start" x="751.97" y="-443.51" font-family="Helvetica,sans-Serif" font-weight="bold" font-size="14.00"> Class=0 </text>
<text text-anchor="start" x="824.97" y="-443.51" font-family="Helvetica,sans-Serif" font-size="14.00"> </text>
<text text-anchor="start" x="712.47" y="-429.51" font-family="Helvetica,sans-Serif" font-size="14.00"> error: 0.588, n=5000 </text>
<text text-anchor="start" x="735.97" y="-415.51" font-family="Helvetica,sans-Serif" font-size="14.00"> p: (0.86, 0.14) </text>
<text text-anchor="start" x="714.47" y="-401.51" font-family="Helvetica,sans-Serif" font-size="14.00">&#45;&#45;&#45;&#45;&#45;&#45;&#45;&#45;&#45;&#45;&#45;&#45;&#45;&#45;&#45;&#45;&#45;&#45;&#45;&#45;&#45;&#45;&#45;&#45;&#45;&#45;&#45;&#45;&#45;</text>
<text text-anchor="start" x="667.97" y="-387.51" font-family="Helvetica,sans-Serif" font-weight="bold" font-size="14.00">number_customer_service_calls</text>
</g>
<!-- 0&#45;&gt;1 -->
<!-- 2 -->
<g id="node3" class="node">
<title>2</title>
<polygon fill="#c5e544" stroke="black" points="283.97,-328.71 119.97,-328.71 119.97,-250.71 283.97,-250.71 283.97,-328.71"/>
<text text-anchor="start" x="162.97" y="-314.51" font-family="Helvetica,sans-Serif" font-weight="bold" font-size="14.00"> Class=0 </text>
<text text-anchor="start" x="235.97" y="-314.51" font-family="Helvetica,sans-Serif" font-size="14.00"> </text>
<text text-anchor="start" x="127.97" y="-300.51" font-family="Helvetica,sans-Serif" font-size="14.00"> error: 0.990, n=252 </text>
<text text-anchor="start" x="146.97" y="-286.51" font-family="Helvetica,sans-Serif" font-size="14.00"> p: (0.56, 0.44) </text>
<text text-anchor="start" x="156.97" y="-272.51" font-family="Helvetica,sans-Serif" font-size="14.00">&#45;&#45;&#45;&#45;&#45;&#45;&#45;&#45;&#45;&#45;&#45;&#45;&#45;&#45;&#45;&#45;&#45;</text>
<text text-anchor="start" x="130.97" y="-258.51" font-family="Helvetica,sans-Serif" font-weight="bold" font-size="14.00">total_day_minutes</text>
</g>
<!-- 1&#45;&gt;2 -->
<g id="edge2" class="edge">
<title>1:s&#45;&gt;2:n</title>
<path fill="none" stroke="black" d="M790.97,-379.71C790.97,-379.71 290.4,-336.37 212.19,-329.6"/>
<polygon fill="black" stroke="black" points="212.23,-326.09 201.97,-328.71 211.63,-333.06 212.23,-326.09"/>
<text text-anchor="middle" x="560.97" y="-350.51" font-family="Helvetica,sans-Serif" font-size="14.00">4</text>
</g>
<!-- 4 -->
<g id="node4" class="node">
<title>4</title>
<polygon fill="#c5e544" stroke="black" points="536.97,-328.71 372.97,-328.71 372.97,-250.71 536.97,-250.71 536.97,-328.71"/>
<text text-anchor="start" x="415.97" y="-314.51" font-family="Helvetica,sans-Serif" font-weight="bold" font-size="14.00"> Class=0 </text>
<text text-anchor="start" x="488.97" y="-314.51" font-family="Helvetica,sans-Serif" font-size="14.00"> </text>
<text text-anchor="start" x="380.97" y="-300.51" font-family="Helvetica,sans-Serif" font-size="14.00"> error: 0.499, n=665 </text>
<text text-anchor="start" x="399.97" y="-286.51" font-family="Helvetica,sans-Serif" font-size="14.00"> p: (0.89, 0.11) </text>
<text text-anchor="start" x="407.47" y="-272.51" font-family="Helvetica,sans-Serif" font-size="14.00">&#45;&#45;&#45;&#45;&#45;&#45;&#45;&#45;&#45;&#45;&#45;&#45;&#45;&#45;&#45;&#45;&#45;&#45;</text>
<text text-anchor="start" x="383.47" y="-258.51" font-family="Helvetica,sans-Serif" font-weight="bold" font-size="14.00">international_plan</text>
</g>
<!-- 1&#45;&gt;4 -->
<g id="edge3" class="edge">
<title>1:s&#45;&gt;4:n</title>
<path fill="none" stroke="black" d="M790.97,-379.71C790.97,-379.71 520.93,-338.72 465.02,-330.24"/>
<polygon fill="black" stroke="black" points="465.38,-326.75 454.97,-328.71 464.33,-333.67 465.38,-326.75"/>
<text text-anchor="middle" x="667.97" y="-350.51" font-family="Helvetica,sans-Serif" font-size="14.00">3</text>
</g>
<!-- 7 -->
<g id="node5" class="node">
<title>7</title>
<polygon fill="#c5e544" stroke="black" points="877.47,-328.71 704.47,-328.71 704.47,-250.71 877.47,-250.71 877.47,-328.71"/>
<text text-anchor="start" x="751.97" y="-314.51" font-family="Helvetica,sans-Serif" font-weight="bold" font-size="14.00"> Class=0 </text>
<text text-anchor="start" x="824.97" y="-314.51" font-family="Helvetica,sans-Serif" font-size="14.00"> </text>
<text text-anchor="start" x="712.47" y="-300.51" font-family="Helvetica,sans-Serif" font-size="14.00"> error: 0.495, n=1127 </text>
<text text-anchor="start" x="735.97" y="-286.51" font-family="Helvetica,sans-Serif" font-size="14.00"> p: (0.89, 0.11) </text>
<text text-anchor="start" x="745.97" y="-272.51" font-family="Helvetica,sans-Serif" font-size="14.00">&#45;&#45;&#45;&#45;&#45;&#45;&#45;&#45;&#45;&#45;&#45;&#45;&#45;&#45;&#45;&#45;&#45;</text>
<text text-anchor="start" x="719.97" y="-258.51" font-family="Helvetica,sans-Serif" font-weight="bold" font-size="14.00">total_day_minutes</text>
</g>
<!-- 1&#45;&gt;7 -->
<g id="edge4" class="edge">
<title>1:s&#45;&gt;7:n</title>
<path fill="none" stroke="black" d="M790.97,-379.71C790.97,-379.71 790.97,-353.93 790.97,-339.03"/>
<polygon fill="black" stroke="black" points="794.47,-338.71 790.97,-328.71 787.47,-338.71 794.47,-338.71"/>
<text text-anchor="middle" x="795.97" y="-350.51" font-family="Helvetica,sans-Serif" font-size="14.00">2</text>
</g>
<!-- 12 -->
<g id="node6" class="node">
<title>12</title>
<polygon fill="#c5e544" stroke="black" points="1180.47,-328.71 1007.47,-328.71 1007.47,-250.71 1180.47,-250.71 1180.47,-328.71"/>
<text text-anchor="start" x="1054.97" y="-314.51" font-family="Helvetica,sans-Serif" font-weight="bold" font-size="14.00"> Class=0 </text>
<text text-anchor="start" x="1127.97" y="-314.51" font-family="Helvetica,sans-Serif" font-size="14.00"> </text>
<text text-anchor="start" x="1015.47" y="-300.51" font-family="Helvetica,sans-Serif" font-size="14.00"> error: 0.524, n=1023 </text>
<text text-anchor="start" x="1038.97" y="-286.51" font-family="Helvetica,sans-Serif" font-size="14.00"> p: (0.88, 0.12) </text>
<text text-anchor="start" x="1048.97" y="-272.51" font-family="Helvetica,sans-Serif" font-size="14.00">&#45;&#45;&#45;&#45;&#45;&#45;&#45;&#45;&#45;&#45;&#45;&#45;&#45;&#45;&#45;&#45;&#45;</text>
<text text-anchor="start" x="1022.97" y="-258.51" font-family="Helvetica,sans-Serif" font-weight="bold" font-size="14.00">total_day_minutes</text>
</g>
<!-- 1&#45;&gt;12 -->
<g id="edge5" class="edge">
<title>1:s&#45;&gt;12:n</title>
<path fill="none" stroke="black" d="M790.97,-379.71C790.97,-379.71 1031.31,-339.26 1083.88,-330.41"/>
<polygon fill="black" stroke="black" points="1084.69,-333.82 1093.97,-328.71 1083.52,-326.92 1084.69,-333.82"/>
<text text-anchor="middle" x="983.97" y="-350.51" font-family="Helvetica,sans-Serif" font-size="14.00">0</text>
</g>
<!-- 16 -->
<g id="node7" class="node">
<title>16</title>
<polygon fill="#c5e544" stroke="black" points="1724.47,-328.71 1551.47,-328.71 1551.47,-250.71 1724.47,-250.71 1724.47,-328.71"/>
<text text-anchor="start" x="1598.97" y="-314.51" font-family="Helvetica,sans-Serif" font-weight="bold" font-size="14.00"> Class=0 </text>
<text text-anchor="start" x="1671.97" y="-314.51" font-family="Helvetica,sans-Serif" font-size="14.00"> </text>
<text text-anchor="start" x="1559.47" y="-300.51" font-family="Helvetica,sans-Serif" font-size="14.00"> error: 0.489, n=1786 </text>
<text text-anchor="start" x="1582.97" y="-286.51" font-family="Helvetica,sans-Serif" font-size="14.00"> p: (0.89, 0.11) </text>
<text text-anchor="start" x="1592.97" y="-272.51" font-family="Helvetica,sans-Serif" font-size="14.00">&#45;&#45;&#45;&#45;&#45;&#45;&#45;&#45;&#45;&#45;&#45;&#45;&#45;&#45;&#45;&#45;&#45;</text>
<text text-anchor="start" x="1566.97" y="-258.51" font-family="Helvetica,sans-Serif" font-weight="bold" font-size="14.00">total_day_minutes</text>
</g>
<!-- 1&#45;&gt;16 -->
<g id="edge6" class="edge">
<title>1:s&#45;&gt;16:n</title>
<path fill="none" stroke="black" d="M790.97,-379.71C790.97,-379.71 1532.3,-335.07 1627.86,-329.32"/>
<polygon fill="black" stroke="black" points="1628.19,-332.81 1637.97,-328.71 1627.77,-325.82 1628.19,-332.81"/>
<text text-anchor="middle" x="1320.97" y="-350.51" font-family="Helvetica,sans-Serif" font-size="14.00">1</text>
</g>
<!-- 3 -->
<g id="node8" class="node">
<title>3</title>
<ellipse fill="#3dcc76" stroke="black" cx="115.97" cy="-160.71" rx="115.93" ry="35.21"/>
<text text-anchor="start" x="76.97" y="-171.51" font-family="Helvetica,sans-Serif" font-weight="bold" font-size="14.00"> Class=0 </text>
<text text-anchor="start" x="149.97" y="-171.51" font-family="Helvetica,sans-Serif" font-size="14.00"> </text>
<text text-anchor="start" x="41.97" y="-157.51" font-family="Helvetica,sans-Serif" font-size="14.00"> error: 0.875, n=190 </text>
<text text-anchor="start" x="60.97" y="-143.51" font-family="Helvetica,sans-Serif" font-size="14.00"> p: (0.71, 0.29) </text>
</g>
<!-- 2&#45;&gt;3 -->
<g id="edge7" class="edge">
<title>2:s&#45;&gt;3:n</title>
<path fill="none" stroke="black" d="M201.97,-250.71C201.97,-250.71 146.28,-216.39 124.53,-202.99"/>
<polygon fill="black" stroke="black" points="126.31,-199.98 115.97,-197.71 122.64,-205.94 126.31,-199.98"/>
<text text-anchor="middle" x="200.97" y="-221.51" font-family="Helvetica,sans-Serif" font-size="14.00">&gt; 153.2</text>
</g>
<!-- 5 -->
<g id="node9" class="node">
<title>5</title>
<polygon fill="#3dcc76" stroke="black" points="467.97,-199.71 303.97,-199.71 303.97,-121.71 467.97,-121.71 467.97,-199.71"/>
<text text-anchor="start" x="346.97" y="-185.51" font-family="Helvetica,sans-Serif" font-weight="bold" font-size="14.00"> Class=0 </text>
<text text-anchor="start" x="419.97" y="-185.51" font-family="Helvetica,sans-Serif" font-size="14.00"> </text>
<text text-anchor="start" x="311.97" y="-171.51" font-family="Helvetica,sans-Serif" font-size="14.00"> error: 0.406, n=605 </text>
<text text-anchor="start" x="330.97" y="-157.51" font-family="Helvetica,sans-Serif" font-size="14.00"> p: (0.92, 0.08) </text>
<text text-anchor="start" x="340.97" y="-143.51" font-family="Helvetica,sans-Serif" font-size="14.00">&#45;&#45;&#45;&#45;&#45;&#45;&#45;&#45;&#45;&#45;&#45;&#45;&#45;&#45;&#45;&#45;&#45;</text>
<text text-anchor="start" x="314.97" y="-129.51" font-family="Helvetica,sans-Serif" font-weight="bold" font-size="14.00">total_day_minutes</text>
</g>
<!-- 4&#45;&gt;5 -->
<g id="edge8" class="edge">
<title>4:s&#45;&gt;5:n</title>
<path fill="none" stroke="black" d="M454.97,-250.71C454.97,-250.71 412.43,-219.27 394.15,-205.76"/>
<polygon fill="black" stroke="black" points="396.09,-202.84 385.97,-199.71 391.93,-208.47 396.09,-202.84"/>
<text text-anchor="middle" x="433.97" y="-221.51" font-family="Helvetica,sans-Serif" font-size="14.00">0</text>
</g>
<!-- 8 -->
<g id="node11" class="node">
<title>8</title>
<polygon fill="#3dcc76" stroke="black" points="703.97,-199.71 539.97,-199.71 539.97,-121.71 703.97,-121.71 703.97,-199.71"/>
<text text-anchor="start" x="582.97" y="-185.51" font-family="Helvetica,sans-Serif" font-weight="bold" font-size="14.00"> Class=0 </text>
<text text-anchor="start" x="655.97" y="-185.51" font-family="Helvetica,sans-Serif" font-size="14.00"> </text>
<text text-anchor="start" x="547.97" y="-171.51" font-family="Helvetica,sans-Serif" font-size="14.00"> error: 0.303, n=872 </text>
<text text-anchor="start" x="566.97" y="-157.51" font-family="Helvetica,sans-Serif" font-size="14.00"> p: (0.95, 0.05) </text>
<text text-anchor="start" x="574.47" y="-143.51" font-family="Helvetica,sans-Serif" font-size="14.00">&#45;&#45;&#45;&#45;&#45;&#45;&#45;&#45;&#45;&#45;&#45;&#45;&#45;&#45;&#45;&#45;&#45;&#45;</text>
<text text-anchor="start" x="550.47" y="-129.51" font-family="Helvetica,sans-Serif" font-weight="bold" font-size="14.00">international_plan</text>
</g>
<!-- 7&#45;&gt;8 -->
<g id="edge10" class="edge">
<title>7:s&#45;&gt;8:n</title>
<path fill="none" stroke="black" d="M790.97,-250.71C790.97,-250.71 668.41,-213.73 632.03,-202.75"/>
<polygon fill="black" stroke="black" points="632.55,-199.25 621.97,-199.71 630.53,-205.95 632.55,-199.25"/>
<text text-anchor="middle" x="763.97" y="-221.51" font-family="Helvetica,sans-Serif" font-size="14.00">&lt;= 217.6</text>
</g>
<!-- 10 -->
<g id="node12" class="node">
<title>10</title>
<polygon fill="#3dcc76" stroke="black" points="939.97,-199.71 775.97,-199.71 775.97,-121.71 939.97,-121.71 939.97,-199.71"/>
<text text-anchor="start" x="818.97" y="-185.51" font-family="Helvetica,sans-Serif" font-weight="bold" font-size="14.00"> Class=0 </text>
<text text-anchor="start" x="891.97" y="-185.51" font-family="Helvetica,sans-Serif" font-size="14.00"> </text>
<text text-anchor="start" x="783.97" y="-171.51" font-family="Helvetica,sans-Serif" font-size="14.00"> error: 0.874, n=255 </text>
<text text-anchor="start" x="802.97" y="-157.51" font-family="Helvetica,sans-Serif" font-size="14.00"> p: (0.71, 0.29) </text>
<text text-anchor="start" x="812.97" y="-143.51" font-family="Helvetica,sans-Serif" font-size="14.00">&#45;&#45;&#45;&#45;&#45;&#45;&#45;&#45;&#45;&#45;&#45;&#45;&#45;&#45;&#45;&#45;&#45;</text>
<text text-anchor="start" x="786.97" y="-129.51" font-family="Helvetica,sans-Serif" font-weight="bold" font-size="14.00">total_day_minutes</text>
</g>
<!-- 7&#45;&gt;10 -->
<g id="edge11" class="edge">
<title>7:s&#45;&gt;10:n</title>
<path fill="none" stroke="black" d="M790.97,-250.71C790.97,-250.71 831.86,-219.58 849.75,-205.96"/>
<polygon fill="black" stroke="black" points="852.13,-208.55 857.97,-199.71 847.89,-202.98 852.13,-208.55"/>
<text text-anchor="middle" x="861.97" y="-221.51" font-family="Helvetica,sans-Serif" font-size="14.00">&gt; 217.6</text>
</g>
<!-- 13 -->
<g id="node15" class="node">
<title>13</title>
<polygon fill="#3dcc76" stroke="black" points="1175.97,-199.71 1011.97,-199.71 1011.97,-121.71 1175.97,-121.71 1175.97,-199.71"/>
<text text-anchor="start" x="1054.97" y="-185.51" font-family="Helvetica,sans-Serif" font-weight="bold" font-size="14.00"> Class=0 </text>
<text text-anchor="start" x="1127.97" y="-185.51" font-family="Helvetica,sans-Serif" font-size="14.00"> </text>
<text text-anchor="start" x="1019.97" y="-171.51" font-family="Helvetica,sans-Serif" font-size="14.00"> error: 0.324, n=796 </text>
<text text-anchor="start" x="1038.97" y="-157.51" font-family="Helvetica,sans-Serif" font-size="14.00"> p: (0.94, 0.06) </text>
<text text-anchor="start" x="1046.47" y="-143.51" font-family="Helvetica,sans-Serif" font-size="14.00">&#45;&#45;&#45;&#45;&#45;&#45;&#45;&#45;&#45;&#45;&#45;&#45;&#45;&#45;&#45;&#45;&#45;&#45;</text>
<text text-anchor="start" x="1022.47" y="-129.51" font-family="Helvetica,sans-Serif" font-weight="bold" font-size="14.00">international_plan</text>
</g>
<!-- 12&#45;&gt;13 -->
<g id="edge14" class="edge">
<title>12:s&#45;&gt;13:n</title>
<path fill="none" stroke="black" d="M1093.97,-250.71C1093.97,-250.71 1093.97,-224.93 1093.97,-210.03"/>
<polygon fill="black" stroke="black" points="1097.47,-209.71 1093.97,-199.71 1090.47,-209.71 1097.47,-209.71"/>
<text text-anchor="middle" x="1128.97" y="-221.51" font-family="Helvetica,sans-Serif" font-size="14.00">&lt;= 221.4</text>
</g>
<!-- 15 -->
<g id="node16" class="node">
<title>15</title>
<ellipse fill="#3dcc76" stroke="black" cx="1363.97" cy="-160.71" rx="115.93" ry="35.21"/>
<text text-anchor="start" x="1324.97" y="-171.51" font-family="Helvetica,sans-Serif" font-weight="bold" font-size="14.00"> Class=0 </text>
<text text-anchor="start" x="1397.97" y="-171.51" font-family="Helvetica,sans-Serif" font-size="14.00"> </text>
<text text-anchor="start" x="1289.97" y="-157.51" font-family="Helvetica,sans-Serif" font-size="14.00"> error: 0.911, n=227 </text>
<text text-anchor="start" x="1308.97" y="-143.51" font-family="Helvetica,sans-Serif" font-size="14.00"> p: (0.67, 0.33) </text>
</g>
<!-- 12&#45;&gt;15 -->
<g id="edge15" class="edge">
<title>12:s&#45;&gt;15:n</title>
<path fill="none" stroke="black" d="M1093.97,-250.71C1093.97,-250.71 1305.32,-209.22 1354.04,-199.66"/>
<polygon fill="black" stroke="black" points="1354.83,-203.07 1363.97,-197.71 1353.48,-196.2 1354.83,-203.07"/>
<text text-anchor="middle" x="1290.97" y="-221.51" font-family="Helvetica,sans-Serif" font-size="14.00">&gt; 221.4</text>
</g>
<!-- 17 -->
<g id="node18" class="node">
<title>17</title>
<polygon fill="#3dcc76" stroke="black" points="1724.47,-199.71 1551.47,-199.71 1551.47,-121.71 1724.47,-121.71 1724.47,-199.71"/>
<text text-anchor="start" x="1598.97" y="-185.51" font-family="Helvetica,sans-Serif" font-weight="bold" font-size="14.00"> Class=0 </text>
<text text-anchor="start" x="1671.97" y="-185.51" font-family="Helvetica,sans-Serif" font-size="14.00"> </text>
<text text-anchor="start" x="1559.47" y="-171.51" font-family="Helvetica,sans-Serif" font-size="14.00"> error: 0.295, n=1425 </text>
<text text-anchor="start" x="1582.97" y="-157.51" font-family="Helvetica,sans-Serif" font-size="14.00"> p: (0.95, 0.05) </text>
<text text-anchor="start" x="1590.47" y="-143.51" font-family="Helvetica,sans-Serif" font-size="14.00">&#45;&#45;&#45;&#45;&#45;&#45;&#45;&#45;&#45;&#45;&#45;&#45;&#45;&#45;&#45;&#45;&#45;&#45;</text>
<text text-anchor="start" x="1566.47" y="-129.51" font-family="Helvetica,sans-Serif" font-weight="bold" font-size="14.00">international_plan</text>
</g>
<!-- 16&#45;&gt;17 -->
<g id="edge17" class="edge">
<title>16:s&#45;&gt;17:n</title>
<path fill="none" stroke="black" d="M1637.97,-250.71C1637.97,-250.71 1637.97,-224.93 1637.97,-210.03"/>
<polygon fill="black" stroke="black" points="1641.47,-209.71 1637.97,-199.71 1634.47,-209.71 1641.47,-209.71"/>
<text text-anchor="middle" x="1672.97" y="-221.51" font-family="Helvetica,sans-Serif" font-size="14.00">&lt;= 223.8</text>
</g>
<!-- 19 -->
<g id="node19" class="node">
<title>19</title>
<polygon fill="#3dcc76" stroke="black" points="1994.97,-199.71 1830.97,-199.71 1830.97,-121.71 1994.97,-121.71 1994.97,-199.71"/>
<text text-anchor="start" x="1873.97" y="-185.51" font-family="Helvetica,sans-Serif" font-weight="bold" font-size="14.00"> Class=0 </text>
<text text-anchor="start" x="1946.97" y="-185.51" font-family="Helvetica,sans-Serif" font-size="14.00"> </text>
<text text-anchor="start" x="1838.97" y="-171.51" font-family="Helvetica,sans-Serif" font-size="14.00"> error: 0.906, n=361 </text>
<text text-anchor="start" x="1857.97" y="-157.51" font-family="Helvetica,sans-Serif" font-size="14.00"> p: (0.68, 0.32) </text>
<text text-anchor="start" x="1867.97" y="-143.51" font-family="Helvetica,sans-Serif" font-size="14.00">&#45;&#45;&#45;&#45;&#45;&#45;&#45;&#45;&#45;&#45;&#45;&#45;&#45;&#45;&#45;&#45;&#45;</text>
<text text-anchor="start" x="1841.97" y="-129.51" font-family="Helvetica,sans-Serif" font-weight="bold" font-size="14.00">total_day_minutes</text>
</g>
<!-- 16&#45;&gt;19 -->
<g id="edge18" class="edge">
<title>16:s&#45;&gt;19:n</title>
<path fill="none" stroke="black" d="M1637.97,-250.71C1637.97,-250.71 1853.24,-210.79 1902.85,-201.59"/>
<polygon fill="black" stroke="black" points="1903.77,-204.98 1912.97,-199.71 1902.49,-198.09 1903.77,-204.98"/>
<text text-anchor="middle" x="1837.97" y="-221.51" font-family="Helvetica,sans-Serif" font-size="14.00">&gt; 223.8</text>
</g>
<!-- 6 -->
<g id="node10" class="node">
<title>6</title>
<ellipse fill="#4485e5" stroke="black" cx="283.97" cy="-35.36" rx="115.93" ry="35.21"/>
<text text-anchor="start" x="244.97" y="-46.16" font-family="Helvetica,sans-Serif" font-weight="bold" font-size="14.00"> Class=0 </text>
<text text-anchor="start" x="317.97" y="-46.16" font-family="Helvetica,sans-Serif" font-size="14.00"> </text>
<text text-anchor="start" x="209.97" y="-32.16" font-family="Helvetica,sans-Serif" font-size="14.00"> error: 0.175, n=457 </text>
<text text-anchor="start" x="228.97" y="-18.16" font-family="Helvetica,sans-Serif" font-size="14.00"> p: (0.97, 0.03) </text>
</g>
<!-- 5&#45;&gt;6 -->
<g id="edge9" class="edge">
<title>5:s&#45;&gt;6:n</title>
<path fill="none" stroke="black" d="M385.97,-121.71C385.97,-121.71 317.98,-87.72 293.02,-75.24"/>
<polygon fill="black" stroke="black" points="294.48,-72.05 283.97,-70.71 291.34,-78.31 294.48,-72.05"/>
<text text-anchor="middle" x="375.97" y="-92.51" font-family="Helvetica,sans-Serif" font-size="14.00">&lt;= 221</text>
</g>
<!-- 9 -->
<g id="node13" class="node">
<title>9</title>
<ellipse fill="#4485e5" stroke="black" cx="587.97" cy="-35.36" rx="115.93" ry="35.21"/>
<text text-anchor="start" x="548.97" y="-46.16" font-family="Helvetica,sans-Serif" font-weight="bold" font-size="14.00"> Class=0 </text>
<text text-anchor="start" x="621.97" y="-46.16" font-family="Helvetica,sans-Serif" font-size="14.00"> </text>
<text text-anchor="start" x="513.97" y="-32.16" font-family="Helvetica,sans-Serif" font-size="14.00"> error: 0.175, n=799 </text>
<text text-anchor="start" x="532.97" y="-18.16" font-family="Helvetica,sans-Serif" font-size="14.00"> p: (0.97, 0.03) </text>
</g>
<!-- 8&#45;&gt;9 -->
<g id="edge12" class="edge">
<title>8:s&#45;&gt;9:n</title>
<path fill="none" stroke="black" d="M621.97,-121.71C621.97,-121.71 603.24,-93.62 593.58,-79.13"/>
<polygon fill="black" stroke="black" points="596.42,-77.09 587.97,-70.71 590.6,-80.97 596.42,-77.09"/>
<text text-anchor="middle" x="614.97" y="-92.51" font-family="Helvetica,sans-Serif" font-size="14.00">0</text>
</g>
<!-- 11 -->
<g id="node14" class="node">
<title>11</title>
<ellipse fill="#4485e5" stroke="black" cx="891.97" cy="-35.36" rx="115.93" ry="35.21"/>
<text text-anchor="start" x="852.97" y="-46.16" font-family="Helvetica,sans-Serif" font-weight="bold" font-size="14.00"> Class=0 </text>
<text text-anchor="start" x="925.97" y="-46.16" font-family="Helvetica,sans-Serif" font-size="14.00"> </text>
<text text-anchor="start" x="817.97" y="-32.16" font-family="Helvetica,sans-Serif" font-size="14.00"> error: 0.688, n=196 </text>
<text text-anchor="start" x="836.97" y="-18.16" font-family="Helvetica,sans-Serif" font-size="14.00"> p: (0.82, 0.18) </text>
</g>
<!-- 10&#45;&gt;11 -->
<g id="edge13" class="edge">
<title>10:s&#45;&gt;11:n</title>
<path fill="none" stroke="black" d="M857.97,-121.71C857.97,-121.71 876.69,-93.62 886.35,-79.13"/>
<polygon fill="black" stroke="black" points="889.33,-80.97 891.97,-70.71 883.51,-77.09 889.33,-80.97"/>
<text text-anchor="middle" x="914.97" y="-92.51" font-family="Helvetica,sans-Serif" font-size="14.00">&lt;= 268.4</text>
</g>
<!-- 14 -->
<g id="node17" class="node">
<title>14</title>
<ellipse fill="#4485e5" stroke="black" cx="1195.97" cy="-35.36" rx="115.93" ry="35.21"/>
<text text-anchor="start" x="1156.97" y="-46.16" font-family="Helvetica,sans-Serif" font-weight="bold" font-size="14.00"> Class=0 </text>
<text text-anchor="start" x="1229.97" y="-46.16" font-family="Helvetica,sans-Serif" font-size="14.00"> </text>
<text text-anchor="start" x="1121.97" y="-32.16" font-family="Helvetica,sans-Serif" font-size="14.00"> error: 0.162, n=714 </text>
<text text-anchor="start" x="1140.97" y="-18.16" font-family="Helvetica,sans-Serif" font-size="14.00"> p: (0.98, 0.02) </text>
</g>
<!-- 13&#45;&gt;14 -->
<g id="edge16" class="edge">
<title>13:s&#45;&gt;14:n</title>
<path fill="none" stroke="black" d="M1093.97,-121.71C1093.97,-121.71 1161.95,-87.72 1186.91,-75.24"/>
<polygon fill="black" stroke="black" points="1188.59,-78.31 1195.97,-70.71 1185.46,-72.05 1188.59,-78.31"/>
<text text-anchor="middle" x="1162.97" y="-92.51" font-family="Helvetica,sans-Serif" font-size="14.00">0</text>
</g>
<!-- 18 -->
<g id="node20" class="node">
<title>18</title>
<ellipse fill="#4485e5" stroke="black" cx="1619.97" cy="-35.36" rx="122.16" ry="35.21"/>
<text text-anchor="start" x="1580.97" y="-46.16" font-family="Helvetica,sans-Serif" font-weight="bold" font-size="14.00"> Class=0 </text>
<text text-anchor="start" x="1653.97" y="-46.16" font-family="Helvetica,sans-Serif" font-size="14.00"> </text>
<text text-anchor="start" x="1541.47" y="-32.16" font-family="Helvetica,sans-Serif" font-size="14.00"> error: 0.186, n=1309 </text>
<text text-anchor="start" x="1564.97" y="-18.16" font-family="Helvetica,sans-Serif" font-size="14.00"> p: (0.97, 0.03) </text>
</g>
<!-- 17&#45;&gt;18 -->
<g id="edge19" class="edge">
<title>17:s&#45;&gt;18:n</title>
<path fill="none" stroke="black" d="M1637.97,-121.71C1637.97,-121.71 1628.67,-95.36 1623.44,-80.54"/>
<polygon fill="black" stroke="black" points="1626.59,-78.98 1619.97,-70.71 1619.99,-81.31 1626.59,-78.98"/>
<text text-anchor="middle" x="1636.97" y="-92.51" font-family="Helvetica,sans-Serif" font-size="14.00">0</text>
</g>
<!-- 20 -->
<g id="node21" class="node">
<title>20</title>
<ellipse fill="#4485e5" stroke="black" cx="1929.97" cy="-35.36" rx="115.93" ry="35.21"/>
<text text-anchor="start" x="1890.97" y="-46.16" font-family="Helvetica,sans-Serif" font-weight="bold" font-size="14.00"> Class=0 </text>
<text text-anchor="start" x="1963.97" y="-46.16" font-family="Helvetica,sans-Serif" font-size="14.00"> </text>
<text text-anchor="start" x="1855.97" y="-32.16" font-family="Helvetica,sans-Serif" font-size="14.00"> error: 0.642, n=196 </text>
<text text-anchor="start" x="1874.97" y="-18.16" font-family="Helvetica,sans-Serif" font-size="14.00"> p: (0.84, 0.16) </text>
</g>
<!-- 19&#45;&gt;20 -->
<g id="edge20" class="edge">
<title>19:s&#45;&gt;20:n</title>
<path fill="none" stroke="black" d="M1912.97,-121.71C1912.97,-121.71 1921.75,-95.36 1926.69,-80.54"/>
<polygon fill="black" stroke="black" points="1930.12,-81.3 1929.97,-70.71 1923.48,-79.09 1930.12,-81.3"/>
<text text-anchor="middle" x="1958.97" y="-92.51" font-family="Helvetica,sans-Serif" font-size="14.00">&lt;= 253.2</text>
</g>
</g>
</svg>
