<?xml version="1.0" encoding="UTF-8" standalone="no"?>
<!DOCTYPE svg PUBLIC "-//W3C//DTD SVG 1.1//EN"
 "http://www.w3.org/Graphics/SVG/1.1/DTD/svg11.dtd">
<!-- Generated by graphviz version 2.43.0 (0)
 -->
<!-- Title: Tree Pages: 1 -->
<svg width="805pt" height="954pt"
 viewBox="0.00 0.00 805.20 953.71" xmlns="http://www.w3.org/2000/svg" xmlns:xlink="http://www.w3.org/1999/xlink">
<g id="graph0" class="graph" transform="scale(1 1) rotate(0) translate(18 935.71)">
<title>Tree</title>
<polygon fill="white" stroke="transparent" points="-18,18 -18,-935.71 787.2,-935.71 787.2,18 -18,18"/>
<!-- 0 -->
<g id="node1" class="node">
<title>0</title>
<polygon fill="white" stroke="transparent" points="487.6,-917.71 433.6,-917.71 433.6,-881.71 487.6,-881.71 487.6,-917.71"/>
<text text-anchor="middle" x="460.6" y="-896.01" font-family="Helvetica,sans-Serif" font-size="14.00">0</text>
</g>
<!-- 1 -->
<g id="node2" class="node">
<title>1</title>
<polygon fill="#cc3d3d" stroke="black" points="542.6,-844.71 378.6,-844.71 378.6,-766.71 542.6,-766.71 542.6,-844.71"/>
<text text-anchor="start" x="421.6" y="-830.51" font-family="Helvetica,sans-Serif" font-weight="bold" font-size="14.00"> Class=1 </text>
<text text-anchor="start" x="494.6" y="-830.51" font-family="Helvetica,sans-Serif" font-size="14.00"> </text>
<text text-anchor="start" x="386.6" y="-816.51" font-family="Helvetica,sans-Serif" font-size="14.00"> error: 0.420, n=540 </text>
<text text-anchor="start" x="405.6" y="-802.51" font-family="Helvetica,sans-Serif" font-size="14.00"> p: (0.09, 0.91) </text>
<text text-anchor="start" x="431.6" y="-788.51" font-family="Helvetica,sans-Serif" font-size="14.00">&#45;&#45;&#45;&#45;&#45;&#45;&#45;&#45;&#45;&#45;&#45;</text>
<text text-anchor="start" x="415.1" y="-774.51" font-family="Helvetica,sans-Serif" font-weight="bold" font-size="14.00">vconst_corr</text>
</g>
<!-- 0&#45;&gt;1 -->
<!-- 2 -->
<g id="node3" class="node">
<title>2</title>
<polygon fill="#e5a544" stroke="black" points="407.6,-715.71 243.6,-715.71 243.6,-637.71 407.6,-637.71 407.6,-715.71"/>
<text text-anchor="start" x="286.6" y="-701.51" font-family="Helvetica,sans-Serif" font-weight="bold" font-size="14.00"> Class=1 </text>
<text text-anchor="start" x="359.6" y="-701.51" font-family="Helvetica,sans-Serif" font-size="14.00"> </text>
<text text-anchor="start" x="251.6" y="-687.51" font-family="Helvetica,sans-Serif" font-size="14.00"> error: 0.643, n=269 </text>
<text text-anchor="start" x="270.6" y="-673.51" font-family="Helvetica,sans-Serif" font-size="14.00"> p: (0.16, 0.84) </text>
<text text-anchor="start" x="304.1" y="-659.51" font-family="Helvetica,sans-Serif" font-size="14.00">&#45;&#45;&#45;&#45;&#45;&#45;&#45;&#45;</text>
<text text-anchor="start" x="291.1" y="-645.51" font-family="Helvetica,sans-Serif" font-weight="bold" font-size="14.00">vconst_2</text>
</g>
<!-- 1&#45;&gt;2 -->
<g id="edge2" class="edge">
<title>1:s&#45;&gt;2:n</title>
<path fill="none" stroke="black" d="M460.6,-766.71C460.6,-766.71 366.26,-731.07 335.31,-719.38"/>
<polygon fill="black" stroke="black" points="336.19,-715.97 325.6,-715.71 333.72,-722.52 336.19,-715.97"/>
<text text-anchor="middle" x="443.1" y="-737.51" font-family="Helvetica,sans-Serif" font-size="14.00">&gt; 0.5006</text>
</g>
<!-- 12 -->
<g id="node4" class="node">
<title>12</title>
<ellipse fill="#e5a544" stroke="black" cx="595.6" cy="-676.71" rx="115.93" ry="35.21"/>
<text text-anchor="start" x="556.6" y="-687.51" font-family="Helvetica,sans-Serif" font-weight="bold" font-size="14.00"> Class=1 </text>
<text text-anchor="start" x="629.6" y="-687.51" font-family="Helvetica,sans-Serif" font-size="14.00"> </text>
<text text-anchor="start" x="521.6" y="-673.51" font-family="Helvetica,sans-Serif" font-size="14.00"> error: 0.063, n=271 </text>
<text text-anchor="start" x="540.6" y="-659.51" font-family="Helvetica,sans-Serif" font-size="14.00"> p: (0.01, 0.99) </text>
</g>
<!-- 1&#45;&gt;12 -->
<g id="edge3" class="edge">
<title>1:s&#45;&gt;12:n</title>
<path fill="none" stroke="black" d="M460.6,-766.71C460.6,-766.71 554.94,-729.67 585.89,-717.52"/>
<polygon fill="black" stroke="black" points="587.57,-720.62 595.6,-713.71 585.01,-714.11 587.57,-720.62"/>
<text text-anchor="middle" x="584.1" y="-737.51" font-family="Helvetica,sans-Serif" font-size="14.00">&lt;= 0.5006</text>
</g>
<!-- 3 -->
<g id="node5" class="node">
<title>3</title>
<ellipse fill="#afcc3d" stroke="black" cx="252.6" cy="-547.71" rx="115.93" ry="35.21"/>
<text text-anchor="start" x="213.6" y="-558.51" font-family="Helvetica,sans-Serif" font-weight="bold" font-size="14.00"> Class=1 </text>
<text text-anchor="start" x="286.6" y="-558.51" font-family="Helvetica,sans-Serif" font-size="14.00"> </text>
<text text-anchor="start" x="178.6" y="-544.51" font-family="Helvetica,sans-Serif" font-size="14.00"> error: 0.063, n=135 </text>
<text text-anchor="start" x="197.6" y="-530.51" font-family="Helvetica,sans-Serif" font-size="14.00"> p: (0.01, 0.99) </text>
</g>
<!-- 2&#45;&gt;3 -->
<g id="edge4" class="edge">
<title>2:s&#45;&gt;3:n</title>
<path fill="none" stroke="black" d="M325.6,-637.71C325.6,-637.71 280.15,-604.71 260.98,-590.79"/>
<polygon fill="black" stroke="black" points="262.75,-587.75 252.6,-584.71 258.64,-593.42 262.75,-587.75"/>
<text text-anchor="middle" x="335.6" y="-608.51" font-family="Helvetica,sans-Serif" font-size="14.00">&lt;= 0.523</text>
</g>
<!-- 4 -->
<g id="node6" class="node">
<title>4</title>
<polygon fill="#afcc3d" stroke="black" points="604.6,-586.71 440.6,-586.71 440.6,-508.71 604.6,-508.71 604.6,-586.71"/>
<text text-anchor="start" x="483.6" y="-572.51" font-family="Helvetica,sans-Serif" font-weight="bold" font-size="14.00"> Class=1 </text>
<text text-anchor="start" x="556.6" y="-572.51" font-family="Helvetica,sans-Serif" font-size="14.00"> </text>
<text text-anchor="start" x="448.6" y="-558.51" font-family="Helvetica,sans-Serif" font-size="14.00"> error: 0.905, n=134 </text>
<text text-anchor="start" x="467.6" y="-544.51" font-family="Helvetica,sans-Serif" font-size="14.00"> p: (0.32, 0.68) </text>
<text text-anchor="start" x="490.6" y="-530.51" font-family="Helvetica,sans-Serif" font-size="14.00">&#45;&#45;&#45;&#45;&#45;&#45;&#45;&#45;&#45;&#45;&#45;&#45;</text>
<text text-anchor="start" x="469.1" y="-516.51" font-family="Helvetica,sans-Serif" font-weight="bold" font-size="14.00">bckgrnd_vdc1</text>
</g>
<!-- 2&#45;&gt;4 -->
<g id="edge5" class="edge">
<title>2:s&#45;&gt;4:n</title>
<path fill="none" stroke="black" d="M325.6,-637.71C325.6,-637.71 473.08,-599.53 512.83,-589.24"/>
<polygon fill="black" stroke="black" points="513.8,-592.61 522.6,-586.71 512.04,-585.83 513.8,-592.61"/>
<text text-anchor="middle" x="476.6" y="-608.51" font-family="Helvetica,sans-Serif" font-size="14.00">&gt; 0.523</text>
</g>
<!-- 5 -->
<g id="node7" class="node">
<title>5</title>
<polygon fill="#64e544" stroke="black" points="478.1,-457.71 323.1,-457.71 323.1,-379.71 478.1,-379.71 478.1,-457.71"/>
<text text-anchor="start" x="361.6" y="-443.51" font-family="Helvetica,sans-Serif" font-weight="bold" font-size="14.00"> Class=0 </text>
<text text-anchor="start" x="434.6" y="-443.51" font-family="Helvetica,sans-Serif" font-size="14.00"> </text>
<text text-anchor="start" x="331.1" y="-429.51" font-family="Helvetica,sans-Serif" font-size="14.00"> error: 0.999, n=67 </text>
<text text-anchor="start" x="345.6" y="-415.51" font-family="Helvetica,sans-Serif" font-size="14.00"> p: (0.52, 0.48) </text>
<text text-anchor="start" x="368.6" y="-401.51" font-family="Helvetica,sans-Serif" font-size="14.00">&#45;&#45;&#45;&#45;&#45;&#45;&#45;&#45;&#45;&#45;&#45;&#45;</text>
<text text-anchor="start" x="350.6" y="-387.51" font-family="Helvetica,sans-Serif" font-weight="bold" font-size="14.00">convect_corr</text>
</g>
<!-- 4&#45;&gt;5 -->
<g id="edge6" class="edge">
<title>4:s&#45;&gt;5:n</title>
<path fill="none" stroke="black" d="M522.6,-508.71C522.6,-508.71 438.94,-473.74 410.17,-461.71"/>
<polygon fill="black" stroke="black" points="411.18,-458.34 400.6,-457.71 408.48,-464.8 411.18,-458.34"/>
<text text-anchor="middle" x="509.1" y="-479.51" font-family="Helvetica,sans-Serif" font-size="14.00">&lt;= 0.4622</text>
</g>
<!-- 8 -->
<g id="node8" class="node">
<title>8</title>
<polygon fill="#64e544" stroke="black" points="713.1,-457.71 558.1,-457.71 558.1,-379.71 713.1,-379.71 713.1,-457.71"/>
<text text-anchor="start" x="596.6" y="-443.51" font-family="Helvetica,sans-Serif" font-weight="bold" font-size="14.00"> Class=1 </text>
<text text-anchor="start" x="669.6" y="-443.51" font-family="Helvetica,sans-Serif" font-size="14.00"> </text>
<text text-anchor="start" x="566.1" y="-429.51" font-family="Helvetica,sans-Serif" font-size="14.00"> error: 0.528, n=67 </text>
<text text-anchor="start" x="580.6" y="-415.51" font-family="Helvetica,sans-Serif" font-size="14.00"> p: (0.12, 0.88) </text>
<text text-anchor="start" x="614.1" y="-401.51" font-family="Helvetica,sans-Serif" font-size="14.00">&#45;&#45;&#45;&#45;&#45;&#45;&#45;&#45;</text>
<text text-anchor="start" x="602.6" y="-387.51" font-family="Helvetica,sans-Serif" font-weight="bold" font-size="14.00">slm_corr</text>
</g>
<!-- 4&#45;&gt;8 -->
<g id="edge7" class="edge">
<title>4:s&#45;&gt;8:n</title>
<path fill="none" stroke="black" d="M522.6,-508.71C522.6,-508.71 599.37,-474.06 626.35,-461.88"/>
<polygon fill="black" stroke="black" points="627.93,-465.01 635.6,-457.71 625.05,-458.63 627.93,-465.01"/>
<text text-anchor="middle" x="626.1" y="-479.51" font-family="Helvetica,sans-Serif" font-size="14.00">&gt; 0.4622</text>
</g>
<!-- 6 -->
<g id="node9" class="node">
<title>6</title>
<ellipse fill="#3dcc76" stroke="black" cx="109.6" cy="-289.71" rx="109.7" ry="35.21"/>
<text text-anchor="start" x="70.6" y="-300.51" font-family="Helvetica,sans-Serif" font-weight="bold" font-size="14.00"> Class=1 </text>
<text text-anchor="start" x="143.6" y="-300.51" font-family="Helvetica,sans-Serif" font-size="14.00"> </text>
<text text-anchor="start" x="40.1" y="-286.51" font-family="Helvetica,sans-Serif" font-size="14.00"> error: 0.845, n=33 </text>
<text text-anchor="start" x="54.6" y="-272.51" font-family="Helvetica,sans-Serif" font-size="14.00"> p: (0.27, 0.73) </text>
</g>
<!-- 5&#45;&gt;6 -->
<g id="edge8" class="edge">
<title>5:s&#45;&gt;6:n</title>
<path fill="none" stroke="black" d="M400.6,-379.71C400.6,-379.71 170.79,-337.85 119.62,-328.54"/>
<polygon fill="black" stroke="black" points="120.07,-325.06 109.6,-326.71 118.81,-331.95 120.07,-325.06"/>
<text text-anchor="middle" x="338.1" y="-350.51" font-family="Helvetica,sans-Serif" font-size="14.00">&lt;= 0.5491</text>
</g>
<!-- 7 -->
<g id="node10" class="node">
<title>7</title>
<ellipse fill="#3dcc76" stroke="black" cx="400.6" cy="-289.71" rx="109.7" ry="35.21"/>
<text text-anchor="start" x="361.6" y="-300.51" font-family="Helvetica,sans-Serif" font-weight="bold" font-size="14.00"> Class=0 </text>
<text text-anchor="start" x="434.6" y="-300.51" font-family="Helvetica,sans-Serif" font-size="14.00"> </text>
<text text-anchor="start" x="331.1" y="-286.51" font-family="Helvetica,sans-Serif" font-size="14.00"> error: 0.787, n=34 </text>
<text text-anchor="start" x="345.6" y="-272.51" font-family="Helvetica,sans-Serif" font-size="14.00"> p: (0.76, 0.24) </text>
</g>
<!-- 5&#45;&gt;7 -->
<g id="edge9" class="edge">
<title>5:s&#45;&gt;7:n</title>
<path fill="none" stroke="black" d="M400.6,-379.71C400.6,-379.71 400.6,-352.33 400.6,-336.93"/>
<polygon fill="black" stroke="black" points="404.1,-336.71 400.6,-326.71 397.1,-336.71 404.1,-336.71"/>
<text text-anchor="middle" x="434.1" y="-350.51" font-family="Helvetica,sans-Serif" font-size="14.00">&gt; 0.5491</text>
</g>
<!-- 9 -->
<g id="node11" class="node">
<title>9</title>
<polygon fill="#3dcc76" stroke="black" points="737.1,-328.71 582.1,-328.71 582.1,-250.71 737.1,-250.71 737.1,-328.71"/>
<text text-anchor="start" x="620.6" y="-314.51" font-family="Helvetica,sans-Serif" font-weight="bold" font-size="14.00"> Class=1 </text>
<text text-anchor="start" x="693.6" y="-314.51" font-family="Helvetica,sans-Serif" font-size="14.00"> </text>
<text text-anchor="start" x="590.1" y="-300.51" font-family="Helvetica,sans-Serif" font-size="14.00"> error: 0.242, n=50 </text>
<text text-anchor="start" x="604.6" y="-286.51" font-family="Helvetica,sans-Serif" font-size="14.00"> p: (0.04, 0.96) </text>
<text text-anchor="start" x="638.1" y="-272.51" font-family="Helvetica,sans-Serif" font-size="14.00">&#45;&#45;&#45;&#45;&#45;&#45;&#45;&#45;</text>
<text text-anchor="start" x="626.6" y="-258.51" font-family="Helvetica,sans-Serif" font-weight="bold" font-size="14.00">slm_corr</text>
</g>
<!-- 8&#45;&gt;9 -->
<g id="edge10" class="edge">
<title>8:s&#45;&gt;9:n</title>
<path fill="none" stroke="black" d="M635.6,-379.71C635.6,-379.71 648.27,-352.79 655.2,-338.06"/>
<polygon fill="black" stroke="black" points="658.51,-339.25 659.6,-328.71 652.18,-336.27 658.51,-339.25"/>
<text text-anchor="middle" x="684.1" y="-350.51" font-family="Helvetica,sans-Serif" font-size="14.00">&gt; 0.2244</text>
</g>
<!-- 10 -->
<g id="node12" class="node">
<title>10</title>
<polygon fill="#44e5e5" stroke="black" points="737.1,-199.71 582.1,-199.71 582.1,-121.71 737.1,-121.71 737.1,-199.71"/>
<text text-anchor="start" x="620.6" y="-185.51" font-family="Helvetica,sans-Serif" font-weight="bold" font-size="14.00"> Class=1 </text>
<text text-anchor="start" x="693.6" y="-185.51" font-family="Helvetica,sans-Serif" font-size="14.00"> </text>
<text text-anchor="start" x="590.1" y="-171.51" font-family="Helvetica,sans-Serif" font-size="14.00"> error: 0.144, n=49 </text>
<text text-anchor="start" x="604.6" y="-157.51" font-family="Helvetica,sans-Serif" font-size="14.00"> p: (0.02, 0.98) </text>
<text text-anchor="start" x="638.1" y="-143.51" font-family="Helvetica,sans-Serif" font-size="14.00">&#45;&#45;&#45;&#45;&#45;&#45;&#45;&#45;</text>
<text text-anchor="start" x="625.1" y="-129.51" font-family="Helvetica,sans-Serif" font-weight="bold" font-size="14.00">vconst_2</text>
</g>
<!-- 9&#45;&gt;10 -->
<g id="edge11" class="edge">
<title>9:s&#45;&gt;10:n</title>
<path fill="none" stroke="black" d="M659.6,-250.71C659.6,-250.71 659.6,-224.93 659.6,-210.03"/>
<polygon fill="black" stroke="black" points="663.1,-209.71 659.6,-199.71 656.1,-209.71 663.1,-209.71"/>
<text text-anchor="middle" x="688.6" y="-221.51" font-family="Helvetica,sans-Serif" font-size="14.00">&gt; 0.239</text>
</g>
<!-- 11 -->
<g id="node13" class="node">
<title>11</title>
<ellipse fill="#3d76cc" stroke="black" cx="659.6" cy="-35.36" rx="109.7" ry="35.21"/>
<text text-anchor="start" x="620.6" y="-46.16" font-family="Helvetica,sans-Serif" font-weight="bold" font-size="14.00"> Class=1 </text>
<text text-anchor="start" x="693.6" y="-46.16" font-family="Helvetica,sans-Serif" font-size="14.00"> </text>
<text text-anchor="start" x="590.1" y="-32.16" font-family="Helvetica,sans-Serif" font-size="14.00"> error: 0.000, n=37 </text>
<text text-anchor="start" x="604.6" y="-18.16" font-family="Helvetica,sans-Serif" font-size="14.00"> p: (0.00, 1.00) </text>
</g>
<!-- 10&#45;&gt;11 -->
<g id="edge12" class="edge">
<title>10:s&#45;&gt;11:n</title>
<path fill="none" stroke="black" d="M659.6,-121.71C659.6,-121.71 659.6,-95.93 659.6,-81.03"/>
<polygon fill="black" stroke="black" points="663.1,-80.71 659.6,-70.71 656.1,-80.71 663.1,-80.71"/>
<text text-anchor="middle" x="699.1" y="-92.51" font-family="Helvetica,sans-Serif" font-size="14.00">&lt;= 0.8375</text>
</g>
</g>
</svg>
