<?xml version="1.0" encoding="UTF-8" standalone="no"?>
<!DOCTYPE svg PUBLIC "-//W3C//DTD SVG 1.1//EN"
 "http://www.w3.org/Graphics/SVG/1.1/DTD/svg11.dtd">
<!-- Generated by graphviz version 2.43.0 (0)
 -->
<!-- Title: Tree Pages: 1 -->
<svg width="1778pt" height="567pt"
 viewBox="0.00 0.00 1778.17 566.71" xmlns="http://www.w3.org/2000/svg" xmlns:xlink="http://www.w3.org/1999/xlink">
<g id="graph0" class="graph" transform="scale(1 1) rotate(0) translate(18 548.71)">
<title>Tree</title>
<polygon fill="white" stroke="transparent" points="-18,18 -18,-548.71 1760.17,-548.71 1760.17,18 -18,18"/>
<!-- 0 -->
<g id="node1" class="node">
<title>0</title>
<polygon fill="white" stroke="transparent" points="1158.09,-530.71 1104.09,-530.71 1104.09,-494.71 1158.09,-494.71 1158.09,-530.71"/>
<text text-anchor="middle" x="1131.09" y="-509.01" font-family="Helvetica,sans-Serif" font-size="14.00">0</text>
</g>
<!-- 1 -->
<g id="node2" class="node">
<title>1</title>
<polygon fill="#cc3d3d" stroke="black" points="1259.09,-457.71 1003.09,-457.71 1003.09,-379.71 1259.09,-379.71 1259.09,-457.71"/>
<text text-anchor="start" x="1092.09" y="-443.51" font-family="Helvetica,sans-Serif" font-weight="bold" font-size="14.00"> Class=1 </text>
<text text-anchor="start" x="1165.09" y="-443.51" font-family="Helvetica,sans-Serif" font-size="14.00"> </text>
<text text-anchor="start" x="1052.59" y="-429.51" font-family="Helvetica,sans-Serif" font-size="14.00"> error: 0.971, n=1473 </text>
<text text-anchor="start" x="1055.59" y="-415.51" font-family="Helvetica,sans-Serif" font-size="14.00"> p: (0.43, 0.23, 0.35) </text>
<text text-anchor="start" x="1057.09" y="-401.51" font-family="Helvetica,sans-Serif" font-size="14.00">&#45;&#45;&#45;&#45;&#45;&#45;&#45;&#45;&#45;&#45;&#45;&#45;&#45;&#45;&#45;&#45;&#45;&#45;&#45;&#45;&#45;&#45;&#45;&#45;&#45;&#45;&#45;&#45;</text>
<text text-anchor="start" x="1011.09" y="-387.51" font-family="Helvetica,sans-Serif" font-weight="bold" font-size="14.00">Number_of_children_ever_born</text>
</g>
<!-- 0&#45;&gt;1 -->
<!-- 2 -->
<g id="node3" class="node">
<title>2</title>
<polygon fill="#c5e544" stroke="black" points="1094.59,-328.71 921.59,-328.71 921.59,-250.71 1094.59,-250.71 1094.59,-328.71"/>
<text text-anchor="start" x="969.09" y="-314.51" font-family="Helvetica,sans-Serif" font-weight="bold" font-size="14.00"> Class=1 </text>
<text text-anchor="start" x="1042.09" y="-314.51" font-family="Helvetica,sans-Serif" font-size="14.00"> </text>
<text text-anchor="start" x="929.59" y="-300.51" font-family="Helvetica,sans-Serif" font-size="14.00"> error: 0.982, n=1376 </text>
<text text-anchor="start" x="932.59" y="-286.51" font-family="Helvetica,sans-Serif" font-size="14.00"> p: (0.39, 0.24, 0.37) </text>
<text text-anchor="start" x="968.59" y="-272.51" font-family="Helvetica,sans-Serif" font-size="14.00">&#45;&#45;&#45;&#45;&#45;&#45;&#45;&#45;&#45;&#45;&#45;&#45;&#45;&#45;&#45;</text>
<text text-anchor="start" x="943.09" y="-258.51" font-family="Helvetica,sans-Serif" font-weight="bold" font-size="14.00">Wifes_education</text>
</g>
<!-- 1&#45;&gt;2 -->
<g id="edge2" class="edge">
<title>1:s&#45;&gt;2:n</title>
<path fill="none" stroke="black" d="M1131.09,-379.71C1131.09,-379.71 1045.94,-344.4 1017.33,-332.54"/>
<polygon fill="black" stroke="black" points="1018.66,-329.31 1008.09,-328.71 1015.98,-335.77 1018.66,-329.31"/>
<text text-anchor="middle" x="1098.09" y="-350.51" font-family="Helvetica,sans-Serif" font-size="14.00">&gt; 0</text>
</g>
<!-- 11 -->
<g id="node4" class="node">
<title>11</title>
<polygon fill="#c5e544" stroke="black" points="1529.59,-328.71 1350.59,-328.71 1350.59,-250.71 1529.59,-250.71 1529.59,-328.71"/>
<text text-anchor="start" x="1401.09" y="-314.51" font-family="Helvetica,sans-Serif" font-weight="bold" font-size="14.00"> Class=1 </text>
<text text-anchor="start" x="1474.09" y="-314.51" font-family="Helvetica,sans-Serif" font-size="14.00"> </text>
<text text-anchor="start" x="1370.59" y="-300.51" font-family="Helvetica,sans-Serif" font-size="14.00"> error: 0.091, n=97 </text>
<text text-anchor="start" x="1364.59" y="-286.51" font-family="Helvetica,sans-Serif" font-size="14.00"> p: (0.98, 0.00, 0.02) </text>
<text text-anchor="start" x="1392.59" y="-272.51" font-family="Helvetica,sans-Serif" font-size="14.00">&#45;&#45;&#45;&#45;&#45;&#45;&#45;&#45;&#45;&#45;&#45;&#45;&#45;&#45;&#45;&#45;&#45;&#45;</text>
<text text-anchor="start" x="1358.59" y="-258.51" font-family="Helvetica,sans-Serif" font-weight="bold" font-size="14.00">Husbands_education</text>
</g>
<!-- 1&#45;&gt;11 -->
<g id="edge3" class="edge">
<title>1:s&#45;&gt;11:n</title>
<path fill="none" stroke="black" d="M1131.09,-379.71C1131.09,-379.71 1377.27,-339.08 1430.16,-330.35"/>
<polygon fill="black" stroke="black" points="1430.79,-333.79 1440.09,-328.71 1429.65,-326.89 1430.79,-333.79"/>
<text text-anchor="middle" x="1342.09" y="-350.51" font-family="Helvetica,sans-Serif" font-size="14.00">&lt;= 0</text>
</g>
<!-- 3 -->
<g id="node5" class="node">
<title>3</title>
<polygon fill="#3dcc76" stroke="black" points="509.59,-199.71 342.59,-199.71 342.59,-121.71 509.59,-121.71 509.59,-199.71"/>
<text text-anchor="start" x="387.09" y="-185.51" font-family="Helvetica,sans-Serif" font-weight="bold" font-size="14.00"> Class=1 </text>
<text text-anchor="start" x="460.09" y="-185.51" font-family="Helvetica,sans-Serif" font-size="14.00"> </text>
<text text-anchor="start" x="352.09" y="-171.51" font-family="Helvetica,sans-Serif" font-size="14.00"> error: 0.881, n=311 </text>
<text text-anchor="start" x="350.59" y="-157.51" font-family="Helvetica,sans-Serif" font-size="14.00"> p: (0.50, 0.12, 0.38) </text>
<text text-anchor="start" x="402.09" y="-143.51" font-family="Helvetica,sans-Serif" font-size="14.00">&#45;&#45;&#45;&#45;&#45;&#45;&#45;&#45;&#45;</text>
<text text-anchor="start" x="385.59" y="-129.51" font-family="Helvetica,sans-Serif" font-weight="bold" font-size="14.00">Wifes_age</text>
</g>
<!-- 2&#45;&gt;3 -->
<g id="edge4" class="edge">
<title>2:s&#45;&gt;3:n</title>
<path fill="none" stroke="black" d="M1008.09,-250.71C1008.09,-250.71 513.47,-207.37 436.19,-200.6"/>
<polygon fill="black" stroke="black" points="436.35,-197.1 426.09,-199.71 435.74,-204.07 436.35,-197.1"/>
<text text-anchor="middle" x="792.09" y="-221.51" font-family="Helvetica,sans-Serif" font-size="14.00">2</text>
</g>
<!-- 6 -->
<g id="node6" class="node">
<title>6</title>
<polygon fill="#3dcc76" stroke="black" points="817.59,-199.71 650.59,-199.71 650.59,-121.71 817.59,-121.71 817.59,-199.71"/>
<text text-anchor="start" x="695.09" y="-185.51" font-family="Helvetica,sans-Serif" font-weight="bold" font-size="14.00"> Class=1 </text>
<text text-anchor="start" x="768.09" y="-185.51" font-family="Helvetica,sans-Serif" font-size="14.00"> </text>
<text text-anchor="start" x="660.09" y="-171.51" font-family="Helvetica,sans-Serif" font-size="14.00"> error: 0.739, n=141 </text>
<text text-anchor="start" x="658.59" y="-157.51" font-family="Helvetica,sans-Serif" font-size="14.00"> p: (0.65, 0.06, 0.28) </text>
<text text-anchor="start" x="710.09" y="-143.51" font-family="Helvetica,sans-Serif" font-size="14.00">&#45;&#45;&#45;&#45;&#45;&#45;&#45;&#45;&#45;</text>
<text text-anchor="start" x="693.59" y="-129.51" font-family="Helvetica,sans-Serif" font-weight="bold" font-size="14.00">Wifes_age</text>
</g>
<!-- 2&#45;&gt;6 -->
<g id="edge5" class="edge">
<title>2:s&#45;&gt;6:n</title>
<path fill="none" stroke="black" d="M1008.09,-250.71C1008.09,-250.71 793.6,-210.79 744.16,-201.59"/>
<polygon fill="black" stroke="black" points="744.56,-198.1 734.09,-199.71 743.28,-204.98 744.56,-198.1"/>
<text text-anchor="middle" x="909.09" y="-221.51" font-family="Helvetica,sans-Serif" font-size="14.00">1</text>
</g>
<!-- 9 -->
<g id="node7" class="node">
<title>9</title>
<ellipse fill="#3dcc76" stroke="black" cx="1008.09" cy="-160.71" rx="118.17" ry="35.21"/>
<text text-anchor="start" x="969.09" y="-171.51" font-family="Helvetica,sans-Serif" font-weight="bold" font-size="14.00"> Class=3 </text>
<text text-anchor="start" x="1042.09" y="-171.51" font-family="Helvetica,sans-Serif" font-size="14.00"> </text>
<text text-anchor="start" x="934.09" y="-157.51" font-family="Helvetica,sans-Serif" font-size="14.00"> error: 0.965, n=383 </text>
<text text-anchor="start" x="932.59" y="-143.51" font-family="Helvetica,sans-Serif" font-size="14.00"> p: (0.39, 0.21, 0.40) </text>
</g>
<!-- 2&#45;&gt;9 -->
<g id="edge6" class="edge">
<title>2:s&#45;&gt;9:n</title>
<path fill="none" stroke="black" d="M1008.09,-250.71C1008.09,-250.71 1008.09,-223.33 1008.09,-207.93"/>
<polygon fill="black" stroke="black" points="1011.59,-207.71 1008.09,-197.71 1004.59,-207.71 1011.59,-207.71"/>
<text text-anchor="middle" x="1013.09" y="-221.51" font-family="Helvetica,sans-Serif" font-size="14.00">3</text>
</g>
<!-- 10 -->
<g id="node8" class="node">
<title>10</title>
<ellipse fill="#3dcc76" stroke="black" cx="1316.09" cy="-160.71" rx="118.17" ry="35.21"/>
<text text-anchor="start" x="1277.09" y="-171.51" font-family="Helvetica,sans-Serif" font-weight="bold" font-size="14.00"> Class=2 </text>
<text text-anchor="start" x="1350.09" y="-171.51" font-family="Helvetica,sans-Serif" font-size="14.00"> </text>
<text text-anchor="start" x="1242.09" y="-157.51" font-family="Helvetica,sans-Serif" font-size="14.00"> error: 0.987, n=541 </text>
<text text-anchor="start" x="1240.59" y="-143.51" font-family="Helvetica,sans-Serif" font-size="14.00"> p: (0.26, 0.38, 0.36) </text>
</g>
<!-- 2&#45;&gt;10 -->
<g id="edge7" class="edge">
<title>2:s&#45;&gt;10:n</title>
<path fill="none" stroke="black" d="M1008.09,-250.71C1008.09,-250.71 1253.47,-208.49 1306.19,-199.41"/>
<polygon fill="black" stroke="black" points="1306.83,-202.86 1316.09,-197.71 1305.64,-195.96 1306.83,-202.86"/>
<text text-anchor="middle" x="1204.09" y="-221.51" font-family="Helvetica,sans-Serif" font-size="14.00">4</text>
</g>
<!-- 12 -->
<g id="node13" class="node">
<title>12</title>
<ellipse fill="#3dcc76" stroke="black" cx="1624.09" cy="-160.71" rx="118.17" ry="35.21"/>
<text text-anchor="start" x="1585.09" y="-171.51" font-family="Helvetica,sans-Serif" font-weight="bold" font-size="14.00"> Class=1 </text>
<text text-anchor="start" x="1658.09" y="-171.51" font-family="Helvetica,sans-Serif" font-size="14.00"> </text>
<text text-anchor="start" x="1554.59" y="-157.51" font-family="Helvetica,sans-Serif" font-size="14.00"> error: 0.000, n=65 </text>
<text text-anchor="start" x="1548.59" y="-143.51" font-family="Helvetica,sans-Serif" font-size="14.00"> p: (1.00, 0.00, 0.00) </text>
</g>
<!-- 11&#45;&gt;12 -->
<g id="edge12" class="edge">
<title>11:s&#45;&gt;12:n</title>
<path fill="none" stroke="black" d="M1440.09,-250.71C1440.09,-250.71 1576.59,-211.39 1614.45,-200.49"/>
<polygon fill="black" stroke="black" points="1615.45,-203.84 1624.09,-197.71 1613.51,-197.12 1615.45,-203.84"/>
<text text-anchor="middle" x="1558.09" y="-221.51" font-family="Helvetica,sans-Serif" font-size="14.00">4</text>
</g>
<!-- 4 -->
<g id="node9" class="node">
<title>4</title>
<ellipse fill="#4485e5" stroke="black" cx="118.09" cy="-35.36" rx="118.17" ry="35.21"/>
<text text-anchor="start" x="79.09" y="-46.16" font-family="Helvetica,sans-Serif" font-weight="bold" font-size="14.00"> Class=1 </text>
<text text-anchor="start" x="152.09" y="-46.16" font-family="Helvetica,sans-Serif" font-size="14.00"> </text>
<text text-anchor="start" x="44.09" y="-32.16" font-family="Helvetica,sans-Serif" font-size="14.00"> error: 0.875, n=266 </text>
<text text-anchor="start" x="42.59" y="-18.16" font-family="Helvetica,sans-Serif" font-size="14.00"> p: (0.46, 0.11, 0.43) </text>
</g>
<!-- 3&#45;&gt;4 -->
<g id="edge8" class="edge">
<title>3:s&#45;&gt;4:n</title>
<path fill="none" stroke="black" d="M426.09,-121.71C426.09,-121.71 180.7,-81.08 127.99,-72.35"/>
<polygon fill="black" stroke="black" points="128.52,-68.89 118.09,-70.71 127.38,-75.8 128.52,-68.89"/>
<text text-anchor="middle" x="332.59" y="-92.51" font-family="Helvetica,sans-Serif" font-size="14.00">&lt;= 40</text>
</g>
<!-- 5 -->
<g id="node10" class="node">
<title>5</title>
<ellipse fill="#4485e5" stroke="black" cx="426.09" cy="-35.36" rx="118.17" ry="35.21"/>
<text text-anchor="start" x="387.09" y="-46.16" font-family="Helvetica,sans-Serif" font-weight="bold" font-size="14.00"> Class=1 </text>
<text text-anchor="start" x="460.09" y="-46.16" font-family="Helvetica,sans-Serif" font-size="14.00"> </text>
<text text-anchor="start" x="356.59" y="-32.16" font-family="Helvetica,sans-Serif" font-size="14.00"> error: 0.682, n=45 </text>
<text text-anchor="start" x="350.59" y="-18.16" font-family="Helvetica,sans-Serif" font-size="14.00"> p: (0.73, 0.18, 0.09) </text>
</g>
<!-- 3&#45;&gt;5 -->
<g id="edge9" class="edge">
<title>3:s&#45;&gt;5:n</title>
<path fill="none" stroke="black" d="M426.09,-121.71C426.09,-121.71 426.09,-95.93 426.09,-81.03"/>
<polygon fill="black" stroke="black" points="429.59,-80.71 426.09,-70.71 422.59,-80.71 429.59,-80.71"/>
<text text-anchor="middle" x="443.59" y="-92.51" font-family="Helvetica,sans-Serif" font-size="14.00">&gt; 40</text>
</g>
<!-- 7 -->
<g id="node11" class="node">
<title>7</title>
<ellipse fill="#4485e5" stroke="black" cx="734.09" cy="-35.36" rx="118.17" ry="35.21"/>
<text text-anchor="start" x="695.09" y="-46.16" font-family="Helvetica,sans-Serif" font-weight="bold" font-size="14.00"> Class=3 </text>
<text text-anchor="start" x="768.09" y="-46.16" font-family="Helvetica,sans-Serif" font-size="14.00"> </text>
<text text-anchor="start" x="664.59" y="-32.16" font-family="Helvetica,sans-Serif" font-size="14.00"> error: 0.835, n=56 </text>
<text text-anchor="start" x="658.59" y="-18.16" font-family="Helvetica,sans-Serif" font-size="14.00"> p: (0.38, 0.09, 0.54) </text>
</g>
<!-- 6&#45;&gt;7 -->
<g id="edge10" class="edge">
<title>6:s&#45;&gt;7:n</title>
<path fill="none" stroke="black" d="M734.09,-121.71C734.09,-121.71 734.09,-95.93 734.09,-81.03"/>
<polygon fill="black" stroke="black" points="737.59,-80.71 734.09,-70.71 730.59,-80.71 737.59,-80.71"/>
<text text-anchor="middle" x="757.59" y="-92.51" font-family="Helvetica,sans-Serif" font-size="14.00">&lt;= 35</text>
</g>
<!-- 8 -->
<g id="node12" class="node">
<title>8</title>
<ellipse fill="#4485e5" stroke="black" cx="1042.09" cy="-35.36" rx="118.17" ry="35.21"/>
<text text-anchor="start" x="1003.09" y="-46.16" font-family="Helvetica,sans-Serif" font-weight="bold" font-size="14.00"> Class=1 </text>
<text text-anchor="start" x="1076.09" y="-46.16" font-family="Helvetica,sans-Serif" font-size="14.00"> </text>
<text text-anchor="start" x="972.59" y="-32.16" font-family="Helvetica,sans-Serif" font-size="14.00"> error: 0.497, n=85 </text>
<text text-anchor="start" x="966.59" y="-18.16" font-family="Helvetica,sans-Serif" font-size="14.00"> p: (0.84, 0.05, 0.12) </text>
</g>
<!-- 6&#45;&gt;8 -->
<g id="edge11" class="edge">
<title>6:s&#45;&gt;8:n</title>
<path fill="none" stroke="black" d="M734.09,-121.71C734.09,-121.71 979.47,-81.08 1032.19,-72.35"/>
<polygon fill="black" stroke="black" points="1032.79,-75.8 1042.09,-70.71 1031.65,-68.89 1032.79,-75.8"/>
<text text-anchor="middle" x="942.59" y="-92.51" font-family="Helvetica,sans-Serif" font-size="14.00">&gt; 35</text>
</g>
</g>
</svg>
