<?xml version="1.0" encoding="UTF-8" standalone="no"?>
<!DOCTYPE svg PUBLIC "-//W3C//DTD SVG 1.1//EN"
 "http://www.w3.org/Graphics/SVG/1.1/DTD/svg11.dtd">
<!-- Generated by graphviz version 2.43.0 (0)
 -->
<!-- Title: Tree Pages: 1 -->
<svg width="3309pt" height="567pt"
 viewBox="0.00 0.00 3309.20 566.71" xmlns="http://www.w3.org/2000/svg" xmlns:xlink="http://www.w3.org/1999/xlink">
<g id="graph0" class="graph" transform="scale(1 1) rotate(0) translate(18 548.71)">
<title>Tree</title>
<polygon fill="white" stroke="transparent" points="-18,18 -18,-548.71 3291.2,-548.71 3291.2,18 -18,18"/>
<!-- 0 -->
<g id="node1" class="node">
<title>0</title>
<polygon fill="white" stroke="transparent" points="1228.6,-530.71 1174.6,-530.71 1174.6,-494.71 1228.6,-494.71 1228.6,-530.71"/>
<text text-anchor="middle" x="1201.6" y="-509.01" font-family="Helvetica,sans-Serif" font-size="14.00">0</text>
</g>
<!-- 1 -->
<g id="node2" class="node">
<title>1</title>
<polygon fill="#cc3d3d" stroke="black" points="1288.1,-457.71 1115.1,-457.71 1115.1,-379.71 1288.1,-379.71 1288.1,-457.71"/>
<text text-anchor="start" x="1148.1" y="-443.51" font-family="Helvetica,sans-Serif" font-weight="bold" font-size="14.00"> Class=good </text>
<text text-anchor="start" x="1250.1" y="-443.51" font-family="Helvetica,sans-Serif" font-size="14.00"> </text>
<text text-anchor="start" x="1123.1" y="-429.51" font-family="Helvetica,sans-Serif" font-size="14.00"> error: 0.881, n=1000 </text>
<text text-anchor="start" x="1146.6" y="-415.51" font-family="Helvetica,sans-Serif" font-size="14.00"> p: (0.30, 0.70) </text>
<text text-anchor="start" x="1162.1" y="-401.51" font-family="Helvetica,sans-Serif" font-size="14.00">&#45;&#45;&#45;&#45;&#45;&#45;&#45;&#45;&#45;&#45;&#45;&#45;&#45;&#45;&#45;</text>
<text text-anchor="start" x="1138.6" y="-387.51" font-family="Helvetica,sans-Serif" font-weight="bold" font-size="14.00">checking_status</text>
</g>
<!-- 0&#45;&gt;1 -->
<!-- 2 -->
<g id="node3" class="node">
<title>2</title>
<ellipse fill="#c5e544" stroke="black" cx="695.6" cy="-289.71" rx="109.7" ry="35.21"/>
<text text-anchor="start" x="642.1" y="-300.51" font-family="Helvetica,sans-Serif" font-weight="bold" font-size="14.00"> Class=good </text>
<text text-anchor="start" x="744.1" y="-300.51" font-family="Helvetica,sans-Serif" font-size="14.00"> </text>
<text text-anchor="start" x="626.1" y="-286.51" font-family="Helvetica,sans-Serif" font-size="14.00"> error: 0.764, n=63 </text>
<text text-anchor="start" x="640.6" y="-272.51" font-family="Helvetica,sans-Serif" font-size="14.00"> p: (0.22, 0.78) </text>
</g>
<!-- 1&#45;&gt;2 -->
<g id="edge2" class="edge">
<title>1:s&#45;&gt;2:n</title>
<path fill="none" stroke="black" d="M1201.6,-379.71C1201.6,-379.71 777.02,-335.24 705.71,-327.77"/>
<polygon fill="black" stroke="black" points="705.91,-324.27 695.6,-326.71 705.18,-331.23 705.91,-324.27"/>
<text text-anchor="middle" x="1008.6" y="-350.51" font-family="Helvetica,sans-Serif" font-size="14.00">&gt;=200</text>
</g>
<!-- 3 -->
<g id="node4" class="node">
<title>3</title>
<polygon fill="#c5e544" stroke="black" points="1041.6,-328.71 877.6,-328.71 877.6,-250.71 1041.6,-250.71 1041.6,-328.71"/>
<text text-anchor="start" x="906.1" y="-314.51" font-family="Helvetica,sans-Serif" font-weight="bold" font-size="14.00"> Class=good </text>
<text text-anchor="start" x="1008.1" y="-314.51" font-family="Helvetica,sans-Serif" font-size="14.00"> </text>
<text text-anchor="start" x="885.6" y="-300.51" font-family="Helvetica,sans-Serif" font-size="14.00"> error: 0.520, n=394 </text>
<text text-anchor="start" x="904.6" y="-286.51" font-family="Helvetica,sans-Serif" font-size="14.00"> p: (0.12, 0.88) </text>
<text text-anchor="start" x="941.1" y="-272.51" font-family="Helvetica,sans-Serif" font-size="14.00">&#45;&#45;&#45;&#45;&#45;&#45;&#45;</text>
<text text-anchor="start" x="927.6" y="-258.51" font-family="Helvetica,sans-Serif" font-weight="bold" font-size="14.00">purpose</text>
</g>
<!-- 1&#45;&gt;3 -->
<g id="edge3" class="edge">
<title>1:s&#45;&gt;3:n</title>
<path fill="none" stroke="black" d="M1201.6,-379.71C1201.6,-379.71 1014.66,-340.31 969.39,-330.77"/>
<polygon fill="black" stroke="black" points="970.11,-327.35 959.6,-328.71 968.66,-334.2 970.11,-327.35"/>
<text text-anchor="middle" x="1152.1" y="-350.51" font-family="Helvetica,sans-Serif" font-size="14.00">no checking</text>
</g>
<!-- 11 -->
<g id="node5" class="node">
<title>11</title>
<polygon fill="#c5e544" stroke="black" points="1852.6,-328.71 1676.6,-328.71 1676.6,-250.71 1852.6,-250.71 1852.6,-328.71"/>
<text text-anchor="start" x="1711.1" y="-314.51" font-family="Helvetica,sans-Serif" font-weight="bold" font-size="14.00"> Class=good </text>
<text text-anchor="start" x="1813.1" y="-314.51" font-family="Helvetica,sans-Serif" font-size="14.00"> </text>
<text text-anchor="start" x="1690.6" y="-300.51" font-family="Helvetica,sans-Serif" font-size="14.00"> error: 0.965, n=269 </text>
<text text-anchor="start" x="1709.6" y="-286.51" font-family="Helvetica,sans-Serif" font-size="14.00"> p: (0.39, 0.61) </text>
<text text-anchor="start" x="1717.1" y="-272.51" font-family="Helvetica,sans-Serif" font-size="14.00">&#45;&#45;&#45;&#45;&#45;&#45;&#45;&#45;&#45;&#45;&#45;&#45;&#45;&#45;&#45;&#45;&#45;&#45;</text>
<text text-anchor="start" x="1684.6" y="-258.51" font-family="Helvetica,sans-Serif" font-weight="bold" font-size="14.00">property_magnitude</text>
</g>
<!-- 1&#45;&gt;11 -->
<g id="edge4" class="edge">
<title>1:s&#45;&gt;11:n</title>
<path fill="none" stroke="black" d="M1201.6,-379.71C1201.6,-379.71 1678.04,-336.55 1754.35,-329.64"/>
<polygon fill="black" stroke="black" points="1754.96,-333.1 1764.6,-328.71 1754.33,-326.13 1754.96,-333.1"/>
<text text-anchor="middle" x="1591.6" y="-350.51" font-family="Helvetica,sans-Serif" font-size="14.00">0&lt;=X&lt;200</text>
</g>
<!-- 17 -->
<g id="node6" class="node">
<title>17</title>
<polygon fill="#c5e544" stroke="black" points="2687.6,-328.71 2523.6,-328.71 2523.6,-250.71 2687.6,-250.71 2687.6,-328.71"/>
<text text-anchor="start" x="2552.1" y="-314.51" font-family="Helvetica,sans-Serif" font-weight="bold" font-size="14.00"> Class=good </text>
<text text-anchor="start" x="2654.1" y="-314.51" font-family="Helvetica,sans-Serif" font-size="14.00"> </text>
<text text-anchor="start" x="2531.6" y="-300.51" font-family="Helvetica,sans-Serif" font-size="14.00"> error: 1.000, n=274 </text>
<text text-anchor="start" x="2550.6" y="-286.51" font-family="Helvetica,sans-Serif" font-size="14.00"> p: (0.49, 0.51) </text>
<text text-anchor="start" x="2568.6" y="-272.51" font-family="Helvetica,sans-Serif" font-size="14.00">&#45;&#45;&#45;&#45;&#45;&#45;&#45;&#45;&#45;&#45;&#45;&#45;&#45;&#45;</text>
<text text-anchor="start" x="2551.6" y="-258.51" font-family="Helvetica,sans-Serif" font-weight="bold" font-size="14.00">credit_history</text>
</g>
<!-- 1&#45;&gt;17 -->
<g id="edge5" class="edge">
<title>1:s&#45;&gt;17:n</title>
<path fill="none" stroke="black" d="M1201.6,-379.71C1201.6,-379.71 2469.23,-333.66 2595.5,-329.08"/>
<polygon fill="black" stroke="black" points="2595.74,-332.57 2605.6,-328.71 2595.48,-325.58 2595.74,-332.57"/>
<text text-anchor="middle" x="2082.6" y="-350.51" font-family="Helvetica,sans-Serif" font-size="14.00">&lt;0</text>
</g>
<!-- 4 -->
<g id="node7" class="node">
<title>4</title>
<ellipse fill="#3dcc76" stroke="black" cx="109.6" cy="-160.71" rx="109.7" ry="35.21"/>
<text text-anchor="start" x="56.1" y="-171.51" font-family="Helvetica,sans-Serif" font-weight="bold" font-size="14.00"> Class=good </text>
<text text-anchor="start" x="158.1" y="-171.51" font-family="Helvetica,sans-Serif" font-size="14.00"> </text>
<text text-anchor="start" x="40.1" y="-157.51" font-family="Helvetica,sans-Serif" font-size="14.00"> error: 0.616, n=59 </text>
<text text-anchor="start" x="54.6" y="-143.51" font-family="Helvetica,sans-Serif" font-size="14.00"> p: (0.15, 0.85) </text>
</g>
<!-- 3&#45;&gt;4 -->
<g id="edge6" class="edge">
<title>3:s&#45;&gt;4:n</title>
<path fill="none" stroke="black" d="M959.6,-250.71C959.6,-250.71 215.64,-204.32 119.74,-198.34"/>
<polygon fill="black" stroke="black" points="119.8,-194.84 109.6,-197.71 119.36,-201.83 119.8,-194.84"/>
<text text-anchor="middle" x="503.6" y="-221.51" font-family="Helvetica,sans-Serif" font-size="14.00">furniture/equipment</text>
</g>
<!-- 5 -->
<g id="node8" class="node">
<title>5</title>
<ellipse fill="#3dcc76" stroke="black" cx="407.6" cy="-160.71" rx="115.93" ry="35.21"/>
<text text-anchor="start" x="354.1" y="-171.51" font-family="Helvetica,sans-Serif" font-weight="bold" font-size="14.00"> Class=good </text>
<text text-anchor="start" x="456.1" y="-171.51" font-family="Helvetica,sans-Serif" font-size="14.00"> </text>
<text text-anchor="start" x="333.6" y="-157.51" font-family="Helvetica,sans-Serif" font-size="14.00"> error: 0.308, n=127 </text>
<text text-anchor="start" x="352.6" y="-143.51" font-family="Helvetica,sans-Serif" font-size="14.00"> p: (0.06, 0.94) </text>
</g>
<!-- 3&#45;&gt;5 -->
<g id="edge7" class="edge">
<title>3:s&#45;&gt;5:n</title>
<path fill="none" stroke="black" d="M959.6,-250.71C959.6,-250.71 492.47,-205.86 417.65,-198.68"/>
<polygon fill="black" stroke="black" points="417.89,-195.18 407.6,-197.71 417.22,-202.15 417.89,-195.18"/>
<text text-anchor="middle" x="746.6" y="-221.51" font-family="Helvetica,sans-Serif" font-size="14.00">radio/tv</text>
</g>
<!-- 6 -->
<g id="node9" class="node">
<title>6</title>
<polygon fill="#3dcc76" stroke="black" points="778.1,-199.71 595.1,-199.71 595.1,-121.71 778.1,-121.71 778.1,-199.71"/>
<text text-anchor="start" x="633.1" y="-185.51" font-family="Helvetica,sans-Serif" font-weight="bold" font-size="14.00"> Class=good </text>
<text text-anchor="start" x="735.1" y="-185.51" font-family="Helvetica,sans-Serif" font-size="14.00"> </text>
<text text-anchor="start" x="617.1" y="-171.51" font-family="Helvetica,sans-Serif" font-size="14.00"> error: 0.610, n=80 </text>
<text text-anchor="start" x="631.6" y="-157.51" font-family="Helvetica,sans-Serif" font-size="14.00"> p: (0.15, 0.85) </text>
<text text-anchor="start" x="636.6" y="-143.51" font-family="Helvetica,sans-Serif" font-size="14.00">&#45;&#45;&#45;&#45;&#45;&#45;&#45;&#45;&#45;&#45;&#45;&#45;&#45;&#45;&#45;&#45;&#45;&#45;&#45;</text>
<text text-anchor="start" x="603.1" y="-129.51" font-family="Helvetica,sans-Serif" font-weight="bold" font-size="14.00">other_payment_plans</text>
</g>
<!-- 3&#45;&gt;6 -->
<g id="edge8" class="edge">
<title>3:s&#45;&gt;6:n</title>
<path fill="none" stroke="black" d="M959.6,-250.71C959.6,-250.71 745.89,-210.79 696.64,-201.59"/>
<polygon fill="black" stroke="black" points="697.07,-198.11 686.6,-199.71 695.79,-204.99 697.07,-198.11"/>
<text text-anchor="middle" x="883.1" y="-221.51" font-family="Helvetica,sans-Serif" font-size="14.00">new car</text>
</g>
<!-- 8 -->
<g id="node10" class="node">
<title>8</title>
<ellipse fill="#3dcc76" stroke="black" cx="959.6" cy="-160.71" rx="109.7" ry="35.21"/>
<text text-anchor="start" x="906.1" y="-171.51" font-family="Helvetica,sans-Serif" font-weight="bold" font-size="14.00"> Class=good </text>
<text text-anchor="start" x="1008.1" y="-171.51" font-family="Helvetica,sans-Serif" font-size="14.00"> </text>
<text text-anchor="start" x="890.1" y="-157.51" font-family="Helvetica,sans-Serif" font-size="14.00"> error: 0.842, n=37 </text>
<text text-anchor="start" x="904.6" y="-143.51" font-family="Helvetica,sans-Serif" font-size="14.00"> p: (0.27, 0.73) </text>
</g>
<!-- 3&#45;&gt;8 -->
<g id="edge9" class="edge">
<title>3:s&#45;&gt;8:n</title>
<path fill="none" stroke="black" d="M959.6,-250.71C959.6,-250.71 959.6,-223.33 959.6,-207.93"/>
<polygon fill="black" stroke="black" points="963.1,-207.71 959.6,-197.71 956.1,-207.71 963.1,-207.71"/>
<text text-anchor="middle" x="990.6" y="-221.51" font-family="Helvetica,sans-Serif" font-size="14.00">business</text>
</g>
<!-- 9 -->
<g id="node11" class="node">
<title>9</title>
<polygon fill="#3dcc76" stroke="black" points="1324.1,-199.71 1141.1,-199.71 1141.1,-121.71 1324.1,-121.71 1324.1,-199.71"/>
<text text-anchor="start" x="1179.1" y="-185.51" font-family="Helvetica,sans-Serif" font-weight="bold" font-size="14.00"> Class=good </text>
<text text-anchor="start" x="1281.1" y="-185.51" font-family="Helvetica,sans-Serif" font-size="14.00"> </text>
<text text-anchor="start" x="1163.1" y="-171.51" font-family="Helvetica,sans-Serif" font-size="14.00"> error: 0.229, n=54 </text>
<text text-anchor="start" x="1177.6" y="-157.51" font-family="Helvetica,sans-Serif" font-size="14.00"> p: (0.04, 0.96) </text>
<text text-anchor="start" x="1182.6" y="-143.51" font-family="Helvetica,sans-Serif" font-size="14.00">&#45;&#45;&#45;&#45;&#45;&#45;&#45;&#45;&#45;&#45;&#45;&#45;&#45;&#45;&#45;&#45;&#45;&#45;&#45;</text>
<text text-anchor="start" x="1149.1" y="-129.51" font-family="Helvetica,sans-Serif" font-weight="bold" font-size="14.00">other_payment_plans</text>
</g>
<!-- 3&#45;&gt;9 -->
<g id="edge10" class="edge">
<title>3:s&#45;&gt;9:n</title>
<path fill="none" stroke="black" d="M959.6,-250.71C959.6,-250.71 1173.31,-210.79 1222.56,-201.59"/>
<polygon fill="black" stroke="black" points="1223.41,-204.99 1232.6,-199.71 1222.13,-198.11 1223.41,-204.99"/>
<text text-anchor="middle" x="1159.1" y="-221.51" font-family="Helvetica,sans-Serif" font-size="14.00">used car</text>
</g>
<!-- 12 -->
<g id="node14" class="node">
<title>12</title>
<ellipse fill="#3dcc76" stroke="black" cx="1505.6" cy="-160.71" rx="109.7" ry="35.21"/>
<text text-anchor="start" x="1452.1" y="-171.51" font-family="Helvetica,sans-Serif" font-weight="bold" font-size="14.00"> Class=good </text>
<text text-anchor="start" x="1554.1" y="-171.51" font-family="Helvetica,sans-Serif" font-size="14.00"> </text>
<text text-anchor="start" x="1436.1" y="-157.51" font-family="Helvetica,sans-Serif" font-size="14.00"> error: 0.748, n=75 </text>
<text text-anchor="start" x="1450.6" y="-143.51" font-family="Helvetica,sans-Serif" font-size="14.00"> p: (0.21, 0.79) </text>
</g>
<!-- 11&#45;&gt;12 -->
<g id="edge13" class="edge">
<title>11:s&#45;&gt;12:n</title>
<path fill="none" stroke="black" d="M1764.6,-250.71C1764.6,-250.71 1562.75,-209.4 1515.44,-199.72"/>
<polygon fill="black" stroke="black" points="1516.1,-196.29 1505.6,-197.71 1514.7,-203.14 1516.1,-196.29"/>
<text text-anchor="middle" x="1710.1" y="-221.51" font-family="Helvetica,sans-Serif" font-size="14.00">real estate</text>
</g>
<!-- 13 -->
<g id="node15" class="node">
<title>13</title>
<polygon fill="#3dcc76" stroke="black" points="1842.1,-199.71 1687.1,-199.71 1687.1,-121.71 1842.1,-121.71 1842.1,-199.71"/>
<text text-anchor="start" x="1711.1" y="-185.51" font-family="Helvetica,sans-Serif" font-weight="bold" font-size="14.00"> Class=good </text>
<text text-anchor="start" x="1813.1" y="-185.51" font-family="Helvetica,sans-Serif" font-size="14.00"> </text>
<text text-anchor="start" x="1695.1" y="-171.51" font-family="Helvetica,sans-Serif" font-size="14.00"> error: 0.972, n=92 </text>
<text text-anchor="start" x="1709.6" y="-157.51" font-family="Helvetica,sans-Serif" font-size="14.00"> p: (0.40, 0.60) </text>
<text text-anchor="start" x="1727.6" y="-143.51" font-family="Helvetica,sans-Serif" font-size="14.00">&#45;&#45;&#45;&#45;&#45;&#45;&#45;&#45;&#45;&#45;&#45;&#45;&#45;&#45;</text>
<text text-anchor="start" x="1706.6" y="-129.51" font-family="Helvetica,sans-Serif" font-weight="bold" font-size="14.00">savings_status</text>
</g>
<!-- 11&#45;&gt;13 -->
<g id="edge14" class="edge">
<title>11:s&#45;&gt;13:n</title>
<path fill="none" stroke="black" d="M1764.6,-250.71C1764.6,-250.71 1764.6,-224.93 1764.6,-210.03"/>
<polygon fill="black" stroke="black" points="1768.1,-209.71 1764.6,-199.71 1761.1,-209.71 1768.1,-209.71"/>
<text text-anchor="middle" x="1775.6" y="-221.51" font-family="Helvetica,sans-Serif" font-size="14.00">car</text>
</g>
<!-- 15 -->
<g id="node16" class="node">
<title>15</title>
<ellipse fill="#3dcc76" stroke="black" cx="2023.6" cy="-160.71" rx="109.7" ry="35.21"/>
<text text-anchor="start" x="1975.1" y="-171.51" font-family="Helvetica,sans-Serif" font-weight="bold" font-size="14.00"> Class=bad </text>
<text text-anchor="start" x="2067.1" y="-171.51" font-family="Helvetica,sans-Serif" font-size="14.00"> </text>
<text text-anchor="start" x="1954.1" y="-157.51" font-family="Helvetica,sans-Serif" font-size="14.00"> error: 0.973, n=47 </text>
<text text-anchor="start" x="1968.6" y="-143.51" font-family="Helvetica,sans-Serif" font-size="14.00"> p: (0.60, 0.40) </text>
</g>
<!-- 11&#45;&gt;15 -->
<g id="edge15" class="edge">
<title>11:s&#45;&gt;15:n</title>
<path fill="none" stroke="black" d="M1764.6,-250.71C1764.6,-250.71 1966.46,-209.4 2013.76,-199.72"/>
<polygon fill="black" stroke="black" points="2014.51,-203.14 2023.6,-197.71 2013.1,-196.29 2014.51,-203.14"/>
<text text-anchor="middle" x="1991.6" y="-221.51" font-family="Helvetica,sans-Serif" font-size="14.00">no known property</text>
</g>
<!-- 16 -->
<g id="node17" class="node">
<title>16</title>
<ellipse fill="#3dcc76" stroke="black" cx="2314.6" cy="-160.71" rx="109.7" ry="35.21"/>
<text text-anchor="start" x="2261.1" y="-171.51" font-family="Helvetica,sans-Serif" font-weight="bold" font-size="14.00"> Class=good </text>
<text text-anchor="start" x="2363.1" y="-171.51" font-family="Helvetica,sans-Serif" font-size="14.00"> </text>
<text text-anchor="start" x="2245.1" y="-157.51" font-family="Helvetica,sans-Serif" font-size="14.00"> error: 0.988, n=55 </text>
<text text-anchor="start" x="2259.6" y="-143.51" font-family="Helvetica,sans-Serif" font-size="14.00"> p: (0.44, 0.56) </text>
</g>
<!-- 11&#45;&gt;16 -->
<g id="edge16" class="edge">
<title>11:s&#45;&gt;16:n</title>
<path fill="none" stroke="black" d="M1764.6,-250.71C1764.6,-250.71 2230.04,-205.86 2304.59,-198.68"/>
<polygon fill="black" stroke="black" points="2304.98,-202.15 2314.6,-197.71 2304.31,-195.19 2304.98,-202.15"/>
<text text-anchor="middle" x="2221.6" y="-221.51" font-family="Helvetica,sans-Serif" font-size="14.00">life insurance</text>
</g>
<!-- 18 -->
<g id="node19" class="node">
<title>18</title>
<ellipse fill="#3dcc76" stroke="black" cx="2605.6" cy="-160.71" rx="109.7" ry="35.21"/>
<text text-anchor="start" x="2552.1" y="-171.51" font-family="Helvetica,sans-Serif" font-weight="bold" font-size="14.00"> Class=good </text>
<text text-anchor="start" x="2654.1" y="-171.51" font-family="Helvetica,sans-Serif" font-size="14.00"> </text>
<text text-anchor="start" x="2536.1" y="-157.51" font-family="Helvetica,sans-Serif" font-size="14.00"> error: 0.840, n=67 </text>
<text text-anchor="start" x="2550.6" y="-143.51" font-family="Helvetica,sans-Serif" font-size="14.00"> p: (0.27, 0.73) </text>
</g>
<!-- 17&#45;&gt;18 -->
<g id="edge18" class="edge">
<title>17:s&#45;&gt;18:n</title>
<path fill="none" stroke="black" d="M2605.6,-250.71C2605.6,-250.71 2605.6,-223.33 2605.6,-207.93"/>
<polygon fill="black" stroke="black" points="2609.1,-207.71 2605.6,-197.71 2602.1,-207.71 2609.1,-207.71"/>
<text text-anchor="middle" x="2687.6" y="-221.51" font-family="Helvetica,sans-Serif" font-size="14.00">critical/other existing credit</text>
</g>
<!-- 19 -->
<g id="node20" class="node">
<title>19</title>
<polygon fill="#3dcc76" stroke="black" points="2954.6,-199.71 2790.6,-199.71 2790.6,-121.71 2954.6,-121.71 2954.6,-199.71"/>
<text text-anchor="start" x="2824.1" y="-185.51" font-family="Helvetica,sans-Serif" font-weight="bold" font-size="14.00"> Class=bad </text>
<text text-anchor="start" x="2916.1" y="-185.51" font-family="Helvetica,sans-Serif" font-size="14.00"> </text>
<text text-anchor="start" x="2798.6" y="-171.51" font-family="Helvetica,sans-Serif" font-size="14.00"> error: 1.000, n=160 </text>
<text text-anchor="start" x="2817.6" y="-157.51" font-family="Helvetica,sans-Serif" font-size="14.00"> p: (0.51, 0.49) </text>
<text text-anchor="start" x="2854.1" y="-143.51" font-family="Helvetica,sans-Serif" font-size="14.00">&#45;&#45;&#45;&#45;&#45;&#45;&#45;</text>
<text text-anchor="start" x="2840.6" y="-129.51" font-family="Helvetica,sans-Serif" font-weight="bold" font-size="14.00">purpose</text>
</g>
<!-- 17&#45;&gt;19 -->
<g id="edge19" class="edge">
<title>17:s&#45;&gt;19:n</title>
<path fill="none" stroke="black" d="M2605.6,-250.71C2605.6,-250.71 2813.69,-210.96 2862.46,-201.65"/>
<polygon fill="black" stroke="black" points="2863.44,-205.02 2872.6,-199.71 2862.12,-198.15 2863.44,-205.02"/>
<text text-anchor="middle" x="2875.6" y="-221.51" font-family="Helvetica,sans-Serif" font-size="14.00">existing paid</text>
</g>
<!-- 7 -->
<g id="node12" class="node">
<title>7</title>
<ellipse fill="#4485e5" stroke="black" cx="686.6" cy="-35.36" rx="109.7" ry="35.21"/>
<text text-anchor="start" x="633.1" y="-46.16" font-family="Helvetica,sans-Serif" font-weight="bold" font-size="14.00"> Class=good </text>
<text text-anchor="start" x="735.1" y="-46.16" font-family="Helvetica,sans-Serif" font-size="14.00"> </text>
<text text-anchor="start" x="617.1" y="-32.16" font-family="Helvetica,sans-Serif" font-size="14.00"> error: 0.426, n=69 </text>
<text text-anchor="start" x="631.6" y="-18.16" font-family="Helvetica,sans-Serif" font-size="14.00"> p: (0.09, 0.91) </text>
</g>
<!-- 6&#45;&gt;7 -->
<g id="edge11" class="edge">
<title>6:s&#45;&gt;7:n</title>
<path fill="none" stroke="black" d="M686.6,-121.71C686.6,-121.71 686.6,-95.93 686.6,-81.03"/>
<polygon fill="black" stroke="black" points="690.1,-80.71 686.6,-70.71 683.1,-80.71 690.1,-80.71"/>
<text text-anchor="middle" x="704.1" y="-92.51" font-family="Helvetica,sans-Serif" font-size="14.00">none</text>
</g>
<!-- 10 -->
<g id="node13" class="node">
<title>10</title>
<ellipse fill="#4485e5" stroke="black" cx="1232.6" cy="-35.36" rx="109.7" ry="35.21"/>
<text text-anchor="start" x="1179.1" y="-46.16" font-family="Helvetica,sans-Serif" font-weight="bold" font-size="14.00"> Class=good </text>
<text text-anchor="start" x="1281.1" y="-46.16" font-family="Helvetica,sans-Serif" font-size="14.00"> </text>
<text text-anchor="start" x="1163.1" y="-32.16" font-family="Helvetica,sans-Serif" font-size="14.00"> error: 0.000, n=46 </text>
<text text-anchor="start" x="1177.6" y="-18.16" font-family="Helvetica,sans-Serif" font-size="14.00"> p: (0.00, 1.00) </text>
</g>
<!-- 9&#45;&gt;10 -->
<g id="edge12" class="edge">
<title>9:s&#45;&gt;10:n</title>
<path fill="none" stroke="black" d="M1232.6,-121.71C1232.6,-121.71 1232.6,-95.93 1232.6,-81.03"/>
<polygon fill="black" stroke="black" points="1236.1,-80.71 1232.6,-70.71 1229.1,-80.71 1236.1,-80.71"/>
<text text-anchor="middle" x="1250.1" y="-92.51" font-family="Helvetica,sans-Serif" font-size="14.00">none</text>
</g>
<!-- 14 -->
<g id="node18" class="node">
<title>14</title>
<ellipse fill="#4485e5" stroke="black" cx="1764.6" cy="-35.36" rx="109.7" ry="35.21"/>
<text text-anchor="start" x="1716.1" y="-46.16" font-family="Helvetica,sans-Serif" font-weight="bold" font-size="14.00"> Class=bad </text>
<text text-anchor="start" x="1808.1" y="-46.16" font-family="Helvetica,sans-Serif" font-size="14.00"> </text>
<text text-anchor="start" x="1695.1" y="-32.16" font-family="Helvetica,sans-Serif" font-size="14.00"> error: 0.999, n=52 </text>
<text text-anchor="start" x="1709.6" y="-18.16" font-family="Helvetica,sans-Serif" font-size="14.00"> p: (0.52, 0.48) </text>
</g>
<!-- 13&#45;&gt;14 -->
<g id="edge17" class="edge">
<title>13:s&#45;&gt;14:n</title>
<path fill="none" stroke="black" d="M1764.6,-121.71C1764.6,-121.71 1764.6,-95.93 1764.6,-81.03"/>
<polygon fill="black" stroke="black" points="1768.1,-80.71 1764.6,-70.71 1761.1,-80.71 1768.1,-80.71"/>
<text text-anchor="middle" x="1784.6" y="-92.51" font-family="Helvetica,sans-Serif" font-size="14.00">&lt;100</text>
</g>
<!-- 20 -->
<g id="node21" class="node">
<title>20</title>
<ellipse fill="#4485e5" stroke="black" cx="2581.6" cy="-35.36" rx="109.7" ry="35.21"/>
<text text-anchor="start" x="2528.1" y="-46.16" font-family="Helvetica,sans-Serif" font-weight="bold" font-size="14.00"> Class=good </text>
<text text-anchor="start" x="2630.1" y="-46.16" font-family="Helvetica,sans-Serif" font-size="14.00"> </text>
<text text-anchor="start" x="2512.1" y="-32.16" font-family="Helvetica,sans-Serif" font-size="14.00"> error: 0.956, n=45 </text>
<text text-anchor="start" x="2526.6" y="-18.16" font-family="Helvetica,sans-Serif" font-size="14.00"> p: (0.38, 0.62) </text>
</g>
<!-- 19&#45;&gt;20 -->
<g id="edge20" class="edge">
<title>19:s&#45;&gt;20:n</title>
<path fill="none" stroke="black" d="M2872.6,-121.71C2872.6,-121.71 2642.79,-81.43 2591.62,-72.47"/>
<polygon fill="black" stroke="black" points="2592.06,-68.99 2581.6,-70.71 2590.85,-75.88 2592.06,-68.99"/>
<text text-anchor="middle" x="2784.6" y="-92.51" font-family="Helvetica,sans-Serif" font-size="14.00">furniture/equipment</text>
</g>
<!-- 21 -->
<g id="node22" class="node">
<title>21</title>
<ellipse fill="#4485e5" stroke="black" cx="2872.6" cy="-35.36" rx="109.7" ry="35.21"/>
<text text-anchor="start" x="2824.1" y="-46.16" font-family="Helvetica,sans-Serif" font-weight="bold" font-size="14.00"> Class=bad </text>
<text text-anchor="start" x="2916.1" y="-46.16" font-family="Helvetica,sans-Serif" font-size="14.00"> </text>
<text text-anchor="start" x="2803.1" y="-32.16" font-family="Helvetica,sans-Serif" font-size="14.00"> error: 0.940, n=42 </text>
<text text-anchor="start" x="2817.6" y="-18.16" font-family="Helvetica,sans-Serif" font-size="14.00"> p: (0.64, 0.36) </text>
</g>
<!-- 19&#45;&gt;21 -->
<g id="edge21" class="edge">
<title>19:s&#45;&gt;21:n</title>
<path fill="none" stroke="black" d="M2872.6,-121.71C2872.6,-121.71 2872.6,-95.93 2872.6,-81.03"/>
<polygon fill="black" stroke="black" points="2876.1,-80.71 2872.6,-70.71 2869.1,-80.71 2876.1,-80.71"/>
<text text-anchor="middle" x="2900.1" y="-92.51" font-family="Helvetica,sans-Serif" font-size="14.00">new car</text>
</g>
<!-- 22 -->
<g id="node23" class="node">
<title>22</title>
<ellipse fill="#4485e5" stroke="black" cx="3163.6" cy="-35.36" rx="109.7" ry="35.21"/>
<text text-anchor="start" x="3115.1" y="-46.16" font-family="Helvetica,sans-Serif" font-weight="bold" font-size="14.00"> Class=bad </text>
<text text-anchor="start" x="3207.1" y="-46.16" font-family="Helvetica,sans-Serif" font-size="14.00"> </text>
<text text-anchor="start" x="3094.1" y="-32.16" font-family="Helvetica,sans-Serif" font-size="14.00"> error: 1.000, n=39 </text>
<text text-anchor="start" x="3108.6" y="-18.16" font-family="Helvetica,sans-Serif" font-size="14.00"> p: (0.51, 0.49) </text>
</g>
<!-- 19&#45;&gt;22 -->
<g id="edge22" class="edge">
<title>19:s&#45;&gt;22:n</title>
<path fill="none" stroke="black" d="M2872.6,-121.71C2872.6,-121.71 3102.42,-81.43 3153.58,-72.47"/>
<polygon fill="black" stroke="black" points="3154.36,-75.88 3163.6,-70.71 3153.15,-68.99 3154.36,-75.88"/>
<text text-anchor="middle" x="3079.6" y="-92.51" font-family="Helvetica,sans-Serif" font-size="14.00">radio/tv</text>
</g>
</g>
</svg>
