<?xml version="1.0" encoding="UTF-8" standalone="no"?>
<!DOCTYPE svg PUBLIC "-//W3C//DTD SVG 1.1//EN"
 "http://www.w3.org/Graphics/SVG/1.1/DTD/svg11.dtd">
<!-- Generated by graphviz version 2.43.0 (0)
 -->
<!-- Title: Tree Pages: 1 -->
<svg width="2280pt" height="696pt"
 viewBox="0.00 0.00 2280.20 695.71" xmlns="http://www.w3.org/2000/svg" xmlns:xlink="http://www.w3.org/1999/xlink">
<g id="graph0" class="graph" transform="scale(1 1) rotate(0) translate(18 677.71)">
<title>Tree</title>
<polygon fill="white" stroke="transparent" points="-18,18 -18,-677.71 2262.2,-677.71 2262.2,18 -18,18"/>
<!-- 0 -->
<g id="node1" class="node">
<title>0</title>
<polygon fill="white" stroke="transparent" points="1287.6,-659.71 1233.6,-659.71 1233.6,-623.71 1287.6,-623.71 1287.6,-659.71"/>
<text text-anchor="middle" x="1260.6" y="-638.01" font-family="Helvetica,sans-Serif" font-size="14.00">0</text>
</g>
<!-- 1 -->
<g id="node2" class="node">
<title>1</title>
<polygon fill="#cc3d3d" stroke="black" points="1342.6,-586.71 1178.6,-586.71 1178.6,-508.71 1342.6,-508.71 1342.6,-586.71"/>
<text text-anchor="start" x="1223.6" y="-572.51" font-family="Helvetica,sans-Serif" font-weight="bold" font-size="14.00"> Class=&#45; </text>
<text text-anchor="start" x="1292.6" y="-572.51" font-family="Helvetica,sans-Serif" font-size="14.00"> </text>
<text text-anchor="start" x="1186.6" y="-558.51" font-family="Helvetica,sans-Serif" font-size="14.00"> error: 0.991, n=690 </text>
<text text-anchor="start" x="1205.6" y="-544.51" font-family="Helvetica,sans-Serif" font-size="14.00"> p: (0.44, 0.56) </text>
<text text-anchor="start" x="1255.1" y="-530.51" font-family="Helvetica,sans-Serif" font-size="14.00">&#45;&#45;</text>
<text text-anchor="start" x="1250.1" y="-516.51" font-family="Helvetica,sans-Serif" font-weight="bold" font-size="14.00">A9</text>
</g>
<!-- 0&#45;&gt;1 -->
<!-- 2 -->
<g id="node3" class="node">
<title>2</title>
<polygon fill="#e5d544" stroke="black" points="936.6,-457.71 772.6,-457.71 772.6,-379.71 936.6,-379.71 936.6,-457.71"/>
<text text-anchor="start" x="817.6" y="-443.51" font-family="Helvetica,sans-Serif" font-weight="bold" font-size="14.00"> Class=&#45; </text>
<text text-anchor="start" x="886.6" y="-443.51" font-family="Helvetica,sans-Serif" font-size="14.00"> </text>
<text text-anchor="start" x="780.6" y="-429.51" font-family="Helvetica,sans-Serif" font-size="14.00"> error: 0.366, n=329 </text>
<text text-anchor="start" x="799.6" y="-415.51" font-family="Helvetica,sans-Serif" font-size="14.00"> p: (0.07, 0.93) </text>
<text text-anchor="start" x="849.1" y="-401.51" font-family="Helvetica,sans-Serif" font-size="14.00">&#45;&#45;</text>
<text text-anchor="start" x="844.1" y="-387.51" font-family="Helvetica,sans-Serif" font-weight="bold" font-size="14.00">A6</text>
</g>
<!-- 1&#45;&gt;2 -->
<g id="edge2" class="edge">
<title>1:s&#45;&gt;2:n</title>
<path fill="none" stroke="black" d="M1260.6,-508.71C1260.6,-508.71 927.16,-466.82 864.64,-458.97"/>
<polygon fill="black" stroke="black" points="864.96,-455.48 854.6,-457.71 864.09,-462.43 864.96,-455.48"/>
<text text-anchor="middle" x="1109.6" y="-479.51" font-family="Helvetica,sans-Serif" font-size="14.00">f</text>
</g>
<!-- 14 -->
<g id="node4" class="node">
<title>14</title>
<polygon fill="#e5d544" stroke="black" points="1750.6,-457.71 1586.6,-457.71 1586.6,-379.71 1750.6,-379.71 1750.6,-457.71"/>
<text text-anchor="start" x="1628.6" y="-443.51" font-family="Helvetica,sans-Serif" font-weight="bold" font-size="14.00"> Class=+ </text>
<text text-anchor="start" x="1703.6" y="-443.51" font-family="Helvetica,sans-Serif" font-size="14.00"> </text>
<text text-anchor="start" x="1594.6" y="-429.51" font-family="Helvetica,sans-Serif" font-size="14.00"> error: 0.748, n=361 </text>
<text text-anchor="start" x="1613.6" y="-415.51" font-family="Helvetica,sans-Serif" font-size="14.00"> p: (0.79, 0.21) </text>
<text text-anchor="start" x="1660.6" y="-401.51" font-family="Helvetica,sans-Serif" font-size="14.00">&#45;&#45;&#45;</text>
<text text-anchor="start" x="1653.1" y="-387.51" font-family="Helvetica,sans-Serif" font-weight="bold" font-size="14.00">A10</text>
</g>
<!-- 1&#45;&gt;14 -->
<g id="edge3" class="edge">
<title>1:s&#45;&gt;14:n</title>
<path fill="none" stroke="black" d="M1260.6,-508.71C1260.6,-508.71 1595.69,-466.82 1658.52,-458.97"/>
<polygon fill="black" stroke="black" points="1659.11,-462.42 1668.6,-457.71 1658.24,-455.48 1659.11,-462.42"/>
<text text-anchor="middle" x="1516.6" y="-479.51" font-family="Helvetica,sans-Serif" font-size="14.00">t</text>
</g>
<!-- 3 -->
<g id="node5" class="node">
<title>3</title>
<polygon fill="#59cc3d" stroke="black" points="227.1,-328.71 72.1,-328.71 72.1,-250.71 227.1,-250.71 227.1,-328.71"/>
<text text-anchor="start" x="112.6" y="-314.51" font-family="Helvetica,sans-Serif" font-weight="bold" font-size="14.00"> Class=&#45; </text>
<text text-anchor="start" x="181.6" y="-314.51" font-family="Helvetica,sans-Serif" font-size="14.00"> </text>
<text text-anchor="start" x="80.1" y="-300.51" font-family="Helvetica,sans-Serif" font-size="14.00"> error: 0.391, n=65 </text>
<text text-anchor="start" x="94.6" y="-286.51" font-family="Helvetica,sans-Serif" font-size="14.00"> p: (0.08, 0.92) </text>
<text text-anchor="start" x="144.1" y="-272.51" font-family="Helvetica,sans-Serif" font-size="14.00">&#45;&#45;</text>
<text text-anchor="start" x="139.1" y="-258.51" font-family="Helvetica,sans-Serif" font-weight="bold" font-size="14.00">A7</text>
</g>
<!-- 2&#45;&gt;3 -->
<g id="edge4" class="edge">
<title>2:s&#45;&gt;3:n</title>
<path fill="none" stroke="black" d="M854.6,-379.71C854.6,-379.71 246.54,-335.72 159.84,-329.45"/>
<polygon fill="black" stroke="black" points="159.83,-325.94 149.6,-328.71 159.32,-332.92 159.83,-325.94"/>
<text text-anchor="middle" x="532.6" y="-350.51" font-family="Helvetica,sans-Serif" font-size="14.00">c</text>
</g>
<!-- 6 -->
<g id="node6" class="node">
<title>6</title>
<polygon fill="#59cc3d" stroke="black" points="462.1,-328.71 307.1,-328.71 307.1,-250.71 462.1,-250.71 462.1,-328.71"/>
<text text-anchor="start" x="347.6" y="-314.51" font-family="Helvetica,sans-Serif" font-weight="bold" font-size="14.00"> Class=&#45; </text>
<text text-anchor="start" x="416.6" y="-314.51" font-family="Helvetica,sans-Serif" font-size="14.00"> </text>
<text text-anchor="start" x="315.1" y="-300.51" font-family="Helvetica,sans-Serif" font-size="14.00"> error: 0.206, n=31 </text>
<text text-anchor="start" x="329.6" y="-286.51" font-family="Helvetica,sans-Serif" font-size="14.00"> p: (0.03, 0.97) </text>
<text text-anchor="start" x="376.6" y="-272.51" font-family="Helvetica,sans-Serif" font-size="14.00">&#45;&#45;&#45;</text>
<text text-anchor="start" x="369.1" y="-258.51" font-family="Helvetica,sans-Serif" font-weight="bold" font-size="14.00">A14</text>
</g>
<!-- 2&#45;&gt;6 -->
<g id="edge5" class="edge">
<title>2:s&#45;&gt;6:n</title>
<path fill="none" stroke="black" d="M854.6,-379.71C854.6,-379.71 463.59,-337.28 394.86,-329.82"/>
<polygon fill="black" stroke="black" points="394.92,-326.31 384.6,-328.71 394.17,-333.27 394.92,-326.31"/>
<text text-anchor="middle" x="692.1" y="-350.51" font-family="Helvetica,sans-Serif" font-size="14.00">k</text>
</g>
<!-- 8 -->
<g id="node7" class="node">
<title>8</title>
<polygon fill="#59cc3d" stroke="black" points="705.1,-328.71 550.1,-328.71 550.1,-250.71 705.1,-250.71 705.1,-328.71"/>
<text text-anchor="start" x="590.6" y="-314.51" font-family="Helvetica,sans-Serif" font-weight="bold" font-size="14.00"> Class=&#45; </text>
<text text-anchor="start" x="659.6" y="-314.51" font-family="Helvetica,sans-Serif" font-size="14.00"> </text>
<text text-anchor="start" x="558.1" y="-300.51" font-family="Helvetica,sans-Serif" font-size="14.00"> error: 0.172, n=39 </text>
<text text-anchor="start" x="572.6" y="-286.51" font-family="Helvetica,sans-Serif" font-size="14.00"> p: (0.03, 0.97) </text>
<text text-anchor="start" x="622.1" y="-272.51" font-family="Helvetica,sans-Serif" font-size="14.00">&#45;&#45;</text>
<text text-anchor="start" x="617.1" y="-258.51" font-family="Helvetica,sans-Serif" font-weight="bold" font-size="14.00">A8</text>
</g>
<!-- 2&#45;&gt;8 -->
<g id="edge6" class="edge">
<title>2:s&#45;&gt;8:n</title>
<path fill="none" stroke="black" d="M854.6,-379.71C854.6,-379.71 681.58,-340.84 637.65,-330.97"/>
<polygon fill="black" stroke="black" points="638.13,-327.49 627.6,-328.71 636.59,-334.32 638.13,-327.49"/>
<text text-anchor="middle" x="770.6" y="-350.51" font-family="Helvetica,sans-Serif" font-size="14.00">i</text>
</g>
<!-- 10 -->
<g id="node8" class="node">
<title>10</title>
<polygon fill="#59cc3d" stroke="black" points="932.1,-328.71 777.1,-328.71 777.1,-250.71 932.1,-250.71 932.1,-328.71"/>
<text text-anchor="start" x="817.6" y="-314.51" font-family="Helvetica,sans-Serif" font-weight="bold" font-size="14.00"> Class=&#45; </text>
<text text-anchor="start" x="886.6" y="-314.51" font-family="Helvetica,sans-Serif" font-size="14.00"> </text>
<text text-anchor="start" x="785.1" y="-300.51" font-family="Helvetica,sans-Serif" font-size="14.00"> error: 0.165, n=41 </text>
<text text-anchor="start" x="799.6" y="-286.51" font-family="Helvetica,sans-Serif" font-size="14.00"> p: (0.02, 0.98) </text>
<text text-anchor="start" x="849.1" y="-272.51" font-family="Helvetica,sans-Serif" font-size="14.00">&#45;&#45;</text>
<text text-anchor="start" x="844.1" y="-258.51" font-family="Helvetica,sans-Serif" font-weight="bold" font-size="14.00">A4</text>
</g>
<!-- 2&#45;&gt;10 -->
<g id="edge7" class="edge">
<title>2:s&#45;&gt;10:n</title>
<path fill="none" stroke="black" d="M854.6,-379.71C854.6,-379.71 854.6,-353.93 854.6,-339.03"/>
<polygon fill="black" stroke="black" points="858.1,-338.71 854.6,-328.71 851.1,-338.71 858.1,-338.71"/>
<text text-anchor="middle" x="859.6" y="-350.51" font-family="Helvetica,sans-Serif" font-size="14.00">ff</text>
</g>
<!-- 12 -->
<g id="node9" class="node">
<title>12</title>
<ellipse fill="#59cc3d" stroke="black" cx="1113.6" cy="-289.71" rx="109.7" ry="35.21"/>
<text text-anchor="start" x="1076.6" y="-300.51" font-family="Helvetica,sans-Serif" font-weight="bold" font-size="14.00"> Class=&#45; </text>
<text text-anchor="start" x="1145.6" y="-300.51" font-family="Helvetica,sans-Serif" font-size="14.00"> </text>
<text text-anchor="start" x="1044.1" y="-286.51" font-family="Helvetica,sans-Serif" font-size="14.00"> error: 0.371, n=28 </text>
<text text-anchor="start" x="1058.6" y="-272.51" font-family="Helvetica,sans-Serif" font-size="14.00"> p: (0.07, 0.93) </text>
</g>
<!-- 2&#45;&gt;12 -->
<g id="edge8" class="edge">
<title>2:s&#45;&gt;12:n</title>
<path fill="none" stroke="black" d="M854.6,-379.71C854.6,-379.71 1056.46,-338.4 1103.76,-328.72"/>
<polygon fill="black" stroke="black" points="1104.51,-332.14 1113.6,-326.71 1103.1,-325.29 1104.51,-332.14"/>
<text text-anchor="middle" x="1021.6" y="-350.51" font-family="Helvetica,sans-Serif" font-size="14.00">w</text>
</g>
<!-- 13 -->
<g id="node10" class="node">
<title>13</title>
<ellipse fill="#59cc3d" stroke="black" cx="1404.6" cy="-289.71" rx="109.7" ry="35.21"/>
<text text-anchor="start" x="1367.6" y="-300.51" font-family="Helvetica,sans-Serif" font-weight="bold" font-size="14.00"> Class=&#45; </text>
<text text-anchor="start" x="1436.6" y="-300.51" font-family="Helvetica,sans-Serif" font-size="14.00"> </text>
<text text-anchor="start" x="1335.1" y="-286.51" font-family="Helvetica,sans-Serif" font-size="14.00"> error: 0.000, n=24 </text>
<text text-anchor="start" x="1349.6" y="-272.51" font-family="Helvetica,sans-Serif" font-size="14.00"> p: (0.00, 1.00) </text>
</g>
<!-- 2&#45;&gt;13 -->
<g id="edge9" class="edge">
<title>2:s&#45;&gt;13:n</title>
<path fill="none" stroke="black" d="M854.6,-379.71C854.6,-379.71 1320.04,-334.86 1394.59,-327.68"/>
<polygon fill="black" stroke="black" points="1394.98,-331.15 1404.6,-326.71 1394.31,-324.19 1394.98,-331.15"/>
<text text-anchor="middle" x="1202.1" y="-350.51" font-family="Helvetica,sans-Serif" font-size="14.00">aa</text>
</g>
<!-- 15 -->
<g id="node16" class="node">
<title>15</title>
<polygon fill="#59cc3d" stroke="black" points="1750.6,-328.71 1586.6,-328.71 1586.6,-250.71 1750.6,-250.71 1750.6,-328.71"/>
<text text-anchor="start" x="1628.6" y="-314.51" font-family="Helvetica,sans-Serif" font-weight="bold" font-size="14.00"> Class=+ </text>
<text text-anchor="start" x="1703.6" y="-314.51" font-family="Helvetica,sans-Serif" font-size="14.00"> </text>
<text text-anchor="start" x="1594.6" y="-300.51" font-family="Helvetica,sans-Serif" font-size="14.00"> error: 0.443, n=228 </text>
<text text-anchor="start" x="1613.6" y="-286.51" font-family="Helvetica,sans-Serif" font-size="14.00"> p: (0.91, 0.09) </text>
<text text-anchor="start" x="1663.1" y="-272.51" font-family="Helvetica,sans-Serif" font-size="14.00">&#45;&#45;</text>
<text text-anchor="start" x="1658.1" y="-258.51" font-family="Helvetica,sans-Serif" font-weight="bold" font-size="14.00">A6</text>
</g>
<!-- 14&#45;&gt;15 -->
<g id="edge15" class="edge">
<title>14:s&#45;&gt;15:n</title>
<path fill="none" stroke="black" d="M1668.6,-379.71C1668.6,-379.71 1668.6,-353.93 1668.6,-339.03"/>
<polygon fill="black" stroke="black" points="1672.1,-338.71 1668.6,-328.71 1665.1,-338.71 1672.1,-338.71"/>
<text text-anchor="middle" x="1671.6" y="-350.51" font-family="Helvetica,sans-Serif" font-size="14.00">t</text>
</g>
<!-- 20 -->
<g id="node17" class="node">
<title>20</title>
<polygon fill="#59cc3d" stroke="black" points="2101.6,-328.71 1937.6,-328.71 1937.6,-250.71 2101.6,-250.71 2101.6,-328.71"/>
<text text-anchor="start" x="1979.6" y="-314.51" font-family="Helvetica,sans-Serif" font-weight="bold" font-size="14.00"> Class=+ </text>
<text text-anchor="start" x="2054.6" y="-314.51" font-family="Helvetica,sans-Serif" font-size="14.00"> </text>
<text text-anchor="start" x="1945.6" y="-300.51" font-family="Helvetica,sans-Serif" font-size="14.00"> error: 0.982, n=133 </text>
<text text-anchor="start" x="1964.6" y="-286.51" font-family="Helvetica,sans-Serif" font-size="14.00"> p: (0.58, 0.42) </text>
<text text-anchor="start" x="2014.1" y="-272.51" font-family="Helvetica,sans-Serif" font-size="14.00">&#45;&#45;</text>
<text text-anchor="start" x="2009.1" y="-258.51" font-family="Helvetica,sans-Serif" font-weight="bold" font-size="14.00">A6</text>
</g>
<!-- 14&#45;&gt;20 -->
<g id="edge16" class="edge">
<title>14:s&#45;&gt;20:n</title>
<path fill="none" stroke="black" d="M1668.6,-379.71C1668.6,-379.71 1951.93,-338.54 2009.48,-330.18"/>
<polygon fill="black" stroke="black" points="2010.21,-333.61 2019.6,-328.71 2009.2,-326.69 2010.21,-333.61"/>
<text text-anchor="middle" x="1889.6" y="-350.51" font-family="Helvetica,sans-Serif" font-size="14.00">f</text>
</g>
<!-- 4 -->
<g id="node11" class="node">
<title>4</title>
<polygon fill="#44e5b5" stroke="black" points="187.1,-199.71 32.1,-199.71 32.1,-121.71 187.1,-121.71 187.1,-199.71"/>
<text text-anchor="start" x="72.6" y="-185.51" font-family="Helvetica,sans-Serif" font-weight="bold" font-size="14.00"> Class=&#45; </text>
<text text-anchor="start" x="141.6" y="-185.51" font-family="Helvetica,sans-Serif" font-size="14.00"> </text>
<text text-anchor="start" x="40.1" y="-171.51" font-family="Helvetica,sans-Serif" font-size="14.00"> error: 0.310, n=54 </text>
<text text-anchor="start" x="54.6" y="-157.51" font-family="Helvetica,sans-Serif" font-size="14.00"> p: (0.06, 0.94) </text>
<text text-anchor="start" x="104.1" y="-143.51" font-family="Helvetica,sans-Serif" font-size="14.00">&#45;&#45;</text>
<text text-anchor="start" x="99.1" y="-129.51" font-family="Helvetica,sans-Serif" font-weight="bold" font-size="14.00">A3</text>
</g>
<!-- 3&#45;&gt;4 -->
<g id="edge10" class="edge">
<title>3:s&#45;&gt;4:n</title>
<path fill="none" stroke="black" d="M149.6,-250.71C149.6,-250.71 127.1,-222.02 115.85,-207.68"/>
<polygon fill="black" stroke="black" points="118.53,-205.42 109.6,-199.71 113.02,-209.74 118.53,-205.42"/>
<text text-anchor="middle" x="139.1" y="-221.51" font-family="Helvetica,sans-Serif" font-size="14.00">v</text>
</g>
<!-- 7 -->
<g id="node13" class="node">
<title>7</title>
<ellipse fill="#44e5b5" stroke="black" cx="368.6" cy="-160.71" rx="109.7" ry="35.21"/>
<text text-anchor="start" x="331.6" y="-171.51" font-family="Helvetica,sans-Serif" font-weight="bold" font-size="14.00"> Class=&#45; </text>
<text text-anchor="start" x="400.6" y="-171.51" font-family="Helvetica,sans-Serif" font-size="14.00"> </text>
<text text-anchor="start" x="299.1" y="-157.51" font-family="Helvetica,sans-Serif" font-size="14.00"> error: 0.000, n=27 </text>
<text text-anchor="start" x="313.6" y="-143.51" font-family="Helvetica,sans-Serif" font-size="14.00"> p: (0.00, 1.00) </text>
</g>
<!-- 6&#45;&gt;7 -->
<g id="edge12" class="edge">
<title>6:s&#45;&gt;7:n</title>
<path fill="none" stroke="black" d="M384.6,-250.71C384.6,-250.71 376.16,-222.73 371.54,-207.43"/>
<polygon fill="black" stroke="black" points="374.84,-206.27 368.6,-197.71 368.14,-208.3 374.84,-206.27"/>
<text text-anchor="middle" x="392.6" y="-221.51" font-family="Helvetica,sans-Serif" font-size="14.00">&gt; 0</text>
</g>
<!-- 9 -->
<g id="node14" class="node">
<title>9</title>
<ellipse fill="#44e5b5" stroke="black" cx="659.6" cy="-160.71" rx="109.7" ry="35.21"/>
<text text-anchor="start" x="622.6" y="-171.51" font-family="Helvetica,sans-Serif" font-weight="bold" font-size="14.00"> Class=&#45; </text>
<text text-anchor="start" x="691.6" y="-171.51" font-family="Helvetica,sans-Serif" font-size="14.00"> </text>
<text text-anchor="start" x="590.1" y="-157.51" font-family="Helvetica,sans-Serif" font-size="14.00"> error: 0.000, n=32 </text>
<text text-anchor="start" x="604.6" y="-143.51" font-family="Helvetica,sans-Serif" font-size="14.00"> p: (0.00, 1.00) </text>
</g>
<!-- 8&#45;&gt;9 -->
<g id="edge13" class="edge">
<title>8:s&#45;&gt;9:n</title>
<path fill="none" stroke="black" d="M627.6,-250.71C627.6,-250.71 645.23,-221.52 654.32,-206.46"/>
<polygon fill="black" stroke="black" points="657.43,-208.08 659.6,-197.71 651.44,-204.46 657.43,-208.08"/>
<text text-anchor="middle" x="673.6" y="-221.51" font-family="Helvetica,sans-Serif" font-size="14.00">&lt;= 2.5</text>
</g>
<!-- 11 -->
<g id="node15" class="node">
<title>11</title>
<ellipse fill="#44e5b5" stroke="black" cx="950.6" cy="-160.71" rx="109.7" ry="35.21"/>
<text text-anchor="start" x="913.6" y="-171.51" font-family="Helvetica,sans-Serif" font-weight="bold" font-size="14.00"> Class=&#45; </text>
<text text-anchor="start" x="982.6" y="-171.51" font-family="Helvetica,sans-Serif" font-size="14.00"> </text>
<text text-anchor="start" x="881.1" y="-157.51" font-family="Helvetica,sans-Serif" font-size="14.00"> error: 0.000, n=25 </text>
<text text-anchor="start" x="895.6" y="-143.51" font-family="Helvetica,sans-Serif" font-size="14.00"> p: (0.00, 1.00) </text>
</g>
<!-- 10&#45;&gt;11 -->
<g id="edge14" class="edge">
<title>10:s&#45;&gt;11:n</title>
<path fill="none" stroke="black" d="M854.6,-250.71C854.6,-250.71 917.98,-215.72 941.74,-202.6"/>
<polygon fill="black" stroke="black" points="943.54,-205.61 950.6,-197.71 940.16,-199.48 943.54,-205.61"/>
<text text-anchor="middle" x="919.6" y="-221.51" font-family="Helvetica,sans-Serif" font-size="14.00">u</text>
</g>
<!-- 5 -->
<g id="node12" class="node">
<title>5</title>
<ellipse fill="#3d76cc" stroke="black" cx="109.6" cy="-35.36" rx="109.7" ry="35.21"/>
<text text-anchor="start" x="72.6" y="-46.16" font-family="Helvetica,sans-Serif" font-weight="bold" font-size="14.00"> Class=&#45; </text>
<text text-anchor="start" x="141.6" y="-46.16" font-family="Helvetica,sans-Serif" font-size="14.00"> </text>
<text text-anchor="start" x="40.1" y="-32.16" font-family="Helvetica,sans-Serif" font-size="14.00"> error: 0.000, n=38 </text>
<text text-anchor="start" x="54.6" y="-18.16" font-family="Helvetica,sans-Serif" font-size="14.00"> p: (0.00, 1.00) </text>
</g>
<!-- 4&#45;&gt;5 -->
<g id="edge11" class="edge">
<title>4:s&#45;&gt;5:n</title>
<path fill="none" stroke="black" d="M109.6,-121.71C109.6,-121.71 109.6,-95.93 109.6,-81.03"/>
<polygon fill="black" stroke="black" points="113.1,-80.71 109.6,-70.71 106.1,-80.71 113.1,-80.71"/>
<text text-anchor="middle" x="138.6" y="-92.51" font-family="Helvetica,sans-Serif" font-size="14.00">&gt; 0.705</text>
</g>
<!-- 16 -->
<g id="node18" class="node">
<title>16</title>
<ellipse fill="#44e5b5" stroke="black" cx="1325.6" cy="-160.71" rx="109.7" ry="35.21"/>
<text text-anchor="start" x="1285.6" y="-171.51" font-family="Helvetica,sans-Serif" font-weight="bold" font-size="14.00"> Class=+ </text>
<text text-anchor="start" x="1360.6" y="-171.51" font-family="Helvetica,sans-Serif" font-size="14.00"> </text>
<text text-anchor="start" x="1256.1" y="-157.51" font-family="Helvetica,sans-Serif" font-size="14.00"> error: 0.641, n=43 </text>
<text text-anchor="start" x="1270.6" y="-143.51" font-family="Helvetica,sans-Serif" font-size="14.00"> p: (0.84, 0.16) </text>
</g>
<!-- 15&#45;&gt;16 -->
<g id="edge17" class="edge">
<title>15:s&#45;&gt;16:n</title>
<path fill="none" stroke="black" d="M1668.6,-250.71C1668.6,-250.71 1391.74,-207.93 1335.5,-199.24"/>
<polygon fill="black" stroke="black" points="1336.02,-195.78 1325.6,-197.71 1334.95,-202.7 1336.02,-195.78"/>
<text text-anchor="middle" x="1553.6" y="-221.51" font-family="Helvetica,sans-Serif" font-size="14.00">q</text>
</g>
<!-- 17 -->
<g id="node19" class="node">
<title>17</title>
<polygon fill="#44e5b5" stroke="black" points="1662.1,-199.71 1507.1,-199.71 1507.1,-121.71 1662.1,-121.71 1662.1,-199.71"/>
<text text-anchor="start" x="1544.6" y="-185.51" font-family="Helvetica,sans-Serif" font-weight="bold" font-size="14.00"> Class=+ </text>
<text text-anchor="start" x="1619.6" y="-185.51" font-family="Helvetica,sans-Serif" font-size="14.00"> </text>
<text text-anchor="start" x="1515.1" y="-171.51" font-family="Helvetica,sans-Serif" font-size="14.00"> error: 0.342, n=47 </text>
<text text-anchor="start" x="1529.6" y="-157.51" font-family="Helvetica,sans-Serif" font-size="14.00"> p: (0.94, 0.06) </text>
<text text-anchor="start" x="1579.1" y="-143.51" font-family="Helvetica,sans-Serif" font-size="14.00">&#45;&#45;</text>
<text text-anchor="start" x="1574.1" y="-129.51" font-family="Helvetica,sans-Serif" font-weight="bold" font-size="14.00">A8</text>
</g>
<!-- 15&#45;&gt;17 -->
<g id="edge18" class="edge">
<title>15:s&#45;&gt;17:n</title>
<path fill="none" stroke="black" d="M1668.6,-250.71C1668.6,-250.71 1614.74,-218.01 1593.27,-204.98"/>
<polygon fill="black" stroke="black" points="1594.97,-201.91 1584.6,-199.71 1591.33,-207.89 1594.97,-201.91"/>
<text text-anchor="middle" x="1640.6" y="-221.51" font-family="Helvetica,sans-Serif" font-size="14.00">c</text>
</g>
<!-- 19 -->
<g id="node20" class="node">
<title>19</title>
<ellipse fill="#44e5b5" stroke="black" cx="1843.6" cy="-160.71" rx="109.7" ry="35.21"/>
<text text-anchor="start" x="1803.6" y="-171.51" font-family="Helvetica,sans-Serif" font-weight="bold" font-size="14.00"> Class=+ </text>
<text text-anchor="start" x="1878.6" y="-171.51" font-family="Helvetica,sans-Serif" font-size="14.00"> </text>
<text text-anchor="start" x="1774.1" y="-157.51" font-family="Helvetica,sans-Serif" font-size="14.00"> error: 0.000, n=24 </text>
<text text-anchor="start" x="1788.6" y="-143.51" font-family="Helvetica,sans-Serif" font-size="14.00"> p: (1.00, 0.00) </text>
</g>
<!-- 15&#45;&gt;19 -->
<g id="edge19" class="edge">
<title>15:s&#45;&gt;19:n</title>
<path fill="none" stroke="black" d="M1668.6,-250.71C1668.6,-250.71 1797.26,-211.75 1833.94,-200.64"/>
<polygon fill="black" stroke="black" points="1835.05,-203.96 1843.6,-197.71 1833.02,-197.26 1835.05,-203.96"/>
<text text-anchor="middle" x="1782.1" y="-221.51" font-family="Helvetica,sans-Serif" font-size="14.00">x</text>
</g>
<!-- 21 -->
<g id="node22" class="node">
<title>21</title>
<ellipse fill="#44e5b5" stroke="black" cx="2134.6" cy="-160.71" rx="109.7" ry="35.21"/>
<text text-anchor="start" x="2094.6" y="-171.51" font-family="Helvetica,sans-Serif" font-weight="bold" font-size="14.00"> Class=+ </text>
<text text-anchor="start" x="2169.6" y="-171.51" font-family="Helvetica,sans-Serif" font-size="14.00"> </text>
<text text-anchor="start" x="2065.1" y="-157.51" font-family="Helvetica,sans-Serif" font-size="14.00"> error: 0.999, n=25 </text>
<text text-anchor="start" x="2079.6" y="-143.51" font-family="Helvetica,sans-Serif" font-size="14.00"> p: (0.52, 0.48) </text>
</g>
<!-- 20&#45;&gt;21 -->
<g id="edge21" class="edge">
<title>20:s&#45;&gt;21:n</title>
<path fill="none" stroke="black" d="M2019.6,-250.71C2019.6,-250.71 2097.73,-214.71 2125.19,-202.05"/>
<polygon fill="black" stroke="black" points="2126.98,-205.07 2134.6,-197.71 2124.05,-198.72 2126.98,-205.07"/>
<text text-anchor="middle" x="2095.6" y="-221.51" font-family="Helvetica,sans-Serif" font-size="14.00">c</text>
</g>
<!-- 18 -->
<g id="node21" class="node">
<title>18</title>
<ellipse fill="#3d76cc" stroke="black" cx="1584.6" cy="-35.36" rx="109.7" ry="35.21"/>
<text text-anchor="start" x="1544.6" y="-46.16" font-family="Helvetica,sans-Serif" font-weight="bold" font-size="14.00"> Class=+ </text>
<text text-anchor="start" x="1619.6" y="-46.16" font-family="Helvetica,sans-Serif" font-size="14.00"> </text>
<text text-anchor="start" x="1515.1" y="-32.16" font-family="Helvetica,sans-Serif" font-size="14.00"> error: 0.000, n=34 </text>
<text text-anchor="start" x="1529.6" y="-18.16" font-family="Helvetica,sans-Serif" font-size="14.00"> p: (1.00, 0.00) </text>
</g>
<!-- 17&#45;&gt;18 -->
<g id="edge20" class="edge">
<title>17:s&#45;&gt;18:n</title>
<path fill="none" stroke="black" d="M1584.6,-121.71C1584.6,-121.71 1584.6,-95.93 1584.6,-81.03"/>
<polygon fill="black" stroke="black" points="1588.1,-80.71 1584.6,-70.71 1581.1,-80.71 1588.1,-80.71"/>
<text text-anchor="middle" x="1609.1" y="-92.51" font-family="Helvetica,sans-Serif" font-size="14.00">&gt; 1.46</text>
</g>
</g>
</svg>
