<?xml version="1.0" encoding="UTF-8" standalone="no"?>
<!DOCTYPE svg PUBLIC "-//W3C//DTD SVG 1.1//EN"
 "http://www.w3.org/Graphics/SVG/1.1/DTD/svg11.dtd">
<!-- Generated by graphviz version 2.43.0 (0)
 -->
<!-- Title: Tree Pages: 1 -->
<svg width="915pt" height="567pt"
 viewBox="0.00 0.00 915.02 566.71" xmlns="http://www.w3.org/2000/svg" xmlns:xlink="http://www.w3.org/1999/xlink">
<g id="graph0" class="graph" transform="scale(1 1) rotate(0) translate(18 548.71)">
<title>Tree</title>
<polygon fill="white" stroke="transparent" points="-18,18 -18,-548.71 897.02,-548.71 897.02,18 -18,18"/>
<!-- 0 -->
<g id="node1" class="node">
<title>0</title>
<polygon fill="white" stroke="transparent" points="227.69,-530.71 173.69,-530.71 173.69,-494.71 227.69,-494.71 227.69,-530.71"/>
<text text-anchor="middle" x="200.69" y="-509.01" font-family="Helvetica,sans-Serif" font-size="14.00">0</text>
</g>
<!-- 1 -->
<g id="node2" class="node">
<title>1</title>
<polygon fill="#cc3d3d" stroke="black" points="291.69,-457.71 109.69,-457.71 109.69,-379.71 291.69,-379.71 291.69,-457.71"/>
<text text-anchor="start" x="141.19" y="-443.51" font-family="Helvetica,sans-Serif" font-weight="bold" font-size="14.00"> Class=DOWN </text>
<text text-anchor="start" x="255.19" y="-443.51" font-family="Helvetica,sans-Serif" font-size="14.00"> </text>
<text text-anchor="start" x="117.69" y="-429.51" font-family="Helvetica,sans-Serif" font-size="14.00"> error: 0.984, n=45312 </text>
<text text-anchor="start" x="145.69" y="-415.51" font-family="Helvetica,sans-Serif" font-size="14.00"> p: (0.58, 0.42) </text>
<text text-anchor="start" x="179.19" y="-401.51" font-family="Helvetica,sans-Serif" font-size="14.00">&#45;&#45;&#45;&#45;&#45;&#45;&#45;&#45;</text>
<text text-anchor="start" x="165.69" y="-387.51" font-family="Helvetica,sans-Serif" font-weight="bold" font-size="14.00">nswprice</text>
</g>
<!-- 0&#45;&gt;1 -->
<!-- 2 -->
<g id="node3" class="node">
<title>2</title>
<ellipse fill="#c5e544" stroke="black" cx="128.69" cy="-289.71" rx="128.89" ry="35.21"/>
<text text-anchor="start" x="83.69" y="-300.51" font-family="Helvetica,sans-Serif" font-weight="bold" font-size="14.00"> Class=UP </text>
<text text-anchor="start" x="168.69" y="-300.51" font-family="Helvetica,sans-Serif" font-size="14.00"> </text>
<text text-anchor="start" x="45.69" y="-286.51" font-family="Helvetica,sans-Serif" font-size="14.00"> error: 0.577, n=10099 </text>
<text text-anchor="start" x="73.69" y="-272.51" font-family="Helvetica,sans-Serif" font-size="14.00"> p: (0.14, 0.86) </text>
</g>
<!-- 1&#45;&gt;2 -->
<g id="edge2" class="edge">
<title>1:s&#45;&gt;2:n</title>
<path fill="none" stroke="black" d="M200.69,-379.71C200.69,-379.71 155.86,-346.09 136.95,-331.91"/>
<polygon fill="black" stroke="black" points="138.79,-328.91 128.69,-325.71 134.59,-334.51 138.79,-328.91"/>
<text text-anchor="middle" x="209.19" y="-350.51" font-family="Helvetica,sans-Serif" font-size="14.00">&gt; 0.0756</text>
</g>
<!-- 3 -->
<g id="node4" class="node">
<title>3</title>
<polygon fill="#c5e544" stroke="black" points="511.69,-328.71 329.69,-328.71 329.69,-250.71 511.69,-250.71 511.69,-328.71"/>
<text text-anchor="start" x="361.19" y="-314.51" font-family="Helvetica,sans-Serif" font-weight="bold" font-size="14.00"> Class=DOWN </text>
<text text-anchor="start" x="475.19" y="-314.51" font-family="Helvetica,sans-Serif" font-size="14.00"> </text>
<text text-anchor="start" x="337.69" y="-300.51" font-family="Helvetica,sans-Serif" font-size="14.00"> error: 0.880, n=35213 </text>
<text text-anchor="start" x="365.69" y="-286.51" font-family="Helvetica,sans-Serif" font-size="14.00"> p: (0.70, 0.30) </text>
<text text-anchor="start" x="396.69" y="-272.51" font-family="Helvetica,sans-Serif" font-size="14.00">&#45;&#45;&#45;&#45;&#45;&#45;&#45;&#45;&#45;</text>
<text text-anchor="start" x="373.69" y="-258.51" font-family="Helvetica,sans-Serif" font-weight="bold" font-size="14.00">nswdemand</text>
</g>
<!-- 1&#45;&gt;3 -->
<g id="edge3" class="edge">
<title>1:s&#45;&gt;3:n</title>
<path fill="none" stroke="black" d="M200.69,-379.71C200.69,-379.71 367.63,-341.01 410.67,-331.03"/>
<polygon fill="black" stroke="black" points="411.74,-334.38 420.69,-328.71 410.16,-327.56 411.74,-334.38"/>
<text text-anchor="middle" x="377.19" y="-350.51" font-family="Helvetica,sans-Serif" font-size="14.00">&lt;= 0.0756</text>
</g>
<!-- 4 -->
<g id="node5" class="node">
<title>4</title>
<ellipse fill="#3dcc76" stroke="black" cx="310.69" cy="-160.71" rx="122.16" ry="35.21"/>
<text text-anchor="start" x="251.19" y="-171.51" font-family="Helvetica,sans-Serif" font-weight="bold" font-size="14.00"> Class=DOWN </text>
<text text-anchor="start" x="365.19" y="-171.51" font-family="Helvetica,sans-Serif" font-size="14.00"> </text>
<text text-anchor="start" x="232.19" y="-157.51" font-family="Helvetica,sans-Serif" font-size="14.00"> error: 0.428, n=6395 </text>
<text text-anchor="start" x="255.69" y="-143.51" font-family="Helvetica,sans-Serif" font-size="14.00"> p: (0.91, 0.09) </text>
</g>
<!-- 3&#45;&gt;4 -->
<g id="edge4" class="edge">
<title>3:s&#45;&gt;4:n</title>
<path fill="none" stroke="black" d="M420.69,-250.71C420.69,-250.71 346.67,-215.05 320.07,-202.23"/>
<polygon fill="black" stroke="black" points="321.22,-198.9 310.69,-197.71 318.18,-205.2 321.22,-198.9"/>
<text text-anchor="middle" x="401.19" y="-221.51" font-family="Helvetica,sans-Serif" font-size="14.00">&lt;= 0.2276</text>
</g>
<!-- 5 -->
<g id="node6" class="node">
<title>5</title>
<polygon fill="#3dcc76" stroke="black" points="686.69,-199.71 504.69,-199.71 504.69,-121.71 686.69,-121.71 686.69,-199.71"/>
<text text-anchor="start" x="536.19" y="-185.51" font-family="Helvetica,sans-Serif" font-weight="bold" font-size="14.00"> Class=DOWN </text>
<text text-anchor="start" x="650.19" y="-185.51" font-family="Helvetica,sans-Serif" font-size="14.00"> </text>
<text text-anchor="start" x="512.69" y="-171.51" font-family="Helvetica,sans-Serif" font-size="14.00"> error: 0.930, n=28818 </text>
<text text-anchor="start" x="540.69" y="-157.51" font-family="Helvetica,sans-Serif" font-size="14.00"> p: (0.65, 0.35) </text>
<text text-anchor="start" x="574.19" y="-143.51" font-family="Helvetica,sans-Serif" font-size="14.00">&#45;&#45;&#45;&#45;&#45;&#45;&#45;&#45;</text>
<text text-anchor="start" x="560.69" y="-129.51" font-family="Helvetica,sans-Serif" font-weight="bold" font-size="14.00">nswprice</text>
</g>
<!-- 3&#45;&gt;5 -->
<g id="edge5" class="edge">
<title>3:s&#45;&gt;5:n</title>
<path fill="none" stroke="black" d="M420.69,-250.71C420.69,-250.71 549.35,-213.22 586.04,-202.53"/>
<polygon fill="black" stroke="black" points="587.07,-205.87 595.69,-199.71 585.11,-199.15 587.07,-205.87"/>
<text text-anchor="middle" x="563.19" y="-221.51" font-family="Helvetica,sans-Serif" font-size="14.00">&gt; 0.2276</text>
</g>
<!-- 6 -->
<g id="node7" class="node">
<title>6</title>
<ellipse fill="#4485e5" stroke="black" cx="433.69" cy="-35.36" rx="128.89" ry="35.21"/>
<text text-anchor="start" x="374.19" y="-46.16" font-family="Helvetica,sans-Serif" font-weight="bold" font-size="14.00"> Class=DOWN </text>
<text text-anchor="start" x="488.19" y="-46.16" font-family="Helvetica,sans-Serif" font-size="14.00"> </text>
<text text-anchor="start" x="350.69" y="-32.16" font-family="Helvetica,sans-Serif" font-size="14.00"> error: 0.876, n=23953 </text>
<text text-anchor="start" x="378.69" y="-18.16" font-family="Helvetica,sans-Serif" font-size="14.00"> p: (0.70, 0.30) </text>
</g>
<!-- 5&#45;&gt;6 -->
<g id="edge6" class="edge">
<title>5:s&#45;&gt;6:n</title>
<path fill="none" stroke="black" d="M595.69,-121.71C595.69,-121.71 478.22,-84.73 443.34,-73.75"/>
<polygon fill="black" stroke="black" points="444.28,-70.38 433.69,-70.71 442.18,-77.05 444.28,-70.38"/>
<text text-anchor="middle" x="578.69" y="-92.51" font-family="Helvetica,sans-Serif" font-size="14.00">&lt;= 0.06161</text>
</g>
<!-- 7 -->
<g id="node8" class="node">
<title>7</title>
<ellipse fill="#4485e5" stroke="black" cx="756.69" cy="-35.36" rx="122.16" ry="35.21"/>
<text text-anchor="start" x="711.69" y="-46.16" font-family="Helvetica,sans-Serif" font-weight="bold" font-size="14.00"> Class=UP </text>
<text text-anchor="start" x="796.69" y="-46.16" font-family="Helvetica,sans-Serif" font-size="14.00"> </text>
<text text-anchor="start" x="678.19" y="-32.16" font-family="Helvetica,sans-Serif" font-size="14.00"> error: 0.976, n=4865 </text>
<text text-anchor="start" x="701.69" y="-18.16" font-family="Helvetica,sans-Serif" font-size="14.00"> p: (0.41, 0.59) </text>
</g>
<!-- 5&#45;&gt;7 -->
<g id="edge7" class="edge">
<title>5:s&#45;&gt;7:n</title>
<path fill="none" stroke="black" d="M595.69,-121.71C595.69,-121.71 712.44,-84.73 747.1,-73.75"/>
<polygon fill="black" stroke="black" points="748.22,-77.07 756.69,-70.71 746.1,-70.39 748.22,-77.07"/>
<text text-anchor="middle" x="732.69" y="-92.51" font-family="Helvetica,sans-Serif" font-size="14.00">&gt; 0.06161</text>
</g>
</g>
</svg>
