<?xml version="1.0" encoding="UTF-8" standalone="no"?>
<!DOCTYPE svg PUBLIC "-//W3C//DTD SVG 1.1//EN"
 "http://www.w3.org/Graphics/SVG/1.1/DTD/svg11.dtd">
<!-- Generated by graphviz version 2.43.0 (0)
 -->
<!-- Title: Tree Pages: 1 -->
<svg width="4092pt" height="1083pt"
 viewBox="0.00 0.00 4091.72 1082.71" xmlns="http://www.w3.org/2000/svg" xmlns:xlink="http://www.w3.org/1999/xlink">
<g id="graph0" class="graph" transform="scale(1 1) rotate(0) translate(18 1064.71)">
<title>Tree</title>
<polygon fill="white" stroke="transparent" points="-18,18 -18,-1064.71 4073.72,-1064.71 4073.72,18 -18,18"/>
<!-- 0 -->
<g id="node1" class="node">
<title>0</title>
<polygon fill="white" stroke="transparent" points="2383.36,-1046.71 2329.36,-1046.71 2329.36,-1010.71 2383.36,-1010.71 2383.36,-1046.71"/>
<text text-anchor="middle" x="2356.36" y="-1025.01" font-family="Helvetica,sans-Serif" font-size="14.00">0</text>
</g>
<!-- 1 -->
<g id="node2" class="node">
<title>1</title>
<polygon fill="#cc3d3d" stroke="black" points="2480.36,-973.71 2232.36,-973.71 2232.36,-895.71 2480.36,-895.71 2480.36,-973.71"/>
<text text-anchor="start" x="2317.36" y="-959.51" font-family="Helvetica,sans-Serif" font-weight="bold" font-size="14.00"> Class=S </text>
<text text-anchor="start" x="2390.36" y="-959.51" font-family="Helvetica,sans-Serif" font-size="14.00"> </text>
<text text-anchor="start" x="2277.86" y="-945.51" font-family="Helvetica,sans-Serif" font-size="14.00"> error: 0.945, n=9873 </text>
<text text-anchor="start" x="2240.36" y="-931.51" font-family="Helvetica,sans-Serif" font-size="14.00"> p: (0.28, 0.10, 0.21, 0.11, 0.30) </text>
<text text-anchor="start" x="2348.36" y="-917.51" font-family="Helvetica,sans-Serif" font-size="14.00">&#45;&#45;&#45;</text>
<text text-anchor="start" x="2340.86" y="-903.51" font-family="Helvetica,sans-Serif" font-weight="bold" font-size="14.00">X28</text>
</g>
<!-- 0&#45;&gt;1 -->
<!-- 2 -->
<g id="node3" class="node">
<title>2</title>
<polygon fill="#e59744" stroke="black" points="2295.36,-844.71 2047.36,-844.71 2047.36,-766.71 2295.36,-766.71 2295.36,-844.71"/>
<text text-anchor="start" x="2132.36" y="-830.51" font-family="Helvetica,sans-Serif" font-weight="bold" font-size="14.00"> Class=S </text>
<text text-anchor="start" x="2205.36" y="-830.51" font-family="Helvetica,sans-Serif" font-size="14.00"> </text>
<text text-anchor="start" x="2092.86" y="-816.51" font-family="Helvetica,sans-Serif" font-size="14.00"> error: 0.859, n=4921 </text>
<text text-anchor="start" x="2055.36" y="-802.51" font-family="Helvetica,sans-Serif" font-size="14.00"> p: (0.09, 0.05, 0.26, 0.16, 0.43) </text>
<text text-anchor="start" x="2165.86" y="-788.51" font-family="Helvetica,sans-Serif" font-size="14.00">&#45;&#45;</text>
<text text-anchor="start" x="2160.86" y="-774.51" font-family="Helvetica,sans-Serif" font-weight="bold" font-size="14.00">X5</text>
</g>
<!-- 1&#45;&gt;2 -->
<g id="edge2" class="edge">
<title>1:s&#45;&gt;2:n</title>
<path fill="none" stroke="black" d="M2356.36,-895.71C2356.36,-895.71 2219.11,-857.87 2181.05,-847.38"/>
<polygon fill="black" stroke="black" points="2181.93,-843.99 2171.36,-844.71 2180.07,-850.74 2181.93,-843.99"/>
<text text-anchor="middle" x="2324.36" y="-866.51" font-family="Helvetica,sans-Serif" font-size="14.00">&gt; 0.00506</text>
</g>
<!-- 22 -->
<g id="node4" class="node">
<title>22</title>
<polygon fill="#e59744" stroke="black" points="2666.36,-844.71 2418.36,-844.71 2418.36,-766.71 2666.36,-766.71 2666.36,-844.71"/>
<text text-anchor="start" x="2502.86" y="-830.51" font-family="Helvetica,sans-Serif" font-weight="bold" font-size="14.00"> Class=D </text>
<text text-anchor="start" x="2576.86" y="-830.51" font-family="Helvetica,sans-Serif" font-size="14.00"> </text>
<text text-anchor="start" x="2463.86" y="-816.51" font-family="Helvetica,sans-Serif" font-size="14.00"> error: 0.872, n=4952 </text>
<text text-anchor="start" x="2426.36" y="-802.51" font-family="Helvetica,sans-Serif" font-size="14.00"> p: (0.46, 0.15, 0.16, 0.06, 0.17) </text>
<text text-anchor="start" x="2534.36" y="-788.51" font-family="Helvetica,sans-Serif" font-size="14.00">&#45;&#45;&#45;</text>
<text text-anchor="start" x="2526.86" y="-774.51" font-family="Helvetica,sans-Serif" font-weight="bold" font-size="14.00">X26</text>
</g>
<!-- 1&#45;&gt;22 -->
<g id="edge3" class="edge">
<title>1:s&#45;&gt;22:n</title>
<path fill="none" stroke="black" d="M2356.36,-895.71C2356.36,-895.71 2494.35,-857.87 2532.62,-847.38"/>
<polygon fill="black" stroke="black" points="2533.64,-850.73 2542.36,-844.71 2531.79,-843.98 2533.64,-850.73"/>
<text text-anchor="middle" x="2516.36" y="-866.51" font-family="Helvetica,sans-Serif" font-size="14.00">&lt;= 0.00506</text>
</g>
<!-- 3 -->
<g id="node5" class="node">
<title>3</title>
<polygon fill="#c8cc3d" stroke="black" points="1865.36,-715.71 1617.36,-715.71 1617.36,-637.71 1865.36,-637.71 1865.36,-715.71"/>
<text text-anchor="start" x="1702.36" y="-701.51" font-family="Helvetica,sans-Serif" font-weight="bold" font-size="14.00"> Class=S </text>
<text text-anchor="start" x="1775.36" y="-701.51" font-family="Helvetica,sans-Serif" font-size="14.00"> </text>
<text text-anchor="start" x="1662.86" y="-687.51" font-family="Helvetica,sans-Serif" font-size="14.00"> error: 0.901, n=3690 </text>
<text text-anchor="start" x="1625.36" y="-673.51" font-family="Helvetica,sans-Serif" font-size="14.00"> p: (0.12, 0.07, 0.21, 0.20, 0.40) </text>
<text text-anchor="start" x="1733.36" y="-659.51" font-family="Helvetica,sans-Serif" font-size="14.00">&#45;&#45;&#45;</text>
<text text-anchor="start" x="1725.86" y="-645.51" font-family="Helvetica,sans-Serif" font-weight="bold" font-size="14.00">X11</text>
</g>
<!-- 2&#45;&gt;3 -->
<g id="edge4" class="edge">
<title>2:s&#45;&gt;3:n</title>
<path fill="none" stroke="black" d="M2171.36,-766.71C2171.36,-766.71 1816.68,-724.64 1751.57,-716.92"/>
<polygon fill="black" stroke="black" points="1751.71,-713.41 1741.36,-715.71 1750.88,-720.36 1751.71,-713.41"/>
<text text-anchor="middle" x="2056.86" y="-737.51" font-family="Helvetica,sans-Serif" font-size="14.00">&lt;= 0.008825</text>
</g>
<!-- 18 -->
<g id="node6" class="node">
<title>18</title>
<polygon fill="#c8cc3d" stroke="black" points="2295.36,-715.71 2047.36,-715.71 2047.36,-637.71 2295.36,-637.71 2295.36,-715.71"/>
<text text-anchor="start" x="2132.36" y="-701.51" font-family="Helvetica,sans-Serif" font-weight="bold" font-size="14.00"> Class=S </text>
<text text-anchor="start" x="2205.36" y="-701.51" font-family="Helvetica,sans-Serif" font-size="14.00"> </text>
<text text-anchor="start" x="2092.86" y="-687.51" font-family="Helvetica,sans-Serif" font-size="14.00"> error: 0.579, n=1231 </text>
<text text-anchor="start" x="2055.36" y="-673.51" font-family="Helvetica,sans-Serif" font-size="14.00"> p: (0.01, 0.01, 0.43, 0.04, 0.51) </text>
<text text-anchor="start" x="2165.86" y="-659.51" font-family="Helvetica,sans-Serif" font-size="14.00">&#45;&#45;</text>
<text text-anchor="start" x="2160.86" y="-645.51" font-family="Helvetica,sans-Serif" font-weight="bold" font-size="14.00">X2</text>
</g>
<!-- 2&#45;&gt;18 -->
<g id="edge5" class="edge">
<title>2:s&#45;&gt;18:n</title>
<path fill="none" stroke="black" d="M2171.36,-766.71C2171.36,-766.71 2171.36,-740.93 2171.36,-726.03"/>
<polygon fill="black" stroke="black" points="2174.86,-725.71 2171.36,-715.71 2167.86,-725.71 2174.86,-725.71"/>
<text text-anchor="middle" x="2213.86" y="-737.51" font-family="Helvetica,sans-Serif" font-size="14.00">&gt; 0.008825</text>
</g>
<!-- 23 -->
<g id="node24" class="node">
<title>23</title>
<ellipse fill="#c8cc3d" stroke="black" cx="2542.36" cy="-676.71" rx="175.23" ry="35.21"/>
<text text-anchor="start" x="2502.86" y="-687.51" font-family="Helvetica,sans-Serif" font-weight="bold" font-size="14.00"> Class=D </text>
<text text-anchor="start" x="2576.86" y="-687.51" font-family="Helvetica,sans-Serif" font-size="14.00"> </text>
<text text-anchor="start" x="2463.86" y="-673.51" font-family="Helvetica,sans-Serif" font-size="14.00"> error: 0.727, n=2487 </text>
<text text-anchor="start" x="2426.36" y="-659.51" font-family="Helvetica,sans-Serif" font-size="14.00"> p: (0.60, 0.17, 0.09, 0.03, 0.10) </text>
</g>
<!-- 22&#45;&gt;23 -->
<g id="edge23" class="edge">
<title>22:s&#45;&gt;23:n</title>
<path fill="none" stroke="black" d="M2542.36,-766.71C2542.36,-766.71 2542.36,-739.33 2542.36,-723.93"/>
<polygon fill="black" stroke="black" points="2545.86,-723.71 2542.36,-713.71 2538.86,-723.71 2545.86,-723.71"/>
<text text-anchor="middle" x="2590.86" y="-737.51" font-family="Helvetica,sans-Serif" font-size="14.00">&lt;= 0.001746</text>
</g>
<!-- 24 -->
<g id="node25" class="node">
<title>24</title>
<polygon fill="#c8cc3d" stroke="black" points="3037.36,-715.71 2789.36,-715.71 2789.36,-637.71 3037.36,-637.71 3037.36,-715.71"/>
<text text-anchor="start" x="2873.86" y="-701.51" font-family="Helvetica,sans-Serif" font-weight="bold" font-size="14.00"> Class=D </text>
<text text-anchor="start" x="2947.86" y="-701.51" font-family="Helvetica,sans-Serif" font-size="14.00"> </text>
<text text-anchor="start" x="2834.86" y="-687.51" font-family="Helvetica,sans-Serif" font-size="14.00"> error: 0.945, n=2465 </text>
<text text-anchor="start" x="2797.36" y="-673.51" font-family="Helvetica,sans-Serif" font-size="14.00"> p: (0.32, 0.13, 0.23, 0.09, 0.24) </text>
<text text-anchor="start" x="2905.36" y="-659.51" font-family="Helvetica,sans-Serif" font-size="14.00">&#45;&#45;&#45;</text>
<text text-anchor="start" x="2897.86" y="-645.51" font-family="Helvetica,sans-Serif" font-weight="bold" font-size="14.00">X25</text>
</g>
<!-- 22&#45;&gt;24 -->
<g id="edge24" class="edge">
<title>22:s&#45;&gt;24:n</title>
<path fill="none" stroke="black" d="M2542.36,-766.71C2542.36,-766.71 2844.44,-725.19 2903.44,-717.07"/>
<polygon fill="black" stroke="black" points="2903.93,-720.54 2913.36,-715.71 2902.98,-713.61 2903.93,-720.54"/>
<text text-anchor="middle" x="2814.86" y="-737.51" font-family="Helvetica,sans-Serif" font-size="14.00">&gt; 0.001746</text>
</g>
<!-- 4 -->
<g id="node7" class="node">
<title>4</title>
<polygon fill="#8ee544" stroke="black" points="1304.36,-586.71 1056.36,-586.71 1056.36,-508.71 1304.36,-508.71 1304.36,-586.71"/>
<text text-anchor="start" x="1141.36" y="-572.51" font-family="Helvetica,sans-Serif" font-weight="bold" font-size="14.00"> Class=S </text>
<text text-anchor="start" x="1214.36" y="-572.51" font-family="Helvetica,sans-Serif" font-size="14.00"> </text>
<text text-anchor="start" x="1101.86" y="-558.51" font-family="Helvetica,sans-Serif" font-size="14.00"> error: 0.814, n=1843 </text>
<text text-anchor="start" x="1064.36" y="-544.51" font-family="Helvetica,sans-Serif" font-size="14.00"> p: (0.08, 0.05, 0.11, 0.29, 0.47) </text>
<text text-anchor="start" x="1174.86" y="-530.51" font-family="Helvetica,sans-Serif" font-size="14.00">&#45;&#45;</text>
<text text-anchor="start" x="1169.86" y="-516.51" font-family="Helvetica,sans-Serif" font-weight="bold" font-size="14.00">X8</text>
</g>
<!-- 3&#45;&gt;4 -->
<g id="edge6" class="edge">
<title>3:s&#45;&gt;4:n</title>
<path fill="none" stroke="black" d="M1741.36,-637.71C1741.36,-637.71 1266.61,-594.55 1190.58,-587.64"/>
<polygon fill="black" stroke="black" points="1190.64,-584.13 1180.36,-586.71 1190,-591.1 1190.64,-584.13"/>
<text text-anchor="middle" x="1579.36" y="-608.51" font-family="Helvetica,sans-Serif" font-size="14.00">&lt;= &#45;0.003556</text>
</g>
<!-- 13 -->
<g id="node8" class="node">
<title>13</title>
<polygon fill="#8ee544" stroke="black" points="1865.36,-586.71 1617.36,-586.71 1617.36,-508.71 1865.36,-508.71 1865.36,-586.71"/>
<text text-anchor="start" x="1702.36" y="-572.51" font-family="Helvetica,sans-Serif" font-weight="bold" font-size="14.00"> Class=S </text>
<text text-anchor="start" x="1775.36" y="-572.51" font-family="Helvetica,sans-Serif" font-size="14.00"> </text>
<text text-anchor="start" x="1662.86" y="-558.51" font-family="Helvetica,sans-Serif" font-size="14.00"> error: 0.916, n=1847 </text>
<text text-anchor="start" x="1625.36" y="-544.51" font-family="Helvetica,sans-Serif" font-size="14.00"> p: (0.16, 0.08, 0.30, 0.11, 0.34) </text>
<text text-anchor="start" x="1733.36" y="-530.51" font-family="Helvetica,sans-Serif" font-size="14.00">&#45;&#45;&#45;</text>
<text text-anchor="start" x="1725.86" y="-516.51" font-family="Helvetica,sans-Serif" font-weight="bold" font-size="14.00">X25</text>
</g>
<!-- 3&#45;&gt;13 -->
<g id="edge7" class="edge">
<title>3:s&#45;&gt;13:n</title>
<path fill="none" stroke="black" d="M1741.36,-637.71C1741.36,-637.71 1741.36,-611.93 1741.36,-597.03"/>
<polygon fill="black" stroke="black" points="1744.86,-596.71 1741.36,-586.71 1737.86,-596.71 1744.86,-596.71"/>
<text text-anchor="middle" x="1786.36" y="-608.51" font-family="Helvetica,sans-Serif" font-size="14.00">&gt; &#45;0.003556</text>
</g>
<!-- 19 -->
<g id="node21" class="node">
<title>19</title>
<polygon fill="#8ee544" stroke="black" points="2295.36,-586.71 2047.36,-586.71 2047.36,-508.71 2295.36,-508.71 2295.36,-586.71"/>
<text text-anchor="start" x="2132.36" y="-572.51" font-family="Helvetica,sans-Serif" font-weight="bold" font-size="14.00"> Class=S </text>
<text text-anchor="start" x="2205.36" y="-572.51" font-family="Helvetica,sans-Serif" font-size="14.00"> </text>
<text text-anchor="start" x="2097.36" y="-558.51" font-family="Helvetica,sans-Serif" font-size="14.00"> error: 0.477, n=308 </text>
<text text-anchor="start" x="2055.36" y="-544.51" font-family="Helvetica,sans-Serif" font-size="14.00"> p: (0.01, 0.01, 0.16, 0.06, 0.76) </text>
<text text-anchor="start" x="2163.36" y="-530.51" font-family="Helvetica,sans-Serif" font-size="14.00">&#45;&#45;&#45;</text>
<text text-anchor="start" x="2155.86" y="-516.51" font-family="Helvetica,sans-Serif" font-weight="bold" font-size="14.00">X25</text>
</g>
<!-- 18&#45;&gt;19 -->
<g id="edge20" class="edge">
<title>18:s&#45;&gt;19:n</title>
<path fill="none" stroke="black" d="M2171.36,-637.71C2171.36,-637.71 2171.36,-611.93 2171.36,-597.03"/>
<polygon fill="black" stroke="black" points="2174.86,-596.71 2171.36,-586.71 2167.86,-596.71 2174.86,-596.71"/>
<text text-anchor="middle" x="2222.36" y="-608.51" font-family="Helvetica,sans-Serif" font-size="14.00">&lt;= &#45;0.003099</text>
</g>
<!-- 21 -->
<g id="node22" class="node">
<title>21</title>
<ellipse fill="#8ee544" stroke="black" cx="2542.36" cy="-547.71" rx="175.23" ry="35.21"/>
<text text-anchor="start" x="2503.36" y="-558.51" font-family="Helvetica,sans-Serif" font-weight="bold" font-size="14.00"> Class=P </text>
<text text-anchor="start" x="2576.36" y="-558.51" font-family="Helvetica,sans-Serif" font-size="14.00"> </text>
<text text-anchor="start" x="2468.36" y="-544.51" font-family="Helvetica,sans-Serif" font-size="14.00"> error: 0.566, n=923 </text>
<text text-anchor="start" x="2426.36" y="-530.51" font-family="Helvetica,sans-Serif" font-size="14.00"> p: (0.02, 0.01, 0.52, 0.03, 0.42) </text>
</g>
<!-- 18&#45;&gt;21 -->
<g id="edge21" class="edge">
<title>18:s&#45;&gt;21:n</title>
<path fill="none" stroke="black" d="M2171.36,-637.71C2171.36,-637.71 2473.44,-594.56 2532.44,-586.13"/>
<polygon fill="black" stroke="black" points="2532.96,-589.59 2542.36,-584.71 2531.97,-582.66 2532.96,-589.59"/>
<text text-anchor="middle" x="2446.36" y="-608.51" font-family="Helvetica,sans-Serif" font-size="14.00">&gt; &#45;0.003099</text>
</g>
<!-- 5 -->
<g id="node9" class="node">
<title>5</title>
<polygon fill="#3dcc45" stroke="black" points="881.36,-457.71 633.36,-457.71 633.36,-379.71 881.36,-379.71 881.36,-457.71"/>
<text text-anchor="start" x="718.36" y="-443.51" font-family="Helvetica,sans-Serif" font-weight="bold" font-size="14.00"> Class=S </text>
<text text-anchor="start" x="791.36" y="-443.51" font-family="Helvetica,sans-Serif" font-size="14.00"> </text>
<text text-anchor="start" x="678.86" y="-429.51" font-family="Helvetica,sans-Serif" font-size="14.00"> error: 0.860, n=1381 </text>
<text text-anchor="start" x="641.36" y="-415.51" font-family="Helvetica,sans-Serif" font-size="14.00"> p: (0.09, 0.06, 0.12, 0.35, 0.37) </text>
<text text-anchor="start" x="751.86" y="-401.51" font-family="Helvetica,sans-Serif" font-size="14.00">&#45;&#45;</text>
<text text-anchor="start" x="746.86" y="-387.51" font-family="Helvetica,sans-Serif" font-weight="bold" font-size="14.00">X5</text>
</g>
<!-- 4&#45;&gt;5 -->
<g id="edge8" class="edge">
<title>4:s&#45;&gt;5:n</title>
<path fill="none" stroke="black" d="M1180.36,-508.71C1180.36,-508.71 831.46,-466.64 767.4,-458.92"/>
<polygon fill="black" stroke="black" points="767.71,-455.43 757.36,-457.71 766.87,-462.38 767.71,-455.43"/>
<text text-anchor="middle" x="1067.86" y="-479.51" font-family="Helvetica,sans-Serif" font-size="14.00">&lt;= 0.002031</text>
</g>
<!-- 11 -->
<g id="node10" class="node">
<title>11</title>
<polygon fill="#3dcc45" stroke="black" points="1304.36,-457.71 1056.36,-457.71 1056.36,-379.71 1304.36,-379.71 1304.36,-457.71"/>
<text text-anchor="start" x="1141.36" y="-443.51" font-family="Helvetica,sans-Serif" font-weight="bold" font-size="14.00"> Class=S </text>
<text text-anchor="start" x="1214.36" y="-443.51" font-family="Helvetica,sans-Serif" font-size="14.00"> </text>
<text text-anchor="start" x="1106.36" y="-429.51" font-family="Helvetica,sans-Serif" font-size="14.00"> error: 0.537, n=462 </text>
<text text-anchor="start" x="1064.36" y="-415.51" font-family="Helvetica,sans-Serif" font-size="14.00"> p: (0.03, 0.02, 0.09, 0.12, 0.75) </text>
<text text-anchor="start" x="1174.86" y="-401.51" font-family="Helvetica,sans-Serif" font-size="14.00">&#45;&#45;</text>
<text text-anchor="start" x="1169.86" y="-387.51" font-family="Helvetica,sans-Serif" font-weight="bold" font-size="14.00">X2</text>
</g>
<!-- 4&#45;&gt;11 -->
<g id="edge9" class="edge">
<title>4:s&#45;&gt;11:n</title>
<path fill="none" stroke="black" d="M1180.36,-508.71C1180.36,-508.71 1180.36,-482.93 1180.36,-468.03"/>
<polygon fill="black" stroke="black" points="1183.86,-467.71 1180.36,-457.71 1176.86,-467.71 1183.86,-467.71"/>
<text text-anchor="middle" x="1222.86" y="-479.51" font-family="Helvetica,sans-Serif" font-size="14.00">&gt; 0.002031</text>
</g>
<!-- 14 -->
<g id="node17" class="node">
<title>14</title>
<polygon fill="#3dcc45" stroke="black" points="1649.36,-457.71 1401.36,-457.71 1401.36,-379.71 1649.36,-379.71 1649.36,-457.71"/>
<text text-anchor="start" x="1485.86" y="-443.51" font-family="Helvetica,sans-Serif" font-weight="bold" font-size="14.00"> Class=D </text>
<text text-anchor="start" x="1559.86" y="-443.51" font-family="Helvetica,sans-Serif" font-size="14.00"> </text>
<text text-anchor="start" x="1451.36" y="-429.51" font-family="Helvetica,sans-Serif" font-size="14.00"> error: 0.863, n=462 </text>
<text text-anchor="start" x="1409.36" y="-415.51" font-family="Helvetica,sans-Serif" font-size="14.00"> p: (0.35, 0.06, 0.20, 0.06, 0.34) </text>
<text text-anchor="start" x="1517.36" y="-401.51" font-family="Helvetica,sans-Serif" font-size="14.00">&#45;&#45;&#45;</text>
<text text-anchor="start" x="1509.86" y="-387.51" font-family="Helvetica,sans-Serif" font-weight="bold" font-size="14.00">X30</text>
</g>
<!-- 13&#45;&gt;14 -->
<g id="edge16" class="edge">
<title>13:s&#45;&gt;14:n</title>
<path fill="none" stroke="black" d="M1741.36,-508.71C1741.36,-508.71 1577.46,-470.01 1535.2,-460.03"/>
<polygon fill="black" stroke="black" points="1535.9,-456.6 1525.36,-457.71 1534.29,-463.42 1535.9,-456.6"/>
<text text-anchor="middle" x="1707.86" y="-479.51" font-family="Helvetica,sans-Serif" font-size="14.00">&lt;= 0.002511</text>
</g>
<!-- 17 -->
<g id="node18" class="node">
<title>17</title>
<ellipse fill="#3dcc45" stroke="black" cx="1896.36" cy="-418.71" rx="175.23" ry="35.21"/>
<text text-anchor="start" x="1857.36" y="-429.51" font-family="Helvetica,sans-Serif" font-weight="bold" font-size="14.00"> Class=P </text>
<text text-anchor="start" x="1930.36" y="-429.51" font-family="Helvetica,sans-Serif" font-size="14.00"> </text>
<text text-anchor="start" x="1817.86" y="-415.51" font-family="Helvetica,sans-Serif" font-size="14.00"> error: 0.898, n=1385 </text>
<text text-anchor="start" x="1780.36" y="-401.51" font-family="Helvetica,sans-Serif" font-size="14.00"> p: (0.10, 0.08, 0.34, 0.13, 0.34) </text>
</g>
<!-- 13&#45;&gt;17 -->
<g id="edge17" class="edge">
<title>13:s&#45;&gt;17:n</title>
<path fill="none" stroke="black" d="M1741.36,-508.71C1741.36,-508.71 1852.73,-470.63 1886.67,-459.03"/>
<polygon fill="black" stroke="black" points="1888.03,-462.26 1896.36,-455.71 1885.77,-455.63 1888.03,-462.26"/>
<text text-anchor="middle" x="1879.86" y="-479.51" font-family="Helvetica,sans-Serif" font-size="14.00">&gt; 0.002511</text>
</g>
<!-- 6 -->
<g id="node11" class="node">
<title>6</title>
<polygon fill="#44e5a1" stroke="black" points="510.36,-328.71 262.36,-328.71 262.36,-250.71 510.36,-250.71 510.36,-328.71"/>
<text text-anchor="start" x="347.36" y="-314.51" font-family="Helvetica,sans-Serif" font-weight="bold" font-size="14.00"> Class=R </text>
<text text-anchor="start" x="420.36" y="-314.51" font-family="Helvetica,sans-Serif" font-size="14.00"> </text>
<text text-anchor="start" x="312.36" y="-300.51" font-family="Helvetica,sans-Serif" font-size="14.00"> error: 0.731, n=691 </text>
<text text-anchor="start" x="270.36" y="-286.51" font-family="Helvetica,sans-Serif" font-size="14.00"> p: (0.03, 0.03, 0.09, 0.43, 0.41) </text>
<text text-anchor="start" x="380.86" y="-272.51" font-family="Helvetica,sans-Serif" font-size="14.00">&#45;&#45;</text>
<text text-anchor="start" x="375.86" y="-258.51" font-family="Helvetica,sans-Serif" font-weight="bold" font-size="14.00">X6</text>
</g>
<!-- 5&#45;&gt;6 -->
<g id="edge10" class="edge">
<title>5:s&#45;&gt;6:n</title>
<path fill="none" stroke="black" d="M757.36,-379.71C757.36,-379.71 455.29,-338.19 396.29,-330.07"/>
<polygon fill="black" stroke="black" points="396.75,-326.61 386.36,-328.71 395.79,-333.54 396.75,-326.61"/>
<text text-anchor="middle" x="662.86" y="-350.51" font-family="Helvetica,sans-Serif" font-size="14.00">&lt;= &#45;0.01088</text>
</g>
<!-- 10 -->
<g id="node12" class="node">
<title>10</title>
<ellipse fill="#44e5a1" stroke="black" cx="757.36" cy="-289.71" rx="175.23" ry="35.21"/>
<text text-anchor="start" x="718.36" y="-300.51" font-family="Helvetica,sans-Serif" font-weight="bold" font-size="14.00"> Class=S </text>
<text text-anchor="start" x="791.36" y="-300.51" font-family="Helvetica,sans-Serif" font-size="14.00"> </text>
<text text-anchor="start" x="683.36" y="-286.51" font-family="Helvetica,sans-Serif" font-size="14.00"> error: 0.936, n=690 </text>
<text text-anchor="start" x="641.36" y="-272.51" font-family="Helvetica,sans-Serif" font-size="14.00"> p: (0.15, 0.09, 0.15, 0.27, 0.34) </text>
</g>
<!-- 5&#45;&gt;10 -->
<g id="edge11" class="edge">
<title>5:s&#45;&gt;10:n</title>
<path fill="none" stroke="black" d="M757.36,-379.71C757.36,-379.71 757.36,-352.33 757.36,-336.93"/>
<polygon fill="black" stroke="black" points="760.86,-336.71 757.36,-326.71 753.86,-336.71 760.86,-336.71"/>
<text text-anchor="middle" x="797.86" y="-350.51" font-family="Helvetica,sans-Serif" font-size="14.00">&gt; &#45;0.01088</text>
</g>
<!-- 12 -->
<g id="node16" class="node">
<title>12</title>
<ellipse fill="#44e5a1" stroke="black" cx="1180.36" cy="-289.71" rx="175.23" ry="35.21"/>
<text text-anchor="start" x="1141.36" y="-300.51" font-family="Helvetica,sans-Serif" font-weight="bold" font-size="14.00"> Class=S </text>
<text text-anchor="start" x="1214.36" y="-300.51" font-family="Helvetica,sans-Serif" font-size="14.00"> </text>
<text text-anchor="start" x="1106.36" y="-286.51" font-family="Helvetica,sans-Serif" font-size="14.00"> error: 0.407, n=346 </text>
<text text-anchor="start" x="1064.36" y="-272.51" font-family="Helvetica,sans-Serif" font-size="14.00"> p: (0.01, 0.01, 0.10, 0.07, 0.82) </text>
</g>
<!-- 11&#45;&gt;12 -->
<g id="edge15" class="edge">
<title>11:s&#45;&gt;12:n</title>
<path fill="none" stroke="black" d="M1180.36,-379.71C1180.36,-379.71 1180.36,-352.33 1180.36,-336.93"/>
<polygon fill="black" stroke="black" points="1183.86,-336.71 1180.36,-326.71 1176.86,-336.71 1183.86,-336.71"/>
<text text-anchor="middle" x="1222.86" y="-350.51" font-family="Helvetica,sans-Serif" font-size="14.00">&gt; 0.004091</text>
</g>
<!-- 7 -->
<g id="node13" class="node">
<title>7</title>
<polygon fill="#3dc0cc" stroke="black" points="510.36,-199.71 262.36,-199.71 262.36,-121.71 510.36,-121.71 510.36,-199.71"/>
<text text-anchor="start" x="347.36" y="-185.51" font-family="Helvetica,sans-Serif" font-weight="bold" font-size="14.00"> Class=R </text>
<text text-anchor="start" x="420.36" y="-185.51" font-family="Helvetica,sans-Serif" font-size="14.00"> </text>
<text text-anchor="start" x="312.36" y="-171.51" font-family="Helvetica,sans-Serif" font-size="14.00"> error: 0.745, n=517 </text>
<text text-anchor="start" x="270.36" y="-157.51" font-family="Helvetica,sans-Serif" font-size="14.00"> p: (0.04, 0.04, 0.09, 0.49, 0.33) </text>
<text text-anchor="start" x="380.86" y="-143.51" font-family="Helvetica,sans-Serif" font-size="14.00">&#45;&#45;</text>
<text text-anchor="start" x="375.86" y="-129.51" font-family="Helvetica,sans-Serif" font-weight="bold" font-size="14.00">X9</text>
</g>
<!-- 6&#45;&gt;7 -->
<g id="edge12" class="edge">
<title>6:s&#45;&gt;7:n</title>
<path fill="none" stroke="black" d="M386.36,-250.71C386.36,-250.71 386.36,-224.93 386.36,-210.03"/>
<polygon fill="black" stroke="black" points="389.86,-209.71 386.36,-199.71 382.86,-209.71 389.86,-209.71"/>
<text text-anchor="middle" x="430.36" y="-221.51" font-family="Helvetica,sans-Serif" font-size="14.00">&lt;= 0.00172</text>
</g>
<!-- 8 -->
<g id="node14" class="node">
<title>8</title>
<ellipse fill="#4485e5" stroke="black" cx="175.36" cy="-35.36" rx="175.23" ry="35.21"/>
<text text-anchor="start" x="136.36" y="-46.16" font-family="Helvetica,sans-Serif" font-weight="bold" font-size="14.00"> Class=R </text>
<text text-anchor="start" x="209.36" y="-46.16" font-family="Helvetica,sans-Serif" font-size="14.00"> </text>
<text text-anchor="start" x="101.36" y="-32.16" font-family="Helvetica,sans-Serif" font-size="14.00"> error: 0.802, n=260 </text>
<text text-anchor="start" x="59.36" y="-18.16" font-family="Helvetica,sans-Serif" font-size="14.00"> p: (0.06, 0.08, 0.07, 0.45, 0.33) </text>
</g>
<!-- 7&#45;&gt;8 -->
<g id="edge13" class="edge">
<title>7:s&#45;&gt;8:n</title>
<path fill="none" stroke="black" d="M386.36,-121.71C386.36,-121.71 226.97,-83.19 185.26,-73.1"/>
<polygon fill="black" stroke="black" points="185.9,-69.66 175.36,-70.71 184.26,-76.46 185.9,-69.66"/>
<text text-anchor="middle" x="354.86" y="-92.51" font-family="Helvetica,sans-Serif" font-size="14.00">&lt;= &#45;8.14e&#45;05</text>
</g>
<!-- 9 -->
<g id="node15" class="node">
<title>9</title>
<ellipse fill="#4485e5" stroke="black" cx="598.36" cy="-35.36" rx="175.23" ry="35.21"/>
<text text-anchor="start" x="559.36" y="-46.16" font-family="Helvetica,sans-Serif" font-weight="bold" font-size="14.00"> Class=R </text>
<text text-anchor="start" x="632.36" y="-46.16" font-family="Helvetica,sans-Serif" font-size="14.00"> </text>
<text text-anchor="start" x="524.36" y="-32.16" font-family="Helvetica,sans-Serif" font-size="14.00"> error: 0.642, n=257 </text>
<text text-anchor="start" x="482.36" y="-18.16" font-family="Helvetica,sans-Serif" font-size="14.00"> p: (0.02, 0.00, 0.11, 0.54, 0.33) </text>
</g>
<!-- 7&#45;&gt;9 -->
<g id="edge14" class="edge">
<title>7:s&#45;&gt;9:n</title>
<path fill="none" stroke="black" d="M386.36,-121.71C386.36,-121.71 546.51,-83.19 588.42,-73.1"/>
<polygon fill="black" stroke="black" points="589.46,-76.45 598.36,-70.71 587.82,-69.65 589.46,-76.45"/>
<text text-anchor="middle" x="560.86" y="-92.51" font-family="Helvetica,sans-Serif" font-size="14.00">&gt; &#45;8.14e&#45;05</text>
</g>
<!-- 15 -->
<g id="node19" class="node">
<title>15</title>
<polygon fill="#44e5a1" stroke="black" points="1675.36,-328.71 1427.36,-328.71 1427.36,-250.71 1675.36,-250.71 1675.36,-328.71"/>
<text text-anchor="start" x="1512.36" y="-314.51" font-family="Helvetica,sans-Serif" font-weight="bold" font-size="14.00"> Class=S </text>
<text text-anchor="start" x="1585.36" y="-314.51" font-family="Helvetica,sans-Serif" font-size="14.00"> </text>
<text text-anchor="start" x="1477.36" y="-300.51" font-family="Helvetica,sans-Serif" font-size="14.00"> error: 0.829, n=346 </text>
<text text-anchor="start" x="1435.36" y="-286.51" font-family="Helvetica,sans-Serif" font-size="14.00"> p: (0.32, 0.03, 0.21, 0.06, 0.39) </text>
<text text-anchor="start" x="1543.36" y="-272.51" font-family="Helvetica,sans-Serif" font-size="14.00">&#45;&#45;&#45;</text>
<text text-anchor="start" x="1535.86" y="-258.51" font-family="Helvetica,sans-Serif" font-weight="bold" font-size="14.00">X27</text>
</g>
<!-- 14&#45;&gt;15 -->
<g id="edge18" class="edge">
<title>14:s&#45;&gt;15:n</title>
<path fill="none" stroke="black" d="M1525.36,-379.71C1525.36,-379.71 1539.09,-352.79 1546.59,-338.06"/>
<polygon fill="black" stroke="black" points="1549.94,-339.21 1551.36,-328.71 1543.7,-336.03 1549.94,-339.21"/>
<text text-anchor="middle" x="1584.86" y="-350.51" font-family="Helvetica,sans-Serif" font-size="14.00">&gt; 0.000444</text>
</g>
<!-- 16 -->
<g id="node20" class="node">
<title>16</title>
<ellipse fill="#3dc0cc" stroke="black" cx="1551.36" cy="-160.71" rx="175.23" ry="35.21"/>
<text text-anchor="start" x="1512.36" y="-171.51" font-family="Helvetica,sans-Serif" font-weight="bold" font-size="14.00"> Class=S </text>
<text text-anchor="start" x="1585.36" y="-171.51" font-family="Helvetica,sans-Serif" font-size="14.00"> </text>
<text text-anchor="start" x="1477.36" y="-157.51" font-family="Helvetica,sans-Serif" font-size="14.00"> error: 0.842, n=259 </text>
<text text-anchor="start" x="1435.36" y="-143.51" font-family="Helvetica,sans-Serif" font-size="14.00"> p: (0.22, 0.03, 0.24, 0.08, 0.42) </text>
</g>
<!-- 15&#45;&gt;16 -->
<g id="edge19" class="edge">
<title>15:s&#45;&gt;16:n</title>
<path fill="none" stroke="black" d="M1551.36,-250.71C1551.36,-250.71 1551.36,-223.33 1551.36,-207.93"/>
<polygon fill="black" stroke="black" points="1554.86,-207.71 1551.36,-197.71 1547.86,-207.71 1554.86,-207.71"/>
<text text-anchor="middle" x="1598.36" y="-221.51" font-family="Helvetica,sans-Serif" font-size="14.00">&gt; 0.0005213</text>
</g>
<!-- 20 -->
<g id="node23" class="node">
<title>20</title>
<ellipse fill="#3dcc45" stroke="black" cx="2319.36" cy="-418.71" rx="175.23" ry="35.21"/>
<text text-anchor="start" x="2280.36" y="-429.51" font-family="Helvetica,sans-Serif" font-weight="bold" font-size="14.00"> Class=S </text>
<text text-anchor="start" x="2353.36" y="-429.51" font-family="Helvetica,sans-Serif" font-size="14.00"> </text>
<text text-anchor="start" x="2245.36" y="-415.51" font-family="Helvetica,sans-Serif" font-size="14.00"> error: 0.406, n=230 </text>
<text text-anchor="start" x="2203.36" y="-401.51" font-family="Helvetica,sans-Serif" font-size="14.00"> p: (0.00, 0.00, 0.12, 0.08, 0.80) </text>
</g>
<!-- 19&#45;&gt;20 -->
<g id="edge22" class="edge">
<title>19:s&#45;&gt;20:n</title>
<path fill="none" stroke="black" d="M2171.36,-508.71C2171.36,-508.71 2276.73,-470.98 2309.65,-459.19"/>
<polygon fill="black" stroke="black" points="2311.13,-462.38 2319.36,-455.71 2308.77,-455.79 2311.13,-462.38"/>
<text text-anchor="middle" x="2305.86" y="-479.51" font-family="Helvetica,sans-Serif" font-size="14.00">&gt; 0.009551</text>
</g>
<!-- 25 -->
<g id="node26" class="node">
<title>25</title>
<polygon fill="#8ee544" stroke="black" points="3037.36,-586.71 2789.36,-586.71 2789.36,-508.71 3037.36,-508.71 3037.36,-586.71"/>
<text text-anchor="start" x="2873.86" y="-572.51" font-family="Helvetica,sans-Serif" font-weight="bold" font-size="14.00"> Class=D </text>
<text text-anchor="start" x="2947.86" y="-572.51" font-family="Helvetica,sans-Serif" font-size="14.00"> </text>
<text text-anchor="start" x="2839.36" y="-558.51" font-family="Helvetica,sans-Serif" font-size="14.00"> error: 0.780, n=617 </text>
<text text-anchor="start" x="2797.36" y="-544.51" font-family="Helvetica,sans-Serif" font-size="14.00"> p: (0.55, 0.07, 0.13, 0.05, 0.20) </text>
<text text-anchor="start" x="2905.36" y="-530.51" font-family="Helvetica,sans-Serif" font-size="14.00">&#45;&#45;&#45;</text>
<text text-anchor="start" x="2897.86" y="-516.51" font-family="Helvetica,sans-Serif" font-weight="bold" font-size="14.00">X11</text>
</g>
<!-- 24&#45;&gt;25 -->
<g id="edge25" class="edge">
<title>24:s&#45;&gt;25:n</title>
<path fill="none" stroke="black" d="M2913.36,-637.71C2913.36,-637.71 2913.36,-611.93 2913.36,-597.03"/>
<polygon fill="black" stroke="black" points="2916.86,-596.71 2913.36,-586.71 2909.86,-596.71 2916.86,-596.71"/>
<text text-anchor="middle" x="2961.86" y="-608.51" font-family="Helvetica,sans-Serif" font-size="14.00">&lt;= 0.001189</text>
</g>
<!-- 28 -->
<g id="node27" class="node">
<title>28</title>
<polygon fill="#8ee544" stroke="black" points="3370.36,-586.71 3122.36,-586.71 3122.36,-508.71 3370.36,-508.71 3370.36,-586.71"/>
<text text-anchor="start" x="3207.36" y="-572.51" font-family="Helvetica,sans-Serif" font-weight="bold" font-size="14.00"> Class=P </text>
<text text-anchor="start" x="3280.36" y="-572.51" font-family="Helvetica,sans-Serif" font-size="14.00"> </text>
<text text-anchor="start" x="3167.86" y="-558.51" font-family="Helvetica,sans-Serif" font-size="14.00"> error: 0.966, n=1848 </text>
<text text-anchor="start" x="3130.36" y="-544.51" font-family="Helvetica,sans-Serif" font-size="14.00"> p: (0.24, 0.15, 0.26, 0.10, 0.25) </text>
<text text-anchor="start" x="3238.36" y="-530.51" font-family="Helvetica,sans-Serif" font-size="14.00">&#45;&#45;&#45;</text>
<text text-anchor="start" x="3230.86" y="-516.51" font-family="Helvetica,sans-Serif" font-weight="bold" font-size="14.00">X11</text>
</g>
<!-- 24&#45;&gt;28 -->
<g id="edge26" class="edge">
<title>24:s&#45;&gt;28:n</title>
<path fill="none" stroke="black" d="M2913.36,-637.71C2913.36,-637.71 3180.99,-596.72 3236.4,-588.24"/>
<polygon fill="black" stroke="black" points="3237.01,-591.68 3246.36,-586.71 3235.95,-584.76 3237.01,-591.68"/>
<text text-anchor="middle" x="3162.86" y="-608.51" font-family="Helvetica,sans-Serif" font-size="14.00">&gt; 0.001189</text>
</g>
<!-- 26 -->
<g id="node28" class="node">
<title>26</title>
<polygon fill="#3dcc45" stroke="black" points="2999.36,-457.71 2751.36,-457.71 2751.36,-379.71 2999.36,-379.71 2999.36,-457.71"/>
<text text-anchor="start" x="2835.86" y="-443.51" font-family="Helvetica,sans-Serif" font-weight="bold" font-size="14.00"> Class=D </text>
<text text-anchor="start" x="2909.86" y="-443.51" font-family="Helvetica,sans-Serif" font-size="14.00"> </text>
<text text-anchor="start" x="2801.36" y="-429.51" font-family="Helvetica,sans-Serif" font-size="14.00"> error: 0.701, n=463 </text>
<text text-anchor="start" x="2759.36" y="-415.51" font-family="Helvetica,sans-Serif" font-size="14.00"> p: (0.63, 0.08, 0.09, 0.04, 0.17) </text>
<text text-anchor="start" x="2867.36" y="-401.51" font-family="Helvetica,sans-Serif" font-size="14.00">&#45;&#45;&#45;</text>
<text text-anchor="start" x="2859.86" y="-387.51" font-family="Helvetica,sans-Serif" font-weight="bold" font-size="14.00">X11</text>
</g>
<!-- 25&#45;&gt;26 -->
<g id="edge27" class="edge">
<title>25:s&#45;&gt;26:n</title>
<path fill="none" stroke="black" d="M2913.36,-508.71C2913.36,-508.71 2892.43,-480.62 2881.64,-466.13"/>
<polygon fill="black" stroke="black" points="2884.14,-463.64 2875.36,-457.71 2878.53,-467.82 2884.14,-463.64"/>
<text text-anchor="middle" x="2952.36" y="-479.51" font-family="Helvetica,sans-Serif" font-size="14.00">&lt;= 0.0008397</text>
</g>
<!-- 29 -->
<g id="node30" class="node">
<title>29</title>
<ellipse fill="#3dcc45" stroke="black" cx="3246.36" cy="-418.71" rx="175.23" ry="35.21"/>
<text text-anchor="start" x="3206.86" y="-429.51" font-family="Helvetica,sans-Serif" font-weight="bold" font-size="14.00"> Class=D </text>
<text text-anchor="start" x="3280.86" y="-429.51" font-family="Helvetica,sans-Serif" font-size="14.00"> </text>
<text text-anchor="start" x="3167.86" y="-415.51" font-family="Helvetica,sans-Serif" font-size="14.00"> error: 0.977, n=1386 </text>
<text text-anchor="start" x="3130.36" y="-401.51" font-family="Helvetica,sans-Serif" font-size="14.00"> p: (0.28, 0.17, 0.22, 0.12, 0.21) </text>
</g>
<!-- 28&#45;&gt;29 -->
<g id="edge29" class="edge">
<title>28:s&#45;&gt;29:n</title>
<path fill="none" stroke="black" d="M3246.36,-508.71C3246.36,-508.71 3246.36,-481.33 3246.36,-465.93"/>
<polygon fill="black" stroke="black" points="3249.86,-465.71 3246.36,-455.71 3242.86,-465.71 3249.86,-465.71"/>
<text text-anchor="middle" x="3294.86" y="-479.51" font-family="Helvetica,sans-Serif" font-size="14.00">&lt;= 0.001333</text>
</g>
<!-- 30 -->
<g id="node31" class="node">
<title>30</title>
<polygon fill="#3dcc45" stroke="black" points="3741.36,-457.71 3493.36,-457.71 3493.36,-379.71 3741.36,-379.71 3741.36,-457.71"/>
<text text-anchor="start" x="3578.36" y="-443.51" font-family="Helvetica,sans-Serif" font-weight="bold" font-size="14.00"> Class=P </text>
<text text-anchor="start" x="3651.36" y="-443.51" font-family="Helvetica,sans-Serif" font-size="14.00"> </text>
<text text-anchor="start" x="3543.36" y="-429.51" font-family="Helvetica,sans-Serif" font-size="14.00"> error: 0.835, n=462 </text>
<text text-anchor="start" x="3501.36" y="-415.51" font-family="Helvetica,sans-Serif" font-size="14.00"> p: (0.12, 0.11, 0.37, 0.03, 0.37) </text>
<text text-anchor="start" x="3611.86" y="-401.51" font-family="Helvetica,sans-Serif" font-size="14.00">&#45;&#45;</text>
<text text-anchor="start" x="3606.86" y="-387.51" font-family="Helvetica,sans-Serif" font-weight="bold" font-size="14.00">X8</text>
</g>
<!-- 28&#45;&gt;30 -->
<g id="edge30" class="edge">
<title>28:s&#45;&gt;30:n</title>
<path fill="none" stroke="black" d="M3246.36,-508.71C3246.36,-508.71 3548.44,-467.19 3607.44,-459.07"/>
<polygon fill="black" stroke="black" points="3607.93,-462.54 3617.36,-457.71 3606.98,-455.61 3607.93,-462.54"/>
<text text-anchor="middle" x="3518.86" y="-479.51" font-family="Helvetica,sans-Serif" font-size="14.00">&gt; 0.001333</text>
</g>
<!-- 27 -->
<g id="node29" class="node">
<title>27</title>
<ellipse fill="#44e5a1" stroke="black" cx="2875.36" cy="-289.71" rx="175.23" ry="35.21"/>
<text text-anchor="start" x="2835.86" y="-300.51" font-family="Helvetica,sans-Serif" font-weight="bold" font-size="14.00"> Class=D </text>
<text text-anchor="start" x="2909.86" y="-300.51" font-family="Helvetica,sans-Serif" font-size="14.00"> </text>
<text text-anchor="start" x="2801.36" y="-286.51" font-family="Helvetica,sans-Serif" font-size="14.00"> error: 0.593, n=347 </text>
<text text-anchor="start" x="2759.36" y="-272.51" font-family="Helvetica,sans-Serif" font-size="14.00"> p: (0.71, 0.06, 0.07, 0.02, 0.14) </text>
</g>
<!-- 26&#45;&gt;27 -->
<g id="edge28" class="edge">
<title>26:s&#45;&gt;27:n</title>
<path fill="none" stroke="black" d="M2875.36,-379.71C2875.36,-379.71 2875.36,-352.33 2875.36,-336.93"/>
<polygon fill="black" stroke="black" points="2878.86,-336.71 2875.36,-326.71 2871.86,-336.71 2878.86,-336.71"/>
<text text-anchor="middle" x="2920.36" y="-350.51" font-family="Helvetica,sans-Serif" font-size="14.00">&gt; &#45;0.001303</text>
</g>
<!-- 31 -->
<g id="node32" class="node">
<title>31</title>
<ellipse fill="#44e5a1" stroke="black" cx="3457.36" cy="-289.71" rx="175.23" ry="35.21"/>
<text text-anchor="start" x="3418.36" y="-300.51" font-family="Helvetica,sans-Serif" font-weight="bold" font-size="14.00"> Class=S </text>
<text text-anchor="start" x="3491.36" y="-300.51" font-family="Helvetica,sans-Serif" font-size="14.00"> </text>
<text text-anchor="start" x="3383.36" y="-286.51" font-family="Helvetica,sans-Serif" font-size="14.00"> error: 0.832, n=231 </text>
<text text-anchor="start" x="3341.36" y="-272.51" font-family="Helvetica,sans-Serif" font-size="14.00"> p: (0.13, 0.10, 0.23, 0.05, 0.49) </text>
</g>
<!-- 30&#45;&gt;31 -->
<g id="edge31" class="edge">
<title>30:s&#45;&gt;31:n</title>
<path fill="none" stroke="black" d="M3617.36,-379.71C3617.36,-379.71 3501.34,-341.28 3466.89,-329.87"/>
<polygon fill="black" stroke="black" points="3467.96,-326.53 3457.36,-326.71 3465.75,-333.18 3467.96,-326.53"/>
<text text-anchor="middle" x="3614.36" y="-350.51" font-family="Helvetica,sans-Serif" font-size="14.00">&lt;= 0.0006129</text>
</g>
<!-- 32 -->
<g id="node33" class="node">
<title>32</title>
<ellipse fill="#44e5a1" stroke="black" cx="3880.36" cy="-289.71" rx="175.23" ry="35.21"/>
<text text-anchor="start" x="3841.36" y="-300.51" font-family="Helvetica,sans-Serif" font-weight="bold" font-size="14.00"> Class=P </text>
<text text-anchor="start" x="3914.36" y="-300.51" font-family="Helvetica,sans-Serif" font-size="14.00"> </text>
<text text-anchor="start" x="3806.36" y="-286.51" font-family="Helvetica,sans-Serif" font-size="14.00"> error: 0.768, n=231 </text>
<text text-anchor="start" x="3764.36" y="-272.51" font-family="Helvetica,sans-Serif" font-size="14.00"> p: (0.10, 0.12, 0.52, 0.02, 0.25) </text>
</g>
<!-- 30&#45;&gt;32 -->
<g id="edge32" class="edge">
<title>30:s&#45;&gt;32:n</title>
<path fill="none" stroke="black" d="M3617.36,-379.71C3617.36,-379.71 3822.33,-338.4 3870.37,-328.72"/>
<polygon fill="black" stroke="black" points="3871.25,-332.12 3880.36,-326.71 3869.87,-325.26 3871.25,-332.12"/>
<text text-anchor="middle" x="3826.36" y="-350.51" font-family="Helvetica,sans-Serif" font-size="14.00">&gt; 0.0006129</text>
</g>
</g>
</svg>
