<?xml version="1.0" encoding="UTF-8" standalone="no"?>
<!DOCTYPE svg PUBLIC "-//W3C//DTD SVG 1.1//EN"
 "http://www.w3.org/Graphics/SVG/1.1/DTD/svg11.dtd">
<!-- Generated by graphviz version 2.43.0 (0)
 -->
<!-- Title: Tree Pages: 1 -->
<svg width="1092pt" height="825pt"
 viewBox="0.00 0.00 1092.20 824.71" xmlns="http://www.w3.org/2000/svg" xmlns:xlink="http://www.w3.org/1999/xlink">
<g id="graph0" class="graph" transform="scale(1 1) rotate(0) translate(18 806.71)">
<title>Tree</title>
<polygon fill="white" stroke="transparent" points="-18,18 -18,-806.71 1074.2,-806.71 1074.2,18 -18,18"/>
<!-- 0 -->
<g id="node1" class="node">
<title>0</title>
<polygon fill="white" stroke="transparent" points="493.6,-788.71 439.6,-788.71 439.6,-752.71 493.6,-752.71 493.6,-788.71"/>
<text text-anchor="middle" x="466.6" y="-767.01" font-family="Helvetica,sans-Serif" font-size="14.00">0</text>
</g>
<!-- 1 -->
<g id="node2" class="node">
<title>1</title>
<polygon fill="#cc3d3d" stroke="black" points="548.6,-715.71 384.6,-715.71 384.6,-637.71 548.6,-637.71 548.6,-715.71"/>
<text text-anchor="start" x="427.6" y="-701.51" font-family="Helvetica,sans-Serif" font-weight="bold" font-size="14.00"> Class=1 </text>
<text text-anchor="start" x="500.6" y="-701.51" font-family="Helvetica,sans-Serif" font-size="14.00"> </text>
<text text-anchor="start" x="392.6" y="-687.51" font-family="Helvetica,sans-Serif" font-size="14.00"> error: 0.864, n=583 </text>
<text text-anchor="start" x="411.6" y="-673.51" font-family="Helvetica,sans-Serif" font-size="14.00"> p: (0.71, 0.29) </text>
<text text-anchor="start" x="461.1" y="-659.51" font-family="Helvetica,sans-Serif" font-size="14.00">&#45;&#45;</text>
<text text-anchor="start" x="456.1" y="-645.51" font-family="Helvetica,sans-Serif" font-weight="bold" font-size="14.00">V3</text>
</g>
<!-- 0&#45;&gt;1 -->
<!-- 2 -->
<g id="node3" class="node">
<title>2</title>
<polygon fill="#e5b844" stroke="black" points="431.6,-586.71 267.6,-586.71 267.6,-508.71 431.6,-508.71 431.6,-586.71"/>
<text text-anchor="start" x="310.6" y="-572.51" font-family="Helvetica,sans-Serif" font-weight="bold" font-size="14.00"> Class=1 </text>
<text text-anchor="start" x="383.6" y="-572.51" font-family="Helvetica,sans-Serif" font-size="14.00"> </text>
<text text-anchor="start" x="275.6" y="-558.51" font-family="Helvetica,sans-Serif" font-size="14.00"> error: 0.290, n=118 </text>
<text text-anchor="start" x="294.6" y="-544.51" font-family="Helvetica,sans-Serif" font-size="14.00"> p: (0.95, 0.05) </text>
<text text-anchor="start" x="344.1" y="-530.51" font-family="Helvetica,sans-Serif" font-size="14.00">&#45;&#45;</text>
<text text-anchor="start" x="339.1" y="-516.51" font-family="Helvetica,sans-Serif" font-weight="bold" font-size="14.00">V6</text>
</g>
<!-- 1&#45;&gt;2 -->
<g id="edge2" class="edge">
<title>1:s&#45;&gt;2:n</title>
<path fill="none" stroke="black" d="M466.6,-637.71C466.6,-637.71 386.36,-602.74 358.78,-590.71"/>
<polygon fill="black" stroke="black" points="360.17,-587.5 349.6,-586.71 357.37,-593.92 360.17,-587.5"/>
<text text-anchor="middle" x="442.6" y="-608.51" font-family="Helvetica,sans-Serif" font-size="14.00">&gt; 3.2</text>
</g>
<!-- 9 -->
<g id="node4" class="node">
<title>9</title>
<polygon fill="#e5b844" stroke="black" points="675.6,-586.71 511.6,-586.71 511.6,-508.71 675.6,-508.71 675.6,-586.71"/>
<text text-anchor="start" x="554.6" y="-572.51" font-family="Helvetica,sans-Serif" font-weight="bold" font-size="14.00"> Class=1 </text>
<text text-anchor="start" x="627.6" y="-572.51" font-family="Helvetica,sans-Serif" font-size="14.00"> </text>
<text text-anchor="start" x="519.6" y="-558.51" font-family="Helvetica,sans-Serif" font-size="14.00"> error: 0.931, n=465 </text>
<text text-anchor="start" x="538.6" y="-544.51" font-family="Helvetica,sans-Serif" font-size="14.00"> p: (0.65, 0.35) </text>
<text text-anchor="start" x="588.1" y="-530.51" font-family="Helvetica,sans-Serif" font-size="14.00">&#45;&#45;</text>
<text text-anchor="start" x="583.1" y="-516.51" font-family="Helvetica,sans-Serif" font-weight="bold" font-size="14.00">V6</text>
</g>
<!-- 1&#45;&gt;9 -->
<g id="edge3" class="edge">
<title>1:s&#45;&gt;9:n</title>
<path fill="none" stroke="black" d="M466.6,-637.71C466.6,-637.71 554.52,-602.4 584.06,-590.54"/>
<polygon fill="black" stroke="black" points="585.63,-593.69 593.6,-586.71 583.02,-587.19 585.63,-593.69"/>
<text text-anchor="middle" x="571.6" y="-608.51" font-family="Helvetica,sans-Serif" font-size="14.00">&lt;= 3.2</text>
</g>
<!-- 3 -->
<g id="node5" class="node">
<title>3</title>
<polygon fill="#8dcc3d" stroke="black" points="405.6,-457.71 241.6,-457.71 241.6,-379.71 405.6,-379.71 405.6,-457.71"/>
<text text-anchor="start" x="284.6" y="-443.51" font-family="Helvetica,sans-Serif" font-weight="bold" font-size="14.00"> Class=1 </text>
<text text-anchor="start" x="357.6" y="-443.51" font-family="Helvetica,sans-Serif" font-size="14.00"> </text>
<text text-anchor="start" x="249.6" y="-429.51" font-family="Helvetica,sans-Serif" font-size="14.00"> error: 0.255, n=117 </text>
<text text-anchor="start" x="268.6" y="-415.51" font-family="Helvetica,sans-Serif" font-size="14.00"> p: (0.96, 0.04) </text>
<text text-anchor="start" x="318.1" y="-401.51" font-family="Helvetica,sans-Serif" font-size="14.00">&#45;&#45;</text>
<text text-anchor="start" x="313.1" y="-387.51" font-family="Helvetica,sans-Serif" font-weight="bold" font-size="14.00">V8</text>
</g>
<!-- 2&#45;&gt;3 -->
<g id="edge4" class="edge">
<title>2:s&#45;&gt;3:n</title>
<path fill="none" stroke="black" d="M349.6,-508.71C349.6,-508.71 335.88,-481.79 328.37,-467.06"/>
<polygon fill="black" stroke="black" points="331.26,-465.03 323.6,-457.71 325.03,-468.21 331.26,-465.03"/>
<text text-anchor="middle" x="358.1" y="-479.51" font-family="Helvetica,sans-Serif" font-size="14.00">&gt; 11</text>
</g>
<!-- 10 -->
<g id="node11" class="node">
<title>10</title>
<ellipse fill="#8dcc3d" stroke="black" cx="593.6" cy="-418.71" rx="115.93" ry="35.21"/>
<text text-anchor="start" x="554.6" y="-429.51" font-family="Helvetica,sans-Serif" font-weight="bold" font-size="14.00"> Class=1 </text>
<text text-anchor="start" x="627.6" y="-429.51" font-family="Helvetica,sans-Serif" font-size="14.00"> </text>
<text text-anchor="start" x="519.6" y="-415.51" font-family="Helvetica,sans-Serif" font-size="14.00"> error: 0.965, n=395 </text>
<text text-anchor="start" x="538.6" y="-401.51" font-family="Helvetica,sans-Serif" font-size="14.00"> p: (0.61, 0.39) </text>
</g>
<!-- 9&#45;&gt;10 -->
<g id="edge10" class="edge">
<title>9:s&#45;&gt;10:n</title>
<path fill="none" stroke="black" d="M593.6,-508.71C593.6,-508.71 593.6,-481.33 593.6,-465.93"/>
<polygon fill="black" stroke="black" points="597.1,-465.71 593.6,-455.71 590.1,-465.71 597.1,-465.71"/>
<text text-anchor="middle" x="617.1" y="-479.51" font-family="Helvetica,sans-Serif" font-size="14.00">&lt;= 70</text>
</g>
<!-- 11 -->
<g id="node12" class="node">
<title>11</title>
<polygon fill="#8dcc3d" stroke="black" points="936.1,-457.71 781.1,-457.71 781.1,-379.71 936.1,-379.71 936.1,-457.71"/>
<text text-anchor="start" x="819.6" y="-443.51" font-family="Helvetica,sans-Serif" font-weight="bold" font-size="14.00"> Class=1 </text>
<text text-anchor="start" x="892.6" y="-443.51" font-family="Helvetica,sans-Serif" font-size="14.00"> </text>
<text text-anchor="start" x="789.1" y="-429.51" font-family="Helvetica,sans-Serif" font-size="14.00"> error: 0.469, n=70 </text>
<text text-anchor="start" x="803.6" y="-415.51" font-family="Helvetica,sans-Serif" font-size="14.00"> p: (0.90, 0.10) </text>
<text text-anchor="start" x="853.1" y="-401.51" font-family="Helvetica,sans-Serif" font-size="14.00">&#45;&#45;</text>
<text text-anchor="start" x="848.1" y="-387.51" font-family="Helvetica,sans-Serif" font-weight="bold" font-size="14.00">V1</text>
</g>
<!-- 9&#45;&gt;11 -->
<g id="edge11" class="edge">
<title>9:s&#45;&gt;11:n</title>
<path fill="none" stroke="black" d="M593.6,-508.71C593.6,-508.71 800.13,-468.96 848.54,-459.65"/>
<polygon fill="black" stroke="black" points="849.44,-463.04 858.6,-457.71 848.12,-456.16 849.44,-463.04"/>
<text text-anchor="middle" x="775.1" y="-479.51" font-family="Helvetica,sans-Serif" font-size="14.00">&gt; 70</text>
</g>
<!-- 4 -->
<g id="node6" class="node">
<title>4</title>
<polygon fill="#44e55e" stroke="black" points="247.1,-328.71 92.1,-328.71 92.1,-250.71 247.1,-250.71 247.1,-328.71"/>
<text text-anchor="start" x="130.6" y="-314.51" font-family="Helvetica,sans-Serif" font-weight="bold" font-size="14.00"> Class=1 </text>
<text text-anchor="start" x="203.6" y="-314.51" font-family="Helvetica,sans-Serif" font-size="14.00"> </text>
<text text-anchor="start" x="100.1" y="-300.51" font-family="Helvetica,sans-Serif" font-size="14.00"> error: 0.457, n=52 </text>
<text text-anchor="start" x="114.6" y="-286.51" font-family="Helvetica,sans-Serif" font-size="14.00"> p: (0.90, 0.10) </text>
<text text-anchor="start" x="164.1" y="-272.51" font-family="Helvetica,sans-Serif" font-size="14.00">&#45;&#45;</text>
<text text-anchor="start" x="159.1" y="-258.51" font-family="Helvetica,sans-Serif" font-weight="bold" font-size="14.00">V3</text>
</g>
<!-- 3&#45;&gt;4 -->
<g id="edge5" class="edge">
<title>3:s&#45;&gt;4:n</title>
<path fill="none" stroke="black" d="M323.6,-379.71C323.6,-379.71 212.95,-343.07 179.23,-331.9"/>
<polygon fill="black" stroke="black" points="180.19,-328.53 169.6,-328.71 177.99,-335.18 180.19,-328.53"/>
<text text-anchor="middle" x="291.6" y="-350.51" font-family="Helvetica,sans-Serif" font-size="14.00">&lt;= 6.3</text>
</g>
<!-- 8 -->
<g id="node7" class="node">
<title>8</title>
<ellipse fill="#44e55e" stroke="black" cx="428.6" cy="-289.71" rx="109.7" ry="35.21"/>
<text text-anchor="start" x="389.6" y="-300.51" font-family="Helvetica,sans-Serif" font-weight="bold" font-size="14.00"> Class=1 </text>
<text text-anchor="start" x="462.6" y="-300.51" font-family="Helvetica,sans-Serif" font-size="14.00"> </text>
<text text-anchor="start" x="359.1" y="-286.51" font-family="Helvetica,sans-Serif" font-size="14.00"> error: 0.000, n=65 </text>
<text text-anchor="start" x="373.6" y="-272.51" font-family="Helvetica,sans-Serif" font-size="14.00"> p: (1.00, 0.00) </text>
</g>
<!-- 3&#45;&gt;8 -->
<g id="edge6" class="edge">
<title>3:s&#45;&gt;8:n</title>
<path fill="none" stroke="black" d="M323.6,-379.71C323.6,-379.71 394.26,-344.05 419.65,-331.23"/>
<polygon fill="black" stroke="black" points="421.25,-334.34 428.6,-326.71 418.1,-328.09 421.25,-334.34"/>
<text text-anchor="middle" x="408.6" y="-350.51" font-family="Helvetica,sans-Serif" font-size="14.00">&gt; 6.3</text>
</g>
<!-- 5 -->
<g id="node8" class="node">
<title>5</title>
<polygon fill="#3dccba" stroke="black" points="187.1,-199.71 32.1,-199.71 32.1,-121.71 187.1,-121.71 187.1,-199.71"/>
<text text-anchor="start" x="70.6" y="-185.51" font-family="Helvetica,sans-Serif" font-weight="bold" font-size="14.00"> Class=1 </text>
<text text-anchor="start" x="143.6" y="-185.51" font-family="Helvetica,sans-Serif" font-size="14.00"> </text>
<text text-anchor="start" x="40.1" y="-171.51" font-family="Helvetica,sans-Serif" font-size="14.00"> error: 0.663, n=29 </text>
<text text-anchor="start" x="54.6" y="-157.51" font-family="Helvetica,sans-Serif" font-size="14.00"> p: (0.83, 0.17) </text>
<text text-anchor="start" x="104.1" y="-143.51" font-family="Helvetica,sans-Serif" font-size="14.00">&#45;&#45;</text>
<text text-anchor="start" x="99.1" y="-129.51" font-family="Helvetica,sans-Serif" font-weight="bold" font-size="14.00">V5</text>
</g>
<!-- 4&#45;&gt;5 -->
<g id="edge7" class="edge">
<title>4:s&#45;&gt;5:n</title>
<path fill="none" stroke="black" d="M169.6,-250.71C169.6,-250.71 133.71,-220.2 117.45,-206.38"/>
<polygon fill="black" stroke="black" points="119.49,-203.52 109.6,-199.71 114.95,-208.85 119.49,-203.52"/>
<text text-anchor="middle" x="178.1" y="-221.51" font-family="Helvetica,sans-Serif" font-size="14.00">&lt;= 10.6</text>
</g>
<!-- 7 -->
<g id="node9" class="node">
<title>7</title>
<ellipse fill="#3dccba" stroke="black" cx="368.6" cy="-160.71" rx="109.7" ry="35.21"/>
<text text-anchor="start" x="329.6" y="-171.51" font-family="Helvetica,sans-Serif" font-weight="bold" font-size="14.00"> Class=1 </text>
<text text-anchor="start" x="402.6" y="-171.51" font-family="Helvetica,sans-Serif" font-size="14.00"> </text>
<text text-anchor="start" x="299.1" y="-157.51" font-family="Helvetica,sans-Serif" font-size="14.00"> error: 0.000, n=23 </text>
<text text-anchor="start" x="313.6" y="-143.51" font-family="Helvetica,sans-Serif" font-size="14.00"> p: (1.00, 0.00) </text>
</g>
<!-- 4&#45;&gt;7 -->
<g id="edge8" class="edge">
<title>4:s&#45;&gt;7:n</title>
<path fill="none" stroke="black" d="M169.6,-250.71C169.6,-250.71 318.58,-211.03 358.73,-200.34"/>
<polygon fill="black" stroke="black" points="359.84,-203.67 368.6,-197.71 358.04,-196.9 359.84,-203.67"/>
<text text-anchor="middle" x="318.1" y="-221.51" font-family="Helvetica,sans-Serif" font-size="14.00">&gt; 10.6</text>
</g>
<!-- 6 -->
<g id="node10" class="node">
<title>6</title>
<ellipse fill="#4485e5" stroke="black" cx="109.6" cy="-35.36" rx="109.7" ry="35.21"/>
<text text-anchor="start" x="70.6" y="-46.16" font-family="Helvetica,sans-Serif" font-weight="bold" font-size="14.00"> Class=1 </text>
<text text-anchor="start" x="143.6" y="-46.16" font-family="Helvetica,sans-Serif" font-size="14.00"> </text>
<text text-anchor="start" x="40.1" y="-32.16" font-family="Helvetica,sans-Serif" font-size="14.00"> error: 0.426, n=23 </text>
<text text-anchor="start" x="54.6" y="-18.16" font-family="Helvetica,sans-Serif" font-size="14.00"> p: (0.91, 0.09) </text>
</g>
<!-- 5&#45;&gt;6 -->
<g id="edge9" class="edge">
<title>5:s&#45;&gt;6:n</title>
<path fill="none" stroke="black" d="M109.6,-121.71C109.6,-121.71 109.6,-95.93 109.6,-81.03"/>
<polygon fill="black" stroke="black" points="113.1,-80.71 109.6,-70.71 106.1,-80.71 113.1,-80.71"/>
<text text-anchor="middle" x="137.6" y="-92.51" font-family="Helvetica,sans-Serif" font-size="14.00">&lt;= 599</text>
</g>
<!-- 12 -->
<g id="node13" class="node">
<title>12</title>
<polygon fill="#44e55e" stroke="black" points="765.1,-328.71 610.1,-328.71 610.1,-250.71 765.1,-250.71 765.1,-328.71"/>
<text text-anchor="start" x="648.6" y="-314.51" font-family="Helvetica,sans-Serif" font-weight="bold" font-size="14.00"> Class=1 </text>
<text text-anchor="start" x="721.6" y="-314.51" font-family="Helvetica,sans-Serif" font-size="14.00"> </text>
<text text-anchor="start" x="618.1" y="-300.51" font-family="Helvetica,sans-Serif" font-size="14.00"> error: 0.689, n=38 </text>
<text text-anchor="start" x="632.6" y="-286.51" font-family="Helvetica,sans-Serif" font-size="14.00"> p: (0.82, 0.18) </text>
<text text-anchor="start" x="682.1" y="-272.51" font-family="Helvetica,sans-Serif" font-size="14.00">&#45;&#45;</text>
<text text-anchor="start" x="677.1" y="-258.51" font-family="Helvetica,sans-Serif" font-weight="bold" font-size="14.00">V6</text>
</g>
<!-- 11&#45;&gt;12 -->
<g id="edge12" class="edge">
<title>11:s&#45;&gt;12:n</title>
<path fill="none" stroke="black" d="M858.6,-379.71C858.6,-379.71 733.46,-342.39 697.29,-331.6"/>
<polygon fill="black" stroke="black" points="698.18,-328.21 687.6,-328.71 696.18,-334.92 698.18,-328.21"/>
<text text-anchor="middle" x="816.1" y="-350.51" font-family="Helvetica,sans-Serif" font-size="14.00">&lt;= 41</text>
</g>
<!-- 15 -->
<g id="node14" class="node">
<title>15</title>
<ellipse fill="#44e55e" stroke="black" cx="946.6" cy="-289.71" rx="109.7" ry="35.21"/>
<text text-anchor="start" x="907.6" y="-300.51" font-family="Helvetica,sans-Serif" font-weight="bold" font-size="14.00"> Class=1 </text>
<text text-anchor="start" x="980.6" y="-300.51" font-family="Helvetica,sans-Serif" font-size="14.00"> </text>
<text text-anchor="start" x="877.1" y="-286.51" font-family="Helvetica,sans-Serif" font-size="14.00"> error: 0.000, n=32 </text>
<text text-anchor="start" x="891.6" y="-272.51" font-family="Helvetica,sans-Serif" font-size="14.00"> p: (1.00, 0.00) </text>
</g>
<!-- 11&#45;&gt;15 -->
<g id="edge13" class="edge">
<title>11:s&#45;&gt;15:n</title>
<path fill="none" stroke="black" d="M858.6,-379.71C858.6,-379.71 915.58,-345.39 937.84,-331.99"/>
<polygon fill="black" stroke="black" points="939.84,-334.87 946.6,-326.71 936.23,-328.87 939.84,-334.87"/>
<text text-anchor="middle" x="930.1" y="-350.51" font-family="Helvetica,sans-Serif" font-size="14.00">&gt; 41</text>
</g>
<!-- 13 -->
<g id="node15" class="node">
<title>13</title>
<polygon fill="#3dccba" stroke="black" points="765.1,-199.71 610.1,-199.71 610.1,-121.71 765.1,-121.71 765.1,-199.71"/>
<text text-anchor="start" x="648.6" y="-185.51" font-family="Helvetica,sans-Serif" font-weight="bold" font-size="14.00"> Class=1 </text>
<text text-anchor="start" x="721.6" y="-185.51" font-family="Helvetica,sans-Serif" font-size="14.00"> </text>
<text text-anchor="start" x="618.1" y="-171.51" font-family="Helvetica,sans-Serif" font-size="14.00"> error: 0.811, n=28 </text>
<text text-anchor="start" x="632.6" y="-157.51" font-family="Helvetica,sans-Serif" font-size="14.00"> p: (0.75, 0.25) </text>
<text text-anchor="start" x="682.1" y="-143.51" font-family="Helvetica,sans-Serif" font-size="14.00">&#45;&#45;</text>
<text text-anchor="start" x="677.1" y="-129.51" font-family="Helvetica,sans-Serif" font-weight="bold" font-size="14.00">V1</text>
</g>
<!-- 12&#45;&gt;13 -->
<g id="edge14" class="edge">
<title>12:s&#45;&gt;13:n</title>
<path fill="none" stroke="black" d="M687.6,-250.71C687.6,-250.71 687.6,-224.93 687.6,-210.03"/>
<polygon fill="black" stroke="black" points="691.1,-209.71 687.6,-199.71 684.1,-209.71 691.1,-209.71"/>
<text text-anchor="middle" x="715.6" y="-221.51" font-family="Helvetica,sans-Serif" font-size="14.00">&lt;= 168</text>
</g>
<!-- 14 -->
<g id="node16" class="node">
<title>14</title>
<ellipse fill="#4485e5" stroke="black" cx="687.6" cy="-35.36" rx="109.7" ry="35.21"/>
<text text-anchor="start" x="648.6" y="-46.16" font-family="Helvetica,sans-Serif" font-weight="bold" font-size="14.00"> Class=1 </text>
<text text-anchor="start" x="721.6" y="-46.16" font-family="Helvetica,sans-Serif" font-size="14.00"> </text>
<text text-anchor="start" x="618.1" y="-32.16" font-family="Helvetica,sans-Serif" font-size="14.00"> error: 0.764, n=27 </text>
<text text-anchor="start" x="632.6" y="-18.16" font-family="Helvetica,sans-Serif" font-size="14.00"> p: (0.78, 0.22) </text>
</g>
<!-- 13&#45;&gt;14 -->
<g id="edge15" class="edge">
<title>13:s&#45;&gt;14:n</title>
<path fill="none" stroke="black" d="M687.6,-121.71C687.6,-121.71 687.6,-95.93 687.6,-81.03"/>
<polygon fill="black" stroke="black" points="691.1,-80.71 687.6,-70.71 684.1,-80.71 691.1,-80.71"/>
<text text-anchor="middle" x="700.6" y="-92.51" font-family="Helvetica,sans-Serif" font-size="14.00">&gt; 4</text>
</g>
</g>
</svg>
