<?xml version="1.0" encoding="UTF-8" standalone="no"?>
<!DOCTYPE svg PUBLIC "-//W3C//DTD SVG 1.1//EN"
 "http://www.w3.org/Graphics/SVG/1.1/DTD/svg11.dtd">
<!-- Generated by graphviz version 2.43.0 (0)
 -->
<!-- Title: Tree Pages: 1 -->
<svg width="856pt" height="825pt"
 viewBox="0.00 0.00 856.33 824.71" xmlns="http://www.w3.org/2000/svg" xmlns:xlink="http://www.w3.org/1999/xlink">
<g id="graph0" class="graph" transform="scale(1 1) rotate(0) translate(18 806.71)">
<title>Tree</title>
<polygon fill="white" stroke="transparent" points="-18,18 -18,-806.71 838.33,-806.71 838.33,18 -18,18"/>
<!-- 0 -->
<g id="node1" class="node">
<title>0</title>
<polygon fill="white" stroke="transparent" points="555.33,-788.71 501.33,-788.71 501.33,-752.71 555.33,-752.71 555.33,-788.71"/>
<text text-anchor="middle" x="528.33" y="-767.01" font-family="Helvetica,sans-Serif" font-size="14.00">0</text>
</g>
<!-- 1 -->
<g id="node2" class="node">
<title>1</title>
<polygon fill="#cc3d3d" stroke="black" points="614.83,-715.71 441.83,-715.71 441.83,-637.71 614.83,-637.71 614.83,-715.71"/>
<text text-anchor="start" x="474.83" y="-701.51" font-family="Helvetica,sans-Serif" font-weight="bold" font-size="14.00"> Class=noad </text>
<text text-anchor="start" x="576.83" y="-701.51" font-family="Helvetica,sans-Serif" font-size="14.00"> </text>
<text text-anchor="start" x="449.83" y="-687.51" font-family="Helvetica,sans-Serif" font-size="14.00"> error: 0.584, n=3279 </text>
<text text-anchor="start" x="473.33" y="-673.51" font-family="Helvetica,sans-Serif" font-size="14.00"> p: (0.14, 0.86) </text>
<text text-anchor="start" x="501.83" y="-659.51" font-family="Helvetica,sans-Serif" font-size="14.00">&#45;&#45;&#45;&#45;&#45;&#45;&#45;&#45;&#45;&#45;</text>
<text text-anchor="start" x="484.83" y="-645.51" font-family="Helvetica,sans-Serif" font-weight="bold" font-size="14.00">ancurl.com</text>
</g>
<!-- 0&#45;&gt;1 -->
<!-- 2 -->
<g id="node3" class="node">
<title>2</title>
<polygon fill="#e5b844" stroke="black" points="484.83,-586.71 311.83,-586.71 311.83,-508.71 484.83,-508.71 484.83,-586.71"/>
<text text-anchor="start" x="344.83" y="-572.51" font-family="Helvetica,sans-Serif" font-weight="bold" font-size="14.00"> Class=noad </text>
<text text-anchor="start" x="446.83" y="-572.51" font-family="Helvetica,sans-Serif" font-size="14.00"> </text>
<text text-anchor="start" x="319.83" y="-558.51" font-family="Helvetica,sans-Serif" font-size="14.00"> error: 0.429, n=3072 </text>
<text text-anchor="start" x="343.33" y="-544.51" font-family="Helvetica,sans-Serif" font-size="14.00"> p: (0.09, 0.91) </text>
<text text-anchor="start" x="379.83" y="-530.51" font-family="Helvetica,sans-Serif" font-size="14.00">&#45;&#45;&#45;&#45;&#45;&#45;&#45;</text>
<text text-anchor="start" x="370.83" y="-516.51" font-family="Helvetica,sans-Serif" font-weight="bold" font-size="14.00">url.ads</text>
</g>
<!-- 1&#45;&gt;2 -->
<g id="edge2" class="edge">
<title>1:s&#45;&gt;2:n</title>
<path fill="none" stroke="black" d="M528.33,-637.71C528.33,-637.71 437.49,-602.07 407.68,-590.38"/>
<polygon fill="black" stroke="black" points="408.92,-587.1 398.33,-586.71 406.36,-593.62 408.92,-587.1"/>
<text text-anchor="middle" x="484.33" y="-608.51" font-family="Helvetica,sans-Serif" font-size="14.00">0</text>
</g>
<!-- 8 -->
<g id="node4" class="node">
<title>8</title>
<polygon fill="#e5b844" stroke="black" points="763.83,-586.71 556.83,-586.71 556.83,-508.71 763.83,-508.71 763.83,-586.71"/>
<text text-anchor="start" x="616.83" y="-572.51" font-family="Helvetica,sans-Serif" font-weight="bold" font-size="14.00"> Class=ad </text>
<text text-anchor="start" x="698.83" y="-572.51" font-family="Helvetica,sans-Serif" font-size="14.00"> </text>
<text text-anchor="start" x="586.33" y="-558.51" font-family="Helvetica,sans-Serif" font-size="14.00"> error: 0.426, n=207 </text>
<text text-anchor="start" x="605.33" y="-544.51" font-family="Helvetica,sans-Serif" font-size="14.00"> p: (0.91, 0.09) </text>
<text text-anchor="start" x="602.33" y="-530.51" font-family="Helvetica,sans-Serif" font-size="14.00">&#45;&#45;&#45;&#45;&#45;&#45;&#45;&#45;&#45;&#45;&#45;&#45;&#45;&#45;&#45;&#45;&#45;&#45;&#45;&#45;&#45;&#45;</text>
<text text-anchor="start" x="564.83" y="-516.51" font-family="Helvetica,sans-Serif" font-weight="bold" font-size="14.00">ancurl.readersndex.com</text>
</g>
<!-- 1&#45;&gt;8 -->
<g id="edge3" class="edge">
<title>1:s&#45;&gt;8:n</title>
<path fill="none" stroke="black" d="M528.33,-637.71C528.33,-637.71 620.57,-602.07 650.84,-590.38"/>
<polygon fill="black" stroke="black" points="652.26,-593.58 660.33,-586.71 649.74,-587.05 652.26,-593.58"/>
<text text-anchor="middle" x="615.33" y="-608.51" font-family="Helvetica,sans-Serif" font-size="14.00">1</text>
</g>
<!-- 3 -->
<g id="node5" class="node">
<title>3</title>
<polygon fill="#8dcc3d" stroke="black" points="484.83,-457.71 311.83,-457.71 311.83,-379.71 484.83,-379.71 484.83,-457.71"/>
<text text-anchor="start" x="344.83" y="-443.51" font-family="Helvetica,sans-Serif" font-weight="bold" font-size="14.00"> Class=noad </text>
<text text-anchor="start" x="446.83" y="-443.51" font-family="Helvetica,sans-Serif" font-size="14.00"> </text>
<text text-anchor="start" x="319.83" y="-429.51" font-family="Helvetica,sans-Serif" font-size="14.00"> error: 0.349, n=2995 </text>
<text text-anchor="start" x="343.33" y="-415.51" font-family="Helvetica,sans-Serif" font-size="14.00"> p: (0.07, 0.93) </text>
<text text-anchor="start" x="384.83" y="-401.51" font-family="Helvetica,sans-Serif" font-size="14.00">&#45;&#45;&#45;&#45;&#45;</text>
<text text-anchor="start" x="376.33" y="-387.51" font-family="Helvetica,sans-Serif" font-weight="bold" font-size="14.00">width</text>
</g>
<!-- 2&#45;&gt;3 -->
<g id="edge4" class="edge">
<title>2:s&#45;&gt;3:n</title>
<path fill="none" stroke="black" d="M398.33,-508.71C398.33,-508.71 398.33,-482.93 398.33,-468.03"/>
<polygon fill="black" stroke="black" points="401.83,-467.71 398.33,-457.71 394.83,-467.71 401.83,-467.71"/>
<text text-anchor="middle" x="403.33" y="-479.51" font-family="Helvetica,sans-Serif" font-size="14.00">0</text>
</g>
<!-- 9 -->
<g id="node10" class="node">
<title>9</title>
<polygon fill="#8dcc3d" stroke="black" points="776.33,-457.71 570.33,-457.71 570.33,-379.71 776.33,-379.71 776.33,-457.71"/>
<text text-anchor="start" x="629.83" y="-443.51" font-family="Helvetica,sans-Serif" font-weight="bold" font-size="14.00"> Class=ad </text>
<text text-anchor="start" x="711.83" y="-443.51" font-family="Helvetica,sans-Serif" font-size="14.00"> </text>
<text text-anchor="start" x="599.33" y="-429.51" font-family="Helvetica,sans-Serif" font-size="14.00"> error: 0.267, n=198 </text>
<text text-anchor="start" x="618.33" y="-415.51" font-family="Helvetica,sans-Serif" font-size="14.00"> p: (0.95, 0.05) </text>
<text text-anchor="start" x="615.33" y="-401.51" font-family="Helvetica,sans-Serif" font-size="14.00">&#45;&#45;&#45;&#45;&#45;&#45;&#45;&#45;&#45;&#45;&#45;&#45;&#45;&#45;&#45;&#45;&#45;&#45;&#45;&#45;&#45;&#45;</text>
<text text-anchor="start" x="578.33" y="-387.51" font-family="Helvetica,sans-Serif" font-weight="bold" font-size="14.00">url.members.tripod.com</text>
</g>
<!-- 8&#45;&gt;9 -->
<g id="edge9" class="edge">
<title>8:s&#45;&gt;9:n</title>
<path fill="none" stroke="black" d="M660.33,-508.71C660.33,-508.71 667.05,-482.36 670.82,-467.54"/>
<polygon fill="black" stroke="black" points="674.25,-468.27 673.33,-457.71 667.47,-466.54 674.25,-468.27"/>
<text text-anchor="middle" x="674.33" y="-479.51" font-family="Helvetica,sans-Serif" font-size="14.00">0</text>
</g>
<!-- 4 -->
<g id="node6" class="node">
<title>4</title>
<ellipse fill="#44e55e" stroke="black" cx="122.33" cy="-289.71" rx="122.16" ry="35.21"/>
<text text-anchor="start" x="68.83" y="-300.51" font-family="Helvetica,sans-Serif" font-weight="bold" font-size="14.00"> Class=noad </text>
<text text-anchor="start" x="170.83" y="-300.51" font-family="Helvetica,sans-Serif" font-size="14.00"> </text>
<text text-anchor="start" x="43.83" y="-286.51" font-family="Helvetica,sans-Serif" font-size="14.00"> error: 0.229, n=2770 </text>
<text text-anchor="start" x="67.33" y="-272.51" font-family="Helvetica,sans-Serif" font-size="14.00"> p: (0.04, 0.96) </text>
</g>
<!-- 3&#45;&gt;4 -->
<g id="edge5" class="edge">
<title>3:s&#45;&gt;4:n</title>
<path fill="none" stroke="black" d="M398.33,-379.71C398.33,-379.71 181.32,-338.04 132.15,-328.6"/>
<polygon fill="black" stroke="black" points="132.81,-325.16 122.33,-326.71 131.49,-332.03 132.81,-325.16"/>
<text text-anchor="middle" x="329.33" y="-350.51" font-family="Helvetica,sans-Serif" font-size="14.00">&lt;= 240</text>
</g>
<!-- 5 -->
<g id="node7" class="node">
<title>5</title>
<polygon fill="#44e55e" stroke="black" points="480.33,-328.71 316.33,-328.71 316.33,-250.71 480.33,-250.71 480.33,-328.71"/>
<text text-anchor="start" x="344.83" y="-314.51" font-family="Helvetica,sans-Serif" font-weight="bold" font-size="14.00"> Class=noad </text>
<text text-anchor="start" x="446.83" y="-314.51" font-family="Helvetica,sans-Serif" font-size="14.00"> </text>
<text text-anchor="start" x="324.33" y="-300.51" font-family="Helvetica,sans-Serif" font-size="14.00"> error: 0.978, n=225 </text>
<text text-anchor="start" x="343.33" y="-286.51" font-family="Helvetica,sans-Serif" font-size="14.00"> p: (0.41, 0.59) </text>
<text text-anchor="start" x="384.83" y="-272.51" font-family="Helvetica,sans-Serif" font-size="14.00">&#45;&#45;&#45;&#45;&#45;</text>
<text text-anchor="start" x="376.33" y="-258.51" font-family="Helvetica,sans-Serif" font-weight="bold" font-size="14.00">width</text>
</g>
<!-- 3&#45;&gt;5 -->
<g id="edge6" class="edge">
<title>3:s&#45;&gt;5:n</title>
<path fill="none" stroke="black" d="M398.33,-379.71C398.33,-379.71 398.33,-353.93 398.33,-339.03"/>
<polygon fill="black" stroke="black" points="401.83,-338.71 398.33,-328.71 394.83,-338.71 401.83,-338.71"/>
<text text-anchor="middle" x="420.33" y="-350.51" font-family="Helvetica,sans-Serif" font-size="14.00">&gt; 240</text>
</g>
<!-- 6 -->
<g id="node8" class="node">
<title>6</title>
<polygon fill="#3dccba" stroke="black" points="480.33,-199.71 316.33,-199.71 316.33,-121.71 480.33,-121.71 480.33,-199.71"/>
<text text-anchor="start" x="354.83" y="-185.51" font-family="Helvetica,sans-Serif" font-weight="bold" font-size="14.00"> Class=ad </text>
<text text-anchor="start" x="436.83" y="-185.51" font-family="Helvetica,sans-Serif" font-size="14.00"> </text>
<text text-anchor="start" x="324.33" y="-171.51" font-family="Helvetica,sans-Serif" font-size="14.00"> error: 0.972, n=149 </text>
<text text-anchor="start" x="343.33" y="-157.51" font-family="Helvetica,sans-Serif" font-size="14.00"> p: (0.60, 0.40) </text>
<text text-anchor="start" x="384.83" y="-143.51" font-family="Helvetica,sans-Serif" font-size="14.00">&#45;&#45;&#45;&#45;&#45;</text>
<text text-anchor="start" x="376.33" y="-129.51" font-family="Helvetica,sans-Serif" font-weight="bold" font-size="14.00">width</text>
</g>
<!-- 5&#45;&gt;6 -->
<g id="edge7" class="edge">
<title>5:s&#45;&gt;6:n</title>
<path fill="none" stroke="black" d="M398.33,-250.71C398.33,-250.71 398.33,-224.93 398.33,-210.03"/>
<polygon fill="black" stroke="black" points="401.83,-209.71 398.33,-199.71 394.83,-209.71 401.83,-209.71"/>
<text text-anchor="middle" x="420.33" y="-221.51" font-family="Helvetica,sans-Serif" font-size="14.00">&gt; 350</text>
</g>
<!-- 7 -->
<g id="node9" class="node">
<title>7</title>
<ellipse fill="#4485e5" stroke="black" cx="398.33" cy="-35.36" rx="115.93" ry="35.21"/>
<text text-anchor="start" x="354.83" y="-46.16" font-family="Helvetica,sans-Serif" font-weight="bold" font-size="14.00"> Class=ad </text>
<text text-anchor="start" x="436.83" y="-46.16" font-family="Helvetica,sans-Serif" font-size="14.00"> </text>
<text text-anchor="start" x="324.33" y="-32.16" font-family="Helvetica,sans-Serif" font-size="14.00"> error: 0.834, n=117 </text>
<text text-anchor="start" x="343.33" y="-18.16" font-family="Helvetica,sans-Serif" font-size="14.00"> p: (0.74, 0.26) </text>
</g>
<!-- 6&#45;&gt;7 -->
<g id="edge8" class="edge">
<title>6:s&#45;&gt;7:n</title>
<path fill="none" stroke="black" d="M398.33,-121.71C398.33,-121.71 398.33,-95.93 398.33,-81.03"/>
<polygon fill="black" stroke="black" points="401.83,-80.71 398.33,-70.71 394.83,-80.71 401.83,-80.71"/>
<text text-anchor="middle" x="426.33" y="-92.51" font-family="Helvetica,sans-Serif" font-size="14.00">&lt;= 470</text>
</g>
<!-- 10 -->
<g id="node11" class="node">
<title>10</title>
<polygon fill="#44e55e" stroke="black" points="820.33,-328.71 552.33,-328.71 552.33,-250.71 820.33,-250.71 820.33,-328.71"/>
<text text-anchor="start" x="642.83" y="-314.51" font-family="Helvetica,sans-Serif" font-weight="bold" font-size="14.00"> Class=ad </text>
<text text-anchor="start" x="724.83" y="-314.51" font-family="Helvetica,sans-Serif" font-size="14.00"> </text>
<text text-anchor="start" x="612.33" y="-300.51" font-family="Helvetica,sans-Serif" font-size="14.00"> error: 0.198, n=195 </text>
<text text-anchor="start" x="631.33" y="-286.51" font-family="Helvetica,sans-Serif" font-size="14.00"> p: (0.97, 0.03) </text>
<text text-anchor="start" x="609.83" y="-272.51" font-family="Helvetica,sans-Serif" font-size="14.00">&#45;&#45;&#45;&#45;&#45;&#45;&#45;&#45;&#45;&#45;&#45;&#45;&#45;&#45;&#45;&#45;&#45;&#45;&#45;&#45;&#45;&#45;&#45;&#45;&#45;&#45;&#45;&#45;&#45;</text>
<text text-anchor="start" x="560.33" y="-258.51" font-family="Helvetica,sans-Serif" font-weight="bold" font-size="14.00">origurl.www.news.observer.com</text>
</g>
<!-- 9&#45;&gt;10 -->
<g id="edge10" class="edge">
<title>9:s&#45;&gt;10:n</title>
<path fill="none" stroke="black" d="M673.33,-379.71C673.33,-379.71 680.05,-353.36 683.82,-338.54"/>
<polygon fill="black" stroke="black" points="687.25,-339.27 686.33,-328.71 680.47,-337.54 687.25,-339.27"/>
<text text-anchor="middle" x="687.33" y="-350.51" font-family="Helvetica,sans-Serif" font-size="14.00">0</text>
</g>
<!-- 11 -->
<g id="node12" class="node">
<title>11</title>
<ellipse fill="#3dccba" stroke="black" cx="686.33" cy="-160.71" rx="115.93" ry="35.21"/>
<text text-anchor="start" x="642.83" y="-171.51" font-family="Helvetica,sans-Serif" font-weight="bold" font-size="14.00"> Class=ad </text>
<text text-anchor="start" x="724.83" y="-171.51" font-family="Helvetica,sans-Serif" font-size="14.00"> </text>
<text text-anchor="start" x="612.33" y="-157.51" font-family="Helvetica,sans-Serif" font-size="14.00"> error: 0.146, n=192 </text>
<text text-anchor="start" x="631.33" y="-143.51" font-family="Helvetica,sans-Serif" font-size="14.00"> p: (0.98, 0.02) </text>
</g>
<!-- 10&#45;&gt;11 -->
<g id="edge11" class="edge">
<title>10:s&#45;&gt;11:n</title>
<path fill="none" stroke="black" d="M686.33,-250.71C686.33,-250.71 686.33,-223.33 686.33,-207.93"/>
<polygon fill="black" stroke="black" points="689.83,-207.71 686.33,-197.71 682.83,-207.71 689.83,-207.71"/>
<text text-anchor="middle" x="691.33" y="-221.51" font-family="Helvetica,sans-Serif" font-size="14.00">0</text>
</g>
</g>
</svg>
