<?xml version="1.0" encoding="UTF-8" standalone="no"?>
<!DOCTYPE svg PUBLIC "-//W3C//DTD SVG 1.1//EN"
 "http://www.w3.org/Graphics/SVG/1.1/DTD/svg11.dtd">
<!-- Generated by graphviz version 2.43.0 (0)
 -->
<!-- Title: Tree Pages: 1 -->
<svg width="612pt" height="696pt"
 viewBox="0.00 0.00 612.29 695.71" xmlns="http://www.w3.org/2000/svg" xmlns:xlink="http://www.w3.org/1999/xlink">
<g id="graph0" class="graph" transform="scale(1 1) rotate(0) translate(18 677.71)">
<title>Tree</title>
<polygon fill="white" stroke="transparent" points="-18,18 -18,-677.71 594.29,-677.71 594.29,18 -18,18"/>
<!-- 0 -->
<g id="node1" class="node">
<title>0</title>
<polygon fill="white" stroke="transparent" points="342.97,-659.71 288.97,-659.71 288.97,-623.71 342.97,-623.71 342.97,-659.71"/>
<text text-anchor="middle" x="315.97" y="-638.01" font-family="Helvetica,sans-Serif" font-size="14.00">0</text>
</g>
<!-- 1 -->
<g id="node2" class="node">
<title>1</title>
<polygon fill="#cc3d3d" stroke="black" points="402.47,-586.71 229.47,-586.71 229.47,-508.71 402.47,-508.71 402.47,-586.71"/>
<text text-anchor="start" x="261.47" y="-572.51" font-family="Helvetica,sans-Serif" font-weight="bold" font-size="14.00"> Class=False </text>
<text text-anchor="start" x="365.47" y="-572.51" font-family="Helvetica,sans-Serif" font-size="14.00"> </text>
<text text-anchor="start" x="237.47" y="-558.51" font-family="Helvetica,sans-Serif" font-size="14.00"> error: 0.621, n=2109 </text>
<text text-anchor="start" x="260.97" y="-544.51" font-family="Helvetica,sans-Serif" font-size="14.00"> p: (0.85, 0.15) </text>
<text text-anchor="start" x="312.97" y="-530.51" font-family="Helvetica,sans-Serif" font-size="14.00">&#45;</text>
<text text-anchor="start" x="313.47" y="-516.51" font-family="Helvetica,sans-Serif" font-weight="bold" font-size="14.00">i</text>
</g>
<!-- 0&#45;&gt;1 -->
<!-- 2 -->
<g id="node3" class="node">
<title>2</title>
<polygon fill="#e5d544" stroke="black" points="259.97,-457.71 95.97,-457.71 95.97,-379.71 259.97,-379.71 259.97,-457.71"/>
<text text-anchor="start" x="123.47" y="-443.51" font-family="Helvetica,sans-Serif" font-weight="bold" font-size="14.00"> Class=False </text>
<text text-anchor="start" x="227.47" y="-443.51" font-family="Helvetica,sans-Serif" font-size="14.00"> </text>
<text text-anchor="start" x="103.97" y="-429.51" font-family="Helvetica,sans-Serif" font-size="14.00"> error: 0.884, n=851 </text>
<text text-anchor="start" x="122.97" y="-415.51" font-family="Helvetica,sans-Serif" font-size="14.00"> p: (0.70, 0.30) </text>
<text text-anchor="start" x="151.47" y="-401.51" font-family="Helvetica,sans-Serif" font-size="14.00">&#45;&#45;&#45;&#45;&#45;&#45;&#45;&#45;&#45;&#45;</text>
<text text-anchor="start" x="134.97" y="-387.51" font-family="Helvetica,sans-Serif" font-weight="bold" font-size="14.00">total_Opnd</text>
</g>
<!-- 1&#45;&gt;2 -->
<g id="edge2" class="edge">
<title>1:s&#45;&gt;2:n</title>
<path fill="none" stroke="black" d="M315.97,-508.71C315.97,-508.71 218.63,-472.74 187.45,-461.22"/>
<polygon fill="black" stroke="black" points="188.56,-457.89 177.97,-457.71 186.13,-464.46 188.56,-457.89"/>
<text text-anchor="middle" x="292.97" y="-479.51" font-family="Helvetica,sans-Serif" font-size="14.00">&gt; 18.26</text>
</g>
<!-- 7 -->
<g id="node4" class="node">
<title>7</title>
<ellipse fill="#e5d544" stroke="black" cx="453.97" cy="-418.71" rx="122.16" ry="35.21"/>
<text text-anchor="start" x="399.47" y="-429.51" font-family="Helvetica,sans-Serif" font-weight="bold" font-size="14.00"> Class=False </text>
<text text-anchor="start" x="503.47" y="-429.51" font-family="Helvetica,sans-Serif" font-size="14.00"> </text>
<text text-anchor="start" x="375.47" y="-415.51" font-family="Helvetica,sans-Serif" font-size="14.00"> error: 0.307, n=1258 </text>
<text text-anchor="start" x="398.97" y="-401.51" font-family="Helvetica,sans-Serif" font-size="14.00"> p: (0.95, 0.05) </text>
</g>
<!-- 1&#45;&gt;7 -->
<g id="edge3" class="edge">
<title>1:s&#45;&gt;7:n</title>
<path fill="none" stroke="black" d="M315.97,-508.71C315.97,-508.71 413.3,-471.33 444.48,-459.35"/>
<polygon fill="black" stroke="black" points="445.89,-462.56 453.97,-455.71 443.38,-456.03 445.89,-462.56"/>
<text text-anchor="middle" x="436.97" y="-479.51" font-family="Helvetica,sans-Serif" font-size="14.00">&lt;= 18.26</text>
</g>
<!-- 3 -->
<g id="node5" class="node">
<title>3</title>
<ellipse fill="#59cc3d" stroke="black" cx="115.97" cy="-289.71" rx="115.93" ry="35.21"/>
<text text-anchor="start" x="61.47" y="-300.51" font-family="Helvetica,sans-Serif" font-weight="bold" font-size="14.00"> Class=False </text>
<text text-anchor="start" x="165.47" y="-300.51" font-family="Helvetica,sans-Serif" font-size="14.00"> </text>
<text text-anchor="start" x="41.97" y="-286.51" font-family="Helvetica,sans-Serif" font-size="14.00"> error: 0.826, n=744 </text>
<text text-anchor="start" x="60.97" y="-272.51" font-family="Helvetica,sans-Serif" font-size="14.00"> p: (0.74, 0.26) </text>
</g>
<!-- 2&#45;&gt;3 -->
<g id="edge4" class="edge">
<title>2:s&#45;&gt;3:n</title>
<path fill="none" stroke="black" d="M177.97,-379.71C177.97,-379.71 140.12,-347.36 123.57,-333.21"/>
<polygon fill="black" stroke="black" points="125.84,-330.55 115.97,-326.71 121.29,-335.87 125.84,-330.55"/>
<text text-anchor="middle" x="180.47" y="-350.51" font-family="Helvetica,sans-Serif" font-size="14.00">&lt;= 79</text>
</g>
<!-- 4 -->
<g id="node6" class="node">
<title>4</title>
<polygon fill="#59cc3d" stroke="black" points="467.97,-328.71 303.97,-328.71 303.97,-250.71 467.97,-250.71 467.97,-328.71"/>
<text text-anchor="start" x="334.97" y="-314.51" font-family="Helvetica,sans-Serif" font-weight="bold" font-size="14.00"> Class=True </text>
<text text-anchor="start" x="431.97" y="-314.51" font-family="Helvetica,sans-Serif" font-size="14.00"> </text>
<text text-anchor="start" x="311.97" y="-300.51" font-family="Helvetica,sans-Serif" font-size="14.00"> error: 0.972, n=107 </text>
<text text-anchor="start" x="330.97" y="-286.51" font-family="Helvetica,sans-Serif" font-size="14.00"> p: (0.40, 0.60) </text>
<text text-anchor="start" x="361.97" y="-272.51" font-family="Helvetica,sans-Serif" font-size="14.00">&#45;&#45;&#45;&#45;&#45;&#45;&#45;&#45;&#45;</text>
<text text-anchor="start" x="339.97" y="-258.51" font-family="Helvetica,sans-Serif" font-weight="bold" font-size="14.00">lOComment</text>
</g>
<!-- 2&#45;&gt;4 -->
<g id="edge5" class="edge">
<title>2:s&#45;&gt;4:n</title>
<path fill="none" stroke="black" d="M177.97,-379.71C177.97,-379.71 335.09,-341.19 376.21,-331.1"/>
<polygon fill="black" stroke="black" points="377.09,-334.49 385.97,-328.71 375.42,-327.69 377.09,-334.49"/>
<text text-anchor="middle" x="324.47" y="-350.51" font-family="Helvetica,sans-Serif" font-size="14.00">&gt; 79</text>
</g>
<!-- 5 -->
<g id="node7" class="node">
<title>5</title>
<polygon fill="#44e5b5" stroke="black" points="477.97,-199.71 293.97,-199.71 293.97,-121.71 477.97,-121.71 477.97,-199.71"/>
<text text-anchor="start" x="334.97" y="-185.51" font-family="Helvetica,sans-Serif" font-weight="bold" font-size="14.00"> Class=True </text>
<text text-anchor="start" x="431.97" y="-185.51" font-family="Helvetica,sans-Serif" font-size="14.00"> </text>
<text text-anchor="start" x="316.47" y="-171.51" font-family="Helvetica,sans-Serif" font-size="14.00"> error: 0.991, n=97 </text>
<text text-anchor="start" x="330.97" y="-157.51" font-family="Helvetica,sans-Serif" font-size="14.00"> p: (0.44, 0.56) </text>
<text text-anchor="start" x="340.97" y="-143.51" font-family="Helvetica,sans-Serif" font-size="14.00">&#45;&#45;&#45;&#45;&#45;&#45;&#45;&#45;&#45;&#45;&#45;&#45;&#45;&#45;&#45;&#45;&#45;</text>
<text text-anchor="start" x="301.97" y="-129.51" font-family="Helvetica,sans-Serif" font-weight="bold" font-size="14.00">locCodeAndComment</text>
</g>
<!-- 4&#45;&gt;5 -->
<g id="edge6" class="edge">
<title>4:s&#45;&gt;5:n</title>
<path fill="none" stroke="black" d="M385.97,-250.71C385.97,-250.71 385.97,-224.93 385.97,-210.03"/>
<polygon fill="black" stroke="black" points="389.47,-209.71 385.97,-199.71 382.47,-209.71 389.47,-209.71"/>
<text text-anchor="middle" x="409.47" y="-221.51" font-family="Helvetica,sans-Serif" font-size="14.00">&lt;= 20</text>
</g>
<!-- 6 -->
<g id="node8" class="node">
<title>6</title>
<ellipse fill="#3d76cc" stroke="black" cx="385.97" cy="-35.36" rx="109.7" ry="35.21"/>
<text text-anchor="start" x="334.97" y="-46.16" font-family="Helvetica,sans-Serif" font-weight="bold" font-size="14.00"> Class=True </text>
<text text-anchor="start" x="431.97" y="-46.16" font-family="Helvetica,sans-Serif" font-size="14.00"> </text>
<text text-anchor="start" x="316.47" y="-32.16" font-family="Helvetica,sans-Serif" font-size="14.00"> error: 0.957, n=82 </text>
<text text-anchor="start" x="330.97" y="-18.16" font-family="Helvetica,sans-Serif" font-size="14.00"> p: (0.38, 0.62) </text>
</g>
<!-- 5&#45;&gt;6 -->
<g id="edge7" class="edge">
<title>5:s&#45;&gt;6:n</title>
<path fill="none" stroke="black" d="M385.97,-121.71C385.97,-121.71 385.97,-95.93 385.97,-81.03"/>
<polygon fill="black" stroke="black" points="389.47,-80.71 385.97,-70.71 382.47,-80.71 389.47,-80.71"/>
<text text-anchor="middle" x="404.97" y="-92.51" font-family="Helvetica,sans-Serif" font-size="14.00">&lt;= 2</text>
</g>
</g>
</svg>
