<?xml version="1.0" encoding="UTF-8" standalone="no"?>
<!DOCTYPE svg PUBLIC "-//W3C//DTD SVG 1.1//EN"
 "http://www.w3.org/Graphics/SVG/1.1/DTD/svg11.dtd">
<!-- Generated by graphviz version 2.43.0 (0)
 -->
<!-- Title: Tree Pages: 1 -->
<svg width="955pt" height="1212pt"
 viewBox="0.00 0.00 954.57 1211.71" xmlns="http://www.w3.org/2000/svg" xmlns:xlink="http://www.w3.org/1999/xlink">
<g id="graph0" class="graph" transform="scale(1 1) rotate(0) translate(18 1193.71)">
<title>Tree</title>
<polygon fill="white" stroke="transparent" points="-18,18 -18,-1193.71 936.57,-1193.71 936.57,18 -18,18"/>
<!-- 0 -->
<g id="node1" class="node">
<title>0</title>
<polygon fill="white" stroke="transparent" points="694.6,-1175.71 640.6,-1175.71 640.6,-1139.71 694.6,-1139.71 694.6,-1175.71"/>
<text text-anchor="middle" x="667.6" y="-1154.01" font-family="Helvetica,sans-Serif" font-size="14.00">0</text>
</g>
<!-- 1 -->
<g id="node2" class="node">
<title>1</title>
<polygon fill="#cc3d3d" stroke="black" points="749.6,-1102.71 585.6,-1102.71 585.6,-1024.71 749.6,-1024.71 749.6,-1102.71"/>
<text text-anchor="start" x="624.1" y="-1088.51" font-family="Helvetica,sans-Serif" font-weight="bold" font-size="14.00"> Class=no </text>
<text text-anchor="start" x="706.1" y="-1088.51" font-family="Helvetica,sans-Serif" font-size="14.00"> </text>
<text text-anchor="start" x="593.6" y="-1074.51" font-family="Helvetica,sans-Serif" font-size="14.00"> error: 0.732, n=522 </text>
<text text-anchor="start" x="612.6" y="-1060.51" font-family="Helvetica,sans-Serif" font-size="14.00"> p: (0.80, 0.20) </text>
<text text-anchor="start" x="643.6" y="-1046.51" font-family="Helvetica,sans-Serif" font-size="14.00">&#45;&#45;&#45;&#45;&#45;&#45;&#45;&#45;&#45;</text>
<text text-anchor="start" x="626.6" y="-1032.51" font-family="Helvetica,sans-Serif" font-weight="bold" font-size="14.00">uniq_Opnd</text>
</g>
<!-- 0&#45;&gt;1 -->
<!-- 2 -->
<g id="node3" class="node">
<title>2</title>
<polygon fill="#e58d44" stroke="black" points="614.6,-973.71 450.6,-973.71 450.6,-895.71 614.6,-895.71 614.6,-973.71"/>
<text text-anchor="start" x="489.1" y="-959.51" font-family="Helvetica,sans-Serif" font-weight="bold" font-size="14.00"> Class=no </text>
<text text-anchor="start" x="571.1" y="-959.51" font-family="Helvetica,sans-Serif" font-size="14.00"> </text>
<text text-anchor="start" x="458.6" y="-945.51" font-family="Helvetica,sans-Serif" font-size="14.00"> error: 1.000, n=173 </text>
<text text-anchor="start" x="477.6" y="-931.51" font-family="Helvetica,sans-Serif" font-size="14.00"> p: (0.50, 0.50) </text>
<text text-anchor="start" x="519.1" y="-917.51" font-family="Helvetica,sans-Serif" font-size="14.00">&#45;&#45;&#45;&#45;&#45;</text>
<text text-anchor="start" x="511.1" y="-903.51" font-family="Helvetica,sans-Serif" font-weight="bold" font-size="14.00">ev(g)</text>
</g>
<!-- 1&#45;&gt;2 -->
<g id="edge2" class="edge">
<title>1:s&#45;&gt;2:n</title>
<path fill="none" stroke="black" d="M667.6,-1024.71C667.6,-1024.71 573.26,-989.07 542.31,-977.38"/>
<polygon fill="black" stroke="black" points="543.19,-973.97 532.6,-973.71 540.72,-980.52 543.19,-973.97"/>
<text text-anchor="middle" x="634.1" y="-995.51" font-family="Helvetica,sans-Serif" font-size="14.00">&gt; 15</text>
</g>
<!-- 21 -->
<g id="node4" class="node">
<title>21</title>
<ellipse fill="#e58d44" stroke="black" cx="802.6" cy="-934.71" rx="115.93" ry="35.21"/>
<text text-anchor="start" x="759.1" y="-945.51" font-family="Helvetica,sans-Serif" font-weight="bold" font-size="14.00"> Class=no </text>
<text text-anchor="start" x="841.1" y="-945.51" font-family="Helvetica,sans-Serif" font-size="14.00"> </text>
<text text-anchor="start" x="728.6" y="-931.51" font-family="Helvetica,sans-Serif" font-size="14.00"> error: 0.328, n=349 </text>
<text text-anchor="start" x="747.6" y="-917.51" font-family="Helvetica,sans-Serif" font-size="14.00"> p: (0.94, 0.06) </text>
</g>
<!-- 1&#45;&gt;21 -->
<g id="edge3" class="edge">
<title>1:s&#45;&gt;21:n</title>
<path fill="none" stroke="black" d="M667.6,-1024.71C667.6,-1024.71 761.94,-987.67 792.89,-975.52"/>
<polygon fill="black" stroke="black" points="794.57,-978.62 802.6,-971.71 792.01,-972.11 794.57,-978.62"/>
<text text-anchor="middle" x="775.1" y="-995.51" font-family="Helvetica,sans-Serif" font-size="14.00">&lt;= 15</text>
</g>
<!-- 3 -->
<g id="node5" class="node">
<title>3</title>
<polygon fill="#ccbd3d" stroke="black" points="485.6,-844.71 321.6,-844.71 321.6,-766.71 485.6,-766.71 485.6,-844.71"/>
<text text-anchor="start" x="360.1" y="-830.51" font-family="Helvetica,sans-Serif" font-weight="bold" font-size="14.00"> Class=no </text>
<text text-anchor="start" x="442.1" y="-830.51" font-family="Helvetica,sans-Serif" font-size="14.00"> </text>
<text text-anchor="start" x="329.6" y="-816.51" font-family="Helvetica,sans-Serif" font-size="14.00"> error: 0.982, n=145 </text>
<text text-anchor="start" x="348.6" y="-802.51" font-family="Helvetica,sans-Serif" font-size="14.00"> p: (0.58, 0.42) </text>
<text text-anchor="start" x="385.1" y="-788.51" font-family="Helvetica,sans-Serif" font-size="14.00">&#45;&#45;&#45;&#45;&#45;&#45;&#45;</text>
<text text-anchor="start" x="373.1" y="-774.51" font-family="Helvetica,sans-Serif" font-weight="bold" font-size="14.00">lOBlank</text>
</g>
<!-- 2&#45;&gt;3 -->
<g id="edge4" class="edge">
<title>2:s&#45;&gt;3:n</title>
<path fill="none" stroke="black" d="M532.6,-895.71C532.6,-895.71 443.3,-860.4 413.3,-848.54"/>
<polygon fill="black" stroke="black" points="414.19,-845.13 403.6,-844.71 411.61,-851.64 414.19,-845.13"/>
<text text-anchor="middle" x="502.6" y="-866.51" font-family="Helvetica,sans-Serif" font-size="14.00">&lt;= 7</text>
</g>
<!-- 19 -->
<g id="node6" class="node">
<title>19</title>
<polygon fill="#ccbd3d" stroke="black" points="727.1,-844.71 572.1,-844.71 572.1,-766.71 727.1,-766.71 727.1,-844.71"/>
<text text-anchor="start" x="602.1" y="-830.51" font-family="Helvetica,sans-Serif" font-weight="bold" font-size="14.00"> Class=yes </text>
<text text-anchor="start" x="692.1" y="-830.51" font-family="Helvetica,sans-Serif" font-size="14.00"> </text>
<text text-anchor="start" x="580.1" y="-816.51" font-family="Helvetica,sans-Serif" font-size="14.00"> error: 0.491, n=28 </text>
<text text-anchor="start" x="594.6" y="-802.51" font-family="Helvetica,sans-Serif" font-size="14.00"> p: (0.11, 0.89) </text>
<text text-anchor="start" x="631.1" y="-788.51" font-family="Helvetica,sans-Serif" font-size="14.00">&#45;&#45;&#45;&#45;&#45;&#45;&#45;</text>
<text text-anchor="start" x="619.1" y="-774.51" font-family="Helvetica,sans-Serif" font-weight="bold" font-size="14.00">lOBlank</text>
</g>
<!-- 2&#45;&gt;19 -->
<g id="edge5" class="edge">
<title>2:s&#45;&gt;19:n</title>
<path fill="none" stroke="black" d="M532.6,-895.71C532.6,-895.71 612.84,-860.74 640.42,-848.71"/>
<polygon fill="black" stroke="black" points="641.83,-851.92 649.6,-844.71 639.04,-845.5 641.83,-851.92"/>
<text text-anchor="middle" x="618.6" y="-866.51" font-family="Helvetica,sans-Serif" font-size="14.00">&gt; 7</text>
</g>
<!-- 4 -->
<g id="node7" class="node">
<title>4</title>
<polygon fill="#ade544" stroke="black" points="254.1,-715.71 99.1,-715.71 99.1,-637.71 254.1,-637.71 254.1,-715.71"/>
<text text-anchor="start" x="133.1" y="-701.51" font-family="Helvetica,sans-Serif" font-weight="bold" font-size="14.00"> Class=no </text>
<text text-anchor="start" x="215.1" y="-701.51" font-family="Helvetica,sans-Serif" font-size="14.00"> </text>
<text text-anchor="start" x="107.1" y="-687.51" font-family="Helvetica,sans-Serif" font-size="14.00"> error: 0.880, n=77 </text>
<text text-anchor="start" x="121.6" y="-673.51" font-family="Helvetica,sans-Serif" font-size="14.00"> p: (0.70, 0.30) </text>
<text text-anchor="start" x="152.6" y="-659.51" font-family="Helvetica,sans-Serif" font-size="14.00">&#45;&#45;&#45;&#45;&#45;&#45;&#45;&#45;&#45;</text>
<text text-anchor="start" x="135.6" y="-645.51" font-family="Helvetica,sans-Serif" font-weight="bold" font-size="14.00">uniq_Opnd</text>
</g>
<!-- 3&#45;&gt;4 -->
<g id="edge6" class="edge">
<title>3:s&#45;&gt;4:n</title>
<path fill="none" stroke="black" d="M403.6,-766.71C403.6,-766.71 230.58,-727.84 186.65,-717.97"/>
<polygon fill="black" stroke="black" points="187.13,-714.49 176.6,-715.71 185.59,-721.32 187.13,-714.49"/>
<text text-anchor="middle" x="336.6" y="-737.51" font-family="Helvetica,sans-Serif" font-size="14.00">&lt;= 7</text>
</g>
<!-- 12 -->
<g id="node8" class="node">
<title>12</title>
<polygon fill="#ade544" stroke="black" points="481.1,-715.71 326.1,-715.71 326.1,-637.71 481.1,-637.71 481.1,-715.71"/>
<text text-anchor="start" x="356.1" y="-701.51" font-family="Helvetica,sans-Serif" font-weight="bold" font-size="14.00"> Class=yes </text>
<text text-anchor="start" x="446.1" y="-701.51" font-family="Helvetica,sans-Serif" font-size="14.00"> </text>
<text text-anchor="start" x="334.1" y="-687.51" font-family="Helvetica,sans-Serif" font-size="14.00"> error: 0.990, n=68 </text>
<text text-anchor="start" x="348.6" y="-673.51" font-family="Helvetica,sans-Serif" font-size="14.00"> p: (0.44, 0.56) </text>
<text text-anchor="start" x="390.1" y="-659.51" font-family="Helvetica,sans-Serif" font-size="14.00">&#45;&#45;&#45;&#45;&#45;</text>
<text text-anchor="start" x="382.1" y="-645.51" font-family="Helvetica,sans-Serif" font-weight="bold" font-size="14.00">ev(g)</text>
</g>
<!-- 3&#45;&gt;12 -->
<g id="edge7" class="edge">
<title>3:s&#45;&gt;12:n</title>
<path fill="none" stroke="black" d="M403.6,-766.71C403.6,-766.71 403.6,-740.93 403.6,-726.03"/>
<polygon fill="black" stroke="black" points="407.1,-725.71 403.6,-715.71 400.1,-725.71 407.1,-725.71"/>
<text text-anchor="middle" x="416.6" y="-737.51" font-family="Helvetica,sans-Serif" font-size="14.00">&gt; 7</text>
</g>
<!-- 20 -->
<g id="node22" class="node">
<title>20</title>
<ellipse fill="#ade544" stroke="black" cx="662.6" cy="-676.71" rx="109.7" ry="35.21"/>
<text text-anchor="start" x="615.1" y="-687.51" font-family="Helvetica,sans-Serif" font-weight="bold" font-size="14.00"> Class=yes </text>
<text text-anchor="start" x="705.1" y="-687.51" font-family="Helvetica,sans-Serif" font-size="14.00"> </text>
<text text-anchor="start" x="593.1" y="-673.51" font-family="Helvetica,sans-Serif" font-size="14.00"> error: 0.000, n=19 </text>
<text text-anchor="start" x="607.6" y="-659.51" font-family="Helvetica,sans-Serif" font-size="14.00"> p: (0.00, 1.00) </text>
</g>
<!-- 19&#45;&gt;20 -->
<g id="edge21" class="edge">
<title>19:s&#45;&gt;20:n</title>
<path fill="none" stroke="black" d="M649.6,-766.71C649.6,-766.71 656.46,-738.73 660.22,-723.43"/>
<polygon fill="black" stroke="black" points="663.62,-724.26 662.6,-713.71 656.82,-722.59 663.62,-724.26"/>
<text text-anchor="middle" x="671.6" y="-737.51" font-family="Helvetica,sans-Serif" font-size="14.00">&gt; 9</text>
</g>
<!-- 5 -->
<g id="node9" class="node">
<title>5</title>
<polygon fill="#59cc3d" stroke="black" points="246.1,-586.71 91.1,-586.71 91.1,-508.71 246.1,-508.71 246.1,-586.71"/>
<text text-anchor="start" x="125.1" y="-572.51" font-family="Helvetica,sans-Serif" font-weight="bold" font-size="14.00"> Class=no </text>
<text text-anchor="start" x="207.1" y="-572.51" font-family="Helvetica,sans-Serif" font-size="14.00"> </text>
<text text-anchor="start" x="99.1" y="-558.51" font-family="Helvetica,sans-Serif" font-size="14.00"> error: 0.913, n=70 </text>
<text text-anchor="start" x="113.6" y="-544.51" font-family="Helvetica,sans-Serif" font-size="14.00"> p: (0.67, 0.33) </text>
<text text-anchor="start" x="155.1" y="-530.51" font-family="Helvetica,sans-Serif" font-size="14.00">&#45;&#45;&#45;&#45;&#45;</text>
<text text-anchor="start" x="150.1" y="-516.51" font-family="Helvetica,sans-Serif" font-weight="bold" font-size="14.00">iv(g)</text>
</g>
<!-- 4&#45;&gt;5 -->
<g id="edge8" class="edge">
<title>4:s&#45;&gt;5:n</title>
<path fill="none" stroke="black" d="M176.6,-637.71C176.6,-637.71 172.56,-611.93 170.22,-597.03"/>
<polygon fill="black" stroke="black" points="173.61,-596.05 168.6,-586.71 166.69,-597.13 173.61,-596.05"/>
<text text-anchor="middle" x="191.1" y="-608.51" font-family="Helvetica,sans-Serif" font-size="14.00">&gt; 16</text>
</g>
<!-- 13 -->
<g id="node16" class="node">
<title>13</title>
<polygon fill="#59cc3d" stroke="black" points="481.1,-586.71 326.1,-586.71 326.1,-508.71 481.1,-508.71 481.1,-586.71"/>
<text text-anchor="start" x="360.1" y="-572.51" font-family="Helvetica,sans-Serif" font-weight="bold" font-size="14.00"> Class=no </text>
<text text-anchor="start" x="442.1" y="-572.51" font-family="Helvetica,sans-Serif" font-size="14.00"> </text>
<text text-anchor="start" x="334.1" y="-558.51" font-family="Helvetica,sans-Serif" font-size="14.00"> error: 0.997, n=47 </text>
<text text-anchor="start" x="348.6" y="-544.51" font-family="Helvetica,sans-Serif" font-size="14.00"> p: (0.53, 0.47) </text>
<text text-anchor="start" x="392.6" y="-530.51" font-family="Helvetica,sans-Serif" font-size="14.00">&#45;&#45;&#45;&#45;</text>
<text text-anchor="start" x="387.1" y="-516.51" font-family="Helvetica,sans-Serif" font-weight="bold" font-size="14.00">v(g)</text>
</g>
<!-- 12&#45;&gt;13 -->
<g id="edge15" class="edge">
<title>12:s&#45;&gt;13:n</title>
<path fill="none" stroke="black" d="M403.6,-637.71C403.6,-637.71 403.6,-611.93 403.6,-597.03"/>
<polygon fill="black" stroke="black" points="407.1,-596.71 403.6,-586.71 400.1,-596.71 407.1,-596.71"/>
<text text-anchor="middle" x="422.6" y="-608.51" font-family="Helvetica,sans-Serif" font-size="14.00">&lt;= 4</text>
</g>
<!-- 18 -->
<g id="node17" class="node">
<title>18</title>
<ellipse fill="#59cc3d" stroke="black" cx="662.6" cy="-547.71" rx="109.7" ry="35.21"/>
<text text-anchor="start" x="615.1" y="-558.51" font-family="Helvetica,sans-Serif" font-weight="bold" font-size="14.00"> Class=yes </text>
<text text-anchor="start" x="705.1" y="-558.51" font-family="Helvetica,sans-Serif" font-size="14.00"> </text>
<text text-anchor="start" x="593.1" y="-544.51" font-family="Helvetica,sans-Serif" font-size="14.00"> error: 0.792, n=21 </text>
<text text-anchor="start" x="607.6" y="-530.51" font-family="Helvetica,sans-Serif" font-size="14.00"> p: (0.24, 0.76) </text>
</g>
<!-- 12&#45;&gt;18 -->
<g id="edge16" class="edge">
<title>12:s&#45;&gt;18:n</title>
<path fill="none" stroke="black" d="M403.6,-637.71C403.6,-637.71 605.46,-596.4 652.76,-586.72"/>
<polygon fill="black" stroke="black" points="653.51,-590.14 662.6,-584.71 652.1,-583.29 653.51,-590.14"/>
<text text-anchor="middle" x="577.6" y="-608.51" font-family="Helvetica,sans-Serif" font-size="14.00">&gt; 4</text>
</g>
<!-- 6 -->
<g id="node10" class="node">
<title>6</title>
<polygon fill="#44e56d" stroke="black" points="222.1,-457.71 67.1,-457.71 67.1,-379.71 222.1,-379.71 222.1,-457.71"/>
<text text-anchor="start" x="101.1" y="-443.51" font-family="Helvetica,sans-Serif" font-weight="bold" font-size="14.00"> Class=no </text>
<text text-anchor="start" x="183.1" y="-443.51" font-family="Helvetica,sans-Serif" font-size="14.00"> </text>
<text text-anchor="start" x="75.1" y="-429.51" font-family="Helvetica,sans-Serif" font-size="14.00"> error: 0.892, n=68 </text>
<text text-anchor="start" x="89.6" y="-415.51" font-family="Helvetica,sans-Serif" font-size="14.00"> p: (0.69, 0.31) </text>
<text text-anchor="start" x="133.6" y="-401.51" font-family="Helvetica,sans-Serif" font-size="14.00">&#45;&#45;&#45;&#45;</text>
<text text-anchor="start" x="128.1" y="-387.51" font-family="Helvetica,sans-Serif" font-weight="bold" font-size="14.00">v(g)</text>
</g>
<!-- 5&#45;&gt;6 -->
<g id="edge9" class="edge">
<title>5:s&#45;&gt;6:n</title>
<path fill="none" stroke="black" d="M168.6,-508.71C168.6,-508.71 155.93,-481.79 149,-467.06"/>
<polygon fill="black" stroke="black" points="152.03,-465.27 144.6,-457.71 145.69,-468.25 152.03,-465.27"/>
<text text-anchor="middle" x="172.6" y="-479.51" font-family="Helvetica,sans-Serif" font-size="14.00">&gt; 1</text>
</g>
<!-- 7 -->
<g id="node11" class="node">
<title>7</title>
<polygon fill="#3dcca1" stroke="black" points="210.1,-328.71 55.1,-328.71 55.1,-250.71 210.1,-250.71 210.1,-328.71"/>
<text text-anchor="start" x="89.1" y="-314.51" font-family="Helvetica,sans-Serif" font-weight="bold" font-size="14.00"> Class=no </text>
<text text-anchor="start" x="171.1" y="-314.51" font-family="Helvetica,sans-Serif" font-size="14.00"> </text>
<text text-anchor="start" x="63.1" y="-300.51" font-family="Helvetica,sans-Serif" font-size="14.00"> error: 0.732, n=39 </text>
<text text-anchor="start" x="77.6" y="-286.51" font-family="Helvetica,sans-Serif" font-size="14.00"> p: (0.79, 0.21) </text>
<text text-anchor="start" x="124.6" y="-272.51" font-family="Helvetica,sans-Serif" font-size="14.00">&#45;&#45;&#45;</text>
<text text-anchor="start" x="121.1" y="-258.51" font-family="Helvetica,sans-Serif" font-weight="bold" font-size="14.00">loc</text>
</g>
<!-- 6&#45;&gt;7 -->
<g id="edge10" class="edge">
<title>6:s&#45;&gt;7:n</title>
<path fill="none" stroke="black" d="M144.6,-379.71C144.6,-379.71 138.4,-353.36 134.92,-338.54"/>
<polygon fill="black" stroke="black" points="138.3,-337.64 132.6,-328.71 131.49,-339.25 138.3,-337.64"/>
<text text-anchor="middle" x="159.6" y="-350.51" font-family="Helvetica,sans-Serif" font-size="14.00">&lt;= 5</text>
</g>
<!-- 10 -->
<g id="node12" class="node">
<title>10</title>
<polygon fill="#3dcca1" stroke="black" points="443.1,-328.71 288.1,-328.71 288.1,-250.71 443.1,-250.71 443.1,-328.71"/>
<text text-anchor="start" x="322.1" y="-314.51" font-family="Helvetica,sans-Serif" font-weight="bold" font-size="14.00"> Class=no </text>
<text text-anchor="start" x="404.1" y="-314.51" font-family="Helvetica,sans-Serif" font-size="14.00"> </text>
<text text-anchor="start" x="296.1" y="-300.51" font-family="Helvetica,sans-Serif" font-size="14.00"> error: 0.992, n=29 </text>
<text text-anchor="start" x="310.6" y="-286.51" font-family="Helvetica,sans-Serif" font-size="14.00"> p: (0.55, 0.45) </text>
<text text-anchor="start" x="354.6" y="-272.51" font-family="Helvetica,sans-Serif" font-size="14.00">&#45;&#45;&#45;&#45;</text>
<text text-anchor="start" x="349.1" y="-258.51" font-family="Helvetica,sans-Serif" font-weight="bold" font-size="14.00">v(g)</text>
</g>
<!-- 6&#45;&gt;10 -->
<g id="edge11" class="edge">
<title>6:s&#45;&gt;10:n</title>
<path fill="none" stroke="black" d="M144.6,-379.71C144.6,-379.71 313.05,-340.84 355.82,-330.97"/>
<polygon fill="black" stroke="black" points="356.64,-334.37 365.6,-328.71 355.07,-327.55 356.64,-334.37"/>
<text text-anchor="middle" x="294.6" y="-350.51" font-family="Helvetica,sans-Serif" font-size="14.00">&gt; 5</text>
</g>
<!-- 8 -->
<g id="node13" class="node">
<title>8</title>
<polygon fill="#44cde5" stroke="black" points="187.1,-199.71 32.1,-199.71 32.1,-121.71 187.1,-121.71 187.1,-199.71"/>
<text text-anchor="start" x="66.1" y="-185.51" font-family="Helvetica,sans-Serif" font-weight="bold" font-size="14.00"> Class=no </text>
<text text-anchor="start" x="148.1" y="-185.51" font-family="Helvetica,sans-Serif" font-size="14.00"> </text>
<text text-anchor="start" x="40.1" y="-171.51" font-family="Helvetica,sans-Serif" font-size="14.00"> error: 0.689, n=38 </text>
<text text-anchor="start" x="54.6" y="-157.51" font-family="Helvetica,sans-Serif" font-size="14.00"> p: (0.82, 0.18) </text>
<text text-anchor="start" x="101.6" y="-143.51" font-family="Helvetica,sans-Serif" font-size="14.00">&#45;&#45;&#45;</text>
<text text-anchor="start" x="98.1" y="-129.51" font-family="Helvetica,sans-Serif" font-weight="bold" font-size="14.00">loc</text>
</g>
<!-- 7&#45;&gt;8 -->
<g id="edge12" class="edge">
<title>7:s&#45;&gt;8:n</title>
<path fill="none" stroke="black" d="M132.6,-250.71C132.6,-250.71 120.46,-223.79 113.82,-209.06"/>
<polygon fill="black" stroke="black" points="116.9,-207.39 109.6,-199.71 110.52,-210.27 116.9,-207.39"/>
<text text-anchor="middle" x="142.1" y="-221.51" font-family="Helvetica,sans-Serif" font-size="14.00">&gt; 14</text>
</g>
<!-- 11 -->
<g id="node15" class="node">
<title>11</title>
<ellipse fill="#44cde5" stroke="black" cx="368.6" cy="-160.71" rx="109.7" ry="35.21"/>
<text text-anchor="start" x="321.1" y="-171.51" font-family="Helvetica,sans-Serif" font-weight="bold" font-size="14.00"> Class=yes </text>
<text text-anchor="start" x="411.1" y="-171.51" font-family="Helvetica,sans-Serif" font-size="14.00"> </text>
<text text-anchor="start" x="299.1" y="-157.51" font-family="Helvetica,sans-Serif" font-size="14.00"> error: 0.999, n=25 </text>
<text text-anchor="start" x="313.6" y="-143.51" font-family="Helvetica,sans-Serif" font-size="14.00"> p: (0.48, 0.52) </text>
</g>
<!-- 10&#45;&gt;11 -->
<g id="edge14" class="edge">
<title>10:s&#45;&gt;11:n</title>
<path fill="none" stroke="black" d="M365.6,-250.71C365.6,-250.71 367.15,-223.33 368.02,-207.93"/>
<polygon fill="black" stroke="black" points="371.53,-207.89 368.6,-197.71 364.54,-207.5 371.53,-207.89"/>
<text text-anchor="middle" x="391.1" y="-221.51" font-family="Helvetica,sans-Serif" font-size="14.00">&lt;= 12</text>
</g>
<!-- 9 -->
<g id="node14" class="node">
<title>9</title>
<ellipse fill="#3d76cc" stroke="black" cx="109.6" cy="-35.36" rx="109.7" ry="35.21"/>
<text text-anchor="start" x="66.1" y="-46.16" font-family="Helvetica,sans-Serif" font-weight="bold" font-size="14.00"> Class=no </text>
<text text-anchor="start" x="148.1" y="-46.16" font-family="Helvetica,sans-Serif" font-size="14.00"> </text>
<text text-anchor="start" x="40.1" y="-32.16" font-family="Helvetica,sans-Serif" font-size="14.00"> error: 0.797, n=29 </text>
<text text-anchor="start" x="54.6" y="-18.16" font-family="Helvetica,sans-Serif" font-size="14.00"> p: (0.76, 0.24) </text>
</g>
<!-- 8&#45;&gt;9 -->
<g id="edge13" class="edge">
<title>8:s&#45;&gt;9:n</title>
<path fill="none" stroke="black" d="M109.6,-121.71C109.6,-121.71 109.6,-95.93 109.6,-81.03"/>
<polygon fill="black" stroke="black" points="113.1,-80.71 109.6,-70.71 106.1,-80.71 113.1,-80.71"/>
<text text-anchor="middle" x="127.1" y="-92.51" font-family="Helvetica,sans-Serif" font-size="14.00">&gt; 33</text>
</g>
<!-- 14 -->
<g id="node18" class="node">
<title>14</title>
<ellipse fill="#44e56d" stroke="black" cx="403.6" cy="-418.71" rx="109.7" ry="35.21"/>
<text text-anchor="start" x="356.1" y="-429.51" font-family="Helvetica,sans-Serif" font-weight="bold" font-size="14.00"> Class=yes </text>
<text text-anchor="start" x="446.1" y="-429.51" font-family="Helvetica,sans-Serif" font-size="14.00"> </text>
<text text-anchor="start" x="334.1" y="-415.51" font-family="Helvetica,sans-Serif" font-size="14.00"> error: 0.918, n=18 </text>
<text text-anchor="start" x="348.6" y="-401.51" font-family="Helvetica,sans-Serif" font-size="14.00"> p: (0.33, 0.67) </text>
</g>
<!-- 13&#45;&gt;14 -->
<g id="edge17" class="edge">
<title>13:s&#45;&gt;14:n</title>
<path fill="none" stroke="black" d="M403.6,-508.71C403.6,-508.71 403.6,-481.33 403.6,-465.93"/>
<polygon fill="black" stroke="black" points="407.1,-465.71 403.6,-455.71 400.1,-465.71 407.1,-465.71"/>
<text text-anchor="middle" x="422.6" y="-479.51" font-family="Helvetica,sans-Serif" font-size="14.00">&lt;= 5</text>
</g>
<!-- 15 -->
<g id="node19" class="node">
<title>15</title>
<polygon fill="#44e56d" stroke="black" points="740.1,-457.71 585.1,-457.71 585.1,-379.71 740.1,-379.71 740.1,-457.71"/>
<text text-anchor="start" x="619.1" y="-443.51" font-family="Helvetica,sans-Serif" font-weight="bold" font-size="14.00"> Class=no </text>
<text text-anchor="start" x="701.1" y="-443.51" font-family="Helvetica,sans-Serif" font-size="14.00"> </text>
<text text-anchor="start" x="593.1" y="-429.51" font-family="Helvetica,sans-Serif" font-size="14.00"> error: 0.929, n=29 </text>
<text text-anchor="start" x="607.6" y="-415.51" font-family="Helvetica,sans-Serif" font-size="14.00"> p: (0.66, 0.34) </text>
<text text-anchor="start" x="638.6" y="-401.51" font-family="Helvetica,sans-Serif" font-size="14.00">&#45;&#45;&#45;&#45;&#45;&#45;&#45;&#45;&#45;</text>
<text text-anchor="start" x="621.6" y="-387.51" font-family="Helvetica,sans-Serif" font-weight="bold" font-size="14.00">uniq_Opnd</text>
</g>
<!-- 13&#45;&gt;15 -->
<g id="edge18" class="edge">
<title>13:s&#45;&gt;15:n</title>
<path fill="none" stroke="black" d="M403.6,-508.71C403.6,-508.71 605.46,-468.96 652.76,-459.65"/>
<polygon fill="black" stroke="black" points="653.47,-463.08 662.6,-457.71 652.11,-456.21 653.47,-463.08"/>
<text text-anchor="middle" x="577.6" y="-479.51" font-family="Helvetica,sans-Serif" font-size="14.00">&gt; 5</text>
</g>
<!-- 16 -->
<g id="node20" class="node">
<title>16</title>
<polygon fill="#3dcca1" stroke="black" points="740.1,-328.71 585.1,-328.71 585.1,-250.71 740.1,-250.71 740.1,-328.71"/>
<text text-anchor="start" x="619.1" y="-314.51" font-family="Helvetica,sans-Serif" font-weight="bold" font-size="14.00"> Class=no </text>
<text text-anchor="start" x="701.1" y="-314.51" font-family="Helvetica,sans-Serif" font-size="14.00"> </text>
<text text-anchor="start" x="593.1" y="-300.51" font-family="Helvetica,sans-Serif" font-size="14.00"> error: 0.988, n=23 </text>
<text text-anchor="start" x="607.6" y="-286.51" font-family="Helvetica,sans-Serif" font-size="14.00"> p: (0.57, 0.43) </text>
<text text-anchor="start" x="651.6" y="-272.51" font-family="Helvetica,sans-Serif" font-size="14.00">&#45;&#45;&#45;&#45;</text>
<text text-anchor="start" x="646.1" y="-258.51" font-family="Helvetica,sans-Serif" font-weight="bold" font-size="14.00">v(g)</text>
</g>
<!-- 15&#45;&gt;16 -->
<g id="edge19" class="edge">
<title>15:s&#45;&gt;16:n</title>
<path fill="none" stroke="black" d="M662.6,-379.71C662.6,-379.71 662.6,-353.93 662.6,-339.03"/>
<polygon fill="black" stroke="black" points="666.1,-338.71 662.6,-328.71 659.1,-338.71 666.1,-338.71"/>
<text text-anchor="middle" x="680.1" y="-350.51" font-family="Helvetica,sans-Serif" font-size="14.00">&gt; 23</text>
</g>
<!-- 17 -->
<g id="node21" class="node">
<title>17</title>
<ellipse fill="#44cde5" stroke="black" cx="662.6" cy="-160.71" rx="109.7" ry="35.21"/>
<text text-anchor="start" x="619.1" y="-171.51" font-family="Helvetica,sans-Serif" font-weight="bold" font-size="14.00"> Class=no </text>
<text text-anchor="start" x="701.1" y="-171.51" font-family="Helvetica,sans-Serif" font-size="14.00"> </text>
<text text-anchor="start" x="593.1" y="-157.51" font-family="Helvetica,sans-Serif" font-size="14.00"> error: 0.998, n=21 </text>
<text text-anchor="start" x="607.6" y="-143.51" font-family="Helvetica,sans-Serif" font-size="14.00"> p: (0.52, 0.48) </text>
</g>
<!-- 16&#45;&gt;17 -->
<g id="edge20" class="edge">
<title>16:s&#45;&gt;17:n</title>
<path fill="none" stroke="black" d="M662.6,-250.71C662.6,-250.71 662.6,-223.33 662.6,-207.93"/>
<polygon fill="black" stroke="black" points="666.1,-207.71 662.6,-197.71 659.1,-207.71 666.1,-207.71"/>
<text text-anchor="middle" x="675.6" y="-221.51" font-family="Helvetica,sans-Serif" font-size="14.00">&gt; 6</text>
</g>
</g>
</svg>
