<?xml version="1.0" encoding="UTF-8" standalone="no"?>
<!DOCTYPE svg PUBLIC "-//W3C//DTD SVG 1.1//EN"
 "http://www.w3.org/Graphics/SVG/1.1/DTD/svg11.dtd">
<!-- Generated by graphviz version 2.43.0 (0)
 -->
<!-- Title: Tree Pages: 1 -->
<svg width="2036pt" height="954pt"
 viewBox="0.00 0.00 2035.66 953.71" xmlns="http://www.w3.org/2000/svg" xmlns:xlink="http://www.w3.org/1999/xlink">
<g id="graph0" class="graph" transform="scale(1 1) rotate(0) translate(18 935.71)">
<title>Tree</title>
<polygon fill="white" stroke="transparent" points="-18,18 -18,-935.71 2017.66,-935.71 2017.66,18 -18,18"/>
<!-- 0 -->
<g id="node1" class="node">
<title>0</title>
<polygon fill="white" stroke="transparent" points="1174.33,-917.71 1120.33,-917.71 1120.33,-881.71 1174.33,-881.71 1174.33,-917.71"/>
<text text-anchor="middle" x="1147.33" y="-896.01" font-family="Helvetica,sans-Serif" font-size="14.00">0</text>
</g>
<!-- 1 -->
<g id="node2" class="node">
<title>1</title>
<polygon fill="#cc3d3d" stroke="black" points="1238.33,-844.71 1056.33,-844.71 1056.33,-766.71 1238.33,-766.71 1238.33,-844.71"/>
<text text-anchor="start" x="1108.33" y="-830.51" font-family="Helvetica,sans-Serif" font-weight="bold" font-size="14.00"> Class=2 </text>
<text text-anchor="start" x="1181.33" y="-830.51" font-family="Helvetica,sans-Serif" font-size="14.00"> </text>
<text text-anchor="start" x="1064.33" y="-816.51" font-family="Helvetica,sans-Serif" font-size="14.00"> error: 0.863, n=34465 </text>
<text text-anchor="start" x="1092.33" y="-802.51" font-family="Helvetica,sans-Serif" font-size="14.00"> p: (0.29, 0.71) </text>
<text text-anchor="start" x="1136.33" y="-788.51" font-family="Helvetica,sans-Serif" font-size="14.00">&#45;&#45;&#45;&#45;</text>
<text text-anchor="start" x="1127.33" y="-774.51" font-family="Helvetica,sans-Serif" font-weight="bold" font-size="14.00">V100</text>
</g>
<!-- 0&#45;&gt;1 -->
<!-- 2 -->
<g id="node3" class="node">
<title>2</title>
<polygon fill="#e5a544" stroke="black" points="1095.33,-715.71 913.33,-715.71 913.33,-637.71 1095.33,-637.71 1095.33,-715.71"/>
<text text-anchor="start" x="965.33" y="-701.51" font-family="Helvetica,sans-Serif" font-weight="bold" font-size="14.00"> Class=1 </text>
<text text-anchor="start" x="1038.33" y="-701.51" font-family="Helvetica,sans-Serif" font-size="14.00"> </text>
<text text-anchor="start" x="921.33" y="-687.51" font-family="Helvetica,sans-Serif" font-size="14.00"> error: 0.996, n=16355 </text>
<text text-anchor="start" x="949.33" y="-673.51" font-family="Helvetica,sans-Serif" font-size="14.00"> p: (0.54, 0.46) </text>
<text text-anchor="start" x="998.83" y="-659.51" font-family="Helvetica,sans-Serif" font-size="14.00">&#45;&#45;</text>
<text text-anchor="start" x="993.83" y="-645.51" font-family="Helvetica,sans-Serif" font-weight="bold" font-size="14.00">V7</text>
</g>
<!-- 1&#45;&gt;2 -->
<g id="edge2" class="edge">
<title>1:s&#45;&gt;2:n</title>
<path fill="none" stroke="black" d="M1147.33,-766.71C1147.33,-766.71 1046.47,-730.74 1014.16,-719.22"/>
<polygon fill="black" stroke="black" points="1014.92,-715.77 1004.33,-715.71 1012.57,-722.37 1014.92,-715.77"/>
<text text-anchor="middle" x="1098.33" y="-737.51" font-family="Helvetica,sans-Serif" font-size="14.00">2</text>
</g>
<!-- 16 -->
<g id="node4" class="node">
<title>16</title>
<polygon fill="#e5a544" stroke="black" points="1394.33,-715.71 1212.33,-715.71 1212.33,-637.71 1394.33,-637.71 1394.33,-715.71"/>
<text text-anchor="start" x="1264.33" y="-701.51" font-family="Helvetica,sans-Serif" font-weight="bold" font-size="14.00"> Class=2 </text>
<text text-anchor="start" x="1337.33" y="-701.51" font-family="Helvetica,sans-Serif" font-size="14.00"> </text>
<text text-anchor="start" x="1220.33" y="-687.51" font-family="Helvetica,sans-Serif" font-size="14.00"> error: 0.206, n=17183 </text>
<text text-anchor="start" x="1248.33" y="-673.51" font-family="Helvetica,sans-Serif" font-size="14.00"> p: (0.03, 0.97) </text>
<text text-anchor="start" x="1297.83" y="-659.51" font-family="Helvetica,sans-Serif" font-size="14.00">&#45;&#45;</text>
<text text-anchor="start" x="1292.83" y="-645.51" font-family="Helvetica,sans-Serif" font-weight="bold" font-size="14.00">V7</text>
</g>
<!-- 1&#45;&gt;16 -->
<g id="edge3" class="edge">
<title>1:s&#45;&gt;16:n</title>
<path fill="none" stroke="black" d="M1147.33,-766.71C1147.33,-766.71 1259.42,-730.07 1293.57,-718.9"/>
<polygon fill="black" stroke="black" points="1294.91,-722.14 1303.33,-715.71 1292.74,-715.49 1294.91,-722.14"/>
<text text-anchor="middle" x="1249.33" y="-737.51" font-family="Helvetica,sans-Serif" font-size="14.00">3</text>
</g>
<!-- 3 -->
<g id="node5" class="node">
<title>3</title>
<polygon fill="#afcc3d" stroke="black" points="775.33,-586.71 593.33,-586.71 593.33,-508.71 775.33,-508.71 775.33,-586.71"/>
<text text-anchor="start" x="645.33" y="-572.51" font-family="Helvetica,sans-Serif" font-weight="bold" font-size="14.00"> Class=1 </text>
<text text-anchor="start" x="718.33" y="-572.51" font-family="Helvetica,sans-Serif" font-size="14.00"> </text>
<text text-anchor="start" x="601.33" y="-558.51" font-family="Helvetica,sans-Serif" font-size="14.00"> error: 0.787, n=10692 </text>
<text text-anchor="start" x="629.33" y="-544.51" font-family="Helvetica,sans-Serif" font-size="14.00"> p: (0.76, 0.24) </text>
<text text-anchor="start" x="676.33" y="-530.51" font-family="Helvetica,sans-Serif" font-size="14.00">&#45;&#45;&#45;</text>
<text text-anchor="start" x="668.83" y="-516.51" font-family="Helvetica,sans-Serif" font-weight="bold" font-size="14.00">V92</text>
</g>
<!-- 2&#45;&gt;3 -->
<g id="edge4" class="edge">
<title>2:s&#45;&gt;3:n</title>
<path fill="none" stroke="black" d="M1004.33,-637.71C1004.33,-637.71 748.27,-596.9 694.26,-588.29"/>
<polygon fill="black" stroke="black" points="694.76,-584.83 684.33,-586.71 693.65,-591.74 694.76,-584.83"/>
<text text-anchor="middle" x="888.33" y="-608.51" font-family="Helvetica,sans-Serif" font-size="14.00">1</text>
</g>
<!-- 12 -->
<g id="node6" class="node">
<title>12</title>
<polygon fill="#afcc3d" stroke="black" points="1090.83,-586.71 917.83,-586.71 917.83,-508.71 1090.83,-508.71 1090.83,-586.71"/>
<text text-anchor="start" x="965.33" y="-572.51" font-family="Helvetica,sans-Serif" font-weight="bold" font-size="14.00"> Class=2 </text>
<text text-anchor="start" x="1038.33" y="-572.51" font-family="Helvetica,sans-Serif" font-size="14.00"> </text>
<text text-anchor="start" x="925.83" y="-558.51" font-family="Helvetica,sans-Serif" font-size="14.00"> error: 0.488, n=5663 </text>
<text text-anchor="start" x="949.33" y="-544.51" font-family="Helvetica,sans-Serif" font-size="14.00"> p: (0.11, 0.89) </text>
<text text-anchor="start" x="996.33" y="-530.51" font-family="Helvetica,sans-Serif" font-size="14.00">&#45;&#45;&#45;</text>
<text text-anchor="start" x="988.83" y="-516.51" font-family="Helvetica,sans-Serif" font-weight="bold" font-size="14.00">V23</text>
</g>
<!-- 2&#45;&gt;12 -->
<g id="edge5" class="edge">
<title>2:s&#45;&gt;12:n</title>
<path fill="none" stroke="black" d="M1004.33,-637.71C1004.33,-637.71 1004.33,-611.93 1004.33,-597.03"/>
<polygon fill="black" stroke="black" points="1007.83,-596.71 1004.33,-586.71 1000.83,-596.71 1007.83,-596.71"/>
<text text-anchor="middle" x="1009.33" y="-608.51" font-family="Helvetica,sans-Serif" font-size="14.00">2</text>
</g>
<!-- 17 -->
<g id="node18" class="node">
<title>17</title>
<ellipse fill="#afcc3d" stroke="black" cx="1303.33" cy="-547.71" rx="128.89" ry="35.21"/>
<text text-anchor="start" x="1264.33" y="-558.51" font-family="Helvetica,sans-Serif" font-weight="bold" font-size="14.00"> Class=2 </text>
<text text-anchor="start" x="1337.33" y="-558.51" font-family="Helvetica,sans-Serif" font-size="14.00"> </text>
<text text-anchor="start" x="1220.33" y="-544.51" font-family="Helvetica,sans-Serif" font-size="14.00"> error: 0.018, n=11664 </text>
<text text-anchor="start" x="1248.33" y="-530.51" font-family="Helvetica,sans-Serif" font-size="14.00"> p: (0.00, 1.00) </text>
</g>
<!-- 16&#45;&gt;17 -->
<g id="edge17" class="edge">
<title>16:s&#45;&gt;17:n</title>
<path fill="none" stroke="black" d="M1303.33,-637.71C1303.33,-637.71 1303.33,-609.81 1303.33,-594.12"/>
<polygon fill="black" stroke="black" points="1306.83,-593.71 1303.33,-583.71 1299.83,-593.71 1306.83,-593.71"/>
<text text-anchor="middle" x="1308.33" y="-608.51" font-family="Helvetica,sans-Serif" font-size="14.00">2</text>
</g>
<!-- 18 -->
<g id="node19" class="node">
<title>18</title>
<polygon fill="#afcc3d" stroke="black" points="1682.83,-586.71 1509.83,-586.71 1509.83,-508.71 1682.83,-508.71 1682.83,-586.71"/>
<text text-anchor="start" x="1557.33" y="-572.51" font-family="Helvetica,sans-Serif" font-weight="bold" font-size="14.00"> Class=2 </text>
<text text-anchor="start" x="1630.33" y="-572.51" font-family="Helvetica,sans-Serif" font-size="14.00"> </text>
<text text-anchor="start" x="1517.83" y="-558.51" font-family="Helvetica,sans-Serif" font-size="14.00"> error: 0.460, n=5519 </text>
<text text-anchor="start" x="1541.33" y="-544.51" font-family="Helvetica,sans-Serif" font-size="14.00"> p: (0.10, 0.90) </text>
<text text-anchor="start" x="1588.33" y="-530.51" font-family="Helvetica,sans-Serif" font-size="14.00">&#45;&#45;&#45;</text>
<text text-anchor="start" x="1580.83" y="-516.51" font-family="Helvetica,sans-Serif" font-weight="bold" font-size="14.00">V92</text>
</g>
<!-- 16&#45;&gt;18 -->
<g id="edge18" class="edge">
<title>16:s&#45;&gt;18:n</title>
<path fill="none" stroke="black" d="M1303.33,-637.71C1303.33,-637.71 1534.72,-597.43 1586.24,-588.47"/>
<polygon fill="black" stroke="black" points="1587.08,-591.87 1596.33,-586.71 1585.88,-584.98 1587.08,-591.87"/>
<text text-anchor="middle" x="1490.33" y="-608.51" font-family="Helvetica,sans-Serif" font-size="14.00">1</text>
</g>
<!-- 4 -->
<g id="node7" class="node">
<title>4</title>
<polygon fill="#64e544" stroke="black" points="489.83,-457.71 316.83,-457.71 316.83,-379.71 489.83,-379.71 489.83,-457.71"/>
<text text-anchor="start" x="364.33" y="-443.51" font-family="Helvetica,sans-Serif" font-weight="bold" font-size="14.00"> Class=1 </text>
<text text-anchor="start" x="437.33" y="-443.51" font-family="Helvetica,sans-Serif" font-size="14.00"> </text>
<text text-anchor="start" x="324.83" y="-429.51" font-family="Helvetica,sans-Serif" font-size="14.00"> error: 0.694, n=6958 </text>
<text text-anchor="start" x="348.33" y="-415.51" font-family="Helvetica,sans-Serif" font-size="14.00"> p: (0.81, 0.19) </text>
<text text-anchor="start" x="395.33" y="-401.51" font-family="Helvetica,sans-Serif" font-size="14.00">&#45;&#45;&#45;</text>
<text text-anchor="start" x="387.83" y="-387.51" font-family="Helvetica,sans-Serif" font-weight="bold" font-size="14.00">V31</text>
</g>
<!-- 3&#45;&gt;4 -->
<g id="edge6" class="edge">
<title>3:s&#45;&gt;4:n</title>
<path fill="none" stroke="black" d="M684.33,-508.71C684.33,-508.71 463.39,-468.61 413.33,-459.53"/>
<polygon fill="black" stroke="black" points="413.79,-456.05 403.33,-457.71 412.54,-462.94 413.79,-456.05"/>
<text text-anchor="middle" x="582.33" y="-479.51" font-family="Helvetica,sans-Serif" font-size="14.00">1</text>
</g>
<!-- 10 -->
<g id="node8" class="node">
<title>10</title>
<polygon fill="#64e544" stroke="black" points="770.83,-457.71 597.83,-457.71 597.83,-379.71 770.83,-379.71 770.83,-457.71"/>
<text text-anchor="start" x="645.33" y="-443.51" font-family="Helvetica,sans-Serif" font-weight="bold" font-size="14.00"> Class=1 </text>
<text text-anchor="start" x="718.33" y="-443.51" font-family="Helvetica,sans-Serif" font-size="14.00"> </text>
<text text-anchor="start" x="605.83" y="-429.51" font-family="Helvetica,sans-Serif" font-size="14.00"> error: 0.336, n=2588 </text>
<text text-anchor="start" x="629.33" y="-415.51" font-family="Helvetica,sans-Serif" font-size="14.00"> p: (0.94, 0.06) </text>
<text text-anchor="start" x="660.33" y="-401.51" font-family="Helvetica,sans-Serif" font-size="14.00">&#45;&#45;&#45;&#45;&#45;&#45;&#45;&#45;&#45;</text>
<text text-anchor="start" x="643.33" y="-387.51" font-family="Helvetica,sans-Serif" font-weight="bold" font-size="14.00">v_16=0.00</text>
</g>
<!-- 3&#45;&gt;10 -->
<g id="edge7" class="edge">
<title>3:s&#45;&gt;10:n</title>
<path fill="none" stroke="black" d="M684.33,-508.71C684.33,-508.71 684.33,-482.93 684.33,-468.03"/>
<polygon fill="black" stroke="black" points="687.83,-467.71 684.33,-457.71 680.83,-467.71 687.83,-467.71"/>
<text text-anchor="middle" x="689.33" y="-479.51" font-family="Helvetica,sans-Serif" font-size="14.00">2</text>
</g>
<!-- 13 -->
<g id="node15" class="node">
<title>13</title>
<polygon fill="#64e544" stroke="black" points="1090.83,-457.71 917.83,-457.71 917.83,-379.71 1090.83,-379.71 1090.83,-457.71"/>
<text text-anchor="start" x="965.33" y="-443.51" font-family="Helvetica,sans-Serif" font-weight="bold" font-size="14.00"> Class=2 </text>
<text text-anchor="start" x="1038.33" y="-443.51" font-family="Helvetica,sans-Serif" font-size="14.00"> </text>
<text text-anchor="start" x="925.83" y="-429.51" font-family="Helvetica,sans-Serif" font-size="14.00"> error: 0.326, n=4552 </text>
<text text-anchor="start" x="949.33" y="-415.51" font-family="Helvetica,sans-Serif" font-size="14.00"> p: (0.06, 0.94) </text>
<text text-anchor="start" x="996.33" y="-401.51" font-family="Helvetica,sans-Serif" font-size="14.00">&#45;&#45;&#45;</text>
<text text-anchor="start" x="988.83" y="-387.51" font-family="Helvetica,sans-Serif" font-weight="bold" font-size="14.00">V92</text>
</g>
<!-- 12&#45;&gt;13 -->
<g id="edge14" class="edge">
<title>12:s&#45;&gt;13:n</title>
<path fill="none" stroke="black" d="M1004.33,-508.71C1004.33,-508.71 1004.33,-482.93 1004.33,-468.03"/>
<polygon fill="black" stroke="black" points="1007.83,-467.71 1004.33,-457.71 1000.83,-467.71 1007.83,-467.71"/>
<text text-anchor="middle" x="1009.33" y="-479.51" font-family="Helvetica,sans-Serif" font-size="14.00">1</text>
</g>
<!-- 5 -->
<g id="node9" class="node">
<title>5</title>
<ellipse fill="#3dcc76" stroke="black" cx="122.33" cy="-289.71" rx="122.16" ry="35.21"/>
<text text-anchor="start" x="83.33" y="-300.51" font-family="Helvetica,sans-Serif" font-weight="bold" font-size="14.00"> Class=1 </text>
<text text-anchor="start" x="156.33" y="-300.51" font-family="Helvetica,sans-Serif" font-size="14.00"> </text>
<text text-anchor="start" x="43.83" y="-286.51" font-family="Helvetica,sans-Serif" font-size="14.00"> error: 0.294, n=2336 </text>
<text text-anchor="start" x="67.33" y="-272.51" font-family="Helvetica,sans-Serif" font-size="14.00"> p: (0.95, 0.05) </text>
</g>
<!-- 4&#45;&gt;5 -->
<g id="edge8" class="edge">
<title>4:s&#45;&gt;5:n</title>
<path fill="none" stroke="black" d="M403.33,-379.71C403.33,-379.71 182.39,-338.04 132.33,-328.6"/>
<polygon fill="black" stroke="black" points="132.8,-325.12 122.33,-326.71 131.51,-332 132.8,-325.12"/>
<text text-anchor="middle" x="310.33" y="-350.51" font-family="Helvetica,sans-Serif" font-size="14.00">2</text>
</g>
<!-- 6 -->
<g id="node10" class="node">
<title>6</title>
<polygon fill="#3dcc76" stroke="black" points="489.83,-328.71 316.83,-328.71 316.83,-250.71 489.83,-250.71 489.83,-328.71"/>
<text text-anchor="start" x="364.33" y="-314.51" font-family="Helvetica,sans-Serif" font-weight="bold" font-size="14.00"> Class=1 </text>
<text text-anchor="start" x="437.33" y="-314.51" font-family="Helvetica,sans-Serif" font-size="14.00"> </text>
<text text-anchor="start" x="324.83" y="-300.51" font-family="Helvetica,sans-Serif" font-size="14.00"> error: 0.806, n=4318 </text>
<text text-anchor="start" x="348.33" y="-286.51" font-family="Helvetica,sans-Serif" font-size="14.00"> p: (0.75, 0.25) </text>
<text text-anchor="start" x="379.33" y="-272.51" font-family="Helvetica,sans-Serif" font-size="14.00">&#45;&#45;&#45;&#45;&#45;&#45;&#45;&#45;&#45;</text>
<text text-anchor="start" x="362.33" y="-258.51" font-family="Helvetica,sans-Serif" font-weight="bold" font-size="14.00">v_29=0.00</text>
</g>
<!-- 4&#45;&gt;6 -->
<g id="edge9" class="edge">
<title>4:s&#45;&gt;6:n</title>
<path fill="none" stroke="black" d="M403.33,-379.71C403.33,-379.71 403.33,-353.93 403.33,-339.03"/>
<polygon fill="black" stroke="black" points="406.83,-338.71 403.33,-328.71 399.83,-338.71 406.83,-338.71"/>
<text text-anchor="middle" x="408.33" y="-350.51" font-family="Helvetica,sans-Serif" font-size="14.00">1</text>
</g>
<!-- 11 -->
<g id="node14" class="node">
<title>11</title>
<ellipse fill="#3dcc76" stroke="black" cx="684.33" cy="-289.71" rx="122.16" ry="35.21"/>
<text text-anchor="start" x="645.33" y="-300.51" font-family="Helvetica,sans-Serif" font-weight="bold" font-size="14.00"> Class=1 </text>
<text text-anchor="start" x="718.33" y="-300.51" font-family="Helvetica,sans-Serif" font-size="14.00"> </text>
<text text-anchor="start" x="605.83" y="-286.51" font-family="Helvetica,sans-Serif" font-size="14.00"> error: 0.183, n=1942 </text>
<text text-anchor="start" x="629.33" y="-272.51" font-family="Helvetica,sans-Serif" font-size="14.00"> p: (0.97, 0.03) </text>
</g>
<!-- 10&#45;&gt;11 -->
<g id="edge13" class="edge">
<title>10:s&#45;&gt;11:n</title>
<path fill="none" stroke="black" d="M684.33,-379.71C684.33,-379.71 684.33,-352.33 684.33,-336.93"/>
<polygon fill="black" stroke="black" points="687.83,-336.71 684.33,-326.71 680.83,-336.71 687.83,-336.71"/>
<text text-anchor="middle" x="728.33" y="-350.51" font-family="Helvetica,sans-Serif" font-size="14.00">&lt;= 0.04486</text>
</g>
<!-- 7 -->
<g id="node11" class="node">
<title>7</title>
<polygon fill="#44e5e5" stroke="black" points="489.83,-199.71 316.83,-199.71 316.83,-121.71 489.83,-121.71 489.83,-199.71"/>
<text text-anchor="start" x="364.33" y="-185.51" font-family="Helvetica,sans-Serif" font-weight="bold" font-size="14.00"> Class=1 </text>
<text text-anchor="start" x="437.33" y="-185.51" font-family="Helvetica,sans-Serif" font-size="14.00"> </text>
<text text-anchor="start" x="324.83" y="-171.51" font-family="Helvetica,sans-Serif" font-size="14.00"> error: 0.641, n=3226 </text>
<text text-anchor="start" x="348.33" y="-157.51" font-family="Helvetica,sans-Serif" font-size="14.00"> p: (0.84, 0.16) </text>
<text text-anchor="start" x="381.83" y="-143.51" font-family="Helvetica,sans-Serif" font-size="14.00">&#45;&#45;&#45;&#45;&#45;&#45;&#45;&#45;</text>
<text text-anchor="start" x="366.83" y="-129.51" font-family="Helvetica,sans-Serif" font-weight="bold" font-size="14.00">v_1=0.18</text>
</g>
<!-- 6&#45;&gt;7 -->
<g id="edge10" class="edge">
<title>6:s&#45;&gt;7:n</title>
<path fill="none" stroke="black" d="M403.33,-250.71C403.33,-250.71 403.33,-224.93 403.33,-210.03"/>
<polygon fill="black" stroke="black" points="406.83,-209.71 403.33,-199.71 399.83,-209.71 406.83,-209.71"/>
<text text-anchor="middle" x="443.83" y="-221.51" font-family="Helvetica,sans-Serif" font-size="14.00">&gt; &#45;0.01998</text>
</g>
<!-- 8 -->
<g id="node12" class="node">
<title>8</title>
<ellipse fill="#3d76cc" stroke="black" cx="245.33" cy="-35.36" rx="122.16" ry="35.21"/>
<text text-anchor="start" x="206.33" y="-46.16" font-family="Helvetica,sans-Serif" font-weight="bold" font-size="14.00"> Class=1 </text>
<text text-anchor="start" x="279.33" y="-46.16" font-family="Helvetica,sans-Serif" font-size="14.00"> </text>
<text text-anchor="start" x="166.83" y="-32.16" font-family="Helvetica,sans-Serif" font-size="14.00"> error: 0.239, n=1604 </text>
<text text-anchor="start" x="190.33" y="-18.16" font-family="Helvetica,sans-Serif" font-size="14.00"> p: (0.96, 0.04) </text>
</g>
<!-- 7&#45;&gt;8 -->
<g id="edge11" class="edge">
<title>7:s&#45;&gt;8:n</title>
<path fill="none" stroke="black" d="M403.33,-121.71C403.33,-121.71 289.8,-85.07 255.21,-73.9"/>
<polygon fill="black" stroke="black" points="255.92,-70.45 245.33,-70.71 253.77,-77.11 255.92,-70.45"/>
<text text-anchor="middle" x="385.33" y="-92.51" font-family="Helvetica,sans-Serif" font-size="14.00">&lt;= &#45;0.7023</text>
</g>
<!-- 9 -->
<g id="node13" class="node">
<title>9</title>
<ellipse fill="#3d76cc" stroke="black" cx="562.33" cy="-35.36" rx="122.16" ry="35.21"/>
<text text-anchor="start" x="523.33" y="-46.16" font-family="Helvetica,sans-Serif" font-weight="bold" font-size="14.00"> Class=1 </text>
<text text-anchor="start" x="596.33" y="-46.16" font-family="Helvetica,sans-Serif" font-size="14.00"> </text>
<text text-anchor="start" x="483.83" y="-32.16" font-family="Helvetica,sans-Serif" font-size="14.00"> error: 0.862, n=1622 </text>
<text text-anchor="start" x="507.33" y="-18.16" font-family="Helvetica,sans-Serif" font-size="14.00"> p: (0.72, 0.28) </text>
</g>
<!-- 7&#45;&gt;9 -->
<g id="edge12" class="edge">
<title>7:s&#45;&gt;9:n</title>
<path fill="none" stroke="black" d="M403.33,-121.71C403.33,-121.71 517.57,-85.07 552.38,-73.9"/>
<polygon fill="black" stroke="black" points="553.88,-77.1 562.33,-70.71 551.74,-70.43 553.88,-77.1"/>
<text text-anchor="middle" x="538.33" y="-92.51" font-family="Helvetica,sans-Serif" font-size="14.00">&gt; &#45;0.7023</text>
</g>
<!-- 14 -->
<g id="node16" class="node">
<title>14</title>
<ellipse fill="#3dcc76" stroke="black" cx="1001.33" cy="-289.71" rx="122.16" ry="35.21"/>
<text text-anchor="start" x="962.33" y="-300.51" font-family="Helvetica,sans-Serif" font-weight="bold" font-size="14.00"> Class=2 </text>
<text text-anchor="start" x="1035.33" y="-300.51" font-family="Helvetica,sans-Serif" font-size="14.00"> </text>
<text text-anchor="start" x="922.83" y="-286.51" font-family="Helvetica,sans-Serif" font-size="14.00"> error: 0.357, n=2429 </text>
<text text-anchor="start" x="946.33" y="-272.51" font-family="Helvetica,sans-Serif" font-size="14.00"> p: (0.07, 0.93) </text>
</g>
<!-- 13&#45;&gt;14 -->
<g id="edge15" class="edge">
<title>13:s&#45;&gt;14:n</title>
<path fill="none" stroke="black" d="M1004.33,-379.71C1004.33,-379.71 1002.78,-352.33 1001.91,-336.93"/>
<polygon fill="black" stroke="black" points="1005.39,-336.5 1001.33,-326.71 998.4,-336.89 1005.39,-336.5"/>
<text text-anchor="middle" x="1008.33" y="-350.51" font-family="Helvetica,sans-Serif" font-size="14.00">1</text>
</g>
<!-- 15 -->
<g id="node17" class="node">
<title>15</title>
<ellipse fill="#3dcc76" stroke="black" cx="1318.33" cy="-289.71" rx="122.16" ry="35.21"/>
<text text-anchor="start" x="1279.33" y="-300.51" font-family="Helvetica,sans-Serif" font-weight="bold" font-size="14.00"> Class=2 </text>
<text text-anchor="start" x="1352.33" y="-300.51" font-family="Helvetica,sans-Serif" font-size="14.00"> </text>
<text text-anchor="start" x="1239.83" y="-286.51" font-family="Helvetica,sans-Serif" font-size="14.00"> error: 0.079, n=1748 </text>
<text text-anchor="start" x="1263.33" y="-272.51" font-family="Helvetica,sans-Serif" font-size="14.00"> p: (0.01, 0.99) </text>
</g>
<!-- 13&#45;&gt;15 -->
<g id="edge16" class="edge">
<title>13:s&#45;&gt;15:n</title>
<path fill="none" stroke="black" d="M1004.33,-379.71C1004.33,-379.71 1254.49,-337.49 1308.24,-328.41"/>
<polygon fill="black" stroke="black" points="1309.05,-331.83 1318.33,-326.71 1307.89,-324.92 1309.05,-331.83"/>
<text text-anchor="middle" x="1204.33" y="-350.51" font-family="Helvetica,sans-Serif" font-size="14.00">3</text>
</g>
<!-- 19 -->
<g id="node20" class="node">
<title>19</title>
<polygon fill="#64e544" stroke="black" points="1682.83,-457.71 1509.83,-457.71 1509.83,-379.71 1682.83,-379.71 1682.83,-457.71"/>
<text text-anchor="start" x="1557.33" y="-443.51" font-family="Helvetica,sans-Serif" font-weight="bold" font-size="14.00"> Class=2 </text>
<text text-anchor="start" x="1630.33" y="-443.51" font-family="Helvetica,sans-Serif" font-size="14.00"> </text>
<text text-anchor="start" x="1517.83" y="-429.51" font-family="Helvetica,sans-Serif" font-size="14.00"> error: 0.461, n=2991 </text>
<text text-anchor="start" x="1541.33" y="-415.51" font-family="Helvetica,sans-Serif" font-size="14.00"> p: (0.10, 0.90) </text>
<text text-anchor="start" x="1574.83" y="-401.51" font-family="Helvetica,sans-Serif" font-size="14.00">&#45;&#45;&#45;&#45;&#45;&#45;&#45;&#45;</text>
<text text-anchor="start" x="1559.83" y="-387.51" font-family="Helvetica,sans-Serif" font-weight="bold" font-size="14.00">v_1=0.18</text>
</g>
<!-- 18&#45;&gt;19 -->
<g id="edge19" class="edge">
<title>18:s&#45;&gt;19:n</title>
<path fill="none" stroke="black" d="M1596.33,-508.71C1596.33,-508.71 1596.33,-482.93 1596.33,-468.03"/>
<polygon fill="black" stroke="black" points="1599.83,-467.71 1596.33,-457.71 1592.83,-467.71 1599.83,-467.71"/>
<text text-anchor="middle" x="1601.33" y="-479.51" font-family="Helvetica,sans-Serif" font-size="14.00">1</text>
</g>
<!-- 22 -->
<g id="node21" class="node">
<title>22</title>
<ellipse fill="#64e544" stroke="black" cx="1877.33" cy="-418.71" rx="122.16" ry="35.21"/>
<text text-anchor="start" x="1838.33" y="-429.51" font-family="Helvetica,sans-Serif" font-weight="bold" font-size="14.00"> Class=2 </text>
<text text-anchor="start" x="1911.33" y="-429.51" font-family="Helvetica,sans-Serif" font-size="14.00"> </text>
<text text-anchor="start" x="1798.83" y="-415.51" font-family="Helvetica,sans-Serif" font-size="14.00"> error: 0.091, n=1726 </text>
<text text-anchor="start" x="1822.33" y="-401.51" font-family="Helvetica,sans-Serif" font-size="14.00"> p: (0.01, 0.99) </text>
</g>
<!-- 18&#45;&gt;22 -->
<g id="edge20" class="edge">
<title>18:s&#45;&gt;22:n</title>
<path fill="none" stroke="black" d="M1596.33,-508.71C1596.33,-508.71 1817.27,-467.04 1867.33,-457.6"/>
<polygon fill="black" stroke="black" points="1868.15,-461 1877.33,-455.71 1866.85,-454.12 1868.15,-461"/>
<text text-anchor="middle" x="1775.33" y="-479.51" font-family="Helvetica,sans-Serif" font-size="14.00">3</text>
</g>
<!-- 20 -->
<g id="node22" class="node">
<title>20</title>
<polygon fill="#3dcc76" stroke="black" points="1685.83,-328.71 1512.83,-328.71 1512.83,-250.71 1685.83,-250.71 1685.83,-328.71"/>
<text text-anchor="start" x="1560.33" y="-314.51" font-family="Helvetica,sans-Serif" font-weight="bold" font-size="14.00"> Class=2 </text>
<text text-anchor="start" x="1633.33" y="-314.51" font-family="Helvetica,sans-Serif" font-size="14.00"> </text>
<text text-anchor="start" x="1520.83" y="-300.51" font-family="Helvetica,sans-Serif" font-size="14.00"> error: 0.222, n=2248 </text>
<text text-anchor="start" x="1544.33" y="-286.51" font-family="Helvetica,sans-Serif" font-size="14.00"> p: (0.04, 0.96) </text>
<text text-anchor="start" x="1591.33" y="-272.51" font-family="Helvetica,sans-Serif" font-size="14.00">&#45;&#45;&#45;</text>
<text text-anchor="start" x="1583.83" y="-258.51" font-family="Helvetica,sans-Serif" font-weight="bold" font-size="14.00">V71</text>
</g>
<!-- 19&#45;&gt;20 -->
<g id="edge21" class="edge">
<title>19:s&#45;&gt;20:n</title>
<path fill="none" stroke="black" d="M1596.33,-379.71C1596.33,-379.71 1597.85,-353.93 1598.72,-339.03"/>
<polygon fill="black" stroke="black" points="1602.24,-338.9 1599.33,-328.71 1595.25,-338.49 1602.24,-338.9"/>
<text text-anchor="middle" x="1634.33" y="-350.51" font-family="Helvetica,sans-Serif" font-size="14.00">&gt; &#45;0.8413</text>
</g>
<!-- 21 -->
<g id="node23" class="node">
<title>21</title>
<ellipse fill="#44e5e5" stroke="black" cx="1599.33" cy="-160.71" rx="122.16" ry="35.21"/>
<text text-anchor="start" x="1560.33" y="-171.51" font-family="Helvetica,sans-Serif" font-weight="bold" font-size="14.00"> Class=2 </text>
<text text-anchor="start" x="1633.33" y="-171.51" font-family="Helvetica,sans-Serif" font-size="14.00"> </text>
<text text-anchor="start" x="1520.83" y="-157.51" font-family="Helvetica,sans-Serif" font-size="14.00"> error: 0.080, n=2024 </text>
<text text-anchor="start" x="1544.33" y="-143.51" font-family="Helvetica,sans-Serif" font-size="14.00"> p: (0.01, 0.99) </text>
</g>
<!-- 20&#45;&gt;21 -->
<g id="edge22" class="edge">
<title>20:s&#45;&gt;21:n</title>
<path fill="none" stroke="black" d="M1599.33,-250.71C1599.33,-250.71 1599.33,-223.33 1599.33,-207.93"/>
<polygon fill="black" stroke="black" points="1602.83,-207.71 1599.33,-197.71 1595.83,-207.71 1602.83,-207.71"/>
<text text-anchor="middle" x="1604.33" y="-221.51" font-family="Helvetica,sans-Serif" font-size="14.00">3</text>
</g>
</g>
</svg>
