<?xml version="1.0" encoding="UTF-8" standalone="no"?>
<!DOCTYPE svg PUBLIC "-//W3C//DTD SVG 1.1//EN"
 "http://www.w3.org/Graphics/SVG/1.1/DTD/svg11.dtd">
<!-- Generated by graphviz version 2.43.0 (0)
 -->
<!-- Title: Tree Pages: 1 -->
<svg width="1100pt" height="696pt"
 viewBox="0.00 0.00 1099.57 695.71" xmlns="http://www.w3.org/2000/svg" xmlns:xlink="http://www.w3.org/1999/xlink">
<g id="graph0" class="graph" transform="scale(1 1) rotate(0) translate(18 677.71)">
<title>Tree</title>
<polygon fill="white" stroke="transparent" points="-18,18 -18,-677.71 1081.57,-677.71 1081.57,18 -18,18"/>
<!-- 0 -->
<g id="node1" class="node">
<title>0</title>
<polygon fill="white" stroke="transparent" points="581.97,-659.71 527.97,-659.71 527.97,-623.71 581.97,-623.71 581.97,-659.71"/>
<text text-anchor="middle" x="554.97" y="-638.01" font-family="Helvetica,sans-Serif" font-size="14.00">0</text>
</g>
<!-- 1 -->
<g id="node2" class="node">
<title>1</title>
<polygon fill="#cc3d3d" stroke="black" points="641.47,-586.71 468.47,-586.71 468.47,-508.71 641.47,-508.71 641.47,-586.71"/>
<text text-anchor="start" x="500.47" y="-572.51" font-family="Helvetica,sans-Serif" font-weight="bold" font-size="14.00"> Class=False </text>
<text text-anchor="start" x="604.47" y="-572.51" font-family="Helvetica,sans-Serif" font-size="14.00"> </text>
<text text-anchor="start" x="476.47" y="-558.51" font-family="Helvetica,sans-Serif" font-size="14.00"> error: 0.535, n=1458 </text>
<text text-anchor="start" x="499.97" y="-544.51" font-family="Helvetica,sans-Serif" font-size="14.00"> p: (0.88, 0.12) </text>
<text text-anchor="start" x="530.97" y="-530.51" font-family="Helvetica,sans-Serif" font-size="14.00">&#45;&#45;&#45;&#45;&#45;&#45;&#45;&#45;&#45;</text>
<text text-anchor="start" x="513.97" y="-516.51" font-family="Helvetica,sans-Serif" font-weight="bold" font-size="14.00">v_11=0.00</text>
</g>
<!-- 0&#45;&gt;1 -->
<!-- 2 -->
<g id="node3" class="node">
<title>2</title>
<polygon fill="#e5d544" stroke="black" points="506.47,-457.71 333.47,-457.71 333.47,-379.71 506.47,-379.71 506.47,-457.71"/>
<text text-anchor="start" x="365.47" y="-443.51" font-family="Helvetica,sans-Serif" font-weight="bold" font-size="14.00"> Class=False </text>
<text text-anchor="start" x="469.47" y="-443.51" font-family="Helvetica,sans-Serif" font-size="14.00"> </text>
<text text-anchor="start" x="341.47" y="-429.51" font-family="Helvetica,sans-Serif" font-size="14.00"> error: 0.316, n=1104 </text>
<text text-anchor="start" x="364.97" y="-415.51" font-family="Helvetica,sans-Serif" font-size="14.00"> p: (0.94, 0.06) </text>
<text text-anchor="start" x="398.47" y="-401.51" font-family="Helvetica,sans-Serif" font-size="14.00">&#45;&#45;&#45;&#45;&#45;&#45;&#45;&#45;</text>
<text text-anchor="start" x="383.47" y="-387.51" font-family="Helvetica,sans-Serif" font-weight="bold" font-size="14.00">v_6=0.00</text>
</g>
<!-- 1&#45;&gt;2 -->
<g id="edge2" class="edge">
<title>1:s&#45;&gt;2:n</title>
<path fill="none" stroke="black" d="M554.97,-508.71C554.97,-508.71 460.63,-473.07 429.67,-461.38"/>
<polygon fill="black" stroke="black" points="430.56,-457.97 419.97,-457.71 428.08,-464.52 430.56,-457.97"/>
<text text-anchor="middle" x="535.47" y="-479.51" font-family="Helvetica,sans-Serif" font-size="14.00">&gt; &#45;2.255</text>
</g>
<!-- 5 -->
<g id="node4" class="node">
<title>5</title>
<polygon fill="#e5d544" stroke="black" points="771.97,-457.71 607.97,-457.71 607.97,-379.71 771.97,-379.71 771.97,-457.71"/>
<text text-anchor="start" x="635.47" y="-443.51" font-family="Helvetica,sans-Serif" font-weight="bold" font-size="14.00"> Class=False </text>
<text text-anchor="start" x="739.47" y="-443.51" font-family="Helvetica,sans-Serif" font-size="14.00"> </text>
<text text-anchor="start" x="615.97" y="-429.51" font-family="Helvetica,sans-Serif" font-size="14.00"> error: 0.910, n=354 </text>
<text text-anchor="start" x="634.97" y="-415.51" font-family="Helvetica,sans-Serif" font-size="14.00"> p: (0.68, 0.32) </text>
<text text-anchor="start" x="665.97" y="-401.51" font-family="Helvetica,sans-Serif" font-size="14.00">&#45;&#45;&#45;&#45;&#45;&#45;&#45;&#45;&#45;</text>
<text text-anchor="start" x="648.97" y="-387.51" font-family="Helvetica,sans-Serif" font-weight="bold" font-size="14.00">v_12=0.00</text>
</g>
<!-- 1&#45;&gt;5 -->
<g id="edge3" class="edge">
<title>1:s&#45;&gt;5:n</title>
<path fill="none" stroke="black" d="M554.97,-508.71C554.97,-508.71 649.3,-473.07 680.26,-461.38"/>
<polygon fill="black" stroke="black" points="681.85,-464.52 689.97,-457.71 679.37,-457.97 681.85,-464.52"/>
<text text-anchor="middle" x="676.47" y="-479.51" font-family="Helvetica,sans-Serif" font-size="14.00">&lt;= &#45;2.255</text>
</g>
<!-- 3 -->
<g id="node5" class="node">
<title>3</title>
<ellipse fill="#59cc3d" stroke="black" cx="115.97" cy="-289.71" rx="115.93" ry="35.21"/>
<text text-anchor="start" x="61.47" y="-300.51" font-family="Helvetica,sans-Serif" font-weight="bold" font-size="14.00"> Class=False </text>
<text text-anchor="start" x="165.47" y="-300.51" font-family="Helvetica,sans-Serif" font-size="14.00"> </text>
<text text-anchor="start" x="41.97" y="-286.51" font-family="Helvetica,sans-Serif" font-size="14.00"> error: 0.046, n=595 </text>
<text text-anchor="start" x="60.97" y="-272.51" font-family="Helvetica,sans-Serif" font-size="14.00"> p: (0.99, 0.01) </text>
</g>
<!-- 2&#45;&gt;3 -->
<g id="edge4" class="edge">
<title>2:s&#45;&gt;3:n</title>
<path fill="none" stroke="black" d="M419.97,-379.71C419.97,-379.71 178.83,-337.67 126.08,-328.47"/>
<polygon fill="black" stroke="black" points="126.42,-324.98 115.97,-326.71 125.22,-331.88 126.42,-324.98"/>
<text text-anchor="middle" x="345.97" y="-350.51" font-family="Helvetica,sans-Serif" font-size="14.00">&lt;= &#45;8.68</text>
</g>
<!-- 4 -->
<g id="node6" class="node">
<title>4</title>
<ellipse fill="#59cc3d" stroke="black" cx="419.97" cy="-289.71" rx="115.93" ry="35.21"/>
<text text-anchor="start" x="365.47" y="-300.51" font-family="Helvetica,sans-Serif" font-weight="bold" font-size="14.00"> Class=False </text>
<text text-anchor="start" x="469.47" y="-300.51" font-family="Helvetica,sans-Serif" font-size="14.00"> </text>
<text text-anchor="start" x="345.97" y="-286.51" font-family="Helvetica,sans-Serif" font-size="14.00"> error: 0.523, n=509 </text>
<text text-anchor="start" x="364.97" y="-272.51" font-family="Helvetica,sans-Serif" font-size="14.00"> p: (0.88, 0.12) </text>
</g>
<!-- 2&#45;&gt;4 -->
<g id="edge5" class="edge">
<title>2:s&#45;&gt;4:n</title>
<path fill="none" stroke="black" d="M419.97,-379.71C419.97,-379.71 419.97,-352.33 419.97,-336.93"/>
<polygon fill="black" stroke="black" points="423.47,-336.71 419.97,-326.71 416.47,-336.71 423.47,-336.71"/>
<text text-anchor="middle" x="446.97" y="-350.51" font-family="Helvetica,sans-Serif" font-size="14.00">&gt; &#45;8.68</text>
</g>
<!-- 6 -->
<g id="node7" class="node">
<title>6</title>
<polygon fill="#59cc3d" stroke="black" points="771.97,-328.71 607.97,-328.71 607.97,-250.71 771.97,-250.71 771.97,-328.71"/>
<text text-anchor="start" x="635.47" y="-314.51" font-family="Helvetica,sans-Serif" font-weight="bold" font-size="14.00"> Class=False </text>
<text text-anchor="start" x="739.47" y="-314.51" font-family="Helvetica,sans-Serif" font-size="14.00"> </text>
<text text-anchor="start" x="615.97" y="-300.51" font-family="Helvetica,sans-Serif" font-size="14.00"> error: 0.683, n=182 </text>
<text text-anchor="start" x="634.97" y="-286.51" font-family="Helvetica,sans-Serif" font-size="14.00"> p: (0.82, 0.18) </text>
<text text-anchor="start" x="668.47" y="-272.51" font-family="Helvetica,sans-Serif" font-size="14.00">&#45;&#45;&#45;&#45;&#45;&#45;&#45;&#45;</text>
<text text-anchor="start" x="653.47" y="-258.51" font-family="Helvetica,sans-Serif" font-weight="bold" font-size="14.00">v_7=0.00</text>
</g>
<!-- 5&#45;&gt;6 -->
<g id="edge6" class="edge">
<title>5:s&#45;&gt;6:n</title>
<path fill="none" stroke="black" d="M689.97,-379.71C689.97,-379.71 689.97,-353.93 689.97,-339.03"/>
<polygon fill="black" stroke="black" points="693.47,-338.71 689.97,-328.71 686.47,-338.71 693.47,-338.71"/>
<text text-anchor="middle" x="731.97" y="-350.51" font-family="Helvetica,sans-Serif" font-size="14.00">&lt;= &#45;0.5592</text>
</g>
<!-- 9 -->
<g id="node8" class="node">
<title>9</title>
<polygon fill="#59cc3d" stroke="black" points="1021.97,-328.71 857.97,-328.71 857.97,-250.71 1021.97,-250.71 1021.97,-328.71"/>
<text text-anchor="start" x="885.47" y="-314.51" font-family="Helvetica,sans-Serif" font-weight="bold" font-size="14.00"> Class=False </text>
<text text-anchor="start" x="989.47" y="-314.51" font-family="Helvetica,sans-Serif" font-size="14.00"> </text>
<text text-anchor="start" x="865.97" y="-300.51" font-family="Helvetica,sans-Serif" font-size="14.00"> error: 0.998, n=172 </text>
<text text-anchor="start" x="884.97" y="-286.51" font-family="Helvetica,sans-Serif" font-size="14.00"> p: (0.52, 0.48) </text>
<text text-anchor="start" x="915.97" y="-272.51" font-family="Helvetica,sans-Serif" font-size="14.00">&#45;&#45;&#45;&#45;&#45;&#45;&#45;&#45;&#45;</text>
<text text-anchor="start" x="898.97" y="-258.51" font-family="Helvetica,sans-Serif" font-weight="bold" font-size="14.00">v_21=0.00</text>
</g>
<!-- 5&#45;&gt;9 -->
<g id="edge7" class="edge">
<title>5:s&#45;&gt;9:n</title>
<path fill="none" stroke="black" d="M689.97,-379.71C689.97,-379.71 883.94,-340.14 930.17,-330.71"/>
<polygon fill="black" stroke="black" points="930.87,-334.14 939.97,-328.71 929.47,-327.28 930.87,-334.14"/>
<text text-anchor="middle" x="892.97" y="-350.51" font-family="Helvetica,sans-Serif" font-size="14.00">&gt; &#45;0.5592</text>
</g>
<!-- 7 -->
<g id="node9" class="node">
<title>7</title>
<ellipse fill="#44e5b5" stroke="black" cx="398.97" cy="-160.71" rx="109.7" ry="35.21"/>
<text text-anchor="start" x="344.47" y="-171.51" font-family="Helvetica,sans-Serif" font-weight="bold" font-size="14.00"> Class=False </text>
<text text-anchor="start" x="448.47" y="-171.51" font-family="Helvetica,sans-Serif" font-size="14.00"> </text>
<text text-anchor="start" x="329.47" y="-157.51" font-family="Helvetica,sans-Serif" font-size="14.00"> error: 0.377, n=96 </text>
<text text-anchor="start" x="343.97" y="-143.51" font-family="Helvetica,sans-Serif" font-size="14.00"> p: (0.93, 0.07) </text>
</g>
<!-- 6&#45;&gt;7 -->
<g id="edge8" class="edge">
<title>6:s&#45;&gt;7:n</title>
<path fill="none" stroke="black" d="M689.97,-250.71C689.97,-250.71 460.15,-208.85 408.98,-199.54"/>
<polygon fill="black" stroke="black" points="409.43,-196.06 398.97,-197.71 408.18,-202.95 409.43,-196.06"/>
<text text-anchor="middle" x="625.47" y="-221.51" font-family="Helvetica,sans-Serif" font-size="14.00">&lt;= &#45;1.862</text>
</g>
<!-- 8 -->
<g id="node10" class="node">
<title>8</title>
<ellipse fill="#44e5b5" stroke="black" cx="689.97" cy="-160.71" rx="109.7" ry="35.21"/>
<text text-anchor="start" x="635.47" y="-171.51" font-family="Helvetica,sans-Serif" font-weight="bold" font-size="14.00"> Class=False </text>
<text text-anchor="start" x="739.47" y="-171.51" font-family="Helvetica,sans-Serif" font-size="14.00"> </text>
<text text-anchor="start" x="620.47" y="-157.51" font-family="Helvetica,sans-Serif" font-size="14.00"> error: 0.884, n=86 </text>
<text text-anchor="start" x="634.97" y="-143.51" font-family="Helvetica,sans-Serif" font-size="14.00"> p: (0.70, 0.30) </text>
</g>
<!-- 6&#45;&gt;8 -->
<g id="edge9" class="edge">
<title>6:s&#45;&gt;8:n</title>
<path fill="none" stroke="black" d="M689.97,-250.71C689.97,-250.71 689.97,-223.33 689.97,-207.93"/>
<polygon fill="black" stroke="black" points="693.47,-207.71 689.97,-197.71 686.47,-207.71 693.47,-207.71"/>
<text text-anchor="middle" x="721.47" y="-221.51" font-family="Helvetica,sans-Serif" font-size="14.00">&gt; &#45;1.862</text>
</g>
<!-- 10 -->
<g id="node11" class="node">
<title>10</title>
<polygon fill="#44e5b5" stroke="black" points="1035.97,-199.71 871.97,-199.71 871.97,-121.71 1035.97,-121.71 1035.97,-199.71"/>
<text text-anchor="start" x="902.97" y="-185.51" font-family="Helvetica,sans-Serif" font-weight="bold" font-size="14.00"> Class=True </text>
<text text-anchor="start" x="999.97" y="-185.51" font-family="Helvetica,sans-Serif" font-size="14.00"> </text>
<text text-anchor="start" x="879.97" y="-171.51" font-family="Helvetica,sans-Serif" font-size="14.00"> error: 0.968, n=124 </text>
<text text-anchor="start" x="898.97" y="-157.51" font-family="Helvetica,sans-Serif" font-size="14.00"> p: (0.40, 0.60) </text>
<text text-anchor="start" x="929.97" y="-143.51" font-family="Helvetica,sans-Serif" font-size="14.00">&#45;&#45;&#45;&#45;&#45;&#45;&#45;&#45;&#45;</text>
<text text-anchor="start" x="912.97" y="-129.51" font-family="Helvetica,sans-Serif" font-weight="bold" font-size="14.00">v_13=0.00</text>
</g>
<!-- 9&#45;&gt;10 -->
<g id="edge10" class="edge">
<title>9:s&#45;&gt;10:n</title>
<path fill="none" stroke="black" d="M939.97,-250.71C939.97,-250.71 947.2,-224.36 951.27,-209.54"/>
<polygon fill="black" stroke="black" points="954.69,-210.28 953.97,-199.71 947.94,-208.43 954.69,-210.28"/>
<text text-anchor="middle" x="987.47" y="-221.51" font-family="Helvetica,sans-Serif" font-size="14.00">&lt;= 0.2979</text>
</g>
<!-- 11 -->
<g id="node12" class="node">
<title>11</title>
<ellipse fill="#3d76cc" stroke="black" cx="953.97" cy="-35.36" rx="109.7" ry="35.21"/>
<text text-anchor="start" x="902.97" y="-46.16" font-family="Helvetica,sans-Serif" font-weight="bold" font-size="14.00"> Class=True </text>
<text text-anchor="start" x="999.97" y="-46.16" font-family="Helvetica,sans-Serif" font-size="14.00"> </text>
<text text-anchor="start" x="884.47" y="-32.16" font-family="Helvetica,sans-Serif" font-size="14.00"> error: 0.844, n=92 </text>
<text text-anchor="start" x="898.97" y="-18.16" font-family="Helvetica,sans-Serif" font-size="14.00"> p: (0.27, 0.73) </text>
</g>
<!-- 10&#45;&gt;11 -->
<g id="edge11" class="edge">
<title>10:s&#45;&gt;11:n</title>
<path fill="none" stroke="black" d="M953.97,-121.71C953.97,-121.71 953.97,-95.93 953.97,-81.03"/>
<polygon fill="black" stroke="black" points="957.47,-80.71 953.97,-70.71 950.47,-80.71 957.47,-80.71"/>
<text text-anchor="middle" x="985.47" y="-92.51" font-family="Helvetica,sans-Serif" font-size="14.00">&gt; &#45;1.654</text>
</g>
</g>
</svg>
