<?xml version="1.0" encoding="UTF-8" standalone="no"?>
<!DOCTYPE svg PUBLIC "-//W3C//DTD SVG 1.1//EN"
 "http://www.w3.org/Graphics/SVG/1.1/DTD/svg11.dtd">
<!-- Generated by graphviz version 2.43.0 (0)
 -->
<!-- Title: Tree Pages: 1 -->
<svg width="1177pt" height="696pt"
 viewBox="0.00 0.00 1176.93 695.71" xmlns="http://www.w3.org/2000/svg" xmlns:xlink="http://www.w3.org/1999/xlink">
<g id="graph0" class="graph" transform="scale(1 1) rotate(0) translate(18 677.71)">
<title>Tree</title>
<polygon fill="white" stroke="transparent" points="-18,18 -18,-677.71 1158.93,-677.71 1158.93,18 -18,18"/>
<!-- 0 -->
<g id="node1" class="node">
<title>0</title>
<polygon fill="white" stroke="transparent" points="592.97,-659.71 538.97,-659.71 538.97,-623.71 592.97,-623.71 592.97,-659.71"/>
<text text-anchor="middle" x="565.97" y="-638.01" font-family="Helvetica,sans-Serif" font-size="14.00">0</text>
</g>
<!-- 1 -->
<g id="node2" class="node">
<title>1</title>
<polygon fill="#cc3d3d" stroke="black" points="652.47,-586.71 479.47,-586.71 479.47,-508.71 652.47,-508.71 652.47,-586.71"/>
<text text-anchor="start" x="526.97" y="-572.51" font-family="Helvetica,sans-Serif" font-weight="bold" font-size="14.00"> Class=1 </text>
<text text-anchor="start" x="599.97" y="-572.51" font-family="Helvetica,sans-Serif" font-size="14.00"> </text>
<text text-anchor="start" x="487.47" y="-558.51" font-family="Helvetica,sans-Serif" font-size="14.00"> error: 0.873, n=5404 </text>
<text text-anchor="start" x="510.97" y="-544.51" font-family="Helvetica,sans-Serif" font-size="14.00"> p: (0.71, 0.29) </text>
<text text-anchor="start" x="560.47" y="-530.51" font-family="Helvetica,sans-Serif" font-size="14.00">&#45;&#45;</text>
<text text-anchor="start" x="555.47" y="-516.51" font-family="Helvetica,sans-Serif" font-weight="bold" font-size="14.00">V4</text>
</g>
<!-- 0&#45;&gt;1 -->
<!-- 2 -->
<g id="node3" class="node">
<title>2</title>
<polygon fill="#e5d544" stroke="black" points="512.47,-457.71 339.47,-457.71 339.47,-379.71 512.47,-379.71 512.47,-457.71"/>
<text text-anchor="start" x="386.97" y="-443.51" font-family="Helvetica,sans-Serif" font-weight="bold" font-size="14.00"> Class=1 </text>
<text text-anchor="start" x="459.97" y="-443.51" font-family="Helvetica,sans-Serif" font-size="14.00"> </text>
<text text-anchor="start" x="347.47" y="-429.51" font-family="Helvetica,sans-Serif" font-size="14.00"> error: 0.994, n=2699 </text>
<text text-anchor="start" x="370.97" y="-415.51" font-family="Helvetica,sans-Serif" font-size="14.00"> p: (0.55, 0.45) </text>
<text text-anchor="start" x="420.47" y="-401.51" font-family="Helvetica,sans-Serif" font-size="14.00">&#45;&#45;</text>
<text text-anchor="start" x="415.47" y="-387.51" font-family="Helvetica,sans-Serif" font-weight="bold" font-size="14.00">V4</text>
</g>
<!-- 1&#45;&gt;2 -->
<g id="edge2" class="edge">
<title>1:s&#45;&gt;2:n</title>
<path fill="none" stroke="black" d="M565.97,-508.71C565.97,-508.71 467.22,-472.74 435.59,-461.22"/>
<polygon fill="black" stroke="black" points="436.56,-457.84 425.97,-457.71 434.16,-464.42 436.56,-457.84"/>
<text text-anchor="middle" x="547.97" y="-479.51" font-family="Helvetica,sans-Serif" font-size="14.00">&gt; &#45;0.1416</text>
</g>
<!-- 5 -->
<g id="node4" class="node">
<title>5</title>
<polygon fill="#e5d544" stroke="black" points="793.47,-457.71 620.47,-457.71 620.47,-379.71 793.47,-379.71 793.47,-457.71"/>
<text text-anchor="start" x="667.97" y="-443.51" font-family="Helvetica,sans-Serif" font-weight="bold" font-size="14.00"> Class=1 </text>
<text text-anchor="start" x="740.97" y="-443.51" font-family="Helvetica,sans-Serif" font-size="14.00"> </text>
<text text-anchor="start" x="628.47" y="-429.51" font-family="Helvetica,sans-Serif" font-size="14.00"> error: 0.568, n=2705 </text>
<text text-anchor="start" x="651.97" y="-415.51" font-family="Helvetica,sans-Serif" font-size="14.00"> p: (0.87, 0.13) </text>
<text text-anchor="start" x="701.47" y="-401.51" font-family="Helvetica,sans-Serif" font-size="14.00">&#45;&#45;</text>
<text text-anchor="start" x="696.47" y="-387.51" font-family="Helvetica,sans-Serif" font-weight="bold" font-size="14.00">V4</text>
</g>
<!-- 1&#45;&gt;5 -->
<g id="edge3" class="edge">
<title>1:s&#45;&gt;5:n</title>
<path fill="none" stroke="black" d="M565.97,-508.71C565.97,-508.71 665.42,-472.74 697.27,-461.22"/>
<polygon fill="black" stroke="black" points="698.75,-464.4 706.97,-457.71 696.37,-457.82 698.75,-464.4"/>
<text text-anchor="middle" x="695.97" y="-479.51" font-family="Helvetica,sans-Serif" font-size="14.00">&lt;= &#45;0.1416</text>
</g>
<!-- 3 -->
<g id="node5" class="node">
<title>3</title>
<ellipse fill="#59cc3d" stroke="black" cx="115.97" cy="-289.71" rx="115.93" ry="35.21"/>
<text text-anchor="start" x="76.97" y="-300.51" font-family="Helvetica,sans-Serif" font-weight="bold" font-size="14.00"> Class=1 </text>
<text text-anchor="start" x="149.97" y="-300.51" font-family="Helvetica,sans-Serif" font-size="14.00"> </text>
<text text-anchor="start" x="41.97" y="-286.51" font-family="Helvetica,sans-Serif" font-size="14.00"> error: 0.538, n=674 </text>
<text text-anchor="start" x="60.97" y="-272.51" font-family="Helvetica,sans-Serif" font-size="14.00"> p: (0.88, 0.12) </text>
</g>
<!-- 2&#45;&gt;3 -->
<g id="edge4" class="edge">
<title>2:s&#45;&gt;3:n</title>
<path fill="none" stroke="black" d="M425.97,-379.71C425.97,-379.71 178.99,-337.49 125.93,-328.41"/>
<polygon fill="black" stroke="black" points="126.41,-324.95 115.97,-326.71 125.23,-331.85 126.41,-324.95"/>
<text text-anchor="middle" x="356.47" y="-350.51" font-family="Helvetica,sans-Serif" font-size="14.00">&lt;= 0.2267</text>
</g>
<!-- 4 -->
<g id="node6" class="node">
<title>4</title>
<ellipse fill="#59cc3d" stroke="black" cx="425.97" cy="-289.71" rx="122.16" ry="35.21"/>
<text text-anchor="start" x="386.97" y="-300.51" font-family="Helvetica,sans-Serif" font-weight="bold" font-size="14.00"> Class=2 </text>
<text text-anchor="start" x="459.97" y="-300.51" font-family="Helvetica,sans-Serif" font-size="14.00"> </text>
<text text-anchor="start" x="347.47" y="-286.51" font-family="Helvetica,sans-Serif" font-size="14.00"> error: 0.988, n=2025 </text>
<text text-anchor="start" x="370.97" y="-272.51" font-family="Helvetica,sans-Serif" font-size="14.00"> p: (0.44, 0.56) </text>
</g>
<!-- 2&#45;&gt;4 -->
<g id="edge5" class="edge">
<title>2:s&#45;&gt;4:n</title>
<path fill="none" stroke="black" d="M425.97,-379.71C425.97,-379.71 425.97,-352.33 425.97,-336.93"/>
<polygon fill="black" stroke="black" points="429.47,-336.71 425.97,-326.71 422.47,-336.71 429.47,-336.71"/>
<text text-anchor="middle" x="459.47" y="-350.51" font-family="Helvetica,sans-Serif" font-size="14.00">&gt; 0.2267</text>
</g>
<!-- 6 -->
<g id="node7" class="node">
<title>6</title>
<polygon fill="#59cc3d" stroke="black" points="793.47,-328.71 620.47,-328.71 620.47,-250.71 793.47,-250.71 793.47,-328.71"/>
<text text-anchor="start" x="667.97" y="-314.51" font-family="Helvetica,sans-Serif" font-weight="bold" font-size="14.00"> Class=1 </text>
<text text-anchor="start" x="740.97" y="-314.51" font-family="Helvetica,sans-Serif" font-size="14.00"> </text>
<text text-anchor="start" x="628.47" y="-300.51" font-family="Helvetica,sans-Serif" font-size="14.00"> error: 0.823, n=1344 </text>
<text text-anchor="start" x="651.97" y="-286.51" font-family="Helvetica,sans-Serif" font-size="14.00"> p: (0.74, 0.26) </text>
<text text-anchor="start" x="701.47" y="-272.51" font-family="Helvetica,sans-Serif" font-size="14.00">&#45;&#45;</text>
<text text-anchor="start" x="696.47" y="-258.51" font-family="Helvetica,sans-Serif" font-weight="bold" font-size="14.00">V2</text>
</g>
<!-- 5&#45;&gt;6 -->
<g id="edge6" class="edge">
<title>5:s&#45;&gt;6:n</title>
<path fill="none" stroke="black" d="M706.97,-379.71C706.97,-379.71 706.97,-353.93 706.97,-339.03"/>
<polygon fill="black" stroke="black" points="710.47,-338.71 706.97,-328.71 703.47,-338.71 710.47,-338.71"/>
<text text-anchor="middle" x="748.97" y="-350.51" font-family="Helvetica,sans-Serif" font-size="14.00">&lt;= &#45;0.7625</text>
</g>
<!-- 11 -->
<g id="node8" class="node">
<title>11</title>
<ellipse fill="#59cc3d" stroke="black" cx="987.97" cy="-289.71" rx="122.16" ry="35.21"/>
<text text-anchor="start" x="948.97" y="-300.51" font-family="Helvetica,sans-Serif" font-weight="bold" font-size="14.00"> Class=1 </text>
<text text-anchor="start" x="1021.97" y="-300.51" font-family="Helvetica,sans-Serif" font-size="14.00"> </text>
<text text-anchor="start" x="909.47" y="-286.51" font-family="Helvetica,sans-Serif" font-size="14.00"> error: 0.092, n=1361 </text>
<text text-anchor="start" x="932.97" y="-272.51" font-family="Helvetica,sans-Serif" font-size="14.00"> p: (0.99, 0.01) </text>
</g>
<!-- 5&#45;&gt;11 -->
<g id="edge7" class="edge">
<title>5:s&#45;&gt;11:n</title>
<path fill="none" stroke="black" d="M706.97,-379.71C706.97,-379.71 927.91,-338.04 977.96,-328.6"/>
<polygon fill="black" stroke="black" points="978.79,-332 987.97,-326.71 977.49,-325.12 978.79,-332"/>
<text text-anchor="middle" x="918.97" y="-350.51" font-family="Helvetica,sans-Serif" font-size="14.00">&gt; &#45;0.7625</text>
</g>
<!-- 7 -->
<g id="node9" class="node">
<title>7</title>
<ellipse fill="#44e5b5" stroke="black" cx="598.97" cy="-160.71" rx="115.93" ry="35.21"/>
<text text-anchor="start" x="559.97" y="-171.51" font-family="Helvetica,sans-Serif" font-weight="bold" font-size="14.00"> Class=1 </text>
<text text-anchor="start" x="632.97" y="-171.51" font-family="Helvetica,sans-Serif" font-size="14.00"> </text>
<text text-anchor="start" x="524.97" y="-157.51" font-family="Helvetica,sans-Serif" font-size="14.00"> error: 0.994, n=338 </text>
<text text-anchor="start" x="543.97" y="-143.51" font-family="Helvetica,sans-Serif" font-size="14.00"> p: (0.54, 0.46) </text>
</g>
<!-- 6&#45;&gt;7 -->
<g id="edge8" class="edge">
<title>6:s&#45;&gt;7:n</title>
<path fill="none" stroke="black" d="M706.97,-250.71C706.97,-250.71 634.29,-215.05 608.17,-202.23"/>
<polygon fill="black" stroke="black" points="609.48,-198.97 598.97,-197.71 606.4,-205.26 609.48,-198.97"/>
<text text-anchor="middle" x="683.97" y="-221.51" font-family="Helvetica,sans-Serif" font-size="14.00">&lt;= &#45;0.4761</text>
</g>
<!-- 8 -->
<g id="node10" class="node">
<title>8</title>
<polygon fill="#44e5b5" stroke="black" points="959.47,-199.71 786.47,-199.71 786.47,-121.71 959.47,-121.71 959.47,-199.71"/>
<text text-anchor="start" x="833.97" y="-185.51" font-family="Helvetica,sans-Serif" font-weight="bold" font-size="14.00"> Class=1 </text>
<text text-anchor="start" x="906.97" y="-185.51" font-family="Helvetica,sans-Serif" font-size="14.00"> </text>
<text text-anchor="start" x="794.47" y="-171.51" font-family="Helvetica,sans-Serif" font-size="14.00"> error: 0.703, n=1006 </text>
<text text-anchor="start" x="817.97" y="-157.51" font-family="Helvetica,sans-Serif" font-size="14.00"> p: (0.81, 0.19) </text>
<text text-anchor="start" x="867.47" y="-143.51" font-family="Helvetica,sans-Serif" font-size="14.00">&#45;&#45;</text>
<text text-anchor="start" x="862.47" y="-129.51" font-family="Helvetica,sans-Serif" font-weight="bold" font-size="14.00">V1</text>
</g>
<!-- 6&#45;&gt;8 -->
<g id="edge9" class="edge">
<title>6:s&#45;&gt;8:n</title>
<path fill="none" stroke="black" d="M706.97,-250.71C706.97,-250.71 827.34,-213.73 863.08,-202.75"/>
<polygon fill="black" stroke="black" points="864.43,-205.99 872.97,-199.71 862.38,-199.3 864.43,-205.99"/>
<text text-anchor="middle" x="845.97" y="-221.51" font-family="Helvetica,sans-Serif" font-size="14.00">&gt; &#45;0.4761</text>
</g>
<!-- 9 -->
<g id="node11" class="node">
<title>9</title>
<ellipse fill="#3d76cc" stroke="black" cx="720.97" cy="-35.36" rx="115.93" ry="35.21"/>
<text text-anchor="start" x="681.97" y="-46.16" font-family="Helvetica,sans-Serif" font-weight="bold" font-size="14.00"> Class=1 </text>
<text text-anchor="start" x="754.97" y="-46.16" font-family="Helvetica,sans-Serif" font-size="14.00"> </text>
<text text-anchor="start" x="646.97" y="-32.16" font-family="Helvetica,sans-Serif" font-size="14.00"> error: 0.462, n=501 </text>
<text text-anchor="start" x="665.97" y="-18.16" font-family="Helvetica,sans-Serif" font-size="14.00"> p: (0.90, 0.10) </text>
</g>
<!-- 8&#45;&gt;9 -->
<g id="edge10" class="edge">
<title>8:s&#45;&gt;9:n</title>
<path fill="none" stroke="black" d="M872.97,-121.71C872.97,-121.71 763.75,-85.07 730.47,-73.9"/>
<polygon fill="black" stroke="black" points="731.56,-70.57 720.97,-70.71 729.33,-77.21 731.56,-70.57"/>
<text text-anchor="middle" x="857.97" y="-92.51" font-family="Helvetica,sans-Serif" font-size="14.00">&lt;= &#45;0.4705</text>
</g>
<!-- 10 -->
<g id="node12" class="node">
<title>10</title>
<ellipse fill="#3d76cc" stroke="black" cx="1024.97" cy="-35.36" rx="115.93" ry="35.21"/>
<text text-anchor="start" x="985.97" y="-46.16" font-family="Helvetica,sans-Serif" font-weight="bold" font-size="14.00"> Class=1 </text>
<text text-anchor="start" x="1058.97" y="-46.16" font-family="Helvetica,sans-Serif" font-size="14.00"> </text>
<text text-anchor="start" x="950.97" y="-32.16" font-family="Helvetica,sans-Serif" font-size="14.00"> error: 0.860, n=505 </text>
<text text-anchor="start" x="969.97" y="-18.16" font-family="Helvetica,sans-Serif" font-size="14.00"> p: (0.72, 0.28) </text>
</g>
<!-- 8&#45;&gt;10 -->
<g id="edge11" class="edge">
<title>8:s&#45;&gt;10:n</title>
<path fill="none" stroke="black" d="M872.97,-121.71C872.97,-121.71 982.18,-85.07 1015.46,-73.9"/>
<polygon fill="black" stroke="black" points="1016.6,-77.21 1024.97,-70.71 1014.37,-70.57 1016.6,-77.21"/>
<text text-anchor="middle" x="1003.97" y="-92.51" font-family="Helvetica,sans-Serif" font-size="14.00">&gt; &#45;0.4705</text>
</g>
</g>
</svg>
