<?xml version="1.0" encoding="UTF-8" standalone="no"?>
<!DOCTYPE svg PUBLIC "-//W3C//DTD SVG 1.1//EN"
 "http://www.w3.org/Graphics/SVG/1.1/DTD/svg11.dtd">
<!-- Generated by graphviz version 2.43.0 (0)
 -->
<!-- Title: Tree Pages: 1 -->
<svg width="2281pt" height="1083pt"
 viewBox="0.00 0.00 2281.20 1082.71" xmlns="http://www.w3.org/2000/svg" xmlns:xlink="http://www.w3.org/1999/xlink">
<g id="graph0" class="graph" transform="scale(1 1) rotate(0) translate(18 1064.71)">
<title>Tree</title>
<polygon fill="white" stroke="transparent" points="-18,18 -18,-1064.71 2263.2,-1064.71 2263.2,18 -18,18"/>
<!-- 0 -->
<g id="node1" class="node">
<title>0</title>
<polygon fill="white" stroke="transparent" points="1458.6,-1046.71 1404.6,-1046.71 1404.6,-1010.71 1458.6,-1010.71 1458.6,-1046.71"/>
<text text-anchor="middle" x="1431.6" y="-1025.01" font-family="Helvetica,sans-Serif" font-size="14.00">0</text>
</g>
<!-- 1 -->
<g id="node2" class="node">
<title>1</title>
<polygon fill="#cc3d3d" stroke="black" points="1518.1,-973.71 1345.1,-973.71 1345.1,-895.71 1518.1,-895.71 1518.1,-973.71"/>
<text text-anchor="start" x="1392.6" y="-959.51" font-family="Helvetica,sans-Serif" font-weight="bold" font-size="14.00"> Class=1 </text>
<text text-anchor="start" x="1465.6" y="-959.51" font-family="Helvetica,sans-Serif" font-size="14.00"> </text>
<text text-anchor="start" x="1353.1" y="-945.51" font-family="Helvetica,sans-Serif" font-size="14.00"> error: 0.922, n=1055 </text>
<text text-anchor="start" x="1376.6" y="-931.51" font-family="Helvetica,sans-Serif" font-size="14.00"> p: (0.66, 0.34) </text>
<text text-anchor="start" x="1410.1" y="-917.51" font-family="Helvetica,sans-Serif" font-size="14.00">&#45;&#45;&#45;&#45;&#45;&#45;&#45;&#45;</text>
<text text-anchor="start" x="1395.1" y="-903.51" font-family="Helvetica,sans-Serif" font-weight="bold" font-size="14.00">v_4=0.03</text>
</g>
<!-- 0&#45;&gt;1 -->
<!-- 2 -->
<g id="node3" class="node">
<title>2</title>
<polygon fill="#e59744" stroke="black" points="1327.6,-844.71 1163.6,-844.71 1163.6,-766.71 1327.6,-766.71 1327.6,-844.71"/>
<text text-anchor="start" x="1206.6" y="-830.51" font-family="Helvetica,sans-Serif" font-weight="bold" font-size="14.00"> Class=1 </text>
<text text-anchor="start" x="1279.6" y="-830.51" font-family="Helvetica,sans-Serif" font-size="14.00"> </text>
<text text-anchor="start" x="1171.6" y="-816.51" font-family="Helvetica,sans-Serif" font-size="14.00"> error: 1.000, n=527 </text>
<text text-anchor="start" x="1190.6" y="-802.51" font-family="Helvetica,sans-Serif" font-size="14.00"> p: (0.51, 0.49) </text>
<text text-anchor="start" x="1224.1" y="-788.51" font-family="Helvetica,sans-Serif" font-size="14.00">&#45;&#45;&#45;&#45;&#45;&#45;&#45;&#45;</text>
<text text-anchor="start" x="1209.1" y="-774.51" font-family="Helvetica,sans-Serif" font-weight="bold" font-size="14.00">v_5=0.02</text>
</g>
<!-- 1&#45;&gt;2 -->
<g id="edge2" class="edge">
<title>1:s&#45;&gt;2:n</title>
<path fill="none" stroke="black" d="M1431.6,-895.71C1431.6,-895.71 1293.61,-857.87 1255.34,-847.38"/>
<polygon fill="black" stroke="black" points="1256.17,-843.98 1245.6,-844.71 1254.32,-850.73 1256.17,-843.98"/>
<text text-anchor="middle" x="1395.1" y="-866.51" font-family="Helvetica,sans-Serif" font-size="14.00">&gt; 0.4448</text>
</g>
<!-- 20 -->
<g id="node4" class="node">
<title>20</title>
<polygon fill="#e59744" stroke="black" points="1863.6,-844.71 1699.6,-844.71 1699.6,-766.71 1863.6,-766.71 1863.6,-844.71"/>
<text text-anchor="start" x="1742.6" y="-830.51" font-family="Helvetica,sans-Serif" font-weight="bold" font-size="14.00"> Class=1 </text>
<text text-anchor="start" x="1815.6" y="-830.51" font-family="Helvetica,sans-Serif" font-size="14.00"> </text>
<text text-anchor="start" x="1707.6" y="-816.51" font-family="Helvetica,sans-Serif" font-size="14.00"> error: 0.684, n=528 </text>
<text text-anchor="start" x="1726.6" y="-802.51" font-family="Helvetica,sans-Serif" font-size="14.00"> p: (0.82, 0.18) </text>
<text text-anchor="start" x="1760.1" y="-788.51" font-family="Helvetica,sans-Serif" font-size="14.00">&#45;&#45;&#45;&#45;&#45;&#45;&#45;&#45;</text>
<text text-anchor="start" x="1745.1" y="-774.51" font-family="Helvetica,sans-Serif" font-weight="bold" font-size="14.00">v_5=0.02</text>
</g>
<!-- 1&#45;&gt;20 -->
<g id="edge3" class="edge">
<title>1:s&#45;&gt;20:n</title>
<path fill="none" stroke="black" d="M1431.6,-895.71C1431.6,-895.71 1714.12,-854.54 1771.5,-846.18"/>
<polygon fill="black" stroke="black" points="1772.21,-849.62 1781.6,-844.71 1771.2,-842.69 1772.21,-849.62"/>
<text text-anchor="middle" x="1688.1" y="-866.51" font-family="Helvetica,sans-Serif" font-size="14.00">&lt;= 0.4448</text>
</g>
<!-- 3 -->
<g id="node5" class="node">
<title>3</title>
<polygon fill="#c8cc3d" stroke="black" points="715.6,-715.71 551.6,-715.71 551.6,-637.71 715.6,-637.71 715.6,-715.71"/>
<text text-anchor="start" x="594.6" y="-701.51" font-family="Helvetica,sans-Serif" font-weight="bold" font-size="14.00"> Class=2 </text>
<text text-anchor="start" x="667.6" y="-701.51" font-family="Helvetica,sans-Serif" font-size="14.00"> </text>
<text text-anchor="start" x="559.6" y="-687.51" font-family="Helvetica,sans-Serif" font-size="14.00"> error: 0.972, n=395 </text>
<text text-anchor="start" x="578.6" y="-673.51" font-family="Helvetica,sans-Serif" font-size="14.00"> p: (0.40, 0.60) </text>
<text text-anchor="start" x="609.6" y="-659.51" font-family="Helvetica,sans-Serif" font-size="14.00">&#45;&#45;&#45;&#45;&#45;&#45;&#45;&#45;&#45;</text>
<text text-anchor="start" x="592.6" y="-645.51" font-family="Helvetica,sans-Serif" font-weight="bold" font-size="14.00">v_17=0.00</text>
</g>
<!-- 2&#45;&gt;3 -->
<g id="edge4" class="edge">
<title>2:s&#45;&gt;3:n</title>
<path fill="none" stroke="black" d="M1245.6,-766.71C1245.6,-766.71 723.29,-723.18 643.71,-716.55"/>
<polygon fill="black" stroke="black" points="643.86,-713.05 633.6,-715.71 643.28,-720.03 643.86,-713.05"/>
<text text-anchor="middle" x="1052.1" y="-737.51" font-family="Helvetica,sans-Serif" font-size="14.00">&lt;= 0.1783</text>
</g>
<!-- 15 -->
<g id="node6" class="node">
<title>15</title>
<polygon fill="#c8cc3d" stroke="black" points="1327.6,-715.71 1163.6,-715.71 1163.6,-637.71 1327.6,-637.71 1327.6,-715.71"/>
<text text-anchor="start" x="1206.6" y="-701.51" font-family="Helvetica,sans-Serif" font-weight="bold" font-size="14.00"> Class=1 </text>
<text text-anchor="start" x="1279.6" y="-701.51" font-family="Helvetica,sans-Serif" font-size="14.00"> </text>
<text text-anchor="start" x="1171.6" y="-687.51" font-family="Helvetica,sans-Serif" font-size="14.00"> error: 0.684, n=132 </text>
<text text-anchor="start" x="1190.6" y="-673.51" font-family="Helvetica,sans-Serif" font-size="14.00"> p: (0.82, 0.18) </text>
<text text-anchor="start" x="1221.6" y="-659.51" font-family="Helvetica,sans-Serif" font-size="14.00">&#45;&#45;&#45;&#45;&#45;&#45;&#45;&#45;&#45;</text>
<text text-anchor="start" x="1204.6" y="-645.51" font-family="Helvetica,sans-Serif" font-weight="bold" font-size="14.00">v_10=0.00</text>
</g>
<!-- 2&#45;&gt;15 -->
<g id="edge5" class="edge">
<title>2:s&#45;&gt;15:n</title>
<path fill="none" stroke="black" d="M1245.6,-766.71C1245.6,-766.71 1245.6,-740.93 1245.6,-726.03"/>
<polygon fill="black" stroke="black" points="1249.1,-725.71 1245.6,-715.71 1242.1,-725.71 1249.1,-725.71"/>
<text text-anchor="middle" x="1279.1" y="-737.51" font-family="Helvetica,sans-Serif" font-size="14.00">&gt; 0.1783</text>
</g>
<!-- 21 -->
<g id="node22" class="node">
<title>21</title>
<polygon fill="#c8cc3d" stroke="black" points="1863.6,-715.71 1699.6,-715.71 1699.6,-637.71 1863.6,-637.71 1863.6,-715.71"/>
<text text-anchor="start" x="1742.6" y="-701.51" font-family="Helvetica,sans-Serif" font-weight="bold" font-size="14.00"> Class=1 </text>
<text text-anchor="start" x="1815.6" y="-701.51" font-family="Helvetica,sans-Serif" font-size="14.00"> </text>
<text text-anchor="start" x="1707.6" y="-687.51" font-family="Helvetica,sans-Serif" font-size="14.00"> error: 0.880, n=264 </text>
<text text-anchor="start" x="1726.6" y="-673.51" font-family="Helvetica,sans-Serif" font-size="14.00"> p: (0.70, 0.30) </text>
<text text-anchor="start" x="1760.1" y="-659.51" font-family="Helvetica,sans-Serif" font-size="14.00">&#45;&#45;&#45;&#45;&#45;&#45;&#45;&#45;</text>
<text text-anchor="start" x="1745.1" y="-645.51" font-family="Helvetica,sans-Serif" font-weight="bold" font-size="14.00">v_4=0.03</text>
</g>
<!-- 20&#45;&gt;21 -->
<g id="edge21" class="edge">
<title>20:s&#45;&gt;21:n</title>
<path fill="none" stroke="black" d="M1781.6,-766.71C1781.6,-766.71 1781.6,-740.93 1781.6,-726.03"/>
<polygon fill="black" stroke="black" points="1785.1,-725.71 1781.6,-715.71 1778.1,-725.71 1785.1,-725.71"/>
<text text-anchor="middle" x="1819.1" y="-737.51" font-family="Helvetica,sans-Serif" font-size="14.00">&lt;= &#45;1.145</text>
</g>
<!-- 33 -->
<g id="node23" class="node">
<title>33</title>
<ellipse fill="#c8cc3d" stroke="black" cx="2051.6" cy="-676.71" rx="115.93" ry="35.21"/>
<text text-anchor="start" x="2012.6" y="-687.51" font-family="Helvetica,sans-Serif" font-weight="bold" font-size="14.00"> Class=1 </text>
<text text-anchor="start" x="2085.6" y="-687.51" font-family="Helvetica,sans-Serif" font-size="14.00"> </text>
<text text-anchor="start" x="1977.6" y="-673.51" font-family="Helvetica,sans-Serif" font-size="14.00"> error: 0.345, n=264 </text>
<text text-anchor="start" x="1996.6" y="-659.51" font-family="Helvetica,sans-Serif" font-size="14.00"> p: (0.94, 0.06) </text>
</g>
<!-- 20&#45;&gt;33 -->
<g id="edge22" class="edge">
<title>20:s&#45;&gt;33:n</title>
<path fill="none" stroke="black" d="M1781.6,-766.71C1781.6,-766.71 1992.96,-725.22 2041.67,-715.66"/>
<polygon fill="black" stroke="black" points="2042.46,-719.07 2051.6,-713.71 2041.11,-712.2 2042.46,-719.07"/>
<text text-anchor="middle" x="1979.1" y="-737.51" font-family="Helvetica,sans-Serif" font-size="14.00">&gt; &#45;1.145</text>
</g>
<!-- 4 -->
<g id="node7" class="node">
<title>4</title>
<polygon fill="#8ee544" stroke="black" points="446.1,-586.71 291.1,-586.71 291.1,-508.71 446.1,-508.71 446.1,-586.71"/>
<text text-anchor="start" x="329.6" y="-572.51" font-family="Helvetica,sans-Serif" font-weight="bold" font-size="14.00"> Class=1 </text>
<text text-anchor="start" x="402.6" y="-572.51" font-family="Helvetica,sans-Serif" font-size="14.00"> </text>
<text text-anchor="start" x="299.1" y="-558.51" font-family="Helvetica,sans-Serif" font-size="14.00"> error: 0.918, n=99 </text>
<text text-anchor="start" x="313.6" y="-544.51" font-family="Helvetica,sans-Serif" font-size="14.00"> p: (0.67, 0.33) </text>
<text text-anchor="start" x="347.1" y="-530.51" font-family="Helvetica,sans-Serif" font-size="14.00">&#45;&#45;&#45;&#45;&#45;&#45;&#45;&#45;</text>
<text text-anchor="start" x="332.1" y="-516.51" font-family="Helvetica,sans-Serif" font-weight="bold" font-size="14.00">v_0=0.48</text>
</g>
<!-- 3&#45;&gt;4 -->
<g id="edge6" class="edge">
<title>3:s&#45;&gt;4:n</title>
<path fill="none" stroke="black" d="M633.6,-637.71C633.6,-637.71 427.07,-597.96 378.67,-588.65"/>
<polygon fill="black" stroke="black" points="379.08,-585.16 368.6,-586.71 377.76,-592.04 379.08,-585.16"/>
<text text-anchor="middle" x="573.6" y="-608.51" font-family="Helvetica,sans-Serif" font-size="14.00">&lt;= &#45;0.2734</text>
</g>
<!-- 8 -->
<g id="node8" class="node">
<title>8</title>
<polygon fill="#8ee544" stroke="black" points="715.6,-586.71 551.6,-586.71 551.6,-508.71 715.6,-508.71 715.6,-586.71"/>
<text text-anchor="start" x="594.6" y="-572.51" font-family="Helvetica,sans-Serif" font-weight="bold" font-size="14.00"> Class=2 </text>
<text text-anchor="start" x="667.6" y="-572.51" font-family="Helvetica,sans-Serif" font-size="14.00"> </text>
<text text-anchor="start" x="559.6" y="-558.51" font-family="Helvetica,sans-Serif" font-size="14.00"> error: 0.898, n=296 </text>
<text text-anchor="start" x="578.6" y="-544.51" font-family="Helvetica,sans-Serif" font-size="14.00"> p: (0.31, 0.69) </text>
<text text-anchor="start" x="609.6" y="-530.51" font-family="Helvetica,sans-Serif" font-size="14.00">&#45;&#45;&#45;&#45;&#45;&#45;&#45;&#45;&#45;</text>
<text text-anchor="start" x="592.6" y="-516.51" font-family="Helvetica,sans-Serif" font-weight="bold" font-size="14.00">v_26=0.00</text>
</g>
<!-- 3&#45;&gt;8 -->
<g id="edge7" class="edge">
<title>3:s&#45;&gt;8:n</title>
<path fill="none" stroke="black" d="M633.6,-637.71C633.6,-637.71 633.6,-611.93 633.6,-597.03"/>
<polygon fill="black" stroke="black" points="637.1,-596.71 633.6,-586.71 630.1,-596.71 637.1,-596.71"/>
<text text-anchor="middle" x="669.6" y="-608.51" font-family="Helvetica,sans-Serif" font-size="14.00">&gt; &#45;0.2734</text>
</g>
<!-- 16 -->
<g id="node18" class="node">
<title>16</title>
<polygon fill="#8ee544" stroke="black" points="1193.1,-586.71 1038.1,-586.71 1038.1,-508.71 1193.1,-508.71 1193.1,-586.71"/>
<text text-anchor="start" x="1076.6" y="-572.51" font-family="Helvetica,sans-Serif" font-weight="bold" font-size="14.00"> Class=1 </text>
<text text-anchor="start" x="1149.6" y="-572.51" font-family="Helvetica,sans-Serif" font-size="14.00"> </text>
<text text-anchor="start" x="1046.1" y="-558.51" font-family="Helvetica,sans-Serif" font-size="14.00"> error: 0.196, n=66 </text>
<text text-anchor="start" x="1060.6" y="-544.51" font-family="Helvetica,sans-Serif" font-size="14.00"> p: (0.97, 0.03) </text>
<text text-anchor="start" x="1091.6" y="-530.51" font-family="Helvetica,sans-Serif" font-size="14.00">&#45;&#45;&#45;&#45;&#45;&#45;&#45;&#45;&#45;</text>
<text text-anchor="start" x="1074.6" y="-516.51" font-family="Helvetica,sans-Serif" font-weight="bold" font-size="14.00">v_14=0.00</text>
</g>
<!-- 15&#45;&gt;16 -->
<g id="edge17" class="edge">
<title>15:s&#45;&gt;16:n</title>
<path fill="none" stroke="black" d="M1245.6,-637.71C1245.6,-637.71 1154.76,-602.07 1124.95,-590.38"/>
<polygon fill="black" stroke="black" points="1126.19,-587.1 1115.6,-586.71 1123.63,-593.62 1126.19,-587.1"/>
<text text-anchor="middle" x="1235.6" y="-608.51" font-family="Helvetica,sans-Serif" font-size="14.00">&lt;= &#45;0.2417</text>
</g>
<!-- 18 -->
<g id="node19" class="node">
<title>18</title>
<polygon fill="#8ee544" stroke="black" points="1452.1,-586.71 1297.1,-586.71 1297.1,-508.71 1452.1,-508.71 1452.1,-586.71"/>
<text text-anchor="start" x="1335.6" y="-572.51" font-family="Helvetica,sans-Serif" font-weight="bold" font-size="14.00"> Class=1 </text>
<text text-anchor="start" x="1408.6" y="-572.51" font-family="Helvetica,sans-Serif" font-size="14.00"> </text>
<text text-anchor="start" x="1305.1" y="-558.51" font-family="Helvetica,sans-Serif" font-size="14.00"> error: 0.918, n=66 </text>
<text text-anchor="start" x="1319.6" y="-544.51" font-family="Helvetica,sans-Serif" font-size="14.00"> p: (0.67, 0.33) </text>
<text text-anchor="start" x="1350.6" y="-530.51" font-family="Helvetica,sans-Serif" font-size="14.00">&#45;&#45;&#45;&#45;&#45;&#45;&#45;&#45;&#45;</text>
<text text-anchor="start" x="1333.6" y="-516.51" font-family="Helvetica,sans-Serif" font-weight="bold" font-size="14.00">v_21=0.00</text>
</g>
<!-- 15&#45;&gt;18 -->
<g id="edge18" class="edge">
<title>15:s&#45;&gt;18:n</title>
<path fill="none" stroke="black" d="M1245.6,-637.71C1245.6,-637.71 1334.91,-602.4 1364.91,-590.54"/>
<polygon fill="black" stroke="black" points="1366.59,-593.64 1374.6,-586.71 1364.02,-587.13 1366.59,-593.64"/>
<text text-anchor="middle" x="1361.6" y="-608.51" font-family="Helvetica,sans-Serif" font-size="14.00">&gt; &#45;0.2417</text>
</g>
<!-- 5 -->
<g id="node9" class="node">
<title>5</title>
<ellipse fill="#3dcc45" stroke="black" cx="109.6" cy="-418.71" rx="109.7" ry="35.21"/>
<text text-anchor="start" x="70.6" y="-429.51" font-family="Helvetica,sans-Serif" font-weight="bold" font-size="14.00"> Class=1 </text>
<text text-anchor="start" x="143.6" y="-429.51" font-family="Helvetica,sans-Serif" font-size="14.00"> </text>
<text text-anchor="start" x="40.1" y="-415.51" font-family="Helvetica,sans-Serif" font-size="14.00"> error: 0.536, n=49 </text>
<text text-anchor="start" x="54.6" y="-401.51" font-family="Helvetica,sans-Serif" font-size="14.00"> p: (0.88, 0.12) </text>
</g>
<!-- 4&#45;&gt;5 -->
<g id="edge8" class="edge">
<title>4:s&#45;&gt;5:n</title>
<path fill="none" stroke="black" d="M368.6,-508.71C368.6,-508.71 166.75,-467.4 119.44,-457.72"/>
<polygon fill="black" stroke="black" points="120.1,-454.29 109.6,-455.71 118.7,-461.14 120.1,-454.29"/>
<text text-anchor="middle" x="315.6" y="-479.51" font-family="Helvetica,sans-Serif" font-size="14.00">&lt;= 0.438</text>
</g>
<!-- 6 -->
<g id="node10" class="node">
<title>6</title>
<polygon fill="#3dcc45" stroke="black" points="446.1,-457.71 291.1,-457.71 291.1,-379.71 446.1,-379.71 446.1,-457.71"/>
<text text-anchor="start" x="329.6" y="-443.51" font-family="Helvetica,sans-Serif" font-weight="bold" font-size="14.00"> Class=2 </text>
<text text-anchor="start" x="402.6" y="-443.51" font-family="Helvetica,sans-Serif" font-size="14.00"> </text>
<text text-anchor="start" x="299.1" y="-429.51" font-family="Helvetica,sans-Serif" font-size="14.00"> error: 0.995, n=50 </text>
<text text-anchor="start" x="313.6" y="-415.51" font-family="Helvetica,sans-Serif" font-size="14.00"> p: (0.46, 0.54) </text>
<text text-anchor="start" x="344.6" y="-401.51" font-family="Helvetica,sans-Serif" font-size="14.00">&#45;&#45;&#45;&#45;&#45;&#45;&#45;&#45;&#45;</text>
<text text-anchor="start" x="327.6" y="-387.51" font-family="Helvetica,sans-Serif" font-weight="bold" font-size="14.00">v_17=0.00</text>
</g>
<!-- 4&#45;&gt;6 -->
<g id="edge9" class="edge">
<title>4:s&#45;&gt;6:n</title>
<path fill="none" stroke="black" d="M368.6,-508.71C368.6,-508.71 368.6,-482.93 368.6,-468.03"/>
<polygon fill="black" stroke="black" points="372.1,-467.71 368.6,-457.71 365.1,-467.71 372.1,-467.71"/>
<text text-anchor="middle" x="397.6" y="-479.51" font-family="Helvetica,sans-Serif" font-size="14.00">&gt; 0.438</text>
</g>
<!-- 9 -->
<g id="node12" class="node">
<title>9</title>
<polygon fill="#3dcc45" stroke="black" points="690.6,-457.71 526.6,-457.71 526.6,-379.71 690.6,-379.71 690.6,-457.71"/>
<text text-anchor="start" x="569.6" y="-443.51" font-family="Helvetica,sans-Serif" font-weight="bold" font-size="14.00"> Class=2 </text>
<text text-anchor="start" x="642.6" y="-443.51" font-family="Helvetica,sans-Serif" font-size="14.00"> </text>
<text text-anchor="start" x="534.6" y="-429.51" font-family="Helvetica,sans-Serif" font-size="14.00"> error: 0.738, n=221 </text>
<text text-anchor="start" x="553.6" y="-415.51" font-family="Helvetica,sans-Serif" font-size="14.00"> p: (0.21, 0.79) </text>
<text text-anchor="start" x="584.6" y="-401.51" font-family="Helvetica,sans-Serif" font-size="14.00">&#45;&#45;&#45;&#45;&#45;&#45;&#45;&#45;&#45;</text>
<text text-anchor="start" x="567.6" y="-387.51" font-family="Helvetica,sans-Serif" font-weight="bold" font-size="14.00">v_13=0.00</text>
</g>
<!-- 8&#45;&gt;9 -->
<g id="edge11" class="edge">
<title>8:s&#45;&gt;9:n</title>
<path fill="none" stroke="black" d="M633.6,-508.71C633.6,-508.71 620.4,-481.79 613.19,-467.06"/>
<polygon fill="black" stroke="black" points="616.15,-465.15 608.6,-457.71 609.86,-468.23 616.15,-465.15"/>
<text text-anchor="middle" x="668.6" y="-479.51" font-family="Helvetica,sans-Serif" font-size="14.00">&lt;= 0.03144</text>
</g>
<!-- 13 -->
<g id="node13" class="node">
<title>13</title>
<polygon fill="#3dcc45" stroke="black" points="918.1,-457.71 763.1,-457.71 763.1,-379.71 918.1,-379.71 918.1,-457.71"/>
<text text-anchor="start" x="801.6" y="-443.51" font-family="Helvetica,sans-Serif" font-weight="bold" font-size="14.00"> Class=1 </text>
<text text-anchor="start" x="874.6" y="-443.51" font-family="Helvetica,sans-Serif" font-size="14.00"> </text>
<text text-anchor="start" x="771.1" y="-429.51" font-family="Helvetica,sans-Serif" font-size="14.00"> error: 0.953, n=75 </text>
<text text-anchor="start" x="785.6" y="-415.51" font-family="Helvetica,sans-Serif" font-size="14.00"> p: (0.63, 0.37) </text>
<text text-anchor="start" x="819.1" y="-401.51" font-family="Helvetica,sans-Serif" font-size="14.00">&#45;&#45;&#45;&#45;&#45;&#45;&#45;&#45;</text>
<text text-anchor="start" x="804.1" y="-387.51" font-family="Helvetica,sans-Serif" font-weight="bold" font-size="14.00">v_9=0.01</text>
</g>
<!-- 8&#45;&gt;13 -->
<g id="edge12" class="edge">
<title>8:s&#45;&gt;13:n</title>
<path fill="none" stroke="black" d="M633.6,-508.71C633.6,-508.71 789.27,-470.36 830.62,-460.17"/>
<polygon fill="black" stroke="black" points="831.73,-463.5 840.6,-457.71 830.05,-456.7 831.73,-463.5"/>
<text text-anchor="middle" x="817.6" y="-479.51" font-family="Helvetica,sans-Serif" font-size="14.00">&gt; 0.03144</text>
</g>
<!-- 7 -->
<g id="node11" class="node">
<title>7</title>
<ellipse fill="#44e5a1" stroke="black" cx="243.6" cy="-289.71" rx="109.7" ry="35.21"/>
<text text-anchor="start" x="204.6" y="-300.51" font-family="Helvetica,sans-Serif" font-weight="bold" font-size="14.00"> Class=1 </text>
<text text-anchor="start" x="277.6" y="-300.51" font-family="Helvetica,sans-Serif" font-size="14.00"> </text>
<text text-anchor="start" x="174.1" y="-286.51" font-family="Helvetica,sans-Serif" font-size="14.00"> error: 0.974, n=37 </text>
<text text-anchor="start" x="188.6" y="-272.51" font-family="Helvetica,sans-Serif" font-size="14.00"> p: (0.59, 0.41) </text>
</g>
<!-- 6&#45;&gt;7 -->
<g id="edge10" class="edge">
<title>6:s&#45;&gt;7:n</title>
<path fill="none" stroke="black" d="M368.6,-379.71C368.6,-379.71 282.07,-343.02 253,-330.69"/>
<polygon fill="black" stroke="black" points="254.17,-327.39 243.6,-326.71 251.44,-333.84 254.17,-327.39"/>
<text text-anchor="middle" x="366.6" y="-350.51" font-family="Helvetica,sans-Serif" font-size="14.00">&lt;= &#45;0.3537</text>
</g>
<!-- 10 -->
<g id="node14" class="node">
<title>10</title>
<polygon fill="#44e5a1" stroke="black" points="580.1,-328.71 425.1,-328.71 425.1,-250.71 580.1,-250.71 580.1,-328.71"/>
<text text-anchor="start" x="463.6" y="-314.51" font-family="Helvetica,sans-Serif" font-weight="bold" font-size="14.00"> Class=2 </text>
<text text-anchor="start" x="536.6" y="-314.51" font-family="Helvetica,sans-Serif" font-size="14.00"> </text>
<text text-anchor="start" x="433.1" y="-300.51" font-family="Helvetica,sans-Serif" font-size="14.00"> error: 0.999, n=56 </text>
<text text-anchor="start" x="447.6" y="-286.51" font-family="Helvetica,sans-Serif" font-size="14.00"> p: (0.48, 0.52) </text>
<text text-anchor="start" x="478.6" y="-272.51" font-family="Helvetica,sans-Serif" font-size="14.00">&#45;&#45;&#45;&#45;&#45;&#45;&#45;&#45;&#45;</text>
<text text-anchor="start" x="461.6" y="-258.51" font-family="Helvetica,sans-Serif" font-weight="bold" font-size="14.00">v_13=0.00</text>
</g>
<!-- 9&#45;&gt;10 -->
<g id="edge13" class="edge">
<title>9:s&#45;&gt;10:n</title>
<path fill="none" stroke="black" d="M608.6,-379.71C608.6,-379.71 537.27,-345.39 511.64,-333.06"/>
<polygon fill="black" stroke="black" points="513.13,-329.89 502.6,-328.71 510.1,-336.2 513.13,-329.89"/>
<text text-anchor="middle" x="610.6" y="-350.51" font-family="Helvetica,sans-Serif" font-size="14.00">&lt;= &#45;0.1722</text>
</g>
<!-- 12 -->
<g id="node15" class="node">
<title>12</title>
<ellipse fill="#44e5a1" stroke="black" cx="767.6" cy="-289.71" rx="115.93" ry="35.21"/>
<text text-anchor="start" x="728.6" y="-300.51" font-family="Helvetica,sans-Serif" font-weight="bold" font-size="14.00"> Class=2 </text>
<text text-anchor="start" x="801.6" y="-300.51" font-family="Helvetica,sans-Serif" font-size="14.00"> </text>
<text text-anchor="start" x="693.6" y="-286.51" font-family="Helvetica,sans-Serif" font-size="14.00"> error: 0.515, n=165 </text>
<text text-anchor="start" x="712.6" y="-272.51" font-family="Helvetica,sans-Serif" font-size="14.00"> p: (0.12, 0.88) </text>
</g>
<!-- 9&#45;&gt;12 -->
<g id="edge14" class="edge">
<title>9:s&#45;&gt;12:n</title>
<path fill="none" stroke="black" d="M608.6,-379.71C608.6,-379.71 722.85,-341.63 757.66,-330.03"/>
<polygon fill="black" stroke="black" points="759.22,-333.19 767.6,-326.71 757.01,-326.55 759.22,-333.19"/>
<text text-anchor="middle" x="746.6" y="-350.51" font-family="Helvetica,sans-Serif" font-size="14.00">&gt; &#45;0.1722</text>
</g>
<!-- 14 -->
<g id="node17" class="node">
<title>14</title>
<ellipse fill="#44e5a1" stroke="black" cx="1065.6" cy="-289.71" rx="109.7" ry="35.21"/>
<text text-anchor="start" x="1026.6" y="-300.51" font-family="Helvetica,sans-Serif" font-weight="bold" font-size="14.00"> Class=1 </text>
<text text-anchor="start" x="1099.6" y="-300.51" font-family="Helvetica,sans-Serif" font-size="14.00"> </text>
<text text-anchor="start" x="996.1" y="-286.51" font-family="Helvetica,sans-Serif" font-size="14.00"> error: 0.782, n=56 </text>
<text text-anchor="start" x="1010.6" y="-272.51" font-family="Helvetica,sans-Serif" font-size="14.00"> p: (0.77, 0.23) </text>
</g>
<!-- 13&#45;&gt;14 -->
<g id="edge16" class="edge">
<title>13:s&#45;&gt;14:n</title>
<path fill="none" stroke="black" d="M840.6,-379.71C840.6,-379.71 1012.1,-339.31 1055.64,-329.06"/>
<polygon fill="black" stroke="black" points="1056.67,-332.41 1065.6,-326.71 1055.07,-325.6 1056.67,-332.41"/>
<text text-anchor="middle" x="1016.6" y="-350.51" font-family="Helvetica,sans-Serif" font-size="14.00">&gt; &#45;0.7531</text>
</g>
<!-- 11 -->
<g id="node16" class="node">
<title>11</title>
<ellipse fill="#3dc0cc" stroke="black" cx="502.6" cy="-160.71" rx="109.7" ry="35.21"/>
<text text-anchor="start" x="463.6" y="-171.51" font-family="Helvetica,sans-Serif" font-weight="bold" font-size="14.00"> Class=2 </text>
<text text-anchor="start" x="536.6" y="-171.51" font-family="Helvetica,sans-Serif" font-size="14.00"> </text>
<text text-anchor="start" x="433.1" y="-157.51" font-family="Helvetica,sans-Serif" font-size="14.00"> error: 0.947, n=41 </text>
<text text-anchor="start" x="447.6" y="-143.51" font-family="Helvetica,sans-Serif" font-size="14.00"> p: (0.37, 0.63) </text>
</g>
<!-- 10&#45;&gt;11 -->
<g id="edge15" class="edge">
<title>10:s&#45;&gt;11:n</title>
<path fill="none" stroke="black" d="M502.6,-250.71C502.6,-250.71 502.6,-223.33 502.6,-207.93"/>
<polygon fill="black" stroke="black" points="506.1,-207.71 502.6,-197.71 499.1,-207.71 506.1,-207.71"/>
<text text-anchor="middle" x="538.6" y="-221.51" font-family="Helvetica,sans-Serif" font-size="14.00">&gt; &#45;0.7544</text>
</g>
<!-- 17 -->
<g id="node20" class="node">
<title>17</title>
<ellipse fill="#3dcc45" stroke="black" cx="1099.6" cy="-418.71" rx="109.7" ry="35.21"/>
<text text-anchor="start" x="1060.6" y="-429.51" font-family="Helvetica,sans-Serif" font-weight="bold" font-size="14.00"> Class=1 </text>
<text text-anchor="start" x="1133.6" y="-429.51" font-family="Helvetica,sans-Serif" font-size="14.00"> </text>
<text text-anchor="start" x="1030.1" y="-415.51" font-family="Helvetica,sans-Serif" font-size="14.00"> error: 0.000, n=50 </text>
<text text-anchor="start" x="1044.6" y="-401.51" font-family="Helvetica,sans-Serif" font-size="14.00"> p: (1.00, 0.00) </text>
</g>
<!-- 16&#45;&gt;17 -->
<g id="edge19" class="edge">
<title>16:s&#45;&gt;17:n</title>
<path fill="none" stroke="black" d="M1115.6,-508.71C1115.6,-508.71 1107.16,-480.73 1102.54,-465.43"/>
<polygon fill="black" stroke="black" points="1105.84,-464.27 1099.6,-455.71 1099.14,-466.3 1105.84,-464.27"/>
<text text-anchor="middle" x="1150.1" y="-479.51" font-family="Helvetica,sans-Serif" font-size="14.00">&lt;= 0.5962</text>
</g>
<!-- 19 -->
<g id="node21" class="node">
<title>19</title>
<ellipse fill="#3dcc45" stroke="black" cx="1390.6" cy="-418.71" rx="109.7" ry="35.21"/>
<text text-anchor="start" x="1351.6" y="-429.51" font-family="Helvetica,sans-Serif" font-weight="bold" font-size="14.00"> Class=1 </text>
<text text-anchor="start" x="1424.6" y="-429.51" font-family="Helvetica,sans-Serif" font-size="14.00"> </text>
<text text-anchor="start" x="1321.1" y="-415.51" font-family="Helvetica,sans-Serif" font-size="14.00"> error: 0.688, n=49 </text>
<text text-anchor="start" x="1335.6" y="-401.51" font-family="Helvetica,sans-Serif" font-size="14.00"> p: (0.82, 0.18) </text>
</g>
<!-- 18&#45;&gt;19 -->
<g id="edge20" class="edge">
<title>18:s&#45;&gt;19:n</title>
<path fill="none" stroke="black" d="M1374.6,-508.71C1374.6,-508.71 1383.05,-480.73 1387.67,-465.43"/>
<polygon fill="black" stroke="black" points="1391.06,-466.3 1390.6,-455.71 1384.36,-464.27 1391.06,-466.3"/>
<text text-anchor="middle" x="1420.6" y="-479.51" font-family="Helvetica,sans-Serif" font-size="14.00">&gt; &#45;0.3482</text>
</g>
<!-- 22 -->
<g id="node24" class="node">
<title>22</title>
<polygon fill="#8ee544" stroke="black" points="1863.6,-586.71 1699.6,-586.71 1699.6,-508.71 1863.6,-508.71 1863.6,-586.71"/>
<text text-anchor="start" x="1742.6" y="-572.51" font-family="Helvetica,sans-Serif" font-weight="bold" font-size="14.00"> Class=1 </text>
<text text-anchor="start" x="1815.6" y="-572.51" font-family="Helvetica,sans-Serif" font-size="14.00"> </text>
<text text-anchor="start" x="1707.6" y="-558.51" font-family="Helvetica,sans-Serif" font-size="14.00"> error: 0.686, n=197 </text>
<text text-anchor="start" x="1726.6" y="-544.51" font-family="Helvetica,sans-Serif" font-size="14.00"> p: (0.82, 0.18) </text>
<text text-anchor="start" x="1760.1" y="-530.51" font-family="Helvetica,sans-Serif" font-size="14.00">&#45;&#45;&#45;&#45;&#45;&#45;&#45;&#45;</text>
<text text-anchor="start" x="1745.1" y="-516.51" font-family="Helvetica,sans-Serif" font-weight="bold" font-size="14.00">v_3=0.04</text>
</g>
<!-- 21&#45;&gt;22 -->
<g id="edge23" class="edge">
<title>21:s&#45;&gt;22:n</title>
<path fill="none" stroke="black" d="M1781.6,-637.71C1781.6,-637.71 1781.6,-611.93 1781.6,-597.03"/>
<polygon fill="black" stroke="black" points="1785.1,-596.71 1781.6,-586.71 1778.1,-596.71 1785.1,-596.71"/>
<text text-anchor="middle" x="1823.6" y="-608.51" font-family="Helvetica,sans-Serif" font-size="14.00">&lt;= &#45;0.3376</text>
</g>
<!-- 31 -->
<g id="node25" class="node">
<title>31</title>
<polygon fill="#8ee544" stroke="black" points="2161.1,-586.71 2006.1,-586.71 2006.1,-508.71 2161.1,-508.71 2161.1,-586.71"/>
<text text-anchor="start" x="2044.6" y="-572.51" font-family="Helvetica,sans-Serif" font-weight="bold" font-size="14.00"> Class=2 </text>
<text text-anchor="start" x="2117.6" y="-572.51" font-family="Helvetica,sans-Serif" font-size="14.00"> </text>
<text text-anchor="start" x="2014.1" y="-558.51" font-family="Helvetica,sans-Serif" font-size="14.00"> error: 0.941, n=67 </text>
<text text-anchor="start" x="2028.6" y="-544.51" font-family="Helvetica,sans-Serif" font-size="14.00"> p: (0.36, 0.64) </text>
<text text-anchor="start" x="2059.6" y="-530.51" font-family="Helvetica,sans-Serif" font-size="14.00">&#45;&#45;&#45;&#45;&#45;&#45;&#45;&#45;&#45;</text>
<text text-anchor="start" x="2042.6" y="-516.51" font-family="Helvetica,sans-Serif" font-weight="bold" font-size="14.00">v_11=0.00</text>
</g>
<!-- 21&#45;&gt;31 -->
<g id="edge24" class="edge">
<title>21:s&#45;&gt;31:n</title>
<path fill="none" stroke="black" d="M1781.6,-637.71C1781.6,-637.71 2021.15,-597.26 2073.55,-588.41"/>
<polygon fill="black" stroke="black" points="2074.32,-591.83 2083.6,-586.71 2073.16,-584.92 2074.32,-591.83"/>
<text text-anchor="middle" x="2004.6" y="-608.51" font-family="Helvetica,sans-Serif" font-size="14.00">&gt; &#45;0.3376</text>
</g>
<!-- 23 -->
<g id="node26" class="node">
<title>23</title>
<polygon fill="#3dcc45" stroke="black" points="1727.1,-457.71 1572.1,-457.71 1572.1,-379.71 1727.1,-379.71 1727.1,-457.71"/>
<text text-anchor="start" x="1610.6" y="-443.51" font-family="Helvetica,sans-Serif" font-weight="bold" font-size="14.00"> Class=1 </text>
<text text-anchor="start" x="1683.6" y="-443.51" font-family="Helvetica,sans-Serif" font-size="14.00"> </text>
<text text-anchor="start" x="1580.1" y="-429.51" font-family="Helvetica,sans-Serif" font-size="14.00"> error: 0.369, n=99 </text>
<text text-anchor="start" x="1594.6" y="-415.51" font-family="Helvetica,sans-Serif" font-size="14.00"> p: (0.93, 0.07) </text>
<text text-anchor="start" x="1625.6" y="-401.51" font-family="Helvetica,sans-Serif" font-size="14.00">&#45;&#45;&#45;&#45;&#45;&#45;&#45;&#45;&#45;</text>
<text text-anchor="start" x="1608.6" y="-387.51" font-family="Helvetica,sans-Serif" font-weight="bold" font-size="14.00">v_27=0.00</text>
</g>
<!-- 22&#45;&gt;23 -->
<g id="edge25" class="edge">
<title>22:s&#45;&gt;23:n</title>
<path fill="none" stroke="black" d="M1781.6,-508.71C1781.6,-508.71 1689.36,-473.07 1659.09,-461.38"/>
<polygon fill="black" stroke="black" points="1660.19,-458.05 1649.6,-457.71 1657.67,-464.58 1660.19,-458.05"/>
<text text-anchor="middle" x="1763.1" y="-479.51" font-family="Helvetica,sans-Serif" font-size="14.00">&lt;= &#45;1.194</text>
</g>
<!-- 27 -->
<g id="node27" class="node">
<title>27</title>
<polygon fill="#3dcc45" stroke="black" points="1954.1,-457.71 1799.1,-457.71 1799.1,-379.71 1954.1,-379.71 1954.1,-457.71"/>
<text text-anchor="start" x="1837.6" y="-443.51" font-family="Helvetica,sans-Serif" font-weight="bold" font-size="14.00"> Class=1 </text>
<text text-anchor="start" x="1910.6" y="-443.51" font-family="Helvetica,sans-Serif" font-size="14.00"> </text>
<text text-anchor="start" x="1807.1" y="-429.51" font-family="Helvetica,sans-Serif" font-size="14.00"> error: 0.876, n=98 </text>
<text text-anchor="start" x="1821.6" y="-415.51" font-family="Helvetica,sans-Serif" font-size="14.00"> p: (0.70, 0.30) </text>
<text text-anchor="start" x="1855.1" y="-401.51" font-family="Helvetica,sans-Serif" font-size="14.00">&#45;&#45;&#45;&#45;&#45;&#45;&#45;&#45;</text>
<text text-anchor="start" x="1840.1" y="-387.51" font-family="Helvetica,sans-Serif" font-weight="bold" font-size="14.00">v_6=0.01</text>
</g>
<!-- 22&#45;&gt;27 -->
<g id="edge26" class="edge">
<title>22:s&#45;&gt;27:n</title>
<path fill="none" stroke="black" d="M1781.6,-508.71C1781.6,-508.71 1843.71,-475.37 1867.49,-462.6"/>
<polygon fill="black" stroke="black" points="1869.45,-465.52 1876.6,-457.71 1866.14,-459.36 1869.45,-465.52"/>
<text text-anchor="middle" x="1872.1" y="-479.51" font-family="Helvetica,sans-Serif" font-size="14.00">&gt; &#45;1.194</text>
</g>
<!-- 32 -->
<g id="node34" class="node">
<title>32</title>
<ellipse fill="#3dcc45" stroke="black" cx="2135.6" cy="-418.71" rx="109.7" ry="35.21"/>
<text text-anchor="start" x="2096.6" y="-429.51" font-family="Helvetica,sans-Serif" font-weight="bold" font-size="14.00"> Class=2 </text>
<text text-anchor="start" x="2169.6" y="-429.51" font-family="Helvetica,sans-Serif" font-size="14.00"> </text>
<text text-anchor="start" x="2066.1" y="-415.51" font-family="Helvetica,sans-Serif" font-size="14.00"> error: 0.768, n=49 </text>
<text text-anchor="start" x="2080.6" y="-401.51" font-family="Helvetica,sans-Serif" font-size="14.00"> p: (0.22, 0.78) </text>
</g>
<!-- 31&#45;&gt;32 -->
<g id="edge33" class="edge">
<title>31:s&#45;&gt;32:n</title>
<path fill="none" stroke="black" d="M2083.6,-508.71C2083.6,-508.71 2114.08,-477.64 2128.37,-463.08"/>
<polygon fill="black" stroke="black" points="2131.1,-465.3 2135.6,-455.71 2126.1,-460.4 2131.1,-465.3"/>
<text text-anchor="middle" x="2160.6" y="-479.51" font-family="Helvetica,sans-Serif" font-size="14.00">&lt;= 0.09698</text>
</g>
<!-- 24 -->
<g id="node28" class="node">
<title>24</title>
<ellipse fill="#44e5a1" stroke="black" cx="1390.6" cy="-289.71" rx="109.7" ry="35.21"/>
<text text-anchor="start" x="1351.6" y="-300.51" font-family="Helvetica,sans-Serif" font-weight="bold" font-size="14.00"> Class=1 </text>
<text text-anchor="start" x="1424.6" y="-300.51" font-family="Helvetica,sans-Serif" font-size="14.00"> </text>
<text text-anchor="start" x="1321.1" y="-286.51" font-family="Helvetica,sans-Serif" font-size="14.00"> error: 0.000, n=49 </text>
<text text-anchor="start" x="1335.6" y="-272.51" font-family="Helvetica,sans-Serif" font-size="14.00"> p: (1.00, 0.00) </text>
</g>
<!-- 23&#45;&gt;24 -->
<g id="edge27" class="edge">
<title>23:s&#45;&gt;24:n</title>
<path fill="none" stroke="black" d="M1649.6,-379.71C1649.6,-379.71 1447.75,-338.4 1400.44,-328.72"/>
<polygon fill="black" stroke="black" points="1401.1,-325.29 1390.6,-326.71 1399.7,-332.14 1401.1,-325.29"/>
<text text-anchor="middle" x="1594.1" y="-350.51" font-family="Helvetica,sans-Serif" font-size="14.00">&lt;= &#45;0.116</text>
</g>
<!-- 25 -->
<g id="node29" class="node">
<title>25</title>
<polygon fill="#44e5a1" stroke="black" points="1727.1,-328.71 1572.1,-328.71 1572.1,-250.71 1727.1,-250.71 1727.1,-328.71"/>
<text text-anchor="start" x="1610.6" y="-314.51" font-family="Helvetica,sans-Serif" font-weight="bold" font-size="14.00"> Class=1 </text>
<text text-anchor="start" x="1683.6" y="-314.51" font-family="Helvetica,sans-Serif" font-size="14.00"> </text>
<text text-anchor="start" x="1580.1" y="-300.51" font-family="Helvetica,sans-Serif" font-size="14.00"> error: 0.584, n=50 </text>
<text text-anchor="start" x="1594.6" y="-286.51" font-family="Helvetica,sans-Serif" font-size="14.00"> p: (0.86, 0.14) </text>
<text text-anchor="start" x="1628.1" y="-272.51" font-family="Helvetica,sans-Serif" font-size="14.00">&#45;&#45;&#45;&#45;&#45;&#45;&#45;&#45;</text>
<text text-anchor="start" x="1613.1" y="-258.51" font-family="Helvetica,sans-Serif" font-weight="bold" font-size="14.00">v_0=0.48</text>
</g>
<!-- 23&#45;&gt;25 -->
<g id="edge28" class="edge">
<title>23:s&#45;&gt;25:n</title>
<path fill="none" stroke="black" d="M1649.6,-379.71C1649.6,-379.71 1649.6,-353.93 1649.6,-339.03"/>
<polygon fill="black" stroke="black" points="1653.1,-338.71 1649.6,-328.71 1646.1,-338.71 1653.1,-338.71"/>
<text text-anchor="middle" x="1681.1" y="-350.51" font-family="Helvetica,sans-Serif" font-size="14.00">&gt; &#45;0.116</text>
</g>
<!-- 28 -->
<g id="node31" class="node">
<title>28</title>
<polygon fill="#44e5a1" stroke="black" points="1962.1,-328.71 1807.1,-328.71 1807.1,-250.71 1962.1,-250.71 1962.1,-328.71"/>
<text text-anchor="start" x="1845.6" y="-314.51" font-family="Helvetica,sans-Serif" font-weight="bold" font-size="14.00"> Class=1 </text>
<text text-anchor="start" x="1918.6" y="-314.51" font-family="Helvetica,sans-Serif" font-size="14.00"> </text>
<text text-anchor="start" x="1815.1" y="-300.51" font-family="Helvetica,sans-Serif" font-size="14.00"> error: 0.727, n=74 </text>
<text text-anchor="start" x="1829.6" y="-286.51" font-family="Helvetica,sans-Serif" font-size="14.00"> p: (0.80, 0.20) </text>
<text text-anchor="start" x="1860.6" y="-272.51" font-family="Helvetica,sans-Serif" font-size="14.00">&#45;&#45;&#45;&#45;&#45;&#45;&#45;&#45;&#45;</text>
<text text-anchor="start" x="1843.6" y="-258.51" font-family="Helvetica,sans-Serif" font-weight="bold" font-size="14.00">v_19=0.00</text>
</g>
<!-- 27&#45;&gt;28 -->
<g id="edge30" class="edge">
<title>27:s&#45;&gt;28:n</title>
<path fill="none" stroke="black" d="M1876.6,-379.71C1876.6,-379.71 1880.65,-353.93 1882.98,-339.03"/>
<polygon fill="black" stroke="black" points="1886.51,-339.13 1884.6,-328.71 1879.59,-338.05 1886.51,-339.13"/>
<text text-anchor="middle" x="1921.1" y="-350.51" font-family="Helvetica,sans-Serif" font-size="14.00">&lt;= 0.9053</text>
</g>
<!-- 26 -->
<g id="node30" class="node">
<title>26</title>
<ellipse fill="#3dc0cc" stroke="black" cx="1645.6" cy="-160.71" rx="109.7" ry="35.21"/>
<text text-anchor="start" x="1606.6" y="-171.51" font-family="Helvetica,sans-Serif" font-weight="bold" font-size="14.00"> Class=1 </text>
<text text-anchor="start" x="1679.6" y="-171.51" font-family="Helvetica,sans-Serif" font-size="14.00"> </text>
<text text-anchor="start" x="1576.1" y="-157.51" font-family="Helvetica,sans-Serif" font-size="14.00"> error: 0.303, n=37 </text>
<text text-anchor="start" x="1590.6" y="-143.51" font-family="Helvetica,sans-Serif" font-size="14.00"> p: (0.95, 0.05) </text>
</g>
<!-- 25&#45;&gt;26 -->
<g id="edge29" class="edge">
<title>25:s&#45;&gt;26:n</title>
<path fill="none" stroke="black" d="M1649.6,-250.71C1649.6,-250.71 1647.54,-223.33 1646.37,-207.93"/>
<polygon fill="black" stroke="black" points="1649.84,-207.42 1645.6,-197.71 1642.86,-207.95 1649.84,-207.42"/>
<text text-anchor="middle" x="1680.1" y="-221.51" font-family="Helvetica,sans-Serif" font-size="14.00">&gt; &#45;9.292</text>
</g>
<!-- 29 -->
<g id="node32" class="node">
<title>29</title>
<polygon fill="#3dc0cc" stroke="black" points="1982.1,-199.71 1827.1,-199.71 1827.1,-121.71 1982.1,-121.71 1982.1,-199.71"/>
<text text-anchor="start" x="1865.6" y="-185.51" font-family="Helvetica,sans-Serif" font-weight="bold" font-size="14.00"> Class=1 </text>
<text text-anchor="start" x="1938.6" y="-185.51" font-family="Helvetica,sans-Serif" font-size="14.00"> </text>
<text text-anchor="start" x="1835.1" y="-171.51" font-family="Helvetica,sans-Serif" font-size="14.00"> error: 0.838, n=56 </text>
<text text-anchor="start" x="1849.6" y="-157.51" font-family="Helvetica,sans-Serif" font-size="14.00"> p: (0.73, 0.27) </text>
<text text-anchor="start" x="1880.6" y="-143.51" font-family="Helvetica,sans-Serif" font-size="14.00">&#45;&#45;&#45;&#45;&#45;&#45;&#45;&#45;&#45;</text>
<text text-anchor="start" x="1863.6" y="-129.51" font-family="Helvetica,sans-Serif" font-weight="bold" font-size="14.00">v_17=0.00</text>
</g>
<!-- 28&#45;&gt;29 -->
<g id="edge31" class="edge">
<title>28:s&#45;&gt;29:n</title>
<path fill="none" stroke="black" d="M1884.6,-250.71C1884.6,-250.71 1895.16,-223.79 1900.93,-209.06"/>
<polygon fill="black" stroke="black" points="1904.21,-210.3 1904.6,-199.71 1897.69,-207.74 1904.21,-210.3"/>
<text text-anchor="middle" x="1937.1" y="-221.51" font-family="Helvetica,sans-Serif" font-size="14.00">&lt;= 0.1489</text>
</g>
<!-- 30 -->
<g id="node33" class="node">
<title>30</title>
<ellipse fill="#4485e5" stroke="black" cx="1904.6" cy="-35.36" rx="109.7" ry="35.21"/>
<text text-anchor="start" x="1865.6" y="-46.16" font-family="Helvetica,sans-Serif" font-weight="bold" font-size="14.00"> Class=1 </text>
<text text-anchor="start" x="1938.6" y="-46.16" font-family="Helvetica,sans-Serif" font-size="14.00"> </text>
<text text-anchor="start" x="1835.1" y="-32.16" font-family="Helvetica,sans-Serif" font-size="14.00"> error: 0.669, n=40 </text>
<text text-anchor="start" x="1849.6" y="-18.16" font-family="Helvetica,sans-Serif" font-size="14.00"> p: (0.82, 0.17) </text>
</g>
<!-- 29&#45;&gt;30 -->
<g id="edge32" class="edge">
<title>29:s&#45;&gt;30:n</title>
<path fill="none" stroke="black" d="M1904.6,-121.71C1904.6,-121.71 1904.6,-95.93 1904.6,-81.03"/>
<polygon fill="black" stroke="black" points="1908.1,-80.71 1904.6,-70.71 1901.1,-80.71 1908.1,-80.71"/>
<text text-anchor="middle" x="1944.1" y="-92.51" font-family="Helvetica,sans-Serif" font-size="14.00">&lt;= 0.2781</text>
</g>
</g>
</svg>
