<?xml version="1.0" encoding="UTF-8" standalone="no"?>
<!DOCTYPE svg PUBLIC "-//W3C//DTD SVG 1.1//EN"
 "http://www.w3.org/Graphics/SVG/1.1/DTD/svg11.dtd">
<!-- Generated by graphviz version 2.43.0 (0)
 -->
<!-- Title: Tree Pages: 1 -->
<svg width="2648pt" height="1083pt"
 viewBox="0.00 0.00 2647.93 1082.71" xmlns="http://www.w3.org/2000/svg" xmlns:xlink="http://www.w3.org/1999/xlink">
<g id="graph0" class="graph" transform="scale(1 1) rotate(0) translate(18 1064.71)">
<title>Tree</title>
<polygon fill="white" stroke="transparent" points="-18,18 -18,-1064.71 2629.93,-1064.71 2629.93,18 -18,18"/>
<!-- 0 -->
<g id="node1" class="node">
<title>0</title>
<polygon fill="white" stroke="transparent" points="1563.97,-1046.71 1509.97,-1046.71 1509.97,-1010.71 1563.97,-1010.71 1563.97,-1046.71"/>
<text text-anchor="middle" x="1536.97" y="-1025.01" font-family="Helvetica,sans-Serif" font-size="14.00">0</text>
</g>
<!-- 1 -->
<g id="node2" class="node">
<title>1</title>
<polygon fill="#cc3d3d" stroke="black" points="1623.47,-973.71 1450.47,-973.71 1450.47,-895.71 1623.47,-895.71 1623.47,-973.71"/>
<text text-anchor="start" x="1497.97" y="-959.51" font-family="Helvetica,sans-Serif" font-weight="bold" font-size="14.00"> Class=0 </text>
<text text-anchor="start" x="1570.97" y="-959.51" font-family="Helvetica,sans-Serif" font-size="14.00"> </text>
<text text-anchor="start" x="1458.47" y="-945.51" font-family="Helvetica,sans-Serif" font-size="14.00"> error: 0.967, n=4601 </text>
<text text-anchor="start" x="1481.97" y="-931.51" font-family="Helvetica,sans-Serif" font-size="14.00"> p: (0.61, 0.39) </text>
<text text-anchor="start" x="1515.47" y="-917.51" font-family="Helvetica,sans-Serif" font-size="14.00">&#45;&#45;&#45;&#45;&#45;&#45;&#45;&#45;</text>
<text text-anchor="start" x="1500.47" y="-903.51" font-family="Helvetica,sans-Serif" font-weight="bold" font-size="14.00">v_4=0.00</text>
</g>
<!-- 0&#45;&gt;1 -->
<!-- 2 -->
<g id="node3" class="node">
<title>2</title>
<polygon fill="#e59744" stroke="black" points="1483.47,-844.71 1310.47,-844.71 1310.47,-766.71 1483.47,-766.71 1483.47,-844.71"/>
<text text-anchor="start" x="1357.97" y="-830.51" font-family="Helvetica,sans-Serif" font-weight="bold" font-size="14.00"> Class=1 </text>
<text text-anchor="start" x="1430.97" y="-830.51" font-family="Helvetica,sans-Serif" font-size="14.00"> </text>
<text text-anchor="start" x="1318.47" y="-816.51" font-family="Helvetica,sans-Serif" font-size="14.00"> error: 1.000, n=3479 </text>
<text text-anchor="start" x="1341.97" y="-802.51" font-family="Helvetica,sans-Serif" font-size="14.00"> p: (0.50, 0.50) </text>
<text text-anchor="start" x="1375.47" y="-788.51" font-family="Helvetica,sans-Serif" font-size="14.00">&#45;&#45;&#45;&#45;&#45;&#45;&#45;&#45;</text>
<text text-anchor="start" x="1360.47" y="-774.51" font-family="Helvetica,sans-Serif" font-weight="bold" font-size="14.00">v_0=0.93</text>
</g>
<!-- 1&#45;&gt;2 -->
<g id="edge2" class="edge">
<title>1:s&#45;&gt;2:n</title>
<path fill="none" stroke="black" d="M1536.97,-895.71C1536.97,-895.71 1438.22,-859.74 1406.59,-848.22"/>
<polygon fill="black" stroke="black" points="1407.56,-844.84 1396.97,-844.71 1405.16,-851.42 1407.56,-844.84"/>
<text text-anchor="middle" x="1519.97" y="-866.51" font-family="Helvetica,sans-Serif" font-size="14.00">&gt; &#45;0.9195</text>
</g>
<!-- 30 -->
<g id="node4" class="node">
<title>30</title>
<ellipse fill="#e59744" stroke="black" cx="1677.97" cy="-805.71" rx="122.16" ry="35.21"/>
<text text-anchor="start" x="1638.97" y="-816.51" font-family="Helvetica,sans-Serif" font-weight="bold" font-size="14.00"> Class=0 </text>
<text text-anchor="start" x="1711.97" y="-816.51" font-family="Helvetica,sans-Serif" font-size="14.00"> </text>
<text text-anchor="start" x="1599.47" y="-802.51" font-family="Helvetica,sans-Serif" font-size="14.00"> error: 0.323, n=1122 </text>
<text text-anchor="start" x="1622.97" y="-788.51" font-family="Helvetica,sans-Serif" font-size="14.00"> p: (0.94, 0.06) </text>
</g>
<!-- 1&#45;&gt;30 -->
<g id="edge3" class="edge">
<title>1:s&#45;&gt;30:n</title>
<path fill="none" stroke="black" d="M1536.97,-895.71C1536.97,-895.71 1636.42,-858.33 1668.27,-846.35"/>
<polygon fill="black" stroke="black" points="1669.84,-849.51 1677.97,-842.71 1667.37,-842.95 1669.84,-849.51"/>
<text text-anchor="middle" x="1666.97" y="-866.51" font-family="Helvetica,sans-Serif" font-size="14.00">&lt;= &#45;0.9195</text>
</g>
<!-- 3 -->
<g id="node5" class="node">
<title>3</title>
<polygon fill="#c8cc3d" stroke="black" points="1230.47,-715.71 1057.47,-715.71 1057.47,-637.71 1230.47,-637.71 1230.47,-715.71"/>
<text text-anchor="start" x="1104.97" y="-701.51" font-family="Helvetica,sans-Serif" font-weight="bold" font-size="14.00"> Class=0 </text>
<text text-anchor="start" x="1177.97" y="-701.51" font-family="Helvetica,sans-Serif" font-size="14.00"> </text>
<text text-anchor="start" x="1065.47" y="-687.51" font-family="Helvetica,sans-Serif" font-size="14.00"> error: 0.819, n=1795 </text>
<text text-anchor="start" x="1088.97" y="-673.51" font-family="Helvetica,sans-Serif" font-size="14.00"> p: (0.74, 0.26) </text>
<text text-anchor="start" x="1122.47" y="-659.51" font-family="Helvetica,sans-Serif" font-size="14.00">&#45;&#45;&#45;&#45;&#45;&#45;&#45;&#45;</text>
<text text-anchor="start" x="1107.47" y="-645.51" font-family="Helvetica,sans-Serif" font-weight="bold" font-size="14.00">v_0=0.93</text>
</g>
<!-- 2&#45;&gt;3 -->
<g id="edge4" class="edge">
<title>2:s&#45;&gt;3:n</title>
<path fill="none" stroke="black" d="M1396.97,-766.71C1396.97,-766.71 1200.66,-727.14 1153.88,-717.71"/>
<polygon fill="black" stroke="black" points="1154.46,-714.26 1143.97,-715.71 1153.08,-721.12 1154.46,-714.26"/>
<text text-anchor="middle" x="1338.47" y="-737.51" font-family="Helvetica,sans-Serif" font-size="14.00">&lt;= &#45;188.5</text>
</g>
<!-- 16 -->
<g id="node6" class="node">
<title>16</title>
<polygon fill="#c8cc3d" stroke="black" points="1863.47,-715.71 1690.47,-715.71 1690.47,-637.71 1863.47,-637.71 1863.47,-715.71"/>
<text text-anchor="start" x="1737.97" y="-701.51" font-family="Helvetica,sans-Serif" font-weight="bold" font-size="14.00"> Class=1 </text>
<text text-anchor="start" x="1810.97" y="-701.51" font-family="Helvetica,sans-Serif" font-size="14.00"> </text>
<text text-anchor="start" x="1698.47" y="-687.51" font-family="Helvetica,sans-Serif" font-size="14.00"> error: 0.786, n=1684 </text>
<text text-anchor="start" x="1721.97" y="-673.51" font-family="Helvetica,sans-Serif" font-size="14.00"> p: (0.23, 0.77) </text>
<text text-anchor="start" x="1755.47" y="-659.51" font-family="Helvetica,sans-Serif" font-size="14.00">&#45;&#45;&#45;&#45;&#45;&#45;&#45;&#45;</text>
<text text-anchor="start" x="1740.47" y="-645.51" font-family="Helvetica,sans-Serif" font-weight="bold" font-size="14.00">v_4=0.00</text>
</g>
<!-- 2&#45;&gt;16 -->
<g id="edge5" class="edge">
<title>2:s&#45;&gt;16:n</title>
<path fill="none" stroke="black" d="M1396.97,-766.71C1396.97,-766.71 1706.37,-725.19 1766.8,-717.07"/>
<polygon fill="black" stroke="black" points="1767.52,-720.51 1776.97,-715.71 1766.59,-713.57 1767.52,-720.51"/>
<text text-anchor="middle" x="1664.47" y="-737.51" font-family="Helvetica,sans-Serif" font-size="14.00">&gt; &#45;188.5</text>
</g>
<!-- 4 -->
<g id="node7" class="node">
<title>4</title>
<polygon fill="#8ee544" stroke="black" points="501.97,-586.71 337.97,-586.71 337.97,-508.71 501.97,-508.71 501.97,-586.71"/>
<text text-anchor="start" x="380.97" y="-572.51" font-family="Helvetica,sans-Serif" font-weight="bold" font-size="14.00"> Class=0 </text>
<text text-anchor="start" x="453.97" y="-572.51" font-family="Helvetica,sans-Serif" font-size="14.00"> </text>
<text text-anchor="start" x="345.97" y="-558.51" font-family="Helvetica,sans-Serif" font-size="14.00"> error: 0.512, n=964 </text>
<text text-anchor="start" x="364.97" y="-544.51" font-family="Helvetica,sans-Serif" font-size="14.00"> p: (0.89, 0.11) </text>
<text text-anchor="start" x="395.97" y="-530.51" font-family="Helvetica,sans-Serif" font-size="14.00">&#45;&#45;&#45;&#45;&#45;&#45;&#45;&#45;&#45;</text>
<text text-anchor="start" x="378.97" y="-516.51" font-family="Helvetica,sans-Serif" font-weight="bold" font-size="14.00">v_12=0.00</text>
</g>
<!-- 3&#45;&gt;4 -->
<g id="edge6" class="edge">
<title>3:s&#45;&gt;4:n</title>
<path fill="none" stroke="black" d="M1143.97,-637.71C1143.97,-637.71 518.2,-593.63 430.2,-587.43"/>
<polygon fill="black" stroke="black" points="430.19,-583.92 419.97,-586.71 429.69,-590.9 430.19,-583.92"/>
<text text-anchor="middle" x="906.47" y="-608.51" font-family="Helvetica,sans-Serif" font-size="14.00">&lt;= &#45;250.2</text>
</g>
<!-- 9 -->
<g id="node8" class="node">
<title>9</title>
<polygon fill="#8ee544" stroke="black" points="1225.97,-586.71 1061.97,-586.71 1061.97,-508.71 1225.97,-508.71 1225.97,-586.71"/>
<text text-anchor="start" x="1104.97" y="-572.51" font-family="Helvetica,sans-Serif" font-weight="bold" font-size="14.00"> Class=0 </text>
<text text-anchor="start" x="1177.97" y="-572.51" font-family="Helvetica,sans-Serif" font-size="14.00"> </text>
<text text-anchor="start" x="1069.97" y="-558.51" font-family="Helvetica,sans-Serif" font-size="14.00"> error: 0.981, n=831 </text>
<text text-anchor="start" x="1088.97" y="-544.51" font-family="Helvetica,sans-Serif" font-size="14.00"> p: (0.58, 0.42) </text>
<text text-anchor="start" x="1119.97" y="-530.51" font-family="Helvetica,sans-Serif" font-size="14.00">&#45;&#45;&#45;&#45;&#45;&#45;&#45;&#45;&#45;</text>
<text text-anchor="start" x="1102.97" y="-516.51" font-family="Helvetica,sans-Serif" font-weight="bold" font-size="14.00">v_13=0.00</text>
</g>
<!-- 3&#45;&gt;9 -->
<g id="edge7" class="edge">
<title>3:s&#45;&gt;9:n</title>
<path fill="none" stroke="black" d="M1143.97,-637.71C1143.97,-637.71 1143.97,-611.93 1143.97,-597.03"/>
<polygon fill="black" stroke="black" points="1147.47,-596.71 1143.97,-586.71 1140.47,-596.71 1147.47,-596.71"/>
<text text-anchor="middle" x="1175.47" y="-608.51" font-family="Helvetica,sans-Serif" font-size="14.00">&gt; &#45;250.2</text>
</g>
<!-- 17 -->
<g id="node19" class="node">
<title>17</title>
<polygon fill="#8ee544" stroke="black" points="1858.97,-586.71 1694.97,-586.71 1694.97,-508.71 1858.97,-508.71 1858.97,-586.71"/>
<text text-anchor="start" x="1737.97" y="-572.51" font-family="Helvetica,sans-Serif" font-weight="bold" font-size="14.00"> Class=1 </text>
<text text-anchor="start" x="1810.97" y="-572.51" font-family="Helvetica,sans-Serif" font-size="14.00"> </text>
<text text-anchor="start" x="1702.97" y="-558.51" font-family="Helvetica,sans-Serif" font-size="14.00"> error: 0.962, n=843 </text>
<text text-anchor="start" x="1721.97" y="-544.51" font-family="Helvetica,sans-Serif" font-size="14.00"> p: (0.39, 0.61) </text>
<text text-anchor="start" x="1752.97" y="-530.51" font-family="Helvetica,sans-Serif" font-size="14.00">&#45;&#45;&#45;&#45;&#45;&#45;&#45;&#45;&#45;</text>
<text text-anchor="start" x="1735.97" y="-516.51" font-family="Helvetica,sans-Serif" font-weight="bold" font-size="14.00">v_13=0.00</text>
</g>
<!-- 16&#45;&gt;17 -->
<g id="edge18" class="edge">
<title>16:s&#45;&gt;17:n</title>
<path fill="none" stroke="black" d="M1776.97,-637.71C1776.97,-637.71 1776.97,-611.93 1776.97,-597.03"/>
<polygon fill="black" stroke="black" points="1780.47,-596.71 1776.97,-586.71 1773.47,-596.71 1780.47,-596.71"/>
<text text-anchor="middle" x="1811.97" y="-608.51" font-family="Helvetica,sans-Serif" font-size="14.00">&lt;= 0.773</text>
</g>
<!-- 24 -->
<g id="node20" class="node">
<title>24</title>
<polygon fill="#8ee544" stroke="black" points="2300.97,-586.71 2136.97,-586.71 2136.97,-508.71 2300.97,-508.71 2300.97,-586.71"/>
<text text-anchor="start" x="2179.97" y="-572.51" font-family="Helvetica,sans-Serif" font-weight="bold" font-size="14.00"> Class=1 </text>
<text text-anchor="start" x="2252.97" y="-572.51" font-family="Helvetica,sans-Serif" font-size="14.00"> </text>
<text text-anchor="start" x="2144.97" y="-558.51" font-family="Helvetica,sans-Serif" font-size="14.00"> error: 0.413, n=841 </text>
<text text-anchor="start" x="2163.97" y="-544.51" font-family="Helvetica,sans-Serif" font-size="14.00"> p: (0.08, 0.92) </text>
<text text-anchor="start" x="2194.97" y="-530.51" font-family="Helvetica,sans-Serif" font-size="14.00">&#45;&#45;&#45;&#45;&#45;&#45;&#45;&#45;&#45;</text>
<text text-anchor="start" x="2177.97" y="-516.51" font-family="Helvetica,sans-Serif" font-weight="bold" font-size="14.00">v_28=0.00</text>
</g>
<!-- 16&#45;&gt;24 -->
<g id="edge19" class="edge">
<title>16:s&#45;&gt;24:n</title>
<path fill="none" stroke="black" d="M1776.97,-637.71C1776.97,-637.71 2143.11,-595.46 2208.9,-587.87"/>
<polygon fill="black" stroke="black" points="2209.43,-591.33 2218.97,-586.71 2208.63,-584.38 2209.43,-591.33"/>
<text text-anchor="middle" x="2079.97" y="-608.51" font-family="Helvetica,sans-Serif" font-size="14.00">&gt; 0.773</text>
</g>
<!-- 5 -->
<g id="node9" class="node">
<title>5</title>
<ellipse fill="#3dcc45" stroke="black" cx="149.97" cy="-418.71" rx="115.93" ry="35.21"/>
<text text-anchor="start" x="110.97" y="-429.51" font-family="Helvetica,sans-Serif" font-weight="bold" font-size="14.00"> Class=0 </text>
<text text-anchor="start" x="183.97" y="-429.51" font-family="Helvetica,sans-Serif" font-size="14.00"> </text>
<text text-anchor="start" x="75.97" y="-415.51" font-family="Helvetica,sans-Serif" font-size="14.00"> error: 0.896, n=208 </text>
<text text-anchor="start" x="94.97" y="-401.51" font-family="Helvetica,sans-Serif" font-size="14.00"> p: (0.69, 0.31) </text>
</g>
<!-- 4&#45;&gt;5 -->
<g id="edge8" class="edge">
<title>4:s&#45;&gt;5:n</title>
<path fill="none" stroke="black" d="M419.97,-508.71C419.97,-508.71 208.61,-467.22 159.9,-457.66"/>
<polygon fill="black" stroke="black" points="160.45,-454.2 149.97,-455.71 159.1,-461.07 160.45,-454.2"/>
<text text-anchor="middle" x="359.97" y="-479.51" font-family="Helvetica,sans-Serif" font-size="14.00">&lt;= &#45;0.3564</text>
</g>
<!-- 6 -->
<g id="node10" class="node">
<title>6</title>
<polygon fill="#3dcc45" stroke="black" points="501.97,-457.71 337.97,-457.71 337.97,-379.71 501.97,-379.71 501.97,-457.71"/>
<text text-anchor="start" x="380.97" y="-443.51" font-family="Helvetica,sans-Serif" font-weight="bold" font-size="14.00"> Class=0 </text>
<text text-anchor="start" x="453.97" y="-443.51" font-family="Helvetica,sans-Serif" font-size="14.00"> </text>
<text text-anchor="start" x="345.97" y="-429.51" font-family="Helvetica,sans-Serif" font-size="14.00"> error: 0.326, n=756 </text>
<text text-anchor="start" x="364.97" y="-415.51" font-family="Helvetica,sans-Serif" font-size="14.00"> p: (0.94, 0.06) </text>
<text text-anchor="start" x="398.47" y="-401.51" font-family="Helvetica,sans-Serif" font-size="14.00">&#45;&#45;&#45;&#45;&#45;&#45;&#45;&#45;</text>
<text text-anchor="start" x="383.47" y="-387.51" font-family="Helvetica,sans-Serif" font-weight="bold" font-size="14.00">v_3=0.00</text>
</g>
<!-- 4&#45;&gt;6 -->
<g id="edge9" class="edge">
<title>4:s&#45;&gt;6:n</title>
<path fill="none" stroke="black" d="M419.97,-508.71C419.97,-508.71 419.97,-482.93 419.97,-468.03"/>
<polygon fill="black" stroke="black" points="423.47,-467.71 419.97,-457.71 416.47,-467.71 423.47,-467.71"/>
<text text-anchor="middle" x="455.97" y="-479.51" font-family="Helvetica,sans-Serif" font-size="14.00">&gt; &#45;0.3564</text>
</g>
<!-- 10 -->
<g id="node13" class="node">
<title>10</title>
<polygon fill="#3dcc45" stroke="black" points="1109.97,-457.71 945.97,-457.71 945.97,-379.71 1109.97,-379.71 1109.97,-457.71"/>
<text text-anchor="start" x="988.97" y="-443.51" font-family="Helvetica,sans-Serif" font-weight="bold" font-size="14.00"> Class=1 </text>
<text text-anchor="start" x="1061.97" y="-443.51" font-family="Helvetica,sans-Serif" font-size="14.00"> </text>
<text text-anchor="start" x="953.97" y="-429.51" font-family="Helvetica,sans-Serif" font-size="14.00"> error: 0.981, n=413 </text>
<text text-anchor="start" x="972.97" y="-415.51" font-family="Helvetica,sans-Serif" font-size="14.00"> p: (0.42, 0.58) </text>
<text text-anchor="start" x="1003.97" y="-401.51" font-family="Helvetica,sans-Serif" font-size="14.00">&#45;&#45;&#45;&#45;&#45;&#45;&#45;&#45;&#45;</text>
<text text-anchor="start" x="986.97" y="-387.51" font-family="Helvetica,sans-Serif" font-weight="bold" font-size="14.00">v_24=0.00</text>
</g>
<!-- 9&#45;&gt;10 -->
<g id="edge12" class="edge">
<title>9:s&#45;&gt;10:n</title>
<path fill="none" stroke="black" d="M1143.97,-508.71C1143.97,-508.71 1065.16,-474.06 1037.46,-461.88"/>
<polygon fill="black" stroke="black" points="1038.53,-458.53 1027.97,-457.71 1035.71,-464.94 1038.53,-458.53"/>
<text text-anchor="middle" x="1141.97" y="-479.51" font-family="Helvetica,sans-Serif" font-size="14.00">&lt;= &#45;0.1089</text>
</g>
<!-- 13 -->
<g id="node14" class="node">
<title>13</title>
<polygon fill="#3dcc45" stroke="black" points="1413.97,-457.71 1249.97,-457.71 1249.97,-379.71 1413.97,-379.71 1413.97,-457.71"/>
<text text-anchor="start" x="1292.97" y="-443.51" font-family="Helvetica,sans-Serif" font-weight="bold" font-size="14.00"> Class=0 </text>
<text text-anchor="start" x="1365.97" y="-443.51" font-family="Helvetica,sans-Serif" font-size="14.00"> </text>
<text text-anchor="start" x="1257.97" y="-429.51" font-family="Helvetica,sans-Serif" font-size="14.00"> error: 0.824, n=418 </text>
<text text-anchor="start" x="1276.97" y="-415.51" font-family="Helvetica,sans-Serif" font-size="14.00"> p: (0.74, 0.26) </text>
<text text-anchor="start" x="1310.47" y="-401.51" font-family="Helvetica,sans-Serif" font-size="14.00">&#45;&#45;&#45;&#45;&#45;&#45;&#45;&#45;</text>
<text text-anchor="start" x="1295.47" y="-387.51" font-family="Helvetica,sans-Serif" font-weight="bold" font-size="14.00">v_4=0.00</text>
</g>
<!-- 9&#45;&gt;13 -->
<g id="edge13" class="edge">
<title>9:s&#45;&gt;13:n</title>
<path fill="none" stroke="black" d="M1143.97,-508.71C1143.97,-508.71 1283.44,-470.87 1322.12,-460.38"/>
<polygon fill="black" stroke="black" points="1323.23,-463.71 1331.97,-457.71 1321.4,-456.95 1323.23,-463.71"/>
<text text-anchor="middle" x="1296.97" y="-479.51" font-family="Helvetica,sans-Serif" font-size="14.00">&gt; &#45;0.1089</text>
</g>
<!-- 7 -->
<g id="node11" class="node">
<title>7</title>
<ellipse fill="#44e5a1" stroke="black" cx="115.97" cy="-289.71" rx="115.93" ry="35.21"/>
<text text-anchor="start" x="76.97" y="-300.51" font-family="Helvetica,sans-Serif" font-weight="bold" font-size="14.00"> Class=0 </text>
<text text-anchor="start" x="149.97" y="-300.51" font-family="Helvetica,sans-Serif" font-size="14.00"> </text>
<text text-anchor="start" x="41.97" y="-286.51" font-family="Helvetica,sans-Serif" font-size="14.00"> error: 0.554, n=303 </text>
<text text-anchor="start" x="60.97" y="-272.51" font-family="Helvetica,sans-Serif" font-size="14.00"> p: (0.87, 0.13) </text>
</g>
<!-- 6&#45;&gt;7 -->
<g id="edge10" class="edge">
<title>6:s&#45;&gt;7:n</title>
<path fill="none" stroke="black" d="M419.97,-379.71C419.97,-379.71 178.83,-337.67 126.08,-328.47"/>
<polygon fill="black" stroke="black" points="126.42,-324.98 115.97,-326.71 125.22,-331.88 126.42,-324.98"/>
<text text-anchor="middle" x="354.97" y="-350.51" font-family="Helvetica,sans-Serif" font-size="14.00">&lt;= &#45;0.7927</text>
</g>
<!-- 8 -->
<g id="node12" class="node">
<title>8</title>
<ellipse fill="#44e5a1" stroke="black" cx="419.97" cy="-289.71" rx="115.93" ry="35.21"/>
<text text-anchor="start" x="380.97" y="-300.51" font-family="Helvetica,sans-Serif" font-weight="bold" font-size="14.00"> Class=0 </text>
<text text-anchor="start" x="453.97" y="-300.51" font-family="Helvetica,sans-Serif" font-size="14.00"> </text>
<text text-anchor="start" x="345.97" y="-286.51" font-family="Helvetica,sans-Serif" font-size="14.00"> error: 0.102, n=453 </text>
<text text-anchor="start" x="364.97" y="-272.51" font-family="Helvetica,sans-Serif" font-size="14.00"> p: (0.99, 0.01) </text>
</g>
<!-- 6&#45;&gt;8 -->
<g id="edge11" class="edge">
<title>6:s&#45;&gt;8:n</title>
<path fill="none" stroke="black" d="M419.97,-379.71C419.97,-379.71 419.97,-352.33 419.97,-336.93"/>
<polygon fill="black" stroke="black" points="423.47,-336.71 419.97,-326.71 416.47,-336.71 423.47,-336.71"/>
<text text-anchor="middle" x="455.97" y="-350.51" font-family="Helvetica,sans-Serif" font-size="14.00">&gt; &#45;0.7927</text>
</g>
<!-- 11 -->
<g id="node15" class="node">
<title>11</title>
<ellipse fill="#44e5a1" stroke="black" cx="723.97" cy="-289.71" rx="115.93" ry="35.21"/>
<text text-anchor="start" x="684.97" y="-300.51" font-family="Helvetica,sans-Serif" font-weight="bold" font-size="14.00"> Class=1 </text>
<text text-anchor="start" x="757.97" y="-300.51" font-family="Helvetica,sans-Serif" font-size="14.00"> </text>
<text text-anchor="start" x="649.97" y="-286.51" font-family="Helvetica,sans-Serif" font-size="14.00"> error: 0.828, n=211 </text>
<text text-anchor="start" x="668.97" y="-272.51" font-family="Helvetica,sans-Serif" font-size="14.00"> p: (0.26, 0.74) </text>
</g>
<!-- 10&#45;&gt;11 -->
<g id="edge14" class="edge">
<title>10:s&#45;&gt;11:n</title>
<path fill="none" stroke="black" d="M1027.97,-379.71C1027.97,-379.71 786.83,-337.67 734.08,-328.47"/>
<polygon fill="black" stroke="black" points="734.42,-324.98 723.97,-326.71 733.22,-331.88 734.42,-324.98"/>
<text text-anchor="middle" x="962.97" y="-350.51" font-family="Helvetica,sans-Serif" font-size="14.00">&lt;= &#45;0.1715</text>
</g>
<!-- 12 -->
<g id="node16" class="node">
<title>12</title>
<ellipse fill="#44e5a1" stroke="black" cx="1027.97" cy="-289.71" rx="115.93" ry="35.21"/>
<text text-anchor="start" x="988.97" y="-300.51" font-family="Helvetica,sans-Serif" font-weight="bold" font-size="14.00"> Class=0 </text>
<text text-anchor="start" x="1061.97" y="-300.51" font-family="Helvetica,sans-Serif" font-size="14.00"> </text>
<text text-anchor="start" x="953.97" y="-286.51" font-family="Helvetica,sans-Serif" font-size="14.00"> error: 0.979, n=202 </text>
<text text-anchor="start" x="972.97" y="-272.51" font-family="Helvetica,sans-Serif" font-size="14.00"> p: (0.58, 0.42) </text>
</g>
<!-- 10&#45;&gt;12 -->
<g id="edge15" class="edge">
<title>10:s&#45;&gt;12:n</title>
<path fill="none" stroke="black" d="M1027.97,-379.71C1027.97,-379.71 1027.97,-352.33 1027.97,-336.93"/>
<polygon fill="black" stroke="black" points="1031.47,-336.71 1027.97,-326.71 1024.47,-336.71 1031.47,-336.71"/>
<text text-anchor="middle" x="1063.97" y="-350.51" font-family="Helvetica,sans-Serif" font-size="14.00">&gt; &#45;0.1715</text>
</g>
<!-- 14 -->
<g id="node17" class="node">
<title>14</title>
<ellipse fill="#44e5a1" stroke="black" cx="1331.97" cy="-289.71" rx="115.93" ry="35.21"/>
<text text-anchor="start" x="1292.97" y="-300.51" font-family="Helvetica,sans-Serif" font-weight="bold" font-size="14.00"> Class=0 </text>
<text text-anchor="start" x="1365.97" y="-300.51" font-family="Helvetica,sans-Serif" font-size="14.00"> </text>
<text text-anchor="start" x="1257.97" y="-286.51" font-family="Helvetica,sans-Serif" font-size="14.00"> error: 0.386, n=199 </text>
<text text-anchor="start" x="1276.97" y="-272.51" font-family="Helvetica,sans-Serif" font-size="14.00"> p: (0.92, 0.08) </text>
</g>
<!-- 13&#45;&gt;14 -->
<g id="edge16" class="edge">
<title>13:s&#45;&gt;14:n</title>
<path fill="none" stroke="black" d="M1331.97,-379.71C1331.97,-379.71 1331.97,-352.33 1331.97,-336.93"/>
<polygon fill="black" stroke="black" points="1335.47,-336.71 1331.97,-326.71 1328.47,-336.71 1335.47,-336.71"/>
<text text-anchor="middle" x="1371.47" y="-350.51" font-family="Helvetica,sans-Serif" font-size="14.00">&lt;= 0.7076</text>
</g>
<!-- 15 -->
<g id="node18" class="node">
<title>15</title>
<ellipse fill="#44e5a1" stroke="black" cx="1635.97" cy="-289.71" rx="115.93" ry="35.21"/>
<text text-anchor="start" x="1596.97" y="-300.51" font-family="Helvetica,sans-Serif" font-weight="bold" font-size="14.00"> Class=0 </text>
<text text-anchor="start" x="1669.97" y="-300.51" font-family="Helvetica,sans-Serif" font-size="14.00"> </text>
<text text-anchor="start" x="1561.97" y="-286.51" font-family="Helvetica,sans-Serif" font-size="14.00"> error: 0.984, n=219 </text>
<text text-anchor="start" x="1580.97" y="-272.51" font-family="Helvetica,sans-Serif" font-size="14.00"> p: (0.58, 0.42) </text>
</g>
<!-- 13&#45;&gt;15 -->
<g id="edge17" class="edge">
<title>13:s&#45;&gt;15:n</title>
<path fill="none" stroke="black" d="M1331.97,-379.71C1331.97,-379.71 1573.1,-337.67 1625.85,-328.47"/>
<polygon fill="black" stroke="black" points="1626.72,-331.88 1635.97,-326.71 1625.51,-324.98 1626.72,-331.88"/>
<text text-anchor="middle" x="1554.47" y="-350.51" font-family="Helvetica,sans-Serif" font-size="14.00">&gt; 0.7076</text>
</g>
<!-- 18 -->
<g id="node21" class="node">
<title>18</title>
<ellipse fill="#3dcc45" stroke="black" cx="1677.97" cy="-418.71" rx="115.93" ry="35.21"/>
<text text-anchor="start" x="1638.97" y="-429.51" font-family="Helvetica,sans-Serif" font-weight="bold" font-size="14.00"> Class=1 </text>
<text text-anchor="start" x="1711.97" y="-429.51" font-family="Helvetica,sans-Serif" font-size="14.00"> </text>
<text text-anchor="start" x="1603.97" y="-415.51" font-family="Helvetica,sans-Serif" font-size="14.00"> error: 0.542, n=209 </text>
<text text-anchor="start" x="1622.97" y="-401.51" font-family="Helvetica,sans-Serif" font-size="14.00"> p: (0.12, 0.88) </text>
</g>
<!-- 17&#45;&gt;18 -->
<g id="edge20" class="edge">
<title>17:s&#45;&gt;18:n</title>
<path fill="none" stroke="black" d="M1776.97,-508.71C1776.97,-508.71 1711.61,-473.72 1687.1,-460.6"/>
<polygon fill="black" stroke="black" points="1688.43,-457.34 1677.97,-455.71 1685.13,-463.52 1688.43,-457.34"/>
<text text-anchor="middle" x="1761.97" y="-479.51" font-family="Helvetica,sans-Serif" font-size="14.00">&lt;= &#45;0.3795</text>
</g>
<!-- 19 -->
<g id="node22" class="node">
<title>19</title>
<polygon fill="#3dcc45" stroke="black" points="2029.97,-457.71 1865.97,-457.71 1865.97,-379.71 2029.97,-379.71 2029.97,-457.71"/>
<text text-anchor="start" x="1908.97" y="-443.51" font-family="Helvetica,sans-Serif" font-weight="bold" font-size="14.00"> Class=1 </text>
<text text-anchor="start" x="1981.97" y="-443.51" font-family="Helvetica,sans-Serif" font-size="14.00"> </text>
<text text-anchor="start" x="1873.97" y="-429.51" font-family="Helvetica,sans-Serif" font-size="14.00"> error: 0.998, n=634 </text>
<text text-anchor="start" x="1892.97" y="-415.51" font-family="Helvetica,sans-Serif" font-size="14.00"> p: (0.47, 0.53) </text>
<text text-anchor="start" x="1926.47" y="-401.51" font-family="Helvetica,sans-Serif" font-size="14.00">&#45;&#45;&#45;&#45;&#45;&#45;&#45;&#45;</text>
<text text-anchor="start" x="1911.47" y="-387.51" font-family="Helvetica,sans-Serif" font-weight="bold" font-size="14.00">v_8=0.00</text>
</g>
<!-- 17&#45;&gt;19 -->
<g id="edge21" class="edge">
<title>17:s&#45;&gt;19:n</title>
<path fill="none" stroke="black" d="M1776.97,-508.71C1776.97,-508.71 1902.11,-471.39 1938.28,-460.6"/>
<polygon fill="black" stroke="black" points="1939.38,-463.92 1947.97,-457.71 1937.38,-457.21 1939.38,-463.92"/>
<text text-anchor="middle" x="1918.97" y="-479.51" font-family="Helvetica,sans-Serif" font-size="14.00">&gt; &#45;0.3795</text>
</g>
<!-- 25 -->
<g id="node27" class="node">
<title>25</title>
<ellipse fill="#3dcc45" stroke="black" cx="2218.97" cy="-418.71" rx="115.93" ry="35.21"/>
<text text-anchor="start" x="2179.97" y="-429.51" font-family="Helvetica,sans-Serif" font-weight="bold" font-size="14.00"> Class=1 </text>
<text text-anchor="start" x="2252.97" y="-429.51" font-family="Helvetica,sans-Serif" font-size="14.00"> </text>
<text text-anchor="start" x="2144.97" y="-415.51" font-family="Helvetica,sans-Serif" font-size="14.00"> error: 0.135, n=424 </text>
<text text-anchor="start" x="2163.97" y="-401.51" font-family="Helvetica,sans-Serif" font-size="14.00"> p: (0.02, 0.98) </text>
</g>
<!-- 24&#45;&gt;25 -->
<g id="edge26" class="edge">
<title>24:s&#45;&gt;25:n</title>
<path fill="none" stroke="black" d="M2218.97,-508.71C2218.97,-508.71 2218.97,-481.33 2218.97,-465.93"/>
<polygon fill="black" stroke="black" points="2222.47,-465.71 2218.97,-455.71 2215.47,-465.71 2222.47,-465.71"/>
<text text-anchor="middle" x="2265.47" y="-479.51" font-family="Helvetica,sans-Serif" font-size="14.00">&lt;= &#45;0.03154</text>
</g>
<!-- 26 -->
<g id="node28" class="node">
<title>26</title>
<polygon fill="#3dcc45" stroke="black" points="2571.97,-457.71 2407.97,-457.71 2407.97,-379.71 2571.97,-379.71 2571.97,-457.71"/>
<text text-anchor="start" x="2450.97" y="-443.51" font-family="Helvetica,sans-Serif" font-weight="bold" font-size="14.00"> Class=1 </text>
<text text-anchor="start" x="2523.97" y="-443.51" font-family="Helvetica,sans-Serif" font-size="14.00"> </text>
<text text-anchor="start" x="2415.97" y="-429.51" font-family="Helvetica,sans-Serif" font-size="14.00"> error: 0.607, n=417 </text>
<text text-anchor="start" x="2434.97" y="-415.51" font-family="Helvetica,sans-Serif" font-size="14.00"> p: (0.15, 0.85) </text>
<text text-anchor="start" x="2465.97" y="-401.51" font-family="Helvetica,sans-Serif" font-size="14.00">&#45;&#45;&#45;&#45;&#45;&#45;&#45;&#45;&#45;</text>
<text text-anchor="start" x="2448.97" y="-387.51" font-family="Helvetica,sans-Serif" font-weight="bold" font-size="14.00">v_14=0.00</text>
</g>
<!-- 24&#45;&gt;26 -->
<g id="edge27" class="edge">
<title>24:s&#45;&gt;26:n</title>
<path fill="none" stroke="black" d="M2218.97,-508.71C2218.97,-508.71 2431.11,-468.79 2480,-459.59"/>
<polygon fill="black" stroke="black" points="2480.79,-463 2489.97,-457.71 2479.49,-456.12 2480.79,-463"/>
<text text-anchor="middle" x="2441.47" y="-479.51" font-family="Helvetica,sans-Serif" font-size="14.00">&gt; &#45;0.03154</text>
</g>
<!-- 20 -->
<g id="node23" class="node">
<title>20</title>
<ellipse fill="#44e5a1" stroke="black" cx="1939.97" cy="-289.71" rx="115.93" ry="35.21"/>
<text text-anchor="start" x="1900.97" y="-300.51" font-family="Helvetica,sans-Serif" font-weight="bold" font-size="14.00"> Class=0 </text>
<text text-anchor="start" x="1973.97" y="-300.51" font-family="Helvetica,sans-Serif" font-size="14.00"> </text>
<text text-anchor="start" x="1865.97" y="-286.51" font-family="Helvetica,sans-Serif" font-size="14.00"> error: 0.937, n=303 </text>
<text text-anchor="start" x="1884.97" y="-272.51" font-family="Helvetica,sans-Serif" font-size="14.00"> p: (0.65, 0.35) </text>
</g>
<!-- 19&#45;&gt;20 -->
<g id="edge22" class="edge">
<title>19:s&#45;&gt;20:n</title>
<path fill="none" stroke="black" d="M1947.97,-379.71C1947.97,-379.71 1943.83,-352.33 1941.51,-336.93"/>
<polygon fill="black" stroke="black" points="1944.92,-336.08 1939.97,-326.71 1938,-337.12 1944.92,-336.08"/>
<text text-anchor="middle" x="1987.97" y="-350.51" font-family="Helvetica,sans-Serif" font-size="14.00">&lt;= &#45;0.1051</text>
</g>
<!-- 21 -->
<g id="node24" class="node">
<title>21</title>
<polygon fill="#44e5a1" stroke="black" points="2291.97,-328.71 2127.97,-328.71 2127.97,-250.71 2291.97,-250.71 2291.97,-328.71"/>
<text text-anchor="start" x="2170.97" y="-314.51" font-family="Helvetica,sans-Serif" font-weight="bold" font-size="14.00"> Class=1 </text>
<text text-anchor="start" x="2243.97" y="-314.51" font-family="Helvetica,sans-Serif" font-size="14.00"> </text>
<text text-anchor="start" x="2135.97" y="-300.51" font-family="Helvetica,sans-Serif" font-size="14.00"> error: 0.895, n=331 </text>
<text text-anchor="start" x="2154.97" y="-286.51" font-family="Helvetica,sans-Serif" font-size="14.00"> p: (0.31, 0.69) </text>
<text text-anchor="start" x="2188.47" y="-272.51" font-family="Helvetica,sans-Serif" font-size="14.00">&#45;&#45;&#45;&#45;&#45;&#45;&#45;&#45;</text>
<text text-anchor="start" x="2173.47" y="-258.51" font-family="Helvetica,sans-Serif" font-weight="bold" font-size="14.00">v_4=0.00</text>
</g>
<!-- 19&#45;&gt;21 -->
<g id="edge23" class="edge">
<title>19:s&#45;&gt;21:n</title>
<path fill="none" stroke="black" d="M1947.97,-379.71C1947.97,-379.71 2152.16,-339.96 2200.01,-330.65"/>
<polygon fill="black" stroke="black" points="2200.82,-334.06 2209.97,-328.71 2199.48,-327.19 2200.82,-334.06"/>
<text text-anchor="middle" x="2155.97" y="-350.51" font-family="Helvetica,sans-Serif" font-size="14.00">&gt; &#45;0.1051</text>
</g>
<!-- 22 -->
<g id="node25" class="node">
<title>22</title>
<polygon fill="#3dc0cc" stroke="black" points="2274.97,-199.71 2110.97,-199.71 2110.97,-121.71 2274.97,-121.71 2274.97,-199.71"/>
<text text-anchor="start" x="2153.97" y="-185.51" font-family="Helvetica,sans-Serif" font-weight="bold" font-size="14.00"> Class=1 </text>
<text text-anchor="start" x="2226.97" y="-185.51" font-family="Helvetica,sans-Serif" font-size="14.00"> </text>
<text text-anchor="start" x="2118.97" y="-171.51" font-family="Helvetica,sans-Serif" font-size="14.00"> error: 0.751, n=256 </text>
<text text-anchor="start" x="2137.97" y="-157.51" font-family="Helvetica,sans-Serif" font-size="14.00"> p: (0.21, 0.79) </text>
<text text-anchor="start" x="2168.97" y="-143.51" font-family="Helvetica,sans-Serif" font-size="14.00">&#45;&#45;&#45;&#45;&#45;&#45;&#45;&#45;&#45;</text>
<text text-anchor="start" x="2151.97" y="-129.51" font-family="Helvetica,sans-Serif" font-weight="bold" font-size="14.00">v_13=0.00</text>
</g>
<!-- 21&#45;&gt;22 -->
<g id="edge24" class="edge">
<title>21:s&#45;&gt;22:n</title>
<path fill="none" stroke="black" d="M2209.97,-250.71C2209.97,-250.71 2201.18,-224.36 2196.24,-209.54"/>
<polygon fill="black" stroke="black" points="2199.45,-208.09 2192.97,-199.71 2192.81,-210.3 2199.45,-208.09"/>
<text text-anchor="middle" x="2239.97" y="-221.51" font-family="Helvetica,sans-Serif" font-size="14.00">&gt; &#45;0.3521</text>
</g>
<!-- 23 -->
<g id="node26" class="node">
<title>23</title>
<ellipse fill="#4485e5" stroke="black" cx="2191.97" cy="-35.36" rx="115.93" ry="35.21"/>
<text text-anchor="start" x="2152.97" y="-46.16" font-family="Helvetica,sans-Serif" font-weight="bold" font-size="14.00"> Class=1 </text>
<text text-anchor="start" x="2225.97" y="-46.16" font-family="Helvetica,sans-Serif" font-size="14.00"> </text>
<text text-anchor="start" x="2117.97" y="-32.16" font-family="Helvetica,sans-Serif" font-size="14.00"> error: 0.527, n=193 </text>
<text text-anchor="start" x="2136.97" y="-18.16" font-family="Helvetica,sans-Serif" font-size="14.00"> p: (0.12, 0.88) </text>
</g>
<!-- 22&#45;&gt;23 -->
<g id="edge25" class="edge">
<title>22:s&#45;&gt;23:n</title>
<path fill="none" stroke="black" d="M2192.97,-121.71C2192.97,-121.71 2192.46,-95.93 2192.17,-81.03"/>
<polygon fill="black" stroke="black" points="2195.66,-80.64 2191.97,-70.71 2188.66,-80.78 2195.66,-80.64"/>
<text text-anchor="middle" x="2232.47" y="-92.51" font-family="Helvetica,sans-Serif" font-size="14.00">&lt;= 0.2189</text>
</g>
<!-- 27 -->
<g id="node29" class="node">
<title>27</title>
<polygon fill="#44e5a1" stroke="black" points="2573.97,-328.71 2409.97,-328.71 2409.97,-250.71 2573.97,-250.71 2573.97,-328.71"/>
<text text-anchor="start" x="2452.97" y="-314.51" font-family="Helvetica,sans-Serif" font-weight="bold" font-size="14.00"> Class=1 </text>
<text text-anchor="start" x="2525.97" y="-314.51" font-family="Helvetica,sans-Serif" font-size="14.00"> </text>
<text text-anchor="start" x="2417.97" y="-300.51" font-family="Helvetica,sans-Serif" font-size="14.00"> error: 0.417, n=309 </text>
<text text-anchor="start" x="2436.97" y="-286.51" font-family="Helvetica,sans-Serif" font-size="14.00"> p: (0.08, 0.92) </text>
<text text-anchor="start" x="2470.47" y="-272.51" font-family="Helvetica,sans-Serif" font-size="14.00">&#45;&#45;&#45;&#45;&#45;&#45;&#45;&#45;</text>
<text text-anchor="start" x="2455.47" y="-258.51" font-family="Helvetica,sans-Serif" font-weight="bold" font-size="14.00">v_0=0.93</text>
</g>
<!-- 26&#45;&gt;27 -->
<g id="edge28" class="edge">
<title>26:s&#45;&gt;27:n</title>
<path fill="none" stroke="black" d="M2489.97,-379.71C2489.97,-379.71 2490.98,-353.93 2491.56,-339.03"/>
<polygon fill="black" stroke="black" points="2495.07,-338.84 2491.97,-328.71 2488.08,-338.57 2495.07,-338.84"/>
<text text-anchor="middle" x="2527.97" y="-350.51" font-family="Helvetica,sans-Serif" font-size="14.00">&gt; &#45;0.2827</text>
</g>
<!-- 28 -->
<g id="node30" class="node">
<title>28</title>
<polygon fill="#3dc0cc" stroke="black" points="2577.97,-199.71 2413.97,-199.71 2413.97,-121.71 2577.97,-121.71 2577.97,-199.71"/>
<text text-anchor="start" x="2456.97" y="-185.51" font-family="Helvetica,sans-Serif" font-weight="bold" font-size="14.00"> Class=1 </text>
<text text-anchor="start" x="2529.97" y="-185.51" font-family="Helvetica,sans-Serif" font-size="14.00"> </text>
<text text-anchor="start" x="2421.97" y="-171.51" font-family="Helvetica,sans-Serif" font-size="14.00"> error: 0.508, n=231 </text>
<text text-anchor="start" x="2440.97" y="-157.51" font-family="Helvetica,sans-Serif" font-size="14.00"> p: (0.11, 0.89) </text>
<text text-anchor="start" x="2474.47" y="-143.51" font-family="Helvetica,sans-Serif" font-size="14.00">&#45;&#45;&#45;&#45;&#45;&#45;&#45;&#45;</text>
<text text-anchor="start" x="2459.47" y="-129.51" font-family="Helvetica,sans-Serif" font-weight="bold" font-size="14.00">v_8=0.00</text>
</g>
<!-- 27&#45;&gt;28 -->
<g id="edge29" class="edge">
<title>27:s&#45;&gt;28:n</title>
<path fill="none" stroke="black" d="M2491.97,-250.71C2491.97,-250.71 2493.99,-224.93 2495.16,-210.03"/>
<polygon fill="black" stroke="black" points="2498.67,-209.95 2495.97,-199.71 2491.69,-209.41 2498.67,-209.95"/>
<text text-anchor="middle" x="2529.97" y="-221.51" font-family="Helvetica,sans-Serif" font-size="14.00">&lt;= 338.3</text>
</g>
<!-- 29 -->
<g id="node31" class="node">
<title>29</title>
<ellipse fill="#4485e5" stroke="black" cx="2495.97" cy="-35.36" rx="115.93" ry="35.21"/>
<text text-anchor="start" x="2456.97" y="-46.16" font-family="Helvetica,sans-Serif" font-weight="bold" font-size="14.00"> Class=1 </text>
<text text-anchor="start" x="2529.97" y="-46.16" font-family="Helvetica,sans-Serif" font-size="14.00"> </text>
<text text-anchor="start" x="2421.97" y="-32.16" font-family="Helvetica,sans-Serif" font-size="14.00"> error: 0.340, n=174 </text>
<text text-anchor="start" x="2440.97" y="-18.16" font-family="Helvetica,sans-Serif" font-size="14.00"> p: (0.06, 0.94) </text>
</g>
<!-- 28&#45;&gt;29 -->
<g id="edge30" class="edge">
<title>28:s&#45;&gt;29:n</title>
<path fill="none" stroke="black" d="M2495.97,-121.71C2495.97,-121.71 2495.97,-95.93 2495.97,-81.03"/>
<polygon fill="black" stroke="black" points="2499.47,-80.71 2495.97,-70.71 2492.47,-80.71 2499.47,-80.71"/>
<text text-anchor="middle" x="2527.47" y="-92.51" font-family="Helvetica,sans-Serif" font-size="14.00">&gt; &#45;0.222</text>
</g>
</g>
</svg>
