<?xml version="1.0" encoding="UTF-8" standalone="no"?>
<!DOCTYPE svg PUBLIC "-//W3C//DTD SVG 1.1//EN"
 "http://www.w3.org/Graphics/SVG/1.1/DTD/svg11.dtd">
<!-- Generated by graphviz version 2.43.0 (0)
 -->
<!-- Title: Tree Pages: 1 -->
<svg width="837pt" height="696pt"
 viewBox="0.00 0.00 837.20 695.71" xmlns="http://www.w3.org/2000/svg" xmlns:xlink="http://www.w3.org/1999/xlink">
<g id="graph0" class="graph" transform="scale(1 1) rotate(0) translate(18 677.71)">
<title>Tree</title>
<polygon fill="white" stroke="transparent" points="-18,18 -18,-677.71 819.2,-677.71 819.2,18 -18,18"/>
<!-- 0 -->
<g id="node1" class="node">
<title>0</title>
<polygon fill="white" stroke="transparent" points="438.6,-659.71 384.6,-659.71 384.6,-623.71 438.6,-623.71 438.6,-659.71"/>
<text text-anchor="middle" x="411.6" y="-638.01" font-family="Helvetica,sans-Serif" font-size="14.00">0</text>
</g>
<!-- 1 -->
<g id="node2" class="node">
<title>1</title>
<polygon fill="#cc3d3d" stroke="black" points="493.6,-586.71 329.6,-586.71 329.6,-508.71 493.6,-508.71 493.6,-586.71"/>
<text text-anchor="start" x="372.6" y="-572.51" font-family="Helvetica,sans-Serif" font-weight="bold" font-size="14.00"> Class=1 </text>
<text text-anchor="start" x="445.6" y="-572.51" font-family="Helvetica,sans-Serif" font-size="14.00"> </text>
<text text-anchor="start" x="337.6" y="-558.51" font-family="Helvetica,sans-Serif" font-size="14.00"> error: 0.953, n=569 </text>
<text text-anchor="start" x="356.6" y="-544.51" font-family="Helvetica,sans-Serif" font-size="14.00"> p: (0.63, 0.37) </text>
<text text-anchor="start" x="403.6" y="-530.51" font-family="Helvetica,sans-Serif" font-size="14.00">&#45;&#45;&#45;</text>
<text text-anchor="start" x="396.1" y="-516.51" font-family="Helvetica,sans-Serif" font-weight="bold" font-size="14.00">V21</text>
</g>
<!-- 0&#45;&gt;1 -->
<!-- 2 -->
<g id="node3" class="node">
<title>2</title>
<polygon fill="#e5d544" stroke="black" points="358.6,-457.71 194.6,-457.71 194.6,-379.71 358.6,-379.71 358.6,-457.71"/>
<text text-anchor="start" x="237.6" y="-443.51" font-family="Helvetica,sans-Serif" font-weight="bold" font-size="14.00"> Class=2 </text>
<text text-anchor="start" x="310.6" y="-443.51" font-family="Helvetica,sans-Serif" font-size="14.00"> </text>
<text text-anchor="start" x="202.6" y="-429.51" font-family="Helvetica,sans-Serif" font-size="14.00"> error: 0.790, n=266 </text>
<text text-anchor="start" x="221.6" y="-415.51" font-family="Helvetica,sans-Serif" font-size="14.00"> p: (0.24, 0.76) </text>
<text text-anchor="start" x="271.1" y="-401.51" font-family="Helvetica,sans-Serif" font-size="14.00">&#45;&#45;</text>
<text text-anchor="start" x="266.1" y="-387.51" font-family="Helvetica,sans-Serif" font-weight="bold" font-size="14.00">V8</text>
</g>
<!-- 1&#45;&gt;2 -->
<g id="edge2" class="edge">
<title>1:s&#45;&gt;2:n</title>
<path fill="none" stroke="black" d="M411.6,-508.71C411.6,-508.71 317.26,-473.07 286.31,-461.38"/>
<polygon fill="black" stroke="black" points="287.19,-457.97 276.6,-457.71 284.72,-464.52 287.19,-457.97"/>
<text text-anchor="middle" x="389.6" y="-479.51" font-family="Helvetica,sans-Serif" font-size="14.00">&gt; 15.15</text>
</g>
<!-- 11 -->
<g id="node4" class="node">
<title>11</title>
<ellipse fill="#e5d544" stroke="black" cx="546.6" cy="-418.71" rx="115.93" ry="35.21"/>
<text text-anchor="start" x="507.6" y="-429.51" font-family="Helvetica,sans-Serif" font-weight="bold" font-size="14.00"> Class=1 </text>
<text text-anchor="start" x="580.6" y="-429.51" font-family="Helvetica,sans-Serif" font-size="14.00"> </text>
<text text-anchor="start" x="472.6" y="-415.51" font-family="Helvetica,sans-Serif" font-size="14.00"> error: 0.193, n=303 </text>
<text text-anchor="start" x="491.6" y="-401.51" font-family="Helvetica,sans-Serif" font-size="14.00"> p: (0.97, 0.03) </text>
</g>
<!-- 1&#45;&gt;11 -->
<g id="edge3" class="edge">
<title>1:s&#45;&gt;11:n</title>
<path fill="none" stroke="black" d="M411.6,-508.71C411.6,-508.71 505.94,-471.67 536.89,-459.52"/>
<polygon fill="black" stroke="black" points="538.57,-462.62 546.6,-455.71 536.01,-456.11 538.57,-462.62"/>
<text text-anchor="middle" x="530.6" y="-479.51" font-family="Helvetica,sans-Serif" font-size="14.00">&lt;= 15.15</text>
</g>
<!-- 3 -->
<g id="node5" class="node">
<title>3</title>
<polygon fill="#59cc3d" stroke="black" points="239.1,-328.71 84.1,-328.71 84.1,-250.71 239.1,-250.71 239.1,-328.71"/>
<text text-anchor="start" x="122.6" y="-314.51" font-family="Helvetica,sans-Serif" font-weight="bold" font-size="14.00"> Class=1 </text>
<text text-anchor="start" x="195.6" y="-314.51" font-family="Helvetica,sans-Serif" font-size="14.00"> </text>
<text text-anchor="start" x="92.1" y="-300.51" font-family="Helvetica,sans-Serif" font-size="14.00"> error: 0.799, n=66 </text>
<text text-anchor="start" x="106.6" y="-286.51" font-family="Helvetica,sans-Serif" font-size="14.00"> p: (0.76, 0.24) </text>
<text text-anchor="start" x="153.6" y="-272.51" font-family="Helvetica,sans-Serif" font-size="14.00">&#45;&#45;&#45;</text>
<text text-anchor="start" x="146.1" y="-258.51" font-family="Helvetica,sans-Serif" font-weight="bold" font-size="14.00">V24</text>
</g>
<!-- 2&#45;&gt;3 -->
<g id="edge4" class="edge">
<title>2:s&#45;&gt;3:n</title>
<path fill="none" stroke="black" d="M276.6,-379.71C276.6,-379.71 198.48,-345.06 171.01,-332.88"/>
<polygon fill="black" stroke="black" points="172.16,-329.57 161.6,-328.71 169.32,-335.96 172.16,-329.57"/>
<text text-anchor="middle" x="242.6" y="-350.51" font-family="Helvetica,sans-Serif" font-size="14.00">&lt;= 0.04951</text>
</g>
<!-- 6 -->
<g id="node6" class="node">
<title>6</title>
<polygon fill="#59cc3d" stroke="black" points="482.6,-328.71 318.6,-328.71 318.6,-250.71 482.6,-250.71 482.6,-328.71"/>
<text text-anchor="start" x="361.6" y="-314.51" font-family="Helvetica,sans-Serif" font-weight="bold" font-size="14.00"> Class=2 </text>
<text text-anchor="start" x="434.6" y="-314.51" font-family="Helvetica,sans-Serif" font-size="14.00"> </text>
<text text-anchor="start" x="326.6" y="-300.51" font-family="Helvetica,sans-Serif" font-size="14.00"> error: 0.347, n=200 </text>
<text text-anchor="start" x="345.6" y="-286.51" font-family="Helvetica,sans-Serif" font-size="14.00"> p: (0.07, 0.94) </text>
<text text-anchor="start" x="392.6" y="-272.51" font-family="Helvetica,sans-Serif" font-size="14.00">&#45;&#45;&#45;</text>
<text text-anchor="start" x="385.1" y="-258.51" font-family="Helvetica,sans-Serif" font-weight="bold" font-size="14.00">V22</text>
</g>
<!-- 2&#45;&gt;6 -->
<g id="edge5" class="edge">
<title>2:s&#45;&gt;6:n</title>
<path fill="none" stroke="black" d="M276.6,-379.71C276.6,-379.71 362.44,-344.4 391.28,-332.54"/>
<polygon fill="black" stroke="black" points="392.68,-335.75 400.6,-328.71 390.02,-329.28 392.68,-335.75"/>
<text text-anchor="middle" x="391.6" y="-350.51" font-family="Helvetica,sans-Serif" font-size="14.00">&gt; 0.04951</text>
</g>
<!-- 4 -->
<g id="node7" class="node">
<title>4</title>
<polygon fill="#44e5b5" stroke="black" points="195.1,-199.71 40.1,-199.71 40.1,-121.71 195.1,-121.71 195.1,-199.71"/>
<text text-anchor="start" x="78.6" y="-185.51" font-family="Helvetica,sans-Serif" font-weight="bold" font-size="14.00"> Class=1 </text>
<text text-anchor="start" x="151.6" y="-185.51" font-family="Helvetica,sans-Serif" font-size="14.00"> </text>
<text text-anchor="start" x="48.1" y="-171.51" font-family="Helvetica,sans-Serif" font-size="14.00"> error: 0.469, n=50 </text>
<text text-anchor="start" x="62.6" y="-157.51" font-family="Helvetica,sans-Serif" font-size="14.00"> p: (0.90, 0.10) </text>
<text text-anchor="start" x="109.6" y="-143.51" font-family="Helvetica,sans-Serif" font-size="14.00">&#45;&#45;&#45;</text>
<text text-anchor="start" x="102.1" y="-129.51" font-family="Helvetica,sans-Serif" font-weight="bold" font-size="14.00">V22</text>
</g>
<!-- 3&#45;&gt;4 -->
<g id="edge6" class="edge">
<title>3:s&#45;&gt;4:n</title>
<path fill="none" stroke="black" d="M161.6,-250.71C161.6,-250.71 136.85,-222.02 124.48,-207.68"/>
<polygon fill="black" stroke="black" points="126.78,-205 117.6,-199.71 121.48,-209.57 126.78,-205"/>
<text text-anchor="middle" x="180.6" y="-221.51" font-family="Helvetica,sans-Serif" font-size="14.00">&lt;= 928.2</text>
</g>
<!-- 7 -->
<g id="node9" class="node">
<title>7</title>
<polygon fill="#44e5b5" stroke="black" points="478.1,-199.71 323.1,-199.71 323.1,-121.71 478.1,-121.71 478.1,-199.71"/>
<text text-anchor="start" x="361.6" y="-185.51" font-family="Helvetica,sans-Serif" font-weight="bold" font-size="14.00"> Class=2 </text>
<text text-anchor="start" x="434.6" y="-185.51" font-family="Helvetica,sans-Serif" font-size="14.00"> </text>
<text text-anchor="start" x="331.1" y="-171.51" font-family="Helvetica,sans-Serif" font-size="14.00"> error: 0.843, n=48 </text>
<text text-anchor="start" x="345.6" y="-157.51" font-family="Helvetica,sans-Serif" font-size="14.00"> p: (0.27, 0.73) </text>
<text text-anchor="start" x="395.1" y="-143.51" font-family="Helvetica,sans-Serif" font-size="14.00">&#45;&#45;</text>
<text text-anchor="start" x="390.1" y="-129.51" font-family="Helvetica,sans-Serif" font-weight="bold" font-size="14.00">V3</text>
</g>
<!-- 6&#45;&gt;7 -->
<g id="edge8" class="edge">
<title>6:s&#45;&gt;7:n</title>
<path fill="none" stroke="black" d="M400.6,-250.71C400.6,-250.71 400.6,-224.93 400.6,-210.03"/>
<polygon fill="black" stroke="black" points="404.1,-209.71 400.6,-199.71 397.1,-209.71 404.1,-209.71"/>
<text text-anchor="middle" x="435.6" y="-221.51" font-family="Helvetica,sans-Serif" font-size="14.00">&lt;= 24.89</text>
</g>
<!-- 10 -->
<g id="node10" class="node">
<title>10</title>
<ellipse fill="#44e5b5" stroke="black" cx="665.6" cy="-160.71" rx="115.93" ry="35.21"/>
<text text-anchor="start" x="626.6" y="-171.51" font-family="Helvetica,sans-Serif" font-weight="bold" font-size="14.00"> Class=2 </text>
<text text-anchor="start" x="699.6" y="-171.51" font-family="Helvetica,sans-Serif" font-size="14.00"> </text>
<text text-anchor="start" x="591.6" y="-157.51" font-family="Helvetica,sans-Serif" font-size="14.00"> error: 0.000, n=152 </text>
<text text-anchor="start" x="610.6" y="-143.51" font-family="Helvetica,sans-Serif" font-size="14.00"> p: (0.00, 1.00) </text>
</g>
<!-- 6&#45;&gt;10 -->
<g id="edge9" class="edge">
<title>6:s&#45;&gt;10:n</title>
<path fill="none" stroke="black" d="M400.6,-250.71C400.6,-250.71 607.13,-209.4 655.54,-199.72"/>
<polygon fill="black" stroke="black" points="656.48,-203.1 665.6,-197.71 655.11,-196.24 656.48,-203.1"/>
<text text-anchor="middle" x="594.6" y="-221.51" font-family="Helvetica,sans-Serif" font-size="14.00">&gt; 24.89</text>
</g>
<!-- 5 -->
<g id="node8" class="node">
<title>5</title>
<ellipse fill="#3d76cc" stroke="black" cx="109.6" cy="-35.36" rx="109.7" ry="35.21"/>
<text text-anchor="start" x="70.6" y="-46.16" font-family="Helvetica,sans-Serif" font-weight="bold" font-size="14.00"> Class=1 </text>
<text text-anchor="start" x="143.6" y="-46.16" font-family="Helvetica,sans-Serif" font-size="14.00"> </text>
<text text-anchor="start" x="40.1" y="-32.16" font-family="Helvetica,sans-Serif" font-size="14.00"> error: 0.000, n=37 </text>
<text text-anchor="start" x="54.6" y="-18.16" font-family="Helvetica,sans-Serif" font-size="14.00"> p: (1.00, 0.00) </text>
</g>
<!-- 4&#45;&gt;5 -->
<g id="edge7" class="edge">
<title>4:s&#45;&gt;5:n</title>
<path fill="none" stroke="black" d="M117.6,-121.71C117.6,-121.71 113.56,-95.93 111.22,-81.03"/>
<polygon fill="black" stroke="black" points="114.61,-80.05 109.6,-70.71 107.69,-81.13 114.61,-80.05"/>
<text text-anchor="middle" x="149.6" y="-92.51" font-family="Helvetica,sans-Serif" font-size="14.00">&lt;= 29.09</text>
</g>
<!-- 8 -->
<g id="node11" class="node">
<title>8</title>
<ellipse fill="#3d76cc" stroke="black" cx="400.6" cy="-35.36" rx="109.7" ry="35.21"/>
<text text-anchor="start" x="361.6" y="-46.16" font-family="Helvetica,sans-Serif" font-weight="bold" font-size="14.00"> Class=1 </text>
<text text-anchor="start" x="434.6" y="-46.16" font-family="Helvetica,sans-Serif" font-size="14.00"> </text>
<text text-anchor="start" x="331.1" y="-32.16" font-family="Helvetica,sans-Serif" font-size="14.00"> error: 0.995, n=24 </text>
<text text-anchor="start" x="345.6" y="-18.16" font-family="Helvetica,sans-Serif" font-size="14.00"> p: (0.54, 0.46) </text>
</g>
<!-- 7&#45;&gt;8 -->
<g id="edge10" class="edge">
<title>7:s&#45;&gt;8:n</title>
<path fill="none" stroke="black" d="M400.6,-121.71C400.6,-121.71 400.6,-95.93 400.6,-81.03"/>
<polygon fill="black" stroke="black" points="404.1,-80.71 400.6,-70.71 397.1,-80.71 404.1,-80.71"/>
<text text-anchor="middle" x="435.6" y="-92.51" font-family="Helvetica,sans-Serif" font-size="14.00">&lt;= 106.3</text>
</g>
<!-- 9 -->
<g id="node12" class="node">
<title>9</title>
<ellipse fill="#3d76cc" stroke="black" cx="691.6" cy="-35.36" rx="109.7" ry="35.21"/>
<text text-anchor="start" x="652.6" y="-46.16" font-family="Helvetica,sans-Serif" font-weight="bold" font-size="14.00"> Class=2 </text>
<text text-anchor="start" x="725.6" y="-46.16" font-family="Helvetica,sans-Serif" font-size="14.00"> </text>
<text text-anchor="start" x="622.1" y="-32.16" font-family="Helvetica,sans-Serif" font-size="14.00"> error: 0.000, n=24 </text>
<text text-anchor="start" x="636.6" y="-18.16" font-family="Helvetica,sans-Serif" font-size="14.00"> p: (0.00, 1.00) </text>
</g>
<!-- 7&#45;&gt;9 -->
<g id="edge11" class="edge">
<title>7:s&#45;&gt;9:n</title>
<path fill="none" stroke="black" d="M400.6,-121.71C400.6,-121.71 630.42,-81.43 681.58,-72.47"/>
<polygon fill="black" stroke="black" points="682.36,-75.88 691.6,-70.71 681.15,-68.99 682.36,-75.88"/>
<text text-anchor="middle" x="610.6" y="-92.51" font-family="Helvetica,sans-Serif" font-size="14.00">&gt; 106.3</text>
</g>
</g>
</svg>
