<?xml version="1.0" encoding="UTF-8" standalone="no"?>
<!DOCTYPE svg PUBLIC "-//W3C//DTD SVG 1.1//EN"
 "http://www.w3.org/Graphics/SVG/1.1/DTD/svg11.dtd">
<!-- Generated by graphviz version 2.43.0 (0)
 -->
<!-- Title: Tree Pages: 1 -->
<svg width="1938pt" height="567pt"
 viewBox="0.00 0.00 1938.39 566.71" xmlns="http://www.w3.org/2000/svg" xmlns:xlink="http://www.w3.org/1999/xlink">
<g id="graph0" class="graph" transform="scale(1 1) rotate(0) translate(18 548.71)">
<title>Tree</title>
<polygon fill="white" stroke="transparent" points="-18,18 -18,-548.71 1920.39,-548.71 1920.39,18 -18,18"/>
<!-- 0 -->
<g id="node1" class="node">
<title>0</title>
<polygon fill="white" stroke="transparent" points="869.69,-530.71 815.69,-530.71 815.69,-494.71 869.69,-494.71 869.69,-530.71"/>
<text text-anchor="middle" x="842.69" y="-509.01" font-family="Helvetica,sans-Serif" font-size="14.00">0</text>
</g>
<!-- 1 -->
<g id="node2" class="node">
<title>1</title>
<polygon fill="#cc3d3d" stroke="black" points="933.69,-457.71 751.69,-457.71 751.69,-379.71 933.69,-379.71 933.69,-457.71"/>
<text text-anchor="start" x="781.69" y="-443.51" font-family="Helvetica,sans-Serif" font-weight="bold" font-size="14.00"> Class=&lt;=50K </text>
<text text-anchor="start" x="898.69" y="-443.51" font-family="Helvetica,sans-Serif" font-size="14.00"> </text>
<text text-anchor="start" x="759.69" y="-429.51" font-family="Helvetica,sans-Serif" font-size="14.00"> error: 0.794, n=48842 </text>
<text text-anchor="start" x="787.69" y="-415.51" font-family="Helvetica,sans-Serif" font-size="14.00"> p: (0.76, 0.24) </text>
<text text-anchor="start" x="810.69" y="-401.51" font-family="Helvetica,sans-Serif" font-size="14.00">&#45;&#45;&#45;&#45;&#45;&#45;&#45;&#45;&#45;&#45;&#45;&#45;</text>
<text text-anchor="start" x="795.69" y="-387.51" font-family="Helvetica,sans-Serif" font-weight="bold" font-size="14.00">relationship</text>
</g>
<!-- 0&#45;&gt;1 -->
<!-- 2 -->
<g id="node3" class="node">
<title>2</title>
<ellipse fill="#c5e544" stroke="black" cx="296.69" cy="-289.71" rx="128.89" ry="35.21"/>
<text text-anchor="start" x="235.69" y="-300.51" font-family="Helvetica,sans-Serif" font-weight="bold" font-size="14.00"> Class=&lt;=50K </text>
<text text-anchor="start" x="352.69" y="-300.51" font-family="Helvetica,sans-Serif" font-size="14.00"> </text>
<text text-anchor="start" x="213.69" y="-286.51" font-family="Helvetica,sans-Serif" font-size="14.00"> error: 0.997, n=48842 </text>
<text text-anchor="start" x="241.69" y="-272.51" font-family="Helvetica,sans-Serif" font-size="14.00"> p: (0.53, 0.47) </text>
</g>
<!-- 1&#45;&gt;2 -->
<g id="edge2" class="edge">
<title>1:s&#45;&gt;2:n</title>
<path fill="none" stroke="black" d="M842.69,-379.71C842.69,-379.71 382.6,-334.21 307.11,-326.74"/>
<polygon fill="black" stroke="black" points="306.99,-323.21 296.69,-325.71 306.3,-330.18 306.99,-323.21"/>
<text text-anchor="middle" x="646.19" y="-350.51" font-family="Helvetica,sans-Serif" font-size="14.00">Wife</text>
</g>
<!-- 3 -->
<g id="node4" class="node">
<title>3</title>
<polygon fill="#c5e544" stroke="black" points="679.69,-328.71 497.69,-328.71 497.69,-250.71 679.69,-250.71 679.69,-328.71"/>
<text text-anchor="start" x="527.69" y="-314.51" font-family="Helvetica,sans-Serif" font-weight="bold" font-size="14.00"> Class=&lt;=50K </text>
<text text-anchor="start" x="644.69" y="-314.51" font-family="Helvetica,sans-Serif" font-size="14.00"> </text>
<text text-anchor="start" x="505.69" y="-300.51" font-family="Helvetica,sans-Serif" font-size="14.00"> error: 0.329, n=48842 </text>
<text text-anchor="start" x="533.69" y="-286.51" font-family="Helvetica,sans-Serif" font-size="14.00"> p: (0.94, 0.06) </text>
<text text-anchor="start" x="564.69" y="-272.51" font-family="Helvetica,sans-Serif" font-size="14.00">&#45;&#45;&#45;&#45;&#45;&#45;&#45;&#45;&#45;</text>
<text text-anchor="start" x="549.19" y="-258.51" font-family="Helvetica,sans-Serif" font-weight="bold" font-size="14.00">education</text>
</g>
<!-- 1&#45;&gt;3 -->
<g id="edge3" class="edge">
<title>1:s&#45;&gt;3:n</title>
<path fill="none" stroke="black" d="M842.69,-379.71C842.69,-379.71 645.61,-340.14 598.65,-330.71"/>
<polygon fill="black" stroke="black" points="599.19,-327.25 588.69,-328.71 597.81,-334.11 599.19,-327.25"/>
<text text-anchor="middle" x="787.69" y="-350.51" font-family="Helvetica,sans-Serif" font-size="14.00">Unmarried</text>
</g>
<!-- 5 -->
<g id="node5" class="node">
<title>5</title>
<polygon fill="#c5e544" stroke="black" points="933.69,-328.71 751.69,-328.71 751.69,-250.71 933.69,-250.71 933.69,-328.71"/>
<text text-anchor="start" x="781.69" y="-314.51" font-family="Helvetica,sans-Serif" font-weight="bold" font-size="14.00"> Class=&lt;=50K </text>
<text text-anchor="start" x="898.69" y="-314.51" font-family="Helvetica,sans-Serif" font-size="14.00"> </text>
<text text-anchor="start" x="759.69" y="-300.51" font-family="Helvetica,sans-Serif" font-size="14.00"> error: 0.473, n=48842 </text>
<text text-anchor="start" x="787.69" y="-286.51" font-family="Helvetica,sans-Serif" font-size="14.00"> p: (0.90, 0.10) </text>
<text text-anchor="start" x="810.69" y="-272.51" font-family="Helvetica,sans-Serif" font-size="14.00">&#45;&#45;&#45;&#45;&#45;&#45;&#45;&#45;&#45;&#45;&#45;&#45;</text>
<text text-anchor="start" x="795.69" y="-258.51" font-family="Helvetica,sans-Serif" font-weight="bold" font-size="14.00">capital&#45;gain</text>
</g>
<!-- 1&#45;&gt;5 -->
<g id="edge4" class="edge">
<title>1:s&#45;&gt;5:n</title>
<path fill="none" stroke="black" d="M842.69,-379.71C842.69,-379.71 842.69,-353.93 842.69,-339.03"/>
<polygon fill="black" stroke="black" points="846.19,-338.71 842.69,-328.71 839.19,-338.71 846.19,-338.71"/>
<text text-anchor="middle" x="888.19" y="-350.51" font-family="Helvetica,sans-Serif" font-size="14.00">Not&#45;in&#45;family</text>
</g>
<!-- 10 -->
<g id="node6" class="node">
<title>10</title>
<polygon fill="#c5e544" stroke="black" points="1206.69,-328.71 1024.69,-328.71 1024.69,-250.71 1206.69,-250.71 1206.69,-328.71"/>
<text text-anchor="start" x="1054.69" y="-314.51" font-family="Helvetica,sans-Serif" font-weight="bold" font-size="14.00"> Class=&lt;=50K </text>
<text text-anchor="start" x="1171.69" y="-314.51" font-family="Helvetica,sans-Serif" font-size="14.00"> </text>
<text text-anchor="start" x="1032.69" y="-300.51" font-family="Helvetica,sans-Serif" font-size="14.00"> error: 0.992, n=48842 </text>
<text text-anchor="start" x="1060.69" y="-286.51" font-family="Helvetica,sans-Serif" font-size="14.00"> p: (0.55, 0.45) </text>
<text text-anchor="start" x="1091.69" y="-272.51" font-family="Helvetica,sans-Serif" font-size="14.00">&#45;&#45;&#45;&#45;&#45;&#45;&#45;&#45;&#45;</text>
<text text-anchor="start" x="1076.19" y="-258.51" font-family="Helvetica,sans-Serif" font-weight="bold" font-size="14.00">education</text>
</g>
<!-- 1&#45;&gt;10 -->
<g id="edge5" class="edge">
<title>1:s&#45;&gt;10:n</title>
<path fill="none" stroke="black" d="M842.69,-379.71C842.69,-379.71 1056.4,-339.79 1105.65,-330.59"/>
<polygon fill="black" stroke="black" points="1106.51,-333.99 1115.69,-328.71 1105.22,-327.11 1106.51,-333.99"/>
<text text-anchor="middle" x="1056.19" y="-350.51" font-family="Helvetica,sans-Serif" font-size="14.00">Husband</text>
</g>
<!-- 17 -->
<g id="node7" class="node">
<title>17</title>
<ellipse fill="#c5e544" stroke="black" cx="1407.69" cy="-289.71" rx="128.89" ry="35.21"/>
<text text-anchor="start" x="1346.69" y="-300.51" font-family="Helvetica,sans-Serif" font-weight="bold" font-size="14.00"> Class=&lt;=50K </text>
<text text-anchor="start" x="1463.69" y="-300.51" font-family="Helvetica,sans-Serif" font-size="14.00"> </text>
<text text-anchor="start" x="1324.69" y="-286.51" font-family="Helvetica,sans-Serif" font-size="14.00"> error: 0.110, n=48842 </text>
<text text-anchor="start" x="1352.69" y="-272.51" font-family="Helvetica,sans-Serif" font-size="14.00"> p: (0.99, 0.01) </text>
</g>
<!-- 1&#45;&gt;17 -->
<g id="edge6" class="edge">
<title>1:s&#45;&gt;17:n</title>
<path fill="none" stroke="black" d="M842.69,-379.71C842.69,-379.71 1320.83,-334.01 1397.4,-326.69"/>
<polygon fill="black" stroke="black" points="1398.07,-330.15 1407.69,-325.71 1397.41,-323.18 1398.07,-330.15"/>
<text text-anchor="middle" x="1264.69" y="-350.51" font-family="Helvetica,sans-Serif" font-size="14.00">Own&#45;child</text>
</g>
<!-- 4 -->
<g id="node8" class="node">
<title>4</title>
<ellipse fill="#3dcc76" stroke="black" cx="494.69" cy="-160.71" rx="128.89" ry="35.21"/>
<text text-anchor="start" x="433.69" y="-171.51" font-family="Helvetica,sans-Serif" font-weight="bold" font-size="14.00"> Class=&lt;=50K </text>
<text text-anchor="start" x="550.69" y="-171.51" font-family="Helvetica,sans-Serif" font-size="14.00"> </text>
<text text-anchor="start" x="411.69" y="-157.51" font-family="Helvetica,sans-Serif" font-size="14.00"> error: 0.170, n=48842 </text>
<text text-anchor="start" x="439.69" y="-143.51" font-family="Helvetica,sans-Serif" font-size="14.00"> p: (0.97, 0.03) </text>
</g>
<!-- 3&#45;&gt;4 -->
<g id="edge7" class="edge">
<title>3:s&#45;&gt;4:n</title>
<path fill="none" stroke="black" d="M588.69,-250.71C588.69,-250.71 526.64,-215.06 503.37,-201.69"/>
<polygon fill="black" stroke="black" points="505.11,-198.66 494.69,-196.71 501.62,-204.73 505.11,-198.66"/>
<text text-anchor="middle" x="584.69" y="-221.51" font-family="Helvetica,sans-Serif" font-size="14.00">HS&#45;grad</text>
</g>
<!-- 6 -->
<g id="node9" class="node">
<title>6</title>
<polygon fill="#3dcc76" stroke="black" points="877.69,-199.71 695.69,-199.71 695.69,-121.71 877.69,-121.71 877.69,-199.71"/>
<text text-anchor="start" x="725.69" y="-185.51" font-family="Helvetica,sans-Serif" font-weight="bold" font-size="14.00"> Class=&lt;=50K </text>
<text text-anchor="start" x="842.69" y="-185.51" font-family="Helvetica,sans-Serif" font-size="14.00"> </text>
<text text-anchor="start" x="703.69" y="-171.51" font-family="Helvetica,sans-Serif" font-size="14.00"> error: 0.384, n=48842 </text>
<text text-anchor="start" x="731.69" y="-157.51" font-family="Helvetica,sans-Serif" font-size="14.00"> p: (0.93, 0.07) </text>
<text text-anchor="start" x="762.69" y="-143.51" font-family="Helvetica,sans-Serif" font-size="14.00">&#45;&#45;&#45;&#45;&#45;&#45;&#45;&#45;&#45;</text>
<text text-anchor="start" x="747.19" y="-129.51" font-family="Helvetica,sans-Serif" font-weight="bold" font-size="14.00">education</text>
</g>
<!-- 5&#45;&gt;6 -->
<g id="edge8" class="edge">
<title>5:s&#45;&gt;6:n</title>
<path fill="none" stroke="black" d="M842.69,-250.71C842.69,-250.71 809.87,-220.82 794.48,-206.8"/>
<polygon fill="black" stroke="black" points="796.44,-203.86 786.69,-199.71 791.73,-209.03 796.44,-203.86"/>
<text text-anchor="middle" x="854.19" y="-221.51" font-family="Helvetica,sans-Serif" font-size="14.00">&lt;= 3674</text>
</g>
<!-- 11 -->
<g id="node13" class="node">
<title>11</title>
<polygon fill="#3dcc76" stroke="black" points="1206.69,-199.71 1024.69,-199.71 1024.69,-121.71 1206.69,-121.71 1206.69,-199.71"/>
<text text-anchor="start" x="1054.69" y="-185.51" font-family="Helvetica,sans-Serif" font-weight="bold" font-size="14.00"> Class=&lt;=50K </text>
<text text-anchor="start" x="1171.69" y="-185.51" font-family="Helvetica,sans-Serif" font-size="14.00"> </text>
<text text-anchor="start" x="1032.69" y="-171.51" font-family="Helvetica,sans-Serif" font-size="14.00"> error: 0.898, n=48842 </text>
<text text-anchor="start" x="1060.69" y="-157.51" font-family="Helvetica,sans-Serif" font-size="14.00"> p: (0.69, 0.31) </text>
<text text-anchor="start" x="1083.69" y="-143.51" font-family="Helvetica,sans-Serif" font-size="14.00">&#45;&#45;&#45;&#45;&#45;&#45;&#45;&#45;&#45;&#45;&#45;&#45;</text>
<text text-anchor="start" x="1068.69" y="-129.51" font-family="Helvetica,sans-Serif" font-weight="bold" font-size="14.00">capital&#45;gain</text>
</g>
<!-- 10&#45;&gt;11 -->
<g id="edge12" class="edge">
<title>10:s&#45;&gt;11:n</title>
<path fill="none" stroke="black" d="M1115.69,-250.71C1115.69,-250.71 1115.69,-224.93 1115.69,-210.03"/>
<polygon fill="black" stroke="black" points="1119.19,-209.71 1115.69,-199.71 1112.19,-209.71 1119.19,-209.71"/>
<text text-anchor="middle" x="1144.69" y="-221.51" font-family="Helvetica,sans-Serif" font-size="14.00">HS&#45;grad</text>
</g>
<!-- 13 -->
<g id="node14" class="node">
<title>13</title>
<polygon fill="#3dcc76" stroke="black" points="1498.69,-199.71 1316.69,-199.71 1316.69,-121.71 1498.69,-121.71 1498.69,-199.71"/>
<text text-anchor="start" x="1346.69" y="-185.51" font-family="Helvetica,sans-Serif" font-weight="bold" font-size="14.00"> Class=&lt;=50K </text>
<text text-anchor="start" x="1463.69" y="-185.51" font-family="Helvetica,sans-Serif" font-size="14.00"> </text>
<text text-anchor="start" x="1324.69" y="-171.51" font-family="Helvetica,sans-Serif" font-size="14.00"> error: 0.989, n=48842 </text>
<text text-anchor="start" x="1352.69" y="-157.51" font-family="Helvetica,sans-Serif" font-size="14.00"> p: (0.56, 0.44) </text>
<text text-anchor="start" x="1375.69" y="-143.51" font-family="Helvetica,sans-Serif" font-size="14.00">&#45;&#45;&#45;&#45;&#45;&#45;&#45;&#45;&#45;&#45;&#45;&#45;</text>
<text text-anchor="start" x="1360.69" y="-129.51" font-family="Helvetica,sans-Serif" font-weight="bold" font-size="14.00">capital&#45;gain</text>
</g>
<!-- 10&#45;&gt;13 -->
<g id="edge13" class="edge">
<title>10:s&#45;&gt;13:n</title>
<path fill="none" stroke="black" d="M1115.69,-250.71C1115.69,-250.71 1346.3,-210.43 1397.64,-201.47"/>
<polygon fill="black" stroke="black" points="1398.44,-204.88 1407.69,-199.71 1397.24,-197.98 1398.44,-204.88"/>
<text text-anchor="middle" x="1343.69" y="-221.51" font-family="Helvetica,sans-Serif" font-size="14.00">Some&#45;college</text>
</g>
<!-- 15 -->
<g id="node15" class="node">
<title>15</title>
<polygon fill="#3dcc76" stroke="black" points="1808.69,-199.71 1626.69,-199.71 1626.69,-121.71 1808.69,-121.71 1808.69,-199.71"/>
<text text-anchor="start" x="1662.69" y="-185.51" font-family="Helvetica,sans-Serif" font-weight="bold" font-size="14.00"> Class=&gt;50K </text>
<text text-anchor="start" x="1767.69" y="-185.51" font-family="Helvetica,sans-Serif" font-size="14.00"> </text>
<text text-anchor="start" x="1634.69" y="-171.51" font-family="Helvetica,sans-Serif" font-size="14.00"> error: 0.907, n=48842 </text>
<text text-anchor="start" x="1662.69" y="-157.51" font-family="Helvetica,sans-Serif" font-size="14.00"> p: (0.32, 0.68) </text>
<text text-anchor="start" x="1685.69" y="-143.51" font-family="Helvetica,sans-Serif" font-size="14.00">&#45;&#45;&#45;&#45;&#45;&#45;&#45;&#45;&#45;&#45;&#45;&#45;</text>
<text text-anchor="start" x="1670.69" y="-129.51" font-family="Helvetica,sans-Serif" font-weight="bold" font-size="14.00">capital&#45;gain</text>
</g>
<!-- 10&#45;&gt;15 -->
<g id="edge14" class="edge">
<title>10:s&#45;&gt;15:n</title>
<path fill="none" stroke="black" d="M1115.69,-250.71C1115.69,-250.71 1627.31,-207.37 1707.24,-200.6"/>
<polygon fill="black" stroke="black" points="1708.02,-204.04 1717.69,-199.71 1707.43,-197.07 1708.02,-204.04"/>
<text text-anchor="middle" x="1579.19" y="-221.51" font-family="Helvetica,sans-Serif" font-size="14.00">Bachelors</text>
</g>
<!-- 7 -->
<g id="node10" class="node">
<title>7</title>
<ellipse fill="#4485e5" stroke="black" cx="128.69" cy="-35.36" rx="128.89" ry="35.21"/>
<text text-anchor="start" x="67.69" y="-46.16" font-family="Helvetica,sans-Serif" font-weight="bold" font-size="14.00"> Class=&lt;=50K </text>
<text text-anchor="start" x="184.69" y="-46.16" font-family="Helvetica,sans-Serif" font-size="14.00"> </text>
<text text-anchor="start" x="45.69" y="-32.16" font-family="Helvetica,sans-Serif" font-size="14.00"> error: 0.205, n=48842 </text>
<text text-anchor="start" x="73.69" y="-18.16" font-family="Helvetica,sans-Serif" font-size="14.00"> p: (0.97, 0.03) </text>
</g>
<!-- 6&#45;&gt;7 -->
<g id="edge9" class="edge">
<title>6:s&#45;&gt;7:n</title>
<path fill="none" stroke="black" d="M786.69,-121.71C786.69,-121.71 221.55,-77.91 138.77,-71.49"/>
<polygon fill="black" stroke="black" points="138.93,-67.99 128.69,-70.71 138.39,-74.97 138.93,-67.99"/>
<text text-anchor="middle" x="536.69" y="-92.51" font-family="Helvetica,sans-Serif" font-size="14.00">HS&#45;grad</text>
</g>
<!-- 8 -->
<g id="node11" class="node">
<title>8</title>
<ellipse fill="#4485e5" stroke="black" cx="457.69" cy="-35.36" rx="128.89" ry="35.21"/>
<text text-anchor="start" x="396.69" y="-46.16" font-family="Helvetica,sans-Serif" font-weight="bold" font-size="14.00"> Class=&lt;=50K </text>
<text text-anchor="start" x="513.69" y="-46.16" font-family="Helvetica,sans-Serif" font-size="14.00"> </text>
<text text-anchor="start" x="374.69" y="-32.16" font-family="Helvetica,sans-Serif" font-size="14.00"> error: 0.544, n=48842 </text>
<text text-anchor="start" x="402.69" y="-18.16" font-family="Helvetica,sans-Serif" font-size="14.00"> p: (0.87, 0.13) </text>
</g>
<!-- 6&#45;&gt;8 -->
<g id="edge10" class="edge">
<title>6:s&#45;&gt;8:n</title>
<path fill="none" stroke="black" d="M786.69,-121.71C786.69,-121.71 523.43,-80.9 467.9,-72.29"/>
<polygon fill="black" stroke="black" points="468.11,-68.78 457.69,-70.71 467.04,-75.7 468.11,-68.78"/>
<text text-anchor="middle" x="696.19" y="-92.51" font-family="Helvetica,sans-Serif" font-size="14.00">Bachelors</text>
</g>
<!-- 9 -->
<g id="node12" class="node">
<title>9</title>
<ellipse fill="#4485e5" stroke="black" cx="786.69" cy="-35.36" rx="128.89" ry="35.21"/>
<text text-anchor="start" x="725.69" y="-46.16" font-family="Helvetica,sans-Serif" font-weight="bold" font-size="14.00"> Class=&lt;=50K </text>
<text text-anchor="start" x="842.69" y="-46.16" font-family="Helvetica,sans-Serif" font-size="14.00"> </text>
<text text-anchor="start" x="703.69" y="-32.16" font-family="Helvetica,sans-Serif" font-size="14.00"> error: 0.282, n=48842 </text>
<text text-anchor="start" x="731.69" y="-18.16" font-family="Helvetica,sans-Serif" font-size="14.00"> p: (0.95, 0.05) </text>
</g>
<!-- 6&#45;&gt;9 -->
<g id="edge11" class="edge">
<title>6:s&#45;&gt;9:n</title>
<path fill="none" stroke="black" d="M786.69,-121.71C786.69,-121.71 786.69,-95.93 786.69,-81.03"/>
<polygon fill="black" stroke="black" points="790.19,-80.71 786.69,-70.71 783.19,-80.71 790.19,-80.71"/>
<text text-anchor="middle" x="833.69" y="-92.51" font-family="Helvetica,sans-Serif" font-size="14.00">Some&#45;college</text>
</g>
<!-- 12 -->
<g id="node16" class="node">
<title>12</title>
<ellipse fill="#4485e5" stroke="black" cx="1115.69" cy="-35.36" rx="128.89" ry="35.21"/>
<text text-anchor="start" x="1054.69" y="-46.16" font-family="Helvetica,sans-Serif" font-weight="bold" font-size="14.00"> Class=&lt;=50K </text>
<text text-anchor="start" x="1171.69" y="-46.16" font-family="Helvetica,sans-Serif" font-size="14.00"> </text>
<text text-anchor="start" x="1032.69" y="-32.16" font-family="Helvetica,sans-Serif" font-size="14.00"> error: 0.863, n=48842 </text>
<text text-anchor="start" x="1060.69" y="-18.16" font-family="Helvetica,sans-Serif" font-size="14.00"> p: (0.71, 0.29) </text>
</g>
<!-- 11&#45;&gt;12 -->
<g id="edge15" class="edge">
<title>11:s&#45;&gt;12:n</title>
<path fill="none" stroke="black" d="M1115.69,-121.71C1115.69,-121.71 1115.69,-95.93 1115.69,-81.03"/>
<polygon fill="black" stroke="black" points="1119.19,-80.71 1115.69,-70.71 1112.19,-80.71 1119.19,-80.71"/>
<text text-anchor="middle" x="1148.19" y="-92.51" font-family="Helvetica,sans-Serif" font-size="14.00">&lt;= 3471</text>
</g>
<!-- 14 -->
<g id="node17" class="node">
<title>14</title>
<ellipse fill="#4485e5" stroke="black" cx="1444.69" cy="-35.36" rx="128.89" ry="35.21"/>
<text text-anchor="start" x="1383.69" y="-46.16" font-family="Helvetica,sans-Serif" font-weight="bold" font-size="14.00"> Class=&lt;=50K </text>
<text text-anchor="start" x="1500.69" y="-46.16" font-family="Helvetica,sans-Serif" font-size="14.00"> </text>
<text text-anchor="start" x="1361.69" y="-32.16" font-family="Helvetica,sans-Serif" font-size="14.00"> error: 0.972, n=48842 </text>
<text text-anchor="start" x="1389.69" y="-18.16" font-family="Helvetica,sans-Serif" font-size="14.00"> p: (0.60, 0.40) </text>
</g>
<!-- 13&#45;&gt;14 -->
<g id="edge16" class="edge">
<title>13:s&#45;&gt;14:n</title>
<path fill="none" stroke="black" d="M1407.69,-121.71C1407.69,-121.71 1428.07,-93.62 1438.58,-79.13"/>
<polygon fill="black" stroke="black" points="1441.65,-80.86 1444.69,-70.71 1435.99,-76.75 1441.65,-80.86"/>
<text text-anchor="middle" x="1463.19" y="-92.51" font-family="Helvetica,sans-Serif" font-size="14.00">&lt;= 3942</text>
</g>
<!-- 16 -->
<g id="node18" class="node">
<title>16</title>
<ellipse fill="#4485e5" stroke="black" cx="1773.69" cy="-35.36" rx="128.89" ry="35.21"/>
<text text-anchor="start" x="1718.69" y="-46.16" font-family="Helvetica,sans-Serif" font-weight="bold" font-size="14.00"> Class=&gt;50K </text>
<text text-anchor="start" x="1823.69" y="-46.16" font-family="Helvetica,sans-Serif" font-size="14.00"> </text>
<text text-anchor="start" x="1690.69" y="-32.16" font-family="Helvetica,sans-Serif" font-size="14.00"> error: 0.949, n=48842 </text>
<text text-anchor="start" x="1718.69" y="-18.16" font-family="Helvetica,sans-Serif" font-size="14.00"> p: (0.37, 0.63) </text>
</g>
<!-- 15&#45;&gt;16 -->
<g id="edge17" class="edge">
<title>15:s&#45;&gt;16:n</title>
<path fill="none" stroke="black" d="M1717.69,-121.71C1717.69,-121.71 1750.52,-91.82 1765.91,-77.8"/>
<polygon fill="black" stroke="black" points="1768.66,-80.03 1773.69,-70.71 1763.94,-74.86 1768.66,-80.03"/>
<text text-anchor="middle" x="1785.19" y="-92.51" font-family="Helvetica,sans-Serif" font-size="14.00">&lt;= 6418</text>
</g>
</g>
</svg>
