<?xml version="1.0" encoding="UTF-8" standalone="no"?>
<!DOCTYPE svg PUBLIC "-//W3C//DTD SVG 1.1//EN"
 "http://www.w3.org/Graphics/SVG/1.1/DTD/svg11.dtd">
<!-- Generated by graphviz version 2.43.0 (0)
 -->
<!-- Title: Tree Pages: 1 -->
<svg width="3613pt" height="954pt"
 viewBox="0.00 0.00 3612.74 953.71" xmlns="http://www.w3.org/2000/svg" xmlns:xlink="http://www.w3.org/1999/xlink">
<g id="graph0" class="graph" transform="scale(1 1) rotate(0) translate(18 935.71)">
<title>Tree</title>
<polygon fill="white" stroke="transparent" points="-18,18 -18,-935.71 3594.74,-935.71 3594.74,18 -18,18"/>
<!-- 0 -->
<g id="node1" class="node">
<title>0</title>
<polygon fill="white" stroke="transparent" points="1404.37,-917.71 1350.37,-917.71 1350.37,-881.71 1404.37,-881.71 1404.37,-917.71"/>
<text text-anchor="middle" x="1377.37" y="-896.01" font-family="Helvetica,sans-Serif" font-size="14.00">0</text>
</g>
<!-- 1 -->
<g id="node2" class="node">
<title>1</title>
<polygon fill="#cc3d3d" stroke="black" points="1480.87,-844.71 1273.87,-844.71 1273.87,-766.71 1480.87,-766.71 1480.87,-844.71"/>
<text text-anchor="start" x="1315.87" y="-830.51" font-family="Helvetica,sans-Serif" font-weight="bold" font-size="14.00"> Class=Austen </text>
<text text-anchor="start" x="1433.87" y="-830.51" font-family="Helvetica,sans-Serif" font-size="14.00"> </text>
<text text-anchor="start" x="1303.37" y="-816.51" font-family="Helvetica,sans-Serif" font-size="14.00"> error: 0.894, n=841 </text>
<text text-anchor="start" x="1281.87" y="-802.51" font-family="Helvetica,sans-Serif" font-size="14.00"> p: (0.38, 0.35, 0.07, 0.21) </text>
<text text-anchor="start" x="1355.87" y="-788.51" font-family="Helvetica,sans-Serif" font-size="14.00">&#45;&#45;&#45;&#45;&#45;&#45;&#45;&#45;</text>
<text text-anchor="start" x="1340.87" y="-774.51" font-family="Helvetica,sans-Serif" font-weight="bold" font-size="14.00">v_1=0.14</text>
</g>
<!-- 0&#45;&gt;1 -->
<!-- 2 -->
<g id="node3" class="node">
<title>2</title>
<polygon fill="#e5a544" stroke="black" points="1080.87,-715.71 873.87,-715.71 873.87,-637.71 1080.87,-637.71 1080.87,-715.71"/>
<text text-anchor="start" x="915.87" y="-701.51" font-family="Helvetica,sans-Serif" font-weight="bold" font-size="14.00"> Class=Austen </text>
<text text-anchor="start" x="1033.87" y="-701.51" font-family="Helvetica,sans-Serif" font-size="14.00"> </text>
<text text-anchor="start" x="903.37" y="-687.51" font-family="Helvetica,sans-Serif" font-size="14.00"> error: 0.413, n=841 </text>
<text text-anchor="start" x="881.87" y="-673.51" font-family="Helvetica,sans-Serif" font-size="14.00"> p: (0.74, 0.26, 0.00, 0.00) </text>
<text text-anchor="start" x="955.87" y="-659.51" font-family="Helvetica,sans-Serif" font-size="14.00">&#45;&#45;&#45;&#45;&#45;&#45;&#45;&#45;</text>
<text text-anchor="start" x="940.87" y="-645.51" font-family="Helvetica,sans-Serif" font-weight="bold" font-size="14.00">v_0=0.38</text>
</g>
<!-- 1&#45;&gt;2 -->
<g id="edge2" class="edge">
<title>1:s&#45;&gt;2:n</title>
<path fill="none" stroke="black" d="M1377.37,-766.71C1377.37,-766.71 1050.27,-725.01 987.66,-717.02"/>
<polygon fill="black" stroke="black" points="987.73,-713.5 977.37,-715.71 986.85,-720.45 987.73,-713.5"/>
<text text-anchor="middle" x="1256.87" y="-737.51" font-family="Helvetica,sans-Serif" font-size="14.00">&gt; &#45;2.573</text>
</g>
<!-- 15 -->
<g id="node4" class="node">
<title>15</title>
<polygon fill="#e5a544" stroke="black" points="2019.87,-715.71 1812.87,-715.71 1812.87,-637.71 2019.87,-637.71 2019.87,-715.71"/>
<text text-anchor="start" x="1853.37" y="-701.51" font-family="Helvetica,sans-Serif" font-weight="bold" font-size="14.00"> Class=London </text>
<text text-anchor="start" x="1974.37" y="-701.51" font-family="Helvetica,sans-Serif" font-size="14.00"> </text>
<text text-anchor="start" x="1842.37" y="-687.51" font-family="Helvetica,sans-Serif" font-size="14.00"> error: 0.759, n=841 </text>
<text text-anchor="start" x="1820.87" y="-673.51" font-family="Helvetica,sans-Serif" font-size="14.00"> p: (0.01, 0.44, 0.13, 0.41) </text>
<text text-anchor="start" x="1894.87" y="-659.51" font-family="Helvetica,sans-Serif" font-size="14.00">&#45;&#45;&#45;&#45;&#45;&#45;&#45;&#45;</text>
<text text-anchor="start" x="1879.87" y="-645.51" font-family="Helvetica,sans-Serif" font-weight="bold" font-size="14.00">v_0=0.38</text>
</g>
<!-- 1&#45;&gt;15 -->
<g id="edge3" class="edge">
<title>1:s&#45;&gt;15:n</title>
<path fill="none" stroke="black" d="M1377.37,-766.71C1377.37,-766.71 1831.57,-723.73 1906.09,-716.68"/>
<polygon fill="black" stroke="black" points="1906.75,-720.14 1916.37,-715.71 1906.09,-713.17 1906.75,-720.14"/>
<text text-anchor="middle" x="1748.87" y="-737.51" font-family="Helvetica,sans-Serif" font-size="14.00">&lt;= &#45;2.573</text>
</g>
<!-- 3 -->
<g id="node5" class="node">
<title>3</title>
<ellipse fill="#afcc3d" stroke="black" cx="655.37" cy="-547.71" rx="146.24" ry="35.21"/>
<text text-anchor="start" x="593.87" y="-558.51" font-family="Helvetica,sans-Serif" font-weight="bold" font-size="14.00"> Class=Austen </text>
<text text-anchor="start" x="711.87" y="-558.51" font-family="Helvetica,sans-Serif" font-size="14.00"> </text>
<text text-anchor="start" x="581.37" y="-544.51" font-family="Helvetica,sans-Serif" font-size="14.00"> error: 0.022, n=841 </text>
<text text-anchor="start" x="559.87" y="-530.51" font-family="Helvetica,sans-Serif" font-size="14.00"> p: (1.00, 0.00, 0.00, 0.00) </text>
</g>
<!-- 2&#45;&gt;3 -->
<g id="edge4" class="edge">
<title>2:s&#45;&gt;3:n</title>
<path fill="none" stroke="black" d="M977.37,-637.71C977.37,-637.71 719.71,-595.3 665.36,-586.35"/>
<polygon fill="black" stroke="black" points="665.81,-582.88 655.37,-584.71 664.67,-589.79 665.81,-582.88"/>
<text text-anchor="middle" x="901.87" y="-608.51" font-family="Helvetica,sans-Serif" font-size="14.00">&lt;= &#45;11.69</text>
</g>
<!-- 4 -->
<g id="node6" class="node">
<title>4</title>
<polygon fill="#afcc3d" stroke="black" points="1080.87,-586.71 873.87,-586.71 873.87,-508.71 1080.87,-508.71 1080.87,-586.71"/>
<text text-anchor="start" x="914.37" y="-572.51" font-family="Helvetica,sans-Serif" font-weight="bold" font-size="14.00"> Class=London </text>
<text text-anchor="start" x="1035.37" y="-572.51" font-family="Helvetica,sans-Serif" font-size="14.00"> </text>
<text text-anchor="start" x="903.37" y="-558.51" font-family="Helvetica,sans-Serif" font-size="14.00"> error: 0.500, n=841 </text>
<text text-anchor="start" x="881.87" y="-544.51" font-family="Helvetica,sans-Serif" font-size="14.00"> p: (0.48, 0.52, 0.00, 0.00) </text>
<text text-anchor="start" x="955.87" y="-530.51" font-family="Helvetica,sans-Serif" font-size="14.00">&#45;&#45;&#45;&#45;&#45;&#45;&#45;&#45;</text>
<text text-anchor="start" x="940.87" y="-516.51" font-family="Helvetica,sans-Serif" font-weight="bold" font-size="14.00">v_0=0.38</text>
</g>
<!-- 2&#45;&gt;4 -->
<g id="edge5" class="edge">
<title>2:s&#45;&gt;4:n</title>
<path fill="none" stroke="black" d="M977.37,-637.71C977.37,-637.71 977.37,-611.93 977.37,-597.03"/>
<polygon fill="black" stroke="black" points="980.87,-596.71 977.37,-586.71 973.87,-596.71 980.87,-596.71"/>
<text text-anchor="middle" x="1008.87" y="-608.51" font-family="Helvetica,sans-Serif" font-size="14.00">&gt; &#45;11.69</text>
</g>
<!-- 16 -->
<g id="node17" class="node">
<title>16</title>
<polygon fill="#afcc3d" stroke="black" points="2019.87,-586.71 1812.87,-586.71 1812.87,-508.71 2019.87,-508.71 2019.87,-586.71"/>
<text text-anchor="start" x="1831.37" y="-572.51" font-family="Helvetica,sans-Serif" font-weight="bold" font-size="14.00"> Class=Shakespeare </text>
<text text-anchor="start" x="1996.37" y="-572.51" font-family="Helvetica,sans-Serif" font-size="14.00"> </text>
<text text-anchor="start" x="1842.37" y="-558.51" font-family="Helvetica,sans-Serif" font-size="14.00"> error: 0.524, n=841 </text>
<text text-anchor="start" x="1820.87" y="-544.51" font-family="Helvetica,sans-Serif" font-size="14.00"> p: (0.03, 0.03, 0.18, 0.76) </text>
<text text-anchor="start" x="1894.87" y="-530.51" font-family="Helvetica,sans-Serif" font-size="14.00">&#45;&#45;&#45;&#45;&#45;&#45;&#45;&#45;</text>
<text text-anchor="start" x="1879.87" y="-516.51" font-family="Helvetica,sans-Serif" font-weight="bold" font-size="14.00">v_2=0.08</text>
</g>
<!-- 15&#45;&gt;16 -->
<g id="edge16" class="edge">
<title>15:s&#45;&gt;16:n</title>
<path fill="none" stroke="black" d="M1916.37,-637.71C1916.37,-637.71 1916.37,-611.93 1916.37,-597.03"/>
<polygon fill="black" stroke="black" points="1919.87,-596.71 1916.37,-586.71 1912.87,-596.71 1919.87,-596.71"/>
<text text-anchor="middle" x="1953.87" y="-608.51" font-family="Helvetica,sans-Serif" font-size="14.00">&lt;= &#45;4.491</text>
</g>
<!-- 24 -->
<g id="node18" class="node">
<title>24</title>
<polygon fill="#afcc3d" stroke="black" points="2625.87,-586.71 2418.87,-586.71 2418.87,-508.71 2625.87,-508.71 2625.87,-586.71"/>
<text text-anchor="start" x="2459.37" y="-572.51" font-family="Helvetica,sans-Serif" font-weight="bold" font-size="14.00"> Class=London </text>
<text text-anchor="start" x="2580.37" y="-572.51" font-family="Helvetica,sans-Serif" font-size="14.00"> </text>
<text text-anchor="start" x="2448.37" y="-558.51" font-family="Helvetica,sans-Serif" font-size="14.00"> error: 0.365, n=841 </text>
<text text-anchor="start" x="2426.87" y="-544.51" font-family="Helvetica,sans-Serif" font-size="14.00"> p: (0.00, 0.86, 0.09, 0.06) </text>
<text text-anchor="start" x="2500.87" y="-530.51" font-family="Helvetica,sans-Serif" font-size="14.00">&#45;&#45;&#45;&#45;&#45;&#45;&#45;&#45;</text>
<text text-anchor="start" x="2485.87" y="-516.51" font-family="Helvetica,sans-Serif" font-weight="bold" font-size="14.00">v_1=0.14</text>
</g>
<!-- 15&#45;&gt;24 -->
<g id="edge17" class="edge">
<title>15:s&#45;&gt;24:n</title>
<path fill="none" stroke="black" d="M1916.37,-637.71C1916.37,-637.71 2433.57,-594.18 2512.36,-587.55"/>
<polygon fill="black" stroke="black" points="2512.7,-591.04 2522.37,-586.71 2512.11,-584.06 2512.7,-591.04"/>
<text text-anchor="middle" x="2323.87" y="-608.51" font-family="Helvetica,sans-Serif" font-size="14.00">&gt; &#45;4.491</text>
</g>
<!-- 5 -->
<g id="node7" class="node">
<title>5</title>
<polygon fill="#64e544" stroke="black" points="571.87,-457.71 364.87,-457.71 364.87,-379.71 571.87,-379.71 571.87,-457.71"/>
<text text-anchor="start" x="406.87" y="-443.51" font-family="Helvetica,sans-Serif" font-weight="bold" font-size="14.00"> Class=Austen </text>
<text text-anchor="start" x="524.87" y="-443.51" font-family="Helvetica,sans-Serif" font-size="14.00"> </text>
<text text-anchor="start" x="394.37" y="-429.51" font-family="Helvetica,sans-Serif" font-size="14.00"> error: 0.341, n=841 </text>
<text text-anchor="start" x="372.87" y="-415.51" font-family="Helvetica,sans-Serif" font-size="14.00"> p: (0.82, 0.18, 0.00, 0.00) </text>
<text text-anchor="start" x="446.87" y="-401.51" font-family="Helvetica,sans-Serif" font-size="14.00">&#45;&#45;&#45;&#45;&#45;&#45;&#45;&#45;</text>
<text text-anchor="start" x="431.87" y="-387.51" font-family="Helvetica,sans-Serif" font-weight="bold" font-size="14.00">v_3=0.05</text>
</g>
<!-- 4&#45;&gt;5 -->
<g id="edge6" class="edge">
<title>4:s&#45;&gt;5:n</title>
<path fill="none" stroke="black" d="M977.37,-508.71C977.37,-508.71 550.28,-465.92 478.54,-458.73"/>
<polygon fill="black" stroke="black" points="478.67,-455.23 468.37,-457.71 477.97,-462.19 478.67,-455.23"/>
<text text-anchor="middle" x="819.37" y="-479.51" font-family="Helvetica,sans-Serif" font-size="14.00">&lt;= 16.13</text>
</g>
<!-- 10 -->
<g id="node8" class="node">
<title>10</title>
<polygon fill="#64e544" stroke="black" points="1080.87,-457.71 873.87,-457.71 873.87,-379.71 1080.87,-379.71 1080.87,-457.71"/>
<text text-anchor="start" x="914.37" y="-443.51" font-family="Helvetica,sans-Serif" font-weight="bold" font-size="14.00"> Class=London </text>
<text text-anchor="start" x="1035.37" y="-443.51" font-family="Helvetica,sans-Serif" font-size="14.00"> </text>
<text text-anchor="start" x="903.37" y="-429.51" font-family="Helvetica,sans-Serif" font-size="14.00"> error: 0.298, n=841 </text>
<text text-anchor="start" x="881.87" y="-415.51" font-family="Helvetica,sans-Serif" font-size="14.00"> p: (0.14, 0.86, 0.00, 0.00) </text>
<text text-anchor="start" x="955.87" y="-401.51" font-family="Helvetica,sans-Serif" font-size="14.00">&#45;&#45;&#45;&#45;&#45;&#45;&#45;&#45;</text>
<text text-anchor="start" x="940.87" y="-387.51" font-family="Helvetica,sans-Serif" font-weight="bold" font-size="14.00">v_0=0.38</text>
</g>
<!-- 4&#45;&gt;10 -->
<g id="edge7" class="edge">
<title>4:s&#45;&gt;10:n</title>
<path fill="none" stroke="black" d="M977.37,-508.71C977.37,-508.71 977.37,-482.93 977.37,-468.03"/>
<polygon fill="black" stroke="black" points="980.87,-467.71 977.37,-457.71 973.87,-467.71 980.87,-467.71"/>
<text text-anchor="middle" x="1006.37" y="-479.51" font-family="Helvetica,sans-Serif" font-size="14.00">&gt; 16.13</text>
</g>
<!-- 6 -->
<g id="node9" class="node">
<title>6</title>
<ellipse fill="#3dcc76" stroke="black" cx="146.37" cy="-289.71" rx="146.24" ry="35.21"/>
<text text-anchor="start" x="83.37" y="-300.51" font-family="Helvetica,sans-Serif" font-weight="bold" font-size="14.00"> Class=London </text>
<text text-anchor="start" x="204.37" y="-300.51" font-family="Helvetica,sans-Serif" font-size="14.00"> </text>
<text text-anchor="start" x="72.37" y="-286.51" font-family="Helvetica,sans-Serif" font-size="14.00"> error: 0.496, n=841 </text>
<text text-anchor="start" x="50.87" y="-272.51" font-family="Helvetica,sans-Serif" font-size="14.00"> p: (0.44, 0.56, 0.00, 0.00) </text>
</g>
<!-- 5&#45;&gt;6 -->
<g id="edge8" class="edge">
<title>5:s&#45;&gt;6:n</title>
<path fill="none" stroke="black" d="M468.37,-379.71C468.37,-379.71 210.71,-337.3 156.36,-328.35"/>
<polygon fill="black" stroke="black" points="156.81,-324.88 146.37,-326.71 155.67,-331.79 156.81,-324.88"/>
<text text-anchor="middle" x="392.87" y="-350.51" font-family="Helvetica,sans-Serif" font-size="14.00">&lt;= &#45;10.13</text>
</g>
<!-- 7 -->
<g id="node10" class="node">
<title>7</title>
<polygon fill="#3dcc76" stroke="black" points="571.87,-328.71 364.87,-328.71 364.87,-250.71 571.87,-250.71 571.87,-328.71"/>
<text text-anchor="start" x="406.87" y="-314.51" font-family="Helvetica,sans-Serif" font-weight="bold" font-size="14.00"> Class=Austen </text>
<text text-anchor="start" x="524.87" y="-314.51" font-family="Helvetica,sans-Serif" font-size="14.00"> </text>
<text text-anchor="start" x="394.37" y="-300.51" font-family="Helvetica,sans-Serif" font-size="14.00"> error: 0.146, n=841 </text>
<text text-anchor="start" x="372.87" y="-286.51" font-family="Helvetica,sans-Serif" font-size="14.00"> p: (0.95, 0.05, 0.00, 0.00) </text>
<text text-anchor="start" x="446.87" y="-272.51" font-family="Helvetica,sans-Serif" font-size="14.00">&#45;&#45;&#45;&#45;&#45;&#45;&#45;&#45;</text>
<text text-anchor="start" x="431.87" y="-258.51" font-family="Helvetica,sans-Serif" font-weight="bold" font-size="14.00">v_2=0.08</text>
</g>
<!-- 5&#45;&gt;7 -->
<g id="edge9" class="edge">
<title>5:s&#45;&gt;7:n</title>
<path fill="none" stroke="black" d="M468.37,-379.71C468.37,-379.71 468.37,-353.93 468.37,-339.03"/>
<polygon fill="black" stroke="black" points="471.87,-338.71 468.37,-328.71 464.87,-338.71 471.87,-338.71"/>
<text text-anchor="middle" x="499.87" y="-350.51" font-family="Helvetica,sans-Serif" font-size="14.00">&gt; &#45;10.13</text>
</g>
<!-- 11 -->
<g id="node13" class="node">
<title>11</title>
<polygon fill="#3dcc76" stroke="black" points="871.87,-328.71 664.87,-328.71 664.87,-250.71 871.87,-250.71 871.87,-328.71"/>
<text text-anchor="start" x="705.37" y="-314.51" font-family="Helvetica,sans-Serif" font-weight="bold" font-size="14.00"> Class=London </text>
<text text-anchor="start" x="826.37" y="-314.51" font-family="Helvetica,sans-Serif" font-size="14.00"> </text>
<text text-anchor="start" x="694.37" y="-300.51" font-family="Helvetica,sans-Serif" font-size="14.00"> error: 0.430, n=841 </text>
<text text-anchor="start" x="672.87" y="-286.51" font-family="Helvetica,sans-Serif" font-size="14.00"> p: (0.28, 0.72, 0.00, 0.00) </text>
<text text-anchor="start" x="746.87" y="-272.51" font-family="Helvetica,sans-Serif" font-size="14.00">&#45;&#45;&#45;&#45;&#45;&#45;&#45;&#45;</text>
<text text-anchor="start" x="731.87" y="-258.51" font-family="Helvetica,sans-Serif" font-weight="bold" font-size="14.00">v_1=0.14</text>
</g>
<!-- 10&#45;&gt;11 -->
<g id="edge12" class="edge">
<title>10:s&#45;&gt;11:n</title>
<path fill="none" stroke="black" d="M977.37,-379.71C977.37,-379.71 819.49,-341.19 778.17,-331.1"/>
<polygon fill="black" stroke="black" points="778.92,-327.68 768.37,-328.71 777.26,-334.48 778.92,-327.68"/>
<text text-anchor="middle" x="933.37" y="-350.51" font-family="Helvetica,sans-Serif" font-size="14.00">&lt;= 45.69</text>
</g>
<!-- 14 -->
<g id="node14" class="node">
<title>14</title>
<ellipse fill="#3dcc76" stroke="black" cx="1090.37" cy="-289.71" rx="146.24" ry="35.21"/>
<text text-anchor="start" x="1027.37" y="-300.51" font-family="Helvetica,sans-Serif" font-weight="bold" font-size="14.00"> Class=London </text>
<text text-anchor="start" x="1148.37" y="-300.51" font-family="Helvetica,sans-Serif" font-size="14.00"> </text>
<text text-anchor="start" x="1016.37" y="-286.51" font-family="Helvetica,sans-Serif" font-size="14.00"> error: 0.000, n=841 </text>
<text text-anchor="start" x="994.87" y="-272.51" font-family="Helvetica,sans-Serif" font-size="14.00"> p: (0.00, 1.00, 0.00, 0.00) </text>
</g>
<!-- 10&#45;&gt;14 -->
<g id="edge13" class="edge">
<title>10:s&#45;&gt;14:n</title>
<path fill="none" stroke="black" d="M977.37,-379.71C977.37,-379.71 1054.14,-343.71 1081.12,-331.05"/>
<polygon fill="black" stroke="black" points="1082.8,-334.13 1090.37,-326.71 1079.83,-327.79 1082.8,-334.13"/>
<text text-anchor="middle" x="1076.37" y="-350.51" font-family="Helvetica,sans-Serif" font-size="14.00">&gt; 45.69</text>
</g>
<!-- 8 -->
<g id="node11" class="node">
<title>8</title>
<polygon fill="#44e5e5" stroke="black" points="566.87,-199.71 359.87,-199.71 359.87,-121.71 566.87,-121.71 566.87,-199.71"/>
<text text-anchor="start" x="401.87" y="-185.51" font-family="Helvetica,sans-Serif" font-weight="bold" font-size="14.00"> Class=Austen </text>
<text text-anchor="start" x="519.87" y="-185.51" font-family="Helvetica,sans-Serif" font-size="14.00"> </text>
<text text-anchor="start" x="389.37" y="-171.51" font-family="Helvetica,sans-Serif" font-size="14.00"> error: 0.119, n=841 </text>
<text text-anchor="start" x="367.87" y="-157.51" font-family="Helvetica,sans-Serif" font-size="14.00"> p: (0.96, 0.04, 0.00, 0.00) </text>
<text text-anchor="start" x="441.87" y="-143.51" font-family="Helvetica,sans-Serif" font-size="14.00">&#45;&#45;&#45;&#45;&#45;&#45;&#45;&#45;</text>
<text text-anchor="start" x="426.87" y="-129.51" font-family="Helvetica,sans-Serif" font-weight="bold" font-size="14.00">v_7=0.02</text>
</g>
<!-- 7&#45;&gt;8 -->
<g id="edge10" class="edge">
<title>7:s&#45;&gt;8:n</title>
<path fill="none" stroke="black" d="M468.37,-250.71C468.37,-250.71 465.84,-224.93 464.38,-210.03"/>
<polygon fill="black" stroke="black" points="467.83,-209.32 463.37,-199.71 460.86,-210 467.83,-209.32"/>
<text text-anchor="middle" x="498.87" y="-221.51" font-family="Helvetica,sans-Serif" font-size="14.00">&gt; &#45;16.99</text>
</g>
<!-- 9 -->
<g id="node12" class="node">
<title>9</title>
<ellipse fill="#3d76cc" stroke="black" cx="441.37" cy="-35.36" rx="146.24" ry="35.21"/>
<text text-anchor="start" x="379.87" y="-46.16" font-family="Helvetica,sans-Serif" font-weight="bold" font-size="14.00"> Class=Austen </text>
<text text-anchor="start" x="497.87" y="-46.16" font-family="Helvetica,sans-Serif" font-size="14.00"> </text>
<text text-anchor="start" x="367.37" y="-32.16" font-family="Helvetica,sans-Serif" font-size="14.00"> error: 0.000, n=841 </text>
<text text-anchor="start" x="345.87" y="-18.16" font-family="Helvetica,sans-Serif" font-size="14.00"> p: (1.00, 0.00, 0.00, 0.00) </text>
</g>
<!-- 8&#45;&gt;9 -->
<g id="edge11" class="edge">
<title>8:s&#45;&gt;9:n</title>
<path fill="none" stroke="black" d="M463.37,-121.71C463.37,-121.71 451.76,-94.79 445.41,-80.06"/>
<polygon fill="black" stroke="black" points="448.55,-78.51 441.37,-70.71 442.12,-81.28 448.55,-78.51"/>
<text text-anchor="middle" x="490.37" y="-92.51" font-family="Helvetica,sans-Serif" font-size="14.00">&lt;= 3.665</text>
</g>
<!-- 12 -->
<g id="node15" class="node">
<title>12</title>
<polygon fill="#44e5e5" stroke="black" points="888.87,-199.71 681.87,-199.71 681.87,-121.71 888.87,-121.71 888.87,-199.71"/>
<text text-anchor="start" x="722.37" y="-185.51" font-family="Helvetica,sans-Serif" font-weight="bold" font-size="14.00"> Class=London </text>
<text text-anchor="start" x="843.37" y="-185.51" font-family="Helvetica,sans-Serif" font-size="14.00"> </text>
<text text-anchor="start" x="711.37" y="-171.51" font-family="Helvetica,sans-Serif" font-size="14.00"> error: 0.234, n=841 </text>
<text text-anchor="start" x="689.87" y="-157.51" font-family="Helvetica,sans-Serif" font-size="14.00"> p: (0.10, 0.90, 0.00, 0.00) </text>
<text text-anchor="start" x="763.87" y="-143.51" font-family="Helvetica,sans-Serif" font-size="14.00">&#45;&#45;&#45;&#45;&#45;&#45;&#45;&#45;</text>
<text text-anchor="start" x="748.87" y="-129.51" font-family="Helvetica,sans-Serif" font-weight="bold" font-size="14.00">v_3=0.05</text>
</g>
<!-- 11&#45;&gt;12 -->
<g id="edge14" class="edge">
<title>11:s&#45;&gt;12:n</title>
<path fill="none" stroke="black" d="M768.37,-250.71C768.37,-250.71 777.15,-224.36 782.09,-209.54"/>
<polygon fill="black" stroke="black" points="785.53,-210.3 785.37,-199.71 778.89,-208.09 785.53,-210.3"/>
<text text-anchor="middle" x="814.37" y="-221.51" font-family="Helvetica,sans-Serif" font-size="14.00">&lt;= 21.03</text>
</g>
<!-- 13 -->
<g id="node16" class="node">
<title>13</title>
<ellipse fill="#3d76cc" stroke="black" cx="806.37" cy="-35.36" rx="146.24" ry="35.21"/>
<text text-anchor="start" x="743.37" y="-46.16" font-family="Helvetica,sans-Serif" font-weight="bold" font-size="14.00"> Class=London </text>
<text text-anchor="start" x="864.37" y="-46.16" font-family="Helvetica,sans-Serif" font-size="14.00"> </text>
<text text-anchor="start" x="732.37" y="-32.16" font-family="Helvetica,sans-Serif" font-size="14.00"> error: 0.000, n=841 </text>
<text text-anchor="start" x="710.87" y="-18.16" font-family="Helvetica,sans-Serif" font-size="14.00"> p: (0.00, 1.00, 0.00, 0.00) </text>
</g>
<!-- 12&#45;&gt;13 -->
<g id="edge15" class="edge">
<title>12:s&#45;&gt;13:n</title>
<path fill="none" stroke="black" d="M785.37,-121.71C785.37,-121.71 796.46,-94.79 802.52,-80.06"/>
<polygon fill="black" stroke="black" points="805.8,-81.29 806.37,-70.71 799.33,-78.62 805.8,-81.29"/>
<text text-anchor="middle" x="831.37" y="-92.51" font-family="Helvetica,sans-Serif" font-size="14.00">&lt;= &#45;9.27</text>
</g>
<!-- 17 -->
<g id="node19" class="node">
<title>17</title>
<polygon fill="#64e544" stroke="black" points="1880.87,-457.71 1673.87,-457.71 1673.87,-379.71 1880.87,-379.71 1880.87,-457.71"/>
<text text-anchor="start" x="1692.37" y="-443.51" font-family="Helvetica,sans-Serif" font-weight="bold" font-size="14.00"> Class=Shakespeare </text>
<text text-anchor="start" x="1857.37" y="-443.51" font-family="Helvetica,sans-Serif" font-size="14.00"> </text>
<text text-anchor="start" x="1703.37" y="-429.51" font-family="Helvetica,sans-Serif" font-size="14.00"> error: 0.247, n=841 </text>
<text text-anchor="start" x="1681.87" y="-415.51" font-family="Helvetica,sans-Serif" font-size="14.00"> p: (0.04, 0.04, 0.00, 0.92) </text>
<text text-anchor="start" x="1755.87" y="-401.51" font-family="Helvetica,sans-Serif" font-size="14.00">&#45;&#45;&#45;&#45;&#45;&#45;&#45;&#45;</text>
<text text-anchor="start" x="1740.87" y="-387.51" font-family="Helvetica,sans-Serif" font-weight="bold" font-size="14.00">v_1=0.14</text>
</g>
<!-- 16&#45;&gt;17 -->
<g id="edge18" class="edge">
<title>16:s&#45;&gt;17:n</title>
<path fill="none" stroke="black" d="M1916.37,-508.71C1916.37,-508.71 1818.33,-472.74 1786.93,-461.22"/>
<polygon fill="black" stroke="black" points="1787.96,-457.87 1777.37,-457.71 1785.55,-464.44 1787.96,-457.87"/>
<text text-anchor="middle" x="1865.37" y="-479.51" font-family="Helvetica,sans-Serif" font-size="14.00">&lt;= 11.92</text>
</g>
<!-- 21 -->
<g id="node20" class="node">
<title>21</title>
<polygon fill="#64e544" stroke="black" points="2159.87,-457.71 1952.87,-457.71 1952.87,-379.71 2159.87,-379.71 2159.87,-457.71"/>
<text text-anchor="start" x="1997.87" y="-443.51" font-family="Helvetica,sans-Serif" font-weight="bold" font-size="14.00"> Class=Milton </text>
<text text-anchor="start" x="2109.87" y="-443.51" font-family="Helvetica,sans-Serif" font-size="14.00"> </text>
<text text-anchor="start" x="1982.37" y="-429.51" font-family="Helvetica,sans-Serif" font-size="14.00"> error: 0.449, n=841 </text>
<text text-anchor="start" x="1960.87" y="-415.51" font-family="Helvetica,sans-Serif" font-size="14.00"> p: (0.00, 0.00, 0.69, 0.31) </text>
<text text-anchor="start" x="2034.87" y="-401.51" font-family="Helvetica,sans-Serif" font-size="14.00">&#45;&#45;&#45;&#45;&#45;&#45;&#45;&#45;</text>
<text text-anchor="start" x="2019.87" y="-387.51" font-family="Helvetica,sans-Serif" font-weight="bold" font-size="14.00">v_1=0.14</text>
</g>
<!-- 16&#45;&gt;21 -->
<g id="edge19" class="edge">
<title>16:s&#45;&gt;21:n</title>
<path fill="none" stroke="black" d="M1916.37,-508.71C1916.37,-508.71 2015.12,-472.74 2046.75,-461.22"/>
<polygon fill="black" stroke="black" points="2048.17,-464.42 2056.37,-457.71 2045.78,-457.84 2048.17,-464.42"/>
<text text-anchor="middle" x="2032.37" y="-479.51" font-family="Helvetica,sans-Serif" font-size="14.00">&gt; 11.92</text>
</g>
<!-- 25 -->
<g id="node26" class="node">
<title>25</title>
<polygon fill="#64e544" stroke="black" points="2625.87,-457.71 2418.87,-457.71 2418.87,-379.71 2625.87,-379.71 2625.87,-457.71"/>
<text text-anchor="start" x="2459.37" y="-443.51" font-family="Helvetica,sans-Serif" font-weight="bold" font-size="14.00"> Class=London </text>
<text text-anchor="start" x="2580.37" y="-443.51" font-family="Helvetica,sans-Serif" font-size="14.00"> </text>
<text text-anchor="start" x="2448.37" y="-429.51" font-family="Helvetica,sans-Serif" font-size="14.00"> error: 0.744, n=841 </text>
<text text-anchor="start" x="2426.87" y="-415.51" font-family="Helvetica,sans-Serif" font-size="14.00"> p: (0.00, 0.51, 0.26, 0.23) </text>
<text text-anchor="start" x="2500.87" y="-401.51" font-family="Helvetica,sans-Serif" font-size="14.00">&#45;&#45;&#45;&#45;&#45;&#45;&#45;&#45;</text>
<text text-anchor="start" x="2485.87" y="-387.51" font-family="Helvetica,sans-Serif" font-weight="bold" font-size="14.00">v_2=0.08</text>
</g>
<!-- 24&#45;&gt;25 -->
<g id="edge25" class="edge">
<title>24:s&#45;&gt;25:n</title>
<path fill="none" stroke="black" d="M2522.37,-508.71C2522.37,-508.71 2522.37,-482.93 2522.37,-468.03"/>
<polygon fill="black" stroke="black" points="2525.87,-467.71 2522.37,-457.71 2518.87,-467.71 2525.87,-467.71"/>
<text text-anchor="middle" x="2559.87" y="-479.51" font-family="Helvetica,sans-Serif" font-size="14.00">&lt;= &#45;16.85</text>
</g>
<!-- 28 -->
<g id="node27" class="node">
<title>28</title>
<polygon fill="#64e544" stroke="black" points="3211.87,-457.71 3004.87,-457.71 3004.87,-379.71 3211.87,-379.71 3211.87,-457.71"/>
<text text-anchor="start" x="3045.37" y="-443.51" font-family="Helvetica,sans-Serif" font-weight="bold" font-size="14.00"> Class=London </text>
<text text-anchor="start" x="3166.37" y="-443.51" font-family="Helvetica,sans-Serif" font-size="14.00"> </text>
<text text-anchor="start" x="3034.37" y="-429.51" font-family="Helvetica,sans-Serif" font-size="14.00"> error: 0.086, n=841 </text>
<text text-anchor="start" x="3012.87" y="-415.51" font-family="Helvetica,sans-Serif" font-size="14.00"> p: (0.00, 0.97, 0.03, 0.00) </text>
<text text-anchor="start" x="3086.87" y="-401.51" font-family="Helvetica,sans-Serif" font-size="14.00">&#45;&#45;&#45;&#45;&#45;&#45;&#45;&#45;</text>
<text text-anchor="start" x="3071.87" y="-387.51" font-family="Helvetica,sans-Serif" font-weight="bold" font-size="14.00">v_2=0.08</text>
</g>
<!-- 24&#45;&gt;28 -->
<g id="edge26" class="edge">
<title>24:s&#45;&gt;28:n</title>
<path fill="none" stroke="black" d="M2522.37,-508.71C2522.37,-508.71 3020.39,-465.37 3098.2,-458.6"/>
<polygon fill="black" stroke="black" points="3098.71,-462.06 3108.37,-457.71 3098.11,-455.09 3098.71,-462.06"/>
<text text-anchor="middle" x="2916.87" y="-479.51" font-family="Helvetica,sans-Serif" font-size="14.00">&gt; &#45;16.85</text>
</g>
<!-- 18 -->
<g id="node21" class="node">
<title>18</title>
<ellipse fill="#3dcc76" stroke="black" cx="1455.37" cy="-289.71" rx="146.24" ry="35.21"/>
<text text-anchor="start" x="1370.37" y="-300.51" font-family="Helvetica,sans-Serif" font-weight="bold" font-size="14.00"> Class=Shakespeare </text>
<text text-anchor="start" x="1535.37" y="-300.51" font-family="Helvetica,sans-Serif" font-size="14.00"> </text>
<text text-anchor="start" x="1381.37" y="-286.51" font-family="Helvetica,sans-Serif" font-size="14.00"> error: 0.000, n=841 </text>
<text text-anchor="start" x="1359.87" y="-272.51" font-family="Helvetica,sans-Serif" font-size="14.00"> p: (0.00, 0.00, 0.00, 1.00) </text>
</g>
<!-- 17&#45;&gt;18 -->
<g id="edge20" class="edge">
<title>17:s&#45;&gt;18:n</title>
<path fill="none" stroke="black" d="M1777.37,-379.71C1777.37,-379.71 1519.71,-337.3 1465.36,-328.35"/>
<polygon fill="black" stroke="black" points="1465.81,-324.88 1455.37,-326.71 1464.67,-331.79 1465.81,-324.88"/>
<text text-anchor="middle" x="1701.87" y="-350.51" font-family="Helvetica,sans-Serif" font-size="14.00">&lt;= &#45;22.57</text>
</g>
<!-- 19 -->
<g id="node22" class="node">
<title>19</title>
<polygon fill="#3dcc76" stroke="black" points="1880.87,-328.71 1673.87,-328.71 1673.87,-250.71 1880.87,-250.71 1880.87,-328.71"/>
<text text-anchor="start" x="1692.37" y="-314.51" font-family="Helvetica,sans-Serif" font-weight="bold" font-size="14.00"> Class=Shakespeare </text>
<text text-anchor="start" x="1857.37" y="-314.51" font-family="Helvetica,sans-Serif" font-size="14.00"> </text>
<text text-anchor="start" x="1703.37" y="-300.51" font-family="Helvetica,sans-Serif" font-size="14.00"> error: 0.625, n=841 </text>
<text text-anchor="start" x="1681.87" y="-286.51" font-family="Helvetica,sans-Serif" font-size="14.00"> p: (0.15, 0.18, 0.00, 0.67) </text>
<text text-anchor="start" x="1755.87" y="-272.51" font-family="Helvetica,sans-Serif" font-size="14.00">&#45;&#45;&#45;&#45;&#45;&#45;&#45;&#45;</text>
<text text-anchor="start" x="1740.87" y="-258.51" font-family="Helvetica,sans-Serif" font-weight="bold" font-size="14.00">v_0=0.38</text>
</g>
<!-- 17&#45;&gt;19 -->
<g id="edge21" class="edge">
<title>17:s&#45;&gt;19:n</title>
<path fill="none" stroke="black" d="M1777.37,-379.71C1777.37,-379.71 1777.37,-353.93 1777.37,-339.03"/>
<polygon fill="black" stroke="black" points="1780.87,-338.71 1777.37,-328.71 1773.87,-338.71 1780.87,-338.71"/>
<text text-anchor="middle" x="1808.87" y="-350.51" font-family="Helvetica,sans-Serif" font-size="14.00">&gt; &#45;22.57</text>
</g>
<!-- 22 -->
<g id="node24" class="node">
<title>22</title>
<polygon fill="#3dcc76" stroke="black" points="2159.87,-328.71 1952.87,-328.71 1952.87,-250.71 2159.87,-250.71 2159.87,-328.71"/>
<text text-anchor="start" x="1997.87" y="-314.51" font-family="Helvetica,sans-Serif" font-weight="bold" font-size="14.00"> Class=Milton </text>
<text text-anchor="start" x="2109.87" y="-314.51" font-family="Helvetica,sans-Serif" font-size="14.00"> </text>
<text text-anchor="start" x="1982.37" y="-300.51" font-family="Helvetica,sans-Serif" font-size="14.00"> error: 0.234, n=841 </text>
<text text-anchor="start" x="1960.87" y="-286.51" font-family="Helvetica,sans-Serif" font-size="14.00"> p: (0.00, 0.00, 0.90, 0.10) </text>
<text text-anchor="start" x="2034.87" y="-272.51" font-family="Helvetica,sans-Serif" font-size="14.00">&#45;&#45;&#45;&#45;&#45;&#45;&#45;&#45;</text>
<text text-anchor="start" x="2019.87" y="-258.51" font-family="Helvetica,sans-Serif" font-weight="bold" font-size="14.00">v_1=0.14</text>
</g>
<!-- 21&#45;&gt;22 -->
<g id="edge23" class="edge">
<title>21:s&#45;&gt;22:n</title>
<path fill="none" stroke="black" d="M2056.37,-379.71C2056.37,-379.71 2056.37,-353.93 2056.37,-339.03"/>
<polygon fill="black" stroke="black" points="2059.87,-338.71 2056.37,-328.71 2052.87,-338.71 2059.87,-338.71"/>
<text text-anchor="middle" x="2087.87" y="-350.51" font-family="Helvetica,sans-Serif" font-size="14.00">&gt; &#45;27.09</text>
</g>
<!-- 20 -->
<g id="node23" class="node">
<title>20</title>
<ellipse fill="#44e5e5" stroke="black" cx="1734.37" cy="-160.71" rx="146.24" ry="35.21"/>
<text text-anchor="start" x="1649.37" y="-171.51" font-family="Helvetica,sans-Serif" font-weight="bold" font-size="14.00"> Class=Shakespeare </text>
<text text-anchor="start" x="1814.37" y="-171.51" font-family="Helvetica,sans-Serif" font-size="14.00"> </text>
<text text-anchor="start" x="1660.37" y="-157.51" font-family="Helvetica,sans-Serif" font-size="14.00"> error: 0.246, n=841 </text>
<text text-anchor="start" x="1638.87" y="-143.51" font-family="Helvetica,sans-Serif" font-size="14.00"> p: (0.11, 0.00, 0.00, 0.89) </text>
</g>
<!-- 19&#45;&gt;20 -->
<g id="edge22" class="edge">
<title>19:s&#45;&gt;20:n</title>
<path fill="none" stroke="black" d="M1777.37,-250.71C1777.37,-250.71 1752.68,-220.27 1740.72,-205.53"/>
<polygon fill="black" stroke="black" points="1743.39,-203.27 1734.37,-197.71 1737.95,-207.68 1743.39,-203.27"/>
<text text-anchor="middle" x="1799.87" y="-221.51" font-family="Helvetica,sans-Serif" font-size="14.00">&lt;= &#45;20.92</text>
</g>
<!-- 23 -->
<g id="node25" class="node">
<title>23</title>
<ellipse fill="#44e5e5" stroke="black" cx="2099.37" cy="-160.71" rx="146.24" ry="35.21"/>
<text text-anchor="start" x="2040.87" y="-171.51" font-family="Helvetica,sans-Serif" font-weight="bold" font-size="14.00"> Class=Milton </text>
<text text-anchor="start" x="2152.87" y="-171.51" font-family="Helvetica,sans-Serif" font-size="14.00"> </text>
<text text-anchor="start" x="2025.37" y="-157.51" font-family="Helvetica,sans-Serif" font-size="14.00"> error: 0.000, n=841 </text>
<text text-anchor="start" x="2003.87" y="-143.51" font-family="Helvetica,sans-Serif" font-size="14.00"> p: (0.00, 0.00, 1.00, 0.00) </text>
</g>
<!-- 22&#45;&gt;23 -->
<g id="edge24" class="edge">
<title>22:s&#45;&gt;23:n</title>
<path fill="none" stroke="black" d="M2056.37,-250.71C2056.37,-250.71 2081.07,-220.27 2093.03,-205.53"/>
<polygon fill="black" stroke="black" points="2095.79,-207.68 2099.37,-197.71 2090.35,-203.27 2095.79,-207.68"/>
<text text-anchor="middle" x="2114.87" y="-221.51" font-family="Helvetica,sans-Serif" font-size="14.00">&gt; &#45;22.46</text>
</g>
<!-- 26 -->
<g id="node28" class="node">
<title>26</title>
<ellipse fill="#3dcc76" stroke="black" cx="2378.37" cy="-289.71" rx="146.24" ry="35.21"/>
<text text-anchor="start" x="2315.37" y="-300.51" font-family="Helvetica,sans-Serif" font-weight="bold" font-size="14.00"> Class=London </text>
<text text-anchor="start" x="2436.37" y="-300.51" font-family="Helvetica,sans-Serif" font-size="14.00"> </text>
<text text-anchor="start" x="2304.37" y="-286.51" font-family="Helvetica,sans-Serif" font-size="14.00"> error: 0.303, n=841 </text>
<text text-anchor="start" x="2282.87" y="-272.51" font-family="Helvetica,sans-Serif" font-size="14.00"> p: (0.00, 0.85, 0.00, 0.15) </text>
</g>
<!-- 25&#45;&gt;26 -->
<g id="edge27" class="edge">
<title>25:s&#45;&gt;26:n</title>
<path fill="none" stroke="black" d="M2522.37,-379.71C2522.37,-379.71 2419.86,-341.98 2387.82,-330.19"/>
<polygon fill="black" stroke="black" points="2388.96,-326.88 2378.37,-326.71 2386.55,-333.45 2388.96,-326.88"/>
<text text-anchor="middle" x="2507.37" y="-350.51" font-family="Helvetica,sans-Serif" font-size="14.00">&lt;= 4.816</text>
</g>
<!-- 27 -->
<g id="node29" class="node">
<title>27</title>
<ellipse fill="#3dcc76" stroke="black" cx="2743.37" cy="-289.71" rx="146.24" ry="35.21"/>
<text text-anchor="start" x="2684.87" y="-300.51" font-family="Helvetica,sans-Serif" font-weight="bold" font-size="14.00"> Class=Milton </text>
<text text-anchor="start" x="2796.87" y="-300.51" font-family="Helvetica,sans-Serif" font-size="14.00"> </text>
<text text-anchor="start" x="2669.37" y="-286.51" font-family="Helvetica,sans-Serif" font-size="14.00"> error: 0.710, n=841 </text>
<text text-anchor="start" x="2647.87" y="-272.51" font-family="Helvetica,sans-Serif" font-size="14.00"> p: (0.00, 0.15, 0.54, 0.31) </text>
</g>
<!-- 25&#45;&gt;27 -->
<g id="edge28" class="edge">
<title>25:s&#45;&gt;27:n</title>
<path fill="none" stroke="black" d="M2522.37,-379.71C2522.37,-379.71 2690.82,-339.31 2733.59,-329.06"/>
<polygon fill="black" stroke="black" points="2734.46,-332.45 2743.37,-326.71 2732.83,-325.64 2734.46,-332.45"/>
<text text-anchor="middle" x="2688.37" y="-350.51" font-family="Helvetica,sans-Serif" font-size="14.00">&gt; 4.816</text>
</g>
<!-- 29 -->
<g id="node30" class="node">
<title>29</title>
<ellipse fill="#3dcc76" stroke="black" cx="3108.37" cy="-289.71" rx="146.24" ry="35.21"/>
<text text-anchor="start" x="3045.37" y="-300.51" font-family="Helvetica,sans-Serif" font-weight="bold" font-size="14.00"> Class=London </text>
<text text-anchor="start" x="3166.37" y="-300.51" font-family="Helvetica,sans-Serif" font-size="14.00"> </text>
<text text-anchor="start" x="3034.37" y="-286.51" font-family="Helvetica,sans-Serif" font-size="14.00"> error: 0.000, n=841 </text>
<text text-anchor="start" x="3012.87" y="-272.51" font-family="Helvetica,sans-Serif" font-size="14.00"> p: (0.00, 1.00, 0.00, 0.00) </text>
</g>
<!-- 28&#45;&gt;29 -->
<g id="edge29" class="edge">
<title>28:s&#45;&gt;29:n</title>
<path fill="none" stroke="black" d="M3108.37,-379.71C3108.37,-379.71 3108.37,-352.33 3108.37,-336.93"/>
<polygon fill="black" stroke="black" points="3111.87,-336.71 3108.37,-326.71 3104.87,-336.71 3111.87,-336.71"/>
<text text-anchor="middle" x="3143.37" y="-350.51" font-family="Helvetica,sans-Serif" font-size="14.00">&lt;= 7.266</text>
</g>
<!-- 30 -->
<g id="node31" class="node">
<title>30</title>
<polygon fill="#3dcc76" stroke="black" points="3533.87,-328.71 3326.87,-328.71 3326.87,-250.71 3533.87,-250.71 3533.87,-328.71"/>
<text text-anchor="start" x="3367.37" y="-314.51" font-family="Helvetica,sans-Serif" font-weight="bold" font-size="14.00"> Class=London </text>
<text text-anchor="start" x="3488.37" y="-314.51" font-family="Helvetica,sans-Serif" font-size="14.00"> </text>
<text text-anchor="start" x="3356.37" y="-300.51" font-family="Helvetica,sans-Serif" font-size="14.00"> error: 0.239, n=841 </text>
<text text-anchor="start" x="3334.87" y="-286.51" font-family="Helvetica,sans-Serif" font-size="14.00"> p: (0.00, 0.90, 0.10, 0.00) </text>
<text text-anchor="start" x="3408.87" y="-272.51" font-family="Helvetica,sans-Serif" font-size="14.00">&#45;&#45;&#45;&#45;&#45;&#45;&#45;&#45;</text>
<text text-anchor="start" x="3393.87" y="-258.51" font-family="Helvetica,sans-Serif" font-weight="bold" font-size="14.00">v_0=0.38</text>
</g>
<!-- 28&#45;&gt;30 -->
<g id="edge30" class="edge">
<title>28:s&#45;&gt;30:n</title>
<path fill="none" stroke="black" d="M3108.37,-379.71C3108.37,-379.71 3366.03,-338.9 3420.38,-330.29"/>
<polygon fill="black" stroke="black" points="3421.04,-333.73 3430.37,-328.71 3419.95,-326.82 3421.04,-333.73"/>
<text text-anchor="middle" x="3337.37" y="-350.51" font-family="Helvetica,sans-Serif" font-size="14.00">&gt; 7.266</text>
</g>
<!-- 31 -->
<g id="node32" class="node">
<title>31</title>
<ellipse fill="#44e5e5" stroke="black" cx="3430.37" cy="-160.71" rx="146.24" ry="35.21"/>
<text text-anchor="start" x="3367.37" y="-171.51" font-family="Helvetica,sans-Serif" font-weight="bold" font-size="14.00"> Class=London </text>
<text text-anchor="start" x="3488.37" y="-171.51" font-family="Helvetica,sans-Serif" font-size="14.00"> </text>
<text text-anchor="start" x="3356.37" y="-157.51" font-family="Helvetica,sans-Serif" font-size="14.00"> error: 0.000, n=841 </text>
<text text-anchor="start" x="3334.87" y="-143.51" font-family="Helvetica,sans-Serif" font-size="14.00"> p: (0.00, 1.00, 0.00, 0.00) </text>
</g>
<!-- 30&#45;&gt;31 -->
<g id="edge31" class="edge">
<title>30:s&#45;&gt;31:n</title>
<path fill="none" stroke="black" d="M3430.37,-250.71C3430.37,-250.71 3430.37,-223.33 3430.37,-207.93"/>
<polygon fill="black" stroke="black" points="3433.87,-207.71 3430.37,-197.71 3426.87,-207.71 3433.87,-207.71"/>
<text text-anchor="middle" x="3459.37" y="-221.51" font-family="Helvetica,sans-Serif" font-size="14.00">&gt; 38.64</text>
</g>
</g>
</svg>
