<?xml version="1.0" encoding="UTF-8" standalone="no"?>
<!DOCTYPE svg PUBLIC "-//W3C//DTD SVG 1.1//EN"
 "http://www.w3.org/Graphics/SVG/1.1/DTD/svg11.dtd">
<!-- Generated by graphviz version 2.43.0 (0)
 -->
<!-- Title: Tree Pages: 1 -->
<svg width="3660pt" height="696pt"
 viewBox="0.00 0.00 3660.17 695.71" xmlns="http://www.w3.org/2000/svg" xmlns:xlink="http://www.w3.org/1999/xlink">
<g id="graph0" class="graph" transform="scale(1 1) rotate(0) translate(18 677.71)">
<title>Tree</title>
<polygon fill="white" stroke="transparent" points="-18,18 -18,-677.71 3642.17,-677.71 3642.17,18 -18,18"/>
<!-- 0 -->
<g id="node1" class="node">
<title>0</title>
<polygon fill="white" stroke="transparent" points="1856.09,-659.71 1802.09,-659.71 1802.09,-623.71 1856.09,-623.71 1856.09,-659.71"/>
<text text-anchor="middle" x="1829.09" y="-638.01" font-family="Helvetica,sans-Serif" font-size="14.00">0</text>
</g>
<!-- 1 -->
<g id="node2" class="node">
<title>1</title>
<polygon fill="#cc3d3d" stroke="black" points="1912.59,-586.71 1745.59,-586.71 1745.59,-508.71 1912.59,-508.71 1912.59,-586.71"/>
<text text-anchor="start" x="1790.59" y="-572.51" font-family="Helvetica,sans-Serif" font-weight="bold" font-size="14.00"> Class=L </text>
<text text-anchor="start" x="1862.59" y="-572.51" font-family="Helvetica,sans-Serif" font-size="14.00"> </text>
<text text-anchor="start" x="1755.09" y="-558.51" font-family="Helvetica,sans-Serif" font-size="14.00"> error: 0.832, n=625 </text>
<text text-anchor="start" x="1753.59" y="-544.51" font-family="Helvetica,sans-Serif" font-size="14.00"> p: (0.08, 0.46, 0.46) </text>
<text text-anchor="start" x="1800.09" y="-530.51" font-family="Helvetica,sans-Serif" font-size="14.00">&#45;&#45;&#45;&#45;&#45;&#45;&#45;&#45;&#45;&#45;&#45;</text>
<text text-anchor="start" x="1785.59" y="-516.51" font-family="Helvetica,sans-Serif" font-weight="bold" font-size="14.00">left&#45;weight</text>
</g>
<!-- 0&#45;&gt;1 -->
<!-- 2 -->
<g id="node3" class="node">
<title>2</title>
<polygon fill="#e5d544" stroke="black" points="1468.59,-457.71 1301.59,-457.71 1301.59,-379.71 1468.59,-379.71 1468.59,-457.71"/>
<text text-anchor="start" x="1346.59" y="-443.51" font-family="Helvetica,sans-Serif" font-weight="bold" font-size="14.00"> Class=L </text>
<text text-anchor="start" x="1418.59" y="-443.51" font-family="Helvetica,sans-Serif" font-size="14.00"> </text>
<text text-anchor="start" x="1311.09" y="-429.51" font-family="Helvetica,sans-Serif" font-size="14.00"> error: 0.783, n=625 </text>
<text text-anchor="start" x="1309.59" y="-415.51" font-family="Helvetica,sans-Serif" font-size="14.00"> p: (0.07, 0.61, 0.32) </text>
<text text-anchor="start" x="1350.59" y="-401.51" font-family="Helvetica,sans-Serif" font-size="14.00">&#45;&#45;&#45;&#45;&#45;&#45;&#45;&#45;&#45;&#45;&#45;&#45;&#45;</text>
<text text-anchor="start" x="1335.09" y="-387.51" font-family="Helvetica,sans-Serif" font-weight="bold" font-size="14.00">left&#45;distance</text>
</g>
<!-- 1&#45;&gt;2 -->
<g id="edge2" class="edge">
<title>1:s&#45;&gt;2:n</title>
<path fill="none" stroke="black" d="M1829.09,-508.71C1829.09,-508.71 1461.28,-466.46 1395.19,-458.87"/>
<polygon fill="black" stroke="black" points="1395.42,-455.37 1385.09,-457.71 1394.62,-462.33 1395.42,-455.37"/>
<text text-anchor="middle" x="1673.09" y="-479.51" font-family="Helvetica,sans-Serif" font-size="14.00">&gt; 2</text>
</g>
<!-- 15 -->
<g id="node4" class="node">
<title>15</title>
<polygon fill="#e5d544" stroke="black" points="2511.59,-457.71 2344.59,-457.71 2344.59,-379.71 2511.59,-379.71 2511.59,-457.71"/>
<text text-anchor="start" x="2389.09" y="-443.51" font-family="Helvetica,sans-Serif" font-weight="bold" font-size="14.00"> Class=R </text>
<text text-anchor="start" x="2462.09" y="-443.51" font-family="Helvetica,sans-Serif" font-size="14.00"> </text>
<text text-anchor="start" x="2354.09" y="-429.51" font-family="Helvetica,sans-Serif" font-size="14.00"> error: 0.742, n=625 </text>
<text text-anchor="start" x="2352.59" y="-415.51" font-family="Helvetica,sans-Serif" font-size="14.00"> p: (0.08, 0.24, 0.68) </text>
<text text-anchor="start" x="2396.09" y="-401.51" font-family="Helvetica,sans-Serif" font-size="14.00">&#45;&#45;&#45;&#45;&#45;&#45;&#45;&#45;&#45;&#45;&#45;&#45;</text>
<text text-anchor="start" x="2379.59" y="-387.51" font-family="Helvetica,sans-Serif" font-weight="bold" font-size="14.00">right&#45;weight</text>
</g>
<!-- 1&#45;&gt;15 -->
<g id="edge3" class="edge">
<title>1:s&#45;&gt;15:n</title>
<path fill="none" stroke="black" d="M1829.09,-508.71C1829.09,-508.71 2338.15,-465.37 2417.69,-458.6"/>
<polygon fill="black" stroke="black" points="2418.42,-462.05 2428.09,-457.71 2417.83,-455.07 2418.42,-462.05"/>
<text text-anchor="middle" x="2219.09" y="-479.51" font-family="Helvetica,sans-Serif" font-size="14.00">&lt;= 2</text>
</g>
<!-- 3 -->
<g id="node5" class="node">
<title>3</title>
<polygon fill="#59cc3d" stroke="black" points="1000.59,-328.71 833.59,-328.71 833.59,-250.71 1000.59,-250.71 1000.59,-328.71"/>
<text text-anchor="start" x="878.09" y="-314.51" font-family="Helvetica,sans-Serif" font-weight="bold" font-size="14.00"> Class=R </text>
<text text-anchor="start" x="951.09" y="-314.51" font-family="Helvetica,sans-Serif" font-size="14.00"> </text>
<text text-anchor="start" x="843.09" y="-300.51" font-family="Helvetica,sans-Serif" font-size="14.00"> error: 0.823, n=625 </text>
<text text-anchor="start" x="841.59" y="-286.51" font-family="Helvetica,sans-Serif" font-size="14.00"> p: (0.09, 0.35, 0.56) </text>
<text text-anchor="start" x="885.09" y="-272.51" font-family="Helvetica,sans-Serif" font-size="14.00">&#45;&#45;&#45;&#45;&#45;&#45;&#45;&#45;&#45;&#45;&#45;&#45;</text>
<text text-anchor="start" x="868.59" y="-258.51" font-family="Helvetica,sans-Serif" font-weight="bold" font-size="14.00">right&#45;weight</text>
</g>
<!-- 2&#45;&gt;3 -->
<g id="edge4" class="edge">
<title>2:s&#45;&gt;3:n</title>
<path fill="none" stroke="black" d="M1385.09,-379.71C1385.09,-379.71 995.74,-337.28 927.3,-329.82"/>
<polygon fill="black" stroke="black" points="927.41,-326.31 917.09,-328.71 926.65,-333.27 927.41,-326.31"/>
<text text-anchor="middle" x="1226.09" y="-350.51" font-family="Helvetica,sans-Serif" font-size="14.00">&lt;= 2</text>
</g>
<!-- 10 -->
<g id="node6" class="node">
<title>10</title>
<polygon fill="#59cc3d" stroke="black" points="1468.59,-328.71 1301.59,-328.71 1301.59,-250.71 1468.59,-250.71 1468.59,-328.71"/>
<text text-anchor="start" x="1346.59" y="-314.51" font-family="Helvetica,sans-Serif" font-weight="bold" font-size="14.00"> Class=L </text>
<text text-anchor="start" x="1418.59" y="-314.51" font-family="Helvetica,sans-Serif" font-size="14.00"> </text>
<text text-anchor="start" x="1311.09" y="-300.51" font-family="Helvetica,sans-Serif" font-size="14.00"> error: 0.606, n=625 </text>
<text text-anchor="start" x="1309.59" y="-286.51" font-family="Helvetica,sans-Serif" font-size="14.00"> p: (0.07, 0.78, 0.16) </text>
<text text-anchor="start" x="1353.09" y="-272.51" font-family="Helvetica,sans-Serif" font-size="14.00">&#45;&#45;&#45;&#45;&#45;&#45;&#45;&#45;&#45;&#45;&#45;&#45;</text>
<text text-anchor="start" x="1336.59" y="-258.51" font-family="Helvetica,sans-Serif" font-weight="bold" font-size="14.00">right&#45;weight</text>
</g>
<!-- 2&#45;&gt;10 -->
<g id="edge5" class="edge">
<title>2:s&#45;&gt;10:n</title>
<path fill="none" stroke="black" d="M1385.09,-379.71C1385.09,-379.71 1385.09,-353.93 1385.09,-339.03"/>
<polygon fill="black" stroke="black" points="1388.59,-338.71 1385.09,-328.71 1381.59,-338.71 1388.59,-338.71"/>
<text text-anchor="middle" x="1398.09" y="-350.51" font-family="Helvetica,sans-Serif" font-size="14.00">&gt; 2</text>
</g>
<!-- 16 -->
<g id="node17" class="node">
<title>16</title>
<polygon fill="#59cc3d" stroke="black" points="2511.59,-328.71 2344.59,-328.71 2344.59,-250.71 2511.59,-250.71 2511.59,-328.71"/>
<text text-anchor="start" x="2389.59" y="-314.51" font-family="Helvetica,sans-Serif" font-weight="bold" font-size="14.00"> Class=L </text>
<text text-anchor="start" x="2461.59" y="-314.51" font-family="Helvetica,sans-Serif" font-size="14.00"> </text>
<text text-anchor="start" x="2354.09" y="-300.51" font-family="Helvetica,sans-Serif" font-size="14.00"> error: 0.911, n=625 </text>
<text text-anchor="start" x="2352.59" y="-286.51" font-family="Helvetica,sans-Serif" font-size="14.00"> p: (0.14, 0.43, 0.43) </text>
<text text-anchor="start" x="2393.59" y="-272.51" font-family="Helvetica,sans-Serif" font-size="14.00">&#45;&#45;&#45;&#45;&#45;&#45;&#45;&#45;&#45;&#45;&#45;&#45;&#45;</text>
<text text-anchor="start" x="2378.09" y="-258.51" font-family="Helvetica,sans-Serif" font-weight="bold" font-size="14.00">left&#45;distance</text>
</g>
<!-- 15&#45;&gt;16 -->
<g id="edge16" class="edge">
<title>15:s&#45;&gt;16:n</title>
<path fill="none" stroke="black" d="M2428.09,-379.71C2428.09,-379.71 2428.09,-353.93 2428.09,-339.03"/>
<polygon fill="black" stroke="black" points="2431.59,-338.71 2428.09,-328.71 2424.59,-338.71 2431.59,-338.71"/>
<text text-anchor="middle" x="2447.09" y="-350.51" font-family="Helvetica,sans-Serif" font-size="14.00">&lt;= 2</text>
</g>
<!-- 23 -->
<g id="node18" class="node">
<title>23</title>
<polygon fill="#59cc3d" stroke="black" points="3281.59,-328.71 3114.59,-328.71 3114.59,-250.71 3281.59,-250.71 3281.59,-328.71"/>
<text text-anchor="start" x="3159.09" y="-314.51" font-family="Helvetica,sans-Serif" font-weight="bold" font-size="14.00"> Class=R </text>
<text text-anchor="start" x="3232.09" y="-314.51" font-family="Helvetica,sans-Serif" font-size="14.00"> </text>
<text text-anchor="start" x="3124.09" y="-300.51" font-family="Helvetica,sans-Serif" font-size="14.00"> error: 0.488, n=625 </text>
<text text-anchor="start" x="3122.59" y="-286.51" font-family="Helvetica,sans-Serif" font-size="14.00"> p: (0.05, 0.11, 0.84) </text>
<text text-anchor="start" x="3161.09" y="-272.51" font-family="Helvetica,sans-Serif" font-size="14.00">&#45;&#45;&#45;&#45;&#45;&#45;&#45;&#45;&#45;&#45;&#45;&#45;&#45;&#45;</text>
<text text-anchor="start" x="3142.59" y="-258.51" font-family="Helvetica,sans-Serif" font-weight="bold" font-size="14.00">right&#45;distance</text>
</g>
<!-- 15&#45;&gt;23 -->
<g id="edge17" class="edge">
<title>15:s&#45;&gt;23:n</title>
<path fill="none" stroke="black" d="M2428.09,-379.71C2428.09,-379.71 3097.81,-335.35 3188.07,-329.37"/>
<polygon fill="black" stroke="black" points="3188.34,-332.86 3198.09,-328.71 3187.88,-325.88 3188.34,-332.86"/>
<text text-anchor="middle" x="2918.09" y="-350.51" font-family="Helvetica,sans-Serif" font-size="14.00">&gt; 2</text>
</g>
<!-- 4 -->
<g id="node7" class="node">
<title>4</title>
<polygon fill="#44e5b5" stroke="black" points="509.59,-199.71 342.59,-199.71 342.59,-121.71 509.59,-121.71 509.59,-199.71"/>
<text text-anchor="start" x="387.59" y="-185.51" font-family="Helvetica,sans-Serif" font-weight="bold" font-size="14.00"> Class=L </text>
<text text-anchor="start" x="459.59" y="-185.51" font-family="Helvetica,sans-Serif" font-size="14.00"> </text>
<text text-anchor="start" x="352.09" y="-171.51" font-family="Helvetica,sans-Serif" font-size="14.00"> error: 0.820, n=625 </text>
<text text-anchor="start" x="350.59" y="-157.51" font-family="Helvetica,sans-Serif" font-size="14.00"> p: (0.12, 0.62, 0.27) </text>
<text text-anchor="start" x="389.09" y="-143.51" font-family="Helvetica,sans-Serif" font-size="14.00">&#45;&#45;&#45;&#45;&#45;&#45;&#45;&#45;&#45;&#45;&#45;&#45;&#45;&#45;</text>
<text text-anchor="start" x="370.59" y="-129.51" font-family="Helvetica,sans-Serif" font-weight="bold" font-size="14.00">right&#45;distance</text>
</g>
<!-- 3&#45;&gt;4 -->
<g id="edge6" class="edge">
<title>3:s&#45;&gt;4:n</title>
<path fill="none" stroke="black" d="M917.09,-250.71C917.09,-250.71 506.85,-208.1 436.34,-200.78"/>
<polygon fill="black" stroke="black" points="436.39,-197.26 426.09,-199.71 435.67,-204.23 436.39,-197.26"/>
<text text-anchor="middle" x="749.09" y="-221.51" font-family="Helvetica,sans-Serif" font-size="14.00">&lt;= 2</text>
</g>
<!-- 7 -->
<g id="node8" class="node">
<title>7</title>
<polygon fill="#44e5b5" stroke="black" points="1000.59,-199.71 833.59,-199.71 833.59,-121.71 1000.59,-121.71 1000.59,-199.71"/>
<text text-anchor="start" x="878.09" y="-185.51" font-family="Helvetica,sans-Serif" font-weight="bold" font-size="14.00"> Class=R </text>
<text text-anchor="start" x="951.09" y="-185.51" font-family="Helvetica,sans-Serif" font-size="14.00"> </text>
<text text-anchor="start" x="843.09" y="-171.51" font-family="Helvetica,sans-Serif" font-size="14.00"> error: 0.637, n=625 </text>
<text text-anchor="start" x="841.59" y="-157.51" font-family="Helvetica,sans-Serif" font-size="14.00"> p: (0.07, 0.18, 0.76) </text>
<text text-anchor="start" x="880.09" y="-143.51" font-family="Helvetica,sans-Serif" font-size="14.00">&#45;&#45;&#45;&#45;&#45;&#45;&#45;&#45;&#45;&#45;&#45;&#45;&#45;&#45;</text>
<text text-anchor="start" x="861.59" y="-129.51" font-family="Helvetica,sans-Serif" font-weight="bold" font-size="14.00">right&#45;distance</text>
</g>
<!-- 3&#45;&gt;7 -->
<g id="edge7" class="edge">
<title>3:s&#45;&gt;7:n</title>
<path fill="none" stroke="black" d="M917.09,-250.71C917.09,-250.71 917.09,-224.93 917.09,-210.03"/>
<polygon fill="black" stroke="black" points="920.59,-209.71 917.09,-199.71 913.59,-209.71 920.59,-209.71"/>
<text text-anchor="middle" x="930.09" y="-221.51" font-family="Helvetica,sans-Serif" font-size="14.00">&gt; 2</text>
</g>
<!-- 11 -->
<g id="node13" class="node">
<title>11</title>
<ellipse fill="#44e5b5" stroke="black" cx="1288.09" cy="-160.71" rx="118.17" ry="35.21"/>
<text text-anchor="start" x="1249.59" y="-171.51" font-family="Helvetica,sans-Serif" font-weight="bold" font-size="14.00"> Class=L </text>
<text text-anchor="start" x="1321.59" y="-171.51" font-family="Helvetica,sans-Serif" font-size="14.00"> </text>
<text text-anchor="start" x="1214.09" y="-157.51" font-family="Helvetica,sans-Serif" font-size="14.00"> error: 0.056, n=625 </text>
<text text-anchor="start" x="1212.59" y="-143.51" font-family="Helvetica,sans-Serif" font-size="14.00"> p: (0.00, 0.99, 0.01) </text>
</g>
<!-- 10&#45;&gt;11 -->
<g id="edge12" class="edge">
<title>10:s&#45;&gt;11:n</title>
<path fill="none" stroke="black" d="M1385.09,-250.71C1385.09,-250.71 1321.05,-215.72 1297.04,-202.6"/>
<polygon fill="black" stroke="black" points="1298.54,-199.43 1288.09,-197.71 1295.18,-205.58 1298.54,-199.43"/>
<text text-anchor="middle" x="1370.09" y="-221.51" font-family="Helvetica,sans-Serif" font-size="14.00">&lt;= 2</text>
</g>
<!-- 12 -->
<g id="node14" class="node">
<title>12</title>
<polygon fill="#44e5b5" stroke="black" points="1645.59,-199.71 1478.59,-199.71 1478.59,-121.71 1645.59,-121.71 1645.59,-199.71"/>
<text text-anchor="start" x="1523.59" y="-185.51" font-family="Helvetica,sans-Serif" font-weight="bold" font-size="14.00"> Class=L </text>
<text text-anchor="start" x="1595.59" y="-185.51" font-family="Helvetica,sans-Serif" font-size="14.00"> </text>
<text text-anchor="start" x="1488.09" y="-171.51" font-family="Helvetica,sans-Serif" font-size="14.00"> error: 0.800, n=625 </text>
<text text-anchor="start" x="1486.59" y="-157.51" font-family="Helvetica,sans-Serif" font-size="14.00"> p: (0.11, 0.64, 0.25) </text>
<text text-anchor="start" x="1525.09" y="-143.51" font-family="Helvetica,sans-Serif" font-size="14.00">&#45;&#45;&#45;&#45;&#45;&#45;&#45;&#45;&#45;&#45;&#45;&#45;&#45;&#45;</text>
<text text-anchor="start" x="1506.59" y="-129.51" font-family="Helvetica,sans-Serif" font-weight="bold" font-size="14.00">right&#45;distance</text>
</g>
<!-- 10&#45;&gt;12 -->
<g id="edge13" class="edge">
<title>10:s&#45;&gt;12:n</title>
<path fill="none" stroke="black" d="M1385.09,-250.71C1385.09,-250.71 1515.21,-213.22 1552.32,-202.53"/>
<polygon fill="black" stroke="black" points="1553.45,-205.84 1562.09,-199.71 1551.51,-199.12 1553.45,-205.84"/>
<text text-anchor="middle" x="1508.09" y="-221.51" font-family="Helvetica,sans-Serif" font-size="14.00">&gt; 2</text>
</g>
<!-- 5 -->
<g id="node9" class="node">
<title>5</title>
<ellipse fill="#3d76cc" stroke="black" cx="118.09" cy="-35.36" rx="118.17" ry="35.21"/>
<text text-anchor="start" x="79.59" y="-46.16" font-family="Helvetica,sans-Serif" font-weight="bold" font-size="14.00"> Class=L </text>
<text text-anchor="start" x="151.59" y="-46.16" font-family="Helvetica,sans-Serif" font-size="14.00"> </text>
<text text-anchor="start" x="44.09" y="-32.16" font-family="Helvetica,sans-Serif" font-size="14.00"> error: 0.314, n=625 </text>
<text text-anchor="start" x="42.59" y="-18.16" font-family="Helvetica,sans-Serif" font-size="14.00"> p: (0.04, 0.92, 0.04) </text>
</g>
<!-- 4&#45;&gt;5 -->
<g id="edge8" class="edge">
<title>4:s&#45;&gt;5:n</title>
<path fill="none" stroke="black" d="M426.09,-121.71C426.09,-121.71 180.7,-81.08 127.99,-72.35"/>
<polygon fill="black" stroke="black" points="128.52,-68.89 118.09,-70.71 127.38,-75.8 128.52,-68.89"/>
<text text-anchor="middle" x="328.09" y="-92.51" font-family="Helvetica,sans-Serif" font-size="14.00">&lt;= 2</text>
</g>
<!-- 6 -->
<g id="node10" class="node">
<title>6</title>
<ellipse fill="#3d76cc" stroke="black" cx="426.09" cy="-35.36" rx="118.17" ry="35.21"/>
<text text-anchor="start" x="387.59" y="-46.16" font-family="Helvetica,sans-Serif" font-weight="bold" font-size="14.00"> Class=L </text>
<text text-anchor="start" x="459.59" y="-46.16" font-family="Helvetica,sans-Serif" font-size="14.00"> </text>
<text text-anchor="start" x="352.09" y="-32.16" font-family="Helvetica,sans-Serif" font-size="14.00"> error: 0.936, n=625 </text>
<text text-anchor="start" x="350.59" y="-18.16" font-family="Helvetica,sans-Serif" font-size="14.00"> p: (0.17, 0.42, 0.42) </text>
</g>
<!-- 4&#45;&gt;6 -->
<g id="edge9" class="edge">
<title>4:s&#45;&gt;6:n</title>
<path fill="none" stroke="black" d="M426.09,-121.71C426.09,-121.71 426.09,-95.93 426.09,-81.03"/>
<polygon fill="black" stroke="black" points="429.59,-80.71 426.09,-70.71 422.59,-80.71 429.59,-80.71"/>
<text text-anchor="middle" x="439.09" y="-92.51" font-family="Helvetica,sans-Serif" font-size="14.00">&gt; 2</text>
</g>
<!-- 8 -->
<g id="node11" class="node">
<title>8</title>
<ellipse fill="#3d76cc" stroke="black" cx="734.09" cy="-35.36" rx="118.17" ry="35.21"/>
<text text-anchor="start" x="695.59" y="-46.16" font-family="Helvetica,sans-Serif" font-weight="bold" font-size="14.00"> Class=L </text>
<text text-anchor="start" x="767.59" y="-46.16" font-family="Helvetica,sans-Serif" font-size="14.00"> </text>
<text text-anchor="start" x="660.09" y="-32.16" font-family="Helvetica,sans-Serif" font-size="14.00"> error: 0.936, n=625 </text>
<text text-anchor="start" x="658.59" y="-18.16" font-family="Helvetica,sans-Serif" font-size="14.00"> p: (0.17, 0.42, 0.42) </text>
</g>
<!-- 7&#45;&gt;8 -->
<g id="edge10" class="edge">
<title>7:s&#45;&gt;8:n</title>
<path fill="none" stroke="black" d="M917.09,-121.71C917.09,-121.71 781.94,-84.05 743.93,-73.45"/>
<polygon fill="black" stroke="black" points="744.66,-70.02 734.09,-70.71 742.78,-76.77 744.66,-70.02"/>
<text text-anchor="middle" x="867.09" y="-92.51" font-family="Helvetica,sans-Serif" font-size="14.00">&lt;= 2</text>
</g>
<!-- 9 -->
<g id="node12" class="node">
<title>9</title>
<ellipse fill="#3d76cc" stroke="black" cx="1042.09" cy="-35.36" rx="118.17" ry="35.21"/>
<text text-anchor="start" x="1003.09" y="-46.16" font-family="Helvetica,sans-Serif" font-weight="bold" font-size="14.00"> Class=R </text>
<text text-anchor="start" x="1076.09" y="-46.16" font-family="Helvetica,sans-Serif" font-size="14.00"> </text>
<text text-anchor="start" x="968.09" y="-32.16" font-family="Helvetica,sans-Serif" font-size="14.00"> error: 0.084, n=625 </text>
<text text-anchor="start" x="966.59" y="-18.16" font-family="Helvetica,sans-Serif" font-size="14.00"> p: (0.00, 0.02, 0.98) </text>
</g>
<!-- 7&#45;&gt;9 -->
<g id="edge11" class="edge">
<title>7:s&#45;&gt;9:n</title>
<path fill="none" stroke="black" d="M917.09,-121.71C917.09,-121.71 1003.62,-86.4 1032.69,-74.54"/>
<polygon fill="black" stroke="black" points="1034.15,-77.73 1042.09,-70.71 1031.51,-71.25 1034.15,-77.73"/>
<text text-anchor="middle" x="1008.09" y="-92.51" font-family="Helvetica,sans-Serif" font-size="14.00">&gt; 2</text>
</g>
<!-- 13 -->
<g id="node15" class="node">
<title>13</title>
<ellipse fill="#3d76cc" stroke="black" cx="1350.09" cy="-35.36" rx="118.17" ry="35.21"/>
<text text-anchor="start" x="1311.59" y="-46.16" font-family="Helvetica,sans-Serif" font-weight="bold" font-size="14.00"> Class=L </text>
<text text-anchor="start" x="1383.59" y="-46.16" font-family="Helvetica,sans-Serif" font-size="14.00"> </text>
<text text-anchor="start" x="1276.09" y="-32.16" font-family="Helvetica,sans-Serif" font-size="14.00"> error: 0.084, n=625 </text>
<text text-anchor="start" x="1274.59" y="-18.16" font-family="Helvetica,sans-Serif" font-size="14.00"> p: (0.00, 0.98, 0.02) </text>
</g>
<!-- 12&#45;&gt;13 -->
<g id="edge14" class="edge">
<title>12:s&#45;&gt;13:n</title>
<path fill="none" stroke="black" d="M1562.09,-121.71C1562.09,-121.71 1401.94,-83.19 1360.03,-73.1"/>
<polygon fill="black" stroke="black" points="1360.63,-69.65 1350.09,-70.71 1358.99,-76.45 1360.63,-69.65"/>
<text text-anchor="middle" x="1501.09" y="-92.51" font-family="Helvetica,sans-Serif" font-size="14.00">&lt;= 2</text>
</g>
<!-- 14 -->
<g id="node16" class="node">
<title>14</title>
<ellipse fill="#3d76cc" stroke="black" cx="1658.09" cy="-35.36" rx="118.17" ry="35.21"/>
<text text-anchor="start" x="1619.59" y="-46.16" font-family="Helvetica,sans-Serif" font-weight="bold" font-size="14.00"> Class=L </text>
<text text-anchor="start" x="1691.59" y="-46.16" font-family="Helvetica,sans-Serif" font-size="14.00"> </text>
<text text-anchor="start" x="1584.09" y="-32.16" font-family="Helvetica,sans-Serif" font-size="14.00"> error: 0.950, n=625 </text>
<text text-anchor="start" x="1582.59" y="-18.16" font-family="Helvetica,sans-Serif" font-size="14.00"> p: (0.19, 0.41, 0.41) </text>
</g>
<!-- 12&#45;&gt;14 -->
<g id="edge15" class="edge">
<title>12:s&#45;&gt;14:n</title>
<path fill="none" stroke="black" d="M1562.09,-121.71C1562.09,-121.71 1625.46,-88.04 1649.23,-75.42"/>
<polygon fill="black" stroke="black" points="1650.9,-78.49 1658.09,-70.71 1647.61,-72.31 1650.9,-78.49"/>
<text text-anchor="middle" x="1635.09" y="-92.51" font-family="Helvetica,sans-Serif" font-size="14.00">&gt; 2</text>
</g>
<!-- 17 -->
<g id="node19" class="node">
<title>17</title>
<polygon fill="#44e5b5" stroke="black" points="2357.59,-199.71 2190.59,-199.71 2190.59,-121.71 2357.59,-121.71 2357.59,-199.71"/>
<text text-anchor="start" x="2235.09" y="-185.51" font-family="Helvetica,sans-Serif" font-weight="bold" font-size="14.00"> Class=R </text>
<text text-anchor="start" x="2308.09" y="-185.51" font-family="Helvetica,sans-Serif" font-size="14.00"> </text>
<text text-anchor="start" x="2200.09" y="-171.51" font-family="Helvetica,sans-Serif" font-size="14.00"> error: 0.778, n=625 </text>
<text text-anchor="start" x="2198.59" y="-157.51" font-family="Helvetica,sans-Serif" font-size="14.00"> p: (0.17, 0.15, 0.68) </text>
<text text-anchor="start" x="2237.09" y="-143.51" font-family="Helvetica,sans-Serif" font-size="14.00">&#45;&#45;&#45;&#45;&#45;&#45;&#45;&#45;&#45;&#45;&#45;&#45;&#45;&#45;</text>
<text text-anchor="start" x="2218.59" y="-129.51" font-family="Helvetica,sans-Serif" font-weight="bold" font-size="14.00">right&#45;distance</text>
</g>
<!-- 16&#45;&gt;17 -->
<g id="edge18" class="edge">
<title>16:s&#45;&gt;17:n</title>
<path fill="none" stroke="black" d="M2428.09,-250.71C2428.09,-250.71 2317.43,-214.07 2283.72,-202.9"/>
<polygon fill="black" stroke="black" points="2284.68,-199.53 2274.09,-199.71 2282.48,-206.18 2284.68,-199.53"/>
<text text-anchor="middle" x="2377.09" y="-221.51" font-family="Helvetica,sans-Serif" font-size="14.00">&lt;= 2</text>
</g>
<!-- 20 -->
<g id="node20" class="node">
<title>20</title>
<polygon fill="#44e5b5" stroke="black" points="2665.59,-199.71 2498.59,-199.71 2498.59,-121.71 2665.59,-121.71 2665.59,-199.71"/>
<text text-anchor="start" x="2543.59" y="-185.51" font-family="Helvetica,sans-Serif" font-weight="bold" font-size="14.00"> Class=L </text>
<text text-anchor="start" x="2615.59" y="-185.51" font-family="Helvetica,sans-Serif" font-size="14.00"> </text>
<text text-anchor="start" x="2508.09" y="-171.51" font-family="Helvetica,sans-Serif" font-size="14.00"> error: 0.820, n=625 </text>
<text text-anchor="start" x="2506.59" y="-157.51" font-family="Helvetica,sans-Serif" font-size="14.00"> p: (0.12, 0.62, 0.27) </text>
<text text-anchor="start" x="2545.09" y="-143.51" font-family="Helvetica,sans-Serif" font-size="14.00">&#45;&#45;&#45;&#45;&#45;&#45;&#45;&#45;&#45;&#45;&#45;&#45;&#45;&#45;</text>
<text text-anchor="start" x="2526.59" y="-129.51" font-family="Helvetica,sans-Serif" font-weight="bold" font-size="14.00">right&#45;distance</text>
</g>
<!-- 16&#45;&gt;20 -->
<g id="edge19" class="edge">
<title>16:s&#45;&gt;20:n</title>
<path fill="none" stroke="black" d="M2428.09,-250.71C2428.09,-250.71 2538.74,-214.07 2572.45,-202.9"/>
<polygon fill="black" stroke="black" points="2573.69,-206.18 2582.09,-199.71 2571.49,-199.53 2573.69,-206.18"/>
<text text-anchor="middle" x="2537.09" y="-221.51" font-family="Helvetica,sans-Serif" font-size="14.00">&gt; 2</text>
</g>
<!-- 24 -->
<g id="node25" class="node">
<title>24</title>
<polygon fill="#44e5b5" stroke="black" points="3281.59,-199.71 3114.59,-199.71 3114.59,-121.71 3281.59,-121.71 3281.59,-199.71"/>
<text text-anchor="start" x="3159.09" y="-185.51" font-family="Helvetica,sans-Serif" font-weight="bold" font-size="14.00"> Class=R </text>
<text text-anchor="start" x="3232.09" y="-185.51" font-family="Helvetica,sans-Serif" font-size="14.00"> </text>
<text text-anchor="start" x="3124.09" y="-171.51" font-family="Helvetica,sans-Serif" font-size="14.00"> error: 0.820, n=625 </text>
<text text-anchor="start" x="3122.59" y="-157.51" font-family="Helvetica,sans-Serif" font-size="14.00"> p: (0.12, 0.27, 0.62) </text>
<text text-anchor="start" x="3163.59" y="-143.51" font-family="Helvetica,sans-Serif" font-size="14.00">&#45;&#45;&#45;&#45;&#45;&#45;&#45;&#45;&#45;&#45;&#45;&#45;&#45;</text>
<text text-anchor="start" x="3148.09" y="-129.51" font-family="Helvetica,sans-Serif" font-weight="bold" font-size="14.00">left&#45;distance</text>
</g>
<!-- 23&#45;&gt;24 -->
<g id="edge24" class="edge">
<title>23:s&#45;&gt;24:n</title>
<path fill="none" stroke="black" d="M3198.09,-250.71C3198.09,-250.71 3198.09,-224.93 3198.09,-210.03"/>
<polygon fill="black" stroke="black" points="3201.59,-209.71 3198.09,-199.71 3194.59,-209.71 3201.59,-209.71"/>
<text text-anchor="middle" x="3217.09" y="-221.51" font-family="Helvetica,sans-Serif" font-size="14.00">&lt;= 2</text>
</g>
<!-- 27 -->
<g id="node26" class="node">
<title>27</title>
<ellipse fill="#44e5b5" stroke="black" cx="3472.09" cy="-160.71" rx="118.17" ry="35.21"/>
<text text-anchor="start" x="3433.09" y="-171.51" font-family="Helvetica,sans-Serif" font-weight="bold" font-size="14.00"> Class=R </text>
<text text-anchor="start" x="3506.09" y="-171.51" font-family="Helvetica,sans-Serif" font-size="14.00"> </text>
<text text-anchor="start" x="3398.09" y="-157.51" font-family="Helvetica,sans-Serif" font-size="14.00"> error: 0.056, n=625 </text>
<text text-anchor="start" x="3396.59" y="-143.51" font-family="Helvetica,sans-Serif" font-size="14.00"> p: (0.00, 0.01, 0.99) </text>
</g>
<!-- 23&#45;&gt;27 -->
<g id="edge25" class="edge">
<title>23:s&#45;&gt;27:n</title>
<path fill="none" stroke="black" d="M3198.09,-250.71C3198.09,-250.71 3412.58,-209.22 3462.01,-199.66"/>
<polygon fill="black" stroke="black" points="3462.93,-203.05 3472.09,-197.71 3461.6,-196.17 3462.93,-203.05"/>
<text text-anchor="middle" x="3381.09" y="-221.51" font-family="Helvetica,sans-Serif" font-size="14.00">&gt; 2</text>
</g>
<!-- 18 -->
<g id="node21" class="node">
<title>18</title>
<ellipse fill="#3d76cc" stroke="black" cx="1966.09" cy="-35.36" rx="118.17" ry="35.21"/>
<text text-anchor="start" x="1927.09" y="-46.16" font-family="Helvetica,sans-Serif" font-weight="bold" font-size="14.00"> Class=B </text>
<text text-anchor="start" x="2000.09" y="-46.16" font-family="Helvetica,sans-Serif" font-size="14.00"> </text>
<text text-anchor="start" x="1892.09" y="-32.16" font-family="Helvetica,sans-Serif" font-size="14.00"> error: 0.997, n=625 </text>
<text text-anchor="start" x="1890.59" y="-18.16" font-family="Helvetica,sans-Serif" font-size="14.00"> p: (0.38, 0.31, 0.31) </text>
</g>
<!-- 17&#45;&gt;18 -->
<g id="edge20" class="edge">
<title>17:s&#45;&gt;18:n</title>
<path fill="none" stroke="black" d="M2274.09,-121.71C2274.09,-121.71 2028.7,-81.08 1975.99,-72.35"/>
<polygon fill="black" stroke="black" points="1976.52,-68.89 1966.09,-70.71 1975.38,-75.8 1976.52,-68.89"/>
<text text-anchor="middle" x="2176.09" y="-92.51" font-family="Helvetica,sans-Serif" font-size="14.00">&lt;= 2</text>
</g>
<!-- 19 -->
<g id="node22" class="node">
<title>19</title>
<ellipse fill="#3d76cc" stroke="black" cx="2274.09" cy="-35.36" rx="118.17" ry="35.21"/>
<text text-anchor="start" x="2235.09" y="-46.16" font-family="Helvetica,sans-Serif" font-weight="bold" font-size="14.00"> Class=R </text>
<text text-anchor="start" x="2308.09" y="-46.16" font-family="Helvetica,sans-Serif" font-size="14.00"> </text>
<text text-anchor="start" x="2200.09" y="-32.16" font-family="Helvetica,sans-Serif" font-size="14.00"> error: 0.314, n=625 </text>
<text text-anchor="start" x="2198.59" y="-18.16" font-family="Helvetica,sans-Serif" font-size="14.00"> p: (0.04, 0.04, 0.92) </text>
</g>
<!-- 17&#45;&gt;19 -->
<g id="edge21" class="edge">
<title>17:s&#45;&gt;19:n</title>
<path fill="none" stroke="black" d="M2274.09,-121.71C2274.09,-121.71 2274.09,-95.93 2274.09,-81.03"/>
<polygon fill="black" stroke="black" points="2277.59,-80.71 2274.09,-70.71 2270.59,-80.71 2277.59,-80.71"/>
<text text-anchor="middle" x="2287.09" y="-92.51" font-family="Helvetica,sans-Serif" font-size="14.00">&gt; 2</text>
</g>
<!-- 21 -->
<g id="node23" class="node">
<title>21</title>
<ellipse fill="#3d76cc" stroke="black" cx="2582.09" cy="-35.36" rx="118.17" ry="35.21"/>
<text text-anchor="start" x="2543.59" y="-46.16" font-family="Helvetica,sans-Serif" font-weight="bold" font-size="14.00"> Class=L </text>
<text text-anchor="start" x="2615.59" y="-46.16" font-family="Helvetica,sans-Serif" font-size="14.00"> </text>
<text text-anchor="start" x="2508.09" y="-32.16" font-family="Helvetica,sans-Serif" font-size="14.00"> error: 0.314, n=625 </text>
<text text-anchor="start" x="2506.59" y="-18.16" font-family="Helvetica,sans-Serif" font-size="14.00"> p: (0.04, 0.92, 0.04) </text>
</g>
<!-- 20&#45;&gt;21 -->
<g id="edge22" class="edge">
<title>20:s&#45;&gt;21:n</title>
<path fill="none" stroke="black" d="M2582.09,-121.71C2582.09,-121.71 2582.09,-95.93 2582.09,-81.03"/>
<polygon fill="black" stroke="black" points="2585.59,-80.71 2582.09,-70.71 2578.59,-80.71 2585.59,-80.71"/>
<text text-anchor="middle" x="2601.09" y="-92.51" font-family="Helvetica,sans-Serif" font-size="14.00">&lt;= 2</text>
</g>
<!-- 22 -->
<g id="node24" class="node">
<title>22</title>
<ellipse fill="#3d76cc" stroke="black" cx="2890.09" cy="-35.36" rx="118.17" ry="35.21"/>
<text text-anchor="start" x="2851.59" y="-46.16" font-family="Helvetica,sans-Serif" font-weight="bold" font-size="14.00"> Class=L </text>
<text text-anchor="start" x="2923.59" y="-46.16" font-family="Helvetica,sans-Serif" font-size="14.00"> </text>
<text text-anchor="start" x="2816.09" y="-32.16" font-family="Helvetica,sans-Serif" font-size="14.00"> error: 0.936, n=625 </text>
<text text-anchor="start" x="2814.59" y="-18.16" font-family="Helvetica,sans-Serif" font-size="14.00"> p: (0.17, 0.42, 0.42) </text>
</g>
<!-- 20&#45;&gt;22 -->
<g id="edge23" class="edge">
<title>20:s&#45;&gt;22:n</title>
<path fill="none" stroke="black" d="M2582.09,-121.71C2582.09,-121.71 2827.47,-81.08 2880.19,-72.35"/>
<polygon fill="black" stroke="black" points="2880.79,-75.8 2890.09,-70.71 2879.65,-68.89 2880.79,-75.8"/>
<text text-anchor="middle" x="2786.09" y="-92.51" font-family="Helvetica,sans-Serif" font-size="14.00">&gt; 2</text>
</g>
<!-- 25 -->
<g id="node27" class="node">
<title>25</title>
<ellipse fill="#3d76cc" stroke="black" cx="3198.09" cy="-35.36" rx="118.17" ry="35.21"/>
<text text-anchor="start" x="3159.09" y="-46.16" font-family="Helvetica,sans-Serif" font-weight="bold" font-size="14.00"> Class=R </text>
<text text-anchor="start" x="3232.09" y="-46.16" font-family="Helvetica,sans-Serif" font-size="14.00"> </text>
<text text-anchor="start" x="3124.09" y="-32.16" font-family="Helvetica,sans-Serif" font-size="14.00"> error: 0.314, n=625 </text>
<text text-anchor="start" x="3122.59" y="-18.16" font-family="Helvetica,sans-Serif" font-size="14.00"> p: (0.04, 0.04, 0.92) </text>
</g>
<!-- 24&#45;&gt;25 -->
<g id="edge26" class="edge">
<title>24:s&#45;&gt;25:n</title>
<path fill="none" stroke="black" d="M3198.09,-121.71C3198.09,-121.71 3198.09,-95.93 3198.09,-81.03"/>
<polygon fill="black" stroke="black" points="3201.59,-80.71 3198.09,-70.71 3194.59,-80.71 3201.59,-80.71"/>
<text text-anchor="middle" x="3217.09" y="-92.51" font-family="Helvetica,sans-Serif" font-size="14.00">&lt;= 2</text>
</g>
<!-- 26 -->
<g id="node28" class="node">
<title>26</title>
<ellipse fill="#3d76cc" stroke="black" cx="3506.09" cy="-35.36" rx="118.17" ry="35.21"/>
<text text-anchor="start" x="3467.59" y="-46.16" font-family="Helvetica,sans-Serif" font-weight="bold" font-size="14.00"> Class=L </text>
<text text-anchor="start" x="3539.59" y="-46.16" font-family="Helvetica,sans-Serif" font-size="14.00"> </text>
<text text-anchor="start" x="3432.09" y="-32.16" font-family="Helvetica,sans-Serif" font-size="14.00"> error: 0.936, n=625 </text>
<text text-anchor="start" x="3430.59" y="-18.16" font-family="Helvetica,sans-Serif" font-size="14.00"> p: (0.17, 0.42, 0.42) </text>
</g>
<!-- 24&#45;&gt;26 -->
<g id="edge27" class="edge">
<title>24:s&#45;&gt;26:n</title>
<path fill="none" stroke="black" d="M3198.09,-121.71C3198.09,-121.71 3443.47,-81.08 3496.19,-72.35"/>
<polygon fill="black" stroke="black" points="3496.79,-75.8 3506.09,-70.71 3495.65,-68.89 3496.79,-75.8"/>
<text text-anchor="middle" x="3402.09" y="-92.51" font-family="Helvetica,sans-Serif" font-size="14.00">&gt; 2</text>
</g>
</g>
</svg>
