<?xml version="1.0" encoding="UTF-8" standalone="no"?>
<!DOCTYPE svg PUBLIC "-//W3C//DTD SVG 1.1//EN"
 "http://www.w3.org/Graphics/SVG/1.1/DTD/svg11.dtd">
<!-- Generated by graphviz version 2.43.0 (0)
 -->
<!-- Title: Tree Pages: 1 -->
<svg width="2356pt" height="696pt"
 viewBox="0.00 0.00 2355.66 695.71" xmlns="http://www.w3.org/2000/svg" xmlns:xlink="http://www.w3.org/1999/xlink">
<g id="graph0" class="graph" transform="scale(1 1) rotate(0) translate(18 677.71)">
<title>Tree</title>
<polygon fill="white" stroke="transparent" points="-18,18 -18,-677.71 2337.66,-677.71 2337.66,18 -18,18"/>
<!-- 0 -->
<g id="node1" class="node">
<title>0</title>
<polygon fill="white" stroke="transparent" points="1088.33,-659.71 1034.33,-659.71 1034.33,-623.71 1088.33,-623.71 1088.33,-659.71"/>
<text text-anchor="middle" x="1061.33" y="-638.01" font-family="Helvetica,sans-Serif" font-size="14.00">0</text>
</g>
<!-- 1 -->
<g id="node2" class="node">
<title>1</title>
<polygon fill="#cc3d3d" stroke="black" points="1147.83,-586.71 974.83,-586.71 974.83,-508.71 1147.83,-508.71 1147.83,-586.71"/>
<text text-anchor="start" x="1022.33" y="-572.51" font-family="Helvetica,sans-Serif" font-weight="bold" font-size="14.00"> Class=1 </text>
<text text-anchor="start" x="1095.33" y="-572.51" font-family="Helvetica,sans-Serif" font-size="14.00"> </text>
<text text-anchor="start" x="982.83" y="-558.51" font-family="Helvetica,sans-Serif" font-size="14.00"> error: 0.991, n=1372 </text>
<text text-anchor="start" x="1006.33" y="-544.51" font-family="Helvetica,sans-Serif" font-size="14.00"> p: (0.56, 0.44) </text>
<text text-anchor="start" x="1055.83" y="-530.51" font-family="Helvetica,sans-Serif" font-size="14.00">&#45;&#45;</text>
<text text-anchor="start" x="1050.83" y="-516.51" font-family="Helvetica,sans-Serif" font-weight="bold" font-size="14.00">V1</text>
</g>
<!-- 0&#45;&gt;1 -->
<!-- 2 -->
<g id="node3" class="node">
<title>2</title>
<polygon fill="#e5d544" stroke="black" points="916.83,-457.71 743.83,-457.71 743.83,-379.71 916.83,-379.71 916.83,-457.71"/>
<text text-anchor="start" x="791.33" y="-443.51" font-family="Helvetica,sans-Serif" font-weight="bold" font-size="14.00"> Class=1 </text>
<text text-anchor="start" x="864.33" y="-443.51" font-family="Helvetica,sans-Serif" font-size="14.00"> </text>
<text text-anchor="start" x="751.83" y="-429.51" font-family="Helvetica,sans-Serif" font-size="14.00"> error: 0.459, n=1372 </text>
<text text-anchor="start" x="775.33" y="-415.51" font-family="Helvetica,sans-Serif" font-size="14.00"> p: (0.90, 0.10) </text>
<text text-anchor="start" x="824.83" y="-401.51" font-family="Helvetica,sans-Serif" font-size="14.00">&#45;&#45;</text>
<text text-anchor="start" x="819.83" y="-387.51" font-family="Helvetica,sans-Serif" font-weight="bold" font-size="14.00">V1</text>
</g>
<!-- 1&#45;&gt;2 -->
<g id="edge2" class="edge">
<title>1:s&#45;&gt;2:n</title>
<path fill="none" stroke="black" d="M1061.33,-508.71C1061.33,-508.71 884.47,-469.66 840.26,-459.9"/>
<polygon fill="black" stroke="black" points="840.85,-456.45 830.33,-457.71 839.34,-463.28 840.85,-456.45"/>
<text text-anchor="middle" x="1002.33" y="-479.51" font-family="Helvetica,sans-Serif" font-size="14.00">&gt; 0.518</text>
</g>
<!-- 11 -->
<g id="node4" class="node">
<title>11</title>
<polygon fill="#e5d544" stroke="black" points="1476.83,-457.71 1303.83,-457.71 1303.83,-379.71 1476.83,-379.71 1476.83,-457.71"/>
<text text-anchor="start" x="1351.33" y="-443.51" font-family="Helvetica,sans-Serif" font-weight="bold" font-size="14.00"> Class=2 </text>
<text text-anchor="start" x="1424.33" y="-443.51" font-family="Helvetica,sans-Serif" font-size="14.00"> </text>
<text text-anchor="start" x="1311.83" y="-429.51" font-family="Helvetica,sans-Serif" font-size="14.00"> error: 0.745, n=1372 </text>
<text text-anchor="start" x="1335.33" y="-415.51" font-family="Helvetica,sans-Serif" font-size="14.00"> p: (0.21, 0.79) </text>
<text text-anchor="start" x="1384.83" y="-401.51" font-family="Helvetica,sans-Serif" font-size="14.00">&#45;&#45;</text>
<text text-anchor="start" x="1379.83" y="-387.51" font-family="Helvetica,sans-Serif" font-weight="bold" font-size="14.00">V2</text>
</g>
<!-- 1&#45;&gt;11 -->
<g id="edge3" class="edge">
<title>1:s&#45;&gt;11:n</title>
<path fill="none" stroke="black" d="M1061.33,-508.71C1061.33,-508.71 1324.59,-467.9 1380.12,-459.29"/>
<polygon fill="black" stroke="black" points="1380.98,-462.7 1390.33,-457.71 1379.91,-455.78 1380.98,-462.7"/>
<text text-anchor="middle" x="1300.33" y="-479.51" font-family="Helvetica,sans-Serif" font-size="14.00">&lt;= 0.518</text>
</g>
<!-- 3 -->
<g id="node5" class="node">
<title>3</title>
<polygon fill="#59cc3d" stroke="black" points="489.83,-328.71 316.83,-328.71 316.83,-250.71 489.83,-250.71 489.83,-328.71"/>
<text text-anchor="start" x="364.33" y="-314.51" font-family="Helvetica,sans-Serif" font-weight="bold" font-size="14.00"> Class=1 </text>
<text text-anchor="start" x="437.33" y="-314.51" font-family="Helvetica,sans-Serif" font-size="14.00"> </text>
<text text-anchor="start" x="324.83" y="-300.51" font-family="Helvetica,sans-Serif" font-size="14.00"> error: 0.898, n=1372 </text>
<text text-anchor="start" x="348.33" y="-286.51" font-family="Helvetica,sans-Serif" font-size="14.00"> p: (0.69, 0.31) </text>
<text text-anchor="start" x="397.83" y="-272.51" font-family="Helvetica,sans-Serif" font-size="14.00">&#45;&#45;</text>
<text text-anchor="start" x="392.83" y="-258.51" font-family="Helvetica,sans-Serif" font-weight="bold" font-size="14.00">V3</text>
</g>
<!-- 2&#45;&gt;3 -->
<g id="edge4" class="edge">
<title>2:s&#45;&gt;3:n</title>
<path fill="none" stroke="black" d="M830.33,-379.71C830.33,-379.71 478.13,-337.64 413.46,-329.92"/>
<polygon fill="black" stroke="black" points="413.67,-326.42 403.33,-328.71 412.84,-333.37 413.67,-326.42"/>
<text text-anchor="middle" x="703.33" y="-350.51" font-family="Helvetica,sans-Serif" font-size="14.00">&lt;= 1.602</text>
</g>
<!-- 7 -->
<g id="node6" class="node">
<title>7</title>
<polygon fill="#59cc3d" stroke="black" points="916.83,-328.71 743.83,-328.71 743.83,-250.71 916.83,-250.71 916.83,-328.71"/>
<text text-anchor="start" x="791.33" y="-314.51" font-family="Helvetica,sans-Serif" font-weight="bold" font-size="14.00"> Class=1 </text>
<text text-anchor="start" x="864.33" y="-314.51" font-family="Helvetica,sans-Serif" font-size="14.00"> </text>
<text text-anchor="start" x="751.83" y="-300.51" font-family="Helvetica,sans-Serif" font-size="14.00"> error: 0.141, n=1372 </text>
<text text-anchor="start" x="775.33" y="-286.51" font-family="Helvetica,sans-Serif" font-size="14.00"> p: (0.98, 0.02) </text>
<text text-anchor="start" x="824.83" y="-272.51" font-family="Helvetica,sans-Serif" font-size="14.00">&#45;&#45;</text>
<text text-anchor="start" x="819.83" y="-258.51" font-family="Helvetica,sans-Serif" font-weight="bold" font-size="14.00">V1</text>
</g>
<!-- 2&#45;&gt;7 -->
<g id="edge5" class="edge">
<title>2:s&#45;&gt;7:n</title>
<path fill="none" stroke="black" d="M830.33,-379.71C830.33,-379.71 830.33,-353.93 830.33,-339.03"/>
<polygon fill="black" stroke="black" points="833.83,-338.71 830.33,-328.71 826.83,-338.71 833.83,-338.71"/>
<text text-anchor="middle" x="859.33" y="-350.51" font-family="Helvetica,sans-Serif" font-size="14.00">&gt; 1.602</text>
</g>
<!-- 12 -->
<g id="node13" class="node">
<title>12</title>
<polygon fill="#59cc3d" stroke="black" points="1476.83,-328.71 1303.83,-328.71 1303.83,-250.71 1476.83,-250.71 1476.83,-328.71"/>
<text text-anchor="start" x="1351.33" y="-314.51" font-family="Helvetica,sans-Serif" font-weight="bold" font-size="14.00"> Class=2 </text>
<text text-anchor="start" x="1424.33" y="-314.51" font-family="Helvetica,sans-Serif" font-size="14.00"> </text>
<text text-anchor="start" x="1311.83" y="-300.51" font-family="Helvetica,sans-Serif" font-size="14.00"> error: 0.389, n=1372 </text>
<text text-anchor="start" x="1335.33" y="-286.51" font-family="Helvetica,sans-Serif" font-size="14.00"> p: (0.08, 0.92) </text>
<text text-anchor="start" x="1384.83" y="-272.51" font-family="Helvetica,sans-Serif" font-size="14.00">&#45;&#45;</text>
<text text-anchor="start" x="1379.83" y="-258.51" font-family="Helvetica,sans-Serif" font-weight="bold" font-size="14.00">V1</text>
</g>
<!-- 11&#45;&gt;12 -->
<g id="edge12" class="edge">
<title>11:s&#45;&gt;12:n</title>
<path fill="none" stroke="black" d="M1390.33,-379.71C1390.33,-379.71 1390.33,-353.93 1390.33,-339.03"/>
<polygon fill="black" stroke="black" points="1393.83,-338.71 1390.33,-328.71 1386.83,-338.71 1393.83,-338.71"/>
<text text-anchor="middle" x="1425.33" y="-350.51" font-family="Helvetica,sans-Serif" font-size="14.00">&lt;= 3.667</text>
</g>
<!-- 17 -->
<g id="node14" class="node">
<title>17</title>
<polygon fill="#59cc3d" stroke="black" points="1966.83,-328.71 1793.83,-328.71 1793.83,-250.71 1966.83,-250.71 1966.83,-328.71"/>
<text text-anchor="start" x="1841.33" y="-314.51" font-family="Helvetica,sans-Serif" font-weight="bold" font-size="14.00"> Class=1 </text>
<text text-anchor="start" x="1914.33" y="-314.51" font-family="Helvetica,sans-Serif" font-size="14.00"> </text>
<text text-anchor="start" x="1801.83" y="-300.51" font-family="Helvetica,sans-Serif" font-size="14.00"> error: 0.970, n=1372 </text>
<text text-anchor="start" x="1825.33" y="-286.51" font-family="Helvetica,sans-Serif" font-size="14.00"> p: (0.60, 0.40) </text>
<text text-anchor="start" x="1874.83" y="-272.51" font-family="Helvetica,sans-Serif" font-size="14.00">&#45;&#45;</text>
<text text-anchor="start" x="1869.83" y="-258.51" font-family="Helvetica,sans-Serif" font-weight="bold" font-size="14.00">V1</text>
</g>
<!-- 11&#45;&gt;17 -->
<g id="edge13" class="edge">
<title>11:s&#45;&gt;17:n</title>
<path fill="none" stroke="black" d="M1390.33,-379.71C1390.33,-379.71 1799.73,-337.1 1870.1,-329.78"/>
<polygon fill="black" stroke="black" points="1870.75,-333.23 1880.33,-328.71 1870.02,-326.26 1870.75,-333.23"/>
<text text-anchor="middle" x="1723.33" y="-350.51" font-family="Helvetica,sans-Serif" font-size="14.00">&gt; 3.667</text>
</g>
<!-- 4 -->
<g id="node7" class="node">
<title>4</title>
<ellipse fill="#44e5b5" stroke="black" cx="122.33" cy="-160.71" rx="122.16" ry="35.21"/>
<text text-anchor="start" x="83.33" y="-171.51" font-family="Helvetica,sans-Serif" font-weight="bold" font-size="14.00"> Class=2 </text>
<text text-anchor="start" x="156.33" y="-171.51" font-family="Helvetica,sans-Serif" font-size="14.00"> </text>
<text text-anchor="start" x="43.83" y="-157.51" font-family="Helvetica,sans-Serif" font-size="14.00"> error: 0.271, n=1372 </text>
<text text-anchor="start" x="67.33" y="-143.51" font-family="Helvetica,sans-Serif" font-size="14.00"> p: (0.05, 0.95) </text>
</g>
<!-- 3&#45;&gt;4 -->
<g id="edge6" class="edge">
<title>3:s&#45;&gt;4:n</title>
<path fill="none" stroke="black" d="M403.33,-250.71C403.33,-250.71 182.39,-209.04 132.33,-199.6"/>
<polygon fill="black" stroke="black" points="132.8,-196.12 122.33,-197.71 131.51,-203 132.8,-196.12"/>
<text text-anchor="middle" x="342.83" y="-221.51" font-family="Helvetica,sans-Serif" font-size="14.00">&lt;= &#45;2.471</text>
</g>
<!-- 5 -->
<g id="node8" class="node">
<title>5</title>
<polygon fill="#44e5b5" stroke="black" points="489.83,-199.71 316.83,-199.71 316.83,-121.71 489.83,-121.71 489.83,-199.71"/>
<text text-anchor="start" x="364.33" y="-185.51" font-family="Helvetica,sans-Serif" font-weight="bold" font-size="14.00"> Class=1 </text>
<text text-anchor="start" x="437.33" y="-185.51" font-family="Helvetica,sans-Serif" font-size="14.00"> </text>
<text text-anchor="start" x="324.83" y="-171.51" font-family="Helvetica,sans-Serif" font-size="14.00"> error: 0.503, n=1372 </text>
<text text-anchor="start" x="348.33" y="-157.51" font-family="Helvetica,sans-Serif" font-size="14.00"> p: (0.89, 0.11) </text>
<text text-anchor="start" x="397.83" y="-143.51" font-family="Helvetica,sans-Serif" font-size="14.00">&#45;&#45;</text>
<text text-anchor="start" x="392.83" y="-129.51" font-family="Helvetica,sans-Serif" font-weight="bold" font-size="14.00">V4</text>
</g>
<!-- 3&#45;&gt;5 -->
<g id="edge7" class="edge">
<title>3:s&#45;&gt;5:n</title>
<path fill="none" stroke="black" d="M403.33,-250.71C403.33,-250.71 403.33,-224.93 403.33,-210.03"/>
<polygon fill="black" stroke="black" points="406.83,-209.71 403.33,-199.71 399.83,-209.71 406.83,-209.71"/>
<text text-anchor="middle" x="434.83" y="-221.51" font-family="Helvetica,sans-Serif" font-size="14.00">&gt; &#45;2.471</text>
</g>
<!-- 8 -->
<g id="node10" class="node">
<title>8</title>
<polygon fill="#44e5b5" stroke="black" points="770.83,-199.71 597.83,-199.71 597.83,-121.71 770.83,-121.71 770.83,-199.71"/>
<text text-anchor="start" x="645.33" y="-185.51" font-family="Helvetica,sans-Serif" font-weight="bold" font-size="14.00"> Class=1 </text>
<text text-anchor="start" x="718.33" y="-185.51" font-family="Helvetica,sans-Serif" font-size="14.00"> </text>
<text text-anchor="start" x="605.83" y="-171.51" font-family="Helvetica,sans-Serif" font-size="14.00"> error: 0.398, n=1372 </text>
<text text-anchor="start" x="629.33" y="-157.51" font-family="Helvetica,sans-Serif" font-size="14.00"> p: (0.92, 0.08) </text>
<text text-anchor="start" x="678.83" y="-143.51" font-family="Helvetica,sans-Serif" font-size="14.00">&#45;&#45;</text>
<text text-anchor="start" x="673.83" y="-129.51" font-family="Helvetica,sans-Serif" font-weight="bold" font-size="14.00">V3</text>
</g>
<!-- 7&#45;&gt;8 -->
<g id="edge9" class="edge">
<title>7:s&#45;&gt;8:n</title>
<path fill="none" stroke="black" d="M830.33,-250.71C830.33,-250.71 726.39,-214.4 693.91,-203.06"/>
<polygon fill="black" stroke="black" points="694.92,-199.7 684.33,-199.71 692.62,-206.31 694.92,-199.7"/>
<text text-anchor="middle" x="810.33" y="-221.51" font-family="Helvetica,sans-Serif" font-size="14.00">&lt;= 2.563</text>
</g>
<!-- 10 -->
<g id="node11" class="node">
<title>10</title>
<ellipse fill="#44e5b5" stroke="black" cx="965.33" cy="-160.71" rx="122.16" ry="35.21"/>
<text text-anchor="start" x="926.33" y="-171.51" font-family="Helvetica,sans-Serif" font-weight="bold" font-size="14.00"> Class=1 </text>
<text text-anchor="start" x="999.33" y="-171.51" font-family="Helvetica,sans-Serif" font-size="14.00"> </text>
<text text-anchor="start" x="886.83" y="-157.51" font-family="Helvetica,sans-Serif" font-size="14.00"> error: 0.000, n=1372 </text>
<text text-anchor="start" x="910.33" y="-143.51" font-family="Helvetica,sans-Serif" font-size="14.00"> p: (1.00, 0.00) </text>
</g>
<!-- 7&#45;&gt;10 -->
<g id="edge10" class="edge">
<title>7:s&#45;&gt;10:n</title>
<path fill="none" stroke="black" d="M830.33,-250.71C830.33,-250.71 924.67,-213.67 955.62,-201.52"/>
<polygon fill="black" stroke="black" points="957.3,-204.62 965.33,-197.71 954.74,-198.11 957.3,-204.62"/>
<text text-anchor="middle" x="943.33" y="-221.51" font-family="Helvetica,sans-Serif" font-size="14.00">&gt; 2.563</text>
</g>
<!-- 6 -->
<g id="node9" class="node">
<title>6</title>
<ellipse fill="#3d76cc" stroke="black" cx="385.33" cy="-35.36" rx="122.16" ry="35.21"/>
<text text-anchor="start" x="346.33" y="-46.16" font-family="Helvetica,sans-Serif" font-weight="bold" font-size="14.00"> Class=1 </text>
<text text-anchor="start" x="419.33" y="-46.16" font-family="Helvetica,sans-Serif" font-size="14.00"> </text>
<text text-anchor="start" x="306.83" y="-32.16" font-family="Helvetica,sans-Serif" font-size="14.00"> error: 0.137, n=1372 </text>
<text text-anchor="start" x="330.33" y="-18.16" font-family="Helvetica,sans-Serif" font-size="14.00"> p: (0.98, 0.02) </text>
</g>
<!-- 5&#45;&gt;6 -->
<g id="edge8" class="edge">
<title>5:s&#45;&gt;6:n</title>
<path fill="none" stroke="black" d="M403.33,-121.71C403.33,-121.71 394.03,-95.36 388.8,-80.54"/>
<polygon fill="black" stroke="black" points="391.96,-78.98 385.33,-70.71 385.36,-81.31 391.96,-78.98"/>
<text text-anchor="middle" x="436.83" y="-92.51" font-family="Helvetica,sans-Serif" font-size="14.00">&lt;= 0.0974</text>
</g>
<!-- 9 -->
<g id="node12" class="node">
<title>9</title>
<ellipse fill="#3d76cc" stroke="black" cx="702.33" cy="-35.36" rx="122.16" ry="35.21"/>
<text text-anchor="start" x="663.33" y="-46.16" font-family="Helvetica,sans-Serif" font-weight="bold" font-size="14.00"> Class=1 </text>
<text text-anchor="start" x="736.33" y="-46.16" font-family="Helvetica,sans-Serif" font-size="14.00"> </text>
<text text-anchor="start" x="623.83" y="-32.16" font-family="Helvetica,sans-Serif" font-size="14.00"> error: 0.000, n=1372 </text>
<text text-anchor="start" x="647.33" y="-18.16" font-family="Helvetica,sans-Serif" font-size="14.00"> p: (1.00, 0.00) </text>
</g>
<!-- 8&#45;&gt;9 -->
<g id="edge11" class="edge">
<title>8:s&#45;&gt;9:n</title>
<path fill="none" stroke="black" d="M684.33,-121.71C684.33,-121.71 693.63,-95.36 698.86,-80.54"/>
<polygon fill="black" stroke="black" points="702.3,-81.31 702.33,-70.71 695.7,-78.98 702.3,-81.31"/>
<text text-anchor="middle" x="732.33" y="-92.51" font-family="Helvetica,sans-Serif" font-size="14.00">&gt; &#45;0.8074</text>
</g>
<!-- 13 -->
<g id="node15" class="node">
<title>13</title>
<ellipse fill="#44e5b5" stroke="black" cx="1282.33" cy="-160.71" rx="122.16" ry="35.21"/>
<text text-anchor="start" x="1243.33" y="-171.51" font-family="Helvetica,sans-Serif" font-weight="bold" font-size="14.00"> Class=2 </text>
<text text-anchor="start" x="1316.33" y="-171.51" font-family="Helvetica,sans-Serif" font-size="14.00"> </text>
<text text-anchor="start" x="1203.83" y="-157.51" font-family="Helvetica,sans-Serif" font-size="14.00"> error: 0.067, n=1372 </text>
<text text-anchor="start" x="1227.33" y="-143.51" font-family="Helvetica,sans-Serif" font-size="14.00"> p: (0.01, 0.99) </text>
</g>
<!-- 12&#45;&gt;13 -->
<g id="edge14" class="edge">
<title>12:s&#45;&gt;13:n</title>
<path fill="none" stroke="black" d="M1390.33,-250.71C1390.33,-250.71 1317.65,-215.05 1291.54,-202.23"/>
<polygon fill="black" stroke="black" points="1292.85,-198.97 1282.33,-197.71 1289.76,-205.26 1292.85,-198.97"/>
<text text-anchor="middle" x="1371.83" y="-221.51" font-family="Helvetica,sans-Serif" font-size="14.00">&lt;= &#45;1.749</text>
</g>
<!-- 14 -->
<g id="node16" class="node">
<title>14</title>
<polygon fill="#44e5b5" stroke="black" points="1649.83,-199.71 1476.83,-199.71 1476.83,-121.71 1649.83,-121.71 1649.83,-199.71"/>
<text text-anchor="start" x="1524.33" y="-185.51" font-family="Helvetica,sans-Serif" font-weight="bold" font-size="14.00"> Class=2 </text>
<text text-anchor="start" x="1597.33" y="-185.51" font-family="Helvetica,sans-Serif" font-size="14.00"> </text>
<text text-anchor="start" x="1484.83" y="-171.51" font-family="Helvetica,sans-Serif" font-size="14.00"> error: 0.590, n=1372 </text>
<text text-anchor="start" x="1508.33" y="-157.51" font-family="Helvetica,sans-Serif" font-size="14.00"> p: (0.14, 0.86) </text>
<text text-anchor="start" x="1557.83" y="-143.51" font-family="Helvetica,sans-Serif" font-size="14.00">&#45;&#45;</text>
<text text-anchor="start" x="1552.83" y="-129.51" font-family="Helvetica,sans-Serif" font-weight="bold" font-size="14.00">V3</text>
</g>
<!-- 12&#45;&gt;14 -->
<g id="edge15" class="edge">
<title>12:s&#45;&gt;14:n</title>
<path fill="none" stroke="black" d="M1390.33,-250.71C1390.33,-250.71 1516.94,-213.39 1553.53,-202.6"/>
<polygon fill="black" stroke="black" points="1554.73,-205.9 1563.33,-199.71 1552.75,-199.18 1554.73,-205.9"/>
<text text-anchor="middle" x="1529.83" y="-221.51" font-family="Helvetica,sans-Serif" font-size="14.00">&gt; &#45;1.749</text>
</g>
<!-- 18 -->
<g id="node19" class="node">
<title>18</title>
<polygon fill="#44e5b5" stroke="black" points="1966.83,-199.71 1793.83,-199.71 1793.83,-121.71 1966.83,-121.71 1966.83,-199.71"/>
<text text-anchor="start" x="1841.33" y="-185.51" font-family="Helvetica,sans-Serif" font-weight="bold" font-size="14.00"> Class=2 </text>
<text text-anchor="start" x="1914.33" y="-185.51" font-family="Helvetica,sans-Serif" font-size="14.00"> </text>
<text text-anchor="start" x="1801.83" y="-171.51" font-family="Helvetica,sans-Serif" font-size="14.00"> error: 0.816, n=1372 </text>
<text text-anchor="start" x="1825.33" y="-157.51" font-family="Helvetica,sans-Serif" font-size="14.00"> p: (0.25, 0.75) </text>
<text text-anchor="start" x="1874.83" y="-143.51" font-family="Helvetica,sans-Serif" font-size="14.00">&#45;&#45;</text>
<text text-anchor="start" x="1869.83" y="-129.51" font-family="Helvetica,sans-Serif" font-weight="bold" font-size="14.00">V2</text>
</g>
<!-- 17&#45;&gt;18 -->
<g id="edge18" class="edge">
<title>17:s&#45;&gt;18:n</title>
<path fill="none" stroke="black" d="M1880.33,-250.71C1880.33,-250.71 1880.33,-224.93 1880.33,-210.03"/>
<polygon fill="black" stroke="black" points="1883.83,-209.71 1880.33,-199.71 1876.83,-209.71 1883.83,-209.71"/>
<text text-anchor="middle" x="1917.83" y="-221.51" font-family="Helvetica,sans-Serif" font-size="14.00">&lt;= &#45;2.015</text>
</g>
<!-- 20 -->
<g id="node20" class="node">
<title>20</title>
<polygon fill="#44e5b5" stroke="black" points="2247.83,-199.71 2074.83,-199.71 2074.83,-121.71 2247.83,-121.71 2247.83,-199.71"/>
<text text-anchor="start" x="2122.33" y="-185.51" font-family="Helvetica,sans-Serif" font-weight="bold" font-size="14.00"> Class=1 </text>
<text text-anchor="start" x="2195.33" y="-185.51" font-family="Helvetica,sans-Serif" font-size="14.00"> </text>
<text text-anchor="start" x="2082.83" y="-171.51" font-family="Helvetica,sans-Serif" font-size="14.00"> error: 0.351, n=1372 </text>
<text text-anchor="start" x="2106.33" y="-157.51" font-family="Helvetica,sans-Serif" font-size="14.00"> p: (0.93, 0.07) </text>
<text text-anchor="start" x="2155.83" y="-143.51" font-family="Helvetica,sans-Serif" font-size="14.00">&#45;&#45;</text>
<text text-anchor="start" x="2150.83" y="-129.51" font-family="Helvetica,sans-Serif" font-weight="bold" font-size="14.00">V2</text>
</g>
<!-- 17&#45;&gt;20 -->
<g id="edge19" class="edge">
<title>17:s&#45;&gt;20:n</title>
<path fill="none" stroke="black" d="M1880.33,-250.71C1880.33,-250.71 2101.27,-210.61 2151.33,-201.53"/>
<polygon fill="black" stroke="black" points="2152.12,-204.94 2161.33,-199.71 2150.87,-198.05 2152.12,-204.94"/>
<text text-anchor="middle" x="2085.83" y="-221.51" font-family="Helvetica,sans-Serif" font-size="14.00">&gt; &#45;2.015</text>
</g>
<!-- 15 -->
<g id="node17" class="node">
<title>15</title>
<ellipse fill="#3d76cc" stroke="black" cx="1246.33" cy="-35.36" rx="122.16" ry="35.21"/>
<text text-anchor="start" x="1207.33" y="-46.16" font-family="Helvetica,sans-Serif" font-weight="bold" font-size="14.00"> Class=2 </text>
<text text-anchor="start" x="1280.33" y="-46.16" font-family="Helvetica,sans-Serif" font-size="14.00"> </text>
<text text-anchor="start" x="1167.83" y="-32.16" font-family="Helvetica,sans-Serif" font-size="14.00"> error: 0.000, n=1372 </text>
<text text-anchor="start" x="1191.33" y="-18.16" font-family="Helvetica,sans-Serif" font-size="14.00"> p: (0.00, 1.00) </text>
</g>
<!-- 14&#45;&gt;15 -->
<g id="edge16" class="edge">
<title>14:s&#45;&gt;15:n</title>
<path fill="none" stroke="black" d="M1563.33,-121.71C1563.33,-121.71 1310.78,-81.08 1256.52,-72.35"/>
<polygon fill="black" stroke="black" points="1256.76,-68.84 1246.33,-70.71 1255.65,-75.75 1256.76,-68.84"/>
<text text-anchor="middle" x="1485.33" y="-92.51" font-family="Helvetica,sans-Serif" font-size="14.00">&lt;= &#45;0.0517</text>
</g>
<!-- 16 -->
<g id="node18" class="node">
<title>16</title>
<ellipse fill="#3d76cc" stroke="black" cx="1563.33" cy="-35.36" rx="122.16" ry="35.21"/>
<text text-anchor="start" x="1524.33" y="-46.16" font-family="Helvetica,sans-Serif" font-weight="bold" font-size="14.00"> Class=2 </text>
<text text-anchor="start" x="1597.33" y="-46.16" font-family="Helvetica,sans-Serif" font-size="14.00"> </text>
<text text-anchor="start" x="1484.83" y="-32.16" font-family="Helvetica,sans-Serif" font-size="14.00"> error: 0.853, n=1372 </text>
<text text-anchor="start" x="1508.33" y="-18.16" font-family="Helvetica,sans-Serif" font-size="14.00"> p: (0.28, 0.72) </text>
</g>
<!-- 14&#45;&gt;16 -->
<g id="edge17" class="edge">
<title>14:s&#45;&gt;16:n</title>
<path fill="none" stroke="black" d="M1563.33,-121.71C1563.33,-121.71 1563.33,-95.93 1563.33,-81.03"/>
<polygon fill="black" stroke="black" points="1566.83,-80.71 1563.33,-70.71 1559.83,-80.71 1566.83,-80.71"/>
<text text-anchor="middle" x="1599.33" y="-92.51" font-family="Helvetica,sans-Serif" font-size="14.00">&gt; &#45;0.0517</text>
</g>
<!-- 19 -->
<g id="node21" class="node">
<title>19</title>
<ellipse fill="#3d76cc" stroke="black" cx="1880.33" cy="-35.36" rx="122.16" ry="35.21"/>
<text text-anchor="start" x="1841.33" y="-46.16" font-family="Helvetica,sans-Serif" font-weight="bold" font-size="14.00"> Class=2 </text>
<text text-anchor="start" x="1914.33" y="-46.16" font-family="Helvetica,sans-Serif" font-size="14.00"> </text>
<text text-anchor="start" x="1801.83" y="-32.16" font-family="Helvetica,sans-Serif" font-size="14.00"> error: 0.116, n=1372 </text>
<text text-anchor="start" x="1825.33" y="-18.16" font-family="Helvetica,sans-Serif" font-size="14.00"> p: (0.02, 0.98) </text>
</g>
<!-- 18&#45;&gt;19 -->
<g id="edge20" class="edge">
<title>18:s&#45;&gt;19:n</title>
<path fill="none" stroke="black" d="M1880.33,-121.71C1880.33,-121.71 1880.33,-95.93 1880.33,-81.03"/>
<polygon fill="black" stroke="black" points="1883.83,-80.71 1880.33,-70.71 1876.83,-80.71 1883.83,-80.71"/>
<text text-anchor="middle" x="1915.33" y="-92.51" font-family="Helvetica,sans-Serif" font-size="14.00">&lt;= 9.295</text>
</g>
<!-- 21 -->
<g id="node22" class="node">
<title>21</title>
<ellipse fill="#3d76cc" stroke="black" cx="2197.33" cy="-35.36" rx="122.16" ry="35.21"/>
<text text-anchor="start" x="2158.33" y="-46.16" font-family="Helvetica,sans-Serif" font-weight="bold" font-size="14.00"> Class=1 </text>
<text text-anchor="start" x="2231.33" y="-46.16" font-family="Helvetica,sans-Serif" font-size="14.00"> </text>
<text text-anchor="start" x="2118.83" y="-32.16" font-family="Helvetica,sans-Serif" font-size="14.00"> error: 0.000, n=1372 </text>
<text text-anchor="start" x="2142.33" y="-18.16" font-family="Helvetica,sans-Serif" font-size="14.00"> p: (1.00, 0.00) </text>
</g>
<!-- 20&#45;&gt;21 -->
<g id="edge21" class="edge">
<title>20:s&#45;&gt;21:n</title>
<path fill="none" stroke="black" d="M2161.33,-121.71C2161.33,-121.71 2181.16,-93.62 2191.38,-79.13"/>
<polygon fill="black" stroke="black" points="2194.42,-80.9 2197.33,-70.71 2188.7,-76.86 2194.42,-80.9"/>
<text text-anchor="middle" x="2213.33" y="-92.51" font-family="Helvetica,sans-Serif" font-size="14.00">&gt; 6.874</text>
</g>
</g>
</svg>
