<?xml version="1.0" encoding="UTF-8" standalone="no"?>
<!DOCTYPE svg PUBLIC "-//W3C//DTD SVG 1.1//EN"
 "http://www.w3.org/Graphics/SVG/1.1/DTD/svg11.dtd">
<!-- Generated by graphviz version 2.43.0 (0)
 -->
<!-- Title: Tree Pages: 1 -->
<svg width="2093pt" height="696pt"
 viewBox="0.00 0.00 2092.66 695.71" xmlns="http://www.w3.org/2000/svg" xmlns:xlink="http://www.w3.org/1999/xlink">
<g id="graph0" class="graph" transform="scale(1 1) rotate(0) translate(18 677.71)">
<title>Tree</title>
<polygon fill="white" stroke="transparent" points="-18,18 -18,-677.71 2074.66,-677.71 2074.66,18 -18,18"/>
<!-- 0 -->
<g id="node1" class="node">
<title>0</title>
<polygon fill="white" stroke="transparent" points="817.33,-659.71 763.33,-659.71 763.33,-623.71 817.33,-623.71 817.33,-659.71"/>
<text text-anchor="middle" x="790.33" y="-638.01" font-family="Helvetica,sans-Serif" font-size="14.00">0</text>
</g>
<!-- 1 -->
<g id="node2" class="node">
<title>1</title>
<polygon fill="#cc3d3d" stroke="black" points="876.83,-586.71 703.83,-586.71 703.83,-508.71 876.83,-508.71 876.83,-586.71"/>
<text text-anchor="start" x="751.33" y="-572.51" font-family="Helvetica,sans-Serif" font-weight="bold" font-size="14.00"> Class=1 </text>
<text text-anchor="start" x="824.33" y="-572.51" font-family="Helvetica,sans-Serif" font-size="14.00"> </text>
<text text-anchor="start" x="711.83" y="-558.51" font-family="Helvetica,sans-Serif" font-size="14.00"> error: 0.991, n=1372 </text>
<text text-anchor="start" x="735.33" y="-544.51" font-family="Helvetica,sans-Serif" font-size="14.00"> p: (0.56, 0.44) </text>
<text text-anchor="start" x="784.83" y="-530.51" font-family="Helvetica,sans-Serif" font-size="14.00">&#45;&#45;</text>
<text text-anchor="start" x="779.83" y="-516.51" font-family="Helvetica,sans-Serif" font-weight="bold" font-size="14.00">V1</text>
</g>
<!-- 0&#45;&gt;1 -->
<!-- 2 -->
<g id="node3" class="node">
<title>2</title>
<polygon fill="#e5d544" stroke="black" points="718.83,-457.71 545.83,-457.71 545.83,-379.71 718.83,-379.71 718.83,-457.71"/>
<text text-anchor="start" x="593.33" y="-443.51" font-family="Helvetica,sans-Serif" font-weight="bold" font-size="14.00"> Class=1 </text>
<text text-anchor="start" x="666.33" y="-443.51" font-family="Helvetica,sans-Serif" font-size="14.00"> </text>
<text text-anchor="start" x="553.83" y="-429.51" font-family="Helvetica,sans-Serif" font-size="14.00"> error: 0.459, n=1372 </text>
<text text-anchor="start" x="577.33" y="-415.51" font-family="Helvetica,sans-Serif" font-size="14.00"> p: (0.90, 0.10) </text>
<text text-anchor="start" x="626.83" y="-401.51" font-family="Helvetica,sans-Serif" font-size="14.00">&#45;&#45;</text>
<text text-anchor="start" x="621.83" y="-387.51" font-family="Helvetica,sans-Serif" font-weight="bold" font-size="14.00">V1</text>
</g>
<!-- 1&#45;&gt;2 -->
<g id="edge2" class="edge">
<title>1:s&#45;&gt;2:n</title>
<path fill="none" stroke="black" d="M790.33,-508.71C790.33,-508.71 676.8,-472.07 642.21,-460.9"/>
<polygon fill="black" stroke="black" points="642.92,-457.45 632.33,-457.71 640.77,-464.11 642.92,-457.45"/>
<text text-anchor="middle" x="759.33" y="-479.51" font-family="Helvetica,sans-Serif" font-size="14.00">&gt; 0.518</text>
</g>
<!-- 10 -->
<g id="node4" class="node">
<title>10</title>
<polygon fill="#e5d544" stroke="black" points="1218.83,-457.71 1045.83,-457.71 1045.83,-379.71 1218.83,-379.71 1218.83,-457.71"/>
<text text-anchor="start" x="1093.33" y="-443.51" font-family="Helvetica,sans-Serif" font-weight="bold" font-size="14.00"> Class=2 </text>
<text text-anchor="start" x="1166.33" y="-443.51" font-family="Helvetica,sans-Serif" font-size="14.00"> </text>
<text text-anchor="start" x="1053.83" y="-429.51" font-family="Helvetica,sans-Serif" font-size="14.00"> error: 0.745, n=1372 </text>
<text text-anchor="start" x="1077.33" y="-415.51" font-family="Helvetica,sans-Serif" font-size="14.00"> p: (0.21, 0.79) </text>
<text text-anchor="start" x="1126.83" y="-401.51" font-family="Helvetica,sans-Serif" font-size="14.00">&#45;&#45;</text>
<text text-anchor="start" x="1121.83" y="-387.51" font-family="Helvetica,sans-Serif" font-weight="bold" font-size="14.00">V2</text>
</g>
<!-- 1&#45;&gt;10 -->
<g id="edge3" class="edge">
<title>1:s&#45;&gt;10:n</title>
<path fill="none" stroke="black" d="M790.33,-508.71C790.33,-508.71 1065.19,-467.72 1122.09,-459.24"/>
<polygon fill="black" stroke="black" points="1122.96,-462.65 1132.33,-457.71 1121.92,-455.72 1122.96,-462.65"/>
<text text-anchor="middle" x="1037.33" y="-479.51" font-family="Helvetica,sans-Serif" font-size="14.00">&lt;= 0.518</text>
</g>
<!-- 3 -->
<g id="node5" class="node">
<title>3</title>
<polygon fill="#59cc3d" stroke="black" points="385.83,-328.71 212.83,-328.71 212.83,-250.71 385.83,-250.71 385.83,-328.71"/>
<text text-anchor="start" x="260.33" y="-314.51" font-family="Helvetica,sans-Serif" font-weight="bold" font-size="14.00"> Class=1 </text>
<text text-anchor="start" x="333.33" y="-314.51" font-family="Helvetica,sans-Serif" font-size="14.00"> </text>
<text text-anchor="start" x="220.83" y="-300.51" font-family="Helvetica,sans-Serif" font-size="14.00"> error: 0.898, n=1372 </text>
<text text-anchor="start" x="244.33" y="-286.51" font-family="Helvetica,sans-Serif" font-size="14.00"> p: (0.69, 0.31) </text>
<text text-anchor="start" x="293.83" y="-272.51" font-family="Helvetica,sans-Serif" font-size="14.00">&#45;&#45;</text>
<text text-anchor="start" x="288.83" y="-258.51" font-family="Helvetica,sans-Serif" font-weight="bold" font-size="14.00">V3</text>
</g>
<!-- 2&#45;&gt;3 -->
<g id="edge4" class="edge">
<title>2:s&#45;&gt;3:n</title>
<path fill="none" stroke="black" d="M632.33,-379.71C632.33,-379.71 364.7,-338.72 309.3,-330.24"/>
<polygon fill="black" stroke="black" points="309.74,-326.76 299.33,-328.71 308.68,-333.68 309.74,-326.76"/>
<text text-anchor="middle" x="541.33" y="-350.51" font-family="Helvetica,sans-Serif" font-size="14.00">&lt;= 1.602</text>
</g>
<!-- 6 -->
<g id="node6" class="node">
<title>6</title>
<polygon fill="#59cc3d" stroke="black" points="718.83,-328.71 545.83,-328.71 545.83,-250.71 718.83,-250.71 718.83,-328.71"/>
<text text-anchor="start" x="593.33" y="-314.51" font-family="Helvetica,sans-Serif" font-weight="bold" font-size="14.00"> Class=1 </text>
<text text-anchor="start" x="666.33" y="-314.51" font-family="Helvetica,sans-Serif" font-size="14.00"> </text>
<text text-anchor="start" x="553.83" y="-300.51" font-family="Helvetica,sans-Serif" font-size="14.00"> error: 0.141, n=1372 </text>
<text text-anchor="start" x="577.33" y="-286.51" font-family="Helvetica,sans-Serif" font-size="14.00"> p: (0.98, 0.02) </text>
<text text-anchor="start" x="626.83" y="-272.51" font-family="Helvetica,sans-Serif" font-size="14.00">&#45;&#45;</text>
<text text-anchor="start" x="621.83" y="-258.51" font-family="Helvetica,sans-Serif" font-weight="bold" font-size="14.00">V1</text>
</g>
<!-- 2&#45;&gt;6 -->
<g id="edge5" class="edge">
<title>2:s&#45;&gt;6:n</title>
<path fill="none" stroke="black" d="M632.33,-379.71C632.33,-379.71 632.33,-353.93 632.33,-339.03"/>
<polygon fill="black" stroke="black" points="635.83,-338.71 632.33,-328.71 628.83,-338.71 635.83,-338.71"/>
<text text-anchor="middle" x="661.33" y="-350.51" font-family="Helvetica,sans-Serif" font-size="14.00">&gt; 1.602</text>
</g>
<!-- 11 -->
<g id="node12" class="node">
<title>11</title>
<polygon fill="#59cc3d" stroke="black" points="1218.83,-328.71 1045.83,-328.71 1045.83,-250.71 1218.83,-250.71 1218.83,-328.71"/>
<text text-anchor="start" x="1093.33" y="-314.51" font-family="Helvetica,sans-Serif" font-weight="bold" font-size="14.00"> Class=2 </text>
<text text-anchor="start" x="1166.33" y="-314.51" font-family="Helvetica,sans-Serif" font-size="14.00"> </text>
<text text-anchor="start" x="1053.83" y="-300.51" font-family="Helvetica,sans-Serif" font-size="14.00"> error: 0.389, n=1372 </text>
<text text-anchor="start" x="1077.33" y="-286.51" font-family="Helvetica,sans-Serif" font-size="14.00"> p: (0.08, 0.92) </text>
<text text-anchor="start" x="1126.83" y="-272.51" font-family="Helvetica,sans-Serif" font-size="14.00">&#45;&#45;</text>
<text text-anchor="start" x="1121.83" y="-258.51" font-family="Helvetica,sans-Serif" font-weight="bold" font-size="14.00">V1</text>
</g>
<!-- 10&#45;&gt;11 -->
<g id="edge11" class="edge">
<title>10:s&#45;&gt;11:n</title>
<path fill="none" stroke="black" d="M1132.33,-379.71C1132.33,-379.71 1132.33,-353.93 1132.33,-339.03"/>
<polygon fill="black" stroke="black" points="1135.83,-338.71 1132.33,-328.71 1128.83,-338.71 1135.83,-338.71"/>
<text text-anchor="middle" x="1167.33" y="-350.51" font-family="Helvetica,sans-Serif" font-size="14.00">&lt;= 3.667</text>
</g>
<!-- 16 -->
<g id="node13" class="node">
<title>16</title>
<polygon fill="#59cc3d" stroke="black" points="1703.83,-328.71 1530.83,-328.71 1530.83,-250.71 1703.83,-250.71 1703.83,-328.71"/>
<text text-anchor="start" x="1578.33" y="-314.51" font-family="Helvetica,sans-Serif" font-weight="bold" font-size="14.00"> Class=1 </text>
<text text-anchor="start" x="1651.33" y="-314.51" font-family="Helvetica,sans-Serif" font-size="14.00"> </text>
<text text-anchor="start" x="1538.83" y="-300.51" font-family="Helvetica,sans-Serif" font-size="14.00"> error: 0.970, n=1372 </text>
<text text-anchor="start" x="1562.33" y="-286.51" font-family="Helvetica,sans-Serif" font-size="14.00"> p: (0.60, 0.40) </text>
<text text-anchor="start" x="1611.83" y="-272.51" font-family="Helvetica,sans-Serif" font-size="14.00">&#45;&#45;</text>
<text text-anchor="start" x="1606.83" y="-258.51" font-family="Helvetica,sans-Serif" font-weight="bold" font-size="14.00">V1</text>
</g>
<!-- 10&#45;&gt;16 -->
<g id="edge12" class="edge">
<title>10:s&#45;&gt;16:n</title>
<path fill="none" stroke="black" d="M1132.33,-379.71C1132.33,-379.71 1537.55,-337.1 1607.2,-329.78"/>
<polygon fill="black" stroke="black" points="1607.75,-333.24 1617.33,-328.71 1607.02,-326.28 1607.75,-333.24"/>
<text text-anchor="middle" x="1462.33" y="-350.51" font-family="Helvetica,sans-Serif" font-size="14.00">&gt; 3.667</text>
</g>
<!-- 4 -->
<g id="node7" class="node">
<title>4</title>
<polygon fill="#44e5b5" stroke="black" points="244.83,-199.71 71.83,-199.71 71.83,-121.71 244.83,-121.71 244.83,-199.71"/>
<text text-anchor="start" x="119.33" y="-185.51" font-family="Helvetica,sans-Serif" font-weight="bold" font-size="14.00"> Class=1 </text>
<text text-anchor="start" x="192.33" y="-185.51" font-family="Helvetica,sans-Serif" font-size="14.00"> </text>
<text text-anchor="start" x="79.83" y="-171.51" font-family="Helvetica,sans-Serif" font-size="14.00"> error: 0.503, n=1372 </text>
<text text-anchor="start" x="103.33" y="-157.51" font-family="Helvetica,sans-Serif" font-size="14.00"> p: (0.89, 0.11) </text>
<text text-anchor="start" x="152.83" y="-143.51" font-family="Helvetica,sans-Serif" font-size="14.00">&#45;&#45;</text>
<text text-anchor="start" x="147.83" y="-129.51" font-family="Helvetica,sans-Serif" font-weight="bold" font-size="14.00">V4</text>
</g>
<!-- 3&#45;&gt;4 -->
<g id="edge6" class="edge">
<title>3:s&#45;&gt;4:n</title>
<path fill="none" stroke="black" d="M299.33,-250.71C299.33,-250.71 199.88,-214.74 168.02,-203.22"/>
<polygon fill="black" stroke="black" points="168.92,-199.82 158.33,-199.71 166.54,-206.4 168.92,-199.82"/>
<text text-anchor="middle" x="277.83" y="-221.51" font-family="Helvetica,sans-Serif" font-size="14.00">&gt; &#45;2.471</text>
</g>
<!-- 7 -->
<g id="node9" class="node">
<title>7</title>
<polygon fill="#44e5b5" stroke="black" points="507.83,-199.71 334.83,-199.71 334.83,-121.71 507.83,-121.71 507.83,-199.71"/>
<text text-anchor="start" x="382.33" y="-185.51" font-family="Helvetica,sans-Serif" font-weight="bold" font-size="14.00"> Class=1 </text>
<text text-anchor="start" x="455.33" y="-185.51" font-family="Helvetica,sans-Serif" font-size="14.00"> </text>
<text text-anchor="start" x="342.83" y="-171.51" font-family="Helvetica,sans-Serif" font-size="14.00"> error: 0.398, n=1372 </text>
<text text-anchor="start" x="366.33" y="-157.51" font-family="Helvetica,sans-Serif" font-size="14.00"> p: (0.92, 0.08) </text>
<text text-anchor="start" x="415.83" y="-143.51" font-family="Helvetica,sans-Serif" font-size="14.00">&#45;&#45;</text>
<text text-anchor="start" x="410.83" y="-129.51" font-family="Helvetica,sans-Serif" font-weight="bold" font-size="14.00">V3</text>
</g>
<!-- 6&#45;&gt;7 -->
<g id="edge8" class="edge">
<title>6:s&#45;&gt;7:n</title>
<path fill="none" stroke="black" d="M632.33,-250.71C632.33,-250.71 472.94,-212.19 431.22,-202.1"/>
<polygon fill="black" stroke="black" points="431.87,-198.66 421.33,-199.71 430.23,-205.46 431.87,-198.66"/>
<text text-anchor="middle" x="587.33" y="-221.51" font-family="Helvetica,sans-Serif" font-size="14.00">&lt;= 2.563</text>
</g>
<!-- 9 -->
<g id="node10" class="node">
<title>9</title>
<ellipse fill="#44e5b5" stroke="black" cx="702.33" cy="-160.71" rx="122.16" ry="35.21"/>
<text text-anchor="start" x="663.33" y="-171.51" font-family="Helvetica,sans-Serif" font-weight="bold" font-size="14.00"> Class=1 </text>
<text text-anchor="start" x="736.33" y="-171.51" font-family="Helvetica,sans-Serif" font-size="14.00"> </text>
<text text-anchor="start" x="623.83" y="-157.51" font-family="Helvetica,sans-Serif" font-size="14.00"> error: 0.000, n=1372 </text>
<text text-anchor="start" x="647.33" y="-143.51" font-family="Helvetica,sans-Serif" font-size="14.00"> p: (1.00, 0.00) </text>
</g>
<!-- 6&#45;&gt;9 -->
<g id="edge9" class="edge">
<title>6:s&#45;&gt;9:n</title>
<path fill="none" stroke="black" d="M632.33,-250.71C632.33,-250.71 675.91,-217.71 694.3,-203.79"/>
<polygon fill="black" stroke="black" points="696.47,-206.54 702.33,-197.71 692.24,-200.96 696.47,-206.54"/>
<text text-anchor="middle" x="705.33" y="-221.51" font-family="Helvetica,sans-Serif" font-size="14.00">&gt; 2.563</text>
</g>
<!-- 5 -->
<g id="node8" class="node">
<title>5</title>
<ellipse fill="#3d76cc" stroke="black" cx="122.33" cy="-35.36" rx="122.16" ry="35.21"/>
<text text-anchor="start" x="83.33" y="-46.16" font-family="Helvetica,sans-Serif" font-weight="bold" font-size="14.00"> Class=1 </text>
<text text-anchor="start" x="156.33" y="-46.16" font-family="Helvetica,sans-Serif" font-size="14.00"> </text>
<text text-anchor="start" x="43.83" y="-32.16" font-family="Helvetica,sans-Serif" font-size="14.00"> error: 0.137, n=1372 </text>
<text text-anchor="start" x="67.33" y="-18.16" font-family="Helvetica,sans-Serif" font-size="14.00"> p: (0.98, 0.02) </text>
</g>
<!-- 4&#45;&gt;5 -->
<g id="edge7" class="edge">
<title>4:s&#45;&gt;5:n</title>
<path fill="none" stroke="black" d="M158.33,-121.71C158.33,-121.71 138.5,-93.62 128.27,-79.13"/>
<polygon fill="black" stroke="black" points="130.96,-76.86 122.33,-70.71 125.24,-80.9 130.96,-76.86"/>
<text text-anchor="middle" x="184.83" y="-92.51" font-family="Helvetica,sans-Serif" font-size="14.00">&lt;= 0.0974</text>
</g>
<!-- 8 -->
<g id="node11" class="node">
<title>8</title>
<ellipse fill="#3d76cc" stroke="black" cx="439.33" cy="-35.36" rx="122.16" ry="35.21"/>
<text text-anchor="start" x="400.33" y="-46.16" font-family="Helvetica,sans-Serif" font-weight="bold" font-size="14.00"> Class=1 </text>
<text text-anchor="start" x="473.33" y="-46.16" font-family="Helvetica,sans-Serif" font-size="14.00"> </text>
<text text-anchor="start" x="360.83" y="-32.16" font-family="Helvetica,sans-Serif" font-size="14.00"> error: 0.000, n=1372 </text>
<text text-anchor="start" x="384.33" y="-18.16" font-family="Helvetica,sans-Serif" font-size="14.00"> p: (1.00, 0.00) </text>
</g>
<!-- 7&#45;&gt;8 -->
<g id="edge10" class="edge">
<title>7:s&#45;&gt;8:n</title>
<path fill="none" stroke="black" d="M421.33,-121.71C421.33,-121.71 430.63,-95.36 435.86,-80.54"/>
<polygon fill="black" stroke="black" points="439.3,-81.31 439.33,-70.71 432.7,-78.98 439.3,-81.31"/>
<text text-anchor="middle" x="469.33" y="-92.51" font-family="Helvetica,sans-Serif" font-size="14.00">&gt; &#45;0.8074</text>
</g>
<!-- 12 -->
<g id="node14" class="node">
<title>12</title>
<ellipse fill="#44e5b5" stroke="black" cx="1019.33" cy="-160.71" rx="122.16" ry="35.21"/>
<text text-anchor="start" x="980.33" y="-171.51" font-family="Helvetica,sans-Serif" font-weight="bold" font-size="14.00"> Class=2 </text>
<text text-anchor="start" x="1053.33" y="-171.51" font-family="Helvetica,sans-Serif" font-size="14.00"> </text>
<text text-anchor="start" x="940.83" y="-157.51" font-family="Helvetica,sans-Serif" font-size="14.00"> error: 0.067, n=1372 </text>
<text text-anchor="start" x="964.33" y="-143.51" font-family="Helvetica,sans-Serif" font-size="14.00"> p: (0.01, 0.99) </text>
</g>
<!-- 11&#45;&gt;12 -->
<g id="edge13" class="edge">
<title>11:s&#45;&gt;12:n</title>
<path fill="none" stroke="black" d="M1132.33,-250.71C1132.33,-250.71 1055.56,-214.71 1028.58,-202.05"/>
<polygon fill="black" stroke="black" points="1029.87,-198.79 1019.33,-197.71 1026.9,-205.13 1029.87,-198.79"/>
<text text-anchor="middle" x="1108.83" y="-221.51" font-family="Helvetica,sans-Serif" font-size="14.00">&lt;= &#45;1.749</text>
</g>
<!-- 13 -->
<g id="node15" class="node">
<title>13</title>
<polygon fill="#44e5b5" stroke="black" points="1386.83,-199.71 1213.83,-199.71 1213.83,-121.71 1386.83,-121.71 1386.83,-199.71"/>
<text text-anchor="start" x="1261.33" y="-185.51" font-family="Helvetica,sans-Serif" font-weight="bold" font-size="14.00"> Class=2 </text>
<text text-anchor="start" x="1334.33" y="-185.51" font-family="Helvetica,sans-Serif" font-size="14.00"> </text>
<text text-anchor="start" x="1221.83" y="-171.51" font-family="Helvetica,sans-Serif" font-size="14.00"> error: 0.590, n=1372 </text>
<text text-anchor="start" x="1245.33" y="-157.51" font-family="Helvetica,sans-Serif" font-size="14.00"> p: (0.14, 0.86) </text>
<text text-anchor="start" x="1294.83" y="-143.51" font-family="Helvetica,sans-Serif" font-size="14.00">&#45;&#45;</text>
<text text-anchor="start" x="1289.83" y="-129.51" font-family="Helvetica,sans-Serif" font-weight="bold" font-size="14.00">V3</text>
</g>
<!-- 11&#45;&gt;13 -->
<g id="edge14" class="edge">
<title>11:s&#45;&gt;13:n</title>
<path fill="none" stroke="black" d="M1132.33,-250.71C1132.33,-250.71 1254.16,-213.73 1290.32,-202.75"/>
<polygon fill="black" stroke="black" points="1291.78,-205.96 1300.33,-199.71 1289.74,-199.27 1291.78,-205.96"/>
<text text-anchor="middle" x="1267.83" y="-221.51" font-family="Helvetica,sans-Serif" font-size="14.00">&gt; &#45;1.749</text>
</g>
<!-- 17 -->
<g id="node18" class="node">
<title>17</title>
<polygon fill="#44e5b5" stroke="black" points="1703.83,-199.71 1530.83,-199.71 1530.83,-121.71 1703.83,-121.71 1703.83,-199.71"/>
<text text-anchor="start" x="1578.33" y="-185.51" font-family="Helvetica,sans-Serif" font-weight="bold" font-size="14.00"> Class=2 </text>
<text text-anchor="start" x="1651.33" y="-185.51" font-family="Helvetica,sans-Serif" font-size="14.00"> </text>
<text text-anchor="start" x="1538.83" y="-171.51" font-family="Helvetica,sans-Serif" font-size="14.00"> error: 0.816, n=1372 </text>
<text text-anchor="start" x="1562.33" y="-157.51" font-family="Helvetica,sans-Serif" font-size="14.00"> p: (0.25, 0.75) </text>
<text text-anchor="start" x="1611.83" y="-143.51" font-family="Helvetica,sans-Serif" font-size="14.00">&#45;&#45;</text>
<text text-anchor="start" x="1606.83" y="-129.51" font-family="Helvetica,sans-Serif" font-weight="bold" font-size="14.00">V2</text>
</g>
<!-- 16&#45;&gt;17 -->
<g id="edge17" class="edge">
<title>16:s&#45;&gt;17:n</title>
<path fill="none" stroke="black" d="M1617.33,-250.71C1617.33,-250.71 1617.33,-224.93 1617.33,-210.03"/>
<polygon fill="black" stroke="black" points="1620.83,-209.71 1617.33,-199.71 1613.83,-209.71 1620.83,-209.71"/>
<text text-anchor="middle" x="1654.83" y="-221.51" font-family="Helvetica,sans-Serif" font-size="14.00">&lt;= &#45;2.015</text>
</g>
<!-- 19 -->
<g id="node19" class="node">
<title>19</title>
<polygon fill="#44e5b5" stroke="black" points="1984.83,-199.71 1811.83,-199.71 1811.83,-121.71 1984.83,-121.71 1984.83,-199.71"/>
<text text-anchor="start" x="1859.33" y="-185.51" font-family="Helvetica,sans-Serif" font-weight="bold" font-size="14.00"> Class=1 </text>
<text text-anchor="start" x="1932.33" y="-185.51" font-family="Helvetica,sans-Serif" font-size="14.00"> </text>
<text text-anchor="start" x="1819.83" y="-171.51" font-family="Helvetica,sans-Serif" font-size="14.00"> error: 0.351, n=1372 </text>
<text text-anchor="start" x="1843.33" y="-157.51" font-family="Helvetica,sans-Serif" font-size="14.00"> p: (0.93, 0.07) </text>
<text text-anchor="start" x="1892.83" y="-143.51" font-family="Helvetica,sans-Serif" font-size="14.00">&#45;&#45;</text>
<text text-anchor="start" x="1887.83" y="-129.51" font-family="Helvetica,sans-Serif" font-weight="bold" font-size="14.00">V2</text>
</g>
<!-- 16&#45;&gt;19 -->
<g id="edge18" class="edge">
<title>16:s&#45;&gt;19:n</title>
<path fill="none" stroke="black" d="M1617.33,-250.71C1617.33,-250.71 1838.27,-210.61 1888.33,-201.53"/>
<polygon fill="black" stroke="black" points="1889.12,-204.94 1898.33,-199.71 1887.87,-198.05 1889.12,-204.94"/>
<text text-anchor="middle" x="1822.83" y="-221.51" font-family="Helvetica,sans-Serif" font-size="14.00">&gt; &#45;2.015</text>
</g>
<!-- 14 -->
<g id="node16" class="node">
<title>14</title>
<ellipse fill="#3d76cc" stroke="black" cx="983.33" cy="-35.36" rx="122.16" ry="35.21"/>
<text text-anchor="start" x="944.33" y="-46.16" font-family="Helvetica,sans-Serif" font-weight="bold" font-size="14.00"> Class=2 </text>
<text text-anchor="start" x="1017.33" y="-46.16" font-family="Helvetica,sans-Serif" font-size="14.00"> </text>
<text text-anchor="start" x="904.83" y="-32.16" font-family="Helvetica,sans-Serif" font-size="14.00"> error: 0.000, n=1372 </text>
<text text-anchor="start" x="928.33" y="-18.16" font-family="Helvetica,sans-Serif" font-size="14.00"> p: (0.00, 1.00) </text>
</g>
<!-- 13&#45;&gt;14 -->
<g id="edge15" class="edge">
<title>13:s&#45;&gt;14:n</title>
<path fill="none" stroke="black" d="M1300.33,-121.71C1300.33,-121.71 1047.78,-81.08 993.52,-72.35"/>
<polygon fill="black" stroke="black" points="993.76,-68.84 983.33,-70.71 992.65,-75.75 993.76,-68.84"/>
<text text-anchor="middle" x="1222.33" y="-92.51" font-family="Helvetica,sans-Serif" font-size="14.00">&lt;= &#45;0.0517</text>
</g>
<!-- 15 -->
<g id="node17" class="node">
<title>15</title>
<ellipse fill="#3d76cc" stroke="black" cx="1300.33" cy="-35.36" rx="122.16" ry="35.21"/>
<text text-anchor="start" x="1261.33" y="-46.16" font-family="Helvetica,sans-Serif" font-weight="bold" font-size="14.00"> Class=2 </text>
<text text-anchor="start" x="1334.33" y="-46.16" font-family="Helvetica,sans-Serif" font-size="14.00"> </text>
<text text-anchor="start" x="1221.83" y="-32.16" font-family="Helvetica,sans-Serif" font-size="14.00"> error: 0.853, n=1372 </text>
<text text-anchor="start" x="1245.33" y="-18.16" font-family="Helvetica,sans-Serif" font-size="14.00"> p: (0.28, 0.72) </text>
</g>
<!-- 13&#45;&gt;15 -->
<g id="edge16" class="edge">
<title>13:s&#45;&gt;15:n</title>
<path fill="none" stroke="black" d="M1300.33,-121.71C1300.33,-121.71 1300.33,-95.93 1300.33,-81.03"/>
<polygon fill="black" stroke="black" points="1303.83,-80.71 1300.33,-70.71 1296.83,-80.71 1303.83,-80.71"/>
<text text-anchor="middle" x="1336.33" y="-92.51" font-family="Helvetica,sans-Serif" font-size="14.00">&gt; &#45;0.0517</text>
</g>
<!-- 18 -->
<g id="node20" class="node">
<title>18</title>
<ellipse fill="#3d76cc" stroke="black" cx="1617.33" cy="-35.36" rx="122.16" ry="35.21"/>
<text text-anchor="start" x="1578.33" y="-46.16" font-family="Helvetica,sans-Serif" font-weight="bold" font-size="14.00"> Class=2 </text>
<text text-anchor="start" x="1651.33" y="-46.16" font-family="Helvetica,sans-Serif" font-size="14.00"> </text>
<text text-anchor="start" x="1538.83" y="-32.16" font-family="Helvetica,sans-Serif" font-size="14.00"> error: 0.116, n=1372 </text>
<text text-anchor="start" x="1562.33" y="-18.16" font-family="Helvetica,sans-Serif" font-size="14.00"> p: (0.02, 0.98) </text>
</g>
<!-- 17&#45;&gt;18 -->
<g id="edge19" class="edge">
<title>17:s&#45;&gt;18:n</title>
<path fill="none" stroke="black" d="M1617.33,-121.71C1617.33,-121.71 1617.33,-95.93 1617.33,-81.03"/>
<polygon fill="black" stroke="black" points="1620.83,-80.71 1617.33,-70.71 1613.83,-80.71 1620.83,-80.71"/>
<text text-anchor="middle" x="1652.33" y="-92.51" font-family="Helvetica,sans-Serif" font-size="14.00">&lt;= 9.295</text>
</g>
<!-- 20 -->
<g id="node21" class="node">
<title>20</title>
<ellipse fill="#3d76cc" stroke="black" cx="1934.33" cy="-35.36" rx="122.16" ry="35.21"/>
<text text-anchor="start" x="1895.33" y="-46.16" font-family="Helvetica,sans-Serif" font-weight="bold" font-size="14.00"> Class=1 </text>
<text text-anchor="start" x="1968.33" y="-46.16" font-family="Helvetica,sans-Serif" font-size="14.00"> </text>
<text text-anchor="start" x="1855.83" y="-32.16" font-family="Helvetica,sans-Serif" font-size="14.00"> error: 0.000, n=1372 </text>
<text text-anchor="start" x="1879.33" y="-18.16" font-family="Helvetica,sans-Serif" font-size="14.00"> p: (1.00, 0.00) </text>
</g>
<!-- 19&#45;&gt;20 -->
<g id="edge20" class="edge">
<title>19:s&#45;&gt;20:n</title>
<path fill="none" stroke="black" d="M1898.33,-121.71C1898.33,-121.71 1918.16,-93.62 1928.38,-79.13"/>
<polygon fill="black" stroke="black" points="1931.42,-80.9 1934.33,-70.71 1925.7,-76.86 1931.42,-80.9"/>
<text text-anchor="middle" x="1950.33" y="-92.51" font-family="Helvetica,sans-Serif" font-size="14.00">&gt; 6.874</text>
</g>
</g>
</svg>
