<?xml version="1.0" encoding="UTF-8" standalone="no"?>
<!DOCTYPE svg PUBLIC "-//W3C//DTD SVG 1.1//EN"
 "http://www.w3.org/Graphics/SVG/1.1/DTD/svg11.dtd">
<!-- Generated by graphviz version 2.43.0 (0)
 -->
<!-- Title: Tree Pages: 1 -->
<svg width="1827pt" height="696pt"
 viewBox="0.00 0.00 1827.39 695.71" xmlns="http://www.w3.org/2000/svg" xmlns:xlink="http://www.w3.org/1999/xlink">
<g id="graph0" class="graph" transform="scale(1 1) rotate(0) translate(18 677.71)">
<title>Tree</title>
<polygon fill="white" stroke="transparent" points="-18,18 -18,-677.71 1809.39,-677.71 1809.39,18 -18,18"/>
<!-- 0 -->
<g id="node1" class="node">
<title>0</title>
<polygon fill="white" stroke="transparent" points="798.69,-659.71 744.69,-659.71 744.69,-623.71 798.69,-623.71 798.69,-659.71"/>
<text text-anchor="middle" x="771.69" y="-638.01" font-family="Helvetica,sans-Serif" font-size="14.00">0</text>
</g>
<!-- 1 -->
<g id="node2" class="node">
<title>1</title>
<polygon fill="#cc3d3d" stroke="black" points="862.69,-586.71 680.69,-586.71 680.69,-508.71 862.69,-508.71 862.69,-586.71"/>
<text text-anchor="start" x="732.69" y="-572.51" font-family="Helvetica,sans-Serif" font-weight="bold" font-size="14.00"> Class=1 </text>
<text text-anchor="start" x="805.69" y="-572.51" font-family="Helvetica,sans-Serif" font-size="14.00"> </text>
<text text-anchor="start" x="688.69" y="-558.51" font-family="Helvetica,sans-Serif" font-size="14.00"> error: 0.521, n=45211 </text>
<text text-anchor="start" x="716.69" y="-544.51" font-family="Helvetica,sans-Serif" font-size="14.00"> p: (0.88, 0.12) </text>
<text text-anchor="start" x="763.69" y="-530.51" font-family="Helvetica,sans-Serif" font-size="14.00">&#45;&#45;&#45;</text>
<text text-anchor="start" x="756.19" y="-516.51" font-family="Helvetica,sans-Serif" font-weight="bold" font-size="14.00">V12</text>
</g>
<!-- 0&#45;&gt;1 -->
<!-- 2 -->
<g id="node3" class="node">
<title>2</title>
<polygon fill="#e5d544" stroke="black" points="717.69,-457.71 535.69,-457.71 535.69,-379.71 717.69,-379.71 717.69,-457.71"/>
<text text-anchor="start" x="587.69" y="-443.51" font-family="Helvetica,sans-Serif" font-weight="bold" font-size="14.00"> Class=1 </text>
<text text-anchor="start" x="660.69" y="-443.51" font-family="Helvetica,sans-Serif" font-size="14.00"> </text>
<text text-anchor="start" x="543.69" y="-429.51" font-family="Helvetica,sans-Serif" font-size="14.00"> error: 0.934, n=45211 </text>
<text text-anchor="start" x="571.69" y="-415.51" font-family="Helvetica,sans-Serif" font-size="14.00"> p: (0.65, 0.35) </text>
<text text-anchor="start" x="618.69" y="-401.51" font-family="Helvetica,sans-Serif" font-size="14.00">&#45;&#45;&#45;</text>
<text text-anchor="start" x="611.19" y="-387.51" font-family="Helvetica,sans-Serif" font-weight="bold" font-size="14.00">V12</text>
</g>
<!-- 1&#45;&gt;2 -->
<g id="edge2" class="edge">
<title>1:s&#45;&gt;2:n</title>
<path fill="none" stroke="black" d="M771.69,-508.71C771.69,-508.71 668.47,-472.4 636.21,-461.06"/>
<polygon fill="black" stroke="black" points="637.29,-457.73 626.69,-457.71 634.97,-464.33 637.29,-457.73"/>
<text text-anchor="middle" x="738.69" y="-479.51" font-family="Helvetica,sans-Serif" font-size="14.00">&gt; 393</text>
</g>
<!-- 6 -->
<g id="node4" class="node">
<title>6</title>
<polygon fill="#e5d544" stroke="black" points="1091.69,-457.71 909.69,-457.71 909.69,-379.71 1091.69,-379.71 1091.69,-457.71"/>
<text text-anchor="start" x="961.69" y="-443.51" font-family="Helvetica,sans-Serif" font-weight="bold" font-size="14.00"> Class=1 </text>
<text text-anchor="start" x="1034.69" y="-443.51" font-family="Helvetica,sans-Serif" font-size="14.00"> </text>
<text text-anchor="start" x="917.69" y="-429.51" font-family="Helvetica,sans-Serif" font-size="14.00"> error: 0.350, n=45211 </text>
<text text-anchor="start" x="945.69" y="-415.51" font-family="Helvetica,sans-Serif" font-size="14.00"> p: (0.93, 0.07) </text>
<text text-anchor="start" x="992.69" y="-401.51" font-family="Helvetica,sans-Serif" font-size="14.00">&#45;&#45;&#45;</text>
<text text-anchor="start" x="985.19" y="-387.51" font-family="Helvetica,sans-Serif" font-weight="bold" font-size="14.00">V16</text>
</g>
<!-- 1&#45;&gt;6 -->
<g id="edge3" class="edge">
<title>1:s&#45;&gt;6:n</title>
<path fill="none" stroke="black" d="M771.69,-508.71C771.69,-508.71 947.02,-469.66 990.85,-459.9"/>
<polygon fill="black" stroke="black" points="991.69,-463.3 1000.69,-457.71 990.17,-456.47 991.69,-463.3"/>
<text text-anchor="middle" x="941.69" y="-479.51" font-family="Helvetica,sans-Serif" font-size="14.00">&lt;= 393</text>
</g>
<!-- 3 -->
<g id="node5" class="node">
<title>3</title>
<polygon fill="#59cc3d" stroke="black" points="261.69,-328.71 79.69,-328.71 79.69,-250.71 261.69,-250.71 261.69,-328.71"/>
<text text-anchor="start" x="131.69" y="-314.51" font-family="Helvetica,sans-Serif" font-weight="bold" font-size="14.00"> Class=1 </text>
<text text-anchor="start" x="204.69" y="-314.51" font-family="Helvetica,sans-Serif" font-size="14.00"> </text>
<text text-anchor="start" x="87.69" y="-300.51" font-family="Helvetica,sans-Serif" font-size="14.00"> error: 0.826, n=45211 </text>
<text text-anchor="start" x="115.69" y="-286.51" font-family="Helvetica,sans-Serif" font-size="14.00"> p: (0.74, 0.26) </text>
<text text-anchor="start" x="162.69" y="-272.51" font-family="Helvetica,sans-Serif" font-size="14.00">&#45;&#45;&#45;</text>
<text text-anchor="start" x="155.19" y="-258.51" font-family="Helvetica,sans-Serif" font-weight="bold" font-size="14.00">V16</text>
</g>
<!-- 2&#45;&gt;3 -->
<g id="edge4" class="edge">
<title>2:s&#45;&gt;3:n</title>
<path fill="none" stroke="black" d="M626.69,-379.71C626.69,-379.71 247.33,-337.28 180.64,-329.82"/>
<polygon fill="black" stroke="black" points="181.02,-326.34 170.69,-328.71 180.24,-333.3 181.02,-326.34"/>
<text text-anchor="middle" x="481.69" y="-350.51" font-family="Helvetica,sans-Serif" font-size="14.00">&lt;= 688</text>
</g>
<!-- 5 -->
<g id="node6" class="node">
<title>5</title>
<ellipse fill="#59cc3d" stroke="black" cx="626.69" cy="-289.71" rx="128.89" ry="35.21"/>
<text text-anchor="start" x="587.69" y="-300.51" font-family="Helvetica,sans-Serif" font-weight="bold" font-size="14.00"> Class=2 </text>
<text text-anchor="start" x="660.69" y="-300.51" font-family="Helvetica,sans-Serif" font-size="14.00"> </text>
<text text-anchor="start" x="543.69" y="-286.51" font-family="Helvetica,sans-Serif" font-size="14.00"> error: 0.998, n=45211 </text>
<text text-anchor="start" x="571.69" y="-272.51" font-family="Helvetica,sans-Serif" font-size="14.00"> p: (0.48, 0.52) </text>
</g>
<!-- 2&#45;&gt;5 -->
<g id="edge5" class="edge">
<title>2:s&#45;&gt;5:n</title>
<path fill="none" stroke="black" d="M626.69,-379.71C626.69,-379.71 626.69,-351.81 626.69,-336.12"/>
<polygon fill="black" stroke="black" points="630.19,-335.71 626.69,-325.71 623.19,-335.71 630.19,-335.71"/>
<text text-anchor="middle" x="648.69" y="-350.51" font-family="Helvetica,sans-Serif" font-size="14.00">&gt; 688</text>
</g>
<!-- 7 -->
<g id="node8" class="node">
<title>7</title>
<polygon fill="#59cc3d" stroke="black" points="1091.69,-328.71 909.69,-328.71 909.69,-250.71 1091.69,-250.71 1091.69,-328.71"/>
<text text-anchor="start" x="961.69" y="-314.51" font-family="Helvetica,sans-Serif" font-weight="bold" font-size="14.00"> Class=1 </text>
<text text-anchor="start" x="1034.69" y="-314.51" font-family="Helvetica,sans-Serif" font-size="14.00"> </text>
<text text-anchor="start" x="917.69" y="-300.51" font-family="Helvetica,sans-Serif" font-size="14.00"> error: 0.248, n=45211 </text>
<text text-anchor="start" x="945.69" y="-286.51" font-family="Helvetica,sans-Serif" font-size="14.00"> p: (0.96, 0.04) </text>
<text text-anchor="start" x="992.69" y="-272.51" font-family="Helvetica,sans-Serif" font-size="14.00">&#45;&#45;&#45;</text>
<text text-anchor="start" x="985.19" y="-258.51" font-family="Helvetica,sans-Serif" font-weight="bold" font-size="14.00">V11</text>
</g>
<!-- 6&#45;&gt;7 -->
<g id="edge7" class="edge">
<title>6:s&#45;&gt;7:n</title>
<path fill="none" stroke="black" d="M1000.69,-379.71C1000.69,-379.71 1000.69,-353.93 1000.69,-339.03"/>
<polygon fill="black" stroke="black" points="1004.19,-338.71 1000.69,-328.71 997.19,-338.71 1004.19,-338.71"/>
<text text-anchor="middle" x="1032.69" y="-350.51" font-family="Helvetica,sans-Serif" font-size="14.00">unknown</text>
</g>
<!-- 15 -->
<g id="node9" class="node">
<title>15</title>
<ellipse fill="#59cc3d" stroke="black" cx="1292.69" cy="-289.71" rx="128.89" ry="35.21"/>
<text text-anchor="start" x="1253.69" y="-300.51" font-family="Helvetica,sans-Serif" font-weight="bold" font-size="14.00"> Class=1 </text>
<text text-anchor="start" x="1326.69" y="-300.51" font-family="Helvetica,sans-Serif" font-size="14.00"> </text>
<text text-anchor="start" x="1209.69" y="-286.51" font-family="Helvetica,sans-Serif" font-size="14.00"> error: 0.404, n=45211 </text>
<text text-anchor="start" x="1237.69" y="-272.51" font-family="Helvetica,sans-Serif" font-size="14.00"> p: (0.92, 0.08) </text>
</g>
<!-- 6&#45;&gt;15 -->
<g id="edge8" class="edge">
<title>6:s&#45;&gt;15:n</title>
<path fill="none" stroke="black" d="M1000.69,-379.71C1000.69,-379.71 1231.3,-337.06 1282.64,-327.57"/>
<polygon fill="black" stroke="black" points="1283.5,-330.97 1292.69,-325.71 1282.22,-324.09 1283.5,-330.97"/>
<text text-anchor="middle" x="1195.69" y="-350.51" font-family="Helvetica,sans-Serif" font-size="14.00">failure</text>
</g>
<!-- 4 -->
<g id="node7" class="node">
<title>4</title>
<ellipse fill="#44e5b5" stroke="black" cx="128.69" cy="-160.71" rx="128.89" ry="35.21"/>
<text text-anchor="start" x="89.69" y="-171.51" font-family="Helvetica,sans-Serif" font-weight="bold" font-size="14.00"> Class=1 </text>
<text text-anchor="start" x="162.69" y="-171.51" font-family="Helvetica,sans-Serif" font-size="14.00"> </text>
<text text-anchor="start" x="45.69" y="-157.51" font-family="Helvetica,sans-Serif" font-size="14.00"> error: 0.755, n=45211 </text>
<text text-anchor="start" x="73.69" y="-143.51" font-family="Helvetica,sans-Serif" font-size="14.00"> p: (0.78, 0.22) </text>
</g>
<!-- 3&#45;&gt;4 -->
<g id="edge6" class="edge">
<title>3:s&#45;&gt;4:n</title>
<path fill="none" stroke="black" d="M170.69,-250.71C170.69,-250.71 146.57,-219.7 134.89,-204.68"/>
<polygon fill="black" stroke="black" points="137.6,-202.46 128.69,-196.71 132.07,-206.75 137.6,-202.46"/>
<text text-anchor="middle" x="188.69" y="-221.51" font-family="Helvetica,sans-Serif" font-size="14.00">unknown</text>
</g>
<!-- 8 -->
<g id="node10" class="node">
<title>8</title>
<ellipse fill="#44e5b5" stroke="black" cx="457.69" cy="-160.71" rx="128.89" ry="35.21"/>
<text text-anchor="start" x="418.69" y="-171.51" font-family="Helvetica,sans-Serif" font-weight="bold" font-size="14.00"> Class=1 </text>
<text text-anchor="start" x="491.69" y="-171.51" font-family="Helvetica,sans-Serif" font-size="14.00"> </text>
<text text-anchor="start" x="374.69" y="-157.51" font-family="Helvetica,sans-Serif" font-size="14.00"> error: 0.083, n=45211 </text>
<text text-anchor="start" x="402.69" y="-143.51" font-family="Helvetica,sans-Serif" font-size="14.00"> p: (0.99, 0.01) </text>
</g>
<!-- 7&#45;&gt;8 -->
<g id="edge9" class="edge">
<title>7:s&#45;&gt;8:n</title>
<path fill="none" stroke="black" d="M1000.69,-250.71C1000.69,-250.71 543.13,-205.21 468.06,-197.74"/>
<polygon fill="black" stroke="black" points="467.99,-194.22 457.69,-196.71 467.3,-201.18 467.99,-194.22"/>
<text text-anchor="middle" x="812.19" y="-221.51" font-family="Helvetica,sans-Serif" font-size="14.00">may</text>
</g>
<!-- 9 -->
<g id="node11" class="node">
<title>9</title>
<polygon fill="#44e5b5" stroke="black" points="840.69,-199.71 658.69,-199.71 658.69,-121.71 840.69,-121.71 840.69,-199.71"/>
<text text-anchor="start" x="710.69" y="-185.51" font-family="Helvetica,sans-Serif" font-weight="bold" font-size="14.00"> Class=1 </text>
<text text-anchor="start" x="783.69" y="-185.51" font-family="Helvetica,sans-Serif" font-size="14.00"> </text>
<text text-anchor="start" x="666.69" y="-171.51" font-family="Helvetica,sans-Serif" font-size="14.00"> error: 0.213, n=45211 </text>
<text text-anchor="start" x="694.69" y="-157.51" font-family="Helvetica,sans-Serif" font-size="14.00"> p: (0.97, 0.03) </text>
<text text-anchor="start" x="744.19" y="-143.51" font-family="Helvetica,sans-Serif" font-size="14.00">&#45;&#45;</text>
<text text-anchor="start" x="739.19" y="-129.51" font-family="Helvetica,sans-Serif" font-weight="bold" font-size="14.00">V9</text>
</g>
<!-- 7&#45;&gt;9 -->
<g id="edge10" class="edge">
<title>7:s&#45;&gt;9:n</title>
<path fill="none" stroke="black" d="M1000.69,-250.71C1000.69,-250.71 805.94,-211.14 759.53,-201.71"/>
<polygon fill="black" stroke="black" points="760.19,-198.27 749.69,-199.71 758.8,-205.13 760.19,-198.27"/>
<text text-anchor="middle" x="916.69" y="-221.51" font-family="Helvetica,sans-Serif" font-size="14.00">jun</text>
</g>
<!-- 11 -->
<g id="node12" class="node">
<title>11</title>
<ellipse fill="#44e5b5" stroke="black" cx="1041.69" cy="-160.71" rx="128.89" ry="35.21"/>
<text text-anchor="start" x="1002.69" y="-171.51" font-family="Helvetica,sans-Serif" font-weight="bold" font-size="14.00"> Class=1 </text>
<text text-anchor="start" x="1075.69" y="-171.51" font-family="Helvetica,sans-Serif" font-size="14.00"> </text>
<text text-anchor="start" x="958.69" y="-157.51" font-family="Helvetica,sans-Serif" font-size="14.00"> error: 0.113, n=45211 </text>
<text text-anchor="start" x="986.69" y="-143.51" font-family="Helvetica,sans-Serif" font-size="14.00"> p: (0.98, 0.02) </text>
</g>
<!-- 7&#45;&gt;11 -->
<g id="edge11" class="edge">
<title>7:s&#45;&gt;11:n</title>
<path fill="none" stroke="black" d="M1000.69,-250.71C1000.69,-250.71 1024.24,-219.7 1035.64,-204.68"/>
<polygon fill="black" stroke="black" points="1038.43,-206.79 1041.69,-196.71 1032.86,-202.56 1038.43,-206.79"/>
<text text-anchor="middle" x="1034.19" y="-221.51" font-family="Helvetica,sans-Serif" font-size="14.00">jul</text>
</g>
<!-- 12 -->
<g id="node13" class="node">
<title>12</title>
<ellipse fill="#44e5b5" stroke="black" cx="1370.69" cy="-160.71" rx="128.89" ry="35.21"/>
<text text-anchor="start" x="1331.69" y="-171.51" font-family="Helvetica,sans-Serif" font-weight="bold" font-size="14.00"> Class=1 </text>
<text text-anchor="start" x="1404.69" y="-171.51" font-family="Helvetica,sans-Serif" font-size="14.00"> </text>
<text text-anchor="start" x="1287.69" y="-157.51" font-family="Helvetica,sans-Serif" font-size="14.00"> error: 0.174, n=45211 </text>
<text text-anchor="start" x="1315.69" y="-143.51" font-family="Helvetica,sans-Serif" font-size="14.00"> p: (0.97, 0.03) </text>
</g>
<!-- 7&#45;&gt;12 -->
<g id="edge12" class="edge">
<title>7:s&#45;&gt;12:n</title>
<path fill="none" stroke="black" d="M1000.69,-250.71C1000.69,-250.71 1301.96,-206.74 1360.8,-198.16"/>
<polygon fill="black" stroke="black" points="1361.3,-201.62 1370.69,-196.71 1360.29,-194.69 1361.3,-201.62"/>
<text text-anchor="middle" x="1233.19" y="-221.51" font-family="Helvetica,sans-Serif" font-size="14.00">aug</text>
</g>
<!-- 13 -->
<g id="node14" class="node">
<title>13</title>
<polygon fill="#44e5b5" stroke="black" points="1753.69,-199.71 1571.69,-199.71 1571.69,-121.71 1753.69,-121.71 1753.69,-199.71"/>
<text text-anchor="start" x="1623.69" y="-185.51" font-family="Helvetica,sans-Serif" font-weight="bold" font-size="14.00"> Class=1 </text>
<text text-anchor="start" x="1696.69" y="-185.51" font-family="Helvetica,sans-Serif" font-size="14.00"> </text>
<text text-anchor="start" x="1579.69" y="-171.51" font-family="Helvetica,sans-Serif" font-size="14.00"> error: 0.211, n=45211 </text>
<text text-anchor="start" x="1607.69" y="-157.51" font-family="Helvetica,sans-Serif" font-size="14.00"> p: (0.97, 0.03) </text>
<text text-anchor="start" x="1654.69" y="-143.51" font-family="Helvetica,sans-Serif" font-size="14.00">&#45;&#45;&#45;</text>
<text text-anchor="start" x="1647.19" y="-129.51" font-family="Helvetica,sans-Serif" font-weight="bold" font-size="14.00">V10</text>
</g>
<!-- 7&#45;&gt;13 -->
<g id="edge13" class="edge">
<title>7:s&#45;&gt;13:n</title>
<path fill="none" stroke="black" d="M1000.69,-250.71C1000.69,-250.71 1569.27,-206.91 1652.56,-200.49"/>
<polygon fill="black" stroke="black" points="1652.99,-203.97 1662.69,-199.71 1652.45,-196.99 1652.99,-203.97"/>
<text text-anchor="middle" x="1453.69" y="-221.51" font-family="Helvetica,sans-Serif" font-size="14.00">nov</text>
</g>
<!-- 10 -->
<g id="node15" class="node">
<title>10</title>
<ellipse fill="#3d76cc" stroke="black" cx="749.69" cy="-35.36" rx="128.89" ry="35.21"/>
<text text-anchor="start" x="710.69" y="-46.16" font-family="Helvetica,sans-Serif" font-weight="bold" font-size="14.00"> Class=1 </text>
<text text-anchor="start" x="783.69" y="-46.16" font-family="Helvetica,sans-Serif" font-size="14.00"> </text>
<text text-anchor="start" x="666.69" y="-32.16" font-family="Helvetica,sans-Serif" font-size="14.00"> error: 0.026, n=45211 </text>
<text text-anchor="start" x="694.69" y="-18.16" font-family="Helvetica,sans-Serif" font-size="14.00"> p: (1.00, 0.00) </text>
</g>
<!-- 9&#45;&gt;10 -->
<g id="edge14" class="edge">
<title>9:s&#45;&gt;10:n</title>
<path fill="none" stroke="black" d="M749.69,-121.71C749.69,-121.71 749.69,-95.93 749.69,-81.03"/>
<polygon fill="black" stroke="black" points="753.19,-80.71 749.69,-70.71 746.19,-80.71 753.19,-80.71"/>
<text text-anchor="middle" x="781.69" y="-92.51" font-family="Helvetica,sans-Serif" font-size="14.00">unknown</text>
</g>
<!-- 14 -->
<g id="node16" class="node">
<title>14</title>
<ellipse fill="#3d76cc" stroke="black" cx="1662.69" cy="-35.36" rx="128.89" ry="35.21"/>
<text text-anchor="start" x="1623.69" y="-46.16" font-family="Helvetica,sans-Serif" font-weight="bold" font-size="14.00"> Class=1 </text>
<text text-anchor="start" x="1696.69" y="-46.16" font-family="Helvetica,sans-Serif" font-size="14.00"> </text>
<text text-anchor="start" x="1579.69" y="-32.16" font-family="Helvetica,sans-Serif" font-size="14.00"> error: 0.115, n=45211 </text>
<text text-anchor="start" x="1607.69" y="-18.16" font-family="Helvetica,sans-Serif" font-size="14.00"> p: (0.98, 0.02) </text>
</g>
<!-- 13&#45;&gt;14 -->
<g id="edge15" class="edge">
<title>13:s&#45;&gt;14:n</title>
<path fill="none" stroke="black" d="M1662.69,-121.71C1662.69,-121.71 1662.69,-95.93 1662.69,-81.03"/>
<polygon fill="black" stroke="black" points="1666.19,-80.71 1662.69,-70.71 1659.19,-80.71 1666.19,-80.71"/>
<text text-anchor="middle" x="1680.19" y="-92.51" font-family="Helvetica,sans-Serif" font-size="14.00">&gt; 13</text>
</g>
</g>
</svg>
