<?xml version="1.0" encoding="UTF-8" standalone="no"?>
<!DOCTYPE svg PUBLIC "-//W3C//DTD SVG 1.1//EN"
 "http://www.w3.org/Graphics/SVG/1.1/DTD/svg11.dtd">
<!-- Generated by graphviz version 2.43.0 (0)
 -->
<!-- Title: Tree Pages: 1 -->
<svg width="293pt" height="309pt"
 viewBox="0.00 0.00 293.39 308.71" xmlns="http://www.w3.org/2000/svg" xmlns:xlink="http://www.w3.org/1999/xlink">
<g id="graph0" class="graph" transform="scale(1 1) rotate(0) translate(18 290.71)">
<title>Tree</title>
<polygon fill="white" stroke="transparent" points="-18,18 -18,-290.71 275.39,-290.71 275.39,18 -18,18"/>
<!-- 0 -->
<g id="node1" class="node">
<title>0</title>
<polygon fill="white" stroke="transparent" points="155.69,-272.71 101.69,-272.71 101.69,-236.71 155.69,-236.71 155.69,-272.71"/>
<text text-anchor="middle" x="128.69" y="-251.01" font-family="Helvetica,sans-Serif" font-size="14.00">0</text>
</g>
<!-- 1 -->
<g id="node2" class="node">
<title>1</title>
<polygon fill="#cc3d3d" stroke="black" points="219.69,-199.71 37.69,-199.71 37.69,-121.71 219.69,-121.71 219.69,-199.71"/>
<text text-anchor="start" x="89.69" y="-185.51" font-family="Helvetica,sans-Serif" font-weight="bold" font-size="14.00"> Class=1 </text>
<text text-anchor="start" x="162.69" y="-185.51" font-family="Helvetica,sans-Serif" font-size="14.00"> </text>
<text text-anchor="start" x="45.69" y="-171.51" font-family="Helvetica,sans-Serif" font-size="14.00"> error: 0.521, n=45211 </text>
<text text-anchor="start" x="73.69" y="-157.51" font-family="Helvetica,sans-Serif" font-size="14.00"> p: (0.88, 0.12) </text>
<text text-anchor="start" x="123.19" y="-143.51" font-family="Helvetica,sans-Serif" font-size="14.00">&#45;&#45;</text>
<text text-anchor="start" x="118.19" y="-129.51" font-family="Helvetica,sans-Serif" font-weight="bold" font-size="14.00">V6</text>
</g>
<!-- 0&#45;&gt;1 -->
<!-- 2 -->
<g id="node3" class="node">
<title>2</title>
<ellipse fill="#4485e5" stroke="black" cx="128.69" cy="-35.36" rx="128.89" ry="35.21"/>
<text text-anchor="start" x="89.69" y="-46.16" font-family="Helvetica,sans-Serif" font-weight="bold" font-size="14.00"> Class=1 </text>
<text text-anchor="start" x="162.69" y="-46.16" font-family="Helvetica,sans-Serif" font-size="14.00"> </text>
<text text-anchor="start" x="45.69" y="-32.16" font-family="Helvetica,sans-Serif" font-size="14.00"> error: 0.413, n=45211 </text>
<text text-anchor="start" x="73.69" y="-18.16" font-family="Helvetica,sans-Serif" font-size="14.00"> p: (0.92, 0.08) </text>
</g>
<!-- 1&#45;&gt;2 -->
<g id="edge2" class="edge">
<title>1:s&#45;&gt;2:n</title>
<path fill="none" stroke="black" d="M128.69,-121.71C128.69,-121.71 128.69,-95.93 128.69,-81.03"/>
<polygon fill="black" stroke="black" points="132.19,-80.71 128.69,-70.71 125.19,-80.71 132.19,-80.71"/>
<text text-anchor="middle" x="140.19" y="-92.51" font-family="Helvetica,sans-Serif" font-size="14.00">0.0</text>
</g>
</g>
</svg>
