<?xml version="1.0" encoding="UTF-8" standalone="no"?>
<!DOCTYPE svg PUBLIC "-//W3C//DTD SVG 1.1//EN"
 "http://www.w3.org/Graphics/SVG/1.1/DTD/svg11.dtd">
<!-- Generated by graphviz version 2.43.0 (0)
 -->
<!-- Title: Tree Pages: 1 -->
<svg width="734pt" height="696pt"
 viewBox="0.00 0.00 733.66 695.71" xmlns="http://www.w3.org/2000/svg" xmlns:xlink="http://www.w3.org/1999/xlink">
<g id="graph0" class="graph" transform="scale(1 1) rotate(0) translate(18 677.71)">
<title>Tree</title>
<polygon fill="white" stroke="transparent" points="-18,18 -18,-677.71 715.66,-677.71 715.66,18 -18,18"/>
<!-- 0 -->
<g id="node1" class="node">
<title>0</title>
<polygon fill="white" stroke="transparent" points="372.33,-659.71 318.33,-659.71 318.33,-623.71 372.33,-623.71 372.33,-659.71"/>
<text text-anchor="middle" x="345.33" y="-638.01" font-family="Helvetica,sans-Serif" font-size="14.00">0</text>
</g>
<!-- 1 -->
<g id="node2" class="node">
<title>1</title>
<polygon fill="#cc3d3d" stroke="black" points="431.83,-586.71 258.83,-586.71 258.83,-508.71 431.83,-508.71 431.83,-586.71"/>
<text text-anchor="start" x="306.33" y="-572.51" font-family="Helvetica,sans-Serif" font-weight="bold" font-size="14.00"> Class=1 </text>
<text text-anchor="start" x="379.33" y="-572.51" font-family="Helvetica,sans-Serif" font-size="14.00"> </text>
<text text-anchor="start" x="266.83" y="-558.51" font-family="Helvetica,sans-Serif" font-size="14.00"> error: 0.995, n=3751 </text>
<text text-anchor="start" x="290.33" y="-544.51" font-family="Helvetica,sans-Serif" font-size="14.00"> p: (0.46, 0.54) </text>
<text text-anchor="start" x="323.83" y="-530.51" font-family="Helvetica,sans-Serif" font-size="14.00">&#45;&#45;&#45;&#45;&#45;&#45;&#45;&#45;</text>
<text text-anchor="start" x="308.83" y="-516.51" font-family="Helvetica,sans-Serif" font-weight="bold" font-size="14.00">v_3=0.03</text>
</g>
<!-- 0&#45;&gt;1 -->
<!-- 2 -->
<g id="node3" class="node">
<title>2</title>
<polygon fill="#e5d544" stroke="black" points="290.83,-457.71 117.83,-457.71 117.83,-379.71 290.83,-379.71 290.83,-457.71"/>
<text text-anchor="start" x="165.33" y="-443.51" font-family="Helvetica,sans-Serif" font-weight="bold" font-size="14.00"> Class=1 </text>
<text text-anchor="start" x="238.33" y="-443.51" font-family="Helvetica,sans-Serif" font-size="14.00"> </text>
<text text-anchor="start" x="125.83" y="-429.51" font-family="Helvetica,sans-Serif" font-size="14.00"> error: 0.929, n=3751 </text>
<text text-anchor="start" x="149.33" y="-415.51" font-family="Helvetica,sans-Serif" font-size="14.00"> p: (0.34, 0.66) </text>
<text text-anchor="start" x="180.33" y="-401.51" font-family="Helvetica,sans-Serif" font-size="14.00">&#45;&#45;&#45;&#45;&#45;&#45;&#45;&#45;&#45;</text>
<text text-anchor="start" x="163.33" y="-387.51" font-family="Helvetica,sans-Serif" font-weight="bold" font-size="14.00">v_15=0.01</text>
</g>
<!-- 1&#45;&gt;2 -->
<g id="edge2" class="edge">
<title>1:s&#45;&gt;2:n</title>
<path fill="none" stroke="black" d="M345.33,-508.71C345.33,-508.71 245.88,-472.74 214.02,-461.22"/>
<polygon fill="black" stroke="black" points="214.92,-457.82 204.33,-457.71 212.54,-464.4 214.92,-457.82"/>
<text text-anchor="middle" x="332.83" y="-479.51" font-family="Helvetica,sans-Serif" font-size="14.00">&gt; &#45;0.01649</text>
</g>
<!-- 8 -->
<g id="node4" class="node">
<title>8</title>
<ellipse fill="#e5d544" stroke="black" cx="485.33" cy="-418.71" rx="122.16" ry="35.21"/>
<text text-anchor="start" x="446.33" y="-429.51" font-family="Helvetica,sans-Serif" font-weight="bold" font-size="14.00"> Class=0 </text>
<text text-anchor="start" x="519.33" y="-429.51" font-family="Helvetica,sans-Serif" font-size="14.00"> </text>
<text text-anchor="start" x="406.83" y="-415.51" font-family="Helvetica,sans-Serif" font-size="14.00"> error: 0.985, n=3751 </text>
<text text-anchor="start" x="430.33" y="-401.51" font-family="Helvetica,sans-Serif" font-size="14.00"> p: (0.57, 0.43) </text>
</g>
<!-- 1&#45;&gt;8 -->
<g id="edge3" class="edge">
<title>1:s&#45;&gt;8:n</title>
<path fill="none" stroke="black" d="M345.33,-508.71C345.33,-508.71 444.08,-471.33 475.71,-459.35"/>
<polygon fill="black" stroke="black" points="477.22,-462.52 485.33,-455.71 474.74,-455.98 477.22,-462.52"/>
<text text-anchor="middle" x="478.83" y="-479.51" font-family="Helvetica,sans-Serif" font-size="14.00">&lt;= &#45;0.01649</text>
</g>
<!-- 3 -->
<g id="node5" class="node">
<title>3</title>
<ellipse fill="#59cc3d" stroke="black" cx="122.33" cy="-289.71" rx="122.16" ry="35.21"/>
<text text-anchor="start" x="83.33" y="-300.51" font-family="Helvetica,sans-Serif" font-weight="bold" font-size="14.00"> Class=1 </text>
<text text-anchor="start" x="156.33" y="-300.51" font-family="Helvetica,sans-Serif" font-size="14.00"> </text>
<text text-anchor="start" x="43.83" y="-286.51" font-family="Helvetica,sans-Serif" font-size="14.00"> error: 0.731, n=3751 </text>
<text text-anchor="start" x="67.33" y="-272.51" font-family="Helvetica,sans-Serif" font-size="14.00"> p: (0.20, 0.80) </text>
</g>
<!-- 2&#45;&gt;3 -->
<g id="edge4" class="edge">
<title>2:s&#45;&gt;3:n</title>
<path fill="none" stroke="black" d="M204.33,-379.71C204.33,-379.71 151.75,-345.72 130.8,-332.18"/>
<polygon fill="black" stroke="black" points="132.63,-329.2 122.33,-326.71 128.83,-335.08 132.63,-329.2"/>
<text text-anchor="middle" x="211.33" y="-350.51" font-family="Helvetica,sans-Serif" font-size="14.00">&lt;= 0.06492</text>
</g>
<!-- 4 -->
<g id="node6" class="node">
<title>4</title>
<polygon fill="#59cc3d" stroke="black" points="489.83,-328.71 316.83,-328.71 316.83,-250.71 489.83,-250.71 489.83,-328.71"/>
<text text-anchor="start" x="364.33" y="-314.51" font-family="Helvetica,sans-Serif" font-weight="bold" font-size="14.00"> Class=1 </text>
<text text-anchor="start" x="437.33" y="-314.51" font-family="Helvetica,sans-Serif" font-size="14.00"> </text>
<text text-anchor="start" x="324.83" y="-300.51" font-family="Helvetica,sans-Serif" font-size="14.00"> error: 0.999, n=3751 </text>
<text text-anchor="start" x="348.33" y="-286.51" font-family="Helvetica,sans-Serif" font-size="14.00"> p: (0.48, 0.52) </text>
<text text-anchor="start" x="381.83" y="-272.51" font-family="Helvetica,sans-Serif" font-size="14.00">&#45;&#45;&#45;&#45;&#45;&#45;&#45;&#45;</text>
<text text-anchor="start" x="366.83" y="-258.51" font-family="Helvetica,sans-Serif" font-weight="bold" font-size="14.00">v_7=0.02</text>
</g>
<!-- 2&#45;&gt;4 -->
<g id="edge5" class="edge">
<title>2:s&#45;&gt;4:n</title>
<path fill="none" stroke="black" d="M204.33,-379.71C204.33,-379.71 353.31,-341.53 393.46,-331.24"/>
<polygon fill="black" stroke="black" points="394.51,-334.58 403.33,-328.71 392.77,-327.8 394.51,-334.58"/>
<text text-anchor="middle" x="366.33" y="-350.51" font-family="Helvetica,sans-Serif" font-size="14.00">&gt; 0.06492</text>
</g>
<!-- 5 -->
<g id="node7" class="node">
<title>5</title>
<ellipse fill="#44e5b5" stroke="black" cx="294.33" cy="-160.71" rx="122.16" ry="35.21"/>
<text text-anchor="start" x="255.33" y="-171.51" font-family="Helvetica,sans-Serif" font-weight="bold" font-size="14.00"> Class=0 </text>
<text text-anchor="start" x="328.33" y="-171.51" font-family="Helvetica,sans-Serif" font-size="14.00"> </text>
<text text-anchor="start" x="215.83" y="-157.51" font-family="Helvetica,sans-Serif" font-size="14.00"> error: 0.993, n=3751 </text>
<text text-anchor="start" x="239.33" y="-143.51" font-family="Helvetica,sans-Serif" font-size="14.00"> p: (0.55, 0.45) </text>
</g>
<!-- 4&#45;&gt;5 -->
<g id="edge6" class="edge">
<title>4:s&#45;&gt;5:n</title>
<path fill="none" stroke="black" d="M403.33,-250.71C403.33,-250.71 329.98,-215.05 303.62,-202.23"/>
<polygon fill="black" stroke="black" points="304.85,-198.94 294.33,-197.71 301.79,-205.23 304.85,-198.94"/>
<text text-anchor="middle" x="382.83" y="-221.51" font-family="Helvetica,sans-Serif" font-size="14.00">&lt;= 0.3028</text>
</g>
<!-- 6 -->
<g id="node8" class="node">
<title>6</title>
<polygon fill="#44e5b5" stroke="black" points="661.83,-199.71 488.83,-199.71 488.83,-121.71 661.83,-121.71 661.83,-199.71"/>
<text text-anchor="start" x="536.33" y="-185.51" font-family="Helvetica,sans-Serif" font-weight="bold" font-size="14.00"> Class=1 </text>
<text text-anchor="start" x="609.33" y="-185.51" font-family="Helvetica,sans-Serif" font-size="14.00"> </text>
<text text-anchor="start" x="496.83" y="-171.51" font-family="Helvetica,sans-Serif" font-size="14.00"> error: 0.864, n=3751 </text>
<text text-anchor="start" x="520.33" y="-157.51" font-family="Helvetica,sans-Serif" font-size="14.00"> p: (0.29, 0.71) </text>
<text text-anchor="start" x="551.33" y="-143.51" font-family="Helvetica,sans-Serif" font-size="14.00">&#45;&#45;&#45;&#45;&#45;&#45;&#45;&#45;&#45;</text>
<text text-anchor="start" x="534.33" y="-129.51" font-family="Helvetica,sans-Serif" font-weight="bold" font-size="14.00">v_21=0.01</text>
</g>
<!-- 4&#45;&gt;6 -->
<g id="edge7" class="edge">
<title>4:s&#45;&gt;6:n</title>
<path fill="none" stroke="black" d="M403.33,-250.71C403.33,-250.71 529.2,-213.39 565.59,-202.6"/>
<polygon fill="black" stroke="black" points="566.74,-205.91 575.33,-199.71 564.75,-199.2 566.74,-205.91"/>
<text text-anchor="middle" x="543.83" y="-221.51" font-family="Helvetica,sans-Serif" font-size="14.00">&gt; 0.3028</text>
</g>
<!-- 7 -->
<g id="node9" class="node">
<title>7</title>
<ellipse fill="#3d76cc" stroke="black" cx="575.33" cy="-35.36" rx="122.16" ry="35.21"/>
<text text-anchor="start" x="536.33" y="-46.16" font-family="Helvetica,sans-Serif" font-weight="bold" font-size="14.00"> Class=1 </text>
<text text-anchor="start" x="609.33" y="-46.16" font-family="Helvetica,sans-Serif" font-size="14.00"> </text>
<text text-anchor="start" x="496.83" y="-32.16" font-family="Helvetica,sans-Serif" font-size="14.00"> error: 0.765, n=3751 </text>
<text text-anchor="start" x="520.33" y="-18.16" font-family="Helvetica,sans-Serif" font-size="14.00"> p: (0.22, 0.78) </text>
</g>
<!-- 6&#45;&gt;7 -->
<g id="edge8" class="edge">
<title>6:s&#45;&gt;7:n</title>
<path fill="none" stroke="black" d="M575.33,-121.71C575.33,-121.71 575.33,-95.93 575.33,-81.03"/>
<polygon fill="black" stroke="black" points="578.83,-80.71 575.33,-70.71 571.83,-80.71 578.83,-80.71"/>
<text text-anchor="middle" x="611.33" y="-92.51" font-family="Helvetica,sans-Serif" font-size="14.00">&gt; &#45;0.5856</text>
</g>
</g>
</svg>
