<?xml version="1.0" encoding="UTF-8" standalone="no"?>
<!DOCTYPE svg PUBLIC "-//W3C//DTD SVG 1.1//EN"
 "http://www.w3.org/Graphics/SVG/1.1/DTD/svg11.dtd">
<!-- Generated by graphviz version 2.43.0 (0)
 -->
<!-- Title: Tree Pages: 1 -->
<svg width="1574pt" height="1083pt"
 viewBox="0.00 0.00 1573.66 1082.71" xmlns="http://www.w3.org/2000/svg" xmlns:xlink="http://www.w3.org/1999/xlink">
<g id="graph0" class="graph" transform="scale(1 1) rotate(0) translate(18 1064.71)">
<title>Tree</title>
<polygon fill="white" stroke="transparent" points="-18,18 -18,-1064.71 1555.66,-1064.71 1555.66,18 -18,18"/>
<!-- 0 -->
<g id="node1" class="node">
<title>0</title>
<polygon fill="white" stroke="transparent" points="984.33,-1046.71 930.33,-1046.71 930.33,-1010.71 984.33,-1010.71 984.33,-1046.71"/>
<text text-anchor="middle" x="957.33" y="-1025.01" font-family="Helvetica,sans-Serif" font-size="14.00">0</text>
</g>
<!-- 1 -->
<g id="node2" class="node">
<title>1</title>
<polygon fill="#cc3d3d" stroke="black" points="1043.83,-973.71 870.83,-973.71 870.83,-895.71 1043.83,-895.71 1043.83,-973.71"/>
<text text-anchor="start" x="918.33" y="-959.51" font-family="Helvetica,sans-Serif" font-weight="bold" font-size="14.00"> Class=1 </text>
<text text-anchor="start" x="991.33" y="-959.51" font-family="Helvetica,sans-Serif" font-size="14.00"> </text>
<text text-anchor="start" x="878.83" y="-945.51" font-family="Helvetica,sans-Serif" font-size="14.00"> error: 0.995, n=3751 </text>
<text text-anchor="start" x="902.33" y="-931.51" font-family="Helvetica,sans-Serif" font-size="14.00"> p: (0.46, 0.54) </text>
<text text-anchor="start" x="935.83" y="-917.51" font-family="Helvetica,sans-Serif" font-size="14.00">&#45;&#45;&#45;&#45;&#45;&#45;&#45;&#45;</text>
<text text-anchor="start" x="920.83" y="-903.51" font-family="Helvetica,sans-Serif" font-weight="bold" font-size="14.00">v_3=0.03</text>
</g>
<!-- 0&#45;&gt;1 -->
<!-- 2 -->
<g id="node3" class="node">
<title>2</title>
<polygon fill="#e59744" stroke="black" points="903.83,-844.71 730.83,-844.71 730.83,-766.71 903.83,-766.71 903.83,-844.71"/>
<text text-anchor="start" x="778.33" y="-830.51" font-family="Helvetica,sans-Serif" font-weight="bold" font-size="14.00"> Class=1 </text>
<text text-anchor="start" x="851.33" y="-830.51" font-family="Helvetica,sans-Serif" font-size="14.00"> </text>
<text text-anchor="start" x="738.83" y="-816.51" font-family="Helvetica,sans-Serif" font-size="14.00"> error: 0.929, n=3751 </text>
<text text-anchor="start" x="762.33" y="-802.51" font-family="Helvetica,sans-Serif" font-size="14.00"> p: (0.34, 0.66) </text>
<text text-anchor="start" x="793.33" y="-788.51" font-family="Helvetica,sans-Serif" font-size="14.00">&#45;&#45;&#45;&#45;&#45;&#45;&#45;&#45;&#45;</text>
<text text-anchor="start" x="776.33" y="-774.51" font-family="Helvetica,sans-Serif" font-weight="bold" font-size="14.00">v_15=0.01</text>
</g>
<!-- 1&#45;&gt;2 -->
<g id="edge2" class="edge">
<title>1:s&#45;&gt;2:n</title>
<path fill="none" stroke="black" d="M957.33,-895.71C957.33,-895.71 858.58,-859.74 826.95,-848.22"/>
<polygon fill="black" stroke="black" points="827.92,-844.84 817.33,-844.71 825.53,-851.42 827.92,-844.84"/>
<text text-anchor="middle" x="936.83" y="-866.51" font-family="Helvetica,sans-Serif" font-size="14.00">&gt; &#45;0.01649</text>
</g>
<!-- 20 -->
<g id="node4" class="node">
<title>20</title>
<polygon fill="#e59744" stroke="black" points="1184.83,-844.71 1011.83,-844.71 1011.83,-766.71 1184.83,-766.71 1184.83,-844.71"/>
<text text-anchor="start" x="1059.33" y="-830.51" font-family="Helvetica,sans-Serif" font-weight="bold" font-size="14.00"> Class=0 </text>
<text text-anchor="start" x="1132.33" y="-830.51" font-family="Helvetica,sans-Serif" font-size="14.00"> </text>
<text text-anchor="start" x="1019.83" y="-816.51" font-family="Helvetica,sans-Serif" font-size="14.00"> error: 0.985, n=3751 </text>
<text text-anchor="start" x="1043.33" y="-802.51" font-family="Helvetica,sans-Serif" font-size="14.00"> p: (0.57, 0.43) </text>
<text text-anchor="start" x="1074.33" y="-788.51" font-family="Helvetica,sans-Serif" font-size="14.00">&#45;&#45;&#45;&#45;&#45;&#45;&#45;&#45;&#45;</text>
<text text-anchor="start" x="1057.33" y="-774.51" font-family="Helvetica,sans-Serif" font-weight="bold" font-size="14.00">v_14=0.01</text>
</g>
<!-- 1&#45;&gt;20 -->
<g id="edge3" class="edge">
<title>1:s&#45;&gt;20:n</title>
<path fill="none" stroke="black" d="M957.33,-895.71C957.33,-895.71 1056.78,-859.74 1088.64,-848.22"/>
<polygon fill="black" stroke="black" points="1090.12,-851.4 1098.33,-844.71 1087.74,-844.82 1090.12,-851.4"/>
<text text-anchor="middle" x="1091.83" y="-866.51" font-family="Helvetica,sans-Serif" font-size="14.00">&lt;= &#45;0.01649</text>
</g>
<!-- 3 -->
<g id="node5" class="node">
<title>3</title>
<ellipse fill="#c8cc3d" stroke="black" cx="536.33" cy="-676.71" rx="122.16" ry="35.21"/>
<text text-anchor="start" x="497.33" y="-687.51" font-family="Helvetica,sans-Serif" font-weight="bold" font-size="14.00"> Class=1 </text>
<text text-anchor="start" x="570.33" y="-687.51" font-family="Helvetica,sans-Serif" font-size="14.00"> </text>
<text text-anchor="start" x="457.83" y="-673.51" font-family="Helvetica,sans-Serif" font-size="14.00"> error: 0.731, n=3751 </text>
<text text-anchor="start" x="481.33" y="-659.51" font-family="Helvetica,sans-Serif" font-size="14.00"> p: (0.20, 0.80) </text>
</g>
<!-- 2&#45;&gt;3 -->
<g id="edge4" class="edge">
<title>2:s&#45;&gt;3:n</title>
<path fill="none" stroke="black" d="M817.33,-766.71C817.33,-766.71 596.39,-725.04 546.33,-715.6"/>
<polygon fill="black" stroke="black" points="546.8,-712.12 536.33,-713.71 545.51,-719 546.8,-712.12"/>
<text text-anchor="middle" x="755.33" y="-737.51" font-family="Helvetica,sans-Serif" font-size="14.00">&lt;= 0.06482</text>
</g>
<!-- 4 -->
<g id="node6" class="node">
<title>4</title>
<polygon fill="#c8cc3d" stroke="black" points="903.83,-715.71 730.83,-715.71 730.83,-637.71 903.83,-637.71 903.83,-715.71"/>
<text text-anchor="start" x="778.33" y="-701.51" font-family="Helvetica,sans-Serif" font-weight="bold" font-size="14.00"> Class=1 </text>
<text text-anchor="start" x="851.33" y="-701.51" font-family="Helvetica,sans-Serif" font-size="14.00"> </text>
<text text-anchor="start" x="738.83" y="-687.51" font-family="Helvetica,sans-Serif" font-size="14.00"> error: 0.999, n=3751 </text>
<text text-anchor="start" x="762.33" y="-673.51" font-family="Helvetica,sans-Serif" font-size="14.00"> p: (0.48, 0.52) </text>
<text text-anchor="start" x="795.83" y="-659.51" font-family="Helvetica,sans-Serif" font-size="14.00">&#45;&#45;&#45;&#45;&#45;&#45;&#45;&#45;</text>
<text text-anchor="start" x="780.83" y="-645.51" font-family="Helvetica,sans-Serif" font-weight="bold" font-size="14.00">v_7=0.02</text>
</g>
<!-- 2&#45;&gt;4 -->
<g id="edge5" class="edge">
<title>2:s&#45;&gt;4:n</title>
<path fill="none" stroke="black" d="M817.33,-766.71C817.33,-766.71 817.33,-740.93 817.33,-726.03"/>
<polygon fill="black" stroke="black" points="820.83,-725.71 817.33,-715.71 813.83,-725.71 820.83,-725.71"/>
<text text-anchor="middle" x="855.33" y="-737.51" font-family="Helvetica,sans-Serif" font-size="14.00">&gt; 0.06482</text>
</g>
<!-- 21 -->
<g id="node22" class="node">
<title>21</title>
<ellipse fill="#c8cc3d" stroke="black" cx="1098.33" cy="-676.71" rx="122.16" ry="35.21"/>
<text text-anchor="start" x="1059.33" y="-687.51" font-family="Helvetica,sans-Serif" font-weight="bold" font-size="14.00"> Class=0 </text>
<text text-anchor="start" x="1132.33" y="-687.51" font-family="Helvetica,sans-Serif" font-size="14.00"> </text>
<text text-anchor="start" x="1019.83" y="-673.51" font-family="Helvetica,sans-Serif" font-size="14.00"> error: 0.914, n=3751 </text>
<text text-anchor="start" x="1043.33" y="-659.51" font-family="Helvetica,sans-Serif" font-size="14.00"> p: (0.67, 0.33) </text>
</g>
<!-- 20&#45;&gt;21 -->
<g id="edge21" class="edge">
<title>20:s&#45;&gt;21:n</title>
<path fill="none" stroke="black" d="M1098.33,-766.71C1098.33,-766.71 1098.33,-739.33 1098.33,-723.93"/>
<polygon fill="black" stroke="black" points="1101.83,-723.71 1098.33,-713.71 1094.83,-723.71 1101.83,-723.71"/>
<text text-anchor="middle" x="1144.83" y="-737.51" font-family="Helvetica,sans-Serif" font-size="14.00">&lt;= &#45;0.03058</text>
</g>
<!-- 22 -->
<g id="node23" class="node">
<title>22</title>
<ellipse fill="#c8cc3d" stroke="black" cx="1415.33" cy="-676.71" rx="122.16" ry="35.21"/>
<text text-anchor="start" x="1376.33" y="-687.51" font-family="Helvetica,sans-Serif" font-weight="bold" font-size="14.00"> Class=1 </text>
<text text-anchor="start" x="1449.33" y="-687.51" font-family="Helvetica,sans-Serif" font-size="14.00"> </text>
<text text-anchor="start" x="1336.83" y="-673.51" font-family="Helvetica,sans-Serif" font-size="14.00"> error: 0.998, n=3751 </text>
<text text-anchor="start" x="1360.33" y="-659.51" font-family="Helvetica,sans-Serif" font-size="14.00"> p: (0.47, 0.53) </text>
</g>
<!-- 20&#45;&gt;22 -->
<g id="edge22" class="edge">
<title>20:s&#45;&gt;22:n</title>
<path fill="none" stroke="black" d="M1098.33,-766.71C1098.33,-766.71 1350.88,-724.49 1405.14,-715.41"/>
<polygon fill="black" stroke="black" points="1406.04,-718.81 1415.33,-713.71 1404.89,-711.91 1406.04,-718.81"/>
<text text-anchor="middle" x="1333.83" y="-737.51" font-family="Helvetica,sans-Serif" font-size="14.00">&gt; &#45;0.03058</text>
</g>
<!-- 5 -->
<g id="node7" class="node">
<title>5</title>
<polygon fill="#8ee544" stroke="black" points="770.83,-586.71 597.83,-586.71 597.83,-508.71 770.83,-508.71 770.83,-586.71"/>
<text text-anchor="start" x="645.33" y="-572.51" font-family="Helvetica,sans-Serif" font-weight="bold" font-size="14.00"> Class=0 </text>
<text text-anchor="start" x="718.33" y="-572.51" font-family="Helvetica,sans-Serif" font-size="14.00"> </text>
<text text-anchor="start" x="605.83" y="-558.51" font-family="Helvetica,sans-Serif" font-size="14.00"> error: 0.993, n=3751 </text>
<text text-anchor="start" x="629.33" y="-544.51" font-family="Helvetica,sans-Serif" font-size="14.00"> p: (0.55, 0.45) </text>
<text text-anchor="start" x="662.83" y="-530.51" font-family="Helvetica,sans-Serif" font-size="14.00">&#45;&#45;&#45;&#45;&#45;&#45;&#45;&#45;</text>
<text text-anchor="start" x="647.83" y="-516.51" font-family="Helvetica,sans-Serif" font-weight="bold" font-size="14.00">v_7=0.02</text>
</g>
<!-- 4&#45;&gt;5 -->
<g id="edge6" class="edge">
<title>4:s&#45;&gt;5:n</title>
<path fill="none" stroke="black" d="M817.33,-637.71C817.33,-637.71 724.39,-602.07 693.89,-590.38"/>
<polygon fill="black" stroke="black" points="694.92,-587.02 684.33,-586.71 692.41,-593.56 694.92,-587.02"/>
<text text-anchor="middle" x="809.83" y="-608.51" font-family="Helvetica,sans-Serif" font-size="14.00">&lt;= 0.3043</text>
</g>
<!-- 18 -->
<g id="node8" class="node">
<title>18</title>
<polygon fill="#8ee544" stroke="black" points="1033.83,-586.71 860.83,-586.71 860.83,-508.71 1033.83,-508.71 1033.83,-586.71"/>
<text text-anchor="start" x="908.33" y="-572.51" font-family="Helvetica,sans-Serif" font-weight="bold" font-size="14.00"> Class=1 </text>
<text text-anchor="start" x="981.33" y="-572.51" font-family="Helvetica,sans-Serif" font-size="14.00"> </text>
<text text-anchor="start" x="868.83" y="-558.51" font-family="Helvetica,sans-Serif" font-size="14.00"> error: 0.864, n=3751 </text>
<text text-anchor="start" x="892.33" y="-544.51" font-family="Helvetica,sans-Serif" font-size="14.00"> p: (0.29, 0.71) </text>
<text text-anchor="start" x="923.33" y="-530.51" font-family="Helvetica,sans-Serif" font-size="14.00">&#45;&#45;&#45;&#45;&#45;&#45;&#45;&#45;&#45;</text>
<text text-anchor="start" x="906.33" y="-516.51" font-family="Helvetica,sans-Serif" font-weight="bold" font-size="14.00">v_21=0.01</text>
</g>
<!-- 4&#45;&gt;18 -->
<g id="edge7" class="edge">
<title>4:s&#45;&gt;18:n</title>
<path fill="none" stroke="black" d="M817.33,-637.71C817.33,-637.71 908.17,-602.07 937.98,-590.38"/>
<polygon fill="black" stroke="black" points="939.3,-593.62 947.33,-586.71 936.74,-587.1 939.3,-593.62"/>
<text text-anchor="middle" x="931.83" y="-608.51" font-family="Helvetica,sans-Serif" font-size="14.00">&gt; 0.3043</text>
</g>
<!-- 6 -->
<g id="node9" class="node">
<title>6</title>
<polygon fill="#3dcc45" stroke="black" points="489.83,-457.71 316.83,-457.71 316.83,-379.71 489.83,-379.71 489.83,-457.71"/>
<text text-anchor="start" x="364.33" y="-443.51" font-family="Helvetica,sans-Serif" font-weight="bold" font-size="14.00"> Class=0 </text>
<text text-anchor="start" x="437.33" y="-443.51" font-family="Helvetica,sans-Serif" font-size="14.00"> </text>
<text text-anchor="start" x="324.83" y="-429.51" font-family="Helvetica,sans-Serif" font-size="14.00"> error: 0.927, n=3751 </text>
<text text-anchor="start" x="348.33" y="-415.51" font-family="Helvetica,sans-Serif" font-size="14.00"> p: (0.66, 0.34) </text>
<text text-anchor="start" x="381.83" y="-401.51" font-family="Helvetica,sans-Serif" font-size="14.00">&#45;&#45;&#45;&#45;&#45;&#45;&#45;&#45;</text>
<text text-anchor="start" x="366.83" y="-387.51" font-family="Helvetica,sans-Serif" font-weight="bold" font-size="14.00">v_0=0.14</text>
</g>
<!-- 5&#45;&gt;6 -->
<g id="edge8" class="edge">
<title>5:s&#45;&gt;6:n</title>
<path fill="none" stroke="black" d="M684.33,-508.71C684.33,-508.71 463.39,-468.61 413.33,-459.53"/>
<polygon fill="black" stroke="black" points="413.79,-456.05 403.33,-457.71 412.54,-462.94 413.79,-456.05"/>
<text text-anchor="middle" x="624.33" y="-479.51" font-family="Helvetica,sans-Serif" font-size="14.00">&lt;= &#45;0.5864</text>
</g>
<!-- 11 -->
<g id="node10" class="node">
<title>11</title>
<polygon fill="#3dcc45" stroke="black" points="770.83,-457.71 597.83,-457.71 597.83,-379.71 770.83,-379.71 770.83,-457.71"/>
<text text-anchor="start" x="645.33" y="-443.51" font-family="Helvetica,sans-Serif" font-weight="bold" font-size="14.00"> Class=1 </text>
<text text-anchor="start" x="718.33" y="-443.51" font-family="Helvetica,sans-Serif" font-size="14.00"> </text>
<text text-anchor="start" x="605.83" y="-429.51" font-family="Helvetica,sans-Serif" font-size="14.00"> error: 0.991, n=3751 </text>
<text text-anchor="start" x="629.33" y="-415.51" font-family="Helvetica,sans-Serif" font-size="14.00"> p: (0.44, 0.56) </text>
<text text-anchor="start" x="660.33" y="-401.51" font-family="Helvetica,sans-Serif" font-size="14.00">&#45;&#45;&#45;&#45;&#45;&#45;&#45;&#45;&#45;</text>
<text text-anchor="start" x="643.33" y="-387.51" font-family="Helvetica,sans-Serif" font-weight="bold" font-size="14.00">v_16=0.01</text>
</g>
<!-- 5&#45;&gt;11 -->
<g id="edge9" class="edge">
<title>5:s&#45;&gt;11:n</title>
<path fill="none" stroke="black" d="M684.33,-508.71C684.33,-508.71 684.33,-482.93 684.33,-468.03"/>
<polygon fill="black" stroke="black" points="687.83,-467.71 684.33,-457.71 680.83,-467.71 687.83,-467.71"/>
<text text-anchor="middle" x="720.33" y="-479.51" font-family="Helvetica,sans-Serif" font-size="14.00">&gt; &#45;0.5864</text>
</g>
<!-- 19 -->
<g id="node21" class="node">
<title>19</title>
<ellipse fill="#3dcc45" stroke="black" cx="965.33" cy="-418.71" rx="122.16" ry="35.21"/>
<text text-anchor="start" x="926.33" y="-429.51" font-family="Helvetica,sans-Serif" font-weight="bold" font-size="14.00"> Class=1 </text>
<text text-anchor="start" x="999.33" y="-429.51" font-family="Helvetica,sans-Serif" font-size="14.00"> </text>
<text text-anchor="start" x="886.83" y="-415.51" font-family="Helvetica,sans-Serif" font-size="14.00"> error: 0.765, n=3751 </text>
<text text-anchor="start" x="910.33" y="-401.51" font-family="Helvetica,sans-Serif" font-size="14.00"> p: (0.22, 0.78) </text>
</g>
<!-- 18&#45;&gt;19 -->
<g id="edge20" class="edge">
<title>18:s&#45;&gt;19:n</title>
<path fill="none" stroke="black" d="M947.33,-508.71C947.33,-508.71 956.83,-480.73 962.03,-465.43"/>
<polygon fill="black" stroke="black" points="965.43,-466.31 965.33,-455.71 958.8,-464.05 965.43,-466.31"/>
<text text-anchor="middle" x="995.33" y="-479.51" font-family="Helvetica,sans-Serif" font-size="14.00">&gt; &#45;0.5594</text>
</g>
<!-- 7 -->
<g id="node11" class="node">
<title>7</title>
<polygon fill="#44e5a1" stroke="black" points="208.83,-328.71 35.83,-328.71 35.83,-250.71 208.83,-250.71 208.83,-328.71"/>
<text text-anchor="start" x="83.33" y="-314.51" font-family="Helvetica,sans-Serif" font-weight="bold" font-size="14.00"> Class=0 </text>
<text text-anchor="start" x="156.33" y="-314.51" font-family="Helvetica,sans-Serif" font-size="14.00"> </text>
<text text-anchor="start" x="43.83" y="-300.51" font-family="Helvetica,sans-Serif" font-size="14.00"> error: 0.686, n=3751 </text>
<text text-anchor="start" x="67.33" y="-286.51" font-family="Helvetica,sans-Serif" font-size="14.00"> p: (0.82, 0.18) </text>
<text text-anchor="start" x="98.33" y="-272.51" font-family="Helvetica,sans-Serif" font-size="14.00">&#45;&#45;&#45;&#45;&#45;&#45;&#45;&#45;&#45;</text>
<text text-anchor="start" x="81.33" y="-258.51" font-family="Helvetica,sans-Serif" font-weight="bold" font-size="14.00">v_15=0.01</text>
</g>
<!-- 6&#45;&gt;7 -->
<g id="edge10" class="edge">
<title>6:s&#45;&gt;7:n</title>
<path fill="none" stroke="black" d="M403.33,-379.71C403.33,-379.71 182.39,-339.61 132.33,-330.53"/>
<polygon fill="black" stroke="black" points="132.79,-327.05 122.33,-328.71 131.54,-333.94 132.79,-327.05"/>
<text text-anchor="middle" x="333.83" y="-350.51" font-family="Helvetica,sans-Serif" font-size="14.00">&lt;= &#45;3.065</text>
</g>
<!-- 10 -->
<g id="node12" class="node">
<title>10</title>
<ellipse fill="#44e5a1" stroke="black" cx="403.33" cy="-289.71" rx="122.16" ry="35.21"/>
<text text-anchor="start" x="364.33" y="-300.51" font-family="Helvetica,sans-Serif" font-weight="bold" font-size="14.00"> Class=0 </text>
<text text-anchor="start" x="437.33" y="-300.51" font-family="Helvetica,sans-Serif" font-size="14.00"> </text>
<text text-anchor="start" x="324.83" y="-286.51" font-family="Helvetica,sans-Serif" font-size="14.00"> error: 1.000, n=3751 </text>
<text text-anchor="start" x="348.33" y="-272.51" font-family="Helvetica,sans-Serif" font-size="14.00"> p: (0.50, 0.50) </text>
</g>
<!-- 6&#45;&gt;10 -->
<g id="edge11" class="edge">
<title>6:s&#45;&gt;10:n</title>
<path fill="none" stroke="black" d="M403.33,-379.71C403.33,-379.71 403.33,-352.33 403.33,-336.93"/>
<polygon fill="black" stroke="black" points="406.83,-336.71 403.33,-326.71 399.83,-336.71 406.83,-336.71"/>
<text text-anchor="middle" x="434.83" y="-350.51" font-family="Helvetica,sans-Serif" font-size="14.00">&gt; &#45;3.065</text>
</g>
<!-- 12 -->
<g id="node15" class="node">
<title>12</title>
<polygon fill="#44e5a1" stroke="black" points="770.83,-328.71 597.83,-328.71 597.83,-250.71 770.83,-250.71 770.83,-328.71"/>
<text text-anchor="start" x="645.33" y="-314.51" font-family="Helvetica,sans-Serif" font-weight="bold" font-size="14.00"> Class=1 </text>
<text text-anchor="start" x="718.33" y="-314.51" font-family="Helvetica,sans-Serif" font-size="14.00"> </text>
<text text-anchor="start" x="605.83" y="-300.51" font-family="Helvetica,sans-Serif" font-size="14.00"> error: 0.907, n=3751 </text>
<text text-anchor="start" x="629.33" y="-286.51" font-family="Helvetica,sans-Serif" font-size="14.00"> p: (0.32, 0.68) </text>
<text text-anchor="start" x="662.83" y="-272.51" font-family="Helvetica,sans-Serif" font-size="14.00">&#45;&#45;&#45;&#45;&#45;&#45;&#45;&#45;</text>
<text text-anchor="start" x="647.83" y="-258.51" font-family="Helvetica,sans-Serif" font-weight="bold" font-size="14.00">v_3=0.03</text>
</g>
<!-- 11&#45;&gt;12 -->
<g id="edge14" class="edge">
<title>11:s&#45;&gt;12:n</title>
<path fill="none" stroke="black" d="M684.33,-379.71C684.33,-379.71 684.33,-353.93 684.33,-339.03"/>
<polygon fill="black" stroke="black" points="687.83,-338.71 684.33,-328.71 680.83,-338.71 687.83,-338.71"/>
<text text-anchor="middle" x="730.83" y="-350.51" font-family="Helvetica,sans-Serif" font-size="14.00">&lt;= &#45;0.05898</text>
</g>
<!-- 15 -->
<g id="node16" class="node">
<title>15</title>
<polygon fill="#44e5a1" stroke="black" points="1051.83,-328.71 878.83,-328.71 878.83,-250.71 1051.83,-250.71 1051.83,-328.71"/>
<text text-anchor="start" x="926.33" y="-314.51" font-family="Helvetica,sans-Serif" font-weight="bold" font-size="14.00"> Class=0 </text>
<text text-anchor="start" x="999.33" y="-314.51" font-family="Helvetica,sans-Serif" font-size="14.00"> </text>
<text text-anchor="start" x="886.83" y="-300.51" font-family="Helvetica,sans-Serif" font-size="14.00"> error: 0.988, n=3751 </text>
<text text-anchor="start" x="910.33" y="-286.51" font-family="Helvetica,sans-Serif" font-size="14.00"> p: (0.57, 0.43) </text>
<text text-anchor="start" x="941.33" y="-272.51" font-family="Helvetica,sans-Serif" font-size="14.00">&#45;&#45;&#45;&#45;&#45;&#45;&#45;&#45;&#45;</text>
<text text-anchor="start" x="924.33" y="-258.51" font-family="Helvetica,sans-Serif" font-weight="bold" font-size="14.00">v_13=0.01</text>
</g>
<!-- 11&#45;&gt;15 -->
<g id="edge15" class="edge">
<title>11:s&#45;&gt;15:n</title>
<path fill="none" stroke="black" d="M684.33,-379.71C684.33,-379.71 905.27,-339.61 955.33,-330.53"/>
<polygon fill="black" stroke="black" points="956.12,-333.94 965.33,-328.71 954.87,-327.05 956.12,-333.94"/>
<text text-anchor="middle" x="910.83" y="-350.51" font-family="Helvetica,sans-Serif" font-size="14.00">&gt; &#45;0.05898</text>
</g>
<!-- 8 -->
<g id="node13" class="node">
<title>8</title>
<polygon fill="#3dc0cc" stroke="black" points="208.83,-199.71 35.83,-199.71 35.83,-121.71 208.83,-121.71 208.83,-199.71"/>
<text text-anchor="start" x="83.33" y="-185.51" font-family="Helvetica,sans-Serif" font-weight="bold" font-size="14.00"> Class=0 </text>
<text text-anchor="start" x="156.33" y="-185.51" font-family="Helvetica,sans-Serif" font-size="14.00"> </text>
<text text-anchor="start" x="43.83" y="-171.51" font-family="Helvetica,sans-Serif" font-size="14.00"> error: 0.513, n=3751 </text>
<text text-anchor="start" x="67.33" y="-157.51" font-family="Helvetica,sans-Serif" font-size="14.00"> p: (0.89, 0.11) </text>
<text text-anchor="start" x="98.33" y="-143.51" font-family="Helvetica,sans-Serif" font-size="14.00">&#45;&#45;&#45;&#45;&#45;&#45;&#45;&#45;&#45;</text>
<text text-anchor="start" x="81.33" y="-129.51" font-family="Helvetica,sans-Serif" font-weight="bold" font-size="14.00">v_13=0.01</text>
</g>
<!-- 7&#45;&gt;8 -->
<g id="edge12" class="edge">
<title>7:s&#45;&gt;8:n</title>
<path fill="none" stroke="black" d="M122.33,-250.71C122.33,-250.71 122.33,-224.93 122.33,-210.03"/>
<polygon fill="black" stroke="black" points="125.83,-209.71 122.33,-199.71 118.83,-209.71 125.83,-209.71"/>
<text text-anchor="middle" x="155.83" y="-221.51" font-family="Helvetica,sans-Serif" font-size="14.00">&gt; 0.4632</text>
</g>
<!-- 9 -->
<g id="node14" class="node">
<title>9</title>
<ellipse fill="#4485e5" stroke="black" cx="122.33" cy="-35.36" rx="122.16" ry="35.21"/>
<text text-anchor="start" x="83.33" y="-46.16" font-family="Helvetica,sans-Serif" font-weight="bold" font-size="14.00"> Class=0 </text>
<text text-anchor="start" x="156.33" y="-46.16" font-family="Helvetica,sans-Serif" font-size="14.00"> </text>
<text text-anchor="start" x="43.83" y="-32.16" font-family="Helvetica,sans-Serif" font-size="14.00"> error: 0.621, n=3751 </text>
<text text-anchor="start" x="67.33" y="-18.16" font-family="Helvetica,sans-Serif" font-size="14.00"> p: (0.85, 0.15) </text>
</g>
<!-- 8&#45;&gt;9 -->
<g id="edge13" class="edge">
<title>8:s&#45;&gt;9:n</title>
<path fill="none" stroke="black" d="M122.33,-121.71C122.33,-121.71 122.33,-95.93 122.33,-81.03"/>
<polygon fill="black" stroke="black" points="125.83,-80.71 122.33,-70.71 118.83,-80.71 125.83,-80.71"/>
<text text-anchor="middle" x="161.83" y="-92.51" font-family="Helvetica,sans-Serif" font-size="14.00">&lt;= 0.3722</text>
</g>
<!-- 13 -->
<g id="node17" class="node">
<title>13</title>
<polygon fill="#3dc0cc" stroke="black" points="757.83,-199.71 584.83,-199.71 584.83,-121.71 757.83,-121.71 757.83,-199.71"/>
<text text-anchor="start" x="632.33" y="-185.51" font-family="Helvetica,sans-Serif" font-weight="bold" font-size="14.00"> Class=1 </text>
<text text-anchor="start" x="705.33" y="-185.51" font-family="Helvetica,sans-Serif" font-size="14.00"> </text>
<text text-anchor="start" x="592.83" y="-171.51" font-family="Helvetica,sans-Serif" font-size="14.00"> error: 0.955, n=3751 </text>
<text text-anchor="start" x="616.33" y="-157.51" font-family="Helvetica,sans-Serif" font-size="14.00"> p: (0.38, 0.62) </text>
<text text-anchor="start" x="647.33" y="-143.51" font-family="Helvetica,sans-Serif" font-size="14.00">&#45;&#45;&#45;&#45;&#45;&#45;&#45;&#45;&#45;</text>
<text text-anchor="start" x="630.33" y="-129.51" font-family="Helvetica,sans-Serif" font-weight="bold" font-size="14.00">v_23=0.01</text>
</g>
<!-- 12&#45;&gt;13 -->
<g id="edge16" class="edge">
<title>12:s&#45;&gt;13:n</title>
<path fill="none" stroke="black" d="M684.33,-250.71C684.33,-250.71 677.61,-224.36 673.84,-209.54"/>
<polygon fill="black" stroke="black" points="677.19,-208.54 671.33,-199.71 670.41,-210.27 677.19,-208.54"/>
<text text-anchor="middle" x="715.33" y="-221.51" font-family="Helvetica,sans-Serif" font-size="14.00">&lt;= 2.407</text>
</g>
<!-- 16 -->
<g id="node19" class="node">
<title>16</title>
<polygon fill="#3dc0cc" stroke="black" points="1071.83,-199.71 898.83,-199.71 898.83,-121.71 1071.83,-121.71 1071.83,-199.71"/>
<text text-anchor="start" x="946.33" y="-185.51" font-family="Helvetica,sans-Serif" font-weight="bold" font-size="14.00"> Class=1 </text>
<text text-anchor="start" x="1019.33" y="-185.51" font-family="Helvetica,sans-Serif" font-size="14.00"> </text>
<text text-anchor="start" x="906.83" y="-171.51" font-family="Helvetica,sans-Serif" font-size="14.00"> error: 1.000, n=3751 </text>
<text text-anchor="start" x="930.33" y="-157.51" font-family="Helvetica,sans-Serif" font-size="14.00"> p: (0.50, 0.50) </text>
<text text-anchor="start" x="961.33" y="-143.51" font-family="Helvetica,sans-Serif" font-size="14.00">&#45;&#45;&#45;&#45;&#45;&#45;&#45;&#45;&#45;</text>
<text text-anchor="start" x="944.33" y="-129.51" font-family="Helvetica,sans-Serif" font-weight="bold" font-size="14.00">v_15=0.01</text>
</g>
<!-- 15&#45;&gt;16 -->
<g id="edge18" class="edge">
<title>15:s&#45;&gt;16:n</title>
<path fill="none" stroke="black" d="M965.33,-250.71C965.33,-250.71 975.89,-223.79 981.66,-209.06"/>
<polygon fill="black" stroke="black" points="984.94,-210.3 985.33,-199.71 978.42,-207.74 984.94,-210.3"/>
<text text-anchor="middle" x="1014.33" y="-221.51" font-family="Helvetica,sans-Serif" font-size="14.00">&gt; &#45;0.6536</text>
</g>
<!-- 14 -->
<g id="node18" class="node">
<title>14</title>
<ellipse fill="#4485e5" stroke="black" cx="669.33" cy="-35.36" rx="122.16" ry="35.21"/>
<text text-anchor="start" x="630.33" y="-46.16" font-family="Helvetica,sans-Serif" font-weight="bold" font-size="14.00"> Class=1 </text>
<text text-anchor="start" x="703.33" y="-46.16" font-family="Helvetica,sans-Serif" font-size="14.00"> </text>
<text text-anchor="start" x="590.83" y="-32.16" font-family="Helvetica,sans-Serif" font-size="14.00"> error: 0.990, n=3751 </text>
<text text-anchor="start" x="614.33" y="-18.16" font-family="Helvetica,sans-Serif" font-size="14.00"> p: (0.44, 0.56) </text>
</g>
<!-- 13&#45;&gt;14 -->
<g id="edge17" class="edge">
<title>13:s&#45;&gt;14:n</title>
<path fill="none" stroke="black" d="M671.33,-121.71C671.33,-121.71 670.32,-95.93 669.73,-81.03"/>
<polygon fill="black" stroke="black" points="673.22,-80.57 669.33,-70.71 666.22,-80.84 673.22,-80.57"/>
<text text-anchor="middle" x="710.83" y="-92.51" font-family="Helvetica,sans-Serif" font-size="14.00">&lt;= 0.3689</text>
</g>
<!-- 17 -->
<g id="node20" class="node">
<title>17</title>
<ellipse fill="#4485e5" stroke="black" cx="986.33" cy="-35.36" rx="122.16" ry="35.21"/>
<text text-anchor="start" x="947.33" y="-46.16" font-family="Helvetica,sans-Serif" font-weight="bold" font-size="14.00"> Class=0 </text>
<text text-anchor="start" x="1020.33" y="-46.16" font-family="Helvetica,sans-Serif" font-size="14.00"> </text>
<text text-anchor="start" x="907.83" y="-32.16" font-family="Helvetica,sans-Serif" font-size="14.00"> error: 0.992, n=3751 </text>
<text text-anchor="start" x="931.33" y="-18.16" font-family="Helvetica,sans-Serif" font-size="14.00"> p: (0.55, 0.45) </text>
</g>
<!-- 16&#45;&gt;17 -->
<g id="edge19" class="edge">
<title>16:s&#45;&gt;17:n</title>
<path fill="none" stroke="black" d="M985.33,-121.71C985.33,-121.71 985.83,-95.93 986.13,-81.03"/>
<polygon fill="black" stroke="black" points="989.63,-80.78 986.33,-70.71 982.63,-80.64 989.63,-80.78"/>
<text text-anchor="middle" x="1019.83" y="-92.51" font-family="Helvetica,sans-Serif" font-size="14.00">&gt; 0.1757</text>
</g>
</g>
</svg>
