<?xml version="1.0" encoding="UTF-8" standalone="no"?>
<!DOCTYPE svg PUBLIC "-//W3C//DTD SVG 1.1//EN"
 "http://www.w3.org/Graphics/SVG/1.1/DTD/svg11.dtd">
<!-- Generated by graphviz version 2.43.0 (0)
 -->
<!-- Title: Tree Pages: 1 -->
<svg width="1369pt" height="825pt"
 viewBox="0.00 0.00 1368.93 824.71" xmlns="http://www.w3.org/2000/svg" xmlns:xlink="http://www.w3.org/1999/xlink">
<g id="graph0" class="graph" transform="scale(1 1) rotate(0) translate(18 806.71)">
<title>Tree</title>
<polygon fill="white" stroke="transparent" points="-18,18 -18,-806.71 1350.93,-806.71 1350.93,18 -18,18"/>
<!-- 0 -->
<g id="node1" class="node">
<title>0</title>
<polygon fill="white" stroke="transparent" points="562.97,-788.71 508.97,-788.71 508.97,-752.71 562.97,-752.71 562.97,-788.71"/>
<text text-anchor="middle" x="535.97" y="-767.01" font-family="Helvetica,sans-Serif" font-size="14.00">0</text>
</g>
<!-- 1 -->
<g id="node2" class="node">
<title>1</title>
<polygon fill="#cc3d3d" stroke="black" points="622.97,-715.71 448.97,-715.71 448.97,-637.71 622.97,-637.71 622.97,-715.71"/>
<text text-anchor="start" x="475.47" y="-701.51" font-family="Helvetica,sans-Serif" font-weight="bold" font-size="14.00"> Class=benign </text>
<text text-anchor="start" x="591.47" y="-701.51" font-family="Helvetica,sans-Serif" font-size="14.00"> </text>
<text text-anchor="start" x="461.97" y="-687.51" font-family="Helvetica,sans-Serif" font-size="14.00"> error: 0.929, n=699 </text>
<text text-anchor="start" x="480.97" y="-673.51" font-family="Helvetica,sans-Serif" font-size="14.00"> p: (0.66, 0.34) </text>
<text text-anchor="start" x="482.97" y="-659.51" font-family="Helvetica,sans-Serif" font-size="14.00">&#45;&#45;&#45;&#45;&#45;&#45;&#45;&#45;&#45;&#45;&#45;&#45;&#45;&#45;&#45;&#45;&#45;&#45;&#45;&#45;</text>
<text text-anchor="start" x="456.97" y="-645.51" font-family="Helvetica,sans-Serif" font-weight="bold" font-size="14.00">Cell_Size_Uniformity</text>
</g>
<!-- 0&#45;&gt;1 -->
<!-- 2 -->
<g id="node3" class="node">
<title>2</title>
<polygon fill="#e5b844" stroke="black" points="472.97,-586.71 308.97,-586.71 308.97,-508.71 472.97,-508.71 472.97,-586.71"/>
<text text-anchor="start" x="317.47" y="-572.51" font-family="Helvetica,sans-Serif" font-weight="bold" font-size="14.00"> Class=malignant </text>
<text text-anchor="start" x="459.47" y="-572.51" font-family="Helvetica,sans-Serif" font-size="14.00"> </text>
<text text-anchor="start" x="316.97" y="-558.51" font-family="Helvetica,sans-Serif" font-size="14.00"> error: 0.344, n=699 </text>
<text text-anchor="start" x="335.97" y="-544.51" font-family="Helvetica,sans-Serif" font-size="14.00"> p: (0.06, 0.94) </text>
<text text-anchor="start" x="361.97" y="-530.51" font-family="Helvetica,sans-Serif" font-size="14.00">&#45;&#45;&#45;&#45;&#45;&#45;&#45;&#45;&#45;&#45;&#45;</text>
<text text-anchor="start" x="344.47" y="-516.51" font-family="Helvetica,sans-Serif" font-weight="bold" font-size="14.00">Bare_Nuclei</text>
</g>
<!-- 1&#45;&gt;2 -->
<g id="edge2" class="edge">
<title>1:s&#45;&gt;2:n</title>
<path fill="none" stroke="black" d="M535.97,-637.71C535.97,-637.71 432.74,-601.4 400.48,-590.06"/>
<polygon fill="black" stroke="black" points="401.56,-586.73 390.97,-586.71 399.24,-593.33 401.56,-586.73"/>
<text text-anchor="middle" x="493.97" y="-608.51" font-family="Helvetica,sans-Serif" font-size="14.00">&gt; 3</text>
</g>
<!-- 9 -->
<g id="node4" class="node">
<title>9</title>
<polygon fill="#e5b844" stroke="black" points="748.97,-586.71 584.97,-586.71 584.97,-508.71 748.97,-508.71 748.97,-586.71"/>
<text text-anchor="start" x="606.47" y="-572.51" font-family="Helvetica,sans-Serif" font-weight="bold" font-size="14.00"> Class=benign </text>
<text text-anchor="start" x="722.47" y="-572.51" font-family="Helvetica,sans-Serif" font-size="14.00"> </text>
<text text-anchor="start" x="592.97" y="-558.51" font-family="Helvetica,sans-Serif" font-size="14.00"> error: 0.391, n=699 </text>
<text text-anchor="start" x="611.97" y="-544.51" font-family="Helvetica,sans-Serif" font-size="14.00"> p: (0.92, 0.08) </text>
<text text-anchor="start" x="637.97" y="-530.51" font-family="Helvetica,sans-Serif" font-size="14.00">&#45;&#45;&#45;&#45;&#45;&#45;&#45;&#45;&#45;&#45;&#45;</text>
<text text-anchor="start" x="620.47" y="-516.51" font-family="Helvetica,sans-Serif" font-weight="bold" font-size="14.00">Bare_Nuclei</text>
</g>
<!-- 1&#45;&gt;9 -->
<g id="edge3" class="edge">
<title>1:s&#45;&gt;9:n</title>
<path fill="none" stroke="black" d="M535.97,-637.71C535.97,-637.71 627.51,-602.07 657.54,-590.38"/>
<polygon fill="black" stroke="black" points="658.92,-593.6 666.97,-586.71 656.38,-587.08 658.92,-593.6"/>
<text text-anchor="middle" x="636.97" y="-608.51" font-family="Helvetica,sans-Serif" font-size="14.00">&lt;= 3</text>
</g>
<!-- 3 -->
<g id="node5" class="node">
<title>3</title>
<polygon fill="#8dcc3d" stroke="black" points="229.97,-457.71 55.97,-457.71 55.97,-379.71 229.97,-379.71 229.97,-457.71"/>
<text text-anchor="start" x="69.47" y="-443.51" font-family="Helvetica,sans-Serif" font-weight="bold" font-size="14.00"> Class=malignant </text>
<text text-anchor="start" x="211.47" y="-443.51" font-family="Helvetica,sans-Serif" font-size="14.00"> </text>
<text text-anchor="start" x="68.97" y="-429.51" font-family="Helvetica,sans-Serif" font-size="14.00"> error: 0.503, n=699 </text>
<text text-anchor="start" x="87.97" y="-415.51" font-family="Helvetica,sans-Serif" font-size="14.00"> p: (0.11, 0.89) </text>
<text text-anchor="start" x="89.97" y="-401.51" font-family="Helvetica,sans-Serif" font-size="14.00">&#45;&#45;&#45;&#45;&#45;&#45;&#45;&#45;&#45;&#45;&#45;&#45;&#45;&#45;&#45;&#45;&#45;&#45;&#45;&#45;</text>
<text text-anchor="start" x="63.97" y="-387.51" font-family="Helvetica,sans-Serif" font-weight="bold" font-size="14.00">Cell_Size_Uniformity</text>
</g>
<!-- 2&#45;&gt;3 -->
<g id="edge4" class="edge">
<title>2:s&#45;&gt;3:n</title>
<path fill="none" stroke="black" d="M390.97,-508.71C390.97,-508.71 199.39,-469.31 152.99,-459.77"/>
<polygon fill="black" stroke="black" points="153.47,-456.3 142.97,-457.71 152.06,-463.15 153.47,-456.3"/>
<text text-anchor="middle" x="315.97" y="-479.51" font-family="Helvetica,sans-Serif" font-size="14.00">&lt;= 7</text>
</g>
<!-- 6 -->
<g id="node6" class="node">
<title>6</title>
<polygon fill="#8dcc3d" stroke="black" points="472.97,-457.71 308.97,-457.71 308.97,-379.71 472.97,-379.71 472.97,-457.71"/>
<text text-anchor="start" x="317.47" y="-443.51" font-family="Helvetica,sans-Serif" font-weight="bold" font-size="14.00"> Class=malignant </text>
<text text-anchor="start" x="459.47" y="-443.51" font-family="Helvetica,sans-Serif" font-size="14.00"> </text>
<text text-anchor="start" x="316.97" y="-429.51" font-family="Helvetica,sans-Serif" font-size="14.00"> error: 0.149, n=699 </text>
<text text-anchor="start" x="335.97" y="-415.51" font-family="Helvetica,sans-Serif" font-size="14.00"> p: (0.02, 0.98) </text>
<text text-anchor="start" x="351.47" y="-401.51" font-family="Helvetica,sans-Serif" font-size="14.00">&#45;&#45;&#45;&#45;&#45;&#45;&#45;&#45;&#45;&#45;&#45;&#45;&#45;&#45;&#45;</text>
<text text-anchor="start" x="324.47" y="-387.51" font-family="Helvetica,sans-Serif" font-weight="bold" font-size="14.00">Bland_Chromatin</text>
</g>
<!-- 2&#45;&gt;6 -->
<g id="edge5" class="edge">
<title>2:s&#45;&gt;6:n</title>
<path fill="none" stroke="black" d="M390.97,-508.71C390.97,-508.71 390.97,-482.93 390.97,-468.03"/>
<polygon fill="black" stroke="black" points="394.47,-467.71 390.97,-457.71 387.47,-467.71 394.47,-467.71"/>
<text text-anchor="middle" x="403.97" y="-479.51" font-family="Helvetica,sans-Serif" font-size="14.00">&gt; 7</text>
</g>
<!-- 10 -->
<g id="node11" class="node">
<title>10</title>
<ellipse fill="#8dcc3d" stroke="black" cx="666.97" cy="-418.71" rx="115.93" ry="35.21"/>
<text text-anchor="start" x="606.47" y="-429.51" font-family="Helvetica,sans-Serif" font-weight="bold" font-size="14.00"> Class=benign </text>
<text text-anchor="start" x="722.47" y="-429.51" font-family="Helvetica,sans-Serif" font-size="14.00"> </text>
<text text-anchor="start" x="592.97" y="-415.51" font-family="Helvetica,sans-Serif" font-size="14.00"> error: 0.026, n=699 </text>
<text text-anchor="start" x="611.97" y="-401.51" font-family="Helvetica,sans-Serif" font-size="14.00"> p: (1.00, 0.00) </text>
</g>
<!-- 9&#45;&gt;10 -->
<g id="edge10" class="edge">
<title>9:s&#45;&gt;10:n</title>
<path fill="none" stroke="black" d="M666.97,-508.71C666.97,-508.71 666.97,-481.33 666.97,-465.93"/>
<polygon fill="black" stroke="black" points="670.47,-465.71 666.97,-455.71 663.47,-465.71 670.47,-465.71"/>
<text text-anchor="middle" x="685.97" y="-479.51" font-family="Helvetica,sans-Serif" font-size="14.00">&lt;= 1</text>
</g>
<!-- 11 -->
<g id="node12" class="node">
<title>11</title>
<polygon fill="#8dcc3d" stroke="black" points="1055.47,-457.71 864.47,-457.71 864.47,-379.71 1055.47,-379.71 1055.47,-457.71"/>
<text text-anchor="start" x="899.47" y="-443.51" font-family="Helvetica,sans-Serif" font-weight="bold" font-size="14.00"> Class=benign </text>
<text text-anchor="start" x="1015.47" y="-443.51" font-family="Helvetica,sans-Serif" font-size="14.00"> </text>
<text text-anchor="start" x="885.97" y="-429.51" font-family="Helvetica,sans-Serif" font-size="14.00"> error: 0.985, n=699 </text>
<text text-anchor="start" x="904.97" y="-415.51" font-family="Helvetica,sans-Serif" font-size="14.00"> p: (0.57, 0.43) </text>
<text text-anchor="start" x="904.47" y="-401.51" font-family="Helvetica,sans-Serif" font-size="14.00">&#45;&#45;&#45;&#45;&#45;&#45;&#45;&#45;&#45;&#45;&#45;&#45;&#45;&#45;&#45;&#45;&#45;&#45;&#45;&#45;&#45;</text>
<text text-anchor="start" x="872.47" y="-387.51" font-family="Helvetica,sans-Serif" font-weight="bold" font-size="14.00">Cell_Shape_Uniformity</text>
</g>
<!-- 9&#45;&gt;11 -->
<g id="edge11" class="edge">
<title>9:s&#45;&gt;11:n</title>
<path fill="none" stroke="black" d="M666.97,-508.71C666.97,-508.71 898.36,-468.43 949.88,-459.47"/>
<polygon fill="black" stroke="black" points="950.71,-462.87 959.97,-457.71 949.51,-455.98 950.71,-462.87"/>
<text text-anchor="middle" x="861.97" y="-479.51" font-family="Helvetica,sans-Serif" font-size="14.00">&gt; 1</text>
</g>
<!-- 4 -->
<g id="node7" class="node">
<title>4</title>
<polygon fill="#44e55e" stroke="black" points="197.97,-328.71 33.97,-328.71 33.97,-250.71 197.97,-250.71 197.97,-328.71"/>
<text text-anchor="start" x="42.47" y="-314.51" font-family="Helvetica,sans-Serif" font-weight="bold" font-size="14.00"> Class=malignant </text>
<text text-anchor="start" x="184.47" y="-314.51" font-family="Helvetica,sans-Serif" font-size="14.00"> </text>
<text text-anchor="start" x="41.97" y="-300.51" font-family="Helvetica,sans-Serif" font-size="14.00"> error: 0.129, n=699 </text>
<text text-anchor="start" x="60.97" y="-286.51" font-family="Helvetica,sans-Serif" font-size="14.00"> p: (0.02, 0.98) </text>
<text text-anchor="start" x="70.97" y="-272.51" font-family="Helvetica,sans-Serif" font-size="14.00">&#45;&#45;&#45;&#45;&#45;&#45;&#45;&#45;&#45;&#45;&#45;&#45;&#45;&#45;&#45;&#45;&#45;</text>
<text text-anchor="start" x="41.97" y="-258.51" font-family="Helvetica,sans-Serif" font-weight="bold" font-size="14.00">Marginal_Adhesion</text>
</g>
<!-- 3&#45;&gt;4 -->
<g id="edge6" class="edge">
<title>3:s&#45;&gt;4:n</title>
<path fill="none" stroke="black" d="M142.97,-379.71C142.97,-379.71 128.4,-352.21 120.67,-337.59"/>
<polygon fill="black" stroke="black" points="123.74,-335.91 115.97,-328.71 117.55,-339.19 123.74,-335.91"/>
<text text-anchor="middle" x="145.97" y="-350.51" font-family="Helvetica,sans-Serif" font-size="14.00">&gt; 4</text>
</g>
<!-- 7 -->
<g id="node9" class="node">
<title>7</title>
<ellipse fill="#44e55e" stroke="black" cx="385.97" cy="-289.71" rx="115.93" ry="35.21"/>
<text text-anchor="start" x="312.47" y="-300.51" font-family="Helvetica,sans-Serif" font-weight="bold" font-size="14.00"> Class=malignant </text>
<text text-anchor="start" x="454.47" y="-300.51" font-family="Helvetica,sans-Serif" font-size="14.00"> </text>
<text text-anchor="start" x="311.97" y="-286.51" font-family="Helvetica,sans-Serif" font-size="14.00"> error: 0.414, n=699 </text>
<text text-anchor="start" x="330.97" y="-272.51" font-family="Helvetica,sans-Serif" font-size="14.00"> p: (0.08, 0.92) </text>
</g>
<!-- 6&#45;&gt;7 -->
<g id="edge8" class="edge">
<title>6:s&#45;&gt;7:n</title>
<path fill="none" stroke="black" d="M390.97,-379.71C390.97,-379.71 388.38,-352.33 386.93,-336.93"/>
<polygon fill="black" stroke="black" points="390.39,-336.34 385.97,-326.71 383.42,-337 390.39,-336.34"/>
<text text-anchor="middle" x="408.97" y="-350.51" font-family="Helvetica,sans-Serif" font-size="14.00">&lt;= 4</text>
</g>
<!-- 8 -->
<g id="node10" class="node">
<title>8</title>
<ellipse fill="#44e55e" stroke="black" cx="689.97" cy="-289.71" rx="115.93" ry="35.21"/>
<text text-anchor="start" x="616.47" y="-300.51" font-family="Helvetica,sans-Serif" font-weight="bold" font-size="14.00"> Class=malignant </text>
<text text-anchor="start" x="758.47" y="-300.51" font-family="Helvetica,sans-Serif" font-size="14.00"> </text>
<text text-anchor="start" x="615.97" y="-286.51" font-family="Helvetica,sans-Serif" font-size="14.00"> error: 0.000, n=699 </text>
<text text-anchor="start" x="634.97" y="-272.51" font-family="Helvetica,sans-Serif" font-size="14.00"> p: (0.00, 1.00) </text>
</g>
<!-- 6&#45;&gt;8 -->
<g id="edge9" class="edge">
<title>6:s&#45;&gt;8:n</title>
<path fill="none" stroke="black" d="M390.97,-379.71C390.97,-379.71 628.14,-337.67 680.02,-328.47"/>
<polygon fill="black" stroke="black" points="680.73,-331.9 689.97,-326.71 679.51,-325.01 680.73,-331.9"/>
<text text-anchor="middle" x="589.97" y="-350.51" font-family="Helvetica,sans-Serif" font-size="14.00">&gt; 4</text>
</g>
<!-- 5 -->
<g id="node8" class="node">
<title>5</title>
<ellipse fill="#3dccba" stroke="black" cx="115.97" cy="-160.71" rx="115.93" ry="35.21"/>
<text text-anchor="start" x="42.47" y="-171.51" font-family="Helvetica,sans-Serif" font-weight="bold" font-size="14.00"> Class=malignant </text>
<text text-anchor="start" x="184.47" y="-171.51" font-family="Helvetica,sans-Serif" font-size="14.00"> </text>
<text text-anchor="start" x="41.97" y="-157.51" font-family="Helvetica,sans-Serif" font-size="14.00"> error: 0.000, n=699 </text>
<text text-anchor="start" x="60.97" y="-143.51" font-family="Helvetica,sans-Serif" font-size="14.00"> p: (0.00, 1.00) </text>
</g>
<!-- 4&#45;&gt;5 -->
<g id="edge7" class="edge">
<title>4:s&#45;&gt;5:n</title>
<path fill="none" stroke="black" d="M115.97,-250.71C115.97,-250.71 115.97,-223.33 115.97,-207.93"/>
<polygon fill="black" stroke="black" points="119.47,-207.71 115.97,-197.71 112.47,-207.71 119.47,-207.71"/>
<text text-anchor="middle" x="128.97" y="-221.51" font-family="Helvetica,sans-Serif" font-size="14.00">&gt; 1</text>
</g>
<!-- 12 -->
<g id="node13" class="node">
<title>12</title>
<polygon fill="#44e55e" stroke="black" points="1041.97,-328.71 877.97,-328.71 877.97,-250.71 1041.97,-250.71 1041.97,-328.71"/>
<text text-anchor="start" x="899.47" y="-314.51" font-family="Helvetica,sans-Serif" font-weight="bold" font-size="14.00"> Class=benign </text>
<text text-anchor="start" x="1015.47" y="-314.51" font-family="Helvetica,sans-Serif" font-size="14.00"> </text>
<text text-anchor="start" x="885.97" y="-300.51" font-family="Helvetica,sans-Serif" font-size="14.00"> error: 0.599, n=699 </text>
<text text-anchor="start" x="904.97" y="-286.51" font-family="Helvetica,sans-Serif" font-size="14.00"> p: (0.85, 0.15) </text>
<text text-anchor="start" x="920.47" y="-272.51" font-family="Helvetica,sans-Serif" font-size="14.00">&#45;&#45;&#45;&#45;&#45;&#45;&#45;&#45;&#45;&#45;&#45;&#45;&#45;&#45;&#45;</text>
<text text-anchor="start" x="893.47" y="-258.51" font-family="Helvetica,sans-Serif" font-weight="bold" font-size="14.00">Clump_Thickness</text>
</g>
<!-- 11&#45;&gt;12 -->
<g id="edge12" class="edge">
<title>11:s&#45;&gt;12:n</title>
<path fill="none" stroke="black" d="M959.97,-379.71C959.97,-379.71 959.97,-353.93 959.97,-339.03"/>
<polygon fill="black" stroke="black" points="963.47,-338.71 959.97,-328.71 956.47,-338.71 963.47,-338.71"/>
<text text-anchor="middle" x="978.97" y="-350.51" font-family="Helvetica,sans-Serif" font-size="14.00">&lt;= 2</text>
</g>
<!-- 15 -->
<g id="node14" class="node">
<title>15</title>
<polygon fill="#44e55e" stroke="black" points="1294.97,-328.71 1130.97,-328.71 1130.97,-250.71 1294.97,-250.71 1294.97,-328.71"/>
<text text-anchor="start" x="1139.47" y="-314.51" font-family="Helvetica,sans-Serif" font-weight="bold" font-size="14.00"> Class=malignant </text>
<text text-anchor="start" x="1281.47" y="-314.51" font-family="Helvetica,sans-Serif" font-size="14.00"> </text>
<text text-anchor="start" x="1138.97" y="-300.51" font-family="Helvetica,sans-Serif" font-size="14.00"> error: 0.711, n=699 </text>
<text text-anchor="start" x="1157.97" y="-286.51" font-family="Helvetica,sans-Serif" font-size="14.00"> p: (0.19, 0.81) </text>
<text text-anchor="start" x="1183.97" y="-272.51" font-family="Helvetica,sans-Serif" font-size="14.00">&#45;&#45;&#45;&#45;&#45;&#45;&#45;&#45;&#45;&#45;&#45;</text>
<text text-anchor="start" x="1166.47" y="-258.51" font-family="Helvetica,sans-Serif" font-weight="bold" font-size="14.00">Bare_Nuclei</text>
</g>
<!-- 11&#45;&gt;15 -->
<g id="edge13" class="edge">
<title>11:s&#45;&gt;15:n</title>
<path fill="none" stroke="black" d="M959.97,-379.71C959.97,-379.71 1156.27,-340.14 1203.05,-330.71"/>
<polygon fill="black" stroke="black" points="1203.85,-334.12 1212.97,-328.71 1202.47,-327.26 1203.85,-334.12"/>
<text text-anchor="middle" x="1129.97" y="-350.51" font-family="Helvetica,sans-Serif" font-size="14.00">&gt; 2</text>
</g>
<!-- 13 -->
<g id="node15" class="node">
<title>13</title>
<polygon fill="#3dccba" stroke="black" points="1028.97,-199.71 864.97,-199.71 864.97,-121.71 1028.97,-121.71 1028.97,-199.71"/>
<text text-anchor="start" x="886.47" y="-185.51" font-family="Helvetica,sans-Serif" font-weight="bold" font-size="14.00"> Class=benign </text>
<text text-anchor="start" x="1002.47" y="-185.51" font-family="Helvetica,sans-Serif" font-size="14.00"> </text>
<text text-anchor="start" x="872.97" y="-171.51" font-family="Helvetica,sans-Serif" font-size="14.00"> error: 0.271, n=699 </text>
<text text-anchor="start" x="891.97" y="-157.51" font-family="Helvetica,sans-Serif" font-size="14.00"> p: (0.95, 0.05) </text>
<text text-anchor="start" x="901.97" y="-143.51" font-family="Helvetica,sans-Serif" font-size="14.00">&#45;&#45;&#45;&#45;&#45;&#45;&#45;&#45;&#45;&#45;&#45;&#45;&#45;&#45;&#45;&#45;&#45;</text>
<text text-anchor="start" x="872.97" y="-129.51" font-family="Helvetica,sans-Serif" font-weight="bold" font-size="14.00">Marginal_Adhesion</text>
</g>
<!-- 12&#45;&gt;13 -->
<g id="edge14" class="edge">
<title>12:s&#45;&gt;13:n</title>
<path fill="none" stroke="black" d="M959.97,-250.71C959.97,-250.71 953.25,-224.36 949.47,-209.54"/>
<polygon fill="black" stroke="black" points="952.83,-208.54 946.97,-199.71 946.04,-210.27 952.83,-208.54"/>
<text text-anchor="middle" x="974.97" y="-221.51" font-family="Helvetica,sans-Serif" font-size="14.00">&lt;= 5</text>
</g>
<!-- 16 -->
<g id="node17" class="node">
<title>16</title>
<ellipse fill="#3dccba" stroke="black" cx="1216.97" cy="-160.71" rx="115.93" ry="35.21"/>
<text text-anchor="start" x="1143.47" y="-171.51" font-family="Helvetica,sans-Serif" font-weight="bold" font-size="14.00"> Class=malignant </text>
<text text-anchor="start" x="1285.47" y="-171.51" font-family="Helvetica,sans-Serif" font-size="14.00"> </text>
<text text-anchor="start" x="1142.97" y="-157.51" font-family="Helvetica,sans-Serif" font-size="14.00"> error: 0.459, n=699 </text>
<text text-anchor="start" x="1161.97" y="-143.51" font-family="Helvetica,sans-Serif" font-size="14.00"> p: (0.10, 0.90) </text>
</g>
<!-- 15&#45;&gt;16 -->
<g id="edge16" class="edge">
<title>15:s&#45;&gt;16:n</title>
<path fill="none" stroke="black" d="M1212.97,-250.71C1212.97,-250.71 1215.03,-223.33 1216.19,-207.93"/>
<polygon fill="black" stroke="black" points="1219.7,-207.95 1216.97,-197.71 1212.72,-207.42 1219.7,-207.95"/>
<text text-anchor="middle" x="1228.97" y="-221.51" font-family="Helvetica,sans-Serif" font-size="14.00">&gt; 2</text>
</g>
<!-- 14 -->
<g id="node16" class="node">
<title>14</title>
<ellipse fill="#4485e5" stroke="black" cx="946.97" cy="-35.36" rx="115.93" ry="35.21"/>
<text text-anchor="start" x="886.47" y="-46.16" font-family="Helvetica,sans-Serif" font-weight="bold" font-size="14.00"> Class=benign </text>
<text text-anchor="start" x="1002.47" y="-46.16" font-family="Helvetica,sans-Serif" font-size="14.00"> </text>
<text text-anchor="start" x="872.97" y="-32.16" font-family="Helvetica,sans-Serif" font-size="14.00"> error: 0.000, n=699 </text>
<text text-anchor="start" x="891.97" y="-18.16" font-family="Helvetica,sans-Serif" font-size="14.00"> p: (1.00, 0.00) </text>
</g>
<!-- 13&#45;&gt;14 -->
<g id="edge15" class="edge">
<title>13:s&#45;&gt;14:n</title>
<path fill="none" stroke="black" d="M946.97,-121.71C946.97,-121.71 946.97,-95.93 946.97,-81.03"/>
<polygon fill="black" stroke="black" points="950.47,-80.71 946.97,-70.71 943.47,-80.71 950.47,-80.71"/>
<text text-anchor="middle" x="965.97" y="-92.51" font-family="Helvetica,sans-Serif" font-size="14.00">&lt;= 2</text>
</g>
</g>
</svg>
