<?xml version="1.0" encoding="UTF-8" standalone="no"?>
<!DOCTYPE svg PUBLIC "-//W3C//DTD SVG 1.1//EN"
 "http://www.w3.org/Graphics/SVG/1.1/DTD/svg11.dtd">
<!-- Generated by graphviz version 2.43.0 (0)
 -->
<!-- Title: Tree Pages: 1 -->
<svg width="1446pt" height="825pt"
 viewBox="0.00 0.00 1445.93 824.71" xmlns="http://www.w3.org/2000/svg" xmlns:xlink="http://www.w3.org/1999/xlink">
<g id="graph0" class="graph" transform="scale(1 1) rotate(0) translate(18 806.71)">
<title>Tree</title>
<polygon fill="white" stroke="transparent" points="-18,18 -18,-806.71 1427.93,-806.71 1427.93,18 -18,18"/>
<!-- 0 -->
<g id="node1" class="node">
<title>0</title>
<polygon fill="white" stroke="transparent" points="600.97,-788.71 546.97,-788.71 546.97,-752.71 600.97,-752.71 600.97,-788.71"/>
<text text-anchor="middle" x="573.97" y="-767.01" font-family="Helvetica,sans-Serif" font-size="14.00">0</text>
</g>
<!-- 1 -->
<g id="node2" class="node">
<title>1</title>
<polygon fill="#cc3d3d" stroke="black" points="660.97,-715.71 486.97,-715.71 486.97,-637.71 660.97,-637.71 660.97,-715.71"/>
<text text-anchor="start" x="513.47" y="-701.51" font-family="Helvetica,sans-Serif" font-weight="bold" font-size="14.00"> Class=benign </text>
<text text-anchor="start" x="629.47" y="-701.51" font-family="Helvetica,sans-Serif" font-size="14.00"> </text>
<text text-anchor="start" x="499.97" y="-687.51" font-family="Helvetica,sans-Serif" font-size="14.00"> error: 0.929, n=699 </text>
<text text-anchor="start" x="518.97" y="-673.51" font-family="Helvetica,sans-Serif" font-size="14.00"> p: (0.66, 0.34) </text>
<text text-anchor="start" x="520.97" y="-659.51" font-family="Helvetica,sans-Serif" font-size="14.00">&#45;&#45;&#45;&#45;&#45;&#45;&#45;&#45;&#45;&#45;&#45;&#45;&#45;&#45;&#45;&#45;&#45;&#45;&#45;&#45;</text>
<text text-anchor="start" x="494.97" y="-645.51" font-family="Helvetica,sans-Serif" font-weight="bold" font-size="14.00">Cell_Size_Uniformity</text>
</g>
<!-- 0&#45;&gt;1 -->
<!-- 2 -->
<g id="node3" class="node">
<title>2</title>
<polygon fill="#e5b844" stroke="black" points="510.97,-586.71 346.97,-586.71 346.97,-508.71 510.97,-508.71 510.97,-586.71"/>
<text text-anchor="start" x="355.47" y="-572.51" font-family="Helvetica,sans-Serif" font-weight="bold" font-size="14.00"> Class=malignant </text>
<text text-anchor="start" x="497.47" y="-572.51" font-family="Helvetica,sans-Serif" font-size="14.00"> </text>
<text text-anchor="start" x="354.97" y="-558.51" font-family="Helvetica,sans-Serif" font-size="14.00"> error: 0.344, n=699 </text>
<text text-anchor="start" x="373.97" y="-544.51" font-family="Helvetica,sans-Serif" font-size="14.00"> p: (0.06, 0.94) </text>
<text text-anchor="start" x="399.97" y="-530.51" font-family="Helvetica,sans-Serif" font-size="14.00">&#45;&#45;&#45;&#45;&#45;&#45;&#45;&#45;&#45;&#45;&#45;</text>
<text text-anchor="start" x="382.47" y="-516.51" font-family="Helvetica,sans-Serif" font-weight="bold" font-size="14.00">Bare_Nuclei</text>
</g>
<!-- 1&#45;&gt;2 -->
<g id="edge2" class="edge">
<title>1:s&#45;&gt;2:n</title>
<path fill="none" stroke="black" d="M573.97,-637.71C573.97,-637.71 470.74,-601.4 438.48,-590.06"/>
<polygon fill="black" stroke="black" points="439.56,-586.73 428.97,-586.71 437.24,-593.33 439.56,-586.73"/>
<text text-anchor="middle" x="531.97" y="-608.51" font-family="Helvetica,sans-Serif" font-size="14.00">&gt; 3</text>
</g>
<!-- 11 -->
<g id="node4" class="node">
<title>11</title>
<polygon fill="#e5b844" stroke="black" points="782.97,-586.71 618.97,-586.71 618.97,-508.71 782.97,-508.71 782.97,-586.71"/>
<text text-anchor="start" x="640.47" y="-572.51" font-family="Helvetica,sans-Serif" font-weight="bold" font-size="14.00"> Class=benign </text>
<text text-anchor="start" x="756.47" y="-572.51" font-family="Helvetica,sans-Serif" font-size="14.00"> </text>
<text text-anchor="start" x="626.97" y="-558.51" font-family="Helvetica,sans-Serif" font-size="14.00"> error: 0.391, n=699 </text>
<text text-anchor="start" x="645.97" y="-544.51" font-family="Helvetica,sans-Serif" font-size="14.00"> p: (0.92, 0.08) </text>
<text text-anchor="start" x="671.97" y="-530.51" font-family="Helvetica,sans-Serif" font-size="14.00">&#45;&#45;&#45;&#45;&#45;&#45;&#45;&#45;&#45;&#45;&#45;</text>
<text text-anchor="start" x="654.47" y="-516.51" font-family="Helvetica,sans-Serif" font-weight="bold" font-size="14.00">Bare_Nuclei</text>
</g>
<!-- 1&#45;&gt;11 -->
<g id="edge3" class="edge">
<title>1:s&#45;&gt;11:n</title>
<path fill="none" stroke="black" d="M573.97,-637.71C573.97,-637.71 661.88,-602.4 691.42,-590.54"/>
<polygon fill="black" stroke="black" points="692.99,-593.69 700.97,-586.71 690.38,-587.19 692.99,-593.69"/>
<text text-anchor="middle" x="671.97" y="-608.51" font-family="Helvetica,sans-Serif" font-size="14.00">&lt;= 3</text>
</g>
<!-- 3 -->
<g id="node5" class="node">
<title>3</title>
<polygon fill="#8dcc3d" stroke="black" points="266.97,-457.71 92.97,-457.71 92.97,-379.71 266.97,-379.71 266.97,-457.71"/>
<text text-anchor="start" x="106.47" y="-443.51" font-family="Helvetica,sans-Serif" font-weight="bold" font-size="14.00"> Class=malignant </text>
<text text-anchor="start" x="248.47" y="-443.51" font-family="Helvetica,sans-Serif" font-size="14.00"> </text>
<text text-anchor="start" x="105.97" y="-429.51" font-family="Helvetica,sans-Serif" font-size="14.00"> error: 0.503, n=699 </text>
<text text-anchor="start" x="124.97" y="-415.51" font-family="Helvetica,sans-Serif" font-size="14.00"> p: (0.11, 0.89) </text>
<text text-anchor="start" x="126.97" y="-401.51" font-family="Helvetica,sans-Serif" font-size="14.00">&#45;&#45;&#45;&#45;&#45;&#45;&#45;&#45;&#45;&#45;&#45;&#45;&#45;&#45;&#45;&#45;&#45;&#45;&#45;&#45;</text>
<text text-anchor="start" x="100.97" y="-387.51" font-family="Helvetica,sans-Serif" font-weight="bold" font-size="14.00">Cell_Size_Uniformity</text>
</g>
<!-- 2&#45;&gt;3 -->
<g id="edge4" class="edge">
<title>2:s&#45;&gt;3:n</title>
<path fill="none" stroke="black" d="M428.97,-508.71C428.97,-508.71 236.62,-469.31 190.04,-459.77"/>
<polygon fill="black" stroke="black" points="190.46,-456.29 179.97,-457.71 189.06,-463.15 190.46,-456.29"/>
<text text-anchor="middle" x="353.97" y="-479.51" font-family="Helvetica,sans-Serif" font-size="14.00">&lt;= 7</text>
</g>
<!-- 6 -->
<g id="node6" class="node">
<title>6</title>
<polygon fill="#8dcc3d" stroke="black" points="510.97,-457.71 346.97,-457.71 346.97,-379.71 510.97,-379.71 510.97,-457.71"/>
<text text-anchor="start" x="355.47" y="-443.51" font-family="Helvetica,sans-Serif" font-weight="bold" font-size="14.00"> Class=malignant </text>
<text text-anchor="start" x="497.47" y="-443.51" font-family="Helvetica,sans-Serif" font-size="14.00"> </text>
<text text-anchor="start" x="354.97" y="-429.51" font-family="Helvetica,sans-Serif" font-size="14.00"> error: 0.149, n=699 </text>
<text text-anchor="start" x="373.97" y="-415.51" font-family="Helvetica,sans-Serif" font-size="14.00"> p: (0.02, 0.98) </text>
<text text-anchor="start" x="389.47" y="-401.51" font-family="Helvetica,sans-Serif" font-size="14.00">&#45;&#45;&#45;&#45;&#45;&#45;&#45;&#45;&#45;&#45;&#45;&#45;&#45;&#45;&#45;</text>
<text text-anchor="start" x="362.47" y="-387.51" font-family="Helvetica,sans-Serif" font-weight="bold" font-size="14.00">Bland_Chromatin</text>
</g>
<!-- 2&#45;&gt;6 -->
<g id="edge5" class="edge">
<title>2:s&#45;&gt;6:n</title>
<path fill="none" stroke="black" d="M428.97,-508.71C428.97,-508.71 428.97,-482.93 428.97,-468.03"/>
<polygon fill="black" stroke="black" points="432.47,-467.71 428.97,-457.71 425.47,-467.71 432.47,-467.71"/>
<text text-anchor="middle" x="441.97" y="-479.51" font-family="Helvetica,sans-Serif" font-size="14.00">&gt; 7</text>
</g>
<!-- 12 -->
<g id="node13" class="node">
<title>12</title>
<ellipse fill="#8dcc3d" stroke="black" cx="700.97" cy="-418.71" rx="115.93" ry="35.21"/>
<text text-anchor="start" x="640.47" y="-429.51" font-family="Helvetica,sans-Serif" font-weight="bold" font-size="14.00"> Class=benign </text>
<text text-anchor="start" x="756.47" y="-429.51" font-family="Helvetica,sans-Serif" font-size="14.00"> </text>
<text text-anchor="start" x="626.97" y="-415.51" font-family="Helvetica,sans-Serif" font-size="14.00"> error: 0.026, n=699 </text>
<text text-anchor="start" x="645.97" y="-401.51" font-family="Helvetica,sans-Serif" font-size="14.00"> p: (1.00, 0.00) </text>
</g>
<!-- 11&#45;&gt;12 -->
<g id="edge12" class="edge">
<title>11:s&#45;&gt;12:n</title>
<path fill="none" stroke="black" d="M700.97,-508.71C700.97,-508.71 700.97,-481.33 700.97,-465.93"/>
<polygon fill="black" stroke="black" points="704.47,-465.71 700.97,-455.71 697.47,-465.71 704.47,-465.71"/>
<text text-anchor="middle" x="719.97" y="-479.51" font-family="Helvetica,sans-Serif" font-size="14.00">&lt;= 1</text>
</g>
<!-- 13 -->
<g id="node14" class="node">
<title>13</title>
<polygon fill="#8dcc3d" stroke="black" points="1089.47,-457.71 898.47,-457.71 898.47,-379.71 1089.47,-379.71 1089.47,-457.71"/>
<text text-anchor="start" x="933.47" y="-443.51" font-family="Helvetica,sans-Serif" font-weight="bold" font-size="14.00"> Class=benign </text>
<text text-anchor="start" x="1049.47" y="-443.51" font-family="Helvetica,sans-Serif" font-size="14.00"> </text>
<text text-anchor="start" x="919.97" y="-429.51" font-family="Helvetica,sans-Serif" font-size="14.00"> error: 0.985, n=699 </text>
<text text-anchor="start" x="938.97" y="-415.51" font-family="Helvetica,sans-Serif" font-size="14.00"> p: (0.57, 0.43) </text>
<text text-anchor="start" x="938.47" y="-401.51" font-family="Helvetica,sans-Serif" font-size="14.00">&#45;&#45;&#45;&#45;&#45;&#45;&#45;&#45;&#45;&#45;&#45;&#45;&#45;&#45;&#45;&#45;&#45;&#45;&#45;&#45;&#45;</text>
<text text-anchor="start" x="906.47" y="-387.51" font-family="Helvetica,sans-Serif" font-weight="bold" font-size="14.00">Cell_Shape_Uniformity</text>
</g>
<!-- 11&#45;&gt;13 -->
<g id="edge13" class="edge">
<title>11:s&#45;&gt;13:n</title>
<path fill="none" stroke="black" d="M700.97,-508.71C700.97,-508.71 932.36,-468.43 983.88,-459.47"/>
<polygon fill="black" stroke="black" points="984.71,-462.87 993.97,-457.71 983.51,-455.98 984.71,-462.87"/>
<text text-anchor="middle" x="895.97" y="-479.51" font-family="Helvetica,sans-Serif" font-size="14.00">&gt; 1</text>
</g>
<!-- 4 -->
<g id="node7" class="node">
<title>4</title>
<polygon fill="#44e55e" stroke="black" points="214.97,-328.71 50.97,-328.71 50.97,-250.71 214.97,-250.71 214.97,-328.71"/>
<text text-anchor="start" x="59.47" y="-314.51" font-family="Helvetica,sans-Serif" font-weight="bold" font-size="14.00"> Class=malignant </text>
<text text-anchor="start" x="201.47" y="-314.51" font-family="Helvetica,sans-Serif" font-size="14.00"> </text>
<text text-anchor="start" x="58.97" y="-300.51" font-family="Helvetica,sans-Serif" font-size="14.00"> error: 0.129, n=699 </text>
<text text-anchor="start" x="77.97" y="-286.51" font-family="Helvetica,sans-Serif" font-size="14.00"> p: (0.02, 0.98) </text>
<text text-anchor="start" x="87.97" y="-272.51" font-family="Helvetica,sans-Serif" font-size="14.00">&#45;&#45;&#45;&#45;&#45;&#45;&#45;&#45;&#45;&#45;&#45;&#45;&#45;&#45;&#45;&#45;&#45;</text>
<text text-anchor="start" x="58.97" y="-258.51" font-family="Helvetica,sans-Serif" font-weight="bold" font-size="14.00">Marginal_Adhesion</text>
</g>
<!-- 3&#45;&gt;4 -->
<g id="edge6" class="edge">
<title>3:s&#45;&gt;4:n</title>
<path fill="none" stroke="black" d="M179.97,-379.71C179.97,-379.71 152.97,-350.42 139.9,-336.24"/>
<polygon fill="black" stroke="black" points="142.32,-333.69 132.97,-328.71 137.17,-338.44 142.32,-333.69"/>
<text text-anchor="middle" x="175.97" y="-350.51" font-family="Helvetica,sans-Serif" font-size="14.00">&gt; 4</text>
</g>
<!-- 7 -->
<g id="node9" class="node">
<title>7</title>
<polygon fill="#44e55e" stroke="black" points="502.97,-328.71 338.97,-328.71 338.97,-250.71 502.97,-250.71 502.97,-328.71"/>
<text text-anchor="start" x="347.47" y="-314.51" font-family="Helvetica,sans-Serif" font-weight="bold" font-size="14.00"> Class=malignant </text>
<text text-anchor="start" x="489.47" y="-314.51" font-family="Helvetica,sans-Serif" font-size="14.00"> </text>
<text text-anchor="start" x="346.97" y="-300.51" font-family="Helvetica,sans-Serif" font-size="14.00"> error: 0.414, n=699 </text>
<text text-anchor="start" x="365.97" y="-286.51" font-family="Helvetica,sans-Serif" font-size="14.00"> p: (0.08, 0.92) </text>
<text text-anchor="start" x="381.47" y="-272.51" font-family="Helvetica,sans-Serif" font-size="14.00">&#45;&#45;&#45;&#45;&#45;&#45;&#45;&#45;&#45;&#45;&#45;&#45;&#45;&#45;&#45;</text>
<text text-anchor="start" x="354.47" y="-258.51" font-family="Helvetica,sans-Serif" font-weight="bold" font-size="14.00">Clump_Thickness</text>
</g>
<!-- 6&#45;&gt;7 -->
<g id="edge8" class="edge">
<title>6:s&#45;&gt;7:n</title>
<path fill="none" stroke="black" d="M428.97,-379.71C428.97,-379.71 424.92,-353.93 422.58,-339.03"/>
<polygon fill="black" stroke="black" points="425.97,-338.05 420.97,-328.71 419.06,-339.13 425.97,-338.05"/>
<text text-anchor="middle" x="444.97" y="-350.51" font-family="Helvetica,sans-Serif" font-size="14.00">&lt;= 4</text>
</g>
<!-- 10 -->
<g id="node10" class="node">
<title>10</title>
<ellipse fill="#44e55e" stroke="black" cx="690.97" cy="-289.71" rx="115.93" ry="35.21"/>
<text text-anchor="start" x="617.47" y="-300.51" font-family="Helvetica,sans-Serif" font-weight="bold" font-size="14.00"> Class=malignant </text>
<text text-anchor="start" x="759.47" y="-300.51" font-family="Helvetica,sans-Serif" font-size="14.00"> </text>
<text text-anchor="start" x="616.97" y="-286.51" font-family="Helvetica,sans-Serif" font-size="14.00"> error: 0.000, n=699 </text>
<text text-anchor="start" x="635.97" y="-272.51" font-family="Helvetica,sans-Serif" font-size="14.00"> p: (0.00, 1.00) </text>
</g>
<!-- 6&#45;&gt;10 -->
<g id="edge9" class="edge">
<title>6:s&#45;&gt;10:n</title>
<path fill="none" stroke="black" d="M428.97,-379.71C428.97,-379.71 633.16,-338.4 681.01,-328.72"/>
<polygon fill="black" stroke="black" points="681.86,-332.12 690.97,-326.71 680.47,-325.26 681.86,-332.12"/>
<text text-anchor="middle" x="604.97" y="-350.51" font-family="Helvetica,sans-Serif" font-size="14.00">&gt; 4</text>
</g>
<!-- 5 -->
<g id="node8" class="node">
<title>5</title>
<ellipse fill="#3dccba" stroke="black" cx="115.97" cy="-160.71" rx="115.93" ry="35.21"/>
<text text-anchor="start" x="42.47" y="-171.51" font-family="Helvetica,sans-Serif" font-weight="bold" font-size="14.00"> Class=malignant </text>
<text text-anchor="start" x="184.47" y="-171.51" font-family="Helvetica,sans-Serif" font-size="14.00"> </text>
<text text-anchor="start" x="41.97" y="-157.51" font-family="Helvetica,sans-Serif" font-size="14.00"> error: 0.000, n=699 </text>
<text text-anchor="start" x="60.97" y="-143.51" font-family="Helvetica,sans-Serif" font-size="14.00"> p: (0.00, 1.00) </text>
</g>
<!-- 4&#45;&gt;5 -->
<g id="edge7" class="edge">
<title>4:s&#45;&gt;5:n</title>
<path fill="none" stroke="black" d="M132.97,-250.71C132.97,-250.71 123.99,-222.73 119.08,-207.43"/>
<polygon fill="black" stroke="black" points="122.35,-206.16 115.97,-197.71 115.69,-208.3 122.35,-206.16"/>
<text text-anchor="middle" x="140.97" y="-221.51" font-family="Helvetica,sans-Serif" font-size="14.00">&gt; 1</text>
</g>
<!-- 8 -->
<g id="node11" class="node">
<title>8</title>
<ellipse fill="#3dccba" stroke="black" cx="419.97" cy="-160.71" rx="115.93" ry="35.21"/>
<text text-anchor="start" x="346.47" y="-171.51" font-family="Helvetica,sans-Serif" font-weight="bold" font-size="14.00"> Class=malignant </text>
<text text-anchor="start" x="488.47" y="-171.51" font-family="Helvetica,sans-Serif" font-size="14.00"> </text>
<text text-anchor="start" x="345.97" y="-157.51" font-family="Helvetica,sans-Serif" font-size="14.00"> error: 0.650, n=699 </text>
<text text-anchor="start" x="364.97" y="-143.51" font-family="Helvetica,sans-Serif" font-size="14.00"> p: (0.17, 0.83) </text>
</g>
<!-- 7&#45;&gt;8 -->
<g id="edge10" class="edge">
<title>7:s&#45;&gt;8:n</title>
<path fill="none" stroke="black" d="M420.97,-250.71C420.97,-250.71 420.45,-223.33 420.16,-207.93"/>
<polygon fill="black" stroke="black" points="423.65,-207.64 419.97,-197.71 416.65,-207.77 423.65,-207.64"/>
<text text-anchor="middle" x="439.97" y="-221.51" font-family="Helvetica,sans-Serif" font-size="14.00">&lt;= 7</text>
</g>
<!-- 9 -->
<g id="node12" class="node">
<title>9</title>
<ellipse fill="#3dccba" stroke="black" cx="723.97" cy="-160.71" rx="115.93" ry="35.21"/>
<text text-anchor="start" x="650.47" y="-171.51" font-family="Helvetica,sans-Serif" font-weight="bold" font-size="14.00"> Class=malignant </text>
<text text-anchor="start" x="792.47" y="-171.51" font-family="Helvetica,sans-Serif" font-size="14.00"> </text>
<text text-anchor="start" x="649.97" y="-157.51" font-family="Helvetica,sans-Serif" font-size="14.00"> error: 0.000, n=699 </text>
<text text-anchor="start" x="668.97" y="-143.51" font-family="Helvetica,sans-Serif" font-size="14.00"> p: (0.00, 1.00) </text>
</g>
<!-- 7&#45;&gt;9 -->
<g id="edge11" class="edge">
<title>7:s&#45;&gt;9:n</title>
<path fill="none" stroke="black" d="M420.97,-250.71C420.97,-250.71 661.31,-208.67 713.88,-199.47"/>
<polygon fill="black" stroke="black" points="714.72,-202.88 723.97,-197.71 713.51,-195.99 714.72,-202.88"/>
<text text-anchor="middle" x="621.97" y="-221.51" font-family="Helvetica,sans-Serif" font-size="14.00">&gt; 7</text>
</g>
<!-- 14 -->
<g id="node15" class="node">
<title>14</title>
<polygon fill="#44e55e" stroke="black" points="1075.97,-328.71 911.97,-328.71 911.97,-250.71 1075.97,-250.71 1075.97,-328.71"/>
<text text-anchor="start" x="933.47" y="-314.51" font-family="Helvetica,sans-Serif" font-weight="bold" font-size="14.00"> Class=benign </text>
<text text-anchor="start" x="1049.47" y="-314.51" font-family="Helvetica,sans-Serif" font-size="14.00"> </text>
<text text-anchor="start" x="919.97" y="-300.51" font-family="Helvetica,sans-Serif" font-size="14.00"> error: 0.599, n=699 </text>
<text text-anchor="start" x="938.97" y="-286.51" font-family="Helvetica,sans-Serif" font-size="14.00"> p: (0.85, 0.15) </text>
<text text-anchor="start" x="954.47" y="-272.51" font-family="Helvetica,sans-Serif" font-size="14.00">&#45;&#45;&#45;&#45;&#45;&#45;&#45;&#45;&#45;&#45;&#45;&#45;&#45;&#45;&#45;</text>
<text text-anchor="start" x="927.47" y="-258.51" font-family="Helvetica,sans-Serif" font-weight="bold" font-size="14.00">Clump_Thickness</text>
</g>
<!-- 13&#45;&gt;14 -->
<g id="edge14" class="edge">
<title>13:s&#45;&gt;14:n</title>
<path fill="none" stroke="black" d="M993.97,-379.71C993.97,-379.71 993.97,-353.93 993.97,-339.03"/>
<polygon fill="black" stroke="black" points="997.47,-338.71 993.97,-328.71 990.47,-338.71 997.47,-338.71"/>
<text text-anchor="middle" x="1012.97" y="-350.51" font-family="Helvetica,sans-Serif" font-size="14.00">&lt;= 2</text>
</g>
<!-- 17 -->
<g id="node16" class="node">
<title>17</title>
<polygon fill="#44e55e" stroke="black" points="1345.97,-328.71 1181.97,-328.71 1181.97,-250.71 1345.97,-250.71 1345.97,-328.71"/>
<text text-anchor="start" x="1190.47" y="-314.51" font-family="Helvetica,sans-Serif" font-weight="bold" font-size="14.00"> Class=malignant </text>
<text text-anchor="start" x="1332.47" y="-314.51" font-family="Helvetica,sans-Serif" font-size="14.00"> </text>
<text text-anchor="start" x="1189.97" y="-300.51" font-family="Helvetica,sans-Serif" font-size="14.00"> error: 0.711, n=699 </text>
<text text-anchor="start" x="1208.97" y="-286.51" font-family="Helvetica,sans-Serif" font-size="14.00"> p: (0.19, 0.81) </text>
<text text-anchor="start" x="1234.97" y="-272.51" font-family="Helvetica,sans-Serif" font-size="14.00">&#45;&#45;&#45;&#45;&#45;&#45;&#45;&#45;&#45;&#45;&#45;</text>
<text text-anchor="start" x="1217.47" y="-258.51" font-family="Helvetica,sans-Serif" font-weight="bold" font-size="14.00">Bare_Nuclei</text>
</g>
<!-- 13&#45;&gt;17 -->
<g id="edge15" class="edge">
<title>13:s&#45;&gt;17:n</title>
<path fill="none" stroke="black" d="M993.97,-379.71C993.97,-379.71 1205.32,-339.79 1254.04,-330.59"/>
<polygon fill="black" stroke="black" points="1254.79,-334.01 1263.97,-328.71 1253.49,-327.13 1254.79,-334.01"/>
<text text-anchor="middle" x="1174.97" y="-350.51" font-family="Helvetica,sans-Serif" font-size="14.00">&gt; 2</text>
</g>
<!-- 15 -->
<g id="node17" class="node">
<title>15</title>
<polygon fill="#3dccba" stroke="black" points="1075.97,-199.71 911.97,-199.71 911.97,-121.71 1075.97,-121.71 1075.97,-199.71"/>
<text text-anchor="start" x="933.47" y="-185.51" font-family="Helvetica,sans-Serif" font-weight="bold" font-size="14.00"> Class=benign </text>
<text text-anchor="start" x="1049.47" y="-185.51" font-family="Helvetica,sans-Serif" font-size="14.00"> </text>
<text text-anchor="start" x="919.97" y="-171.51" font-family="Helvetica,sans-Serif" font-size="14.00"> error: 0.271, n=699 </text>
<text text-anchor="start" x="938.97" y="-157.51" font-family="Helvetica,sans-Serif" font-size="14.00"> p: (0.95, 0.05) </text>
<text text-anchor="start" x="948.97" y="-143.51" font-family="Helvetica,sans-Serif" font-size="14.00">&#45;&#45;&#45;&#45;&#45;&#45;&#45;&#45;&#45;&#45;&#45;&#45;&#45;&#45;&#45;&#45;&#45;</text>
<text text-anchor="start" x="919.97" y="-129.51" font-family="Helvetica,sans-Serif" font-weight="bold" font-size="14.00">Marginal_Adhesion</text>
</g>
<!-- 14&#45;&gt;15 -->
<g id="edge16" class="edge">
<title>14:s&#45;&gt;15:n</title>
<path fill="none" stroke="black" d="M993.97,-250.71C993.97,-250.71 993.97,-224.93 993.97,-210.03"/>
<polygon fill="black" stroke="black" points="997.47,-209.71 993.97,-199.71 990.47,-209.71 997.47,-209.71"/>
<text text-anchor="middle" x="1012.97" y="-221.51" font-family="Helvetica,sans-Serif" font-size="14.00">&lt;= 5</text>
</g>
<!-- 18 -->
<g id="node19" class="node">
<title>18</title>
<polygon fill="#3dccba" stroke="black" points="1367.97,-199.71 1203.97,-199.71 1203.97,-121.71 1367.97,-121.71 1367.97,-199.71"/>
<text text-anchor="start" x="1212.47" y="-185.51" font-family="Helvetica,sans-Serif" font-weight="bold" font-size="14.00"> Class=malignant </text>
<text text-anchor="start" x="1354.47" y="-185.51" font-family="Helvetica,sans-Serif" font-size="14.00"> </text>
<text text-anchor="start" x="1211.97" y="-171.51" font-family="Helvetica,sans-Serif" font-size="14.00"> error: 0.459, n=699 </text>
<text text-anchor="start" x="1230.97" y="-157.51" font-family="Helvetica,sans-Serif" font-size="14.00"> p: (0.10, 0.90) </text>
<text text-anchor="start" x="1246.47" y="-143.51" font-family="Helvetica,sans-Serif" font-size="14.00">&#45;&#45;&#45;&#45;&#45;&#45;&#45;&#45;&#45;&#45;&#45;&#45;&#45;&#45;&#45;</text>
<text text-anchor="start" x="1219.47" y="-129.51" font-family="Helvetica,sans-Serif" font-weight="bold" font-size="14.00">Clump_Thickness</text>
</g>
<!-- 17&#45;&gt;18 -->
<g id="edge18" class="edge">
<title>17:s&#45;&gt;18:n</title>
<path fill="none" stroke="black" d="M1263.97,-250.71C1263.97,-250.71 1275.58,-223.79 1281.93,-209.06"/>
<polygon fill="black" stroke="black" points="1285.22,-210.28 1285.97,-199.71 1278.79,-207.51 1285.22,-210.28"/>
<text text-anchor="middle" x="1290.97" y="-221.51" font-family="Helvetica,sans-Serif" font-size="14.00">&gt; 2</text>
</g>
<!-- 16 -->
<g id="node18" class="node">
<title>16</title>
<ellipse fill="#4485e5" stroke="black" cx="989.97" cy="-35.36" rx="115.93" ry="35.21"/>
<text text-anchor="start" x="929.47" y="-46.16" font-family="Helvetica,sans-Serif" font-weight="bold" font-size="14.00"> Class=benign </text>
<text text-anchor="start" x="1045.47" y="-46.16" font-family="Helvetica,sans-Serif" font-size="14.00"> </text>
<text text-anchor="start" x="915.97" y="-32.16" font-family="Helvetica,sans-Serif" font-size="14.00"> error: 0.000, n=699 </text>
<text text-anchor="start" x="934.97" y="-18.16" font-family="Helvetica,sans-Serif" font-size="14.00"> p: (1.00, 0.00) </text>
</g>
<!-- 15&#45;&gt;16 -->
<g id="edge17" class="edge">
<title>15:s&#45;&gt;16:n</title>
<path fill="none" stroke="black" d="M993.97,-121.71C993.97,-121.71 991.94,-95.93 990.77,-81.03"/>
<polygon fill="black" stroke="black" points="994.24,-80.41 989.97,-70.71 987.26,-80.95 994.24,-80.41"/>
<text text-anchor="middle" x="1011.97" y="-92.51" font-family="Helvetica,sans-Serif" font-size="14.00">&lt;= 2</text>
</g>
<!-- 19 -->
<g id="node20" class="node">
<title>19</title>
<ellipse fill="#4485e5" stroke="black" cx="1293.97" cy="-35.36" rx="115.93" ry="35.21"/>
<text text-anchor="start" x="1220.47" y="-46.16" font-family="Helvetica,sans-Serif" font-weight="bold" font-size="14.00"> Class=malignant </text>
<text text-anchor="start" x="1362.47" y="-46.16" font-family="Helvetica,sans-Serif" font-size="14.00"> </text>
<text text-anchor="start" x="1219.97" y="-32.16" font-family="Helvetica,sans-Serif" font-size="14.00"> error: 0.650, n=699 </text>
<text text-anchor="start" x="1238.97" y="-18.16" font-family="Helvetica,sans-Serif" font-size="14.00"> p: (0.17, 0.83) </text>
</g>
<!-- 18&#45;&gt;19 -->
<g id="edge19" class="edge">
<title>18:s&#45;&gt;19:n</title>
<path fill="none" stroke="black" d="M1285.97,-121.71C1285.97,-121.71 1290.01,-95.93 1292.35,-81.03"/>
<polygon fill="black" stroke="black" points="1295.87,-81.13 1293.97,-70.71 1288.96,-80.05 1295.87,-81.13"/>
<text text-anchor="middle" x="1309.97" y="-92.51" font-family="Helvetica,sans-Serif" font-size="14.00">&lt;= 6</text>
</g>
</g>
</svg>
