<?xml version="1.0" encoding="UTF-8" standalone="no"?>
<!DOCTYPE svg PUBLIC "-//W3C//DTD SVG 1.1//EN"
 "http://www.w3.org/Graphics/SVG/1.1/DTD/svg11.dtd">
<!-- Generated by graphviz version 2.43.0 (0)
 -->
<!-- Title: Tree Pages: 1 -->
<svg width="2158pt" height="567pt"
 viewBox="0.00 0.00 2157.66 566.71" xmlns="http://www.w3.org/2000/svg" xmlns:xlink="http://www.w3.org/1999/xlink">
<g id="graph0" class="graph" transform="scale(1 1) rotate(0) translate(18 548.71)">
<title>Tree</title>
<polygon fill="white" stroke="transparent" points="-18,18 -18,-548.71 2139.66,-548.71 2139.66,18 -18,18"/>
<!-- 0 -->
<g id="node1" class="node">
<title>0</title>
<polygon fill="white" stroke="transparent" points="847.33,-530.71 793.33,-530.71 793.33,-494.71 847.33,-494.71 847.33,-530.71"/>
<text text-anchor="middle" x="820.33" y="-509.01" font-family="Helvetica,sans-Serif" font-size="14.00">0</text>
</g>
<!-- 1 -->
<g id="node2" class="node">
<title>1</title>
<polygon fill="#cc3d3d" stroke="black" points="951.33,-457.71 689.33,-457.71 689.33,-379.71 951.33,-379.71 951.33,-457.71"/>
<text text-anchor="start" x="781.33" y="-443.51" font-family="Helvetica,sans-Serif" font-weight="bold" font-size="14.00"> Class=0 </text>
<text text-anchor="start" x="854.33" y="-443.51" font-family="Helvetica,sans-Serif" font-size="14.00"> </text>
<text text-anchor="start" x="741.83" y="-429.51" font-family="Helvetica,sans-Serif" font-size="14.00"> error: 0.588, n=5000 </text>
<text text-anchor="start" x="765.33" y="-415.51" font-family="Helvetica,sans-Serif" font-size="14.00"> p: (0.86, 0.14) </text>
<text text-anchor="start" x="743.83" y="-401.51" font-family="Helvetica,sans-Serif" font-size="14.00">&#45;&#45;&#45;&#45;&#45;&#45;&#45;&#45;&#45;&#45;&#45;&#45;&#45;&#45;&#45;&#45;&#45;&#45;&#45;&#45;&#45;&#45;&#45;&#45;&#45;&#45;&#45;&#45;&#45;</text>
<text text-anchor="start" x="697.33" y="-387.51" font-family="Helvetica,sans-Serif" font-weight="bold" font-size="14.00">number_customer_service_calls</text>
</g>
<!-- 0&#45;&gt;1 -->
<!-- 2 -->
<g id="node3" class="node">
<title>2</title>
<polygon fill="#c5e544" stroke="black" points="297.83,-328.71 124.83,-328.71 124.83,-250.71 297.83,-250.71 297.83,-328.71"/>
<text text-anchor="start" x="172.33" y="-314.51" font-family="Helvetica,sans-Serif" font-weight="bold" font-size="14.00"> Class=0 </text>
<text text-anchor="start" x="245.33" y="-314.51" font-family="Helvetica,sans-Serif" font-size="14.00"> </text>
<text text-anchor="start" x="132.83" y="-300.51" font-family="Helvetica,sans-Serif" font-size="14.00"> error: 0.990, n=5000 </text>
<text text-anchor="start" x="156.33" y="-286.51" font-family="Helvetica,sans-Serif" font-size="14.00"> p: (0.56, 0.44) </text>
<text text-anchor="start" x="166.33" y="-272.51" font-family="Helvetica,sans-Serif" font-size="14.00">&#45;&#45;&#45;&#45;&#45;&#45;&#45;&#45;&#45;&#45;&#45;&#45;&#45;&#45;&#45;&#45;&#45;</text>
<text text-anchor="start" x="140.33" y="-258.51" font-family="Helvetica,sans-Serif" font-weight="bold" font-size="14.00">total_day_minutes</text>
</g>
<!-- 1&#45;&gt;2 -->
<g id="edge2" class="edge">
<title>1:s&#45;&gt;2:n</title>
<path fill="none" stroke="black" d="M820.33,-379.71C820.33,-379.71 300.57,-336.18 221.39,-329.55"/>
<polygon fill="black" stroke="black" points="221.59,-326.06 211.33,-328.71 221,-333.03 221.59,-326.06"/>
<text text-anchor="middle" x="583.33" y="-350.51" font-family="Helvetica,sans-Serif" font-size="14.00">4</text>
</g>
<!-- 4 -->
<g id="node4" class="node">
<title>4</title>
<polygon fill="#c5e544" stroke="black" points="560.83,-328.71 387.83,-328.71 387.83,-250.71 560.83,-250.71 560.83,-328.71"/>
<text text-anchor="start" x="435.33" y="-314.51" font-family="Helvetica,sans-Serif" font-weight="bold" font-size="14.00"> Class=0 </text>
<text text-anchor="start" x="508.33" y="-314.51" font-family="Helvetica,sans-Serif" font-size="14.00"> </text>
<text text-anchor="start" x="395.83" y="-300.51" font-family="Helvetica,sans-Serif" font-size="14.00"> error: 0.499, n=5000 </text>
<text text-anchor="start" x="419.33" y="-286.51" font-family="Helvetica,sans-Serif" font-size="14.00"> p: (0.89, 0.11) </text>
<text text-anchor="start" x="426.83" y="-272.51" font-family="Helvetica,sans-Serif" font-size="14.00">&#45;&#45;&#45;&#45;&#45;&#45;&#45;&#45;&#45;&#45;&#45;&#45;&#45;&#45;&#45;&#45;&#45;&#45;</text>
<text text-anchor="start" x="402.83" y="-258.51" font-family="Helvetica,sans-Serif" font-weight="bold" font-size="14.00">international_plan</text>
</g>
<!-- 1&#45;&gt;4 -->
<g id="edge3" class="edge">
<title>1:s&#45;&gt;4:n</title>
<path fill="none" stroke="black" d="M820.33,-379.71C820.33,-379.71 541.04,-338.54 484.31,-330.18"/>
<polygon fill="black" stroke="black" points="484.73,-326.71 474.33,-328.71 483.71,-333.63 484.73,-326.71"/>
<text text-anchor="middle" x="694.33" y="-350.51" font-family="Helvetica,sans-Serif" font-size="14.00">3</text>
</g>
<!-- 7 -->
<g id="node5" class="node">
<title>7</title>
<polygon fill="#c5e544" stroke="black" points="906.83,-328.71 733.83,-328.71 733.83,-250.71 906.83,-250.71 906.83,-328.71"/>
<text text-anchor="start" x="781.33" y="-314.51" font-family="Helvetica,sans-Serif" font-weight="bold" font-size="14.00"> Class=0 </text>
<text text-anchor="start" x="854.33" y="-314.51" font-family="Helvetica,sans-Serif" font-size="14.00"> </text>
<text text-anchor="start" x="741.83" y="-300.51" font-family="Helvetica,sans-Serif" font-size="14.00"> error: 0.495, n=5000 </text>
<text text-anchor="start" x="765.33" y="-286.51" font-family="Helvetica,sans-Serif" font-size="14.00"> p: (0.89, 0.11) </text>
<text text-anchor="start" x="775.33" y="-272.51" font-family="Helvetica,sans-Serif" font-size="14.00">&#45;&#45;&#45;&#45;&#45;&#45;&#45;&#45;&#45;&#45;&#45;&#45;&#45;&#45;&#45;&#45;&#45;</text>
<text text-anchor="start" x="749.33" y="-258.51" font-family="Helvetica,sans-Serif" font-weight="bold" font-size="14.00">total_day_minutes</text>
</g>
<!-- 1&#45;&gt;7 -->
<g id="edge4" class="edge">
<title>1:s&#45;&gt;7:n</title>
<path fill="none" stroke="black" d="M820.33,-379.71C820.33,-379.71 820.33,-353.93 820.33,-339.03"/>
<polygon fill="black" stroke="black" points="823.83,-338.71 820.33,-328.71 816.83,-338.71 823.83,-338.71"/>
<text text-anchor="middle" x="825.33" y="-350.51" font-family="Helvetica,sans-Serif" font-size="14.00">2</text>
</g>
<!-- 12 -->
<g id="node6" class="node">
<title>12</title>
<polygon fill="#c5e544" stroke="black" points="1224.83,-328.71 1051.83,-328.71 1051.83,-250.71 1224.83,-250.71 1224.83,-328.71"/>
<text text-anchor="start" x="1099.33" y="-314.51" font-family="Helvetica,sans-Serif" font-weight="bold" font-size="14.00"> Class=0 </text>
<text text-anchor="start" x="1172.33" y="-314.51" font-family="Helvetica,sans-Serif" font-size="14.00"> </text>
<text text-anchor="start" x="1059.83" y="-300.51" font-family="Helvetica,sans-Serif" font-size="14.00"> error: 0.524, n=5000 </text>
<text text-anchor="start" x="1083.33" y="-286.51" font-family="Helvetica,sans-Serif" font-size="14.00"> p: (0.88, 0.12) </text>
<text text-anchor="start" x="1093.33" y="-272.51" font-family="Helvetica,sans-Serif" font-size="14.00">&#45;&#45;&#45;&#45;&#45;&#45;&#45;&#45;&#45;&#45;&#45;&#45;&#45;&#45;&#45;&#45;&#45;</text>
<text text-anchor="start" x="1067.33" y="-258.51" font-family="Helvetica,sans-Serif" font-weight="bold" font-size="14.00">total_day_minutes</text>
</g>
<!-- 1&#45;&gt;12 -->
<g id="edge5" class="edge">
<title>1:s&#45;&gt;12:n</title>
<path fill="none" stroke="black" d="M820.33,-379.71C820.33,-379.71 1073.68,-339.08 1128.11,-330.35"/>
<polygon fill="black" stroke="black" points="1129.01,-333.75 1138.33,-328.71 1127.9,-326.84 1129.01,-333.75"/>
<text text-anchor="middle" x="1022.33" y="-350.51" font-family="Helvetica,sans-Serif" font-size="14.00">0</text>
</g>
<!-- 16 -->
<g id="node7" class="node">
<title>16</title>
<polygon fill="#c5e544" stroke="black" points="1786.83,-328.71 1613.83,-328.71 1613.83,-250.71 1786.83,-250.71 1786.83,-328.71"/>
<text text-anchor="start" x="1661.33" y="-314.51" font-family="Helvetica,sans-Serif" font-weight="bold" font-size="14.00"> Class=0 </text>
<text text-anchor="start" x="1734.33" y="-314.51" font-family="Helvetica,sans-Serif" font-size="14.00"> </text>
<text text-anchor="start" x="1621.83" y="-300.51" font-family="Helvetica,sans-Serif" font-size="14.00"> error: 0.489, n=5000 </text>
<text text-anchor="start" x="1645.33" y="-286.51" font-family="Helvetica,sans-Serif" font-size="14.00"> p: (0.89, 0.11) </text>
<text text-anchor="start" x="1655.33" y="-272.51" font-family="Helvetica,sans-Serif" font-size="14.00">&#45;&#45;&#45;&#45;&#45;&#45;&#45;&#45;&#45;&#45;&#45;&#45;&#45;&#45;&#45;&#45;&#45;</text>
<text text-anchor="start" x="1629.33" y="-258.51" font-family="Helvetica,sans-Serif" font-weight="bold" font-size="14.00">total_day_minutes</text>
</g>
<!-- 1&#45;&gt;16 -->
<g id="edge6" class="edge">
<title>1:s&#45;&gt;16:n</title>
<path fill="none" stroke="black" d="M820.33,-379.71C820.33,-379.71 1592.16,-334.98 1690.14,-329.3"/>
<polygon fill="black" stroke="black" points="1690.55,-332.78 1700.33,-328.71 1690.14,-325.8 1690.55,-332.78"/>
<text text-anchor="middle" x="1370.33" y="-350.51" font-family="Helvetica,sans-Serif" font-size="14.00">1</text>
</g>
<!-- 3 -->
<g id="node8" class="node">
<title>3</title>
<ellipse fill="#3dcc76" stroke="black" cx="122.33" cy="-160.71" rx="122.16" ry="35.21"/>
<text text-anchor="start" x="83.33" y="-171.51" font-family="Helvetica,sans-Serif" font-weight="bold" font-size="14.00"> Class=0 </text>
<text text-anchor="start" x="156.33" y="-171.51" font-family="Helvetica,sans-Serif" font-size="14.00"> </text>
<text text-anchor="start" x="43.83" y="-157.51" font-family="Helvetica,sans-Serif" font-size="14.00"> error: 0.875, n=5000 </text>
<text text-anchor="start" x="67.33" y="-143.51" font-family="Helvetica,sans-Serif" font-size="14.00"> p: (0.71, 0.29) </text>
</g>
<!-- 2&#45;&gt;3 -->
<g id="edge7" class="edge">
<title>2:s&#45;&gt;3:n</title>
<path fill="none" stroke="black" d="M211.33,-250.71C211.33,-250.71 153.7,-216.39 131.19,-202.99"/>
<polygon fill="black" stroke="black" points="132.71,-199.82 122.33,-197.71 129.13,-205.83 132.71,-199.82"/>
<text text-anchor="middle" x="209.33" y="-221.51" font-family="Helvetica,sans-Serif" font-size="14.00">&gt; 153.2</text>
</g>
<!-- 5 -->
<g id="node9" class="node">
<title>5</title>
<polygon fill="#3dcc76" stroke="black" points="489.83,-199.71 316.83,-199.71 316.83,-121.71 489.83,-121.71 489.83,-199.71"/>
<text text-anchor="start" x="364.33" y="-185.51" font-family="Helvetica,sans-Serif" font-weight="bold" font-size="14.00"> Class=0 </text>
<text text-anchor="start" x="437.33" y="-185.51" font-family="Helvetica,sans-Serif" font-size="14.00"> </text>
<text text-anchor="start" x="324.83" y="-171.51" font-family="Helvetica,sans-Serif" font-size="14.00"> error: 0.406, n=5000 </text>
<text text-anchor="start" x="348.33" y="-157.51" font-family="Helvetica,sans-Serif" font-size="14.00"> p: (0.92, 0.08) </text>
<text text-anchor="start" x="358.33" y="-143.51" font-family="Helvetica,sans-Serif" font-size="14.00">&#45;&#45;&#45;&#45;&#45;&#45;&#45;&#45;&#45;&#45;&#45;&#45;&#45;&#45;&#45;&#45;&#45;</text>
<text text-anchor="start" x="332.33" y="-129.51" font-family="Helvetica,sans-Serif" font-weight="bold" font-size="14.00">total_day_minutes</text>
</g>
<!-- 4&#45;&gt;5 -->
<g id="edge8" class="edge">
<title>4:s&#45;&gt;5:n</title>
<path fill="none" stroke="black" d="M474.33,-250.71C474.33,-250.71 430.12,-218.96 411.47,-205.56"/>
<polygon fill="black" stroke="black" points="413.49,-202.7 403.33,-199.71 409.41,-208.39 413.49,-202.7"/>
<text text-anchor="middle" x="452.33" y="-221.51" font-family="Helvetica,sans-Serif" font-size="14.00">0</text>
</g>
<!-- 8 -->
<g id="node11" class="node">
<title>8</title>
<polygon fill="#3dcc76" stroke="black" points="734.83,-199.71 561.83,-199.71 561.83,-121.71 734.83,-121.71 734.83,-199.71"/>
<text text-anchor="start" x="609.33" y="-185.51" font-family="Helvetica,sans-Serif" font-weight="bold" font-size="14.00"> Class=0 </text>
<text text-anchor="start" x="682.33" y="-185.51" font-family="Helvetica,sans-Serif" font-size="14.00"> </text>
<text text-anchor="start" x="569.83" y="-171.51" font-family="Helvetica,sans-Serif" font-size="14.00"> error: 0.303, n=5000 </text>
<text text-anchor="start" x="593.33" y="-157.51" font-family="Helvetica,sans-Serif" font-size="14.00"> p: (0.95, 0.05) </text>
<text text-anchor="start" x="600.83" y="-143.51" font-family="Helvetica,sans-Serif" font-size="14.00">&#45;&#45;&#45;&#45;&#45;&#45;&#45;&#45;&#45;&#45;&#45;&#45;&#45;&#45;&#45;&#45;&#45;&#45;</text>
<text text-anchor="start" x="576.83" y="-129.51" font-family="Helvetica,sans-Serif" font-weight="bold" font-size="14.00">international_plan</text>
</g>
<!-- 7&#45;&gt;8 -->
<g id="edge10" class="edge">
<title>7:s&#45;&gt;8:n</title>
<path fill="none" stroke="black" d="M820.33,-250.71C820.33,-250.71 694.46,-213.39 658.07,-202.6"/>
<polygon fill="black" stroke="black" points="658.91,-199.2 648.33,-199.71 656.92,-205.91 658.91,-199.2"/>
<text text-anchor="middle" x="790.33" y="-221.51" font-family="Helvetica,sans-Serif" font-size="14.00">&lt;= 217.6</text>
</g>
<!-- 10 -->
<g id="node12" class="node">
<title>10</title>
<polygon fill="#3dcc76" stroke="black" points="979.83,-199.71 806.83,-199.71 806.83,-121.71 979.83,-121.71 979.83,-199.71"/>
<text text-anchor="start" x="854.33" y="-185.51" font-family="Helvetica,sans-Serif" font-weight="bold" font-size="14.00"> Class=0 </text>
<text text-anchor="start" x="927.33" y="-185.51" font-family="Helvetica,sans-Serif" font-size="14.00"> </text>
<text text-anchor="start" x="814.83" y="-171.51" font-family="Helvetica,sans-Serif" font-size="14.00"> error: 0.874, n=5000 </text>
<text text-anchor="start" x="838.33" y="-157.51" font-family="Helvetica,sans-Serif" font-size="14.00"> p: (0.71, 0.29) </text>
<text text-anchor="start" x="848.33" y="-143.51" font-family="Helvetica,sans-Serif" font-size="14.00">&#45;&#45;&#45;&#45;&#45;&#45;&#45;&#45;&#45;&#45;&#45;&#45;&#45;&#45;&#45;&#45;&#45;</text>
<text text-anchor="start" x="822.33" y="-129.51" font-family="Helvetica,sans-Serif" font-weight="bold" font-size="14.00">total_day_minutes</text>
</g>
<!-- 7&#45;&gt;10 -->
<g id="edge11" class="edge">
<title>7:s&#45;&gt;10:n</title>
<path fill="none" stroke="black" d="M820.33,-250.71C820.33,-250.71 865.78,-218.96 884.96,-205.56"/>
<polygon fill="black" stroke="black" points="887.14,-208.31 893.33,-199.71 883.13,-202.57 887.14,-208.31"/>
<text text-anchor="middle" x="895.33" y="-221.51" font-family="Helvetica,sans-Serif" font-size="14.00">&gt; 217.6</text>
</g>
<!-- 13 -->
<g id="node15" class="node">
<title>13</title>
<polygon fill="#3dcc76" stroke="black" points="1224.83,-199.71 1051.83,-199.71 1051.83,-121.71 1224.83,-121.71 1224.83,-199.71"/>
<text text-anchor="start" x="1099.33" y="-185.51" font-family="Helvetica,sans-Serif" font-weight="bold" font-size="14.00"> Class=0 </text>
<text text-anchor="start" x="1172.33" y="-185.51" font-family="Helvetica,sans-Serif" font-size="14.00"> </text>
<text text-anchor="start" x="1059.83" y="-171.51" font-family="Helvetica,sans-Serif" font-size="14.00"> error: 0.324, n=5000 </text>
<text text-anchor="start" x="1083.33" y="-157.51" font-family="Helvetica,sans-Serif" font-size="14.00"> p: (0.94, 0.06) </text>
<text text-anchor="start" x="1090.83" y="-143.51" font-family="Helvetica,sans-Serif" font-size="14.00">&#45;&#45;&#45;&#45;&#45;&#45;&#45;&#45;&#45;&#45;&#45;&#45;&#45;&#45;&#45;&#45;&#45;&#45;</text>
<text text-anchor="start" x="1066.83" y="-129.51" font-family="Helvetica,sans-Serif" font-weight="bold" font-size="14.00">international_plan</text>
</g>
<!-- 12&#45;&gt;13 -->
<g id="edge14" class="edge">
<title>12:s&#45;&gt;13:n</title>
<path fill="none" stroke="black" d="M1138.33,-250.71C1138.33,-250.71 1138.33,-224.93 1138.33,-210.03"/>
<polygon fill="black" stroke="black" points="1141.83,-209.71 1138.33,-199.71 1134.83,-209.71 1141.83,-209.71"/>
<text text-anchor="middle" x="1173.33" y="-221.51" font-family="Helvetica,sans-Serif" font-size="14.00">&lt;= 221.4</text>
</g>
<!-- 15 -->
<g id="node16" class="node">
<title>15</title>
<ellipse fill="#3dcc76" stroke="black" cx="1419.33" cy="-160.71" rx="122.16" ry="35.21"/>
<text text-anchor="start" x="1380.33" y="-171.51" font-family="Helvetica,sans-Serif" font-weight="bold" font-size="14.00"> Class=0 </text>
<text text-anchor="start" x="1453.33" y="-171.51" font-family="Helvetica,sans-Serif" font-size="14.00"> </text>
<text text-anchor="start" x="1340.83" y="-157.51" font-family="Helvetica,sans-Serif" font-size="14.00"> error: 0.911, n=5000 </text>
<text text-anchor="start" x="1364.33" y="-143.51" font-family="Helvetica,sans-Serif" font-size="14.00"> p: (0.67, 0.33) </text>
</g>
<!-- 12&#45;&gt;15 -->
<g id="edge15" class="edge">
<title>12:s&#45;&gt;15:n</title>
<path fill="none" stroke="black" d="M1138.33,-250.71C1138.33,-250.71 1359.27,-209.04 1409.33,-199.6"/>
<polygon fill="black" stroke="black" points="1410.15,-203 1419.33,-197.71 1408.85,-196.12 1410.15,-203"/>
<text text-anchor="middle" x="1341.33" y="-221.51" font-family="Helvetica,sans-Serif" font-size="14.00">&gt; 221.4</text>
</g>
<!-- 17 -->
<g id="node18" class="node">
<title>17</title>
<polygon fill="#3dcc76" stroke="black" points="1786.83,-199.71 1613.83,-199.71 1613.83,-121.71 1786.83,-121.71 1786.83,-199.71"/>
<text text-anchor="start" x="1661.33" y="-185.51" font-family="Helvetica,sans-Serif" font-weight="bold" font-size="14.00"> Class=0 </text>
<text text-anchor="start" x="1734.33" y="-185.51" font-family="Helvetica,sans-Serif" font-size="14.00"> </text>
<text text-anchor="start" x="1621.83" y="-171.51" font-family="Helvetica,sans-Serif" font-size="14.00"> error: 0.295, n=5000 </text>
<text text-anchor="start" x="1645.33" y="-157.51" font-family="Helvetica,sans-Serif" font-size="14.00"> p: (0.95, 0.05) </text>
<text text-anchor="start" x="1652.83" y="-143.51" font-family="Helvetica,sans-Serif" font-size="14.00">&#45;&#45;&#45;&#45;&#45;&#45;&#45;&#45;&#45;&#45;&#45;&#45;&#45;&#45;&#45;&#45;&#45;&#45;</text>
<text text-anchor="start" x="1628.83" y="-129.51" font-family="Helvetica,sans-Serif" font-weight="bold" font-size="14.00">international_plan</text>
</g>
<!-- 16&#45;&gt;17 -->
<g id="edge17" class="edge">
<title>16:s&#45;&gt;17:n</title>
<path fill="none" stroke="black" d="M1700.33,-250.71C1700.33,-250.71 1700.33,-224.93 1700.33,-210.03"/>
<polygon fill="black" stroke="black" points="1703.83,-209.71 1700.33,-199.71 1696.83,-209.71 1703.83,-209.71"/>
<text text-anchor="middle" x="1735.33" y="-221.51" font-family="Helvetica,sans-Serif" font-size="14.00">&lt;= 223.8</text>
</g>
<!-- 19 -->
<g id="node19" class="node">
<title>19</title>
<polygon fill="#3dcc76" stroke="black" points="2067.83,-199.71 1894.83,-199.71 1894.83,-121.71 2067.83,-121.71 2067.83,-199.71"/>
<text text-anchor="start" x="1942.33" y="-185.51" font-family="Helvetica,sans-Serif" font-weight="bold" font-size="14.00"> Class=0 </text>
<text text-anchor="start" x="2015.33" y="-185.51" font-family="Helvetica,sans-Serif" font-size="14.00"> </text>
<text text-anchor="start" x="1902.83" y="-171.51" font-family="Helvetica,sans-Serif" font-size="14.00"> error: 0.906, n=5000 </text>
<text text-anchor="start" x="1926.33" y="-157.51" font-family="Helvetica,sans-Serif" font-size="14.00"> p: (0.68, 0.32) </text>
<text text-anchor="start" x="1936.33" y="-143.51" font-family="Helvetica,sans-Serif" font-size="14.00">&#45;&#45;&#45;&#45;&#45;&#45;&#45;&#45;&#45;&#45;&#45;&#45;&#45;&#45;&#45;&#45;&#45;</text>
<text text-anchor="start" x="1910.33" y="-129.51" font-family="Helvetica,sans-Serif" font-weight="bold" font-size="14.00">total_day_minutes</text>
</g>
<!-- 16&#45;&gt;19 -->
<g id="edge18" class="edge">
<title>16:s&#45;&gt;19:n</title>
<path fill="none" stroke="black" d="M1700.33,-250.71C1700.33,-250.71 1921.27,-210.61 1971.33,-201.53"/>
<polygon fill="black" stroke="black" points="1972.12,-204.94 1981.33,-199.71 1970.87,-198.05 1972.12,-204.94"/>
<text text-anchor="middle" x="1903.33" y="-221.51" font-family="Helvetica,sans-Serif" font-size="14.00">&gt; 223.8</text>
</g>
<!-- 6 -->
<g id="node10" class="node">
<title>6</title>
<ellipse fill="#4485e5" stroke="black" cx="295.33" cy="-35.36" rx="122.16" ry="35.21"/>
<text text-anchor="start" x="256.33" y="-46.16" font-family="Helvetica,sans-Serif" font-weight="bold" font-size="14.00"> Class=0 </text>
<text text-anchor="start" x="329.33" y="-46.16" font-family="Helvetica,sans-Serif" font-size="14.00"> </text>
<text text-anchor="start" x="216.83" y="-32.16" font-family="Helvetica,sans-Serif" font-size="14.00"> error: 0.175, n=5000 </text>
<text text-anchor="start" x="240.33" y="-18.16" font-family="Helvetica,sans-Serif" font-size="14.00"> p: (0.97, 0.03) </text>
</g>
<!-- 5&#45;&gt;6 -->
<g id="edge9" class="edge">
<title>5:s&#45;&gt;6:n</title>
<path fill="none" stroke="black" d="M403.33,-121.71C403.33,-121.71 330.65,-87.39 304.54,-75.06"/>
<polygon fill="black" stroke="black" points="305.87,-71.82 295.33,-70.71 302.88,-78.15 305.87,-71.82"/>
<text text-anchor="middle" x="390.33" y="-92.51" font-family="Helvetica,sans-Serif" font-size="14.00">&lt;= 221</text>
</g>
<!-- 9 -->
<g id="node13" class="node">
<title>9</title>
<ellipse fill="#4485e5" stroke="black" cx="612.33" cy="-35.36" rx="122.16" ry="35.21"/>
<text text-anchor="start" x="573.33" y="-46.16" font-family="Helvetica,sans-Serif" font-weight="bold" font-size="14.00"> Class=0 </text>
<text text-anchor="start" x="646.33" y="-46.16" font-family="Helvetica,sans-Serif" font-size="14.00"> </text>
<text text-anchor="start" x="533.83" y="-32.16" font-family="Helvetica,sans-Serif" font-size="14.00"> error: 0.175, n=5000 </text>
<text text-anchor="start" x="557.33" y="-18.16" font-family="Helvetica,sans-Serif" font-size="14.00"> p: (0.97, 0.03) </text>
</g>
<!-- 8&#45;&gt;9 -->
<g id="edge12" class="edge">
<title>8:s&#45;&gt;9:n</title>
<path fill="none" stroke="black" d="M648.33,-121.71C648.33,-121.71 628.5,-93.62 618.27,-79.13"/>
<polygon fill="black" stroke="black" points="620.96,-76.86 612.33,-70.71 615.24,-80.9 620.96,-76.86"/>
<text text-anchor="middle" x="640.33" y="-92.51" font-family="Helvetica,sans-Serif" font-size="14.00">0</text>
</g>
<!-- 11 -->
<g id="node14" class="node">
<title>11</title>
<ellipse fill="#4485e5" stroke="black" cx="929.33" cy="-35.36" rx="122.16" ry="35.21"/>
<text text-anchor="start" x="890.33" y="-46.16" font-family="Helvetica,sans-Serif" font-weight="bold" font-size="14.00"> Class=0 </text>
<text text-anchor="start" x="963.33" y="-46.16" font-family="Helvetica,sans-Serif" font-size="14.00"> </text>
<text text-anchor="start" x="850.83" y="-32.16" font-family="Helvetica,sans-Serif" font-size="14.00"> error: 0.688, n=5000 </text>
<text text-anchor="start" x="874.33" y="-18.16" font-family="Helvetica,sans-Serif" font-size="14.00"> p: (0.82, 0.18) </text>
</g>
<!-- 10&#45;&gt;11 -->
<g id="edge13" class="edge">
<title>10:s&#45;&gt;11:n</title>
<path fill="none" stroke="black" d="M893.33,-121.71C893.33,-121.71 913.16,-93.62 923.38,-79.13"/>
<polygon fill="black" stroke="black" points="926.42,-80.9 929.33,-70.71 920.7,-76.86 926.42,-80.9"/>
<text text-anchor="middle" x="951.33" y="-92.51" font-family="Helvetica,sans-Serif" font-size="14.00">&lt;= 268.4</text>
</g>
<!-- 14 -->
<g id="node17" class="node">
<title>14</title>
<ellipse fill="#4485e5" stroke="black" cx="1246.33" cy="-35.36" rx="122.16" ry="35.21"/>
<text text-anchor="start" x="1207.33" y="-46.16" font-family="Helvetica,sans-Serif" font-weight="bold" font-size="14.00"> Class=0 </text>
<text text-anchor="start" x="1280.33" y="-46.16" font-family="Helvetica,sans-Serif" font-size="14.00"> </text>
<text text-anchor="start" x="1167.83" y="-32.16" font-family="Helvetica,sans-Serif" font-size="14.00"> error: 0.162, n=5000 </text>
<text text-anchor="start" x="1191.33" y="-18.16" font-family="Helvetica,sans-Serif" font-size="14.00"> p: (0.98, 0.02) </text>
</g>
<!-- 13&#45;&gt;14 -->
<g id="edge16" class="edge">
<title>13:s&#45;&gt;14:n</title>
<path fill="none" stroke="black" d="M1138.33,-121.71C1138.33,-121.71 1211,-87.39 1237.12,-75.06"/>
<polygon fill="black" stroke="black" points="1238.78,-78.15 1246.33,-70.71 1235.79,-71.82 1238.78,-78.15"/>
<text text-anchor="middle" x="1210.33" y="-92.51" font-family="Helvetica,sans-Serif" font-size="14.00">0</text>
</g>
<!-- 18 -->
<g id="node20" class="node">
<title>18</title>
<ellipse fill="#4485e5" stroke="black" cx="1682.33" cy="-35.36" rx="122.16" ry="35.21"/>
<text text-anchor="start" x="1643.33" y="-46.16" font-family="Helvetica,sans-Serif" font-weight="bold" font-size="14.00"> Class=0 </text>
<text text-anchor="start" x="1716.33" y="-46.16" font-family="Helvetica,sans-Serif" font-size="14.00"> </text>
<text text-anchor="start" x="1603.83" y="-32.16" font-family="Helvetica,sans-Serif" font-size="14.00"> error: 0.186, n=5000 </text>
<text text-anchor="start" x="1627.33" y="-18.16" font-family="Helvetica,sans-Serif" font-size="14.00"> p: (0.97, 0.03) </text>
</g>
<!-- 17&#45;&gt;18 -->
<g id="edge19" class="edge">
<title>17:s&#45;&gt;18:n</title>
<path fill="none" stroke="black" d="M1700.33,-121.71C1700.33,-121.71 1691.03,-95.36 1685.8,-80.54"/>
<polygon fill="black" stroke="black" points="1688.96,-78.98 1682.33,-70.71 1682.36,-81.31 1688.96,-78.98"/>
<text text-anchor="middle" x="1699.33" y="-92.51" font-family="Helvetica,sans-Serif" font-size="14.00">0</text>
</g>
<!-- 20 -->
<g id="node21" class="node">
<title>20</title>
<ellipse fill="#4485e5" stroke="black" cx="1999.33" cy="-35.36" rx="122.16" ry="35.21"/>
<text text-anchor="start" x="1960.33" y="-46.16" font-family="Helvetica,sans-Serif" font-weight="bold" font-size="14.00"> Class=0 </text>
<text text-anchor="start" x="2033.33" y="-46.16" font-family="Helvetica,sans-Serif" font-size="14.00"> </text>
<text text-anchor="start" x="1920.83" y="-32.16" font-family="Helvetica,sans-Serif" font-size="14.00"> error: 0.642, n=5000 </text>
<text text-anchor="start" x="1944.33" y="-18.16" font-family="Helvetica,sans-Serif" font-size="14.00"> p: (0.84, 0.16) </text>
</g>
<!-- 19&#45;&gt;20 -->
<g id="edge20" class="edge">
<title>19:s&#45;&gt;20:n</title>
<path fill="none" stroke="black" d="M1981.33,-121.71C1981.33,-121.71 1990.63,-95.36 1995.86,-80.54"/>
<polygon fill="black" stroke="black" points="1999.3,-81.31 1999.33,-70.71 1992.7,-78.98 1999.3,-81.31"/>
<text text-anchor="middle" x="2028.33" y="-92.51" font-family="Helvetica,sans-Serif" font-size="14.00">&lt;= 253.2</text>
</g>
</g>
</svg>
