<?xml version="1.0" encoding="UTF-8" standalone="no"?>
<!DOCTYPE svg PUBLIC "-//W3C//DTD SVG 1.1//EN"
 "http://www.w3.org/Graphics/SVG/1.1/DTD/svg11.dtd">
<!-- Generated by graphviz version 2.43.0 (0)
 -->
<!-- Title: Tree Pages: 1 -->
<svg width="1415pt" height="954pt"
 viewBox="0.00 0.00 1414.93 953.71" xmlns="http://www.w3.org/2000/svg" xmlns:xlink="http://www.w3.org/1999/xlink">
<g id="graph0" class="graph" transform="scale(1 1) rotate(0) translate(18 935.71)">
<title>Tree</title>
<polygon fill="white" stroke="transparent" points="-18,18 -18,-935.71 1396.93,-935.71 1396.93,18 -18,18"/>
<!-- 0 -->
<g id="node1" class="node">
<title>0</title>
<polygon fill="white" stroke="transparent" points="805.97,-917.71 751.97,-917.71 751.97,-881.71 805.97,-881.71 805.97,-917.71"/>
<text text-anchor="middle" x="778.97" y="-896.01" font-family="Helvetica,sans-Serif" font-size="14.00">0</text>
</g>
<!-- 1 -->
<g id="node2" class="node">
<title>1</title>
<polygon fill="#cc3d3d" stroke="black" points="860.97,-844.71 696.97,-844.71 696.97,-766.71 860.97,-766.71 860.97,-844.71"/>
<text text-anchor="start" x="739.97" y="-830.51" font-family="Helvetica,sans-Serif" font-weight="bold" font-size="14.00"> Class=1 </text>
<text text-anchor="start" x="812.97" y="-830.51" font-family="Helvetica,sans-Serif" font-size="14.00"> </text>
<text text-anchor="start" x="704.97" y="-816.51" font-family="Helvetica,sans-Serif" font-size="14.00"> error: 0.420, n=540 </text>
<text text-anchor="start" x="723.97" y="-802.51" font-family="Helvetica,sans-Serif" font-size="14.00"> p: (0.09, 0.91) </text>
<text text-anchor="start" x="749.97" y="-788.51" font-family="Helvetica,sans-Serif" font-size="14.00">&#45;&#45;&#45;&#45;&#45;&#45;&#45;&#45;&#45;&#45;&#45;</text>
<text text-anchor="start" x="733.47" y="-774.51" font-family="Helvetica,sans-Serif" font-weight="bold" font-size="14.00">vconst_corr</text>
</g>
<!-- 0&#45;&gt;1 -->
<!-- 2 -->
<g id="node3" class="node">
<title>2</title>
<polygon fill="#e5a544" stroke="black" points="725.97,-715.71 561.97,-715.71 561.97,-637.71 725.97,-637.71 725.97,-715.71"/>
<text text-anchor="start" x="604.97" y="-701.51" font-family="Helvetica,sans-Serif" font-weight="bold" font-size="14.00"> Class=1 </text>
<text text-anchor="start" x="677.97" y="-701.51" font-family="Helvetica,sans-Serif" font-size="14.00"> </text>
<text text-anchor="start" x="569.97" y="-687.51" font-family="Helvetica,sans-Serif" font-size="14.00"> error: 0.643, n=540 </text>
<text text-anchor="start" x="588.97" y="-673.51" font-family="Helvetica,sans-Serif" font-size="14.00"> p: (0.16, 0.84) </text>
<text text-anchor="start" x="622.47" y="-659.51" font-family="Helvetica,sans-Serif" font-size="14.00">&#45;&#45;&#45;&#45;&#45;&#45;&#45;&#45;</text>
<text text-anchor="start" x="609.47" y="-645.51" font-family="Helvetica,sans-Serif" font-weight="bold" font-size="14.00">vconst_2</text>
</g>
<!-- 1&#45;&gt;2 -->
<g id="edge2" class="edge">
<title>1:s&#45;&gt;2:n</title>
<path fill="none" stroke="black" d="M778.97,-766.71C778.97,-766.71 684.63,-731.07 653.67,-719.38"/>
<polygon fill="black" stroke="black" points="654.56,-715.97 643.97,-715.71 652.08,-722.52 654.56,-715.97"/>
<text text-anchor="middle" x="761.47" y="-737.51" font-family="Helvetica,sans-Serif" font-size="14.00">&gt; 0.5006</text>
</g>
<!-- 19 -->
<g id="node4" class="node">
<title>19</title>
<ellipse fill="#e5a544" stroke="black" cx="913.97" cy="-676.71" rx="115.93" ry="35.21"/>
<text text-anchor="start" x="874.97" y="-687.51" font-family="Helvetica,sans-Serif" font-weight="bold" font-size="14.00"> Class=1 </text>
<text text-anchor="start" x="947.97" y="-687.51" font-family="Helvetica,sans-Serif" font-size="14.00"> </text>
<text text-anchor="start" x="839.97" y="-673.51" font-family="Helvetica,sans-Serif" font-size="14.00"> error: 0.063, n=540 </text>
<text text-anchor="start" x="858.97" y="-659.51" font-family="Helvetica,sans-Serif" font-size="14.00"> p: (0.01, 0.99) </text>
</g>
<!-- 1&#45;&gt;19 -->
<g id="edge3" class="edge">
<title>1:s&#45;&gt;19:n</title>
<path fill="none" stroke="black" d="M778.97,-766.71C778.97,-766.71 873.3,-729.67 904.26,-717.52"/>
<polygon fill="black" stroke="black" points="905.94,-720.62 913.97,-713.71 903.38,-714.11 905.94,-720.62"/>
<text text-anchor="middle" x="902.47" y="-737.51" font-family="Helvetica,sans-Serif" font-size="14.00">&lt;= 0.5006</text>
</g>
<!-- 3 -->
<g id="node5" class="node">
<title>3</title>
<ellipse fill="#afcc3d" stroke="black" cx="570.97" cy="-547.71" rx="115.93" ry="35.21"/>
<text text-anchor="start" x="531.97" y="-558.51" font-family="Helvetica,sans-Serif" font-weight="bold" font-size="14.00"> Class=1 </text>
<text text-anchor="start" x="604.97" y="-558.51" font-family="Helvetica,sans-Serif" font-size="14.00"> </text>
<text text-anchor="start" x="496.97" y="-544.51" font-family="Helvetica,sans-Serif" font-size="14.00"> error: 0.063, n=540 </text>
<text text-anchor="start" x="515.97" y="-530.51" font-family="Helvetica,sans-Serif" font-size="14.00"> p: (0.01, 0.99) </text>
</g>
<!-- 2&#45;&gt;3 -->
<g id="edge4" class="edge">
<title>2:s&#45;&gt;3:n</title>
<path fill="none" stroke="black" d="M643.97,-637.71C643.97,-637.71 598.51,-604.71 579.34,-590.79"/>
<polygon fill="black" stroke="black" points="581.11,-587.75 570.97,-584.71 577,-593.42 581.11,-587.75"/>
<text text-anchor="middle" x="653.97" y="-608.51" font-family="Helvetica,sans-Serif" font-size="14.00">&lt;= 0.523</text>
</g>
<!-- 4 -->
<g id="node6" class="node">
<title>4</title>
<polygon fill="#afcc3d" stroke="black" points="922.97,-586.71 758.97,-586.71 758.97,-508.71 922.97,-508.71 922.97,-586.71"/>
<text text-anchor="start" x="801.97" y="-572.51" font-family="Helvetica,sans-Serif" font-weight="bold" font-size="14.00"> Class=1 </text>
<text text-anchor="start" x="874.97" y="-572.51" font-family="Helvetica,sans-Serif" font-size="14.00"> </text>
<text text-anchor="start" x="766.97" y="-558.51" font-family="Helvetica,sans-Serif" font-size="14.00"> error: 0.905, n=540 </text>
<text text-anchor="start" x="785.97" y="-544.51" font-family="Helvetica,sans-Serif" font-size="14.00"> p: (0.32, 0.68) </text>
<text text-anchor="start" x="808.97" y="-530.51" font-family="Helvetica,sans-Serif" font-size="14.00">&#45;&#45;&#45;&#45;&#45;&#45;&#45;&#45;&#45;&#45;&#45;&#45;</text>
<text text-anchor="start" x="787.47" y="-516.51" font-family="Helvetica,sans-Serif" font-weight="bold" font-size="14.00">bckgrnd_vdc1</text>
</g>
<!-- 2&#45;&gt;4 -->
<g id="edge5" class="edge">
<title>2:s&#45;&gt;4:n</title>
<path fill="none" stroke="black" d="M643.97,-637.71C643.97,-637.71 791.45,-599.53 831.2,-589.24"/>
<polygon fill="black" stroke="black" points="832.16,-592.61 840.97,-586.71 830.41,-585.83 832.16,-592.61"/>
<text text-anchor="middle" x="794.97" y="-608.51" font-family="Helvetica,sans-Serif" font-size="14.00">&gt; 0.523</text>
</g>
<!-- 5 -->
<g id="node7" class="node">
<title>5</title>
<polygon fill="#64e544" stroke="black" points="773.97,-457.71 609.97,-457.71 609.97,-379.71 773.97,-379.71 773.97,-457.71"/>
<text text-anchor="start" x="652.97" y="-443.51" font-family="Helvetica,sans-Serif" font-weight="bold" font-size="14.00"> Class=0 </text>
<text text-anchor="start" x="725.97" y="-443.51" font-family="Helvetica,sans-Serif" font-size="14.00"> </text>
<text text-anchor="start" x="617.97" y="-429.51" font-family="Helvetica,sans-Serif" font-size="14.00"> error: 0.999, n=540 </text>
<text text-anchor="start" x="636.97" y="-415.51" font-family="Helvetica,sans-Serif" font-size="14.00"> p: (0.52, 0.48) </text>
<text text-anchor="start" x="659.97" y="-401.51" font-family="Helvetica,sans-Serif" font-size="14.00">&#45;&#45;&#45;&#45;&#45;&#45;&#45;&#45;&#45;&#45;&#45;&#45;</text>
<text text-anchor="start" x="641.97" y="-387.51" font-family="Helvetica,sans-Serif" font-weight="bold" font-size="14.00">convect_corr</text>
</g>
<!-- 4&#45;&gt;5 -->
<g id="edge6" class="edge">
<title>4:s&#45;&gt;5:n</title>
<path fill="none" stroke="black" d="M840.97,-508.71C840.97,-508.71 734.89,-472.4 701.74,-461.06"/>
<polygon fill="black" stroke="black" points="702.56,-457.64 691.97,-457.71 700.29,-464.26 702.56,-457.64"/>
<text text-anchor="middle" x="824.47" y="-479.51" font-family="Helvetica,sans-Serif" font-size="14.00">&lt;= 0.4622</text>
</g>
<!-- 14 -->
<g id="node8" class="node">
<title>14</title>
<polygon fill="#64e544" stroke="black" points="1051.97,-457.71 887.97,-457.71 887.97,-379.71 1051.97,-379.71 1051.97,-457.71"/>
<text text-anchor="start" x="930.97" y="-443.51" font-family="Helvetica,sans-Serif" font-weight="bold" font-size="14.00"> Class=1 </text>
<text text-anchor="start" x="1003.97" y="-443.51" font-family="Helvetica,sans-Serif" font-size="14.00"> </text>
<text text-anchor="start" x="895.97" y="-429.51" font-family="Helvetica,sans-Serif" font-size="14.00"> error: 0.528, n=540 </text>
<text text-anchor="start" x="914.97" y="-415.51" font-family="Helvetica,sans-Serif" font-size="14.00"> p: (0.12, 0.88) </text>
<text text-anchor="start" x="948.47" y="-401.51" font-family="Helvetica,sans-Serif" font-size="14.00">&#45;&#45;&#45;&#45;&#45;&#45;&#45;&#45;</text>
<text text-anchor="start" x="936.97" y="-387.51" font-family="Helvetica,sans-Serif" font-weight="bold" font-size="14.00">slm_corr</text>
</g>
<!-- 4&#45;&gt;14 -->
<g id="edge7" class="edge">
<title>4:s&#45;&gt;14:n</title>
<path fill="none" stroke="black" d="M840.97,-508.71C840.97,-508.71 930.27,-473.4 960.27,-461.54"/>
<polygon fill="black" stroke="black" points="961.95,-464.64 969.97,-457.71 959.38,-458.13 961.95,-464.64"/>
<text text-anchor="middle" x="954.47" y="-479.51" font-family="Helvetica,sans-Serif" font-size="14.00">&gt; 0.4622</text>
</g>
<!-- 6 -->
<g id="node9" class="node">
<title>6</title>
<polygon fill="#3dcc76" stroke="black" points="467.97,-328.71 303.97,-328.71 303.97,-250.71 467.97,-250.71 467.97,-328.71"/>
<text text-anchor="start" x="346.97" y="-314.51" font-family="Helvetica,sans-Serif" font-weight="bold" font-size="14.00"> Class=1 </text>
<text text-anchor="start" x="419.97" y="-314.51" font-family="Helvetica,sans-Serif" font-size="14.00"> </text>
<text text-anchor="start" x="311.97" y="-300.51" font-family="Helvetica,sans-Serif" font-size="14.00"> error: 0.845, n=540 </text>
<text text-anchor="start" x="330.97" y="-286.51" font-family="Helvetica,sans-Serif" font-size="14.00"> p: (0.27, 0.73) </text>
<text text-anchor="start" x="356.97" y="-272.51" font-family="Helvetica,sans-Serif" font-size="14.00">&#45;&#45;&#45;&#45;&#45;&#45;&#45;&#45;&#45;&#45;&#45;</text>
<text text-anchor="start" x="340.47" y="-258.51" font-family="Helvetica,sans-Serif" font-weight="bold" font-size="14.00">vconst_corr</text>
</g>
<!-- 5&#45;&gt;6 -->
<g id="edge8" class="edge">
<title>5:s&#45;&gt;6:n</title>
<path fill="none" stroke="black" d="M691.97,-379.71C691.97,-379.71 449.24,-339.26 396.15,-330.41"/>
<polygon fill="black" stroke="black" points="396.4,-326.9 385.97,-328.71 395.25,-333.81 396.4,-326.9"/>
<text text-anchor="middle" x="615.47" y="-350.51" font-family="Helvetica,sans-Serif" font-size="14.00">&lt;= 0.5491</text>
</g>
<!-- 10 -->
<g id="node10" class="node">
<title>10</title>
<polygon fill="#3dcc76" stroke="black" points="773.97,-328.71 609.97,-328.71 609.97,-250.71 773.97,-250.71 773.97,-328.71"/>
<text text-anchor="start" x="652.97" y="-314.51" font-family="Helvetica,sans-Serif" font-weight="bold" font-size="14.00"> Class=0 </text>
<text text-anchor="start" x="725.97" y="-314.51" font-family="Helvetica,sans-Serif" font-size="14.00"> </text>
<text text-anchor="start" x="617.97" y="-300.51" font-family="Helvetica,sans-Serif" font-size="14.00"> error: 0.787, n=540 </text>
<text text-anchor="start" x="636.97" y="-286.51" font-family="Helvetica,sans-Serif" font-size="14.00"> p: (0.76, 0.24) </text>
<text text-anchor="start" x="662.97" y="-272.51" font-family="Helvetica,sans-Serif" font-size="14.00">&#45;&#45;&#45;&#45;&#45;&#45;&#45;&#45;&#45;&#45;&#45;</text>
<text text-anchor="start" x="646.47" y="-258.51" font-family="Helvetica,sans-Serif" font-weight="bold" font-size="14.00">vconst_corr</text>
</g>
<!-- 5&#45;&gt;10 -->
<g id="edge9" class="edge">
<title>5:s&#45;&gt;10:n</title>
<path fill="none" stroke="black" d="M691.97,-379.71C691.97,-379.71 691.97,-353.93 691.97,-339.03"/>
<polygon fill="black" stroke="black" points="695.47,-338.71 691.97,-328.71 688.47,-338.71 695.47,-338.71"/>
<text text-anchor="middle" x="725.47" y="-350.51" font-family="Helvetica,sans-Serif" font-size="14.00">&gt; 0.5491</text>
</g>
<!-- 15 -->
<g id="node17" class="node">
<title>15</title>
<ellipse fill="#3dcc76" stroke="black" cx="969.97" cy="-289.71" rx="115.93" ry="35.21"/>
<text text-anchor="start" x="930.97" y="-300.51" font-family="Helvetica,sans-Serif" font-weight="bold" font-size="14.00"> Class=1 </text>
<text text-anchor="start" x="1003.97" y="-300.51" font-family="Helvetica,sans-Serif" font-size="14.00"> </text>
<text text-anchor="start" x="895.97" y="-286.51" font-family="Helvetica,sans-Serif" font-size="14.00"> error: 0.937, n=540 </text>
<text text-anchor="start" x="914.97" y="-272.51" font-family="Helvetica,sans-Serif" font-size="14.00"> p: (0.35, 0.65) </text>
</g>
<!-- 14&#45;&gt;15 -->
<g id="edge16" class="edge">
<title>14:s&#45;&gt;15:n</title>
<path fill="none" stroke="black" d="M969.97,-379.71C969.97,-379.71 969.97,-352.33 969.97,-336.93"/>
<polygon fill="black" stroke="black" points="973.47,-336.71 969.97,-326.71 966.47,-336.71 973.47,-336.71"/>
<text text-anchor="middle" x="1009.47" y="-350.51" font-family="Helvetica,sans-Serif" font-size="14.00">&lt;= 0.2244</text>
</g>
<!-- 16 -->
<g id="node18" class="node">
<title>16</title>
<polygon fill="#3dcc76" stroke="black" points="1325.97,-328.71 1161.97,-328.71 1161.97,-250.71 1325.97,-250.71 1325.97,-328.71"/>
<text text-anchor="start" x="1204.97" y="-314.51" font-family="Helvetica,sans-Serif" font-weight="bold" font-size="14.00"> Class=1 </text>
<text text-anchor="start" x="1277.97" y="-314.51" font-family="Helvetica,sans-Serif" font-size="14.00"> </text>
<text text-anchor="start" x="1169.97" y="-300.51" font-family="Helvetica,sans-Serif" font-size="14.00"> error: 0.242, n=540 </text>
<text text-anchor="start" x="1188.97" y="-286.51" font-family="Helvetica,sans-Serif" font-size="14.00"> p: (0.04, 0.96) </text>
<text text-anchor="start" x="1222.47" y="-272.51" font-family="Helvetica,sans-Serif" font-size="14.00">&#45;&#45;&#45;&#45;&#45;&#45;&#45;&#45;</text>
<text text-anchor="start" x="1210.97" y="-258.51" font-family="Helvetica,sans-Serif" font-weight="bold" font-size="14.00">slm_corr</text>
</g>
<!-- 14&#45;&gt;16 -->
<g id="edge17" class="edge">
<title>14:s&#45;&gt;16:n</title>
<path fill="none" stroke="black" d="M969.97,-379.71C969.97,-379.71 1184.46,-339.79 1233.89,-330.59"/>
<polygon fill="black" stroke="black" points="1234.77,-333.98 1243.97,-328.71 1233.49,-327.1 1234.77,-333.98"/>
<text text-anchor="middle" x="1178.47" y="-350.51" font-family="Helvetica,sans-Serif" font-size="14.00">&gt; 0.2244</text>
</g>
<!-- 7 -->
<g id="node11" class="node">
<title>7</title>
<polygon fill="#44e5e5" stroke="black" points="197.97,-199.71 33.97,-199.71 33.97,-121.71 197.97,-121.71 197.97,-199.71"/>
<text text-anchor="start" x="76.97" y="-185.51" font-family="Helvetica,sans-Serif" font-weight="bold" font-size="14.00"> Class=1 </text>
<text text-anchor="start" x="149.97" y="-185.51" font-family="Helvetica,sans-Serif" font-size="14.00"> </text>
<text text-anchor="start" x="41.97" y="-171.51" font-family="Helvetica,sans-Serif" font-size="14.00"> error: 0.323, n=540 </text>
<text text-anchor="start" x="60.97" y="-157.51" font-family="Helvetica,sans-Serif" font-size="14.00"> p: (0.06, 0.94) </text>
<text text-anchor="start" x="81.47" y="-143.51" font-family="Helvetica,sans-Serif" font-size="14.00">&#45;&#45;&#45;&#45;&#45;&#45;&#45;&#45;&#45;&#45;&#45;&#45;&#45;</text>
<text text-anchor="start" x="60.97" y="-129.51" font-family="Helvetica,sans-Serif" font-weight="bold" font-size="14.00">tidal_mix_max</text>
</g>
<!-- 6&#45;&gt;7 -->
<g id="edge10" class="edge">
<title>6:s&#45;&gt;7:n</title>
<path fill="none" stroke="black" d="M385.97,-250.71C385.97,-250.71 174.61,-210.79 125.9,-201.59"/>
<polygon fill="black" stroke="black" points="126.44,-198.13 115.97,-199.71 125.14,-205.01 126.44,-198.13"/>
<text text-anchor="middle" x="328.47" y="-221.51" font-family="Helvetica,sans-Serif" font-size="14.00">&lt;= 0.7244</text>
</g>
<!-- 9 -->
<g id="node12" class="node">
<title>9</title>
<ellipse fill="#44e5e5" stroke="black" cx="385.97" cy="-160.71" rx="115.93" ry="35.21"/>
<text text-anchor="start" x="346.97" y="-171.51" font-family="Helvetica,sans-Serif" font-weight="bold" font-size="14.00"> Class=0 </text>
<text text-anchor="start" x="419.97" y="-171.51" font-family="Helvetica,sans-Serif" font-size="14.00"> </text>
<text text-anchor="start" x="311.97" y="-157.51" font-family="Helvetica,sans-Serif" font-size="14.00"> error: 1.000, n=540 </text>
<text text-anchor="start" x="330.97" y="-143.51" font-family="Helvetica,sans-Serif" font-size="14.00"> p: (0.50, 0.50) </text>
</g>
<!-- 6&#45;&gt;9 -->
<g id="edge11" class="edge">
<title>6:s&#45;&gt;9:n</title>
<path fill="none" stroke="black" d="M385.97,-250.71C385.97,-250.71 385.97,-223.33 385.97,-207.93"/>
<polygon fill="black" stroke="black" points="389.47,-207.71 385.97,-197.71 382.47,-207.71 389.47,-207.71"/>
<text text-anchor="middle" x="419.47" y="-221.51" font-family="Helvetica,sans-Serif" font-size="14.00">&gt; 0.7244</text>
</g>
<!-- 11 -->
<g id="node14" class="node">
<title>11</title>
<ellipse fill="#44e5e5" stroke="black" cx="689.97" cy="-160.71" rx="115.93" ry="35.21"/>
<text text-anchor="start" x="650.97" y="-171.51" font-family="Helvetica,sans-Serif" font-weight="bold" font-size="14.00"> Class=0 </text>
<text text-anchor="start" x="723.97" y="-171.51" font-family="Helvetica,sans-Serif" font-size="14.00"> </text>
<text text-anchor="start" x="615.97" y="-157.51" font-family="Helvetica,sans-Serif" font-size="14.00"> error: 0.977, n=540 </text>
<text text-anchor="start" x="634.97" y="-143.51" font-family="Helvetica,sans-Serif" font-size="14.00"> p: (0.59, 0.41) </text>
</g>
<!-- 10&#45;&gt;11 -->
<g id="edge13" class="edge">
<title>10:s&#45;&gt;11:n</title>
<path fill="none" stroke="black" d="M691.97,-250.71C691.97,-250.71 690.93,-223.33 690.35,-207.93"/>
<polygon fill="black" stroke="black" points="693.84,-207.57 689.97,-197.71 686.85,-207.84 693.84,-207.57"/>
<text text-anchor="middle" x="731.47" y="-221.51" font-family="Helvetica,sans-Serif" font-size="14.00">&lt;= 0.7407</text>
</g>
<!-- 12 -->
<g id="node15" class="node">
<title>12</title>
<polygon fill="#44e5e5" stroke="black" points="1041.97,-199.71 877.97,-199.71 877.97,-121.71 1041.97,-121.71 1041.97,-199.71"/>
<text text-anchor="start" x="920.97" y="-185.51" font-family="Helvetica,sans-Serif" font-weight="bold" font-size="14.00"> Class=0 </text>
<text text-anchor="start" x="993.97" y="-185.51" font-family="Helvetica,sans-Serif" font-size="14.00"> </text>
<text text-anchor="start" x="885.97" y="-171.51" font-family="Helvetica,sans-Serif" font-size="14.00"> error: 0.323, n=540 </text>
<text text-anchor="start" x="904.97" y="-157.51" font-family="Helvetica,sans-Serif" font-size="14.00"> p: (0.94, 0.06) </text>
<text text-anchor="start" x="930.97" y="-143.51" font-family="Helvetica,sans-Serif" font-size="14.00">&#45;&#45;&#45;&#45;&#45;&#45;&#45;&#45;&#45;&#45;&#45;</text>
<text text-anchor="start" x="914.47" y="-129.51" font-family="Helvetica,sans-Serif" font-weight="bold" font-size="14.00">vconst_corr</text>
</g>
<!-- 10&#45;&gt;12 -->
<g id="edge14" class="edge">
<title>10:s&#45;&gt;12:n</title>
<path fill="none" stroke="black" d="M691.97,-250.71C691.97,-250.71 901.76,-210.79 950.11,-201.59"/>
<polygon fill="black" stroke="black" points="950.8,-205.02 959.97,-199.71 949.49,-198.14 950.8,-205.02"/>
<text text-anchor="middle" x="898.47" y="-221.51" font-family="Helvetica,sans-Serif" font-size="14.00">&gt; 0.7407</text>
</g>
<!-- 8 -->
<g id="node13" class="node">
<title>8</title>
<ellipse fill="#3d76cc" stroke="black" cx="115.97" cy="-35.36" rx="115.93" ry="35.21"/>
<text text-anchor="start" x="76.97" y="-46.16" font-family="Helvetica,sans-Serif" font-weight="bold" font-size="14.00"> Class=1 </text>
<text text-anchor="start" x="149.97" y="-46.16" font-family="Helvetica,sans-Serif" font-size="14.00"> </text>
<text text-anchor="start" x="41.97" y="-32.16" font-family="Helvetica,sans-Serif" font-size="14.00"> error: 0.000, n=540 </text>
<text text-anchor="start" x="60.97" y="-18.16" font-family="Helvetica,sans-Serif" font-size="14.00"> p: (0.00, 1.00) </text>
</g>
<!-- 7&#45;&gt;8 -->
<g id="edge12" class="edge">
<title>7:s&#45;&gt;8:n</title>
<path fill="none" stroke="black" d="M115.97,-121.71C115.97,-121.71 115.97,-95.93 115.97,-81.03"/>
<polygon fill="black" stroke="black" points="119.47,-80.71 115.97,-70.71 112.47,-80.71 119.47,-80.71"/>
<text text-anchor="middle" x="155.47" y="-92.51" font-family="Helvetica,sans-Serif" font-size="14.00">&lt;= 0.9102</text>
</g>
<!-- 13 -->
<g id="node16" class="node">
<title>13</title>
<ellipse fill="#3d76cc" stroke="black" cx="958.97" cy="-35.36" rx="115.93" ry="35.21"/>
<text text-anchor="start" x="919.97" y="-46.16" font-family="Helvetica,sans-Serif" font-weight="bold" font-size="14.00"> Class=0 </text>
<text text-anchor="start" x="992.97" y="-46.16" font-family="Helvetica,sans-Serif" font-size="14.00"> </text>
<text text-anchor="start" x="884.97" y="-32.16" font-family="Helvetica,sans-Serif" font-size="14.00"> error: 0.000, n=540 </text>
<text text-anchor="start" x="903.97" y="-18.16" font-family="Helvetica,sans-Serif" font-size="14.00"> p: (1.00, 0.00) </text>
</g>
<!-- 12&#45;&gt;13 -->
<g id="edge15" class="edge">
<title>12:s&#45;&gt;13:n</title>
<path fill="none" stroke="black" d="M959.97,-121.71C959.97,-121.71 959.46,-95.93 959.17,-81.03"/>
<polygon fill="black" stroke="black" points="962.66,-80.64 958.97,-70.71 955.66,-80.78 962.66,-80.64"/>
<text text-anchor="middle" x="999.47" y="-92.51" font-family="Helvetica,sans-Serif" font-size="14.00">&lt;= 0.9672</text>
</g>
<!-- 17 -->
<g id="node19" class="node">
<title>17</title>
<polygon fill="#44e5e5" stroke="black" points="1343.97,-199.71 1179.97,-199.71 1179.97,-121.71 1343.97,-121.71 1343.97,-199.71"/>
<text text-anchor="start" x="1222.97" y="-185.51" font-family="Helvetica,sans-Serif" font-weight="bold" font-size="14.00"> Class=1 </text>
<text text-anchor="start" x="1295.97" y="-185.51" font-family="Helvetica,sans-Serif" font-size="14.00"> </text>
<text text-anchor="start" x="1187.97" y="-171.51" font-family="Helvetica,sans-Serif" font-size="14.00"> error: 0.144, n=540 </text>
<text text-anchor="start" x="1206.97" y="-157.51" font-family="Helvetica,sans-Serif" font-size="14.00"> p: (0.02, 0.98) </text>
<text text-anchor="start" x="1240.47" y="-143.51" font-family="Helvetica,sans-Serif" font-size="14.00">&#45;&#45;&#45;&#45;&#45;&#45;&#45;&#45;</text>
<text text-anchor="start" x="1227.47" y="-129.51" font-family="Helvetica,sans-Serif" font-weight="bold" font-size="14.00">vconst_2</text>
</g>
<!-- 16&#45;&gt;17 -->
<g id="edge18" class="edge">
<title>16:s&#45;&gt;17:n</title>
<path fill="none" stroke="black" d="M1243.97,-250.71C1243.97,-250.71 1253.26,-224.36 1258.49,-209.54"/>
<polygon fill="black" stroke="black" points="1261.94,-210.31 1261.97,-199.71 1255.34,-207.98 1261.94,-210.31"/>
<text text-anchor="middle" x="1284.97" y="-221.51" font-family="Helvetica,sans-Serif" font-size="14.00">&gt; 0.239</text>
</g>
<!-- 18 -->
<g id="node20" class="node">
<title>18</title>
<ellipse fill="#3d76cc" stroke="black" cx="1262.97" cy="-35.36" rx="115.93" ry="35.21"/>
<text text-anchor="start" x="1223.97" y="-46.16" font-family="Helvetica,sans-Serif" font-weight="bold" font-size="14.00"> Class=1 </text>
<text text-anchor="start" x="1296.97" y="-46.16" font-family="Helvetica,sans-Serif" font-size="14.00"> </text>
<text text-anchor="start" x="1188.97" y="-32.16" font-family="Helvetica,sans-Serif" font-size="14.00"> error: 0.000, n=540 </text>
<text text-anchor="start" x="1207.97" y="-18.16" font-family="Helvetica,sans-Serif" font-size="14.00"> p: (0.00, 1.00) </text>
</g>
<!-- 17&#45;&gt;18 -->
<g id="edge19" class="edge">
<title>17:s&#45;&gt;18:n</title>
<path fill="none" stroke="black" d="M1261.97,-121.71C1261.97,-121.71 1262.47,-95.93 1262.76,-81.03"/>
<polygon fill="black" stroke="black" points="1266.27,-80.78 1262.97,-70.71 1259.27,-80.64 1266.27,-80.78"/>
<text text-anchor="middle" x="1302.47" y="-92.51" font-family="Helvetica,sans-Serif" font-size="14.00">&lt;= 0.8375</text>
</g>
</g>
</svg>
