<?xml version="1.0" encoding="UTF-8" standalone="no"?>
<!DOCTYPE svg PUBLIC "-//W3C//DTD SVG 1.1//EN"
 "http://www.w3.org/Graphics/SVG/1.1/DTD/svg11.dtd">
<!-- Generated by graphviz version 2.43.0 (0)
 -->
<!-- Title: Tree Pages: 1 -->
<svg width="842pt" height="954pt"
 viewBox="0.00 0.00 841.93 953.71" xmlns="http://www.w3.org/2000/svg" xmlns:xlink="http://www.w3.org/1999/xlink">
<g id="graph0" class="graph" transform="scale(1 1) rotate(0) translate(18 935.71)">
<title>Tree</title>
<polygon fill="white" stroke="transparent" points="-18,18 -18,-935.71 823.93,-935.71 823.93,18 -18,18"/>
<!-- 0 -->
<g id="node1" class="node">
<title>0</title>
<polygon fill="white" stroke="transparent" points="512.97,-917.71 458.97,-917.71 458.97,-881.71 512.97,-881.71 512.97,-917.71"/>
<text text-anchor="middle" x="485.97" y="-896.01" font-family="Helvetica,sans-Serif" font-size="14.00">0</text>
</g>
<!-- 1 -->
<g id="node2" class="node">
<title>1</title>
<polygon fill="#cc3d3d" stroke="black" points="567.97,-844.71 403.97,-844.71 403.97,-766.71 567.97,-766.71 567.97,-844.71"/>
<text text-anchor="start" x="446.97" y="-830.51" font-family="Helvetica,sans-Serif" font-weight="bold" font-size="14.00"> Class=1 </text>
<text text-anchor="start" x="519.97" y="-830.51" font-family="Helvetica,sans-Serif" font-size="14.00"> </text>
<text text-anchor="start" x="411.97" y="-816.51" font-family="Helvetica,sans-Serif" font-size="14.00"> error: 0.420, n=540 </text>
<text text-anchor="start" x="430.97" y="-802.51" font-family="Helvetica,sans-Serif" font-size="14.00"> p: (0.09, 0.91) </text>
<text text-anchor="start" x="456.97" y="-788.51" font-family="Helvetica,sans-Serif" font-size="14.00">&#45;&#45;&#45;&#45;&#45;&#45;&#45;&#45;&#45;&#45;&#45;</text>
<text text-anchor="start" x="440.47" y="-774.51" font-family="Helvetica,sans-Serif" font-weight="bold" font-size="14.00">vconst_corr</text>
</g>
<!-- 0&#45;&gt;1 -->
<!-- 2 -->
<g id="node3" class="node">
<title>2</title>
<polygon fill="#e5a544" stroke="black" points="432.97,-715.71 268.97,-715.71 268.97,-637.71 432.97,-637.71 432.97,-715.71"/>
<text text-anchor="start" x="311.97" y="-701.51" font-family="Helvetica,sans-Serif" font-weight="bold" font-size="14.00"> Class=1 </text>
<text text-anchor="start" x="384.97" y="-701.51" font-family="Helvetica,sans-Serif" font-size="14.00"> </text>
<text text-anchor="start" x="276.97" y="-687.51" font-family="Helvetica,sans-Serif" font-size="14.00"> error: 0.643, n=540 </text>
<text text-anchor="start" x="295.97" y="-673.51" font-family="Helvetica,sans-Serif" font-size="14.00"> p: (0.16, 0.84) </text>
<text text-anchor="start" x="329.47" y="-659.51" font-family="Helvetica,sans-Serif" font-size="14.00">&#45;&#45;&#45;&#45;&#45;&#45;&#45;&#45;</text>
<text text-anchor="start" x="316.47" y="-645.51" font-family="Helvetica,sans-Serif" font-weight="bold" font-size="14.00">vconst_2</text>
</g>
<!-- 1&#45;&gt;2 -->
<g id="edge2" class="edge">
<title>1:s&#45;&gt;2:n</title>
<path fill="none" stroke="black" d="M485.97,-766.71C485.97,-766.71 391.63,-731.07 360.67,-719.38"/>
<polygon fill="black" stroke="black" points="361.56,-715.97 350.97,-715.71 359.08,-722.52 361.56,-715.97"/>
<text text-anchor="middle" x="468.47" y="-737.51" font-family="Helvetica,sans-Serif" font-size="14.00">&gt; 0.5006</text>
</g>
<!-- 12 -->
<g id="node4" class="node">
<title>12</title>
<ellipse fill="#e5a544" stroke="black" cx="620.97" cy="-676.71" rx="115.93" ry="35.21"/>
<text text-anchor="start" x="581.97" y="-687.51" font-family="Helvetica,sans-Serif" font-weight="bold" font-size="14.00"> Class=1 </text>
<text text-anchor="start" x="654.97" y="-687.51" font-family="Helvetica,sans-Serif" font-size="14.00"> </text>
<text text-anchor="start" x="546.97" y="-673.51" font-family="Helvetica,sans-Serif" font-size="14.00"> error: 0.063, n=540 </text>
<text text-anchor="start" x="565.97" y="-659.51" font-family="Helvetica,sans-Serif" font-size="14.00"> p: (0.01, 0.99) </text>
</g>
<!-- 1&#45;&gt;12 -->
<g id="edge3" class="edge">
<title>1:s&#45;&gt;12:n</title>
<path fill="none" stroke="black" d="M485.97,-766.71C485.97,-766.71 580.3,-729.67 611.26,-717.52"/>
<polygon fill="black" stroke="black" points="612.94,-720.62 620.97,-713.71 610.38,-714.11 612.94,-720.62"/>
<text text-anchor="middle" x="609.47" y="-737.51" font-family="Helvetica,sans-Serif" font-size="14.00">&lt;= 0.5006</text>
</g>
<!-- 3 -->
<g id="node5" class="node">
<title>3</title>
<ellipse fill="#afcc3d" stroke="black" cx="277.97" cy="-547.71" rx="115.93" ry="35.21"/>
<text text-anchor="start" x="238.97" y="-558.51" font-family="Helvetica,sans-Serif" font-weight="bold" font-size="14.00"> Class=1 </text>
<text text-anchor="start" x="311.97" y="-558.51" font-family="Helvetica,sans-Serif" font-size="14.00"> </text>
<text text-anchor="start" x="203.97" y="-544.51" font-family="Helvetica,sans-Serif" font-size="14.00"> error: 0.063, n=540 </text>
<text text-anchor="start" x="222.97" y="-530.51" font-family="Helvetica,sans-Serif" font-size="14.00"> p: (0.01, 0.99) </text>
</g>
<!-- 2&#45;&gt;3 -->
<g id="edge4" class="edge">
<title>2:s&#45;&gt;3:n</title>
<path fill="none" stroke="black" d="M350.97,-637.71C350.97,-637.71 305.51,-604.71 286.34,-590.79"/>
<polygon fill="black" stroke="black" points="288.11,-587.75 277.97,-584.71 284,-593.42 288.11,-587.75"/>
<text text-anchor="middle" x="360.97" y="-608.51" font-family="Helvetica,sans-Serif" font-size="14.00">&lt;= 0.523</text>
</g>
<!-- 4 -->
<g id="node6" class="node">
<title>4</title>
<polygon fill="#afcc3d" stroke="black" points="629.97,-586.71 465.97,-586.71 465.97,-508.71 629.97,-508.71 629.97,-586.71"/>
<text text-anchor="start" x="508.97" y="-572.51" font-family="Helvetica,sans-Serif" font-weight="bold" font-size="14.00"> Class=1 </text>
<text text-anchor="start" x="581.97" y="-572.51" font-family="Helvetica,sans-Serif" font-size="14.00"> </text>
<text text-anchor="start" x="473.97" y="-558.51" font-family="Helvetica,sans-Serif" font-size="14.00"> error: 0.905, n=540 </text>
<text text-anchor="start" x="492.97" y="-544.51" font-family="Helvetica,sans-Serif" font-size="14.00"> p: (0.32, 0.68) </text>
<text text-anchor="start" x="515.97" y="-530.51" font-family="Helvetica,sans-Serif" font-size="14.00">&#45;&#45;&#45;&#45;&#45;&#45;&#45;&#45;&#45;&#45;&#45;&#45;</text>
<text text-anchor="start" x="494.47" y="-516.51" font-family="Helvetica,sans-Serif" font-weight="bold" font-size="14.00">bckgrnd_vdc1</text>
</g>
<!-- 2&#45;&gt;4 -->
<g id="edge5" class="edge">
<title>2:s&#45;&gt;4:n</title>
<path fill="none" stroke="black" d="M350.97,-637.71C350.97,-637.71 498.45,-599.53 538.2,-589.24"/>
<polygon fill="black" stroke="black" points="539.16,-592.61 547.97,-586.71 537.41,-585.83 539.16,-592.61"/>
<text text-anchor="middle" x="501.97" y="-608.51" font-family="Helvetica,sans-Serif" font-size="14.00">&gt; 0.523</text>
</g>
<!-- 5 -->
<g id="node7" class="node">
<title>5</title>
<polygon fill="#64e544" stroke="black" points="501.97,-457.71 337.97,-457.71 337.97,-379.71 501.97,-379.71 501.97,-457.71"/>
<text text-anchor="start" x="380.97" y="-443.51" font-family="Helvetica,sans-Serif" font-weight="bold" font-size="14.00"> Class=0 </text>
<text text-anchor="start" x="453.97" y="-443.51" font-family="Helvetica,sans-Serif" font-size="14.00"> </text>
<text text-anchor="start" x="345.97" y="-429.51" font-family="Helvetica,sans-Serif" font-size="14.00"> error: 0.999, n=540 </text>
<text text-anchor="start" x="364.97" y="-415.51" font-family="Helvetica,sans-Serif" font-size="14.00"> p: (0.52, 0.48) </text>
<text text-anchor="start" x="387.97" y="-401.51" font-family="Helvetica,sans-Serif" font-size="14.00">&#45;&#45;&#45;&#45;&#45;&#45;&#45;&#45;&#45;&#45;&#45;&#45;</text>
<text text-anchor="start" x="369.97" y="-387.51" font-family="Helvetica,sans-Serif" font-weight="bold" font-size="14.00">convect_corr</text>
</g>
<!-- 4&#45;&gt;5 -->
<g id="edge6" class="edge">
<title>4:s&#45;&gt;5:n</title>
<path fill="none" stroke="black" d="M547.97,-508.71C547.97,-508.71 459.35,-473.4 429.59,-461.54"/>
<polygon fill="black" stroke="black" points="430.55,-458.16 419.97,-457.71 427.96,-464.66 430.55,-458.16"/>
<text text-anchor="middle" x="535.47" y="-479.51" font-family="Helvetica,sans-Serif" font-size="14.00">&lt;= 0.4622</text>
</g>
<!-- 8 -->
<g id="node8" class="node">
<title>8</title>
<polygon fill="#64e544" stroke="black" points="745.97,-457.71 581.97,-457.71 581.97,-379.71 745.97,-379.71 745.97,-457.71"/>
<text text-anchor="start" x="624.97" y="-443.51" font-family="Helvetica,sans-Serif" font-weight="bold" font-size="14.00"> Class=1 </text>
<text text-anchor="start" x="697.97" y="-443.51" font-family="Helvetica,sans-Serif" font-size="14.00"> </text>
<text text-anchor="start" x="589.97" y="-429.51" font-family="Helvetica,sans-Serif" font-size="14.00"> error: 0.528, n=540 </text>
<text text-anchor="start" x="608.97" y="-415.51" font-family="Helvetica,sans-Serif" font-size="14.00"> p: (0.12, 0.88) </text>
<text text-anchor="start" x="642.47" y="-401.51" font-family="Helvetica,sans-Serif" font-size="14.00">&#45;&#45;&#45;&#45;&#45;&#45;&#45;&#45;</text>
<text text-anchor="start" x="630.97" y="-387.51" font-family="Helvetica,sans-Serif" font-weight="bold" font-size="14.00">slm_corr</text>
</g>
<!-- 4&#45;&gt;8 -->
<g id="edge7" class="edge">
<title>4:s&#45;&gt;8:n</title>
<path fill="none" stroke="black" d="M547.97,-508.71C547.97,-508.71 626.77,-474.06 654.47,-461.88"/>
<polygon fill="black" stroke="black" points="656.22,-464.94 663.97,-457.71 653.4,-458.53 656.22,-464.94"/>
<text text-anchor="middle" x="653.47" y="-479.51" font-family="Helvetica,sans-Serif" font-size="14.00">&gt; 0.4622</text>
</g>
<!-- 6 -->
<g id="node9" class="node">
<title>6</title>
<ellipse fill="#3dcc76" stroke="black" cx="115.97" cy="-289.71" rx="115.93" ry="35.21"/>
<text text-anchor="start" x="76.97" y="-300.51" font-family="Helvetica,sans-Serif" font-weight="bold" font-size="14.00"> Class=1 </text>
<text text-anchor="start" x="149.97" y="-300.51" font-family="Helvetica,sans-Serif" font-size="14.00"> </text>
<text text-anchor="start" x="41.97" y="-286.51" font-family="Helvetica,sans-Serif" font-size="14.00"> error: 0.845, n=540 </text>
<text text-anchor="start" x="60.97" y="-272.51" font-family="Helvetica,sans-Serif" font-size="14.00"> p: (0.27, 0.73) </text>
</g>
<!-- 5&#45;&gt;6 -->
<g id="edge8" class="edge">
<title>5:s&#45;&gt;6:n</title>
<path fill="none" stroke="black" d="M419.97,-379.71C419.97,-379.71 178.83,-337.67 126.08,-328.47"/>
<polygon fill="black" stroke="black" points="126.42,-324.98 115.97,-326.71 125.22,-331.88 126.42,-324.98"/>
<text text-anchor="middle" x="352.47" y="-350.51" font-family="Helvetica,sans-Serif" font-size="14.00">&lt;= 0.5491</text>
</g>
<!-- 7 -->
<g id="node10" class="node">
<title>7</title>
<ellipse fill="#3dcc76" stroke="black" cx="419.97" cy="-289.71" rx="115.93" ry="35.21"/>
<text text-anchor="start" x="380.97" y="-300.51" font-family="Helvetica,sans-Serif" font-weight="bold" font-size="14.00"> Class=0 </text>
<text text-anchor="start" x="453.97" y="-300.51" font-family="Helvetica,sans-Serif" font-size="14.00"> </text>
<text text-anchor="start" x="345.97" y="-286.51" font-family="Helvetica,sans-Serif" font-size="14.00"> error: 0.787, n=540 </text>
<text text-anchor="start" x="364.97" y="-272.51" font-family="Helvetica,sans-Serif" font-size="14.00"> p: (0.76, 0.24) </text>
</g>
<!-- 5&#45;&gt;7 -->
<g id="edge9" class="edge">
<title>5:s&#45;&gt;7:n</title>
<path fill="none" stroke="black" d="M419.97,-379.71C419.97,-379.71 419.97,-352.33 419.97,-336.93"/>
<polygon fill="black" stroke="black" points="423.47,-336.71 419.97,-326.71 416.47,-336.71 423.47,-336.71"/>
<text text-anchor="middle" x="453.47" y="-350.51" font-family="Helvetica,sans-Serif" font-size="14.00">&gt; 0.5491</text>
</g>
<!-- 9 -->
<g id="node11" class="node">
<title>9</title>
<polygon fill="#3dcc76" stroke="black" points="771.97,-328.71 607.97,-328.71 607.97,-250.71 771.97,-250.71 771.97,-328.71"/>
<text text-anchor="start" x="650.97" y="-314.51" font-family="Helvetica,sans-Serif" font-weight="bold" font-size="14.00"> Class=1 </text>
<text text-anchor="start" x="723.97" y="-314.51" font-family="Helvetica,sans-Serif" font-size="14.00"> </text>
<text text-anchor="start" x="615.97" y="-300.51" font-family="Helvetica,sans-Serif" font-size="14.00"> error: 0.242, n=540 </text>
<text text-anchor="start" x="634.97" y="-286.51" font-family="Helvetica,sans-Serif" font-size="14.00"> p: (0.04, 0.96) </text>
<text text-anchor="start" x="668.47" y="-272.51" font-family="Helvetica,sans-Serif" font-size="14.00">&#45;&#45;&#45;&#45;&#45;&#45;&#45;&#45;</text>
<text text-anchor="start" x="656.97" y="-258.51" font-family="Helvetica,sans-Serif" font-weight="bold" font-size="14.00">slm_corr</text>
</g>
<!-- 8&#45;&gt;9 -->
<g id="edge10" class="edge">
<title>8:s&#45;&gt;9:n</title>
<path fill="none" stroke="black" d="M663.97,-379.71C663.97,-379.71 677.69,-352.79 685.2,-338.06"/>
<polygon fill="black" stroke="black" points="688.54,-339.21 689.97,-328.71 682.31,-336.03 688.54,-339.21"/>
<text text-anchor="middle" x="714.47" y="-350.51" font-family="Helvetica,sans-Serif" font-size="14.00">&gt; 0.2244</text>
</g>
<!-- 10 -->
<g id="node12" class="node">
<title>10</title>
<polygon fill="#44e5e5" stroke="black" points="771.97,-199.71 607.97,-199.71 607.97,-121.71 771.97,-121.71 771.97,-199.71"/>
<text text-anchor="start" x="650.97" y="-185.51" font-family="Helvetica,sans-Serif" font-weight="bold" font-size="14.00"> Class=1 </text>
<text text-anchor="start" x="723.97" y="-185.51" font-family="Helvetica,sans-Serif" font-size="14.00"> </text>
<text text-anchor="start" x="615.97" y="-171.51" font-family="Helvetica,sans-Serif" font-size="14.00"> error: 0.144, n=540 </text>
<text text-anchor="start" x="634.97" y="-157.51" font-family="Helvetica,sans-Serif" font-size="14.00"> p: (0.02, 0.98) </text>
<text text-anchor="start" x="668.47" y="-143.51" font-family="Helvetica,sans-Serif" font-size="14.00">&#45;&#45;&#45;&#45;&#45;&#45;&#45;&#45;</text>
<text text-anchor="start" x="655.47" y="-129.51" font-family="Helvetica,sans-Serif" font-weight="bold" font-size="14.00">vconst_2</text>
</g>
<!-- 9&#45;&gt;10 -->
<g id="edge11" class="edge">
<title>9:s&#45;&gt;10:n</title>
<path fill="none" stroke="black" d="M689.97,-250.71C689.97,-250.71 689.97,-224.93 689.97,-210.03"/>
<polygon fill="black" stroke="black" points="693.47,-209.71 689.97,-199.71 686.47,-209.71 693.47,-209.71"/>
<text text-anchor="middle" x="718.97" y="-221.51" font-family="Helvetica,sans-Serif" font-size="14.00">&gt; 0.239</text>
</g>
<!-- 11 -->
<g id="node13" class="node">
<title>11</title>
<ellipse fill="#3d76cc" stroke="black" cx="689.97" cy="-35.36" rx="115.93" ry="35.21"/>
<text text-anchor="start" x="650.97" y="-46.16" font-family="Helvetica,sans-Serif" font-weight="bold" font-size="14.00"> Class=1 </text>
<text text-anchor="start" x="723.97" y="-46.16" font-family="Helvetica,sans-Serif" font-size="14.00"> </text>
<text text-anchor="start" x="615.97" y="-32.16" font-family="Helvetica,sans-Serif" font-size="14.00"> error: 0.000, n=540 </text>
<text text-anchor="start" x="634.97" y="-18.16" font-family="Helvetica,sans-Serif" font-size="14.00"> p: (0.00, 1.00) </text>
</g>
<!-- 10&#45;&gt;11 -->
<g id="edge12" class="edge">
<title>10:s&#45;&gt;11:n</title>
<path fill="none" stroke="black" d="M689.97,-121.71C689.97,-121.71 689.97,-95.93 689.97,-81.03"/>
<polygon fill="black" stroke="black" points="693.47,-80.71 689.97,-70.71 686.47,-80.71 693.47,-80.71"/>
<text text-anchor="middle" x="729.47" y="-92.51" font-family="Helvetica,sans-Serif" font-size="14.00">&lt;= 0.8375</text>
</g>
</g>
</svg>
