<?xml version="1.0" encoding="UTF-8" standalone="no"?>
<!DOCTYPE svg PUBLIC "-//W3C//DTD SVG 1.1//EN"
 "http://www.w3.org/Graphics/SVG/1.1/DTD/svg11.dtd">
<!-- Generated by graphviz version 2.43.0 (0)
 -->
<!-- Title: Tree Pages: 1 -->
<svg width="1830pt" height="567pt"
 viewBox="0.00 0.00 1829.66 566.71" xmlns="http://www.w3.org/2000/svg" xmlns:xlink="http://www.w3.org/1999/xlink">
<g id="graph0" class="graph" transform="scale(1 1) rotate(0) translate(18 548.71)">
<title>Tree</title>
<polygon fill="white" stroke="transparent" points="-18,18 -18,-548.71 1811.66,-548.71 1811.66,18 -18,18"/>
<!-- 0 -->
<g id="node1" class="node">
<title>0</title>
<polygon fill="white" stroke="transparent" points="1187.33,-530.71 1133.33,-530.71 1133.33,-494.71 1187.33,-494.71 1187.33,-530.71"/>
<text text-anchor="middle" x="1160.33" y="-509.01" font-family="Helvetica,sans-Serif" font-size="14.00">0</text>
</g>
<!-- 1 -->
<g id="node2" class="node">
<title>1</title>
<polygon fill="#cc3d3d" stroke="black" points="1288.33,-457.71 1032.33,-457.71 1032.33,-379.71 1288.33,-379.71 1288.33,-457.71"/>
<text text-anchor="start" x="1121.33" y="-443.51" font-family="Helvetica,sans-Serif" font-weight="bold" font-size="14.00"> Class=1 </text>
<text text-anchor="start" x="1194.33" y="-443.51" font-family="Helvetica,sans-Serif" font-size="14.00"> </text>
<text text-anchor="start" x="1081.83" y="-429.51" font-family="Helvetica,sans-Serif" font-size="14.00"> error: 0.971, n=1473 </text>
<text text-anchor="start" x="1084.83" y="-415.51" font-family="Helvetica,sans-Serif" font-size="14.00"> p: (0.43, 0.23, 0.35) </text>
<text text-anchor="start" x="1086.33" y="-401.51" font-family="Helvetica,sans-Serif" font-size="14.00">&#45;&#45;&#45;&#45;&#45;&#45;&#45;&#45;&#45;&#45;&#45;&#45;&#45;&#45;&#45;&#45;&#45;&#45;&#45;&#45;&#45;&#45;&#45;&#45;&#45;&#45;&#45;&#45;</text>
<text text-anchor="start" x="1040.33" y="-387.51" font-family="Helvetica,sans-Serif" font-weight="bold" font-size="14.00">Number_of_children_ever_born</text>
</g>
<!-- 0&#45;&gt;1 -->
<!-- 2 -->
<g id="node3" class="node">
<title>2</title>
<polygon fill="#c5e544" stroke="black" points="1123.83,-328.71 950.83,-328.71 950.83,-250.71 1123.83,-250.71 1123.83,-328.71"/>
<text text-anchor="start" x="998.33" y="-314.51" font-family="Helvetica,sans-Serif" font-weight="bold" font-size="14.00"> Class=1 </text>
<text text-anchor="start" x="1071.33" y="-314.51" font-family="Helvetica,sans-Serif" font-size="14.00"> </text>
<text text-anchor="start" x="958.83" y="-300.51" font-family="Helvetica,sans-Serif" font-size="14.00"> error: 0.982, n=1473 </text>
<text text-anchor="start" x="961.83" y="-286.51" font-family="Helvetica,sans-Serif" font-size="14.00"> p: (0.39, 0.24, 0.37) </text>
<text text-anchor="start" x="997.83" y="-272.51" font-family="Helvetica,sans-Serif" font-size="14.00">&#45;&#45;&#45;&#45;&#45;&#45;&#45;&#45;&#45;&#45;&#45;&#45;&#45;&#45;&#45;</text>
<text text-anchor="start" x="972.33" y="-258.51" font-family="Helvetica,sans-Serif" font-weight="bold" font-size="14.00">Wifes_education</text>
</g>
<!-- 1&#45;&gt;2 -->
<g id="edge2" class="edge">
<title>1:s&#45;&gt;2:n</title>
<path fill="none" stroke="black" d="M1160.33,-379.71C1160.33,-379.71 1075.18,-344.4 1046.57,-332.54"/>
<polygon fill="black" stroke="black" points="1047.91,-329.31 1037.33,-328.71 1045.23,-335.77 1047.91,-329.31"/>
<text text-anchor="middle" x="1127.33" y="-350.51" font-family="Helvetica,sans-Serif" font-size="14.00">&gt; 0</text>
</g>
<!-- 11 -->
<g id="node4" class="node">
<title>11</title>
<polygon fill="#c5e544" stroke="black" points="1567.83,-328.71 1388.83,-328.71 1388.83,-250.71 1567.83,-250.71 1567.83,-328.71"/>
<text text-anchor="start" x="1439.33" y="-314.51" font-family="Helvetica,sans-Serif" font-weight="bold" font-size="14.00"> Class=1 </text>
<text text-anchor="start" x="1512.33" y="-314.51" font-family="Helvetica,sans-Serif" font-size="14.00"> </text>
<text text-anchor="start" x="1399.83" y="-300.51" font-family="Helvetica,sans-Serif" font-size="14.00"> error: 0.091, n=1473 </text>
<text text-anchor="start" x="1402.83" y="-286.51" font-family="Helvetica,sans-Serif" font-size="14.00"> p: (0.98, 0.00, 0.02) </text>
<text text-anchor="start" x="1430.83" y="-272.51" font-family="Helvetica,sans-Serif" font-size="14.00">&#45;&#45;&#45;&#45;&#45;&#45;&#45;&#45;&#45;&#45;&#45;&#45;&#45;&#45;&#45;&#45;&#45;&#45;</text>
<text text-anchor="start" x="1396.83" y="-258.51" font-family="Helvetica,sans-Serif" font-weight="bold" font-size="14.00">Husbands_education</text>
</g>
<!-- 1&#45;&gt;11 -->
<g id="edge3" class="edge">
<title>1:s&#45;&gt;11:n</title>
<path fill="none" stroke="black" d="M1160.33,-379.71C1160.33,-379.71 1413.68,-339.08 1468.11,-330.35"/>
<polygon fill="black" stroke="black" points="1469.01,-333.75 1478.33,-328.71 1467.9,-326.84 1469.01,-333.75"/>
<text text-anchor="middle" x="1376.33" y="-350.51" font-family="Helvetica,sans-Serif" font-size="14.00">&lt;= 0</text>
</g>
<!-- 3 -->
<g id="node5" class="node">
<title>3</title>
<polygon fill="#3dcc76" stroke="black" points="525.83,-199.71 352.83,-199.71 352.83,-121.71 525.83,-121.71 525.83,-199.71"/>
<text text-anchor="start" x="400.33" y="-185.51" font-family="Helvetica,sans-Serif" font-weight="bold" font-size="14.00"> Class=1 </text>
<text text-anchor="start" x="473.33" y="-185.51" font-family="Helvetica,sans-Serif" font-size="14.00"> </text>
<text text-anchor="start" x="360.83" y="-171.51" font-family="Helvetica,sans-Serif" font-size="14.00"> error: 0.881, n=1473 </text>
<text text-anchor="start" x="363.83" y="-157.51" font-family="Helvetica,sans-Serif" font-size="14.00"> p: (0.50, 0.12, 0.38) </text>
<text text-anchor="start" x="415.33" y="-143.51" font-family="Helvetica,sans-Serif" font-size="14.00">&#45;&#45;&#45;&#45;&#45;&#45;&#45;&#45;&#45;</text>
<text text-anchor="start" x="398.83" y="-129.51" font-family="Helvetica,sans-Serif" font-weight="bold" font-size="14.00">Wifes_age</text>
</g>
<!-- 2&#45;&gt;3 -->
<g id="edge4" class="edge">
<title>2:s&#45;&gt;3:n</title>
<path fill="none" stroke="black" d="M1037.33,-250.71C1037.33,-250.71 529.12,-207.37 449.71,-200.6"/>
<polygon fill="black" stroke="black" points="449.59,-197.07 439.33,-199.71 449,-204.05 449.59,-197.07"/>
<text text-anchor="middle" x="815.33" y="-221.51" font-family="Helvetica,sans-Serif" font-size="14.00">2</text>
</g>
<!-- 6 -->
<g id="node6" class="node">
<title>6</title>
<polygon fill="#3dcc76" stroke="black" points="842.83,-199.71 669.83,-199.71 669.83,-121.71 842.83,-121.71 842.83,-199.71"/>
<text text-anchor="start" x="717.33" y="-185.51" font-family="Helvetica,sans-Serif" font-weight="bold" font-size="14.00"> Class=1 </text>
<text text-anchor="start" x="790.33" y="-185.51" font-family="Helvetica,sans-Serif" font-size="14.00"> </text>
<text text-anchor="start" x="677.83" y="-171.51" font-family="Helvetica,sans-Serif" font-size="14.00"> error: 0.739, n=1473 </text>
<text text-anchor="start" x="680.83" y="-157.51" font-family="Helvetica,sans-Serif" font-size="14.00"> p: (0.65, 0.06, 0.28) </text>
<text text-anchor="start" x="732.33" y="-143.51" font-family="Helvetica,sans-Serif" font-size="14.00">&#45;&#45;&#45;&#45;&#45;&#45;&#45;&#45;&#45;</text>
<text text-anchor="start" x="715.83" y="-129.51" font-family="Helvetica,sans-Serif" font-weight="bold" font-size="14.00">Wifes_age</text>
</g>
<!-- 2&#45;&gt;6 -->
<g id="edge5" class="edge">
<title>2:s&#45;&gt;6:n</title>
<path fill="none" stroke="black" d="M1037.33,-250.71C1037.33,-250.71 816.39,-210.61 766.33,-201.53"/>
<polygon fill="black" stroke="black" points="766.79,-198.05 756.33,-199.71 765.54,-204.94 766.79,-198.05"/>
<text text-anchor="middle" x="935.33" y="-221.51" font-family="Helvetica,sans-Serif" font-size="14.00">1</text>
</g>
<!-- 9 -->
<g id="node7" class="node">
<title>9</title>
<ellipse fill="#3dcc76" stroke="black" cx="1037.33" cy="-160.71" rx="122.16" ry="35.21"/>
<text text-anchor="start" x="998.33" y="-171.51" font-family="Helvetica,sans-Serif" font-weight="bold" font-size="14.00"> Class=3 </text>
<text text-anchor="start" x="1071.33" y="-171.51" font-family="Helvetica,sans-Serif" font-size="14.00"> </text>
<text text-anchor="start" x="958.83" y="-157.51" font-family="Helvetica,sans-Serif" font-size="14.00"> error: 0.965, n=1473 </text>
<text text-anchor="start" x="961.83" y="-143.51" font-family="Helvetica,sans-Serif" font-size="14.00"> p: (0.39, 0.21, 0.40) </text>
</g>
<!-- 2&#45;&gt;9 -->
<g id="edge6" class="edge">
<title>2:s&#45;&gt;9:n</title>
<path fill="none" stroke="black" d="M1037.33,-250.71C1037.33,-250.71 1037.33,-223.33 1037.33,-207.93"/>
<polygon fill="black" stroke="black" points="1040.83,-207.71 1037.33,-197.71 1033.83,-207.71 1040.83,-207.71"/>
<text text-anchor="middle" x="1042.33" y="-221.51" font-family="Helvetica,sans-Serif" font-size="14.00">3</text>
</g>
<!-- 10 -->
<g id="node8" class="node">
<title>10</title>
<ellipse fill="#3dcc76" stroke="black" cx="1354.33" cy="-160.71" rx="122.16" ry="35.21"/>
<text text-anchor="start" x="1315.33" y="-171.51" font-family="Helvetica,sans-Serif" font-weight="bold" font-size="14.00"> Class=2 </text>
<text text-anchor="start" x="1388.33" y="-171.51" font-family="Helvetica,sans-Serif" font-size="14.00"> </text>
<text text-anchor="start" x="1275.83" y="-157.51" font-family="Helvetica,sans-Serif" font-size="14.00"> error: 0.987, n=1473 </text>
<text text-anchor="start" x="1278.83" y="-143.51" font-family="Helvetica,sans-Serif" font-size="14.00"> p: (0.26, 0.38, 0.36) </text>
</g>
<!-- 2&#45;&gt;10 -->
<g id="edge7" class="edge">
<title>2:s&#45;&gt;10:n</title>
<path fill="none" stroke="black" d="M1037.33,-250.71C1037.33,-250.71 1289.88,-208.49 1344.14,-199.41"/>
<polygon fill="black" stroke="black" points="1345.04,-202.81 1354.33,-197.71 1343.89,-195.91 1345.04,-202.81"/>
<text text-anchor="middle" x="1239.33" y="-221.51" font-family="Helvetica,sans-Serif" font-size="14.00">4</text>
</g>
<!-- 12 -->
<g id="node13" class="node">
<title>12</title>
<ellipse fill="#3dcc76" stroke="black" cx="1671.33" cy="-160.71" rx="122.16" ry="35.21"/>
<text text-anchor="start" x="1632.33" y="-171.51" font-family="Helvetica,sans-Serif" font-weight="bold" font-size="14.00"> Class=1 </text>
<text text-anchor="start" x="1705.33" y="-171.51" font-family="Helvetica,sans-Serif" font-size="14.00"> </text>
<text text-anchor="start" x="1592.83" y="-157.51" font-family="Helvetica,sans-Serif" font-size="14.00"> error: 0.000, n=1473 </text>
<text text-anchor="start" x="1595.83" y="-143.51" font-family="Helvetica,sans-Serif" font-size="14.00"> p: (1.00, 0.00, 0.00) </text>
</g>
<!-- 11&#45;&gt;12 -->
<g id="edge12" class="edge">
<title>11:s&#45;&gt;12:n</title>
<path fill="none" stroke="black" d="M1478.33,-250.71C1478.33,-250.71 1622.16,-211.21 1661.49,-200.41"/>
<polygon fill="black" stroke="black" points="1662.61,-203.73 1671.33,-197.71 1660.76,-196.98 1662.61,-203.73"/>
<text text-anchor="middle" x="1602.33" y="-221.51" font-family="Helvetica,sans-Serif" font-size="14.00">4</text>
</g>
<!-- 4 -->
<g id="node9" class="node">
<title>4</title>
<ellipse fill="#4485e5" stroke="black" cx="122.33" cy="-35.36" rx="122.16" ry="35.21"/>
<text text-anchor="start" x="83.33" y="-46.16" font-family="Helvetica,sans-Serif" font-weight="bold" font-size="14.00"> Class=1 </text>
<text text-anchor="start" x="156.33" y="-46.16" font-family="Helvetica,sans-Serif" font-size="14.00"> </text>
<text text-anchor="start" x="43.83" y="-32.16" font-family="Helvetica,sans-Serif" font-size="14.00"> error: 0.875, n=1473 </text>
<text text-anchor="start" x="46.83" y="-18.16" font-family="Helvetica,sans-Serif" font-size="14.00"> p: (0.46, 0.11, 0.43) </text>
</g>
<!-- 3&#45;&gt;4 -->
<g id="edge8" class="edge">
<title>3:s&#45;&gt;4:n</title>
<path fill="none" stroke="black" d="M439.33,-121.71C439.33,-121.71 186.78,-81.08 132.52,-72.35"/>
<polygon fill="black" stroke="black" points="132.76,-68.84 122.33,-70.71 131.65,-75.75 132.76,-68.84"/>
<text text-anchor="middle" x="342.83" y="-92.51" font-family="Helvetica,sans-Serif" font-size="14.00">&lt;= 40</text>
</g>
<!-- 5 -->
<g id="node10" class="node">
<title>5</title>
<ellipse fill="#4485e5" stroke="black" cx="439.33" cy="-35.36" rx="122.16" ry="35.21"/>
<text text-anchor="start" x="400.33" y="-46.16" font-family="Helvetica,sans-Serif" font-weight="bold" font-size="14.00"> Class=1 </text>
<text text-anchor="start" x="473.33" y="-46.16" font-family="Helvetica,sans-Serif" font-size="14.00"> </text>
<text text-anchor="start" x="360.83" y="-32.16" font-family="Helvetica,sans-Serif" font-size="14.00"> error: 0.682, n=1473 </text>
<text text-anchor="start" x="363.83" y="-18.16" font-family="Helvetica,sans-Serif" font-size="14.00"> p: (0.73, 0.18, 0.09) </text>
</g>
<!-- 3&#45;&gt;5 -->
<g id="edge9" class="edge">
<title>3:s&#45;&gt;5:n</title>
<path fill="none" stroke="black" d="M439.33,-121.71C439.33,-121.71 439.33,-95.93 439.33,-81.03"/>
<polygon fill="black" stroke="black" points="442.83,-80.71 439.33,-70.71 435.83,-80.71 442.83,-80.71"/>
<text text-anchor="middle" x="456.83" y="-92.51" font-family="Helvetica,sans-Serif" font-size="14.00">&gt; 40</text>
</g>
<!-- 7 -->
<g id="node11" class="node">
<title>7</title>
<ellipse fill="#4485e5" stroke="black" cx="756.33" cy="-35.36" rx="122.16" ry="35.21"/>
<text text-anchor="start" x="717.33" y="-46.16" font-family="Helvetica,sans-Serif" font-weight="bold" font-size="14.00"> Class=3 </text>
<text text-anchor="start" x="790.33" y="-46.16" font-family="Helvetica,sans-Serif" font-size="14.00"> </text>
<text text-anchor="start" x="677.83" y="-32.16" font-family="Helvetica,sans-Serif" font-size="14.00"> error: 0.835, n=1473 </text>
<text text-anchor="start" x="680.83" y="-18.16" font-family="Helvetica,sans-Serif" font-size="14.00"> p: (0.38, 0.09, 0.54) </text>
</g>
<!-- 6&#45;&gt;7 -->
<g id="edge10" class="edge">
<title>6:s&#45;&gt;7:n</title>
<path fill="none" stroke="black" d="M756.33,-121.71C756.33,-121.71 756.33,-95.93 756.33,-81.03"/>
<polygon fill="black" stroke="black" points="759.83,-80.71 756.33,-70.71 752.83,-80.71 759.83,-80.71"/>
<text text-anchor="middle" x="779.83" y="-92.51" font-family="Helvetica,sans-Serif" font-size="14.00">&lt;= 35</text>
</g>
<!-- 8 -->
<g id="node12" class="node">
<title>8</title>
<ellipse fill="#4485e5" stroke="black" cx="1073.33" cy="-35.36" rx="122.16" ry="35.21"/>
<text text-anchor="start" x="1034.33" y="-46.16" font-family="Helvetica,sans-Serif" font-weight="bold" font-size="14.00"> Class=1 </text>
<text text-anchor="start" x="1107.33" y="-46.16" font-family="Helvetica,sans-Serif" font-size="14.00"> </text>
<text text-anchor="start" x="994.83" y="-32.16" font-family="Helvetica,sans-Serif" font-size="14.00"> error: 0.497, n=1473 </text>
<text text-anchor="start" x="997.83" y="-18.16" font-family="Helvetica,sans-Serif" font-size="14.00"> p: (0.84, 0.05, 0.12) </text>
</g>
<!-- 6&#45;&gt;8 -->
<g id="edge11" class="edge">
<title>6:s&#45;&gt;8:n</title>
<path fill="none" stroke="black" d="M756.33,-121.71C756.33,-121.71 1008.88,-81.08 1063.14,-72.35"/>
<polygon fill="black" stroke="black" points="1064.01,-75.75 1073.33,-70.71 1062.9,-68.84 1064.01,-75.75"/>
<text text-anchor="middle" x="970.83" y="-92.51" font-family="Helvetica,sans-Serif" font-size="14.00">&gt; 35</text>
</g>
</g>
</svg>
