<?xml version="1.0" encoding="UTF-8" standalone="no"?>
<!DOCTYPE svg PUBLIC "-//W3C//DTD SVG 1.1//EN"
 "http://www.w3.org/Graphics/SVG/1.1/DTD/svg11.dtd">
<!-- Generated by graphviz version 2.43.0 (0)
 -->
<!-- Title: Tree Pages: 1 -->
<svg width="2745pt" height="438pt"
 viewBox="0.00 0.00 2744.66 437.71" xmlns="http://www.w3.org/2000/svg" xmlns:xlink="http://www.w3.org/1999/xlink">
<g id="graph0" class="graph" transform="scale(1 1) rotate(0) translate(18 419.71)">
<title>Tree</title>
<polygon fill="white" stroke="transparent" points="-18,18 -18,-419.71 2726.66,-419.71 2726.66,18 -18,18"/>
<!-- 0 -->
<g id="node1" class="node">
<title>0</title>
<polygon fill="white" stroke="transparent" points="1345.33,-401.71 1291.33,-401.71 1291.33,-365.71 1345.33,-365.71 1345.33,-401.71"/>
<text text-anchor="middle" x="1318.33" y="-380.01" font-family="Helvetica,sans-Serif" font-size="14.00">0</text>
</g>
<!-- 1 -->
<g id="node2" class="node">
<title>1</title>
<polygon fill="#cc3d3d" stroke="black" points="1446.33,-328.71 1190.33,-328.71 1190.33,-250.71 1446.33,-250.71 1446.33,-328.71"/>
<text text-anchor="start" x="1279.33" y="-314.51" font-family="Helvetica,sans-Serif" font-weight="bold" font-size="14.00"> Class=1 </text>
<text text-anchor="start" x="1352.33" y="-314.51" font-family="Helvetica,sans-Serif" font-size="14.00"> </text>
<text text-anchor="start" x="1239.83" y="-300.51" font-family="Helvetica,sans-Serif" font-size="14.00"> error: 0.971, n=1473 </text>
<text text-anchor="start" x="1242.83" y="-286.51" font-family="Helvetica,sans-Serif" font-size="14.00"> p: (0.43, 0.23, 0.35) </text>
<text text-anchor="start" x="1244.33" y="-272.51" font-family="Helvetica,sans-Serif" font-size="14.00">&#45;&#45;&#45;&#45;&#45;&#45;&#45;&#45;&#45;&#45;&#45;&#45;&#45;&#45;&#45;&#45;&#45;&#45;&#45;&#45;&#45;&#45;&#45;&#45;&#45;&#45;&#45;&#45;</text>
<text text-anchor="start" x="1198.33" y="-258.51" font-family="Helvetica,sans-Serif" font-weight="bold" font-size="14.00">Number_of_children_ever_born</text>
</g>
<!-- 0&#45;&gt;1 -->
<!-- 2 -->
<g id="node3" class="node">
<title>2</title>
<ellipse fill="#64e544" stroke="black" cx="122.33" cy="-160.71" rx="122.16" ry="35.21"/>
<text text-anchor="start" x="83.33" y="-171.51" font-family="Helvetica,sans-Serif" font-weight="bold" font-size="14.00"> Class=3 </text>
<text text-anchor="start" x="156.33" y="-171.51" font-family="Helvetica,sans-Serif" font-size="14.00"> </text>
<text text-anchor="start" x="43.83" y="-157.51" font-family="Helvetica,sans-Serif" font-size="14.00"> error: 0.986, n=1473 </text>
<text text-anchor="start" x="46.83" y="-143.51" font-family="Helvetica,sans-Serif" font-size="14.00"> p: (0.33, 0.27, 0.41) </text>
</g>
<!-- 1&#45;&gt;2 -->
<g id="edge2" class="edge">
<title>1:s&#45;&gt;2:n</title>
<path fill="none" stroke="black" d="M1318.33,-250.71C1318.33,-250.71 249.57,-203.35 132.67,-198.17"/>
<polygon fill="black" stroke="black" points="132.47,-194.66 122.33,-197.71 132.16,-201.65 132.47,-194.66"/>
<text text-anchor="middle" x="712.33" y="-221.51" font-family="Helvetica,sans-Serif" font-size="14.00">5</text>
</g>
<!-- 3 -->
<g id="node4" class="node">
<title>3</title>
<ellipse fill="#64e544" stroke="black" cx="439.33" cy="-160.71" rx="122.16" ry="35.21"/>
<text text-anchor="start" x="400.33" y="-171.51" font-family="Helvetica,sans-Serif" font-weight="bold" font-size="14.00"> Class=3 </text>
<text text-anchor="start" x="473.33" y="-171.51" font-family="Helvetica,sans-Serif" font-size="14.00"> </text>
<text text-anchor="start" x="360.83" y="-157.51" font-family="Helvetica,sans-Serif" font-size="14.00"> error: 0.992, n=1473 </text>
<text text-anchor="start" x="363.83" y="-143.51" font-family="Helvetica,sans-Serif" font-size="14.00"> p: (0.29, 0.31, 0.40) </text>
</g>
<!-- 1&#45;&gt;3 -->
<g id="edge3" class="edge">
<title>1:s&#45;&gt;3:n</title>
<path fill="none" stroke="black" d="M1318.33,-250.71C1318.33,-250.71 547.38,-204.23 449.51,-198.32"/>
<polygon fill="black" stroke="black" points="449.52,-194.82 439.33,-197.71 449.1,-201.81 449.52,-194.82"/>
<text text-anchor="middle" x="946.33" y="-221.51" font-family="Helvetica,sans-Serif" font-size="14.00">4</text>
</g>
<!-- 4 -->
<g id="node5" class="node">
<title>4</title>
<ellipse fill="#64e544" stroke="black" cx="756.33" cy="-160.71" rx="122.16" ry="35.21"/>
<text text-anchor="start" x="717.33" y="-171.51" font-family="Helvetica,sans-Serif" font-weight="bold" font-size="14.00"> Class=1 </text>
<text text-anchor="start" x="790.33" y="-171.51" font-family="Helvetica,sans-Serif" font-size="14.00"> </text>
<text text-anchor="start" x="677.83" y="-157.51" font-family="Helvetica,sans-Serif" font-size="14.00"> error: 0.962, n=1473 </text>
<text text-anchor="start" x="680.83" y="-143.51" font-family="Helvetica,sans-Serif" font-size="14.00"> p: (0.41, 0.20, 0.38) </text>
</g>
<!-- 1&#45;&gt;4 -->
<g id="edge4" class="edge">
<title>1:s&#45;&gt;4:n</title>
<path fill="none" stroke="black" d="M1318.33,-250.71C1318.33,-250.71 842.73,-205.86 766.56,-198.68"/>
<polygon fill="black" stroke="black" points="766.61,-195.17 756.33,-197.71 765.96,-202.13 766.61,-195.17"/>
<text text-anchor="middle" x="1122.33" y="-221.51" font-family="Helvetica,sans-Serif" font-size="14.00">2</text>
</g>
<!-- 5 -->
<g id="node6" class="node">
<title>5</title>
<polygon fill="#64e544" stroke="black" points="1123.83,-199.71 950.83,-199.71 950.83,-121.71 1123.83,-121.71 1123.83,-199.71"/>
<text text-anchor="start" x="998.33" y="-185.51" font-family="Helvetica,sans-Serif" font-weight="bold" font-size="14.00"> Class=1 </text>
<text text-anchor="start" x="1071.33" y="-185.51" font-family="Helvetica,sans-Serif" font-size="14.00"> </text>
<text text-anchor="start" x="958.83" y="-171.51" font-family="Helvetica,sans-Serif" font-size="14.00"> error: 0.913, n=1473 </text>
<text text-anchor="start" x="961.83" y="-157.51" font-family="Helvetica,sans-Serif" font-size="14.00"> p: (0.52, 0.17, 0.32) </text>
<text text-anchor="start" x="1013.33" y="-143.51" font-family="Helvetica,sans-Serif" font-size="14.00">&#45;&#45;&#45;&#45;&#45;&#45;&#45;&#45;&#45;</text>
<text text-anchor="start" x="996.83" y="-129.51" font-family="Helvetica,sans-Serif" font-weight="bold" font-size="14.00">Wifes_age</text>
</g>
<!-- 1&#45;&gt;5 -->
<g id="edge5" class="edge">
<title>1:s&#45;&gt;5:n</title>
<path fill="none" stroke="black" d="M1318.33,-250.71C1318.33,-250.71 1097.39,-210.61 1047.33,-201.53"/>
<polygon fill="black" stroke="black" points="1047.79,-198.05 1037.33,-199.71 1046.54,-204.94 1047.79,-198.05"/>
<text text-anchor="middle" x="1216.33" y="-221.51" font-family="Helvetica,sans-Serif" font-size="14.00">1</text>
</g>
<!-- 8 -->
<g id="node7" class="node">
<title>8</title>
<ellipse fill="#64e544" stroke="black" cx="1318.33" cy="-160.71" rx="122.16" ry="35.21"/>
<text text-anchor="start" x="1279.33" y="-171.51" font-family="Helvetica,sans-Serif" font-weight="bold" font-size="14.00"> Class=1 </text>
<text text-anchor="start" x="1352.33" y="-171.51" font-family="Helvetica,sans-Serif" font-size="14.00"> </text>
<text text-anchor="start" x="1239.83" y="-157.51" font-family="Helvetica,sans-Serif" font-size="14.00"> error: 0.995, n=1473 </text>
<text text-anchor="start" x="1242.83" y="-143.51" font-family="Helvetica,sans-Serif" font-size="14.00"> p: (0.38, 0.29, 0.33) </text>
</g>
<!-- 1&#45;&gt;8 -->
<g id="edge6" class="edge">
<title>1:s&#45;&gt;8:n</title>
<path fill="none" stroke="black" d="M1318.33,-250.71C1318.33,-250.71 1318.33,-223.33 1318.33,-207.93"/>
<polygon fill="black" stroke="black" points="1321.83,-207.71 1318.33,-197.71 1314.83,-207.71 1321.83,-207.71"/>
<text text-anchor="middle" x="1323.33" y="-221.51" font-family="Helvetica,sans-Serif" font-size="14.00">6</text>
</g>
<!-- 9 -->
<g id="node8" class="node">
<title>9</title>
<ellipse fill="#64e544" stroke="black" cx="1635.33" cy="-160.71" rx="122.16" ry="35.21"/>
<text text-anchor="start" x="1596.33" y="-171.51" font-family="Helvetica,sans-Serif" font-weight="bold" font-size="14.00"> Class=1 </text>
<text text-anchor="start" x="1669.33" y="-171.51" font-family="Helvetica,sans-Serif" font-size="14.00"> </text>
<text text-anchor="start" x="1556.83" y="-157.51" font-family="Helvetica,sans-Serif" font-size="14.00"> error: 0.091, n=1473 </text>
<text text-anchor="start" x="1559.83" y="-143.51" font-family="Helvetica,sans-Serif" font-size="14.00"> p: (0.98, 0.00, 0.02) </text>
</g>
<!-- 1&#45;&gt;9 -->
<g id="edge7" class="edge">
<title>1:s&#45;&gt;9:n</title>
<path fill="none" stroke="black" d="M1318.33,-250.71C1318.33,-250.71 1570.88,-208.49 1625.14,-199.41"/>
<polygon fill="black" stroke="black" points="1626.04,-202.81 1635.33,-197.71 1624.89,-195.91 1626.04,-202.81"/>
<text text-anchor="middle" x="1520.33" y="-221.51" font-family="Helvetica,sans-Serif" font-size="14.00">0</text>
</g>
<!-- 10 -->
<g id="node9" class="node">
<title>10</title>
<ellipse fill="#64e544" stroke="black" cx="1952.33" cy="-160.71" rx="122.16" ry="35.21"/>
<text text-anchor="start" x="1913.33" y="-171.51" font-family="Helvetica,sans-Serif" font-weight="bold" font-size="14.00"> Class=1 </text>
<text text-anchor="start" x="1986.33" y="-171.51" font-family="Helvetica,sans-Serif" font-size="14.00"> </text>
<text text-anchor="start" x="1873.83" y="-157.51" font-family="Helvetica,sans-Serif" font-size="14.00"> error: 0.847, n=1473 </text>
<text text-anchor="start" x="1876.83" y="-143.51" font-family="Helvetica,sans-Serif" font-size="14.00"> p: (0.62, 0.19, 0.19) </text>
</g>
<!-- 1&#45;&gt;10 -->
<g id="edge8" class="edge">
<title>1:s&#45;&gt;10:n</title>
<path fill="none" stroke="black" d="M1318.33,-250.71C1318.33,-250.71 1860.57,-205.38 1942.11,-198.56"/>
<polygon fill="black" stroke="black" points="1942.66,-202.03 1952.33,-197.71 1942.07,-195.06 1942.66,-202.03"/>
<text text-anchor="middle" x="1716.33" y="-221.51" font-family="Helvetica,sans-Serif" font-size="14.00">8</text>
</g>
<!-- 11 -->
<g id="node10" class="node">
<title>11</title>
<ellipse fill="#64e544" stroke="black" cx="2269.33" cy="-160.71" rx="122.16" ry="35.21"/>
<text text-anchor="start" x="2230.33" y="-171.51" font-family="Helvetica,sans-Serif" font-weight="bold" font-size="14.00"> Class=2 </text>
<text text-anchor="start" x="2303.33" y="-171.51" font-family="Helvetica,sans-Serif" font-size="14.00"> </text>
<text text-anchor="start" x="2190.83" y="-157.51" font-family="Helvetica,sans-Serif" font-size="14.00"> error: 0.983, n=1473 </text>
<text text-anchor="start" x="2193.83" y="-143.51" font-family="Helvetica,sans-Serif" font-size="14.00"> p: (0.37, 0.39, 0.24) </text>
</g>
<!-- 1&#45;&gt;11 -->
<g id="edge9" class="edge">
<title>1:s&#45;&gt;11:n</title>
<path fill="none" stroke="black" d="M1318.33,-250.71C1318.33,-250.71 2157.66,-203.93 2259.29,-198.27"/>
<polygon fill="black" stroke="black" points="2259.54,-201.76 2269.33,-197.71 2259.15,-194.77 2259.54,-201.76"/>
<text text-anchor="middle" x="1962.33" y="-221.51" font-family="Helvetica,sans-Serif" font-size="14.00">7</text>
</g>
<!-- 12 -->
<g id="node11" class="node">
<title>12</title>
<ellipse fill="#64e544" stroke="black" cx="2586.33" cy="-160.71" rx="122.16" ry="35.21"/>
<text text-anchor="start" x="2547.33" y="-171.51" font-family="Helvetica,sans-Serif" font-weight="bold" font-size="14.00"> Class=3 </text>
<text text-anchor="start" x="2620.33" y="-171.51" font-family="Helvetica,sans-Serif" font-size="14.00"> </text>
<text text-anchor="start" x="2507.83" y="-157.51" font-family="Helvetica,sans-Serif" font-size="14.00"> error: 0.969, n=1473 </text>
<text text-anchor="start" x="2510.83" y="-143.51" font-family="Helvetica,sans-Serif" font-size="14.00"> p: (0.27, 0.27, 0.46) </text>
</g>
<!-- 1&#45;&gt;12 -->
<g id="edge10" class="edge">
<title>1:s&#45;&gt;12:n</title>
<path fill="none" stroke="black" d="M1318.33,-250.71C1318.33,-250.71 2456.12,-203.15 2576.12,-198.14"/>
<polygon fill="black" stroke="black" points="2576.48,-201.63 2586.33,-197.71 2576.19,-194.63 2576.48,-201.63"/>
<text text-anchor="middle" x="2237.33" y="-221.51" font-family="Helvetica,sans-Serif" font-size="14.00">3</text>
</g>
<!-- 6 -->
<g id="node12" class="node">
<title>6</title>
<ellipse fill="#3d76cc" stroke="black" cx="878.33" cy="-35.36" rx="122.16" ry="35.21"/>
<text text-anchor="start" x="839.33" y="-46.16" font-family="Helvetica,sans-Serif" font-weight="bold" font-size="14.00"> Class=3 </text>
<text text-anchor="start" x="912.33" y="-46.16" font-family="Helvetica,sans-Serif" font-size="14.00"> </text>
<text text-anchor="start" x="799.83" y="-32.16" font-family="Helvetica,sans-Serif" font-size="14.00"> error: 0.887, n=1473 </text>
<text text-anchor="start" x="802.83" y="-18.16" font-family="Helvetica,sans-Serif" font-size="14.00"> p: (0.25, 0.18, 0.57) </text>
</g>
<!-- 5&#45;&gt;6 -->
<g id="edge11" class="edge">
<title>5:s&#45;&gt;6:n</title>
<path fill="none" stroke="black" d="M1037.33,-121.71C1037.33,-121.71 923.08,-85.07 888.28,-73.9"/>
<polygon fill="black" stroke="black" points="888.92,-70.43 878.33,-70.71 886.78,-77.1 888.92,-70.43"/>
<text text-anchor="middle" x="986.83" y="-92.51" font-family="Helvetica,sans-Serif" font-size="14.00">21</text>
</g>
<!-- 7 -->
<g id="node13" class="node">
<title>7</title>
<ellipse fill="#3d76cc" stroke="black" cx="1195.33" cy="-35.36" rx="122.16" ry="35.21"/>
<text text-anchor="start" x="1156.33" y="-46.16" font-family="Helvetica,sans-Serif" font-weight="bold" font-size="14.00"> Class=1 </text>
<text text-anchor="start" x="1229.33" y="-46.16" font-family="Helvetica,sans-Serif" font-size="14.00"> </text>
<text text-anchor="start" x="1116.83" y="-32.16" font-family="Helvetica,sans-Serif" font-size="14.00"> error: 0.870, n=1473 </text>
<text text-anchor="start" x="1119.83" y="-18.16" font-family="Helvetica,sans-Serif" font-size="14.00"> p: (0.57, 0.14, 0.29) </text>
</g>
<!-- 5&#45;&gt;7 -->
<g id="edge12" class="edge">
<title>5:s&#45;&gt;7:n</title>
<path fill="none" stroke="black" d="M1037.33,-121.71C1037.33,-121.71 1150.86,-85.07 1185.45,-73.9"/>
<polygon fill="black" stroke="black" points="1186.89,-77.11 1195.33,-70.71 1184.74,-70.45 1186.89,-77.11"/>
<text text-anchor="middle" x="1144.83" y="-92.51" font-family="Helvetica,sans-Serif" font-size="14.00">25</text>
</g>
</g>
</svg>
