<?xml version="1.0" encoding="UTF-8" standalone="no"?>
<!DOCTYPE svg PUBLIC "-//W3C//DTD SVG 1.1//EN"
 "http://www.w3.org/Graphics/SVG/1.1/DTD/svg11.dtd">
<!-- Generated by graphviz version 2.43.0 (0)
 -->
<!-- Title: Tree Pages: 1 -->
<svg width="3536pt" height="567pt"
 viewBox="0.00 0.00 3535.66 566.71" xmlns="http://www.w3.org/2000/svg" xmlns:xlink="http://www.w3.org/1999/xlink">
<g id="graph0" class="graph" transform="scale(1 1) rotate(0) translate(18 548.71)">
<title>Tree</title>
<polygon fill="white" stroke="transparent" points="-18,18 -18,-548.71 3517.66,-548.71 3517.66,18 -18,18"/>
<!-- 0 -->
<g id="node1" class="node">
<title>0</title>
<polygon fill="white" stroke="transparent" points="1292.33,-530.71 1238.33,-530.71 1238.33,-494.71 1292.33,-494.71 1292.33,-530.71"/>
<text text-anchor="middle" x="1265.33" y="-509.01" font-family="Helvetica,sans-Serif" font-size="14.00">0</text>
</g>
<!-- 1 -->
<g id="node2" class="node">
<title>1</title>
<polygon fill="#cc3d3d" stroke="black" points="1351.83,-457.71 1178.83,-457.71 1178.83,-379.71 1351.83,-379.71 1351.83,-457.71"/>
<text text-anchor="start" x="1211.83" y="-443.51" font-family="Helvetica,sans-Serif" font-weight="bold" font-size="14.00"> Class=good </text>
<text text-anchor="start" x="1313.83" y="-443.51" font-family="Helvetica,sans-Serif" font-size="14.00"> </text>
<text text-anchor="start" x="1186.83" y="-429.51" font-family="Helvetica,sans-Serif" font-size="14.00"> error: 0.881, n=1000 </text>
<text text-anchor="start" x="1210.33" y="-415.51" font-family="Helvetica,sans-Serif" font-size="14.00"> p: (0.30, 0.70) </text>
<text text-anchor="start" x="1225.83" y="-401.51" font-family="Helvetica,sans-Serif" font-size="14.00">&#45;&#45;&#45;&#45;&#45;&#45;&#45;&#45;&#45;&#45;&#45;&#45;&#45;&#45;&#45;</text>
<text text-anchor="start" x="1202.33" y="-387.51" font-family="Helvetica,sans-Serif" font-weight="bold" font-size="14.00">checking_status</text>
</g>
<!-- 0&#45;&gt;1 -->
<!-- 2 -->
<g id="node3" class="node">
<title>2</title>
<ellipse fill="#c5e544" stroke="black" cx="730.33" cy="-289.71" rx="122.16" ry="35.21"/>
<text text-anchor="start" x="676.83" y="-300.51" font-family="Helvetica,sans-Serif" font-weight="bold" font-size="14.00"> Class=good </text>
<text text-anchor="start" x="778.83" y="-300.51" font-family="Helvetica,sans-Serif" font-size="14.00"> </text>
<text text-anchor="start" x="651.83" y="-286.51" font-family="Helvetica,sans-Serif" font-size="14.00"> error: 0.764, n=1000 </text>
<text text-anchor="start" x="675.33" y="-272.51" font-family="Helvetica,sans-Serif" font-size="14.00"> p: (0.22, 0.78) </text>
</g>
<!-- 1&#45;&gt;2 -->
<g id="edge2" class="edge">
<title>1:s&#45;&gt;2:n</title>
<path fill="none" stroke="black" d="M1265.33,-379.71C1265.33,-379.71 814.5,-335.05 740.54,-327.72"/>
<polygon fill="black" stroke="black" points="740.63,-324.21 730.33,-326.71 739.94,-331.18 740.63,-324.21"/>
<text text-anchor="middle" x="1064.33" y="-350.51" font-family="Helvetica,sans-Serif" font-size="14.00">&gt;=200</text>
</g>
<!-- 3 -->
<g id="node4" class="node">
<title>3</title>
<polygon fill="#c5e544" stroke="black" points="1097.83,-328.71 924.83,-328.71 924.83,-250.71 1097.83,-250.71 1097.83,-328.71"/>
<text text-anchor="start" x="957.83" y="-314.51" font-family="Helvetica,sans-Serif" font-weight="bold" font-size="14.00"> Class=good </text>
<text text-anchor="start" x="1059.83" y="-314.51" font-family="Helvetica,sans-Serif" font-size="14.00"> </text>
<text text-anchor="start" x="932.83" y="-300.51" font-family="Helvetica,sans-Serif" font-size="14.00"> error: 0.520, n=1000 </text>
<text text-anchor="start" x="956.33" y="-286.51" font-family="Helvetica,sans-Serif" font-size="14.00"> p: (0.12, 0.88) </text>
<text text-anchor="start" x="992.83" y="-272.51" font-family="Helvetica,sans-Serif" font-size="14.00">&#45;&#45;&#45;&#45;&#45;&#45;&#45;</text>
<text text-anchor="start" x="979.33" y="-258.51" font-family="Helvetica,sans-Serif" font-weight="bold" font-size="14.00">purpose</text>
</g>
<!-- 1&#45;&gt;3 -->
<g id="edge3" class="edge">
<title>1:s&#45;&gt;3:n</title>
<path fill="none" stroke="black" d="M1265.33,-379.71C1265.33,-379.71 1068.25,-340.14 1021.29,-330.71"/>
<polygon fill="black" stroke="black" points="1021.82,-327.25 1011.33,-328.71 1020.44,-334.11 1021.82,-327.25"/>
<text text-anchor="middle" x="1211.83" y="-350.51" font-family="Helvetica,sans-Serif" font-size="14.00">no checking</text>
</g>
<!-- 11 -->
<g id="node5" class="node">
<title>11</title>
<polygon fill="#c5e544" stroke="black" points="1952.33,-328.71 1776.33,-328.71 1776.33,-250.71 1952.33,-250.71 1952.33,-328.71"/>
<text text-anchor="start" x="1810.83" y="-314.51" font-family="Helvetica,sans-Serif" font-weight="bold" font-size="14.00"> Class=good </text>
<text text-anchor="start" x="1912.83" y="-314.51" font-family="Helvetica,sans-Serif" font-size="14.00"> </text>
<text text-anchor="start" x="1785.83" y="-300.51" font-family="Helvetica,sans-Serif" font-size="14.00"> error: 0.965, n=1000 </text>
<text text-anchor="start" x="1809.33" y="-286.51" font-family="Helvetica,sans-Serif" font-size="14.00"> p: (0.39, 0.61) </text>
<text text-anchor="start" x="1816.83" y="-272.51" font-family="Helvetica,sans-Serif" font-size="14.00">&#45;&#45;&#45;&#45;&#45;&#45;&#45;&#45;&#45;&#45;&#45;&#45;&#45;&#45;&#45;&#45;&#45;&#45;</text>
<text text-anchor="start" x="1784.33" y="-258.51" font-family="Helvetica,sans-Serif" font-weight="bold" font-size="14.00">property_magnitude</text>
</g>
<!-- 1&#45;&gt;11 -->
<g id="edge4" class="edge">
<title>1:s&#45;&gt;11:n</title>
<path fill="none" stroke="black" d="M1265.33,-379.71C1265.33,-379.71 1774.39,-336.37 1853.93,-329.6"/>
<polygon fill="black" stroke="black" points="1854.66,-333.05 1864.33,-328.71 1854.07,-326.07 1854.66,-333.05"/>
<text text-anchor="middle" x="1677.33" y="-350.51" font-family="Helvetica,sans-Serif" font-size="14.00">0&lt;=X&lt;200</text>
</g>
<!-- 17 -->
<g id="node6" class="node">
<title>17</title>
<polygon fill="#c5e544" stroke="black" points="2865.83,-328.71 2692.83,-328.71 2692.83,-250.71 2865.83,-250.71 2865.83,-328.71"/>
<text text-anchor="start" x="2725.83" y="-314.51" font-family="Helvetica,sans-Serif" font-weight="bold" font-size="14.00"> Class=good </text>
<text text-anchor="start" x="2827.83" y="-314.51" font-family="Helvetica,sans-Serif" font-size="14.00"> </text>
<text text-anchor="start" x="2700.83" y="-300.51" font-family="Helvetica,sans-Serif" font-size="14.00"> error: 1.000, n=1000 </text>
<text text-anchor="start" x="2724.33" y="-286.51" font-family="Helvetica,sans-Serif" font-size="14.00"> p: (0.49, 0.51) </text>
<text text-anchor="start" x="2742.33" y="-272.51" font-family="Helvetica,sans-Serif" font-size="14.00">&#45;&#45;&#45;&#45;&#45;&#45;&#45;&#45;&#45;&#45;&#45;&#45;&#45;&#45;</text>
<text text-anchor="start" x="2725.33" y="-258.51" font-family="Helvetica,sans-Serif" font-weight="bold" font-size="14.00">credit_history</text>
</g>
<!-- 1&#45;&gt;17 -->
<g id="edge5" class="edge">
<title>1:s&#45;&gt;17:n</title>
<path fill="none" stroke="black" d="M1265.33,-379.71C1265.33,-379.71 2637.9,-333.47 2769.26,-329.05"/>
<polygon fill="black" stroke="black" points="2769.45,-332.55 2779.33,-328.71 2769.22,-325.55 2769.45,-332.55"/>
<text text-anchor="middle" x="2214.33" y="-350.51" font-family="Helvetica,sans-Serif" font-size="14.00">&lt;0</text>
</g>
<!-- 4 -->
<g id="node7" class="node">
<title>4</title>
<ellipse fill="#3dcc76" stroke="black" cx="122.33" cy="-160.71" rx="122.16" ry="35.21"/>
<text text-anchor="start" x="68.83" y="-171.51" font-family="Helvetica,sans-Serif" font-weight="bold" font-size="14.00"> Class=good </text>
<text text-anchor="start" x="170.83" y="-171.51" font-family="Helvetica,sans-Serif" font-size="14.00"> </text>
<text text-anchor="start" x="43.83" y="-157.51" font-family="Helvetica,sans-Serif" font-size="14.00"> error: 0.616, n=1000 </text>
<text text-anchor="start" x="67.33" y="-143.51" font-family="Helvetica,sans-Serif" font-size="14.00"> p: (0.15, 0.85) </text>
</g>
<!-- 3&#45;&gt;4 -->
<g id="edge6" class="edge">
<title>3:s&#45;&gt;4:n</title>
<path fill="none" stroke="black" d="M1011.33,-250.71C1011.33,-250.71 229.98,-204.13 132.31,-198.31"/>
<polygon fill="black" stroke="black" points="132.52,-194.81 122.33,-197.71 132.1,-201.8 132.52,-194.81"/>
<text text-anchor="middle" x="542.33" y="-221.51" font-family="Helvetica,sans-Serif" font-size="14.00">furniture/equipment</text>
</g>
<!-- 5 -->
<g id="node8" class="node">
<title>5</title>
<ellipse fill="#3dcc76" stroke="black" cx="439.33" cy="-160.71" rx="122.16" ry="35.21"/>
<text text-anchor="start" x="385.83" y="-171.51" font-family="Helvetica,sans-Serif" font-weight="bold" font-size="14.00"> Class=good </text>
<text text-anchor="start" x="487.83" y="-171.51" font-family="Helvetica,sans-Serif" font-size="14.00"> </text>
<text text-anchor="start" x="360.83" y="-157.51" font-family="Helvetica,sans-Serif" font-size="14.00"> error: 0.308, n=1000 </text>
<text text-anchor="start" x="384.33" y="-143.51" font-family="Helvetica,sans-Serif" font-size="14.00"> p: (0.06, 0.94) </text>
</g>
<!-- 3&#45;&gt;5 -->
<g id="edge7" class="edge">
<title>3:s&#45;&gt;5:n</title>
<path fill="none" stroke="black" d="M1011.33,-250.71C1011.33,-250.71 527.27,-205.86 449.75,-198.68"/>
<polygon fill="black" stroke="black" points="449.61,-195.15 439.33,-197.71 448.96,-202.12 449.61,-195.15"/>
<text text-anchor="middle" x="789.33" y="-221.51" font-family="Helvetica,sans-Serif" font-size="14.00">radio/tv</text>
</g>
<!-- 6 -->
<g id="node9" class="node">
<title>6</title>
<polygon fill="#3dcc76" stroke="black" points="816.83,-199.71 633.83,-199.71 633.83,-121.71 816.83,-121.71 816.83,-199.71"/>
<text text-anchor="start" x="671.83" y="-185.51" font-family="Helvetica,sans-Serif" font-weight="bold" font-size="14.00"> Class=good </text>
<text text-anchor="start" x="773.83" y="-185.51" font-family="Helvetica,sans-Serif" font-size="14.00"> </text>
<text text-anchor="start" x="646.83" y="-171.51" font-family="Helvetica,sans-Serif" font-size="14.00"> error: 0.610, n=1000 </text>
<text text-anchor="start" x="670.33" y="-157.51" font-family="Helvetica,sans-Serif" font-size="14.00"> p: (0.15, 0.85) </text>
<text text-anchor="start" x="675.33" y="-143.51" font-family="Helvetica,sans-Serif" font-size="14.00">&#45;&#45;&#45;&#45;&#45;&#45;&#45;&#45;&#45;&#45;&#45;&#45;&#45;&#45;&#45;&#45;&#45;&#45;&#45;</text>
<text text-anchor="start" x="641.83" y="-129.51" font-family="Helvetica,sans-Serif" font-weight="bold" font-size="14.00">other_payment_plans</text>
</g>
<!-- 3&#45;&gt;6 -->
<g id="edge8" class="edge">
<title>3:s&#45;&gt;6:n</title>
<path fill="none" stroke="black" d="M1011.33,-250.71C1011.33,-250.71 785.46,-210.43 735.17,-201.47"/>
<polygon fill="black" stroke="black" points="735.79,-198.02 725.33,-199.71 734.56,-204.91 735.79,-198.02"/>
<text text-anchor="middle" x="930.83" y="-221.51" font-family="Helvetica,sans-Serif" font-size="14.00">new car</text>
</g>
<!-- 8 -->
<g id="node10" class="node">
<title>8</title>
<ellipse fill="#3dcc76" stroke="black" cx="1011.33" cy="-160.71" rx="122.16" ry="35.21"/>
<text text-anchor="start" x="957.83" y="-171.51" font-family="Helvetica,sans-Serif" font-weight="bold" font-size="14.00"> Class=good </text>
<text text-anchor="start" x="1059.83" y="-171.51" font-family="Helvetica,sans-Serif" font-size="14.00"> </text>
<text text-anchor="start" x="932.83" y="-157.51" font-family="Helvetica,sans-Serif" font-size="14.00"> error: 0.842, n=1000 </text>
<text text-anchor="start" x="956.33" y="-143.51" font-family="Helvetica,sans-Serif" font-size="14.00"> p: (0.27, 0.73) </text>
</g>
<!-- 3&#45;&gt;8 -->
<g id="edge9" class="edge">
<title>3:s&#45;&gt;8:n</title>
<path fill="none" stroke="black" d="M1011.33,-250.71C1011.33,-250.71 1011.33,-223.33 1011.33,-207.93"/>
<polygon fill="black" stroke="black" points="1014.83,-207.71 1011.33,-197.71 1007.83,-207.71 1014.83,-207.71"/>
<text text-anchor="middle" x="1042.33" y="-221.51" font-family="Helvetica,sans-Serif" font-size="14.00">business</text>
</g>
<!-- 9 -->
<g id="node11" class="node">
<title>9</title>
<polygon fill="#3dcc76" stroke="black" points="1388.83,-199.71 1205.83,-199.71 1205.83,-121.71 1388.83,-121.71 1388.83,-199.71"/>
<text text-anchor="start" x="1243.83" y="-185.51" font-family="Helvetica,sans-Serif" font-weight="bold" font-size="14.00"> Class=good </text>
<text text-anchor="start" x="1345.83" y="-185.51" font-family="Helvetica,sans-Serif" font-size="14.00"> </text>
<text text-anchor="start" x="1218.83" y="-171.51" font-family="Helvetica,sans-Serif" font-size="14.00"> error: 0.229, n=1000 </text>
<text text-anchor="start" x="1242.33" y="-157.51" font-family="Helvetica,sans-Serif" font-size="14.00"> p: (0.04, 0.96) </text>
<text text-anchor="start" x="1247.33" y="-143.51" font-family="Helvetica,sans-Serif" font-size="14.00">&#45;&#45;&#45;&#45;&#45;&#45;&#45;&#45;&#45;&#45;&#45;&#45;&#45;&#45;&#45;&#45;&#45;&#45;&#45;</text>
<text text-anchor="start" x="1213.83" y="-129.51" font-family="Helvetica,sans-Serif" font-weight="bold" font-size="14.00">other_payment_plans</text>
</g>
<!-- 3&#45;&gt;9 -->
<g id="edge10" class="edge">
<title>3:s&#45;&gt;9:n</title>
<path fill="none" stroke="black" d="M1011.33,-250.71C1011.33,-250.71 1237.19,-210.43 1287.48,-201.47"/>
<polygon fill="black" stroke="black" points="1288.1,-204.91 1297.33,-199.71 1286.87,-198.02 1288.1,-204.91"/>
<text text-anchor="middle" x="1219.83" y="-221.51" font-family="Helvetica,sans-Serif" font-size="14.00">used car</text>
</g>
<!-- 12 -->
<g id="node14" class="node">
<title>12</title>
<ellipse fill="#3dcc76" stroke="black" cx="1583.33" cy="-160.71" rx="122.16" ry="35.21"/>
<text text-anchor="start" x="1529.83" y="-171.51" font-family="Helvetica,sans-Serif" font-weight="bold" font-size="14.00"> Class=good </text>
<text text-anchor="start" x="1631.83" y="-171.51" font-family="Helvetica,sans-Serif" font-size="14.00"> </text>
<text text-anchor="start" x="1504.83" y="-157.51" font-family="Helvetica,sans-Serif" font-size="14.00"> error: 0.748, n=1000 </text>
<text text-anchor="start" x="1528.33" y="-143.51" font-family="Helvetica,sans-Serif" font-size="14.00"> p: (0.21, 0.79) </text>
</g>
<!-- 11&#45;&gt;12 -->
<g id="edge13" class="edge">
<title>11:s&#45;&gt;12:n</title>
<path fill="none" stroke="black" d="M1864.33,-250.71C1864.33,-250.71 1643.39,-209.04 1593.33,-199.6"/>
<polygon fill="black" stroke="black" points="1593.8,-196.12 1583.33,-197.71 1592.51,-203 1593.8,-196.12"/>
<text text-anchor="middle" x="1802.83" y="-221.51" font-family="Helvetica,sans-Serif" font-size="14.00">real estate</text>
</g>
<!-- 13 -->
<g id="node15" class="node">
<title>13</title>
<polygon fill="#3dcc76" stroke="black" points="1950.83,-199.71 1777.83,-199.71 1777.83,-121.71 1950.83,-121.71 1950.83,-199.71"/>
<text text-anchor="start" x="1810.83" y="-185.51" font-family="Helvetica,sans-Serif" font-weight="bold" font-size="14.00"> Class=good </text>
<text text-anchor="start" x="1912.83" y="-185.51" font-family="Helvetica,sans-Serif" font-size="14.00"> </text>
<text text-anchor="start" x="1785.83" y="-171.51" font-family="Helvetica,sans-Serif" font-size="14.00"> error: 0.972, n=1000 </text>
<text text-anchor="start" x="1809.33" y="-157.51" font-family="Helvetica,sans-Serif" font-size="14.00"> p: (0.40, 0.60) </text>
<text text-anchor="start" x="1827.33" y="-143.51" font-family="Helvetica,sans-Serif" font-size="14.00">&#45;&#45;&#45;&#45;&#45;&#45;&#45;&#45;&#45;&#45;&#45;&#45;&#45;&#45;</text>
<text text-anchor="start" x="1806.33" y="-129.51" font-family="Helvetica,sans-Serif" font-weight="bold" font-size="14.00">savings_status</text>
</g>
<!-- 11&#45;&gt;13 -->
<g id="edge14" class="edge">
<title>11:s&#45;&gt;13:n</title>
<path fill="none" stroke="black" d="M1864.33,-250.71C1864.33,-250.71 1864.33,-224.93 1864.33,-210.03"/>
<polygon fill="black" stroke="black" points="1867.83,-209.71 1864.33,-199.71 1860.83,-209.71 1867.83,-209.71"/>
<text text-anchor="middle" x="1875.33" y="-221.51" font-family="Helvetica,sans-Serif" font-size="14.00">car</text>
</g>
<!-- 15 -->
<g id="node16" class="node">
<title>15</title>
<ellipse fill="#3dcc76" stroke="black" cx="2145.33" cy="-160.71" rx="122.16" ry="35.21"/>
<text text-anchor="start" x="2096.83" y="-171.51" font-family="Helvetica,sans-Serif" font-weight="bold" font-size="14.00"> Class=bad </text>
<text text-anchor="start" x="2188.83" y="-171.51" font-family="Helvetica,sans-Serif" font-size="14.00"> </text>
<text text-anchor="start" x="2066.83" y="-157.51" font-family="Helvetica,sans-Serif" font-size="14.00"> error: 0.973, n=1000 </text>
<text text-anchor="start" x="2090.33" y="-143.51" font-family="Helvetica,sans-Serif" font-size="14.00"> p: (0.60, 0.40) </text>
</g>
<!-- 11&#45;&gt;15 -->
<g id="edge15" class="edge">
<title>11:s&#45;&gt;15:n</title>
<path fill="none" stroke="black" d="M1864.33,-250.71C1864.33,-250.71 2085.27,-209.04 2135.33,-199.6"/>
<polygon fill="black" stroke="black" points="2136.15,-203 2145.33,-197.71 2134.85,-196.12 2136.15,-203"/>
<text text-anchor="middle" x="2104.33" y="-221.51" font-family="Helvetica,sans-Serif" font-size="14.00">no known property</text>
</g>
<!-- 16 -->
<g id="node17" class="node">
<title>16</title>
<ellipse fill="#3dcc76" stroke="black" cx="2462.33" cy="-160.71" rx="122.16" ry="35.21"/>
<text text-anchor="start" x="2408.83" y="-171.51" font-family="Helvetica,sans-Serif" font-weight="bold" font-size="14.00"> Class=good </text>
<text text-anchor="start" x="2510.83" y="-171.51" font-family="Helvetica,sans-Serif" font-size="14.00"> </text>
<text text-anchor="start" x="2383.83" y="-157.51" font-family="Helvetica,sans-Serif" font-size="14.00"> error: 0.988, n=1000 </text>
<text text-anchor="start" x="2407.33" y="-143.51" font-family="Helvetica,sans-Serif" font-size="14.00"> p: (0.44, 0.56) </text>
</g>
<!-- 11&#45;&gt;16 -->
<g id="edge16" class="edge">
<title>11:s&#45;&gt;16:n</title>
<path fill="none" stroke="black" d="M1864.33,-250.71C1864.33,-250.71 2372.54,-205.67 2451.95,-198.63"/>
<polygon fill="black" stroke="black" points="2452.68,-202.08 2462.33,-197.71 2452.06,-195.11 2452.68,-202.08"/>
<text text-anchor="middle" x="2348.33" y="-221.51" font-family="Helvetica,sans-Serif" font-size="14.00">life insurance</text>
</g>
<!-- 18 -->
<g id="node19" class="node">
<title>18</title>
<ellipse fill="#3dcc76" stroke="black" cx="2779.33" cy="-160.71" rx="122.16" ry="35.21"/>
<text text-anchor="start" x="2725.83" y="-171.51" font-family="Helvetica,sans-Serif" font-weight="bold" font-size="14.00"> Class=good </text>
<text text-anchor="start" x="2827.83" y="-171.51" font-family="Helvetica,sans-Serif" font-size="14.00"> </text>
<text text-anchor="start" x="2700.83" y="-157.51" font-family="Helvetica,sans-Serif" font-size="14.00"> error: 0.840, n=1000 </text>
<text text-anchor="start" x="2724.33" y="-143.51" font-family="Helvetica,sans-Serif" font-size="14.00"> p: (0.27, 0.73) </text>
</g>
<!-- 17&#45;&gt;18 -->
<g id="edge18" class="edge">
<title>17:s&#45;&gt;18:n</title>
<path fill="none" stroke="black" d="M2779.33,-250.71C2779.33,-250.71 2779.33,-223.33 2779.33,-207.93"/>
<polygon fill="black" stroke="black" points="2782.83,-207.71 2779.33,-197.71 2775.83,-207.71 2782.83,-207.71"/>
<text text-anchor="middle" x="2868.33" y="-221.51" font-family="Helvetica,sans-Serif" font-size="14.00">critical/other existing credit</text>
</g>
<!-- 19 -->
<g id="node20" class="node">
<title>19</title>
<polygon fill="#3dcc76" stroke="black" points="3146.83,-199.71 2973.83,-199.71 2973.83,-121.71 3146.83,-121.71 3146.83,-199.71"/>
<text text-anchor="start" x="3011.83" y="-185.51" font-family="Helvetica,sans-Serif" font-weight="bold" font-size="14.00"> Class=bad </text>
<text text-anchor="start" x="3103.83" y="-185.51" font-family="Helvetica,sans-Serif" font-size="14.00"> </text>
<text text-anchor="start" x="2981.83" y="-171.51" font-family="Helvetica,sans-Serif" font-size="14.00"> error: 1.000, n=1000 </text>
<text text-anchor="start" x="3005.33" y="-157.51" font-family="Helvetica,sans-Serif" font-size="14.00"> p: (0.51, 0.49) </text>
<text text-anchor="start" x="3041.83" y="-143.51" font-family="Helvetica,sans-Serif" font-size="14.00">&#45;&#45;&#45;&#45;&#45;&#45;&#45;</text>
<text text-anchor="start" x="3028.33" y="-129.51" font-family="Helvetica,sans-Serif" font-weight="bold" font-size="14.00">purpose</text>
</g>
<!-- 17&#45;&gt;19 -->
<g id="edge19" class="edge">
<title>17:s&#45;&gt;19:n</title>
<path fill="none" stroke="black" d="M2779.33,-250.71C2779.33,-250.71 3000.27,-210.61 3050.33,-201.53"/>
<polygon fill="black" stroke="black" points="3051.12,-204.94 3060.33,-199.71 3049.87,-198.05 3051.12,-204.94"/>
<text text-anchor="middle" x="3059.33" y="-221.51" font-family="Helvetica,sans-Serif" font-size="14.00">existing paid</text>
</g>
<!-- 7 -->
<g id="node12" class="node">
<title>7</title>
<ellipse fill="#4485e5" stroke="black" cx="725.33" cy="-35.36" rx="122.16" ry="35.21"/>
<text text-anchor="start" x="671.83" y="-46.16" font-family="Helvetica,sans-Serif" font-weight="bold" font-size="14.00"> Class=good </text>
<text text-anchor="start" x="773.83" y="-46.16" font-family="Helvetica,sans-Serif" font-size="14.00"> </text>
<text text-anchor="start" x="646.83" y="-32.16" font-family="Helvetica,sans-Serif" font-size="14.00"> error: 0.426, n=1000 </text>
<text text-anchor="start" x="670.33" y="-18.16" font-family="Helvetica,sans-Serif" font-size="14.00"> p: (0.09, 0.91) </text>
</g>
<!-- 6&#45;&gt;7 -->
<g id="edge11" class="edge">
<title>6:s&#45;&gt;7:n</title>
<path fill="none" stroke="black" d="M725.33,-121.71C725.33,-121.71 725.33,-95.93 725.33,-81.03"/>
<polygon fill="black" stroke="black" points="728.83,-80.71 725.33,-70.71 721.83,-80.71 728.83,-80.71"/>
<text text-anchor="middle" x="742.83" y="-92.51" font-family="Helvetica,sans-Serif" font-size="14.00">none</text>
</g>
<!-- 10 -->
<g id="node13" class="node">
<title>10</title>
<ellipse fill="#4485e5" stroke="black" cx="1297.33" cy="-35.36" rx="122.16" ry="35.21"/>
<text text-anchor="start" x="1243.83" y="-46.16" font-family="Helvetica,sans-Serif" font-weight="bold" font-size="14.00"> Class=good </text>
<text text-anchor="start" x="1345.83" y="-46.16" font-family="Helvetica,sans-Serif" font-size="14.00"> </text>
<text text-anchor="start" x="1218.83" y="-32.16" font-family="Helvetica,sans-Serif" font-size="14.00"> error: 0.000, n=1000 </text>
<text text-anchor="start" x="1242.33" y="-18.16" font-family="Helvetica,sans-Serif" font-size="14.00"> p: (0.00, 1.00) </text>
</g>
<!-- 9&#45;&gt;10 -->
<g id="edge12" class="edge">
<title>9:s&#45;&gt;10:n</title>
<path fill="none" stroke="black" d="M1297.33,-121.71C1297.33,-121.71 1297.33,-95.93 1297.33,-81.03"/>
<polygon fill="black" stroke="black" points="1300.83,-80.71 1297.33,-70.71 1293.83,-80.71 1300.83,-80.71"/>
<text text-anchor="middle" x="1314.83" y="-92.51" font-family="Helvetica,sans-Serif" font-size="14.00">none</text>
</g>
<!-- 14 -->
<g id="node18" class="node">
<title>14</title>
<ellipse fill="#4485e5" stroke="black" cx="1864.33" cy="-35.36" rx="122.16" ry="35.21"/>
<text text-anchor="start" x="1815.83" y="-46.16" font-family="Helvetica,sans-Serif" font-weight="bold" font-size="14.00"> Class=bad </text>
<text text-anchor="start" x="1907.83" y="-46.16" font-family="Helvetica,sans-Serif" font-size="14.00"> </text>
<text text-anchor="start" x="1785.83" y="-32.16" font-family="Helvetica,sans-Serif" font-size="14.00"> error: 0.999, n=1000 </text>
<text text-anchor="start" x="1809.33" y="-18.16" font-family="Helvetica,sans-Serif" font-size="14.00"> p: (0.52, 0.48) </text>
</g>
<!-- 13&#45;&gt;14 -->
<g id="edge17" class="edge">
<title>13:s&#45;&gt;14:n</title>
<path fill="none" stroke="black" d="M1864.33,-121.71C1864.33,-121.71 1864.33,-95.93 1864.33,-81.03"/>
<polygon fill="black" stroke="black" points="1867.83,-80.71 1864.33,-70.71 1860.83,-80.71 1867.83,-80.71"/>
<text text-anchor="middle" x="1884.33" y="-92.51" font-family="Helvetica,sans-Serif" font-size="14.00">&lt;100</text>
</g>
<!-- 20 -->
<g id="node21" class="node">
<title>20</title>
<ellipse fill="#4485e5" stroke="black" cx="2743.33" cy="-35.36" rx="122.16" ry="35.21"/>
<text text-anchor="start" x="2689.83" y="-46.16" font-family="Helvetica,sans-Serif" font-weight="bold" font-size="14.00"> Class=good </text>
<text text-anchor="start" x="2791.83" y="-46.16" font-family="Helvetica,sans-Serif" font-size="14.00"> </text>
<text text-anchor="start" x="2664.83" y="-32.16" font-family="Helvetica,sans-Serif" font-size="14.00"> error: 0.956, n=1000 </text>
<text text-anchor="start" x="2688.33" y="-18.16" font-family="Helvetica,sans-Serif" font-size="14.00"> p: (0.38, 0.62) </text>
</g>
<!-- 19&#45;&gt;20 -->
<g id="edge20" class="edge">
<title>19:s&#45;&gt;20:n</title>
<path fill="none" stroke="black" d="M3060.33,-121.71C3060.33,-121.71 2807.78,-81.08 2753.52,-72.35"/>
<polygon fill="black" stroke="black" points="2753.76,-68.84 2743.33,-70.71 2752.65,-75.75 2753.76,-68.84"/>
<text text-anchor="middle" x="2972.33" y="-92.51" font-family="Helvetica,sans-Serif" font-size="14.00">furniture/equipment</text>
</g>
<!-- 21 -->
<g id="node22" class="node">
<title>21</title>
<ellipse fill="#4485e5" stroke="black" cx="3060.33" cy="-35.36" rx="122.16" ry="35.21"/>
<text text-anchor="start" x="3011.83" y="-46.16" font-family="Helvetica,sans-Serif" font-weight="bold" font-size="14.00"> Class=bad </text>
<text text-anchor="start" x="3103.83" y="-46.16" font-family="Helvetica,sans-Serif" font-size="14.00"> </text>
<text text-anchor="start" x="2981.83" y="-32.16" font-family="Helvetica,sans-Serif" font-size="14.00"> error: 0.940, n=1000 </text>
<text text-anchor="start" x="3005.33" y="-18.16" font-family="Helvetica,sans-Serif" font-size="14.00"> p: (0.64, 0.36) </text>
</g>
<!-- 19&#45;&gt;21 -->
<g id="edge21" class="edge">
<title>19:s&#45;&gt;21:n</title>
<path fill="none" stroke="black" d="M3060.33,-121.71C3060.33,-121.71 3060.33,-95.93 3060.33,-81.03"/>
<polygon fill="black" stroke="black" points="3063.83,-80.71 3060.33,-70.71 3056.83,-80.71 3063.83,-80.71"/>
<text text-anchor="middle" x="3087.83" y="-92.51" font-family="Helvetica,sans-Serif" font-size="14.00">new car</text>
</g>
<!-- 22 -->
<g id="node23" class="node">
<title>22</title>
<ellipse fill="#4485e5" stroke="black" cx="3377.33" cy="-35.36" rx="122.16" ry="35.21"/>
<text text-anchor="start" x="3328.83" y="-46.16" font-family="Helvetica,sans-Serif" font-weight="bold" font-size="14.00"> Class=bad </text>
<text text-anchor="start" x="3420.83" y="-46.16" font-family="Helvetica,sans-Serif" font-size="14.00"> </text>
<text text-anchor="start" x="3298.83" y="-32.16" font-family="Helvetica,sans-Serif" font-size="14.00"> error: 1.000, n=1000 </text>
<text text-anchor="start" x="3322.33" y="-18.16" font-family="Helvetica,sans-Serif" font-size="14.00"> p: (0.51, 0.49) </text>
</g>
<!-- 19&#45;&gt;22 -->
<g id="edge22" class="edge">
<title>19:s&#45;&gt;22:n</title>
<path fill="none" stroke="black" d="M3060.33,-121.71C3060.33,-121.71 3312.88,-81.08 3367.14,-72.35"/>
<polygon fill="black" stroke="black" points="3368.01,-75.75 3377.33,-70.71 3366.9,-68.84 3368.01,-75.75"/>
<text text-anchor="middle" x="3283.33" y="-92.51" font-family="Helvetica,sans-Serif" font-size="14.00">radio/tv</text>
</g>
</g>
</svg>
