<?xml version="1.0" encoding="UTF-8" standalone="no"?>
<!DOCTYPE svg PUBLIC "-//W3C//DTD SVG 1.1//EN"
 "http://www.w3.org/Graphics/SVG/1.1/DTD/svg11.dtd">
<!-- Generated by graphviz version 2.43.0 (0)
 -->
<!-- Title: Tree Pages: 1 -->
<svg width="2378pt" height="696pt"
 viewBox="0.00 0.00 2377.93 695.71" xmlns="http://www.w3.org/2000/svg" xmlns:xlink="http://www.w3.org/1999/xlink">
<g id="graph0" class="graph" transform="scale(1 1) rotate(0) translate(18 677.71)">
<title>Tree</title>
<polygon fill="white" stroke="transparent" points="-18,18 -18,-677.71 2359.93,-677.71 2359.93,18 -18,18"/>
<!-- 0 -->
<g id="node1" class="node">
<title>0</title>
<polygon fill="white" stroke="transparent" points="1339.97,-659.71 1285.97,-659.71 1285.97,-623.71 1339.97,-623.71 1339.97,-659.71"/>
<text text-anchor="middle" x="1312.97" y="-638.01" font-family="Helvetica,sans-Serif" font-size="14.00">0</text>
</g>
<!-- 1 -->
<g id="node2" class="node">
<title>1</title>
<polygon fill="#cc3d3d" stroke="black" points="1394.97,-586.71 1230.97,-586.71 1230.97,-508.71 1394.97,-508.71 1394.97,-586.71"/>
<text text-anchor="start" x="1275.97" y="-572.51" font-family="Helvetica,sans-Serif" font-weight="bold" font-size="14.00"> Class=&#45; </text>
<text text-anchor="start" x="1344.97" y="-572.51" font-family="Helvetica,sans-Serif" font-size="14.00"> </text>
<text text-anchor="start" x="1238.97" y="-558.51" font-family="Helvetica,sans-Serif" font-size="14.00"> error: 0.991, n=690 </text>
<text text-anchor="start" x="1257.97" y="-544.51" font-family="Helvetica,sans-Serif" font-size="14.00"> p: (0.44, 0.56) </text>
<text text-anchor="start" x="1307.47" y="-530.51" font-family="Helvetica,sans-Serif" font-size="14.00">&#45;&#45;</text>
<text text-anchor="start" x="1302.47" y="-516.51" font-family="Helvetica,sans-Serif" font-weight="bold" font-size="14.00">A9</text>
</g>
<!-- 0&#45;&gt;1 -->
<!-- 2 -->
<g id="node3" class="node">
<title>2</title>
<polygon fill="#e5d544" stroke="black" points="973.97,-457.71 809.97,-457.71 809.97,-379.71 973.97,-379.71 973.97,-457.71"/>
<text text-anchor="start" x="854.97" y="-443.51" font-family="Helvetica,sans-Serif" font-weight="bold" font-size="14.00"> Class=&#45; </text>
<text text-anchor="start" x="923.97" y="-443.51" font-family="Helvetica,sans-Serif" font-size="14.00"> </text>
<text text-anchor="start" x="817.97" y="-429.51" font-family="Helvetica,sans-Serif" font-size="14.00"> error: 0.366, n=690 </text>
<text text-anchor="start" x="836.97" y="-415.51" font-family="Helvetica,sans-Serif" font-size="14.00"> p: (0.07, 0.93) </text>
<text text-anchor="start" x="886.47" y="-401.51" font-family="Helvetica,sans-Serif" font-size="14.00">&#45;&#45;</text>
<text text-anchor="start" x="881.47" y="-387.51" font-family="Helvetica,sans-Serif" font-weight="bold" font-size="14.00">A6</text>
</g>
<!-- 1&#45;&gt;2 -->
<g id="edge2" class="edge">
<title>1:s&#45;&gt;2:n</title>
<path fill="none" stroke="black" d="M1312.97,-508.71C1312.97,-508.71 965.71,-466.64 901.96,-458.92"/>
<polygon fill="black" stroke="black" points="902.31,-455.44 891.97,-457.71 901.47,-462.39 902.31,-455.44"/>
<text text-anchor="middle" x="1155.97" y="-479.51" font-family="Helvetica,sans-Serif" font-size="14.00">f</text>
</g>
<!-- 14 -->
<g id="node4" class="node">
<title>14</title>
<polygon fill="#e5d544" stroke="black" points="1817.97,-457.71 1653.97,-457.71 1653.97,-379.71 1817.97,-379.71 1817.97,-457.71"/>
<text text-anchor="start" x="1695.97" y="-443.51" font-family="Helvetica,sans-Serif" font-weight="bold" font-size="14.00"> Class=+ </text>
<text text-anchor="start" x="1770.97" y="-443.51" font-family="Helvetica,sans-Serif" font-size="14.00"> </text>
<text text-anchor="start" x="1661.97" y="-429.51" font-family="Helvetica,sans-Serif" font-size="14.00"> error: 0.748, n=690 </text>
<text text-anchor="start" x="1680.97" y="-415.51" font-family="Helvetica,sans-Serif" font-size="14.00"> p: (0.79, 0.21) </text>
<text text-anchor="start" x="1727.97" y="-401.51" font-family="Helvetica,sans-Serif" font-size="14.00">&#45;&#45;&#45;</text>
<text text-anchor="start" x="1720.47" y="-387.51" font-family="Helvetica,sans-Serif" font-weight="bold" font-size="14.00">A10</text>
</g>
<!-- 1&#45;&gt;14 -->
<g id="edge3" class="edge">
<title>1:s&#45;&gt;14:n</title>
<path fill="none" stroke="black" d="M1312.97,-508.71C1312.97,-508.71 1661.87,-466.64 1725.93,-458.92"/>
<polygon fill="black" stroke="black" points="1726.46,-462.38 1735.97,-457.71 1725.62,-455.43 1726.46,-462.38"/>
<text text-anchor="middle" x="1577.97" y="-479.51" font-family="Helvetica,sans-Serif" font-size="14.00">t</text>
</g>
<!-- 3 -->
<g id="node5" class="node">
<title>3</title>
<polygon fill="#59cc3d" stroke="black" points="240.97,-328.71 76.97,-328.71 76.97,-250.71 240.97,-250.71 240.97,-328.71"/>
<text text-anchor="start" x="121.97" y="-314.51" font-family="Helvetica,sans-Serif" font-weight="bold" font-size="14.00"> Class=&#45; </text>
<text text-anchor="start" x="190.97" y="-314.51" font-family="Helvetica,sans-Serif" font-size="14.00"> </text>
<text text-anchor="start" x="84.97" y="-300.51" font-family="Helvetica,sans-Serif" font-size="14.00"> error: 0.391, n=690 </text>
<text text-anchor="start" x="103.97" y="-286.51" font-family="Helvetica,sans-Serif" font-size="14.00"> p: (0.08, 0.92) </text>
<text text-anchor="start" x="153.47" y="-272.51" font-family="Helvetica,sans-Serif" font-size="14.00">&#45;&#45;</text>
<text text-anchor="start" x="148.47" y="-258.51" font-family="Helvetica,sans-Serif" font-weight="bold" font-size="14.00">A7</text>
</g>
<!-- 2&#45;&gt;3 -->
<g id="edge4" class="edge">
<title>2:s&#45;&gt;3:n</title>
<path fill="none" stroke="black" d="M891.97,-379.71C891.97,-379.71 257.09,-335.54 169.05,-329.41"/>
<polygon fill="black" stroke="black" points="169.18,-325.91 158.97,-328.71 168.7,-332.9 169.18,-325.91"/>
<text text-anchor="middle" x="557.97" y="-350.51" font-family="Helvetica,sans-Serif" font-size="14.00">c</text>
</g>
<!-- 6 -->
<g id="node6" class="node">
<title>6</title>
<polygon fill="#59cc3d" stroke="black" points="484.97,-328.71 320.97,-328.71 320.97,-250.71 484.97,-250.71 484.97,-328.71"/>
<text text-anchor="start" x="365.97" y="-314.51" font-family="Helvetica,sans-Serif" font-weight="bold" font-size="14.00"> Class=&#45; </text>
<text text-anchor="start" x="434.97" y="-314.51" font-family="Helvetica,sans-Serif" font-size="14.00"> </text>
<text text-anchor="start" x="328.97" y="-300.51" font-family="Helvetica,sans-Serif" font-size="14.00"> error: 0.206, n=690 </text>
<text text-anchor="start" x="347.97" y="-286.51" font-family="Helvetica,sans-Serif" font-size="14.00"> p: (0.03, 0.97) </text>
<text text-anchor="start" x="394.97" y="-272.51" font-family="Helvetica,sans-Serif" font-size="14.00">&#45;&#45;&#45;</text>
<text text-anchor="start" x="387.47" y="-258.51" font-family="Helvetica,sans-Serif" font-weight="bold" font-size="14.00">A14</text>
</g>
<!-- 2&#45;&gt;6 -->
<g id="edge5" class="edge">
<title>2:s&#45;&gt;6:n</title>
<path fill="none" stroke="black" d="M891.97,-379.71C891.97,-379.71 483.4,-337.1 413.18,-329.78"/>
<polygon fill="black" stroke="black" points="413.27,-326.27 402.97,-328.71 412.55,-333.23 413.27,-326.27"/>
<text text-anchor="middle" x="723.47" y="-350.51" font-family="Helvetica,sans-Serif" font-size="14.00">k</text>
</g>
<!-- 8 -->
<g id="node7" class="node">
<title>8</title>
<polygon fill="#59cc3d" stroke="black" points="737.97,-328.71 573.97,-328.71 573.97,-250.71 737.97,-250.71 737.97,-328.71"/>
<text text-anchor="start" x="618.97" y="-314.51" font-family="Helvetica,sans-Serif" font-weight="bold" font-size="14.00"> Class=&#45; </text>
<text text-anchor="start" x="687.97" y="-314.51" font-family="Helvetica,sans-Serif" font-size="14.00"> </text>
<text text-anchor="start" x="581.97" y="-300.51" font-family="Helvetica,sans-Serif" font-size="14.00"> error: 0.172, n=690 </text>
<text text-anchor="start" x="600.97" y="-286.51" font-family="Helvetica,sans-Serif" font-size="14.00"> p: (0.03, 0.97) </text>
<text text-anchor="start" x="650.47" y="-272.51" font-family="Helvetica,sans-Serif" font-size="14.00">&#45;&#45;</text>
<text text-anchor="start" x="645.47" y="-258.51" font-family="Helvetica,sans-Serif" font-weight="bold" font-size="14.00">A8</text>
</g>
<!-- 2&#45;&gt;8 -->
<g id="edge6" class="edge">
<title>2:s&#45;&gt;8:n</title>
<path fill="none" stroke="black" d="M891.97,-379.71C891.97,-379.71 710.47,-340.49 665.81,-330.84"/>
<polygon fill="black" stroke="black" points="666.48,-327.4 655.97,-328.71 665,-334.24 666.48,-327.4"/>
<text text-anchor="middle" x="804.97" y="-350.51" font-family="Helvetica,sans-Serif" font-size="14.00">i</text>
</g>
<!-- 10 -->
<g id="node8" class="node">
<title>10</title>
<polygon fill="#59cc3d" stroke="black" points="973.97,-328.71 809.97,-328.71 809.97,-250.71 973.97,-250.71 973.97,-328.71"/>
<text text-anchor="start" x="854.97" y="-314.51" font-family="Helvetica,sans-Serif" font-weight="bold" font-size="14.00"> Class=&#45; </text>
<text text-anchor="start" x="923.97" y="-314.51" font-family="Helvetica,sans-Serif" font-size="14.00"> </text>
<text text-anchor="start" x="817.97" y="-300.51" font-family="Helvetica,sans-Serif" font-size="14.00"> error: 0.165, n=690 </text>
<text text-anchor="start" x="836.97" y="-286.51" font-family="Helvetica,sans-Serif" font-size="14.00"> p: (0.02, 0.98) </text>
<text text-anchor="start" x="886.47" y="-272.51" font-family="Helvetica,sans-Serif" font-size="14.00">&#45;&#45;</text>
<text text-anchor="start" x="881.47" y="-258.51" font-family="Helvetica,sans-Serif" font-weight="bold" font-size="14.00">A4</text>
</g>
<!-- 2&#45;&gt;10 -->
<g id="edge7" class="edge">
<title>2:s&#45;&gt;10:n</title>
<path fill="none" stroke="black" d="M891.97,-379.71C891.97,-379.71 891.97,-353.93 891.97,-339.03"/>
<polygon fill="black" stroke="black" points="895.47,-338.71 891.97,-328.71 888.47,-338.71 895.47,-338.71"/>
<text text-anchor="middle" x="896.97" y="-350.51" font-family="Helvetica,sans-Serif" font-size="14.00">ff</text>
</g>
<!-- 12 -->
<g id="node9" class="node">
<title>12</title>
<ellipse fill="#59cc3d" stroke="black" cx="1161.97" cy="-289.71" rx="115.93" ry="35.21"/>
<text text-anchor="start" x="1124.97" y="-300.51" font-family="Helvetica,sans-Serif" font-weight="bold" font-size="14.00"> Class=&#45; </text>
<text text-anchor="start" x="1193.97" y="-300.51" font-family="Helvetica,sans-Serif" font-size="14.00"> </text>
<text text-anchor="start" x="1087.97" y="-286.51" font-family="Helvetica,sans-Serif" font-size="14.00"> error: 0.371, n=690 </text>
<text text-anchor="start" x="1106.97" y="-272.51" font-family="Helvetica,sans-Serif" font-size="14.00"> p: (0.07, 0.93) </text>
</g>
<!-- 2&#45;&gt;12 -->
<g id="edge8" class="edge">
<title>2:s&#45;&gt;12:n</title>
<path fill="none" stroke="black" d="M891.97,-379.71C891.97,-379.71 1103.32,-338.22 1152.04,-328.66"/>
<polygon fill="black" stroke="black" points="1152.83,-332.07 1161.97,-326.71 1151.48,-325.2 1152.83,-332.07"/>
<text text-anchor="middle" x="1065.97" y="-350.51" font-family="Helvetica,sans-Serif" font-size="14.00">w</text>
</g>
<!-- 13 -->
<g id="node10" class="node">
<title>13</title>
<ellipse fill="#59cc3d" stroke="black" cx="1465.97" cy="-289.71" rx="115.93" ry="35.21"/>
<text text-anchor="start" x="1428.97" y="-300.51" font-family="Helvetica,sans-Serif" font-weight="bold" font-size="14.00"> Class=&#45; </text>
<text text-anchor="start" x="1497.97" y="-300.51" font-family="Helvetica,sans-Serif" font-size="14.00"> </text>
<text text-anchor="start" x="1391.97" y="-286.51" font-family="Helvetica,sans-Serif" font-size="14.00"> error: 0.000, n=690 </text>
<text text-anchor="start" x="1410.97" y="-272.51" font-family="Helvetica,sans-Serif" font-size="14.00"> p: (0.00, 1.00) </text>
</g>
<!-- 2&#45;&gt;13 -->
<g id="edge9" class="edge">
<title>2:s&#45;&gt;13:n</title>
<path fill="none" stroke="black" d="M891.97,-379.71C891.97,-379.71 1379.78,-334.67 1456,-327.63"/>
<polygon fill="black" stroke="black" points="1456.33,-331.12 1465.97,-326.71 1455.69,-324.15 1456.33,-331.12"/>
<text text-anchor="middle" x="1253.47" y="-350.51" font-family="Helvetica,sans-Serif" font-size="14.00">aa</text>
</g>
<!-- 15 -->
<g id="node16" class="node">
<title>15</title>
<polygon fill="#59cc3d" stroke="black" points="1817.97,-328.71 1653.97,-328.71 1653.97,-250.71 1817.97,-250.71 1817.97,-328.71"/>
<text text-anchor="start" x="1695.97" y="-314.51" font-family="Helvetica,sans-Serif" font-weight="bold" font-size="14.00"> Class=+ </text>
<text text-anchor="start" x="1770.97" y="-314.51" font-family="Helvetica,sans-Serif" font-size="14.00"> </text>
<text text-anchor="start" x="1661.97" y="-300.51" font-family="Helvetica,sans-Serif" font-size="14.00"> error: 0.443, n=690 </text>
<text text-anchor="start" x="1680.97" y="-286.51" font-family="Helvetica,sans-Serif" font-size="14.00"> p: (0.91, 0.09) </text>
<text text-anchor="start" x="1730.47" y="-272.51" font-family="Helvetica,sans-Serif" font-size="14.00">&#45;&#45;</text>
<text text-anchor="start" x="1725.47" y="-258.51" font-family="Helvetica,sans-Serif" font-weight="bold" font-size="14.00">A6</text>
</g>
<!-- 14&#45;&gt;15 -->
<g id="edge15" class="edge">
<title>14:s&#45;&gt;15:n</title>
<path fill="none" stroke="black" d="M1735.97,-379.71C1735.97,-379.71 1735.97,-353.93 1735.97,-339.03"/>
<polygon fill="black" stroke="black" points="1739.47,-338.71 1735.97,-328.71 1732.47,-338.71 1739.47,-338.71"/>
<text text-anchor="middle" x="1738.97" y="-350.51" font-family="Helvetica,sans-Serif" font-size="14.00">t</text>
</g>
<!-- 20 -->
<g id="node17" class="node">
<title>20</title>
<polygon fill="#59cc3d" stroke="black" points="2180.97,-328.71 2016.97,-328.71 2016.97,-250.71 2180.97,-250.71 2180.97,-328.71"/>
<text text-anchor="start" x="2058.97" y="-314.51" font-family="Helvetica,sans-Serif" font-weight="bold" font-size="14.00"> Class=+ </text>
<text text-anchor="start" x="2133.97" y="-314.51" font-family="Helvetica,sans-Serif" font-size="14.00"> </text>
<text text-anchor="start" x="2024.97" y="-300.51" font-family="Helvetica,sans-Serif" font-size="14.00"> error: 0.982, n=690 </text>
<text text-anchor="start" x="2043.97" y="-286.51" font-family="Helvetica,sans-Serif" font-size="14.00"> p: (0.58, 0.42) </text>
<text text-anchor="start" x="2093.47" y="-272.51" font-family="Helvetica,sans-Serif" font-size="14.00">&#45;&#45;</text>
<text text-anchor="start" x="2088.47" y="-258.51" font-family="Helvetica,sans-Serif" font-weight="bold" font-size="14.00">A6</text>
</g>
<!-- 14&#45;&gt;20 -->
<g id="edge16" class="edge">
<title>14:s&#45;&gt;20:n</title>
<path fill="none" stroke="black" d="M1735.97,-379.71C1735.97,-379.71 2030.25,-338.36 2088.88,-330.13"/>
<polygon fill="black" stroke="black" points="2089.55,-333.57 2098.97,-328.71 2088.58,-326.64 2089.55,-333.57"/>
<text text-anchor="middle" x="1963.97" y="-350.51" font-family="Helvetica,sans-Serif" font-size="14.00">f</text>
</g>
<!-- 4 -->
<g id="node11" class="node">
<title>4</title>
<polygon fill="#44e5b5" stroke="black" points="197.97,-199.71 33.97,-199.71 33.97,-121.71 197.97,-121.71 197.97,-199.71"/>
<text text-anchor="start" x="78.97" y="-185.51" font-family="Helvetica,sans-Serif" font-weight="bold" font-size="14.00"> Class=&#45; </text>
<text text-anchor="start" x="147.97" y="-185.51" font-family="Helvetica,sans-Serif" font-size="14.00"> </text>
<text text-anchor="start" x="41.97" y="-171.51" font-family="Helvetica,sans-Serif" font-size="14.00"> error: 0.310, n=690 </text>
<text text-anchor="start" x="60.97" y="-157.51" font-family="Helvetica,sans-Serif" font-size="14.00"> p: (0.06, 0.94) </text>
<text text-anchor="start" x="110.47" y="-143.51" font-family="Helvetica,sans-Serif" font-size="14.00">&#45;&#45;</text>
<text text-anchor="start" x="105.47" y="-129.51" font-family="Helvetica,sans-Serif" font-weight="bold" font-size="14.00">A3</text>
</g>
<!-- 3&#45;&gt;4 -->
<g id="edge10" class="edge">
<title>3:s&#45;&gt;4:n</title>
<path fill="none" stroke="black" d="M158.97,-250.71C158.97,-250.71 134.78,-222.02 122.68,-207.68"/>
<polygon fill="black" stroke="black" points="125.09,-205.1 115.97,-199.71 119.74,-209.61 125.09,-205.1"/>
<text text-anchor="middle" x="147.47" y="-221.51" font-family="Helvetica,sans-Serif" font-size="14.00">v</text>
</g>
<!-- 7 -->
<g id="node13" class="node">
<title>7</title>
<ellipse fill="#44e5b5" stroke="black" cx="385.97" cy="-160.71" rx="115.93" ry="35.21"/>
<text text-anchor="start" x="348.97" y="-171.51" font-family="Helvetica,sans-Serif" font-weight="bold" font-size="14.00"> Class=&#45; </text>
<text text-anchor="start" x="417.97" y="-171.51" font-family="Helvetica,sans-Serif" font-size="14.00"> </text>
<text text-anchor="start" x="311.97" y="-157.51" font-family="Helvetica,sans-Serif" font-size="14.00"> error: 0.000, n=690 </text>
<text text-anchor="start" x="330.97" y="-143.51" font-family="Helvetica,sans-Serif" font-size="14.00"> p: (0.00, 1.00) </text>
</g>
<!-- 6&#45;&gt;7 -->
<g id="edge12" class="edge">
<title>6:s&#45;&gt;7:n</title>
<path fill="none" stroke="black" d="M402.97,-250.71C402.97,-250.71 393.99,-222.73 389.08,-207.43"/>
<polygon fill="black" stroke="black" points="392.35,-206.16 385.97,-197.71 385.69,-208.3 392.35,-206.16"/>
<text text-anchor="middle" x="410.97" y="-221.51" font-family="Helvetica,sans-Serif" font-size="14.00">&gt; 0</text>
</g>
<!-- 9 -->
<g id="node14" class="node">
<title>9</title>
<ellipse fill="#44e5b5" stroke="black" cx="689.97" cy="-160.71" rx="115.93" ry="35.21"/>
<text text-anchor="start" x="652.97" y="-171.51" font-family="Helvetica,sans-Serif" font-weight="bold" font-size="14.00"> Class=&#45; </text>
<text text-anchor="start" x="721.97" y="-171.51" font-family="Helvetica,sans-Serif" font-size="14.00"> </text>
<text text-anchor="start" x="615.97" y="-157.51" font-family="Helvetica,sans-Serif" font-size="14.00"> error: 0.000, n=690 </text>
<text text-anchor="start" x="634.97" y="-143.51" font-family="Helvetica,sans-Serif" font-size="14.00"> p: (0.00, 1.00) </text>
</g>
<!-- 8&#45;&gt;9 -->
<g id="edge13" class="edge">
<title>8:s&#45;&gt;9:n</title>
<path fill="none" stroke="black" d="M655.97,-250.71C655.97,-250.71 674.69,-221.52 684.35,-206.46"/>
<polygon fill="black" stroke="black" points="687.51,-208.02 689.97,-197.71 681.62,-204.24 687.51,-208.02"/>
<text text-anchor="middle" x="703.97" y="-221.51" font-family="Helvetica,sans-Serif" font-size="14.00">&lt;= 2.5</text>
</g>
<!-- 11 -->
<g id="node15" class="node">
<title>11</title>
<ellipse fill="#44e5b5" stroke="black" cx="993.97" cy="-160.71" rx="115.93" ry="35.21"/>
<text text-anchor="start" x="956.97" y="-171.51" font-family="Helvetica,sans-Serif" font-weight="bold" font-size="14.00"> Class=&#45; </text>
<text text-anchor="start" x="1025.97" y="-171.51" font-family="Helvetica,sans-Serif" font-size="14.00"> </text>
<text text-anchor="start" x="919.97" y="-157.51" font-family="Helvetica,sans-Serif" font-size="14.00"> error: 0.000, n=690 </text>
<text text-anchor="start" x="938.97" y="-143.51" font-family="Helvetica,sans-Serif" font-size="14.00"> p: (0.00, 1.00) </text>
</g>
<!-- 10&#45;&gt;11 -->
<g id="edge14" class="edge">
<title>10:s&#45;&gt;11:n</title>
<path fill="none" stroke="black" d="M891.97,-250.71C891.97,-250.71 959.95,-215.39 984.91,-202.41"/>
<polygon fill="black" stroke="black" points="986.71,-205.43 993.97,-197.71 983.48,-199.22 986.71,-205.43"/>
<text text-anchor="middle" x="960.97" y="-221.51" font-family="Helvetica,sans-Serif" font-size="14.00">u</text>
</g>
<!-- 5 -->
<g id="node12" class="node">
<title>5</title>
<ellipse fill="#3d76cc" stroke="black" cx="115.97" cy="-35.36" rx="115.93" ry="35.21"/>
<text text-anchor="start" x="78.97" y="-46.16" font-family="Helvetica,sans-Serif" font-weight="bold" font-size="14.00"> Class=&#45; </text>
<text text-anchor="start" x="147.97" y="-46.16" font-family="Helvetica,sans-Serif" font-size="14.00"> </text>
<text text-anchor="start" x="41.97" y="-32.16" font-family="Helvetica,sans-Serif" font-size="14.00"> error: 0.000, n=690 </text>
<text text-anchor="start" x="60.97" y="-18.16" font-family="Helvetica,sans-Serif" font-size="14.00"> p: (0.00, 1.00) </text>
</g>
<!-- 4&#45;&gt;5 -->
<g id="edge11" class="edge">
<title>4:s&#45;&gt;5:n</title>
<path fill="none" stroke="black" d="M115.97,-121.71C115.97,-121.71 115.97,-95.93 115.97,-81.03"/>
<polygon fill="black" stroke="black" points="119.47,-80.71 115.97,-70.71 112.47,-80.71 119.47,-80.71"/>
<text text-anchor="middle" x="144.97" y="-92.51" font-family="Helvetica,sans-Serif" font-size="14.00">&gt; 0.705</text>
</g>
<!-- 16 -->
<g id="node18" class="node">
<title>16</title>
<ellipse fill="#44e5b5" stroke="black" cx="1381.97" cy="-160.71" rx="115.93" ry="35.21"/>
<text text-anchor="start" x="1341.97" y="-171.51" font-family="Helvetica,sans-Serif" font-weight="bold" font-size="14.00"> Class=+ </text>
<text text-anchor="start" x="1416.97" y="-171.51" font-family="Helvetica,sans-Serif" font-size="14.00"> </text>
<text text-anchor="start" x="1307.97" y="-157.51" font-family="Helvetica,sans-Serif" font-size="14.00"> error: 0.641, n=690 </text>
<text text-anchor="start" x="1326.97" y="-143.51" font-family="Helvetica,sans-Serif" font-size="14.00"> p: (0.84, 0.16) </text>
</g>
<!-- 15&#45;&gt;16 -->
<g id="edge17" class="edge">
<title>15:s&#45;&gt;16:n</title>
<path fill="none" stroke="black" d="M1735.97,-250.71C1735.97,-250.71 1450.22,-207.93 1392.18,-199.24"/>
<polygon fill="black" stroke="black" points="1392.37,-195.73 1381.97,-197.71 1391.34,-202.65 1392.37,-195.73"/>
<text text-anchor="middle" x="1616.97" y="-221.51" font-family="Helvetica,sans-Serif" font-size="14.00">q</text>
</g>
<!-- 17 -->
<g id="node19" class="node">
<title>17</title>
<polygon fill="#44e5b5" stroke="black" points="1733.97,-199.71 1569.97,-199.71 1569.97,-121.71 1733.97,-121.71 1733.97,-199.71"/>
<text text-anchor="start" x="1611.97" y="-185.51" font-family="Helvetica,sans-Serif" font-weight="bold" font-size="14.00"> Class=+ </text>
<text text-anchor="start" x="1686.97" y="-185.51" font-family="Helvetica,sans-Serif" font-size="14.00"> </text>
<text text-anchor="start" x="1577.97" y="-171.51" font-family="Helvetica,sans-Serif" font-size="14.00"> error: 0.342, n=690 </text>
<text text-anchor="start" x="1596.97" y="-157.51" font-family="Helvetica,sans-Serif" font-size="14.00"> p: (0.94, 0.06) </text>
<text text-anchor="start" x="1646.47" y="-143.51" font-family="Helvetica,sans-Serif" font-size="14.00">&#45;&#45;</text>
<text text-anchor="start" x="1641.47" y="-129.51" font-family="Helvetica,sans-Serif" font-weight="bold" font-size="14.00">A8</text>
</g>
<!-- 15&#45;&gt;17 -->
<g id="edge18" class="edge">
<title>15:s&#45;&gt;17:n</title>
<path fill="none" stroke="black" d="M1735.97,-250.71C1735.97,-250.71 1682.1,-218.01 1660.64,-204.98"/>
<polygon fill="black" stroke="black" points="1662.33,-201.91 1651.97,-199.71 1658.7,-207.89 1662.33,-201.91"/>
<text text-anchor="middle" x="1707.97" y="-221.51" font-family="Helvetica,sans-Serif" font-size="14.00">c</text>
</g>
<!-- 19 -->
<g id="node20" class="node">
<title>19</title>
<ellipse fill="#44e5b5" stroke="black" cx="1921.97" cy="-160.71" rx="115.93" ry="35.21"/>
<text text-anchor="start" x="1881.97" y="-171.51" font-family="Helvetica,sans-Serif" font-weight="bold" font-size="14.00"> Class=+ </text>
<text text-anchor="start" x="1956.97" y="-171.51" font-family="Helvetica,sans-Serif" font-size="14.00"> </text>
<text text-anchor="start" x="1847.97" y="-157.51" font-family="Helvetica,sans-Serif" font-size="14.00"> error: 0.000, n=690 </text>
<text text-anchor="start" x="1866.97" y="-143.51" font-family="Helvetica,sans-Serif" font-size="14.00"> p: (1.00, 0.00) </text>
</g>
<!-- 15&#45;&gt;19 -->
<g id="edge19" class="edge">
<title>15:s&#45;&gt;19:n</title>
<path fill="none" stroke="black" d="M1735.97,-250.71C1735.97,-250.71 1873.96,-211.39 1912.23,-200.49"/>
<polygon fill="black" stroke="black" points="1913.31,-203.82 1921.97,-197.71 1911.39,-197.09 1913.31,-203.82"/>
<text text-anchor="middle" x="1856.47" y="-221.51" font-family="Helvetica,sans-Serif" font-size="14.00">x</text>
</g>
<!-- 21 -->
<g id="node22" class="node">
<title>21</title>
<ellipse fill="#44e5b5" stroke="black" cx="2225.97" cy="-160.71" rx="115.93" ry="35.21"/>
<text text-anchor="start" x="2185.97" y="-171.51" font-family="Helvetica,sans-Serif" font-weight="bold" font-size="14.00"> Class=+ </text>
<text text-anchor="start" x="2260.97" y="-171.51" font-family="Helvetica,sans-Serif" font-size="14.00"> </text>
<text text-anchor="start" x="2151.97" y="-157.51" font-family="Helvetica,sans-Serif" font-size="14.00"> error: 0.999, n=690 </text>
<text text-anchor="start" x="2170.97" y="-143.51" font-family="Helvetica,sans-Serif" font-size="14.00"> p: (0.52, 0.48) </text>
</g>
<!-- 20&#45;&gt;21 -->
<g id="edge21" class="edge">
<title>20:s&#45;&gt;21:n</title>
<path fill="none" stroke="black" d="M2098.97,-250.71C2098.97,-250.71 2186.88,-214.02 2216.42,-201.69"/>
<polygon fill="black" stroke="black" points="2218.08,-204.79 2225.97,-197.71 2215.39,-198.33 2218.08,-204.79"/>
<text text-anchor="middle" x="2181.97" y="-221.51" font-family="Helvetica,sans-Serif" font-size="14.00">c</text>
</g>
<!-- 18 -->
<g id="node21" class="node">
<title>18</title>
<ellipse fill="#3d76cc" stroke="black" cx="1651.97" cy="-35.36" rx="115.93" ry="35.21"/>
<text text-anchor="start" x="1611.97" y="-46.16" font-family="Helvetica,sans-Serif" font-weight="bold" font-size="14.00"> Class=+ </text>
<text text-anchor="start" x="1686.97" y="-46.16" font-family="Helvetica,sans-Serif" font-size="14.00"> </text>
<text text-anchor="start" x="1577.97" y="-32.16" font-family="Helvetica,sans-Serif" font-size="14.00"> error: 0.000, n=690 </text>
<text text-anchor="start" x="1596.97" y="-18.16" font-family="Helvetica,sans-Serif" font-size="14.00"> p: (1.00, 0.00) </text>
</g>
<!-- 17&#45;&gt;18 -->
<g id="edge20" class="edge">
<title>17:s&#45;&gt;18:n</title>
<path fill="none" stroke="black" d="M1651.97,-121.71C1651.97,-121.71 1651.97,-95.93 1651.97,-81.03"/>
<polygon fill="black" stroke="black" points="1655.47,-80.71 1651.97,-70.71 1648.47,-80.71 1655.47,-80.71"/>
<text text-anchor="middle" x="1676.47" y="-92.51" font-family="Helvetica,sans-Serif" font-size="14.00">&gt; 1.46</text>
</g>
</g>
</svg>
