<?xml version="1.0" encoding="UTF-8" standalone="no"?>
<!DOCTYPE svg PUBLIC "-//W3C//DTD SVG 1.1//EN"
 "http://www.w3.org/Graphics/SVG/1.1/DTD/svg11.dtd">
<!-- Generated by graphviz version 2.43.0 (0)
 -->
<!-- Title: Tree Pages: 1 -->
<svg width="2209pt" height="438pt"
 viewBox="0.00 0.00 2208.93 437.71" xmlns="http://www.w3.org/2000/svg" xmlns:xlink="http://www.w3.org/1999/xlink">
<g id="graph0" class="graph" transform="scale(1 1) rotate(0) translate(18 419.71)">
<title>Tree</title>
<polygon fill="white" stroke="transparent" points="-18,18 -18,-419.71 2190.93,-419.71 2190.93,18 -18,18"/>
<!-- 0 -->
<g id="node1" class="node">
<title>0</title>
<polygon fill="white" stroke="transparent" points="1121.97,-401.71 1067.97,-401.71 1067.97,-365.71 1121.97,-365.71 1121.97,-401.71"/>
<text text-anchor="middle" x="1094.97" y="-380.01" font-family="Helvetica,sans-Serif" font-size="14.00">0</text>
</g>
<!-- 1 -->
<g id="node2" class="node">
<title>1</title>
<polygon fill="#cc3d3d" stroke="black" points="1176.97,-328.71 1012.97,-328.71 1012.97,-250.71 1176.97,-250.71 1176.97,-328.71"/>
<text text-anchor="start" x="1031.97" y="-314.51" font-family="Helvetica,sans-Serif" font-weight="bold" font-size="14.00"> Class=noband </text>
<text text-anchor="start" x="1152.97" y="-314.51" font-family="Helvetica,sans-Serif" font-size="14.00"> </text>
<text text-anchor="start" x="1020.97" y="-300.51" font-family="Helvetica,sans-Serif" font-size="14.00"> error: 0.982, n=540 </text>
<text text-anchor="start" x="1039.97" y="-286.51" font-family="Helvetica,sans-Serif" font-size="14.00"> p: (0.42, 0.58) </text>
<text text-anchor="start" x="1073.47" y="-272.51" font-family="Helvetica,sans-Serif" font-size="14.00">&#45;&#45;&#45;&#45;&#45;&#45;&#45;&#45;</text>
<text text-anchor="start" x="1057.97" y="-258.51" font-family="Helvetica,sans-Serif" font-weight="bold" font-size="14.00">customer</text>
</g>
<!-- 0&#45;&gt;1 -->
<!-- 2 -->
<g id="node3" class="node">
<title>2</title>
<ellipse fill="#64e544" stroke="black" cx="115.97" cy="-160.71" rx="115.93" ry="35.21"/>
<text text-anchor="start" x="52.97" y="-171.51" font-family="Helvetica,sans-Serif" font-weight="bold" font-size="14.00"> Class=noband </text>
<text text-anchor="start" x="173.97" y="-171.51" font-family="Helvetica,sans-Serif" font-size="14.00"> </text>
<text text-anchor="start" x="41.97" y="-157.51" font-family="Helvetica,sans-Serif" font-size="14.00"> error: 0.931, n=540 </text>
<text text-anchor="start" x="60.97" y="-143.51" font-family="Helvetica,sans-Serif" font-size="14.00"> p: (0.35, 0.65) </text>
</g>
<!-- 1&#45;&gt;2 -->
<g id="edge2" class="edge">
<title>1:s&#45;&gt;2:n</title>
<path fill="none" stroke="black" d="M1094.97,-250.71C1094.97,-250.71 229.13,-203.84 125.97,-198.25"/>
<polygon fill="black" stroke="black" points="126.14,-194.76 115.97,-197.71 125.76,-201.75 126.14,-194.76"/>
<text text-anchor="middle" x="585.97" y="-221.51" font-family="Helvetica,sans-Serif" font-size="14.00">toysrus</text>
</g>
<!-- 3 -->
<g id="node4" class="node">
<title>3</title>
<ellipse fill="#64e544" stroke="black" cx="419.97" cy="-160.71" rx="115.93" ry="35.21"/>
<text text-anchor="start" x="356.97" y="-171.51" font-family="Helvetica,sans-Serif" font-weight="bold" font-size="14.00"> Class=noband </text>
<text text-anchor="start" x="477.97" y="-171.51" font-family="Helvetica,sans-Serif" font-size="14.00"> </text>
<text text-anchor="start" x="345.97" y="-157.51" font-family="Helvetica,sans-Serif" font-size="14.00"> error: 0.871, n=540 </text>
<text text-anchor="start" x="364.97" y="-143.51" font-family="Helvetica,sans-Serif" font-size="14.00"> p: (0.29, 0.71) </text>
</g>
<!-- 1&#45;&gt;3 -->
<g id="edge3" class="edge">
<title>1:s&#45;&gt;3:n</title>
<path fill="none" stroke="black" d="M1094.97,-250.71C1094.97,-250.71 514,-205.09 430.03,-198.5"/>
<polygon fill="black" stroke="black" points="430.21,-195 419.97,-197.71 429.66,-201.98 430.21,-195"/>
<text text-anchor="middle" x="794.97" y="-221.51" font-family="Helvetica,sans-Serif" font-size="14.00">ames</text>
</g>
<!-- 4 -->
<g id="node5" class="node">
<title>4</title>
<polygon fill="#64e544" stroke="black" points="771.97,-199.71 607.97,-199.71 607.97,-121.71 771.97,-121.71 771.97,-199.71"/>
<text text-anchor="start" x="626.97" y="-185.51" font-family="Helvetica,sans-Serif" font-weight="bold" font-size="14.00"> Class=noband </text>
<text text-anchor="start" x="747.97" y="-185.51" font-family="Helvetica,sans-Serif" font-size="14.00"> </text>
<text text-anchor="start" x="615.97" y="-171.51" font-family="Helvetica,sans-Serif" font-size="14.00"> error: 0.926, n=540 </text>
<text text-anchor="start" x="634.97" y="-157.51" font-family="Helvetica,sans-Serif" font-size="14.00"> p: (0.34, 0.66) </text>
<text text-anchor="start" x="660.97" y="-143.51" font-family="Helvetica,sans-Serif" font-size="14.00">&#45;&#45;&#45;&#45;&#45;&#45;&#45;&#45;&#45;&#45;&#45;</text>
<text text-anchor="start" x="644.97" y="-129.51" font-family="Helvetica,sans-Serif" font-weight="bold" font-size="14.00">solvent_pct</text>
</g>
<!-- 1&#45;&gt;4 -->
<g id="edge4" class="edge">
<title>1:s&#45;&gt;4:n</title>
<path fill="none" stroke="black" d="M1094.97,-250.71C1094.97,-250.71 762.34,-208.82 699.98,-200.97"/>
<polygon fill="black" stroke="black" points="700.32,-197.49 689.97,-199.71 699.45,-204.43 700.32,-197.49"/>
<text text-anchor="middle" x="962.97" y="-221.51" font-family="Helvetica,sans-Serif" font-size="14.00">target</text>
</g>
<!-- 6 -->
<g id="node6" class="node">
<title>6</title>
<ellipse fill="#64e544" stroke="black" cx="959.97" cy="-160.71" rx="115.93" ry="35.21"/>
<text text-anchor="start" x="896.97" y="-171.51" font-family="Helvetica,sans-Serif" font-weight="bold" font-size="14.00"> Class=noband </text>
<text text-anchor="start" x="1017.97" y="-171.51" font-family="Helvetica,sans-Serif" font-size="14.00"> </text>
<text text-anchor="start" x="885.97" y="-157.51" font-family="Helvetica,sans-Serif" font-size="14.00"> error: 0.746, n=540 </text>
<text text-anchor="start" x="904.97" y="-143.51" font-family="Helvetica,sans-Serif" font-size="14.00"> p: (0.21, 0.79) </text>
</g>
<!-- 1&#45;&gt;6 -->
<g id="edge5" class="edge">
<title>1:s&#45;&gt;6:n</title>
<path fill="none" stroke="black" d="M1094.97,-250.71C1094.97,-250.71 1000.63,-213.67 969.67,-201.52"/>
<polygon fill="black" stroke="black" points="970.55,-198.11 959.97,-197.71 967.99,-204.62 970.55,-198.11"/>
<text text-anchor="middle" x="1051.97" y="-221.51" font-family="Helvetica,sans-Serif" font-size="14.00">wards</text>
</g>
<!-- 7 -->
<g id="node7" class="node">
<title>7</title>
<polygon fill="#64e544" stroke="black" points="1311.97,-199.71 1147.97,-199.71 1147.97,-121.71 1311.97,-121.71 1311.97,-199.71"/>
<text text-anchor="start" x="1166.97" y="-185.51" font-family="Helvetica,sans-Serif" font-weight="bold" font-size="14.00"> Class=noband </text>
<text text-anchor="start" x="1287.97" y="-185.51" font-family="Helvetica,sans-Serif" font-size="14.00"> </text>
<text text-anchor="start" x="1155.97" y="-171.51" font-family="Helvetica,sans-Serif" font-size="14.00"> error: 0.575, n=540 </text>
<text text-anchor="start" x="1174.97" y="-157.51" font-family="Helvetica,sans-Serif" font-size="14.00"> p: (0.14, 0.86) </text>
<text text-anchor="start" x="1187.47" y="-143.51" font-family="Helvetica,sans-Serif" font-size="14.00">&#45;&#45;&#45;&#45;&#45;&#45;&#45;&#45;&#45;&#45;&#45;&#45;&#45;&#45;&#45;&#45;</text>
<text text-anchor="start" x="1164.97" y="-129.51" font-family="Helvetica,sans-Serif" font-weight="bold" font-size="14.00">proof_on_ctd_ink</text>
</g>
<!-- 1&#45;&gt;7 -->
<g id="edge6" class="edge">
<title>1:s&#45;&gt;7:n</title>
<path fill="none" stroke="black" d="M1094.97,-250.71C1094.97,-250.71 1189.3,-215.07 1220.26,-203.38"/>
<polygon fill="black" stroke="black" points="1221.85,-206.52 1229.97,-199.71 1219.37,-199.97 1221.85,-206.52"/>
<text text-anchor="middle" x="1197.47" y="-221.51" font-family="Helvetica,sans-Serif" font-size="14.00">roses</text>
</g>
<!-- 9 -->
<g id="node8" class="node">
<title>9</title>
<ellipse fill="#64e544" stroke="black" cx="1499.97" cy="-160.71" rx="115.93" ry="35.21"/>
<text text-anchor="start" x="1446.47" y="-171.51" font-family="Helvetica,sans-Serif" font-weight="bold" font-size="14.00"> Class=band </text>
<text text-anchor="start" x="1548.47" y="-171.51" font-family="Helvetica,sans-Serif" font-size="14.00"> </text>
<text text-anchor="start" x="1425.97" y="-157.51" font-family="Helvetica,sans-Serif" font-size="14.00"> error: 0.987, n=540 </text>
<text text-anchor="start" x="1444.97" y="-143.51" font-family="Helvetica,sans-Serif" font-size="14.00"> p: (0.57, 0.43) </text>
</g>
<!-- 1&#45;&gt;9 -->
<g id="edge7" class="edge">
<title>1:s&#45;&gt;9:n</title>
<path fill="none" stroke="black" d="M1094.97,-250.71C1094.97,-250.71 1427.59,-207.18 1489.95,-199.02"/>
<polygon fill="black" stroke="black" points="1490.5,-202.48 1499.97,-197.71 1489.6,-195.54 1490.5,-202.48"/>
<text text-anchor="middle" x="1364.97" y="-221.51" font-family="Helvetica,sans-Serif" font-size="14.00">kmart</text>
</g>
<!-- 10 -->
<g id="node9" class="node">
<title>10</title>
<polygon fill="#64e544" stroke="black" points="1851.97,-199.71 1687.97,-199.71 1687.97,-121.71 1851.97,-121.71 1851.97,-199.71"/>
<text text-anchor="start" x="1706.97" y="-185.51" font-family="Helvetica,sans-Serif" font-weight="bold" font-size="14.00"> Class=noband </text>
<text text-anchor="start" x="1827.97" y="-185.51" font-family="Helvetica,sans-Serif" font-size="14.00"> </text>
<text text-anchor="start" x="1695.97" y="-171.51" font-family="Helvetica,sans-Serif" font-size="14.00"> error: 0.954, n=540 </text>
<text text-anchor="start" x="1714.97" y="-157.51" font-family="Helvetica,sans-Serif" font-size="14.00"> p: (0.38, 0.62) </text>
<text text-anchor="start" x="1743.47" y="-143.51" font-family="Helvetica,sans-Serif" font-size="14.00">&#45;&#45;&#45;&#45;&#45;&#45;&#45;&#45;&#45;&#45;</text>
<text text-anchor="start" x="1724.47" y="-129.51" font-family="Helvetica,sans-Serif" font-weight="bold" font-size="14.00">job_number</text>
</g>
<!-- 1&#45;&gt;10 -->
<g id="edge8" class="edge">
<title>1:s&#45;&gt;10:n</title>
<path fill="none" stroke="black" d="M1094.97,-250.71C1094.97,-250.71 1675.93,-206.82 1759.9,-200.47"/>
<polygon fill="black" stroke="black" points="1760.26,-203.95 1769.97,-199.71 1759.73,-196.97 1760.26,-203.95"/>
<text text-anchor="middle" x="1594.97" y="-221.51" font-family="Helvetica,sans-Serif" font-size="14.00">modmat</text>
</g>
<!-- 12 -->
<g id="node10" class="node">
<title>12</title>
<polygon fill="#64e544" stroke="black" points="2121.97,-199.71 1957.97,-199.71 1957.97,-121.71 2121.97,-121.71 2121.97,-199.71"/>
<text text-anchor="start" x="1986.47" y="-185.51" font-family="Helvetica,sans-Serif" font-weight="bold" font-size="14.00"> Class=band </text>
<text text-anchor="start" x="2088.47" y="-185.51" font-family="Helvetica,sans-Serif" font-size="14.00"> </text>
<text text-anchor="start" x="1965.97" y="-171.51" font-family="Helvetica,sans-Serif" font-size="14.00"> error: 0.992, n=540 </text>
<text text-anchor="start" x="1984.97" y="-157.51" font-family="Helvetica,sans-Serif" font-size="14.00"> p: (0.55, 0.45) </text>
<text text-anchor="start" x="2002.97" y="-143.51" font-family="Helvetica,sans-Serif" font-size="14.00">&#45;&#45;&#45;&#45;&#45;&#45;&#45;&#45;&#45;&#45;&#45;&#45;&#45;&#45;</text>
<text text-anchor="start" x="1979.97" y="-129.51" font-family="Helvetica,sans-Serif" font-weight="bold" font-size="14.00">blade_pressure</text>
</g>
<!-- 1&#45;&gt;12 -->
<g id="edge9" class="edge">
<title>1:s&#45;&gt;12:n</title>
<path fill="none" stroke="black" d="M1094.97,-250.71C1094.97,-250.71 1927.26,-205.79 2029.67,-200.27"/>
<polygon fill="black" stroke="black" points="2030.17,-203.74 2039.97,-199.71 2029.79,-196.75 2030.17,-203.74"/>
<text text-anchor="middle" x="1844.47" y="-221.51" font-family="Helvetica,sans-Serif" font-size="14.00">tvguide</text>
</g>
<!-- 5 -->
<g id="node11" class="node">
<title>5</title>
<ellipse fill="#3d76cc" stroke="black" cx="689.97" cy="-35.36" rx="115.93" ry="35.21"/>
<text text-anchor="start" x="626.97" y="-46.16" font-family="Helvetica,sans-Serif" font-weight="bold" font-size="14.00"> Class=noband </text>
<text text-anchor="start" x="747.97" y="-46.16" font-family="Helvetica,sans-Serif" font-size="14.00"> </text>
<text text-anchor="start" x="615.97" y="-32.16" font-family="Helvetica,sans-Serif" font-size="14.00"> error: 0.297, n=540 </text>
<text text-anchor="start" x="634.97" y="-18.16" font-family="Helvetica,sans-Serif" font-size="14.00"> p: (0.05, 0.95) </text>
</g>
<!-- 4&#45;&gt;5 -->
<g id="edge10" class="edge">
<title>4:s&#45;&gt;5:n</title>
<path fill="none" stroke="black" d="M689.97,-121.71C689.97,-121.71 689.97,-95.93 689.97,-81.03"/>
<polygon fill="black" stroke="black" points="693.47,-80.71 689.97,-70.71 686.47,-80.71 693.47,-80.71"/>
<text text-anchor="middle" x="707.47" y="-92.51" font-family="Helvetica,sans-Serif" font-size="14.00">&gt; 38</text>
</g>
<!-- 8 -->
<g id="node12" class="node">
<title>8</title>
<ellipse fill="#3d76cc" stroke="black" cx="1229.97" cy="-35.36" rx="115.93" ry="35.21"/>
<text text-anchor="start" x="1166.97" y="-46.16" font-family="Helvetica,sans-Serif" font-weight="bold" font-size="14.00"> Class=noband </text>
<text text-anchor="start" x="1287.97" y="-46.16" font-family="Helvetica,sans-Serif" font-size="14.00"> </text>
<text text-anchor="start" x="1155.97" y="-32.16" font-family="Helvetica,sans-Serif" font-size="14.00"> error: 0.000, n=540 </text>
<text text-anchor="start" x="1174.97" y="-18.16" font-family="Helvetica,sans-Serif" font-size="14.00"> p: (0.00, 1.00) </text>
</g>
<!-- 7&#45;&gt;8 -->
<g id="edge11" class="edge">
<title>7:s&#45;&gt;8:n</title>
<path fill="none" stroke="black" d="M1229.97,-121.71C1229.97,-121.71 1229.97,-95.93 1229.97,-81.03"/>
<polygon fill="black" stroke="black" points="1233.47,-80.71 1229.97,-70.71 1226.47,-80.71 1233.47,-80.71"/>
<text text-anchor="middle" x="1242.47" y="-92.51" font-family="Helvetica,sans-Serif" font-size="14.00">yes</text>
</g>
<!-- 11 -->
<g id="node13" class="node">
<title>11</title>
<ellipse fill="#3d76cc" stroke="black" cx="1752.97" cy="-35.36" rx="115.93" ry="35.21"/>
<text text-anchor="start" x="1689.97" y="-46.16" font-family="Helvetica,sans-Serif" font-weight="bold" font-size="14.00"> Class=noband </text>
<text text-anchor="start" x="1810.97" y="-46.16" font-family="Helvetica,sans-Serif" font-size="14.00"> </text>
<text text-anchor="start" x="1678.97" y="-32.16" font-family="Helvetica,sans-Serif" font-size="14.00"> error: 0.826, n=540 </text>
<text text-anchor="start" x="1697.97" y="-18.16" font-family="Helvetica,sans-Serif" font-size="14.00"> p: (0.26, 0.74) </text>
</g>
<!-- 10&#45;&gt;11 -->
<g id="edge12" class="edge">
<title>10:s&#45;&gt;11:n</title>
<path fill="none" stroke="black" d="M1769.97,-121.71C1769.97,-121.71 1761.18,-95.36 1756.24,-80.54"/>
<polygon fill="black" stroke="black" points="1759.45,-79.09 1752.97,-70.71 1752.81,-81.3 1759.45,-79.09"/>
<text text-anchor="middle" x="1813.47" y="-92.51" font-family="Helvetica,sans-Serif" font-size="14.00">&lt;= 4.72e+04</text>
</g>
<!-- 13 -->
<g id="node14" class="node">
<title>13</title>
<ellipse fill="#3d76cc" stroke="black" cx="2056.97" cy="-35.36" rx="115.93" ry="35.21"/>
<text text-anchor="start" x="1993.97" y="-46.16" font-family="Helvetica,sans-Serif" font-weight="bold" font-size="14.00"> Class=noband </text>
<text text-anchor="start" x="2114.97" y="-46.16" font-family="Helvetica,sans-Serif" font-size="14.00"> </text>
<text text-anchor="start" x="1982.97" y="-32.16" font-family="Helvetica,sans-Serif" font-size="14.00"> error: 0.967, n=540 </text>
<text text-anchor="start" x="2001.97" y="-18.16" font-family="Helvetica,sans-Serif" font-size="14.00"> p: (0.39, 0.61) </text>
</g>
<!-- 12&#45;&gt;13 -->
<g id="edge13" class="edge">
<title>12:s&#45;&gt;13:n</title>
<path fill="none" stroke="black" d="M2039.97,-121.71C2039.97,-121.71 2048.75,-95.36 2053.69,-80.54"/>
<polygon fill="black" stroke="black" points="2057.12,-81.3 2056.97,-70.71 2050.48,-79.09 2057.12,-81.3"/>
<text text-anchor="middle" x="2074.47" y="-92.51" font-family="Helvetica,sans-Serif" font-size="14.00">&lt;= 25</text>
</g>
</g>
</svg>
