<?xml version="1.0" encoding="UTF-8" standalone="no"?>
<!DOCTYPE svg PUBLIC "-//W3C//DTD SVG 1.1//EN"
 "http://www.w3.org/Graphics/SVG/1.1/DTD/svg11.dtd">
<!-- Generated by graphviz version 2.43.0 (0)
 -->
<!-- Title: Tree Pages: 1 -->
<svg width="2398pt" height="825pt"
 viewBox="0.00 0.00 2398.45 824.71" xmlns="http://www.w3.org/2000/svg" xmlns:xlink="http://www.w3.org/1999/xlink">
<g id="graph0" class="graph" transform="scale(1 1) rotate(0) translate(18 806.71)">
<title>Tree</title>
<polygon fill="white" stroke="transparent" points="-18,18 -18,-806.71 2380.45,-806.71 2380.45,18 -18,18"/>
<!-- 0 -->
<g id="node1" class="node">
<title>0</title>
<polygon fill="white" stroke="transparent" points="783.2,-788.71 729.2,-788.71 729.2,-752.71 783.2,-752.71 783.2,-788.71"/>
<text text-anchor="middle" x="756.2" y="-767.01" font-family="Helvetica,sans-Serif" font-size="14.00">0</text>
</g>
<!-- 1 -->
<g id="node2" class="node">
<title>1</title>
<polygon fill="#cc3d3d" stroke="black" points="861.7,-715.71 650.7,-715.71 650.7,-637.71 861.7,-637.71 861.7,-715.71"/>
<text text-anchor="start" x="658.7" y="-701.51" font-family="Helvetica,sans-Serif" font-weight="bold" font-size="14.00"> Class=tested_negative </text>
<text text-anchor="start" x="848.7" y="-701.51" font-family="Helvetica,sans-Serif" font-size="14.00"> </text>
<text text-anchor="start" x="682.2" y="-687.51" font-family="Helvetica,sans-Serif" font-size="14.00"> error: 0.933, n=768 </text>
<text text-anchor="start" x="701.2" y="-673.51" font-family="Helvetica,sans-Serif" font-size="14.00"> p: (0.65, 0.35) </text>
<text text-anchor="start" x="745.2" y="-659.51" font-family="Helvetica,sans-Serif" font-size="14.00">&#45;&#45;&#45;&#45;</text>
<text text-anchor="start" x="739.7" y="-645.51" font-family="Helvetica,sans-Serif" font-weight="bold" font-size="14.00">plas</text>
</g>
<!-- 0&#45;&gt;1 -->
<!-- 2 -->
<g id="node3" class="node">
<title>2</title>
<polygon fill="#e5b844" stroke="black" points="698.2,-586.71 494.2,-586.71 494.2,-508.71 698.2,-508.71 698.2,-586.71"/>
<text text-anchor="start" x="502.2" y="-572.51" font-family="Helvetica,sans-Serif" font-weight="bold" font-size="14.00"> Class=tested_positive </text>
<text text-anchor="start" x="685.2" y="-572.51" font-family="Helvetica,sans-Serif" font-size="14.00"> </text>
<text text-anchor="start" x="522.2" y="-558.51" font-family="Helvetica,sans-Serif" font-size="14.00"> error: 0.948, n=768 </text>
<text text-anchor="start" x="541.2" y="-544.51" font-family="Helvetica,sans-Serif" font-size="14.00"> p: (0.37, 0.63) </text>
<text text-anchor="start" x="585.2" y="-530.51" font-family="Helvetica,sans-Serif" font-size="14.00">&#45;&#45;&#45;&#45;</text>
<text text-anchor="start" x="579.7" y="-516.51" font-family="Helvetica,sans-Serif" font-weight="bold" font-size="14.00">plas</text>
</g>
<!-- 1&#45;&gt;2 -->
<g id="edge2" class="edge">
<title>1:s&#45;&gt;2:n</title>
<path fill="none" stroke="black" d="M756.2,-637.71C756.2,-637.71 640.17,-600.73 605.73,-589.75"/>
<polygon fill="black" stroke="black" points="606.79,-586.41 596.2,-586.71 604.66,-593.08 606.79,-586.41"/>
<text text-anchor="middle" x="718.2" y="-608.51" font-family="Helvetica,sans-Serif" font-size="14.00">&gt; 130</text>
</g>
<!-- 9 -->
<g id="node4" class="node">
<title>9</title>
<polygon fill="#e5b844" stroke="black" points="1023.7,-586.71 812.7,-586.71 812.7,-508.71 1023.7,-508.71 1023.7,-586.71"/>
<text text-anchor="start" x="820.7" y="-572.51" font-family="Helvetica,sans-Serif" font-weight="bold" font-size="14.00"> Class=tested_negative </text>
<text text-anchor="start" x="1010.7" y="-572.51" font-family="Helvetica,sans-Serif" font-size="14.00"> </text>
<text text-anchor="start" x="844.2" y="-558.51" font-family="Helvetica,sans-Serif" font-size="14.00"> error: 0.743, n=768 </text>
<text text-anchor="start" x="863.2" y="-544.51" font-family="Helvetica,sans-Serif" font-size="14.00"> p: (0.79, 0.21) </text>
<text text-anchor="start" x="907.2" y="-530.51" font-family="Helvetica,sans-Serif" font-size="14.00">&#45;&#45;&#45;&#45;</text>
<text text-anchor="start" x="897.7" y="-516.51" font-family="Helvetica,sans-Serif" font-weight="bold" font-size="14.00">mass</text>
</g>
<!-- 1&#45;&gt;9 -->
<g id="edge3" class="edge">
<title>1:s&#45;&gt;9:n</title>
<path fill="none" stroke="black" d="M756.2,-637.71C756.2,-637.71 873.68,-600.73 908.55,-589.75"/>
<polygon fill="black" stroke="black" points="909.71,-593.05 918.2,-586.71 907.61,-586.38 909.71,-593.05"/>
<text text-anchor="middle" x="885.2" y="-608.51" font-family="Helvetica,sans-Serif" font-size="14.00">&lt;= 130</text>
</g>
<!-- 3 -->
<g id="node5" class="node">
<title>3</title>
<polygon fill="#8dcc3d" stroke="black" points="380.2,-457.71 176.2,-457.71 176.2,-379.71 380.2,-379.71 380.2,-457.71"/>
<text text-anchor="start" x="184.2" y="-443.51" font-family="Helvetica,sans-Serif" font-weight="bold" font-size="14.00"> Class=tested_positive </text>
<text text-anchor="start" x="367.2" y="-443.51" font-family="Helvetica,sans-Serif" font-size="14.00"> </text>
<text text-anchor="start" x="204.2" y="-429.51" font-family="Helvetica,sans-Serif" font-size="14.00"> error: 0.997, n=768 </text>
<text text-anchor="start" x="223.2" y="-415.51" font-family="Helvetica,sans-Serif" font-size="14.00"> p: (0.47, 0.53) </text>
<text text-anchor="start" x="267.2" y="-401.51" font-family="Helvetica,sans-Serif" font-size="14.00">&#45;&#45;&#45;&#45;</text>
<text text-anchor="start" x="257.7" y="-387.51" font-family="Helvetica,sans-Serif" font-weight="bold" font-size="14.00">mass</text>
</g>
<!-- 2&#45;&gt;3 -->
<g id="edge4" class="edge">
<title>2:s&#45;&gt;3:n</title>
<path fill="none" stroke="black" d="M596.2,-508.71C596.2,-508.71 342.85,-468.08 288.42,-459.35"/>
<polygon fill="black" stroke="black" points="288.63,-455.84 278.2,-457.71 287.52,-462.75 288.63,-455.84"/>
<text text-anchor="middle" x="503.2" y="-479.51" font-family="Helvetica,sans-Serif" font-size="14.00">&lt;= 163</text>
</g>
<!-- 8 -->
<g id="node6" class="node">
<title>8</title>
<ellipse fill="#8dcc3d" stroke="black" cx="596.2" cy="-418.71" rx="144.5" ry="35.21"/>
<text text-anchor="start" x="502.2" y="-429.51" font-family="Helvetica,sans-Serif" font-weight="bold" font-size="14.00"> Class=tested_positive </text>
<text text-anchor="start" x="685.2" y="-429.51" font-family="Helvetica,sans-Serif" font-size="14.00"> </text>
<text text-anchor="start" x="522.2" y="-415.51" font-family="Helvetica,sans-Serif" font-size="14.00"> error: 0.680, n=768 </text>
<text text-anchor="start" x="541.2" y="-401.51" font-family="Helvetica,sans-Serif" font-size="14.00"> p: (0.18, 0.82) </text>
</g>
<!-- 2&#45;&gt;8 -->
<g id="edge5" class="edge">
<title>2:s&#45;&gt;8:n</title>
<path fill="none" stroke="black" d="M596.2,-508.71C596.2,-508.71 596.2,-481.33 596.2,-465.93"/>
<polygon fill="black" stroke="black" points="599.7,-465.71 596.2,-455.71 592.7,-465.71 599.7,-465.71"/>
<text text-anchor="middle" x="618.2" y="-479.51" font-family="Helvetica,sans-Serif" font-size="14.00">&gt; 163</text>
</g>
<!-- 10 -->
<g id="node11" class="node">
<title>10</title>
<polygon fill="#8dcc3d" stroke="black" points="1023.7,-457.71 812.7,-457.71 812.7,-379.71 1023.7,-379.71 1023.7,-457.71"/>
<text text-anchor="start" x="820.7" y="-443.51" font-family="Helvetica,sans-Serif" font-weight="bold" font-size="14.00"> Class=tested_negative </text>
<text text-anchor="start" x="1010.7" y="-443.51" font-family="Helvetica,sans-Serif" font-size="14.00"> </text>
<text text-anchor="start" x="844.2" y="-429.51" font-family="Helvetica,sans-Serif" font-size="14.00"> error: 0.164, n=768 </text>
<text text-anchor="start" x="863.2" y="-415.51" font-family="Helvetica,sans-Serif" font-size="14.00"> p: (0.98, 0.02) </text>
<text text-anchor="start" x="907.2" y="-401.51" font-family="Helvetica,sans-Serif" font-size="14.00">&#45;&#45;&#45;&#45;</text>
<text text-anchor="start" x="897.7" y="-387.51" font-family="Helvetica,sans-Serif" font-weight="bold" font-size="14.00">mass</text>
</g>
<!-- 9&#45;&gt;10 -->
<g id="edge10" class="edge">
<title>9:s&#45;&gt;10:n</title>
<path fill="none" stroke="black" d="M918.2,-508.71C918.2,-508.71 918.2,-482.93 918.2,-468.03"/>
<polygon fill="black" stroke="black" points="921.7,-467.71 918.2,-457.71 914.7,-467.71 921.7,-467.71"/>
<text text-anchor="middle" x="948.7" y="-479.51" font-family="Helvetica,sans-Serif" font-size="14.00">&lt;= 25.8</text>
</g>
<!-- 12 -->
<g id="node12" class="node">
<title>12</title>
<polygon fill="#8dcc3d" stroke="black" points="1328.7,-457.71 1117.7,-457.71 1117.7,-379.71 1328.7,-379.71 1328.7,-457.71"/>
<text text-anchor="start" x="1125.7" y="-443.51" font-family="Helvetica,sans-Serif" font-weight="bold" font-size="14.00"> Class=tested_negative </text>
<text text-anchor="start" x="1315.7" y="-443.51" font-family="Helvetica,sans-Serif" font-size="14.00"> </text>
<text text-anchor="start" x="1149.2" y="-429.51" font-family="Helvetica,sans-Serif" font-size="14.00"> error: 0.841, n=768 </text>
<text text-anchor="start" x="1168.2" y="-415.51" font-family="Helvetica,sans-Serif" font-size="14.00"> p: (0.73, 0.27) </text>
<text text-anchor="start" x="1215.2" y="-401.51" font-family="Helvetica,sans-Serif" font-size="14.00">&#45;&#45;&#45;</text>
<text text-anchor="start" x="1208.2" y="-387.51" font-family="Helvetica,sans-Serif" font-weight="bold" font-size="14.00">age</text>
</g>
<!-- 9&#45;&gt;12 -->
<g id="edge11" class="edge">
<title>9:s&#45;&gt;12:n</title>
<path fill="none" stroke="black" d="M918.2,-508.71C918.2,-508.71 1160.13,-468.26 1213.05,-459.41"/>
<polygon fill="black" stroke="black" points="1213.91,-462.81 1223.2,-457.71 1212.76,-455.91 1213.91,-462.81"/>
<text text-anchor="middle" x="1131.7" y="-479.51" font-family="Helvetica,sans-Serif" font-size="14.00">&gt; 25.8</text>
</g>
<!-- 4 -->
<g id="node7" class="node">
<title>4</title>
<ellipse fill="#44e55e" stroke="black" cx="149.2" cy="-289.71" rx="149.4" ry="35.21"/>
<text text-anchor="start" x="51.7" y="-300.51" font-family="Helvetica,sans-Serif" font-weight="bold" font-size="14.00"> Class=tested_negative </text>
<text text-anchor="start" x="241.7" y="-300.51" font-family="Helvetica,sans-Serif" font-size="14.00"> </text>
<text text-anchor="start" x="75.2" y="-286.51" font-family="Helvetica,sans-Serif" font-size="14.00"> error: 0.787, n=768 </text>
<text text-anchor="start" x="94.2" y="-272.51" font-family="Helvetica,sans-Serif" font-size="14.00"> p: (0.76, 0.24) </text>
</g>
<!-- 3&#45;&gt;4 -->
<g id="edge6" class="edge">
<title>3:s&#45;&gt;4:n</title>
<path fill="none" stroke="black" d="M278.2,-379.71C278.2,-379.71 188.06,-342.67 158.48,-330.52"/>
<polygon fill="black" stroke="black" points="159.78,-327.27 149.2,-326.71 157.12,-333.75 159.78,-327.27"/>
<text text-anchor="middle" x="259.7" y="-350.51" font-family="Helvetica,sans-Serif" font-size="14.00">&lt;= 27.7</text>
</g>
<!-- 5 -->
<g id="node8" class="node">
<title>5</title>
<polygon fill="#44e55e" stroke="black" points="574.2,-328.71 370.2,-328.71 370.2,-250.71 574.2,-250.71 574.2,-328.71"/>
<text text-anchor="start" x="378.2" y="-314.51" font-family="Helvetica,sans-Serif" font-weight="bold" font-size="14.00"> Class=tested_positive </text>
<text text-anchor="start" x="561.2" y="-314.51" font-family="Helvetica,sans-Serif" font-size="14.00"> </text>
<text text-anchor="start" x="398.2" y="-300.51" font-family="Helvetica,sans-Serif" font-size="14.00"> error: 0.965, n=768 </text>
<text text-anchor="start" x="417.2" y="-286.51" font-family="Helvetica,sans-Serif" font-size="14.00"> p: (0.39, 0.61) </text>
<text text-anchor="start" x="461.2" y="-272.51" font-family="Helvetica,sans-Serif" font-size="14.00">&#45;&#45;&#45;&#45;</text>
<text text-anchor="start" x="455.7" y="-258.51" font-family="Helvetica,sans-Serif" font-weight="bold" font-size="14.00">plas</text>
</g>
<!-- 3&#45;&gt;5 -->
<g id="edge7" class="edge">
<title>3:s&#45;&gt;5:n</title>
<path fill="none" stroke="black" d="M278.2,-379.71C278.2,-379.71 422.78,-341.7 462.31,-331.31"/>
<polygon fill="black" stroke="black" points="463.42,-334.64 472.2,-328.71 461.64,-327.87 463.42,-334.64"/>
<text text-anchor="middle" x="423.7" y="-350.51" font-family="Helvetica,sans-Serif" font-size="14.00">&gt; 27.7</text>
</g>
<!-- 6 -->
<g id="node9" class="node">
<title>6</title>
<polygon fill="#3dccba" stroke="black" points="574.2,-199.71 370.2,-199.71 370.2,-121.71 574.2,-121.71 574.2,-199.71"/>
<text text-anchor="start" x="378.2" y="-185.51" font-family="Helvetica,sans-Serif" font-weight="bold" font-size="14.00"> Class=tested_positive </text>
<text text-anchor="start" x="561.2" y="-185.51" font-family="Helvetica,sans-Serif" font-size="14.00"> </text>
<text text-anchor="start" x="398.2" y="-171.51" font-family="Helvetica,sans-Serif" font-size="14.00"> error: 0.989, n=768 </text>
<text text-anchor="start" x="417.2" y="-157.51" font-family="Helvetica,sans-Serif" font-size="14.00"> p: (0.44, 0.56) </text>
<text text-anchor="start" x="461.2" y="-143.51" font-family="Helvetica,sans-Serif" font-size="14.00">&#45;&#45;&#45;&#45;</text>
<text text-anchor="start" x="454.7" y="-129.51" font-family="Helvetica,sans-Serif" font-weight="bold" font-size="14.00">pres</text>
</g>
<!-- 5&#45;&gt;6 -->
<g id="edge8" class="edge">
<title>5:s&#45;&gt;6:n</title>
<path fill="none" stroke="black" d="M472.2,-250.71C472.2,-250.71 472.2,-224.93 472.2,-210.03"/>
<polygon fill="black" stroke="black" points="475.7,-209.71 472.2,-199.71 468.7,-209.71 475.7,-209.71"/>
<text text-anchor="middle" x="500.2" y="-221.51" font-family="Helvetica,sans-Serif" font-size="14.00">&lt;= 155</text>
</g>
<!-- 7 -->
<g id="node10" class="node">
<title>7</title>
<ellipse fill="#4485e5" stroke="black" cx="472.2" cy="-35.36" rx="144.5" ry="35.21"/>
<text text-anchor="start" x="378.2" y="-46.16" font-family="Helvetica,sans-Serif" font-weight="bold" font-size="14.00"> Class=tested_positive </text>
<text text-anchor="start" x="561.2" y="-46.16" font-family="Helvetica,sans-Serif" font-size="14.00"> </text>
<text text-anchor="start" x="398.2" y="-32.16" font-family="Helvetica,sans-Serif" font-size="14.00"> error: 0.997, n=768 </text>
<text text-anchor="start" x="417.2" y="-18.16" font-family="Helvetica,sans-Serif" font-size="14.00"> p: (0.47, 0.53) </text>
</g>
<!-- 6&#45;&gt;7 -->
<g id="edge9" class="edge">
<title>6:s&#45;&gt;7:n</title>
<path fill="none" stroke="black" d="M472.2,-121.71C472.2,-121.71 472.2,-95.93 472.2,-81.03"/>
<polygon fill="black" stroke="black" points="475.7,-80.71 472.2,-70.71 468.7,-80.71 475.7,-80.71"/>
<text text-anchor="middle" x="485.2" y="-92.51" font-family="Helvetica,sans-Serif" font-size="14.00">&gt; 0</text>
</g>
<!-- 11 -->
<g id="node13" class="node">
<title>11</title>
<ellipse fill="#44e55e" stroke="black" cx="896.2" cy="-289.71" rx="149.4" ry="35.21"/>
<text text-anchor="start" x="798.7" y="-300.51" font-family="Helvetica,sans-Serif" font-weight="bold" font-size="14.00"> Class=tested_negative </text>
<text text-anchor="start" x="988.7" y="-300.51" font-family="Helvetica,sans-Serif" font-size="14.00"> </text>
<text text-anchor="start" x="822.2" y="-286.51" font-family="Helvetica,sans-Serif" font-size="14.00"> error: 0.073, n=768 </text>
<text text-anchor="start" x="841.2" y="-272.51" font-family="Helvetica,sans-Serif" font-size="14.00"> p: (0.99, 0.01) </text>
</g>
<!-- 10&#45;&gt;11 -->
<g id="edge12" class="edge">
<title>10:s&#45;&gt;11:n</title>
<path fill="none" stroke="black" d="M918.2,-379.71C918.2,-379.71 906.59,-351.73 900.23,-336.43"/>
<polygon fill="black" stroke="black" points="903.27,-334.6 896.2,-326.71 896.8,-337.29 903.27,-334.6"/>
<text text-anchor="middle" x="924.2" y="-350.51" font-family="Helvetica,sans-Serif" font-size="14.00">&gt; 0</text>
</g>
<!-- 13 -->
<g id="node14" class="node">
<title>13</title>
<polygon fill="#44e55e" stroke="black" points="1328.7,-328.71 1117.7,-328.71 1117.7,-250.71 1328.7,-250.71 1328.7,-328.71"/>
<text text-anchor="start" x="1125.7" y="-314.51" font-family="Helvetica,sans-Serif" font-weight="bold" font-size="14.00"> Class=tested_negative </text>
<text text-anchor="start" x="1315.7" y="-314.51" font-family="Helvetica,sans-Serif" font-size="14.00"> </text>
<text text-anchor="start" x="1149.2" y="-300.51" font-family="Helvetica,sans-Serif" font-size="14.00"> error: 0.664, n=768 </text>
<text text-anchor="start" x="1168.2" y="-286.51" font-family="Helvetica,sans-Serif" font-size="14.00"> p: (0.83, 0.17) </text>
<text text-anchor="start" x="1212.2" y="-272.51" font-family="Helvetica,sans-Serif" font-size="14.00">&#45;&#45;&#45;&#45;</text>
<text text-anchor="start" x="1204.7" y="-258.51" font-family="Helvetica,sans-Serif" font-weight="bold" font-size="14.00">preg</text>
</g>
<!-- 12&#45;&gt;13 -->
<g id="edge13" class="edge">
<title>12:s&#45;&gt;13:n</title>
<path fill="none" stroke="black" d="M1223.2,-379.71C1223.2,-379.71 1223.2,-353.93 1223.2,-339.03"/>
<polygon fill="black" stroke="black" points="1226.7,-338.71 1223.2,-328.71 1219.7,-338.71 1226.7,-338.71"/>
<text text-anchor="middle" x="1246.7" y="-350.51" font-family="Helvetica,sans-Serif" font-size="14.00">&lt;= 31</text>
</g>
<!-- 15 -->
<g id="node15" class="node">
<title>15</title>
<polygon fill="#44e55e" stroke="black" points="1633.7,-328.71 1422.7,-328.71 1422.7,-250.71 1633.7,-250.71 1633.7,-328.71"/>
<text text-anchor="start" x="1430.7" y="-314.51" font-family="Helvetica,sans-Serif" font-weight="bold" font-size="14.00"> Class=tested_negative </text>
<text text-anchor="start" x="1620.7" y="-314.51" font-family="Helvetica,sans-Serif" font-size="14.00"> </text>
<text text-anchor="start" x="1454.2" y="-300.51" font-family="Helvetica,sans-Serif" font-size="14.00"> error: 0.984, n=768 </text>
<text text-anchor="start" x="1473.2" y="-286.51" font-family="Helvetica,sans-Serif" font-size="14.00"> p: (0.57, 0.43) </text>
<text text-anchor="start" x="1517.2" y="-272.51" font-family="Helvetica,sans-Serif" font-size="14.00">&#45;&#45;&#45;&#45;</text>
<text text-anchor="start" x="1511.7" y="-258.51" font-family="Helvetica,sans-Serif" font-weight="bold" font-size="14.00">plas</text>
</g>
<!-- 12&#45;&gt;15 -->
<g id="edge14" class="edge">
<title>12:s&#45;&gt;15:n</title>
<path fill="none" stroke="black" d="M1223.2,-379.71C1223.2,-379.71 1465.13,-339.26 1518.05,-330.41"/>
<polygon fill="black" stroke="black" points="1518.91,-333.81 1528.2,-328.71 1517.76,-326.91 1518.91,-333.81"/>
<text text-anchor="middle" x="1429.7" y="-350.51" font-family="Helvetica,sans-Serif" font-size="14.00">&gt; 31</text>
</g>
<!-- 14 -->
<g id="node16" class="node">
<title>14</title>
<ellipse fill="#3dccba" stroke="black" cx="1201.2" cy="-160.71" rx="149.4" ry="35.21"/>
<text text-anchor="start" x="1103.7" y="-171.51" font-family="Helvetica,sans-Serif" font-weight="bold" font-size="14.00"> Class=tested_negative </text>
<text text-anchor="start" x="1293.7" y="-171.51" font-family="Helvetica,sans-Serif" font-size="14.00"> </text>
<text text-anchor="start" x="1127.2" y="-157.51" font-family="Helvetica,sans-Serif" font-size="14.00"> error: 0.618, n=768 </text>
<text text-anchor="start" x="1146.2" y="-143.51" font-family="Helvetica,sans-Serif" font-size="14.00"> p: (0.85, 0.15) </text>
</g>
<!-- 13&#45;&gt;14 -->
<g id="edge15" class="edge">
<title>13:s&#45;&gt;14:n</title>
<path fill="none" stroke="black" d="M1223.2,-250.71C1223.2,-250.71 1211.59,-222.73 1205.23,-207.43"/>
<polygon fill="black" stroke="black" points="1208.27,-205.6 1201.2,-197.71 1201.8,-208.29 1208.27,-205.6"/>
<text text-anchor="middle" x="1235.2" y="-221.51" font-family="Helvetica,sans-Serif" font-size="14.00">&lt;= 6</text>
</g>
<!-- 16 -->
<g id="node17" class="node">
<title>16</title>
<polygon fill="#3dccba" stroke="black" points="1633.7,-199.71 1422.7,-199.71 1422.7,-121.71 1633.7,-121.71 1633.7,-199.71"/>
<text text-anchor="start" x="1430.7" y="-185.51" font-family="Helvetica,sans-Serif" font-weight="bold" font-size="14.00"> Class=tested_negative </text>
<text text-anchor="start" x="1620.7" y="-185.51" font-family="Helvetica,sans-Serif" font-size="14.00"> </text>
<text text-anchor="start" x="1454.2" y="-171.51" font-family="Helvetica,sans-Serif" font-size="14.00"> error: 0.740, n=768 </text>
<text text-anchor="start" x="1473.2" y="-157.51" font-family="Helvetica,sans-Serif" font-size="14.00"> p: (0.79, 0.21) </text>
<text text-anchor="start" x="1517.2" y="-143.51" font-family="Helvetica,sans-Serif" font-size="14.00">&#45;&#45;&#45;&#45;</text>
<text text-anchor="start" x="1511.7" y="-129.51" font-family="Helvetica,sans-Serif" font-weight="bold" font-size="14.00">plas</text>
</g>
<!-- 15&#45;&gt;16 -->
<g id="edge16" class="edge">
<title>15:s&#45;&gt;16:n</title>
<path fill="none" stroke="black" d="M1528.2,-250.71C1528.2,-250.71 1528.2,-224.93 1528.2,-210.03"/>
<polygon fill="black" stroke="black" points="1531.7,-209.71 1528.2,-199.71 1524.7,-209.71 1531.7,-209.71"/>
<text text-anchor="middle" x="1551.7" y="-221.51" font-family="Helvetica,sans-Serif" font-size="14.00">&lt;= 98</text>
</g>
<!-- 18 -->
<g id="node18" class="node">
<title>18</title>
<polygon fill="#3dccba" stroke="black" points="1955.2,-199.71 1751.2,-199.71 1751.2,-121.71 1955.2,-121.71 1955.2,-199.71"/>
<text text-anchor="start" x="1759.2" y="-185.51" font-family="Helvetica,sans-Serif" font-weight="bold" font-size="14.00"> Class=tested_positive </text>
<text text-anchor="start" x="1942.2" y="-185.51" font-family="Helvetica,sans-Serif" font-size="14.00"> </text>
<text text-anchor="start" x="1779.2" y="-171.51" font-family="Helvetica,sans-Serif" font-size="14.00"> error: 0.999, n=768 </text>
<text text-anchor="start" x="1798.2" y="-157.51" font-family="Helvetica,sans-Serif" font-size="14.00"> p: (0.49, 0.51) </text>
<text text-anchor="start" x="1842.2" y="-143.51" font-family="Helvetica,sans-Serif" font-size="14.00">&#45;&#45;&#45;&#45;</text>
<text text-anchor="start" x="1836.2" y="-129.51" font-family="Helvetica,sans-Serif" font-weight="bold" font-size="14.00">pedi</text>
</g>
<!-- 15&#45;&gt;18 -->
<g id="edge17" class="edge">
<title>15:s&#45;&gt;18:n</title>
<path fill="none" stroke="black" d="M1528.2,-250.71C1528.2,-250.71 1788.26,-209.9 1843.12,-201.29"/>
<polygon fill="black" stroke="black" points="1843.86,-204.72 1853.2,-199.71 1842.78,-197.8 1843.86,-204.72"/>
<text text-anchor="middle" x="1747.7" y="-221.51" font-family="Helvetica,sans-Serif" font-size="14.00">&gt; 98</text>
</g>
<!-- 17 -->
<g id="node19" class="node">
<title>17</title>
<ellipse fill="#4485e5" stroke="black" cx="1483.2" cy="-35.36" rx="149.4" ry="35.21"/>
<text text-anchor="start" x="1385.7" y="-46.16" font-family="Helvetica,sans-Serif" font-weight="bold" font-size="14.00"> Class=tested_negative </text>
<text text-anchor="start" x="1575.7" y="-46.16" font-family="Helvetica,sans-Serif" font-size="14.00"> </text>
<text text-anchor="start" x="1409.2" y="-32.16" font-family="Helvetica,sans-Serif" font-size="14.00"> error: 0.659, n=768 </text>
<text text-anchor="start" x="1428.2" y="-18.16" font-family="Helvetica,sans-Serif" font-size="14.00"> p: (0.83, 0.17) </text>
</g>
<!-- 16&#45;&gt;17 -->
<g id="edge18" class="edge">
<title>16:s&#45;&gt;17:n</title>
<path fill="none" stroke="black" d="M1528.2,-121.71C1528.2,-121.71 1502.36,-92.42 1489.84,-78.24"/>
<polygon fill="black" stroke="black" points="1492.44,-75.89 1483.2,-70.71 1487.19,-80.52 1492.44,-75.89"/>
<text text-anchor="middle" x="1524.2" y="-92.51" font-family="Helvetica,sans-Serif" font-size="14.00">&gt; 0</text>
</g>
<!-- 19 -->
<g id="node20" class="node">
<title>19</title>
<ellipse fill="#4485e5" stroke="black" cx="1853.2" cy="-35.36" rx="149.4" ry="35.21"/>
<text text-anchor="start" x="1755.7" y="-46.16" font-family="Helvetica,sans-Serif" font-weight="bold" font-size="14.00"> Class=tested_negative </text>
<text text-anchor="start" x="1945.7" y="-46.16" font-family="Helvetica,sans-Serif" font-size="14.00"> </text>
<text text-anchor="start" x="1779.2" y="-32.16" font-family="Helvetica,sans-Serif" font-size="14.00"> error: 0.953, n=768 </text>
<text text-anchor="start" x="1798.2" y="-18.16" font-family="Helvetica,sans-Serif" font-size="14.00"> p: (0.63, 0.37) </text>
</g>
<!-- 18&#45;&gt;19 -->
<g id="edge19" class="edge">
<title>18:s&#45;&gt;19:n</title>
<path fill="none" stroke="black" d="M1853.2,-121.71C1853.2,-121.71 1853.2,-95.93 1853.2,-81.03"/>
<polygon fill="black" stroke="black" points="1856.7,-80.71 1853.2,-70.71 1849.7,-80.71 1856.7,-80.71"/>
<text text-anchor="middle" x="1888.2" y="-92.51" font-family="Helvetica,sans-Serif" font-size="14.00">&lt;= 0.388</text>
</g>
<!-- 20 -->
<g id="node21" class="node">
<title>20</title>
<ellipse fill="#4485e5" stroke="black" cx="2218.2" cy="-35.36" rx="144.5" ry="35.21"/>
<text text-anchor="start" x="2124.2" y="-46.16" font-family="Helvetica,sans-Serif" font-weight="bold" font-size="14.00"> Class=tested_positive </text>
<text text-anchor="start" x="2307.2" y="-46.16" font-family="Helvetica,sans-Serif" font-size="14.00"> </text>
<text text-anchor="start" x="2144.2" y="-32.16" font-family="Helvetica,sans-Serif" font-size="14.00"> error: 0.896, n=768 </text>
<text text-anchor="start" x="2163.2" y="-18.16" font-family="Helvetica,sans-Serif" font-size="14.00"> p: (0.31, 0.69) </text>
</g>
<!-- 18&#45;&gt;20 -->
<g id="edge20" class="edge">
<title>18:s&#45;&gt;20:n</title>
<path fill="none" stroke="black" d="M1853.2,-121.71C1853.2,-121.71 2149.11,-80.36 2208.06,-72.13"/>
<polygon fill="black" stroke="black" points="2208.78,-75.56 2218.2,-70.71 2207.81,-68.63 2208.78,-75.56"/>
<text text-anchor="middle" x="2107.2" y="-92.51" font-family="Helvetica,sans-Serif" font-size="14.00">&gt; 0.388</text>
</g>
</g>
</svg>
