<?xml version="1.0" encoding="UTF-8" standalone="no"?>
<!DOCTYPE svg PUBLIC "-//W3C//DTD SVG 1.1//EN"
 "http://www.w3.org/Graphics/SVG/1.1/DTD/svg11.dtd">
<!-- Generated by graphviz version 2.43.0 (0)
 -->
<!-- Title: Tree Pages: 1 -->
<svg width="2894pt" height="825pt"
 viewBox="0.00 0.00 2894.45 824.71" xmlns="http://www.w3.org/2000/svg" xmlns:xlink="http://www.w3.org/1999/xlink">
<g id="graph0" class="graph" transform="scale(1 1) rotate(0) translate(18 806.71)">
<title>Tree</title>
<polygon fill="white" stroke="transparent" points="-18,18 -18,-806.71 2876.45,-806.71 2876.45,18 -18,18"/>
<!-- 0 -->
<g id="node1" class="node">
<title>0</title>
<polygon fill="white" stroke="transparent" points="1110.2,-788.71 1056.2,-788.71 1056.2,-752.71 1110.2,-752.71 1110.2,-788.71"/>
<text text-anchor="middle" x="1083.2" y="-767.01" font-family="Helvetica,sans-Serif" font-size="14.00">0</text>
</g>
<!-- 1 -->
<g id="node2" class="node">
<title>1</title>
<polygon fill="#cc3d3d" stroke="black" points="1188.7,-715.71 977.7,-715.71 977.7,-637.71 1188.7,-637.71 1188.7,-715.71"/>
<text text-anchor="start" x="985.7" y="-701.51" font-family="Helvetica,sans-Serif" font-weight="bold" font-size="14.00"> Class=tested_negative </text>
<text text-anchor="start" x="1175.7" y="-701.51" font-family="Helvetica,sans-Serif" font-size="14.00"> </text>
<text text-anchor="start" x="1009.2" y="-687.51" font-family="Helvetica,sans-Serif" font-size="14.00"> error: 0.933, n=768 </text>
<text text-anchor="start" x="1028.2" y="-673.51" font-family="Helvetica,sans-Serif" font-size="14.00"> p: (0.65, 0.35) </text>
<text text-anchor="start" x="1072.2" y="-659.51" font-family="Helvetica,sans-Serif" font-size="14.00">&#45;&#45;&#45;&#45;</text>
<text text-anchor="start" x="1066.7" y="-645.51" font-family="Helvetica,sans-Serif" font-weight="bold" font-size="14.00">plas</text>
</g>
<!-- 0&#45;&gt;1 -->
<!-- 2 -->
<g id="node3" class="node">
<title>2</title>
<polygon fill="#e5b844" stroke="black" points="1003.2,-586.71 799.2,-586.71 799.2,-508.71 1003.2,-508.71 1003.2,-586.71"/>
<text text-anchor="start" x="807.2" y="-572.51" font-family="Helvetica,sans-Serif" font-weight="bold" font-size="14.00"> Class=tested_positive </text>
<text text-anchor="start" x="990.2" y="-572.51" font-family="Helvetica,sans-Serif" font-size="14.00"> </text>
<text text-anchor="start" x="827.2" y="-558.51" font-family="Helvetica,sans-Serif" font-size="14.00"> error: 0.948, n=768 </text>
<text text-anchor="start" x="846.2" y="-544.51" font-family="Helvetica,sans-Serif" font-size="14.00"> p: (0.37, 0.63) </text>
<text text-anchor="start" x="890.2" y="-530.51" font-family="Helvetica,sans-Serif" font-size="14.00">&#45;&#45;&#45;&#45;</text>
<text text-anchor="start" x="884.7" y="-516.51" font-family="Helvetica,sans-Serif" font-weight="bold" font-size="14.00">plas</text>
</g>
<!-- 1&#45;&gt;2 -->
<g id="edge2" class="edge">
<title>1:s&#45;&gt;2:n</title>
<path fill="none" stroke="black" d="M1083.2,-637.71C1083.2,-637.71 948.79,-600.05 910.98,-589.45"/>
<polygon fill="black" stroke="black" points="911.77,-586.04 901.2,-586.71 909.88,-592.78 911.77,-586.04"/>
<text text-anchor="middle" x="1036.2" y="-608.51" font-family="Helvetica,sans-Serif" font-size="14.00">&gt; 130</text>
</g>
<!-- 14 -->
<g id="node4" class="node">
<title>14</title>
<polygon fill="#e5b844" stroke="black" points="1371.7,-586.71 1160.7,-586.71 1160.7,-508.71 1371.7,-508.71 1371.7,-586.71"/>
<text text-anchor="start" x="1168.7" y="-572.51" font-family="Helvetica,sans-Serif" font-weight="bold" font-size="14.00"> Class=tested_negative </text>
<text text-anchor="start" x="1358.7" y="-572.51" font-family="Helvetica,sans-Serif" font-size="14.00"> </text>
<text text-anchor="start" x="1192.2" y="-558.51" font-family="Helvetica,sans-Serif" font-size="14.00"> error: 0.743, n=768 </text>
<text text-anchor="start" x="1211.2" y="-544.51" font-family="Helvetica,sans-Serif" font-size="14.00"> p: (0.79, 0.21) </text>
<text text-anchor="start" x="1255.2" y="-530.51" font-family="Helvetica,sans-Serif" font-size="14.00">&#45;&#45;&#45;&#45;</text>
<text text-anchor="start" x="1245.7" y="-516.51" font-family="Helvetica,sans-Serif" font-weight="bold" font-size="14.00">mass</text>
</g>
<!-- 1&#45;&gt;14 -->
<g id="edge3" class="edge">
<title>1:s&#45;&gt;14:n</title>
<path fill="none" stroke="black" d="M1083.2,-637.71C1083.2,-637.71 1218.35,-600.05 1256.36,-589.45"/>
<polygon fill="black" stroke="black" points="1257.51,-592.77 1266.2,-586.71 1255.63,-586.02 1257.51,-592.77"/>
<text text-anchor="middle" x="1225.2" y="-608.51" font-family="Helvetica,sans-Serif" font-size="14.00">&lt;= 130</text>
</g>
<!-- 3 -->
<g id="node5" class="node">
<title>3</title>
<polygon fill="#8dcc3d" stroke="black" points="685.2,-457.71 481.2,-457.71 481.2,-379.71 685.2,-379.71 685.2,-457.71"/>
<text text-anchor="start" x="489.2" y="-443.51" font-family="Helvetica,sans-Serif" font-weight="bold" font-size="14.00"> Class=tested_positive </text>
<text text-anchor="start" x="672.2" y="-443.51" font-family="Helvetica,sans-Serif" font-size="14.00"> </text>
<text text-anchor="start" x="509.2" y="-429.51" font-family="Helvetica,sans-Serif" font-size="14.00"> error: 0.997, n=768 </text>
<text text-anchor="start" x="528.2" y="-415.51" font-family="Helvetica,sans-Serif" font-size="14.00"> p: (0.47, 0.53) </text>
<text text-anchor="start" x="572.2" y="-401.51" font-family="Helvetica,sans-Serif" font-size="14.00">&#45;&#45;&#45;&#45;</text>
<text text-anchor="start" x="562.7" y="-387.51" font-family="Helvetica,sans-Serif" font-weight="bold" font-size="14.00">mass</text>
</g>
<!-- 2&#45;&gt;3 -->
<g id="edge4" class="edge">
<title>2:s&#45;&gt;3:n</title>
<path fill="none" stroke="black" d="M901.2,-508.71C901.2,-508.71 647.85,-468.08 593.42,-459.35"/>
<polygon fill="black" stroke="black" points="593.63,-455.84 583.2,-457.71 592.52,-462.75 593.63,-455.84"/>
<text text-anchor="middle" x="808.2" y="-479.51" font-family="Helvetica,sans-Serif" font-size="14.00">&lt;= 163</text>
</g>
<!-- 12 -->
<g id="node6" class="node">
<title>12</title>
<polygon fill="#8dcc3d" stroke="black" points="1003.2,-457.71 799.2,-457.71 799.2,-379.71 1003.2,-379.71 1003.2,-457.71"/>
<text text-anchor="start" x="807.2" y="-443.51" font-family="Helvetica,sans-Serif" font-weight="bold" font-size="14.00"> Class=tested_positive </text>
<text text-anchor="start" x="990.2" y="-443.51" font-family="Helvetica,sans-Serif" font-size="14.00"> </text>
<text text-anchor="start" x="827.2" y="-429.51" font-family="Helvetica,sans-Serif" font-size="14.00"> error: 0.680, n=768 </text>
<text text-anchor="start" x="846.2" y="-415.51" font-family="Helvetica,sans-Serif" font-size="14.00"> p: (0.18, 0.82) </text>
<text text-anchor="start" x="890.2" y="-401.51" font-family="Helvetica,sans-Serif" font-size="14.00">&#45;&#45;&#45;&#45;</text>
<text text-anchor="start" x="880.7" y="-387.51" font-family="Helvetica,sans-Serif" font-weight="bold" font-size="14.00">mass</text>
</g>
<!-- 2&#45;&gt;12 -->
<g id="edge5" class="edge">
<title>2:s&#45;&gt;12:n</title>
<path fill="none" stroke="black" d="M901.2,-508.71C901.2,-508.71 901.2,-482.93 901.2,-468.03"/>
<polygon fill="black" stroke="black" points="904.7,-467.71 901.2,-457.71 897.7,-467.71 904.7,-467.71"/>
<text text-anchor="middle" x="923.2" y="-479.51" font-family="Helvetica,sans-Serif" font-size="14.00">&gt; 163</text>
</g>
<!-- 15 -->
<g id="node16" class="node">
<title>15</title>
<polygon fill="#8dcc3d" stroke="black" points="1371.7,-457.71 1160.7,-457.71 1160.7,-379.71 1371.7,-379.71 1371.7,-457.71"/>
<text text-anchor="start" x="1168.7" y="-443.51" font-family="Helvetica,sans-Serif" font-weight="bold" font-size="14.00"> Class=tested_negative </text>
<text text-anchor="start" x="1358.7" y="-443.51" font-family="Helvetica,sans-Serif" font-size="14.00"> </text>
<text text-anchor="start" x="1192.2" y="-429.51" font-family="Helvetica,sans-Serif" font-size="14.00"> error: 0.164, n=768 </text>
<text text-anchor="start" x="1211.2" y="-415.51" font-family="Helvetica,sans-Serif" font-size="14.00"> p: (0.98, 0.02) </text>
<text text-anchor="start" x="1255.2" y="-401.51" font-family="Helvetica,sans-Serif" font-size="14.00">&#45;&#45;&#45;&#45;</text>
<text text-anchor="start" x="1245.7" y="-387.51" font-family="Helvetica,sans-Serif" font-weight="bold" font-size="14.00">mass</text>
</g>
<!-- 14&#45;&gt;15 -->
<g id="edge15" class="edge">
<title>14:s&#45;&gt;15:n</title>
<path fill="none" stroke="black" d="M1266.2,-508.71C1266.2,-508.71 1266.2,-482.93 1266.2,-468.03"/>
<polygon fill="black" stroke="black" points="1269.7,-467.71 1266.2,-457.71 1262.7,-467.71 1269.7,-467.71"/>
<text text-anchor="middle" x="1296.7" y="-479.51" font-family="Helvetica,sans-Serif" font-size="14.00">&lt;= 25.8</text>
</g>
<!-- 17 -->
<g id="node17" class="node">
<title>17</title>
<polygon fill="#8dcc3d" stroke="black" points="1698.7,-457.71 1487.7,-457.71 1487.7,-379.71 1698.7,-379.71 1698.7,-457.71"/>
<text text-anchor="start" x="1495.7" y="-443.51" font-family="Helvetica,sans-Serif" font-weight="bold" font-size="14.00"> Class=tested_negative </text>
<text text-anchor="start" x="1685.7" y="-443.51" font-family="Helvetica,sans-Serif" font-size="14.00"> </text>
<text text-anchor="start" x="1519.2" y="-429.51" font-family="Helvetica,sans-Serif" font-size="14.00"> error: 0.841, n=768 </text>
<text text-anchor="start" x="1538.2" y="-415.51" font-family="Helvetica,sans-Serif" font-size="14.00"> p: (0.73, 0.27) </text>
<text text-anchor="start" x="1585.2" y="-401.51" font-family="Helvetica,sans-Serif" font-size="14.00">&#45;&#45;&#45;</text>
<text text-anchor="start" x="1578.2" y="-387.51" font-family="Helvetica,sans-Serif" font-weight="bold" font-size="14.00">age</text>
</g>
<!-- 14&#45;&gt;17 -->
<g id="edge16" class="edge">
<title>14:s&#45;&gt;17:n</title>
<path fill="none" stroke="black" d="M1266.2,-508.71C1266.2,-508.71 1527.86,-467.9 1583.05,-459.29"/>
<polygon fill="black" stroke="black" points="1583.86,-462.71 1593.2,-457.71 1582.78,-455.79 1583.86,-462.71"/>
<text text-anchor="middle" x="1493.7" y="-479.51" font-family="Helvetica,sans-Serif" font-size="14.00">&gt; 25.8</text>
</g>
<!-- 4 -->
<g id="node7" class="node">
<title>4</title>
<polygon fill="#44e55e" stroke="black" points="408.7,-328.71 197.7,-328.71 197.7,-250.71 408.7,-250.71 408.7,-328.71"/>
<text text-anchor="start" x="205.7" y="-314.51" font-family="Helvetica,sans-Serif" font-weight="bold" font-size="14.00"> Class=tested_negative </text>
<text text-anchor="start" x="395.7" y="-314.51" font-family="Helvetica,sans-Serif" font-size="14.00"> </text>
<text text-anchor="start" x="229.2" y="-300.51" font-family="Helvetica,sans-Serif" font-size="14.00"> error: 0.787, n=768 </text>
<text text-anchor="start" x="248.2" y="-286.51" font-family="Helvetica,sans-Serif" font-size="14.00"> p: (0.76, 0.24) </text>
<text text-anchor="start" x="292.2" y="-272.51" font-family="Helvetica,sans-Serif" font-size="14.00">&#45;&#45;&#45;&#45;</text>
<text text-anchor="start" x="286.7" y="-258.51" font-family="Helvetica,sans-Serif" font-weight="bold" font-size="14.00">plas</text>
</g>
<!-- 3&#45;&gt;4 -->
<g id="edge6" class="edge">
<title>3:s&#45;&gt;4:n</title>
<path fill="none" stroke="black" d="M583.2,-379.71C583.2,-379.71 363.04,-339.61 313.16,-330.53"/>
<polygon fill="black" stroke="black" points="313.66,-327.06 303.2,-328.71 312.41,-333.95 313.66,-327.06"/>
<text text-anchor="middle" x="507.7" y="-350.51" font-family="Helvetica,sans-Serif" font-size="14.00">&lt;= 27.7</text>
</g>
<!-- 7 -->
<g id="node8" class="node">
<title>7</title>
<polygon fill="#44e55e" stroke="black" points="685.2,-328.71 481.2,-328.71 481.2,-250.71 685.2,-250.71 685.2,-328.71"/>
<text text-anchor="start" x="489.2" y="-314.51" font-family="Helvetica,sans-Serif" font-weight="bold" font-size="14.00"> Class=tested_positive </text>
<text text-anchor="start" x="672.2" y="-314.51" font-family="Helvetica,sans-Serif" font-size="14.00"> </text>
<text text-anchor="start" x="509.2" y="-300.51" font-family="Helvetica,sans-Serif" font-size="14.00"> error: 0.965, n=768 </text>
<text text-anchor="start" x="528.2" y="-286.51" font-family="Helvetica,sans-Serif" font-size="14.00"> p: (0.39, 0.61) </text>
<text text-anchor="start" x="572.2" y="-272.51" font-family="Helvetica,sans-Serif" font-size="14.00">&#45;&#45;&#45;&#45;</text>
<text text-anchor="start" x="566.7" y="-258.51" font-family="Helvetica,sans-Serif" font-weight="bold" font-size="14.00">plas</text>
</g>
<!-- 3&#45;&gt;7 -->
<g id="edge7" class="edge">
<title>3:s&#45;&gt;7:n</title>
<path fill="none" stroke="black" d="M583.2,-379.71C583.2,-379.71 583.2,-353.93 583.2,-339.03"/>
<polygon fill="black" stroke="black" points="586.7,-338.71 583.2,-328.71 579.7,-338.71 586.7,-338.71"/>
<text text-anchor="middle" x="607.7" y="-350.51" font-family="Helvetica,sans-Serif" font-size="14.00">&gt; 27.7</text>
</g>
<!-- 13 -->
<g id="node15" class="node">
<title>13</title>
<ellipse fill="#44e55e" stroke="black" cx="901.2" cy="-289.71" rx="144.5" ry="35.21"/>
<text text-anchor="start" x="807.2" y="-300.51" font-family="Helvetica,sans-Serif" font-weight="bold" font-size="14.00"> Class=tested_positive </text>
<text text-anchor="start" x="990.2" y="-300.51" font-family="Helvetica,sans-Serif" font-size="14.00"> </text>
<text text-anchor="start" x="827.2" y="-286.51" font-family="Helvetica,sans-Serif" font-size="14.00"> error: 0.659, n=768 </text>
<text text-anchor="start" x="846.2" y="-272.51" font-family="Helvetica,sans-Serif" font-size="14.00"> p: (0.17, 0.83) </text>
</g>
<!-- 12&#45;&gt;13 -->
<g id="edge14" class="edge">
<title>12:s&#45;&gt;13:n</title>
<path fill="none" stroke="black" d="M901.2,-379.71C901.2,-379.71 901.2,-352.33 901.2,-336.93"/>
<polygon fill="black" stroke="black" points="904.7,-336.71 901.2,-326.71 897.7,-336.71 904.7,-336.71"/>
<text text-anchor="middle" x="925.7" y="-350.51" font-family="Helvetica,sans-Serif" font-size="14.00">&gt; 22.9</text>
</g>
<!-- 5 -->
<g id="node9" class="node">
<title>5</title>
<polygon fill="#3dccba" stroke="black" points="276.7,-199.71 65.7,-199.71 65.7,-121.71 276.7,-121.71 276.7,-199.71"/>
<text text-anchor="start" x="73.7" y="-185.51" font-family="Helvetica,sans-Serif" font-weight="bold" font-size="14.00"> Class=tested_negative </text>
<text text-anchor="start" x="263.7" y="-185.51" font-family="Helvetica,sans-Serif" font-size="14.00"> </text>
<text text-anchor="start" x="97.2" y="-171.51" font-family="Helvetica,sans-Serif" font-size="14.00"> error: 0.529, n=768 </text>
<text text-anchor="start" x="116.2" y="-157.51" font-family="Helvetica,sans-Serif" font-size="14.00"> p: (0.88, 0.12) </text>
<text text-anchor="start" x="160.2" y="-143.51" font-family="Helvetica,sans-Serif" font-size="14.00">&#45;&#45;&#45;&#45;</text>
<text text-anchor="start" x="153.7" y="-129.51" font-family="Helvetica,sans-Serif" font-weight="bold" font-size="14.00">pres</text>
</g>
<!-- 4&#45;&gt;5 -->
<g id="edge8" class="edge">
<title>4:s&#45;&gt;5:n</title>
<path fill="none" stroke="black" d="M303.2,-250.71C303.2,-250.71 210.96,-215.07 180.69,-203.38"/>
<polygon fill="black" stroke="black" points="181.79,-200.05 171.2,-199.71 179.27,-206.58 181.79,-200.05"/>
<text text-anchor="middle" x="281.2" y="-221.51" font-family="Helvetica,sans-Serif" font-size="14.00">&lt;= 151</text>
</g>
<!-- 8 -->
<g id="node11" class="node">
<title>8</title>
<polygon fill="#3dccba" stroke="black" points="637.2,-199.71 433.2,-199.71 433.2,-121.71 637.2,-121.71 637.2,-199.71"/>
<text text-anchor="start" x="441.2" y="-185.51" font-family="Helvetica,sans-Serif" font-weight="bold" font-size="14.00"> Class=tested_positive </text>
<text text-anchor="start" x="624.2" y="-185.51" font-family="Helvetica,sans-Serif" font-size="14.00"> </text>
<text text-anchor="start" x="461.2" y="-171.51" font-family="Helvetica,sans-Serif" font-size="14.00"> error: 0.989, n=768 </text>
<text text-anchor="start" x="480.2" y="-157.51" font-family="Helvetica,sans-Serif" font-size="14.00"> p: (0.44, 0.56) </text>
<text text-anchor="start" x="524.2" y="-143.51" font-family="Helvetica,sans-Serif" font-size="14.00">&#45;&#45;&#45;&#45;</text>
<text text-anchor="start" x="517.7" y="-129.51" font-family="Helvetica,sans-Serif" font-weight="bold" font-size="14.00">pres</text>
</g>
<!-- 7&#45;&gt;8 -->
<g id="edge10" class="edge">
<title>7:s&#45;&gt;8:n</title>
<path fill="none" stroke="black" d="M583.2,-250.71C583.2,-250.71 555.63,-221.42 542.28,-207.24"/>
<polygon fill="black" stroke="black" points="544.6,-204.59 535.2,-199.71 539.5,-209.39 544.6,-204.59"/>
<text text-anchor="middle" x="593.2" y="-221.51" font-family="Helvetica,sans-Serif" font-size="14.00">&lt;= 155</text>
</g>
<!-- 10 -->
<g id="node12" class="node">
<title>10</title>
<polygon fill="#3dccba" stroke="black" points="955.2,-199.71 751.2,-199.71 751.2,-121.71 955.2,-121.71 955.2,-199.71"/>
<text text-anchor="start" x="759.2" y="-185.51" font-family="Helvetica,sans-Serif" font-weight="bold" font-size="14.00"> Class=tested_positive </text>
<text text-anchor="start" x="942.2" y="-185.51" font-family="Helvetica,sans-Serif" font-size="14.00"> </text>
<text text-anchor="start" x="779.2" y="-171.51" font-family="Helvetica,sans-Serif" font-size="14.00"> error: 0.592, n=768 </text>
<text text-anchor="start" x="798.2" y="-157.51" font-family="Helvetica,sans-Serif" font-size="14.00"> p: (0.14, 0.86) </text>
<text text-anchor="start" x="842.2" y="-143.51" font-family="Helvetica,sans-Serif" font-size="14.00">&#45;&#45;&#45;&#45;</text>
<text text-anchor="start" x="836.7" y="-129.51" font-family="Helvetica,sans-Serif" font-weight="bold" font-size="14.00">insu</text>
</g>
<!-- 7&#45;&gt;10 -->
<g id="edge11" class="edge">
<title>7:s&#45;&gt;10:n</title>
<path fill="none" stroke="black" d="M583.2,-250.71C583.2,-250.71 794.56,-210.79 843.27,-201.59"/>
<polygon fill="black" stroke="black" points="844.02,-205.01 853.2,-199.71 842.72,-198.13 844.02,-205.01"/>
<text text-anchor="middle" x="773.2" y="-221.51" font-family="Helvetica,sans-Serif" font-size="14.00">&gt; 155</text>
</g>
<!-- 6 -->
<g id="node10" class="node">
<title>6</title>
<ellipse fill="#4485e5" stroke="black" cx="149.2" cy="-35.36" rx="149.4" ry="35.21"/>
<text text-anchor="start" x="51.7" y="-46.16" font-family="Helvetica,sans-Serif" font-weight="bold" font-size="14.00"> Class=tested_negative </text>
<text text-anchor="start" x="241.7" y="-46.16" font-family="Helvetica,sans-Serif" font-size="14.00"> </text>
<text text-anchor="start" x="75.2" y="-32.16" font-family="Helvetica,sans-Serif" font-size="14.00"> error: 0.414, n=768 </text>
<text text-anchor="start" x="94.2" y="-18.16" font-family="Helvetica,sans-Serif" font-size="14.00"> p: (0.92, 0.08) </text>
</g>
<!-- 5&#45;&gt;6 -->
<g id="edge9" class="edge">
<title>5:s&#45;&gt;6:n</title>
<path fill="none" stroke="black" d="M171.2,-121.71C171.2,-121.71 159.59,-94.79 153.23,-80.06"/>
<polygon fill="black" stroke="black" points="156.37,-78.51 149.2,-70.71 149.95,-81.28 156.37,-78.51"/>
<text text-anchor="middle" x="176.2" y="-92.51" font-family="Helvetica,sans-Serif" font-size="14.00">&gt; 0</text>
</g>
<!-- 9 -->
<g id="node13" class="node">
<title>9</title>
<ellipse fill="#4485e5" stroke="black" cx="514.2" cy="-35.36" rx="144.5" ry="35.21"/>
<text text-anchor="start" x="420.2" y="-46.16" font-family="Helvetica,sans-Serif" font-weight="bold" font-size="14.00"> Class=tested_positive </text>
<text text-anchor="start" x="603.2" y="-46.16" font-family="Helvetica,sans-Serif" font-size="14.00"> </text>
<text text-anchor="start" x="440.2" y="-32.16" font-family="Helvetica,sans-Serif" font-size="14.00"> error: 0.997, n=768 </text>
<text text-anchor="start" x="459.2" y="-18.16" font-family="Helvetica,sans-Serif" font-size="14.00"> p: (0.47, 0.53) </text>
</g>
<!-- 8&#45;&gt;9 -->
<g id="edge12" class="edge">
<title>8:s&#45;&gt;9:n</title>
<path fill="none" stroke="black" d="M535.2,-121.71C535.2,-121.71 524.11,-94.79 518.05,-80.06"/>
<polygon fill="black" stroke="black" points="521.24,-78.62 514.2,-70.71 514.77,-81.29 521.24,-78.62"/>
<text text-anchor="middle" x="540.2" y="-92.51" font-family="Helvetica,sans-Serif" font-size="14.00">&gt; 0</text>
</g>
<!-- 11 -->
<g id="node14" class="node">
<title>11</title>
<ellipse fill="#4485e5" stroke="black" cx="874.2" cy="-35.36" rx="144.5" ry="35.21"/>
<text text-anchor="start" x="780.2" y="-46.16" font-family="Helvetica,sans-Serif" font-weight="bold" font-size="14.00"> Class=tested_positive </text>
<text text-anchor="start" x="963.2" y="-46.16" font-family="Helvetica,sans-Serif" font-size="14.00"> </text>
<text text-anchor="start" x="800.2" y="-32.16" font-family="Helvetica,sans-Serif" font-size="14.00"> error: 0.297, n=768 </text>
<text text-anchor="start" x="819.2" y="-18.16" font-family="Helvetica,sans-Serif" font-size="14.00"> p: (0.05, 0.95) </text>
</g>
<!-- 10&#45;&gt;11 -->
<g id="edge13" class="edge">
<title>10:s&#45;&gt;11:n</title>
<path fill="none" stroke="black" d="M853.2,-121.71C853.2,-121.71 864.29,-94.79 870.35,-80.06"/>
<polygon fill="black" stroke="black" points="873.63,-81.29 874.2,-70.71 867.16,-78.62 873.63,-81.29"/>
<text text-anchor="middle" x="894.2" y="-92.51" font-family="Helvetica,sans-Serif" font-size="14.00">&lt;= 328</text>
</g>
<!-- 16 -->
<g id="node18" class="node">
<title>16</title>
<ellipse fill="#44e55e" stroke="black" cx="1266.2" cy="-289.71" rx="149.4" ry="35.21"/>
<text text-anchor="start" x="1168.7" y="-300.51" font-family="Helvetica,sans-Serif" font-weight="bold" font-size="14.00"> Class=tested_negative </text>
<text text-anchor="start" x="1358.7" y="-300.51" font-family="Helvetica,sans-Serif" font-size="14.00"> </text>
<text text-anchor="start" x="1192.2" y="-286.51" font-family="Helvetica,sans-Serif" font-size="14.00"> error: 0.073, n=768 </text>
<text text-anchor="start" x="1211.2" y="-272.51" font-family="Helvetica,sans-Serif" font-size="14.00"> p: (0.99, 0.01) </text>
</g>
<!-- 15&#45;&gt;16 -->
<g id="edge17" class="edge">
<title>15:s&#45;&gt;16:n</title>
<path fill="none" stroke="black" d="M1266.2,-379.71C1266.2,-379.71 1266.2,-352.33 1266.2,-336.93"/>
<polygon fill="black" stroke="black" points="1269.7,-336.71 1266.2,-326.71 1262.7,-336.71 1269.7,-336.71"/>
<text text-anchor="middle" x="1279.2" y="-350.51" font-family="Helvetica,sans-Serif" font-size="14.00">&gt; 0</text>
</g>
<!-- 18 -->
<g id="node19" class="node">
<title>18</title>
<polygon fill="#44e55e" stroke="black" points="1698.7,-328.71 1487.7,-328.71 1487.7,-250.71 1698.7,-250.71 1698.7,-328.71"/>
<text text-anchor="start" x="1495.7" y="-314.51" font-family="Helvetica,sans-Serif" font-weight="bold" font-size="14.00"> Class=tested_negative </text>
<text text-anchor="start" x="1685.7" y="-314.51" font-family="Helvetica,sans-Serif" font-size="14.00"> </text>
<text text-anchor="start" x="1519.2" y="-300.51" font-family="Helvetica,sans-Serif" font-size="14.00"> error: 0.664, n=768 </text>
<text text-anchor="start" x="1538.2" y="-286.51" font-family="Helvetica,sans-Serif" font-size="14.00"> p: (0.83, 0.17) </text>
<text text-anchor="start" x="1582.2" y="-272.51" font-family="Helvetica,sans-Serif" font-size="14.00">&#45;&#45;&#45;&#45;</text>
<text text-anchor="start" x="1574.7" y="-258.51" font-family="Helvetica,sans-Serif" font-weight="bold" font-size="14.00">preg</text>
</g>
<!-- 17&#45;&gt;18 -->
<g id="edge18" class="edge">
<title>17:s&#45;&gt;18:n</title>
<path fill="none" stroke="black" d="M1593.2,-379.71C1593.2,-379.71 1593.2,-353.93 1593.2,-339.03"/>
<polygon fill="black" stroke="black" points="1596.7,-338.71 1593.2,-328.71 1589.7,-338.71 1596.7,-338.71"/>
<text text-anchor="middle" x="1616.7" y="-350.51" font-family="Helvetica,sans-Serif" font-size="14.00">&lt;= 31</text>
</g>
<!-- 22 -->
<g id="node20" class="node">
<title>22</title>
<polygon fill="#44e55e" stroke="black" points="2084.7,-328.71 1873.7,-328.71 1873.7,-250.71 2084.7,-250.71 2084.7,-328.71"/>
<text text-anchor="start" x="1881.7" y="-314.51" font-family="Helvetica,sans-Serif" font-weight="bold" font-size="14.00"> Class=tested_negative </text>
<text text-anchor="start" x="2071.7" y="-314.51" font-family="Helvetica,sans-Serif" font-size="14.00"> </text>
<text text-anchor="start" x="1905.2" y="-300.51" font-family="Helvetica,sans-Serif" font-size="14.00"> error: 0.984, n=768 </text>
<text text-anchor="start" x="1924.2" y="-286.51" font-family="Helvetica,sans-Serif" font-size="14.00"> p: (0.57, 0.43) </text>
<text text-anchor="start" x="1968.2" y="-272.51" font-family="Helvetica,sans-Serif" font-size="14.00">&#45;&#45;&#45;&#45;</text>
<text text-anchor="start" x="1962.7" y="-258.51" font-family="Helvetica,sans-Serif" font-weight="bold" font-size="14.00">plas</text>
</g>
<!-- 17&#45;&gt;22 -->
<g id="edge19" class="edge">
<title>17:s&#45;&gt;22:n</title>
<path fill="none" stroke="black" d="M1593.2,-379.71C1593.2,-379.71 1908.85,-338.01 1969.27,-330.02"/>
<polygon fill="black" stroke="black" points="1969.74,-333.49 1979.2,-328.71 1968.83,-326.55 1969.74,-333.49"/>
<text text-anchor="middle" x="1849.7" y="-350.51" font-family="Helvetica,sans-Serif" font-size="14.00">&gt; 31</text>
</g>
<!-- 19 -->
<g id="node21" class="node">
<title>19</title>
<polygon fill="#3dccba" stroke="black" points="1698.7,-199.71 1487.7,-199.71 1487.7,-121.71 1698.7,-121.71 1698.7,-199.71"/>
<text text-anchor="start" x="1495.7" y="-185.51" font-family="Helvetica,sans-Serif" font-weight="bold" font-size="14.00"> Class=tested_negative </text>
<text text-anchor="start" x="1685.7" y="-185.51" font-family="Helvetica,sans-Serif" font-size="14.00"> </text>
<text text-anchor="start" x="1519.2" y="-171.51" font-family="Helvetica,sans-Serif" font-size="14.00"> error: 0.618, n=768 </text>
<text text-anchor="start" x="1538.2" y="-157.51" font-family="Helvetica,sans-Serif" font-size="14.00"> p: (0.85, 0.15) </text>
<text text-anchor="start" x="1582.2" y="-143.51" font-family="Helvetica,sans-Serif" font-size="14.00">&#45;&#45;&#45;&#45;</text>
<text text-anchor="start" x="1572.7" y="-129.51" font-family="Helvetica,sans-Serif" font-weight="bold" font-size="14.00">mass</text>
</g>
<!-- 18&#45;&gt;19 -->
<g id="edge20" class="edge">
<title>18:s&#45;&gt;19:n</title>
<path fill="none" stroke="black" d="M1593.2,-250.71C1593.2,-250.71 1593.2,-224.93 1593.2,-210.03"/>
<polygon fill="black" stroke="black" points="1596.7,-209.71 1593.2,-199.71 1589.7,-209.71 1596.7,-209.71"/>
<text text-anchor="middle" x="1612.2" y="-221.51" font-family="Helvetica,sans-Serif" font-size="14.00">&lt;= 6</text>
</g>
<!-- 23 -->
<g id="node24" class="node">
<title>23</title>
<polygon fill="#3dccba" stroke="black" points="2084.7,-199.71 1873.7,-199.71 1873.7,-121.71 2084.7,-121.71 2084.7,-199.71"/>
<text text-anchor="start" x="1881.7" y="-185.51" font-family="Helvetica,sans-Serif" font-weight="bold" font-size="14.00"> Class=tested_negative </text>
<text text-anchor="start" x="2071.7" y="-185.51" font-family="Helvetica,sans-Serif" font-size="14.00"> </text>
<text text-anchor="start" x="1905.2" y="-171.51" font-family="Helvetica,sans-Serif" font-size="14.00"> error: 0.740, n=768 </text>
<text text-anchor="start" x="1924.2" y="-157.51" font-family="Helvetica,sans-Serif" font-size="14.00"> p: (0.79, 0.21) </text>
<text text-anchor="start" x="1968.2" y="-143.51" font-family="Helvetica,sans-Serif" font-size="14.00">&#45;&#45;&#45;&#45;</text>
<text text-anchor="start" x="1962.7" y="-129.51" font-family="Helvetica,sans-Serif" font-weight="bold" font-size="14.00">plas</text>
</g>
<!-- 22&#45;&gt;23 -->
<g id="edge23" class="edge">
<title>22:s&#45;&gt;23:n</title>
<path fill="none" stroke="black" d="M1979.2,-250.71C1979.2,-250.71 1979.2,-224.93 1979.2,-210.03"/>
<polygon fill="black" stroke="black" points="1982.7,-209.71 1979.2,-199.71 1975.7,-209.71 1982.7,-209.71"/>
<text text-anchor="middle" x="2002.7" y="-221.51" font-family="Helvetica,sans-Serif" font-size="14.00">&lt;= 98</text>
</g>
<!-- 25 -->
<g id="node25" class="node">
<title>25</title>
<polygon fill="#3dccba" stroke="black" points="2451.2,-199.71 2247.2,-199.71 2247.2,-121.71 2451.2,-121.71 2451.2,-199.71"/>
<text text-anchor="start" x="2255.2" y="-185.51" font-family="Helvetica,sans-Serif" font-weight="bold" font-size="14.00"> Class=tested_positive </text>
<text text-anchor="start" x="2438.2" y="-185.51" font-family="Helvetica,sans-Serif" font-size="14.00"> </text>
<text text-anchor="start" x="2275.2" y="-171.51" font-family="Helvetica,sans-Serif" font-size="14.00"> error: 0.999, n=768 </text>
<text text-anchor="start" x="2294.2" y="-157.51" font-family="Helvetica,sans-Serif" font-size="14.00"> p: (0.49, 0.51) </text>
<text text-anchor="start" x="2338.2" y="-143.51" font-family="Helvetica,sans-Serif" font-size="14.00">&#45;&#45;&#45;&#45;</text>
<text text-anchor="start" x="2332.2" y="-129.51" font-family="Helvetica,sans-Serif" font-weight="bold" font-size="14.00">pedi</text>
</g>
<!-- 22&#45;&gt;25 -->
<g id="edge24" class="edge">
<title>22:s&#45;&gt;25:n</title>
<path fill="none" stroke="black" d="M1979.2,-250.71C1979.2,-250.71 2279.16,-209.36 2338.92,-201.13"/>
<polygon fill="black" stroke="black" points="2339.77,-204.54 2349.2,-199.71 2338.82,-197.61 2339.77,-204.54"/>
<text text-anchor="middle" x="2226.7" y="-221.51" font-family="Helvetica,sans-Serif" font-size="14.00">&gt; 98</text>
</g>
<!-- 20 -->
<g id="node22" class="node">
<title>20</title>
<ellipse fill="#4485e5" stroke="black" cx="1239.2" cy="-35.36" rx="149.4" ry="35.21"/>
<text text-anchor="start" x="1141.7" y="-46.16" font-family="Helvetica,sans-Serif" font-weight="bold" font-size="14.00"> Class=tested_negative </text>
<text text-anchor="start" x="1331.7" y="-46.16" font-family="Helvetica,sans-Serif" font-size="14.00"> </text>
<text text-anchor="start" x="1165.2" y="-32.16" font-family="Helvetica,sans-Serif" font-size="14.00"> error: 0.264, n=768 </text>
<text text-anchor="start" x="1184.2" y="-18.16" font-family="Helvetica,sans-Serif" font-size="14.00"> p: (0.96, 0.04) </text>
</g>
<!-- 19&#45;&gt;20 -->
<g id="edge21" class="edge">
<title>19:s&#45;&gt;20:n</title>
<path fill="none" stroke="black" d="M1593.2,-121.71C1593.2,-121.71 1307.45,-80.54 1249.41,-72.18"/>
<polygon fill="black" stroke="black" points="1249.6,-68.67 1239.2,-70.71 1248.6,-75.6 1249.6,-68.67"/>
<text text-anchor="middle" x="1482.7" y="-92.51" font-family="Helvetica,sans-Serif" font-size="14.00">&lt;= 30</text>
</g>
<!-- 21 -->
<g id="node23" class="node">
<title>21</title>
<ellipse fill="#4485e5" stroke="black" cx="1609.2" cy="-35.36" rx="149.4" ry="35.21"/>
<text text-anchor="start" x="1511.7" y="-46.16" font-family="Helvetica,sans-Serif" font-weight="bold" font-size="14.00"> Class=tested_negative </text>
<text text-anchor="start" x="1701.7" y="-46.16" font-family="Helvetica,sans-Serif" font-size="14.00"> </text>
<text text-anchor="start" x="1535.2" y="-32.16" font-family="Helvetica,sans-Serif" font-size="14.00"> error: 0.715, n=768 </text>
<text text-anchor="start" x="1554.2" y="-18.16" font-family="Helvetica,sans-Serif" font-size="14.00"> p: (0.80, 0.20) </text>
</g>
<!-- 19&#45;&gt;21 -->
<g id="edge22" class="edge">
<title>19:s&#45;&gt;21:n</title>
<path fill="none" stroke="black" d="M1593.2,-121.71C1593.2,-121.71 1601.47,-95.36 1606.11,-80.54"/>
<polygon fill="black" stroke="black" points="1609.55,-81.3 1609.2,-70.71 1602.87,-79.2 1609.55,-81.3"/>
<text text-anchor="middle" x="1620.7" y="-92.51" font-family="Helvetica,sans-Serif" font-size="14.00">&gt; 30</text>
</g>
<!-- 24 -->
<g id="node26" class="node">
<title>24</title>
<ellipse fill="#4485e5" stroke="black" cx="1979.2" cy="-35.36" rx="149.4" ry="35.21"/>
<text text-anchor="start" x="1881.7" y="-46.16" font-family="Helvetica,sans-Serif" font-weight="bold" font-size="14.00"> Class=tested_negative </text>
<text text-anchor="start" x="2071.7" y="-46.16" font-family="Helvetica,sans-Serif" font-size="14.00"> </text>
<text text-anchor="start" x="1905.2" y="-32.16" font-family="Helvetica,sans-Serif" font-size="14.00"> error: 0.659, n=768 </text>
<text text-anchor="start" x="1924.2" y="-18.16" font-family="Helvetica,sans-Serif" font-size="14.00"> p: (0.83, 0.17) </text>
</g>
<!-- 23&#45;&gt;24 -->
<g id="edge25" class="edge">
<title>23:s&#45;&gt;24:n</title>
<path fill="none" stroke="black" d="M1979.2,-121.71C1979.2,-121.71 1979.2,-95.93 1979.2,-81.03"/>
<polygon fill="black" stroke="black" points="1982.7,-80.71 1979.2,-70.71 1975.7,-80.71 1982.7,-80.71"/>
<text text-anchor="middle" x="1992.2" y="-92.51" font-family="Helvetica,sans-Serif" font-size="14.00">&gt; 0</text>
</g>
<!-- 26 -->
<g id="node27" class="node">
<title>26</title>
<ellipse fill="#4485e5" stroke="black" cx="2349.2" cy="-35.36" rx="149.4" ry="35.21"/>
<text text-anchor="start" x="2251.7" y="-46.16" font-family="Helvetica,sans-Serif" font-weight="bold" font-size="14.00"> Class=tested_negative </text>
<text text-anchor="start" x="2441.7" y="-46.16" font-family="Helvetica,sans-Serif" font-size="14.00"> </text>
<text text-anchor="start" x="2275.2" y="-32.16" font-family="Helvetica,sans-Serif" font-size="14.00"> error: 0.953, n=768 </text>
<text text-anchor="start" x="2294.2" y="-18.16" font-family="Helvetica,sans-Serif" font-size="14.00"> p: (0.63, 0.37) </text>
</g>
<!-- 25&#45;&gt;26 -->
<g id="edge26" class="edge">
<title>25:s&#45;&gt;26:n</title>
<path fill="none" stroke="black" d="M2349.2,-121.71C2349.2,-121.71 2349.2,-95.93 2349.2,-81.03"/>
<polygon fill="black" stroke="black" points="2352.7,-80.71 2349.2,-70.71 2345.7,-80.71 2352.7,-80.71"/>
<text text-anchor="middle" x="2384.2" y="-92.51" font-family="Helvetica,sans-Serif" font-size="14.00">&lt;= 0.388</text>
</g>
<!-- 27 -->
<g id="node28" class="node">
<title>27</title>
<ellipse fill="#4485e5" stroke="black" cx="2714.2" cy="-35.36" rx="144.5" ry="35.21"/>
<text text-anchor="start" x="2620.2" y="-46.16" font-family="Helvetica,sans-Serif" font-weight="bold" font-size="14.00"> Class=tested_positive </text>
<text text-anchor="start" x="2803.2" y="-46.16" font-family="Helvetica,sans-Serif" font-size="14.00"> </text>
<text text-anchor="start" x="2640.2" y="-32.16" font-family="Helvetica,sans-Serif" font-size="14.00"> error: 0.896, n=768 </text>
<text text-anchor="start" x="2659.2" y="-18.16" font-family="Helvetica,sans-Serif" font-size="14.00"> p: (0.31, 0.69) </text>
</g>
<!-- 25&#45;&gt;27 -->
<g id="edge27" class="edge">
<title>25:s&#45;&gt;27:n</title>
<path fill="none" stroke="black" d="M2349.2,-121.71C2349.2,-121.71 2645.11,-80.36 2704.06,-72.13"/>
<polygon fill="black" stroke="black" points="2704.78,-75.56 2714.2,-70.71 2703.81,-68.63 2704.78,-75.56"/>
<text text-anchor="middle" x="2603.2" y="-92.51" font-family="Helvetica,sans-Serif" font-size="14.00">&gt; 0.388</text>
</g>
</g>
</svg>
