<?xml version="1.0" encoding="UTF-8" standalone="no"?>
<!DOCTYPE svg PUBLIC "-//W3C//DTD SVG 1.1//EN"
 "http://www.w3.org/Graphics/SVG/1.1/DTD/svg11.dtd">
<!-- Generated by graphviz version 2.43.0 (0)
 -->
<!-- Title: Tree Pages: 1 -->
<svg width="2039pt" height="1212pt"
 viewBox="0.00 0.00 2038.66 1211.71" xmlns="http://www.w3.org/2000/svg" xmlns:xlink="http://www.w3.org/1999/xlink">
<g id="graph0" class="graph" transform="scale(1 1) rotate(0) translate(18 1193.71)">
<title>Tree</title>
<polygon fill="white" stroke="transparent" points="-18,18 -18,-1193.71 2020.66,-1193.71 2020.66,18 -18,18"/>
<!-- 0 -->
<g id="node1" class="node">
<title>0</title>
<polygon fill="white" stroke="transparent" points="1193.33,-1175.71 1139.33,-1175.71 1139.33,-1139.71 1193.33,-1139.71 1193.33,-1175.71"/>
<text text-anchor="middle" x="1166.33" y="-1154.01" font-family="Helvetica,sans-Serif" font-size="14.00">0</text>
</g>
<!-- 1 -->
<g id="node2" class="node">
<title>1</title>
<polygon fill="#cc3d3d" stroke="black" points="1252.83,-1102.71 1079.83,-1102.71 1079.83,-1024.71 1252.83,-1024.71 1252.83,-1102.71"/>
<text text-anchor="start" x="1127.33" y="-1088.51" font-family="Helvetica,sans-Serif" font-weight="bold" font-size="14.00"> Class=3 </text>
<text text-anchor="start" x="1200.33" y="-1088.51" font-family="Helvetica,sans-Serif" font-size="14.00"> </text>
<text text-anchor="start" x="1087.83" y="-1074.51" font-family="Helvetica,sans-Serif" font-size="14.00"> error: 0.934, n=3186 </text>
<text text-anchor="start" x="1090.83" y="-1060.51" font-family="Helvetica,sans-Serif" font-size="14.00"> p: (0.24, 0.24, 0.52) </text>
<text text-anchor="start" x="1158.33" y="-1046.51" font-family="Helvetica,sans-Serif" font-size="14.00">&#45;&#45;&#45;</text>
<text text-anchor="start" x="1150.83" y="-1032.51" font-family="Helvetica,sans-Serif" font-weight="bold" font-size="14.00">A89</text>
</g>
<!-- 0&#45;&gt;1 -->
<!-- 2 -->
<g id="node3" class="node">
<title>2</title>
<polygon fill="#e58d44" stroke="black" points="1112.83,-973.71 939.83,-973.71 939.83,-895.71 1112.83,-895.71 1112.83,-973.71"/>
<text text-anchor="start" x="987.33" y="-959.51" font-family="Helvetica,sans-Serif" font-weight="bold" font-size="14.00"> Class=2 </text>
<text text-anchor="start" x="1060.33" y="-959.51" font-family="Helvetica,sans-Serif" font-size="14.00"> </text>
<text text-anchor="start" x="947.83" y="-945.51" font-family="Helvetica,sans-Serif" font-size="14.00"> error: 0.976, n=3186 </text>
<text text-anchor="start" x="950.83" y="-931.51" font-family="Helvetica,sans-Serif" font-size="14.00"> p: (0.34, 0.42, 0.24) </text>
<text text-anchor="start" x="1018.33" y="-917.51" font-family="Helvetica,sans-Serif" font-size="14.00">&#45;&#45;&#45;</text>
<text text-anchor="start" x="1010.83" y="-903.51" font-family="Helvetica,sans-Serif" font-weight="bold" font-size="14.00">A84</text>
</g>
<!-- 1&#45;&gt;2 -->
<g id="edge2" class="edge">
<title>1:s&#45;&gt;2:n</title>
<path fill="none" stroke="black" d="M1166.33,-1024.71C1166.33,-1024.71 1067.58,-988.74 1035.95,-977.22"/>
<polygon fill="black" stroke="black" points="1036.92,-973.84 1026.33,-973.71 1034.53,-980.42 1036.92,-973.84"/>
<text text-anchor="middle" x="1118.33" y="-995.51" font-family="Helvetica,sans-Serif" font-size="14.00">1</text>
</g>
<!-- 27 -->
<g id="node4" class="node">
<title>27</title>
<polygon fill="#e58d44" stroke="black" points="1400.83,-973.71 1227.83,-973.71 1227.83,-895.71 1400.83,-895.71 1400.83,-973.71"/>
<text text-anchor="start" x="1275.33" y="-959.51" font-family="Helvetica,sans-Serif" font-weight="bold" font-size="14.00"> Class=3 </text>
<text text-anchor="start" x="1348.33" y="-959.51" font-family="Helvetica,sans-Serif" font-size="14.00"> </text>
<text text-anchor="start" x="1235.83" y="-945.51" font-family="Helvetica,sans-Serif" font-size="14.00"> error: 0.312, n=3186 </text>
<text text-anchor="start" x="1238.83" y="-931.51" font-family="Helvetica,sans-Serif" font-size="14.00"> p: (0.10, 0.00, 0.90) </text>
<text text-anchor="start" x="1303.33" y="-917.51" font-family="Helvetica,sans-Serif" font-size="14.00">&#45;&#45;&#45;&#45;</text>
<text text-anchor="start" x="1294.33" y="-903.51" font-family="Helvetica,sans-Serif" font-weight="bold" font-size="14.00">A104</text>
</g>
<!-- 1&#45;&gt;27 -->
<g id="edge3" class="edge">
<title>1:s&#45;&gt;27:n</title>
<path fill="none" stroke="black" d="M1166.33,-1024.71C1166.33,-1024.71 1271.69,-988.4 1304.62,-977.06"/>
<polygon fill="black" stroke="black" points="1306.02,-980.28 1314.33,-973.71 1303.73,-973.66 1306.02,-980.28"/>
<text text-anchor="middle" x="1263.33" y="-995.51" font-family="Helvetica,sans-Serif" font-size="14.00">0</text>
</g>
<!-- 3 -->
<g id="node5" class="node">
<title>3</title>
<polygon fill="#ccbd3d" stroke="black" points="828.83,-844.71 655.83,-844.71 655.83,-766.71 828.83,-766.71 828.83,-844.71"/>
<text text-anchor="start" x="703.33" y="-830.51" font-family="Helvetica,sans-Serif" font-weight="bold" font-size="14.00"> Class=2 </text>
<text text-anchor="start" x="776.33" y="-830.51" font-family="Helvetica,sans-Serif" font-size="14.00"> </text>
<text text-anchor="start" x="663.83" y="-816.51" font-family="Helvetica,sans-Serif" font-size="14.00"> error: 0.819, n=3186 </text>
<text text-anchor="start" x="666.83" y="-802.51" font-family="Helvetica,sans-Serif" font-size="14.00"> p: (0.30, 0.60, 0.10) </text>
<text text-anchor="start" x="734.33" y="-788.51" font-family="Helvetica,sans-Serif" font-size="14.00">&#45;&#45;&#45;</text>
<text text-anchor="start" x="726.83" y="-774.51" font-family="Helvetica,sans-Serif" font-weight="bold" font-size="14.00">A92</text>
</g>
<!-- 2&#45;&gt;3 -->
<g id="edge4" class="edge">
<title>2:s&#45;&gt;3:n</title>
<path fill="none" stroke="black" d="M1026.33,-895.71C1026.33,-895.71 803.03,-855.61 752.44,-846.53"/>
<polygon fill="black" stroke="black" points="752.79,-843.03 742.33,-844.71 751.55,-849.92 752.79,-843.03"/>
<text text-anchor="middle" x="923.33" y="-866.51" font-family="Helvetica,sans-Serif" font-size="14.00">1</text>
</g>
<!-- 19 -->
<g id="node6" class="node">
<title>19</title>
<polygon fill="#ccbd3d" stroke="black" points="1112.83,-844.71 939.83,-844.71 939.83,-766.71 1112.83,-766.71 1112.83,-844.71"/>
<text text-anchor="start" x="987.33" y="-830.51" font-family="Helvetica,sans-Serif" font-weight="bold" font-size="14.00"> Class=3 </text>
<text text-anchor="start" x="1060.33" y="-830.51" font-family="Helvetica,sans-Serif" font-size="14.00"> </text>
<text text-anchor="start" x="947.83" y="-816.51" font-family="Helvetica,sans-Serif" font-size="14.00"> error: 0.644, n=3186 </text>
<text text-anchor="start" x="950.83" y="-802.51" font-family="Helvetica,sans-Serif" font-size="14.00"> p: (0.44, 0.00, 0.56) </text>
<text text-anchor="start" x="1018.33" y="-788.51" font-family="Helvetica,sans-Serif" font-size="14.00">&#45;&#45;&#45;</text>
<text text-anchor="start" x="1010.83" y="-774.51" font-family="Helvetica,sans-Serif" font-weight="bold" font-size="14.00">A92</text>
</g>
<!-- 2&#45;&gt;19 -->
<g id="edge5" class="edge">
<title>2:s&#45;&gt;19:n</title>
<path fill="none" stroke="black" d="M1026.33,-895.71C1026.33,-895.71 1026.33,-869.93 1026.33,-855.03"/>
<polygon fill="black" stroke="black" points="1029.83,-854.71 1026.33,-844.71 1022.83,-854.71 1029.83,-854.71"/>
<text text-anchor="middle" x="1031.33" y="-866.51" font-family="Helvetica,sans-Serif" font-size="14.00">0</text>
</g>
<!-- 28 -->
<g id="node29" class="node">
<title>28</title>
<ellipse fill="#ccbd3d" stroke="black" cx="1314.33" cy="-805.71" rx="122.16" ry="35.21"/>
<text text-anchor="start" x="1275.33" y="-816.51" font-family="Helvetica,sans-Serif" font-weight="bold" font-size="14.00"> Class=3 </text>
<text text-anchor="start" x="1348.33" y="-816.51" font-family="Helvetica,sans-Serif" font-size="14.00"> </text>
<text text-anchor="start" x="1235.83" y="-802.51" font-family="Helvetica,sans-Serif" font-size="14.00"> error: 0.033, n=3186 </text>
<text text-anchor="start" x="1238.83" y="-788.51" font-family="Helvetica,sans-Serif" font-size="14.00"> p: (0.00, 0.00, 0.99) </text>
</g>
<!-- 27&#45;&gt;28 -->
<g id="edge28" class="edge">
<title>27:s&#45;&gt;28:n</title>
<path fill="none" stroke="black" d="M1314.33,-895.71C1314.33,-895.71 1314.33,-868.33 1314.33,-852.93"/>
<polygon fill="black" stroke="black" points="1317.83,-852.71 1314.33,-842.71 1310.83,-852.71 1317.83,-852.71"/>
<text text-anchor="middle" x="1319.33" y="-866.51" font-family="Helvetica,sans-Serif" font-size="14.00">0</text>
</g>
<!-- 29 -->
<g id="node30" class="node">
<title>29</title>
<polygon fill="#ccbd3d" stroke="black" points="1685.83,-844.71 1512.83,-844.71 1512.83,-766.71 1685.83,-766.71 1685.83,-844.71"/>
<text text-anchor="start" x="1560.33" y="-830.51" font-family="Helvetica,sans-Serif" font-weight="bold" font-size="14.00"> Class=3 </text>
<text text-anchor="start" x="1633.33" y="-830.51" font-family="Helvetica,sans-Serif" font-size="14.00"> </text>
<text text-anchor="start" x="1520.83" y="-816.51" font-family="Helvetica,sans-Serif" font-size="14.00"> error: 0.576, n=3186 </text>
<text text-anchor="start" x="1523.83" y="-802.51" font-family="Helvetica,sans-Serif" font-size="14.00"> p: (0.33, 0.00, 0.67) </text>
<text text-anchor="start" x="1591.33" y="-788.51" font-family="Helvetica,sans-Serif" font-size="14.00">&#45;&#45;&#45;</text>
<text text-anchor="start" x="1583.83" y="-774.51" font-family="Helvetica,sans-Serif" font-weight="bold" font-size="14.00">A92</text>
</g>
<!-- 27&#45;&gt;29 -->
<g id="edge29" class="edge">
<title>27:s&#45;&gt;29:n</title>
<path fill="none" stroke="black" d="M1314.33,-895.71C1314.33,-895.71 1538.42,-855.61 1589.19,-846.53"/>
<polygon fill="black" stroke="black" points="1590.1,-849.92 1599.33,-844.71 1588.87,-843.03 1590.1,-849.92"/>
<text text-anchor="middle" x="1496.33" y="-866.51" font-family="Helvetica,sans-Serif" font-size="14.00">1</text>
</g>
<!-- 4 -->
<g id="node7" class="node">
<title>4</title>
<polygon fill="#ade544" stroke="black" points="525.83,-715.71 352.83,-715.71 352.83,-637.71 525.83,-637.71 525.83,-715.71"/>
<text text-anchor="start" x="400.33" y="-701.51" font-family="Helvetica,sans-Serif" font-weight="bold" font-size="14.00"> Class=2 </text>
<text text-anchor="start" x="473.33" y="-701.51" font-family="Helvetica,sans-Serif" font-size="14.00"> </text>
<text text-anchor="start" x="360.83" y="-687.51" font-family="Helvetica,sans-Serif" font-size="14.00"> error: 0.411, n=3186 </text>
<text text-anchor="start" x="363.83" y="-673.51" font-family="Helvetica,sans-Serif" font-size="14.00"> p: (0.00, 0.83, 0.17) </text>
<text text-anchor="start" x="431.33" y="-659.51" font-family="Helvetica,sans-Serif" font-size="14.00">&#45;&#45;&#45;</text>
<text text-anchor="start" x="423.83" y="-645.51" font-family="Helvetica,sans-Serif" font-weight="bold" font-size="14.00">A82</text>
</g>
<!-- 3&#45;&gt;4 -->
<g id="edge6" class="edge">
<title>3:s&#45;&gt;4:n</title>
<path fill="none" stroke="black" d="M742.33,-766.71C742.33,-766.71 501.99,-726.26 449.41,-717.41"/>
<polygon fill="black" stroke="black" points="449.77,-713.92 439.33,-715.71 448.61,-720.82 449.77,-713.92"/>
<text text-anchor="middle" x="632.33" y="-737.51" font-family="Helvetica,sans-Serif" font-size="14.00">0</text>
</g>
<!-- 9 -->
<g id="node8" class="node">
<title>9</title>
<polygon fill="#ade544" stroke="black" points="828.83,-715.71 655.83,-715.71 655.83,-637.71 828.83,-637.71 828.83,-715.71"/>
<text text-anchor="start" x="703.33" y="-701.51" font-family="Helvetica,sans-Serif" font-weight="bold" font-size="14.00"> Class=1 </text>
<text text-anchor="start" x="776.33" y="-701.51" font-family="Helvetica,sans-Serif" font-size="14.00"> </text>
<text text-anchor="start" x="663.83" y="-687.51" font-family="Helvetica,sans-Serif" font-size="14.00"> error: 0.797, n=3186 </text>
<text text-anchor="start" x="666.83" y="-673.51" font-family="Helvetica,sans-Serif" font-size="14.00"> p: (0.49, 0.45, 0.06) </text>
<text text-anchor="start" x="731.33" y="-659.51" font-family="Helvetica,sans-Serif" font-size="14.00">&#45;&#45;&#45;&#45;</text>
<text text-anchor="start" x="722.33" y="-645.51" font-family="Helvetica,sans-Serif" font-weight="bold" font-size="14.00">A104</text>
</g>
<!-- 3&#45;&gt;9 -->
<g id="edge7" class="edge">
<title>3:s&#45;&gt;9:n</title>
<path fill="none" stroke="black" d="M742.33,-766.71C742.33,-766.71 742.33,-740.93 742.33,-726.03"/>
<polygon fill="black" stroke="black" points="745.83,-725.71 742.33,-715.71 738.83,-725.71 745.83,-725.71"/>
<text text-anchor="middle" x="747.33" y="-737.51" font-family="Helvetica,sans-Serif" font-size="14.00">1</text>
</g>
<!-- 20 -->
<g id="node22" class="node">
<title>20</title>
<ellipse fill="#ade544" stroke="black" cx="1024.33" cy="-676.71" rx="122.16" ry="35.21"/>
<text text-anchor="start" x="985.33" y="-687.51" font-family="Helvetica,sans-Serif" font-weight="bold" font-size="14.00"> Class=3 </text>
<text text-anchor="start" x="1058.33" y="-687.51" font-family="Helvetica,sans-Serif" font-size="14.00"> </text>
<text text-anchor="start" x="945.83" y="-673.51" font-family="Helvetica,sans-Serif" font-size="14.00"> error: 0.050, n=3186 </text>
<text text-anchor="start" x="948.83" y="-659.51" font-family="Helvetica,sans-Serif" font-size="14.00"> p: (0.00, 0.01, 0.99) </text>
</g>
<!-- 19&#45;&gt;20 -->
<g id="edge21" class="edge">
<title>19:s&#45;&gt;20:n</title>
<path fill="none" stroke="black" d="M1026.33,-766.71C1026.33,-766.71 1025.3,-739.33 1024.72,-723.93"/>
<polygon fill="black" stroke="black" points="1028.2,-723.57 1024.33,-713.71 1021.21,-723.84 1028.2,-723.57"/>
<text text-anchor="middle" x="1031.33" y="-737.51" font-family="Helvetica,sans-Serif" font-size="14.00">0</text>
</g>
<!-- 21 -->
<g id="node23" class="node">
<title>21</title>
<polygon fill="#ade544" stroke="black" points="1391.83,-715.71 1218.83,-715.71 1218.83,-637.71 1391.83,-637.71 1391.83,-715.71"/>
<text text-anchor="start" x="1266.33" y="-701.51" font-family="Helvetica,sans-Serif" font-weight="bold" font-size="14.00"> Class=1 </text>
<text text-anchor="start" x="1339.33" y="-701.51" font-family="Helvetica,sans-Serif" font-size="14.00"> </text>
<text text-anchor="start" x="1226.83" y="-687.51" font-family="Helvetica,sans-Serif" font-size="14.00"> error: 0.552, n=3186 </text>
<text text-anchor="start" x="1229.83" y="-673.51" font-family="Helvetica,sans-Serif" font-size="14.00"> p: (0.71, 0.00, 0.29) </text>
<text text-anchor="start" x="1294.33" y="-659.51" font-family="Helvetica,sans-Serif" font-size="14.00">&#45;&#45;&#45;&#45;</text>
<text text-anchor="start" x="1285.33" y="-645.51" font-family="Helvetica,sans-Serif" font-weight="bold" font-size="14.00">A104</text>
</g>
<!-- 19&#45;&gt;21 -->
<g id="edge22" class="edge">
<title>19:s&#45;&gt;21:n</title>
<path fill="none" stroke="black" d="M1026.33,-766.71C1026.33,-766.71 1245.7,-726.61 1295.4,-717.53"/>
<polygon fill="black" stroke="black" points="1296.12,-720.95 1305.33,-715.71 1294.86,-714.07 1296.12,-720.95"/>
<text text-anchor="middle" x="1204.33" y="-737.51" font-family="Helvetica,sans-Serif" font-size="14.00">1</text>
</g>
<!-- 5 -->
<g id="node9" class="node">
<title>5</title>
<polygon fill="#59cc3d" stroke="black" points="244.83,-586.71 71.83,-586.71 71.83,-508.71 244.83,-508.71 244.83,-586.71"/>
<text text-anchor="start" x="119.33" y="-572.51" font-family="Helvetica,sans-Serif" font-weight="bold" font-size="14.00"> Class=2 </text>
<text text-anchor="start" x="192.33" y="-572.51" font-family="Helvetica,sans-Serif" font-size="14.00"> </text>
<text text-anchor="start" x="79.83" y="-558.51" font-family="Helvetica,sans-Serif" font-size="14.00"> error: 0.623, n=3186 </text>
<text text-anchor="start" x="82.83" y="-544.51" font-family="Helvetica,sans-Serif" font-size="14.00"> p: (0.00, 0.57, 0.43) </text>
<text text-anchor="start" x="150.33" y="-530.51" font-family="Helvetica,sans-Serif" font-size="14.00">&#45;&#45;&#45;</text>
<text text-anchor="start" x="142.83" y="-516.51" font-family="Helvetica,sans-Serif" font-weight="bold" font-size="14.00">A83</text>
</g>
<!-- 4&#45;&gt;5 -->
<g id="edge8" class="edge">
<title>4:s&#45;&gt;5:n</title>
<path fill="none" stroke="black" d="M439.33,-637.71C439.33,-637.71 218.39,-597.61 168.33,-588.53"/>
<polygon fill="black" stroke="black" points="168.79,-585.05 158.33,-586.71 167.54,-591.94 168.79,-585.05"/>
<text text-anchor="middle" x="337.33" y="-608.51" font-family="Helvetica,sans-Serif" font-size="14.00">0</text>
</g>
<!-- 7 -->
<g id="node10" class="node">
<title>7</title>
<polygon fill="#59cc3d" stroke="black" points="525.83,-586.71 352.83,-586.71 352.83,-508.71 525.83,-508.71 525.83,-586.71"/>
<text text-anchor="start" x="400.33" y="-572.51" font-family="Helvetica,sans-Serif" font-weight="bold" font-size="14.00"> Class=2 </text>
<text text-anchor="start" x="473.33" y="-572.51" font-family="Helvetica,sans-Serif" font-size="14.00"> </text>
<text text-anchor="start" x="360.83" y="-558.51" font-family="Helvetica,sans-Serif" font-size="14.00"> error: 0.233, n=3186 </text>
<text text-anchor="start" x="363.83" y="-544.51" font-family="Helvetica,sans-Serif" font-size="14.00"> p: (0.00, 0.93, 0.07) </text>
<text text-anchor="start" x="431.33" y="-530.51" font-family="Helvetica,sans-Serif" font-size="14.00">&#45;&#45;&#45;</text>
<text text-anchor="start" x="423.83" y="-516.51" font-family="Helvetica,sans-Serif" font-weight="bold" font-size="14.00">A74</text>
</g>
<!-- 4&#45;&gt;7 -->
<g id="edge9" class="edge">
<title>4:s&#45;&gt;7:n</title>
<path fill="none" stroke="black" d="M439.33,-637.71C439.33,-637.71 439.33,-611.93 439.33,-597.03"/>
<polygon fill="black" stroke="black" points="442.83,-596.71 439.33,-586.71 435.83,-596.71 442.83,-596.71"/>
<text text-anchor="middle" x="444.33" y="-608.51" font-family="Helvetica,sans-Serif" font-size="14.00">1</text>
</g>
<!-- 10 -->
<g id="node13" class="node">
<title>10</title>
<polygon fill="#59cc3d" stroke="black" points="806.83,-586.71 633.83,-586.71 633.83,-508.71 806.83,-508.71 806.83,-586.71"/>
<text text-anchor="start" x="681.33" y="-572.51" font-family="Helvetica,sans-Serif" font-weight="bold" font-size="14.00"> Class=1 </text>
<text text-anchor="start" x="754.33" y="-572.51" font-family="Helvetica,sans-Serif" font-size="14.00"> </text>
<text text-anchor="start" x="641.83" y="-558.51" font-family="Helvetica,sans-Serif" font-size="14.00"> error: 0.500, n=3186 </text>
<text text-anchor="start" x="644.83" y="-544.51" font-family="Helvetica,sans-Serif" font-size="14.00"> p: (0.80, 0.19, 0.01) </text>
<text text-anchor="start" x="712.33" y="-530.51" font-family="Helvetica,sans-Serif" font-size="14.00">&#45;&#45;&#45;</text>
<text text-anchor="start" x="704.83" y="-516.51" font-family="Helvetica,sans-Serif" font-weight="bold" font-size="14.00">A95</text>
</g>
<!-- 9&#45;&gt;10 -->
<g id="edge12" class="edge">
<title>9:s&#45;&gt;10:n</title>
<path fill="none" stroke="black" d="M742.33,-637.71C742.33,-637.71 730.72,-610.79 724.36,-596.06"/>
<polygon fill="black" stroke="black" points="727.5,-594.51 720.33,-586.71 721.08,-597.28 727.5,-594.51"/>
<text text-anchor="middle" x="739.33" y="-608.51" font-family="Helvetica,sans-Serif" font-size="14.00">1</text>
</g>
<!-- 14 -->
<g id="node14" class="node">
<title>14</title>
<polygon fill="#59cc3d" stroke="black" points="1051.83,-586.71 878.83,-586.71 878.83,-508.71 1051.83,-508.71 1051.83,-586.71"/>
<text text-anchor="start" x="926.33" y="-572.51" font-family="Helvetica,sans-Serif" font-weight="bold" font-size="14.00"> Class=2 </text>
<text text-anchor="start" x="999.33" y="-572.51" font-family="Helvetica,sans-Serif" font-size="14.00"> </text>
<text text-anchor="start" x="886.83" y="-558.51" font-family="Helvetica,sans-Serif" font-size="14.00"> error: 0.736, n=3186 </text>
<text text-anchor="start" x="889.83" y="-544.51" font-family="Helvetica,sans-Serif" font-size="14.00"> p: (0.21, 0.69, 0.10) </text>
<text text-anchor="start" x="957.33" y="-530.51" font-family="Helvetica,sans-Serif" font-size="14.00">&#45;&#45;&#45;</text>
<text text-anchor="start" x="949.83" y="-516.51" font-family="Helvetica,sans-Serif" font-weight="bold" font-size="14.00">A83</text>
</g>
<!-- 9&#45;&gt;14 -->
<g id="edge13" class="edge">
<title>9:s&#45;&gt;14:n</title>
<path fill="none" stroke="black" d="M742.33,-637.71C742.33,-637.71 912.3,-598.84 955.46,-588.97"/>
<polygon fill="black" stroke="black" points="956.36,-592.35 965.33,-586.71 954.8,-585.53 956.36,-592.35"/>
<text text-anchor="middle" x="886.33" y="-608.51" font-family="Helvetica,sans-Serif" font-size="14.00">0</text>
</g>
<!-- 6 -->
<g id="node11" class="node">
<title>6</title>
<ellipse fill="#44e56d" stroke="black" cx="122.33" cy="-418.71" rx="122.16" ry="35.21"/>
<text text-anchor="start" x="83.33" y="-429.51" font-family="Helvetica,sans-Serif" font-weight="bold" font-size="14.00"> Class=2 </text>
<text text-anchor="start" x="156.33" y="-429.51" font-family="Helvetica,sans-Serif" font-size="14.00"> </text>
<text text-anchor="start" x="43.83" y="-415.51" font-family="Helvetica,sans-Serif" font-size="14.00"> error: 0.566, n=3186 </text>
<text text-anchor="start" x="46.83" y="-401.51" font-family="Helvetica,sans-Serif" font-size="14.00"> p: (0.00, 0.69, 0.31) </text>
</g>
<!-- 5&#45;&gt;6 -->
<g id="edge10" class="edge">
<title>5:s&#45;&gt;6:n</title>
<path fill="none" stroke="black" d="M158.33,-508.71C158.33,-508.71 138.08,-478.9 127.95,-463.99"/>
<polygon fill="black" stroke="black" points="130.84,-462.02 122.33,-455.71 125.05,-465.95 130.84,-462.02"/>
<text text-anchor="middle" x="151.33" y="-479.51" font-family="Helvetica,sans-Serif" font-size="14.00">0</text>
</g>
<!-- 8 -->
<g id="node12" class="node">
<title>8</title>
<ellipse fill="#44e56d" stroke="black" cx="439.33" cy="-418.71" rx="122.16" ry="35.21"/>
<text text-anchor="start" x="400.33" y="-429.51" font-family="Helvetica,sans-Serif" font-weight="bold" font-size="14.00"> Class=2 </text>
<text text-anchor="start" x="473.33" y="-429.51" font-family="Helvetica,sans-Serif" font-size="14.00"> </text>
<text text-anchor="start" x="360.83" y="-415.51" font-family="Helvetica,sans-Serif" font-size="14.00"> error: 0.154, n=3186 </text>
<text text-anchor="start" x="363.83" y="-401.51" font-family="Helvetica,sans-Serif" font-size="14.00"> p: (0.00, 0.96, 0.04) </text>
</g>
<!-- 7&#45;&gt;8 -->
<g id="edge11" class="edge">
<title>7:s&#45;&gt;8:n</title>
<path fill="none" stroke="black" d="M439.33,-508.71C439.33,-508.71 439.33,-481.33 439.33,-465.93"/>
<polygon fill="black" stroke="black" points="442.83,-465.71 439.33,-455.71 435.83,-465.71 442.83,-465.71"/>
<text text-anchor="middle" x="444.33" y="-479.51" font-family="Helvetica,sans-Serif" font-size="14.00">0</text>
</g>
<!-- 11 -->
<g id="node15" class="node">
<title>11</title>
<polygon fill="#44e56d" stroke="black" points="806.83,-457.71 633.83,-457.71 633.83,-379.71 806.83,-379.71 806.83,-457.71"/>
<text text-anchor="start" x="681.33" y="-443.51" font-family="Helvetica,sans-Serif" font-weight="bold" font-size="14.00"> Class=1 </text>
<text text-anchor="start" x="754.33" y="-443.51" font-family="Helvetica,sans-Serif" font-size="14.00"> </text>
<text text-anchor="start" x="641.83" y="-429.51" font-family="Helvetica,sans-Serif" font-size="14.00"> error: 0.409, n=3186 </text>
<text text-anchor="start" x="644.83" y="-415.51" font-family="Helvetica,sans-Serif" font-size="14.00"> p: (0.85, 0.15, 0.01) </text>
<text text-anchor="start" x="712.33" y="-401.51" font-family="Helvetica,sans-Serif" font-size="14.00">&#45;&#45;&#45;</text>
<text text-anchor="start" x="704.83" y="-387.51" font-family="Helvetica,sans-Serif" font-weight="bold" font-size="14.00">A94</text>
</g>
<!-- 10&#45;&gt;11 -->
<g id="edge14" class="edge">
<title>10:s&#45;&gt;11:n</title>
<path fill="none" stroke="black" d="M720.33,-508.71C720.33,-508.71 720.33,-482.93 720.33,-468.03"/>
<polygon fill="black" stroke="black" points="723.83,-467.71 720.33,-457.71 716.83,-467.71 723.83,-467.71"/>
<text text-anchor="middle" x="725.33" y="-479.51" font-family="Helvetica,sans-Serif" font-size="14.00">0</text>
</g>
<!-- 15 -->
<g id="node18" class="node">
<title>15</title>
<polygon fill="#44e56d" stroke="black" points="1051.83,-457.71 878.83,-457.71 878.83,-379.71 1051.83,-379.71 1051.83,-457.71"/>
<text text-anchor="start" x="926.33" y="-443.51" font-family="Helvetica,sans-Serif" font-weight="bold" font-size="14.00"> Class=2 </text>
<text text-anchor="start" x="999.33" y="-443.51" font-family="Helvetica,sans-Serif" font-size="14.00"> </text>
<text text-anchor="start" x="886.83" y="-429.51" font-family="Helvetica,sans-Serif" font-size="14.00"> error: 0.660, n=3186 </text>
<text text-anchor="start" x="889.83" y="-415.51" font-family="Helvetica,sans-Serif" font-size="14.00"> p: (0.18, 0.74, 0.07) </text>
<text text-anchor="start" x="957.33" y="-401.51" font-family="Helvetica,sans-Serif" font-size="14.00">&#45;&#45;&#45;</text>
<text text-anchor="start" x="949.83" y="-387.51" font-family="Helvetica,sans-Serif" font-weight="bold" font-size="14.00">A81</text>
</g>
<!-- 14&#45;&gt;15 -->
<g id="edge17" class="edge">
<title>14:s&#45;&gt;15:n</title>
<path fill="none" stroke="black" d="M965.33,-508.71C965.33,-508.71 965.33,-482.93 965.33,-468.03"/>
<polygon fill="black" stroke="black" points="968.83,-467.71 965.33,-457.71 961.83,-467.71 968.83,-467.71"/>
<text text-anchor="middle" x="970.33" y="-479.51" font-family="Helvetica,sans-Serif" font-size="14.00">0</text>
</g>
<!-- 12 -->
<g id="node16" class="node">
<title>12</title>
<polygon fill="#3dcca1" stroke="black" points="788.83,-328.71 615.83,-328.71 615.83,-250.71 788.83,-250.71 788.83,-328.71"/>
<text text-anchor="start" x="663.33" y="-314.51" font-family="Helvetica,sans-Serif" font-weight="bold" font-size="14.00"> Class=1 </text>
<text text-anchor="start" x="736.33" y="-314.51" font-family="Helvetica,sans-Serif" font-size="14.00"> </text>
<text text-anchor="start" x="623.83" y="-300.51" font-family="Helvetica,sans-Serif" font-size="14.00"> error: 0.305, n=3186 </text>
<text text-anchor="start" x="626.83" y="-286.51" font-family="Helvetica,sans-Serif" font-size="14.00"> p: (0.90, 0.10, 0.00) </text>
<text text-anchor="start" x="694.33" y="-272.51" font-family="Helvetica,sans-Serif" font-size="14.00">&#45;&#45;&#45;</text>
<text text-anchor="start" x="686.83" y="-258.51" font-family="Helvetica,sans-Serif" font-weight="bold" font-size="14.00">A93</text>
</g>
<!-- 11&#45;&gt;12 -->
<g id="edge15" class="edge">
<title>11:s&#45;&gt;12:n</title>
<path fill="none" stroke="black" d="M720.33,-379.71C720.33,-379.71 711.03,-353.36 705.8,-338.54"/>
<polygon fill="black" stroke="black" points="708.96,-336.98 702.33,-328.71 702.36,-339.31 708.96,-336.98"/>
<text text-anchor="middle" x="719.33" y="-350.51" font-family="Helvetica,sans-Serif" font-size="14.00">0</text>
</g>
<!-- 13 -->
<g id="node17" class="node">
<title>13</title>
<ellipse fill="#44cde5" stroke="black" cx="684.33" cy="-160.71" rx="122.16" ry="35.21"/>
<text text-anchor="start" x="645.33" y="-171.51" font-family="Helvetica,sans-Serif" font-weight="bold" font-size="14.00"> Class=1 </text>
<text text-anchor="start" x="718.33" y="-171.51" font-family="Helvetica,sans-Serif" font-size="14.00"> </text>
<text text-anchor="start" x="605.83" y="-157.51" font-family="Helvetica,sans-Serif" font-size="14.00"> error: 0.227, n=3186 </text>
<text text-anchor="start" x="608.83" y="-143.51" font-family="Helvetica,sans-Serif" font-size="14.00"> p: (0.93, 0.07, 0.00) </text>
</g>
<!-- 12&#45;&gt;13 -->
<g id="edge16" class="edge">
<title>12:s&#45;&gt;13:n</title>
<path fill="none" stroke="black" d="M702.33,-250.71C702.33,-250.71 692.83,-222.73 687.63,-207.43"/>
<polygon fill="black" stroke="black" points="690.86,-206.05 684.33,-197.71 684.23,-208.31 690.86,-206.05"/>
<text text-anchor="middle" x="701.33" y="-221.51" font-family="Helvetica,sans-Serif" font-size="14.00">0</text>
</g>
<!-- 16 -->
<g id="node19" class="node">
<title>16</title>
<polygon fill="#3dcca1" stroke="black" points="1051.83,-328.71 878.83,-328.71 878.83,-250.71 1051.83,-250.71 1051.83,-328.71"/>
<text text-anchor="start" x="926.33" y="-314.51" font-family="Helvetica,sans-Serif" font-weight="bold" font-size="14.00"> Class=2 </text>
<text text-anchor="start" x="999.33" y="-314.51" font-family="Helvetica,sans-Serif" font-size="14.00"> </text>
<text text-anchor="start" x="886.83" y="-300.51" font-family="Helvetica,sans-Serif" font-size="14.00"> error: 0.522, n=3186 </text>
<text text-anchor="start" x="889.83" y="-286.51" font-family="Helvetica,sans-Serif" font-size="14.00"> p: (0.13, 0.82, 0.05) </text>
<text text-anchor="start" x="957.33" y="-272.51" font-family="Helvetica,sans-Serif" font-size="14.00">&#45;&#45;&#45;</text>
<text text-anchor="start" x="949.83" y="-258.51" font-family="Helvetica,sans-Serif" font-weight="bold" font-size="14.00">A62</text>
</g>
<!-- 15&#45;&gt;16 -->
<g id="edge18" class="edge">
<title>15:s&#45;&gt;16:n</title>
<path fill="none" stroke="black" d="M965.33,-379.71C965.33,-379.71 965.33,-353.93 965.33,-339.03"/>
<polygon fill="black" stroke="black" points="968.83,-338.71 965.33,-328.71 961.83,-338.71 968.83,-338.71"/>
<text text-anchor="middle" x="970.33" y="-350.51" font-family="Helvetica,sans-Serif" font-size="14.00">0</text>
</g>
<!-- 17 -->
<g id="node20" class="node">
<title>17</title>
<polygon fill="#44cde5" stroke="black" points="1051.83,-199.71 878.83,-199.71 878.83,-121.71 1051.83,-121.71 1051.83,-199.71"/>
<text text-anchor="start" x="926.33" y="-185.51" font-family="Helvetica,sans-Serif" font-weight="bold" font-size="14.00"> Class=2 </text>
<text text-anchor="start" x="999.33" y="-185.51" font-family="Helvetica,sans-Serif" font-size="14.00"> </text>
<text text-anchor="start" x="886.83" y="-171.51" font-family="Helvetica,sans-Serif" font-size="14.00"> error: 0.413, n=3186 </text>
<text text-anchor="start" x="889.83" y="-157.51" font-family="Helvetica,sans-Serif" font-size="14.00"> p: (0.09, 0.87, 0.04) </text>
<text text-anchor="start" x="957.33" y="-143.51" font-family="Helvetica,sans-Serif" font-size="14.00">&#45;&#45;&#45;</text>
<text text-anchor="start" x="949.83" y="-129.51" font-family="Helvetica,sans-Serif" font-weight="bold" font-size="14.00">A60</text>
</g>
<!-- 16&#45;&gt;17 -->
<g id="edge19" class="edge">
<title>16:s&#45;&gt;17:n</title>
<path fill="none" stroke="black" d="M965.33,-250.71C965.33,-250.71 965.33,-224.93 965.33,-210.03"/>
<polygon fill="black" stroke="black" points="968.83,-209.71 965.33,-199.71 961.83,-209.71 968.83,-209.71"/>
<text text-anchor="middle" x="970.33" y="-221.51" font-family="Helvetica,sans-Serif" font-size="14.00">0</text>
</g>
<!-- 18 -->
<g id="node21" class="node">
<title>18</title>
<ellipse fill="#3d76cc" stroke="black" cx="965.33" cy="-35.36" rx="122.16" ry="35.21"/>
<text text-anchor="start" x="926.33" y="-46.16" font-family="Helvetica,sans-Serif" font-weight="bold" font-size="14.00"> Class=2 </text>
<text text-anchor="start" x="999.33" y="-46.16" font-family="Helvetica,sans-Serif" font-size="14.00"> </text>
<text text-anchor="start" x="886.83" y="-32.16" font-family="Helvetica,sans-Serif" font-size="14.00"> error: 0.242, n=3186 </text>
<text text-anchor="start" x="889.83" y="-18.16" font-family="Helvetica,sans-Serif" font-size="14.00"> p: (0.04, 0.94, 0.02) </text>
</g>
<!-- 17&#45;&gt;18 -->
<g id="edge20" class="edge">
<title>17:s&#45;&gt;18:n</title>
<path fill="none" stroke="black" d="M965.33,-121.71C965.33,-121.71 965.33,-95.93 965.33,-81.03"/>
<polygon fill="black" stroke="black" points="968.83,-80.71 965.33,-70.71 961.83,-80.71 968.83,-80.71"/>
<text text-anchor="middle" x="970.33" y="-92.51" font-family="Helvetica,sans-Serif" font-size="14.00">0</text>
</g>
<!-- 22 -->
<g id="node24" class="node">
<title>22</title>
<polygon fill="#59cc3d" stroke="black" points="1300.83,-586.71 1127.83,-586.71 1127.83,-508.71 1300.83,-508.71 1300.83,-586.71"/>
<text text-anchor="start" x="1175.33" y="-572.51" font-family="Helvetica,sans-Serif" font-weight="bold" font-size="14.00"> Class=1 </text>
<text text-anchor="start" x="1248.33" y="-572.51" font-family="Helvetica,sans-Serif" font-size="14.00"> </text>
<text text-anchor="start" x="1135.83" y="-558.51" font-family="Helvetica,sans-Serif" font-size="14.00"> error: 0.263, n=3186 </text>
<text text-anchor="start" x="1138.83" y="-544.51" font-family="Helvetica,sans-Serif" font-size="14.00"> p: (0.92, 0.00, 0.08) </text>
<text text-anchor="start" x="1206.33" y="-530.51" font-family="Helvetica,sans-Serif" font-size="14.00">&#45;&#45;&#45;</text>
<text text-anchor="start" x="1198.83" y="-516.51" font-family="Helvetica,sans-Serif" font-weight="bold" font-size="14.00">A93</text>
</g>
<!-- 21&#45;&gt;22 -->
<g id="edge23" class="edge">
<title>21:s&#45;&gt;22:n</title>
<path fill="none" stroke="black" d="M1305.33,-637.71C1305.33,-637.71 1245.83,-604.37 1223.05,-591.6"/>
<polygon fill="black" stroke="black" points="1224.76,-588.55 1214.33,-586.71 1221.34,-594.65 1224.76,-588.55"/>
<text text-anchor="middle" x="1276.33" y="-608.51" font-family="Helvetica,sans-Serif" font-size="14.00">1</text>
</g>
<!-- 26 -->
<g id="node25" class="node">
<title>26</title>
<ellipse fill="#59cc3d" stroke="black" cx="1495.33" cy="-547.71" rx="122.16" ry="35.21"/>
<text text-anchor="start" x="1456.33" y="-558.51" font-family="Helvetica,sans-Serif" font-weight="bold" font-size="14.00"> Class=3 </text>
<text text-anchor="start" x="1529.33" y="-558.51" font-family="Helvetica,sans-Serif" font-size="14.00"> </text>
<text text-anchor="start" x="1416.83" y="-544.51" font-family="Helvetica,sans-Serif" font-size="14.00"> error: 0.458, n=3186 </text>
<text text-anchor="start" x="1419.83" y="-530.51" font-family="Helvetica,sans-Serif" font-size="14.00"> p: (0.20, 0.00, 0.80) </text>
</g>
<!-- 21&#45;&gt;26 -->
<g id="edge24" class="edge">
<title>21:s&#45;&gt;26:n</title>
<path fill="none" stroke="black" d="M1305.33,-637.71C1305.33,-637.71 1446.93,-598.21 1485.65,-587.41"/>
<polygon fill="black" stroke="black" points="1486.64,-590.77 1495.33,-584.71 1484.76,-584.03 1486.64,-590.77"/>
<text text-anchor="middle" x="1428.33" y="-608.51" font-family="Helvetica,sans-Serif" font-size="14.00">0</text>
</g>
<!-- 23 -->
<g id="node26" class="node">
<title>23</title>
<polygon fill="#44e56d" stroke="black" points="1304.83,-457.71 1131.83,-457.71 1131.83,-379.71 1304.83,-379.71 1304.83,-457.71"/>
<text text-anchor="start" x="1179.33" y="-443.51" font-family="Helvetica,sans-Serif" font-weight="bold" font-size="14.00"> Class=1 </text>
<text text-anchor="start" x="1252.33" y="-443.51" font-family="Helvetica,sans-Serif" font-size="14.00"> </text>
<text text-anchor="start" x="1139.83" y="-429.51" font-family="Helvetica,sans-Serif" font-size="14.00"> error: 0.187, n=3186 </text>
<text text-anchor="start" x="1142.83" y="-415.51" font-family="Helvetica,sans-Serif" font-size="14.00"> p: (0.95, 0.00, 0.05) </text>
<text text-anchor="start" x="1210.33" y="-401.51" font-family="Helvetica,sans-Serif" font-size="14.00">&#45;&#45;&#45;</text>
<text text-anchor="start" x="1202.83" y="-387.51" font-family="Helvetica,sans-Serif" font-weight="bold" font-size="14.00">A94</text>
</g>
<!-- 22&#45;&gt;23 -->
<g id="edge25" class="edge">
<title>22:s&#45;&gt;23:n</title>
<path fill="none" stroke="black" d="M1214.33,-508.71C1214.33,-508.71 1216.35,-482.93 1217.52,-468.03"/>
<polygon fill="black" stroke="black" points="1221.04,-467.95 1218.33,-457.71 1214.06,-467.41 1221.04,-467.95"/>
<text text-anchor="middle" x="1222.33" y="-479.51" font-family="Helvetica,sans-Serif" font-size="14.00">0</text>
</g>
<!-- 24 -->
<g id="node27" class="node">
<title>24</title>
<polygon fill="#3dcca1" stroke="black" points="1314.83,-328.71 1141.83,-328.71 1141.83,-250.71 1314.83,-250.71 1314.83,-328.71"/>
<text text-anchor="start" x="1189.33" y="-314.51" font-family="Helvetica,sans-Serif" font-weight="bold" font-size="14.00"> Class=1 </text>
<text text-anchor="start" x="1262.33" y="-314.51" font-family="Helvetica,sans-Serif" font-size="14.00"> </text>
<text text-anchor="start" x="1149.83" y="-300.51" font-family="Helvetica,sans-Serif" font-size="14.00"> error: 0.113, n=3186 </text>
<text text-anchor="start" x="1152.83" y="-286.51" font-family="Helvetica,sans-Serif" font-size="14.00"> p: (0.97, 0.00, 0.03) </text>
<text text-anchor="start" x="1220.33" y="-272.51" font-family="Helvetica,sans-Serif" font-size="14.00">&#45;&#45;&#45;</text>
<text text-anchor="start" x="1212.83" y="-258.51" font-family="Helvetica,sans-Serif" font-weight="bold" font-size="14.00">A95</text>
</g>
<!-- 23&#45;&gt;24 -->
<g id="edge26" class="edge">
<title>23:s&#45;&gt;24:n</title>
<path fill="none" stroke="black" d="M1218.33,-379.71C1218.33,-379.71 1223.5,-353.36 1226.4,-338.54"/>
<polygon fill="black" stroke="black" points="1229.84,-339.2 1228.33,-328.71 1222.97,-337.85 1229.84,-339.2"/>
<text text-anchor="middle" x="1230.33" y="-350.51" font-family="Helvetica,sans-Serif" font-size="14.00">0</text>
</g>
<!-- 25 -->
<g id="node28" class="node">
<title>25</title>
<ellipse fill="#44cde5" stroke="black" cx="1246.33" cy="-160.71" rx="122.16" ry="35.21"/>
<text text-anchor="start" x="1207.33" y="-171.51" font-family="Helvetica,sans-Serif" font-weight="bold" font-size="14.00"> Class=1 </text>
<text text-anchor="start" x="1280.33" y="-171.51" font-family="Helvetica,sans-Serif" font-size="14.00"> </text>
<text text-anchor="start" x="1167.83" y="-157.51" font-family="Helvetica,sans-Serif" font-size="14.00"> error: 0.048, n=3186 </text>
<text text-anchor="start" x="1170.83" y="-143.51" font-family="Helvetica,sans-Serif" font-size="14.00"> p: (0.99, 0.00, 0.01) </text>
</g>
<!-- 24&#45;&gt;25 -->
<g id="edge27" class="edge">
<title>24:s&#45;&gt;25:n</title>
<path fill="none" stroke="black" d="M1228.33,-250.71C1228.33,-250.71 1237.83,-222.73 1243.03,-207.43"/>
<polygon fill="black" stroke="black" points="1246.43,-208.31 1246.33,-197.71 1239.8,-206.05 1246.43,-208.31"/>
<text text-anchor="middle" x="1245.33" y="-221.51" font-family="Helvetica,sans-Serif" font-size="14.00">0</text>
</g>
<!-- 30 -->
<g id="node31" class="node">
<title>30</title>
<polygon fill="#ade544" stroke="black" points="1685.83,-715.71 1512.83,-715.71 1512.83,-637.71 1685.83,-637.71 1685.83,-715.71"/>
<text text-anchor="start" x="1560.33" y="-701.51" font-family="Helvetica,sans-Serif" font-weight="bold" font-size="14.00"> Class=1 </text>
<text text-anchor="start" x="1633.33" y="-701.51" font-family="Helvetica,sans-Serif" font-size="14.00"> </text>
<text text-anchor="start" x="1520.83" y="-687.51" font-family="Helvetica,sans-Serif" font-size="14.00"> error: 0.595, n=3186 </text>
<text text-anchor="start" x="1523.83" y="-673.51" font-family="Helvetica,sans-Serif" font-size="14.00"> p: (0.64, 0.00, 0.36) </text>
<text text-anchor="start" x="1591.33" y="-659.51" font-family="Helvetica,sans-Serif" font-size="14.00">&#45;&#45;&#45;</text>
<text text-anchor="start" x="1583.83" y="-645.51" font-family="Helvetica,sans-Serif" font-weight="bold" font-size="14.00">A99</text>
</g>
<!-- 29&#45;&gt;30 -->
<g id="edge30" class="edge">
<title>29:s&#45;&gt;30:n</title>
<path fill="none" stroke="black" d="M1599.33,-766.71C1599.33,-766.71 1599.33,-740.93 1599.33,-726.03"/>
<polygon fill="black" stroke="black" points="1602.83,-725.71 1599.33,-715.71 1595.83,-725.71 1602.83,-725.71"/>
<text text-anchor="middle" x="1604.33" y="-737.51" font-family="Helvetica,sans-Serif" font-size="14.00">1</text>
</g>
<!-- 36 -->
<g id="node32" class="node">
<title>36</title>
<ellipse fill="#ade544" stroke="black" cx="1880.33" cy="-676.71" rx="122.16" ry="35.21"/>
<text text-anchor="start" x="1841.33" y="-687.51" font-family="Helvetica,sans-Serif" font-weight="bold" font-size="14.00"> Class=3 </text>
<text text-anchor="start" x="1914.33" y="-687.51" font-family="Helvetica,sans-Serif" font-size="14.00"> </text>
<text text-anchor="start" x="1801.83" y="-673.51" font-family="Helvetica,sans-Serif" font-size="14.00"> error: 0.028, n=3186 </text>
<text text-anchor="start" x="1804.83" y="-659.51" font-family="Helvetica,sans-Serif" font-size="14.00"> p: (0.00, 0.00, 1.00) </text>
</g>
<!-- 29&#45;&gt;36 -->
<g id="edge31" class="edge">
<title>29:s&#45;&gt;36:n</title>
<path fill="none" stroke="black" d="M1599.33,-766.71C1599.33,-766.71 1820.27,-725.04 1870.33,-715.6"/>
<polygon fill="black" stroke="black" points="1871.15,-719 1880.33,-713.71 1869.85,-712.12 1871.15,-719"/>
<text text-anchor="middle" x="1778.33" y="-737.51" font-family="Helvetica,sans-Serif" font-size="14.00">0</text>
</g>
<!-- 31 -->
<g id="node33" class="node">
<title>31</title>
<polygon fill="#59cc3d" stroke="black" points="1862.83,-586.71 1689.83,-586.71 1689.83,-508.71 1862.83,-508.71 1862.83,-586.71"/>
<text text-anchor="start" x="1737.33" y="-572.51" font-family="Helvetica,sans-Serif" font-weight="bold" font-size="14.00"> Class=1 </text>
<text text-anchor="start" x="1810.33" y="-572.51" font-family="Helvetica,sans-Serif" font-size="14.00"> </text>
<text text-anchor="start" x="1697.83" y="-558.51" font-family="Helvetica,sans-Serif" font-size="14.00"> error: 0.364, n=3186 </text>
<text text-anchor="start" x="1700.83" y="-544.51" font-family="Helvetica,sans-Serif" font-size="14.00"> p: (0.86, 0.00, 0.14) </text>
<text text-anchor="start" x="1768.33" y="-530.51" font-family="Helvetica,sans-Serif" font-size="14.00">&#45;&#45;&#45;</text>
<text text-anchor="start" x="1760.83" y="-516.51" font-family="Helvetica,sans-Serif" font-weight="bold" font-size="14.00">A93</text>
</g>
<!-- 30&#45;&gt;31 -->
<g id="edge32" class="edge">
<title>30:s&#45;&gt;31:n</title>
<path fill="none" stroke="black" d="M1599.33,-637.71C1599.33,-637.71 1729.45,-600.22 1766.56,-589.53"/>
<polygon fill="black" stroke="black" points="1767.69,-592.84 1776.33,-586.71 1765.75,-586.12 1767.69,-592.84"/>
<text text-anchor="middle" x="1714.33" y="-608.51" font-family="Helvetica,sans-Serif" font-size="14.00">1</text>
</g>
<!-- 32 -->
<g id="node34" class="node">
<title>32</title>
<polygon fill="#44e56d" stroke="black" points="1862.83,-457.71 1689.83,-457.71 1689.83,-379.71 1862.83,-379.71 1862.83,-457.71"/>
<text text-anchor="start" x="1737.33" y="-443.51" font-family="Helvetica,sans-Serif" font-weight="bold" font-size="14.00"> Class=1 </text>
<text text-anchor="start" x="1810.33" y="-443.51" font-family="Helvetica,sans-Serif" font-size="14.00"> </text>
<text text-anchor="start" x="1697.83" y="-429.51" font-family="Helvetica,sans-Serif" font-size="14.00"> error: 0.254, n=3186 </text>
<text text-anchor="start" x="1700.83" y="-415.51" font-family="Helvetica,sans-Serif" font-size="14.00"> p: (0.92, 0.00, 0.08) </text>
<text text-anchor="start" x="1768.33" y="-401.51" font-family="Helvetica,sans-Serif" font-size="14.00">&#45;&#45;&#45;</text>
<text text-anchor="start" x="1760.83" y="-387.51" font-family="Helvetica,sans-Serif" font-weight="bold" font-size="14.00">A94</text>
</g>
<!-- 31&#45;&gt;32 -->
<g id="edge33" class="edge">
<title>31:s&#45;&gt;32:n</title>
<path fill="none" stroke="black" d="M1776.33,-508.71C1776.33,-508.71 1776.33,-482.93 1776.33,-468.03"/>
<polygon fill="black" stroke="black" points="1779.83,-467.71 1776.33,-457.71 1772.83,-467.71 1779.83,-467.71"/>
<text text-anchor="middle" x="1781.33" y="-479.51" font-family="Helvetica,sans-Serif" font-size="14.00">0</text>
</g>
<!-- 33 -->
<g id="node35" class="node">
<title>33</title>
<polygon fill="#3dcca1" stroke="black" points="1862.83,-328.71 1689.83,-328.71 1689.83,-250.71 1862.83,-250.71 1862.83,-328.71"/>
<text text-anchor="start" x="1737.33" y="-314.51" font-family="Helvetica,sans-Serif" font-weight="bold" font-size="14.00"> Class=1 </text>
<text text-anchor="start" x="1810.33" y="-314.51" font-family="Helvetica,sans-Serif" font-size="14.00"> </text>
<text text-anchor="start" x="1697.83" y="-300.51" font-family="Helvetica,sans-Serif" font-size="14.00"> error: 0.168, n=3186 </text>
<text text-anchor="start" x="1700.83" y="-286.51" font-family="Helvetica,sans-Serif" font-size="14.00"> p: (0.95, 0.00, 0.05) </text>
<text text-anchor="start" x="1768.33" y="-272.51" font-family="Helvetica,sans-Serif" font-size="14.00">&#45;&#45;&#45;</text>
<text text-anchor="start" x="1760.83" y="-258.51" font-family="Helvetica,sans-Serif" font-weight="bold" font-size="14.00">A95</text>
</g>
<!-- 32&#45;&gt;33 -->
<g id="edge34" class="edge">
<title>32:s&#45;&gt;33:n</title>
<path fill="none" stroke="black" d="M1776.33,-379.71C1776.33,-379.71 1776.33,-353.93 1776.33,-339.03"/>
<polygon fill="black" stroke="black" points="1779.83,-338.71 1776.33,-328.71 1772.83,-338.71 1779.83,-338.71"/>
<text text-anchor="middle" x="1781.33" y="-350.51" font-family="Helvetica,sans-Serif" font-size="14.00">0</text>
</g>
<!-- 34 -->
<g id="node36" class="node">
<title>34</title>
<polygon fill="#44cde5" stroke="black" points="1862.83,-199.71 1689.83,-199.71 1689.83,-121.71 1862.83,-121.71 1862.83,-199.71"/>
<text text-anchor="start" x="1737.33" y="-185.51" font-family="Helvetica,sans-Serif" font-weight="bold" font-size="14.00"> Class=1 </text>
<text text-anchor="start" x="1810.33" y="-185.51" font-family="Helvetica,sans-Serif" font-size="14.00"> </text>
<text text-anchor="start" x="1697.83" y="-171.51" font-family="Helvetica,sans-Serif" font-size="14.00"> error: 0.042, n=3186 </text>
<text text-anchor="start" x="1700.83" y="-157.51" font-family="Helvetica,sans-Serif" font-size="14.00"> p: (0.99, 0.00, 0.01) </text>
<text text-anchor="start" x="1768.33" y="-143.51" font-family="Helvetica,sans-Serif" font-size="14.00">&#45;&#45;&#45;</text>
<text text-anchor="start" x="1760.83" y="-129.51" font-family="Helvetica,sans-Serif" font-weight="bold" font-size="14.00">A97</text>
</g>
<!-- 33&#45;&gt;34 -->
<g id="edge35" class="edge">
<title>33:s&#45;&gt;34:n</title>
<path fill="none" stroke="black" d="M1776.33,-250.71C1776.33,-250.71 1776.33,-224.93 1776.33,-210.03"/>
<polygon fill="black" stroke="black" points="1779.83,-209.71 1776.33,-199.71 1772.83,-209.71 1779.83,-209.71"/>
<text text-anchor="middle" x="1781.33" y="-221.51" font-family="Helvetica,sans-Serif" font-size="14.00">0</text>
</g>
<!-- 35 -->
<g id="node37" class="node">
<title>35</title>
<ellipse fill="#3d76cc" stroke="black" cx="1776.33" cy="-35.36" rx="122.16" ry="35.21"/>
<text text-anchor="start" x="1737.33" y="-46.16" font-family="Helvetica,sans-Serif" font-weight="bold" font-size="14.00"> Class=1 </text>
<text text-anchor="start" x="1810.33" y="-46.16" font-family="Helvetica,sans-Serif" font-size="14.00"> </text>
<text text-anchor="start" x="1697.83" y="-32.16" font-family="Helvetica,sans-Serif" font-size="14.00"> error: 0.000, n=3186 </text>
<text text-anchor="start" x="1700.83" y="-18.16" font-family="Helvetica,sans-Serif" font-size="14.00"> p: (1.00, 0.00, 0.00) </text>
</g>
<!-- 34&#45;&gt;35 -->
<g id="edge36" class="edge">
<title>34:s&#45;&gt;35:n</title>
<path fill="none" stroke="black" d="M1776.33,-121.71C1776.33,-121.71 1776.33,-95.93 1776.33,-81.03"/>
<polygon fill="black" stroke="black" points="1779.83,-80.71 1776.33,-70.71 1772.83,-80.71 1779.83,-80.71"/>
<text text-anchor="middle" x="1781.33" y="-92.51" font-family="Helvetica,sans-Serif" font-size="14.00">0</text>
</g>
</g>
</svg>
