<?xml version="1.0" encoding="UTF-8" standalone="no"?>
<!DOCTYPE svg PUBLIC "-//W3C//DTD SVG 1.1//EN"
 "http://www.w3.org/Graphics/SVG/1.1/DTD/svg11.dtd">
<!-- Generated by graphviz version 2.43.0 (0)
 -->
<!-- Title: Tree Pages: 1 -->
<svg width="1146pt" height="438pt"
 viewBox="0.00 0.00 1145.93 437.71" xmlns="http://www.w3.org/2000/svg" xmlns:xlink="http://www.w3.org/1999/xlink">
<g id="graph0" class="graph" transform="scale(1 1) rotate(0) translate(18 419.71)">
<title>Tree</title>
<polygon fill="white" stroke="transparent" points="-18,18 -18,-419.71 1127.93,-419.71 1127.93,18 -18,18"/>
<!-- 0 -->
<g id="node1" class="node">
<title>0</title>
<polygon fill="white" stroke="transparent" points="564.97,-401.71 510.97,-401.71 510.97,-365.71 564.97,-365.71 564.97,-401.71"/>
<text text-anchor="middle" x="537.97" y="-380.01" font-family="Helvetica,sans-Serif" font-size="14.00">0</text>
</g>
<!-- 1 -->
<g id="node2" class="node">
<title>1</title>
<polygon fill="#cc3d3d" stroke="black" points="619.97,-328.71 455.97,-328.71 455.97,-250.71 619.97,-250.71 619.97,-328.71"/>
<text text-anchor="start" x="498.97" y="-314.51" font-family="Helvetica,sans-Serif" font-weight="bold" font-size="14.00"> Class=1 </text>
<text text-anchor="start" x="571.97" y="-314.51" font-family="Helvetica,sans-Serif" font-size="14.00"> </text>
<text text-anchor="start" x="463.97" y="-300.51" font-family="Helvetica,sans-Serif" font-size="14.00"> error: 0.981, n=500 </text>
<text text-anchor="start" x="482.97" y="-286.51" font-family="Helvetica,sans-Serif" font-size="14.00"> p: (0.58, 0.42) </text>
<text text-anchor="start" x="529.97" y="-272.51" font-family="Helvetica,sans-Serif" font-size="14.00">&#45;&#45;&#45;</text>
<text text-anchor="start" x="522.47" y="-258.51" font-family="Helvetica,sans-Serif" font-weight="bold" font-size="14.00">V10</text>
</g>
<!-- 0&#45;&gt;1 -->
<!-- 2 -->
<g id="node3" class="node">
<title>2</title>
<polygon fill="#64e544" stroke="black" points="197.97,-199.71 33.97,-199.71 33.97,-121.71 197.97,-121.71 197.97,-199.71"/>
<text text-anchor="start" x="76.97" y="-185.51" font-family="Helvetica,sans-Serif" font-weight="bold" font-size="14.00"> Class=1 </text>
<text text-anchor="start" x="149.97" y="-185.51" font-family="Helvetica,sans-Serif" font-size="14.00"> </text>
<text text-anchor="start" x="41.97" y="-171.51" font-family="Helvetica,sans-Serif" font-size="14.00"> error: 0.982, n=500 </text>
<text text-anchor="start" x="60.97" y="-157.51" font-family="Helvetica,sans-Serif" font-size="14.00"> p: (0.58, 0.42) </text>
<text text-anchor="start" x="107.97" y="-143.51" font-family="Helvetica,sans-Serif" font-size="14.00">&#45;&#45;&#45;</text>
<text text-anchor="start" x="100.47" y="-129.51" font-family="Helvetica,sans-Serif" font-weight="bold" font-size="14.00">V12</text>
</g>
<!-- 1&#45;&gt;2 -->
<g id="edge2" class="edge">
<title>1:s&#45;&gt;2:n</title>
<path fill="none" stroke="black" d="M537.97,-250.71C537.97,-250.71 189.89,-208.64 125.98,-200.92"/>
<polygon fill="black" stroke="black" points="126.31,-197.44 115.97,-199.71 125.47,-204.39 126.31,-197.44"/>
<text text-anchor="middle" x="403.97" y="-221.51" font-family="Helvetica,sans-Serif" font-size="14.00">cotton</text>
</g>
<!-- 4 -->
<g id="node4" class="node">
<title>4</title>
<ellipse fill="#64e544" stroke="black" cx="385.97" cy="-160.71" rx="115.93" ry="35.21"/>
<text text-anchor="start" x="346.97" y="-171.51" font-family="Helvetica,sans-Serif" font-weight="bold" font-size="14.00"> Class=1 </text>
<text text-anchor="start" x="419.97" y="-171.51" font-family="Helvetica,sans-Serif" font-size="14.00"> </text>
<text text-anchor="start" x="311.97" y="-157.51" font-family="Helvetica,sans-Serif" font-size="14.00"> error: 0.904, n=500 </text>
<text text-anchor="start" x="330.97" y="-143.51" font-family="Helvetica,sans-Serif" font-size="14.00"> p: (0.68, 0.32) </text>
</g>
<!-- 1&#45;&gt;4 -->
<g id="edge3" class="edge">
<title>1:s&#45;&gt;4:n</title>
<path fill="none" stroke="black" d="M537.97,-250.71C537.97,-250.71 428.75,-212.63 395.47,-201.03"/>
<polygon fill="black" stroke="black" points="396.56,-197.7 385.97,-197.71 394.26,-204.31 396.56,-197.7"/>
<text text-anchor="middle" x="528.97" y="-221.51" font-family="Helvetica,sans-Serif" font-size="14.00">chiffonfabric</text>
</g>
<!-- 5 -->
<g id="node5" class="node">
<title>5</title>
<ellipse fill="#64e544" stroke="black" cx="689.97" cy="-160.71" rx="115.93" ry="35.21"/>
<text text-anchor="start" x="650.97" y="-171.51" font-family="Helvetica,sans-Serif" font-weight="bold" font-size="14.00"> Class=1 </text>
<text text-anchor="start" x="723.97" y="-171.51" font-family="Helvetica,sans-Serif" font-size="14.00"> </text>
<text text-anchor="start" x="615.97" y="-157.51" font-family="Helvetica,sans-Serif" font-size="14.00"> error: 0.996, n=500 </text>
<text text-anchor="start" x="634.97" y="-143.51" font-family="Helvetica,sans-Serif" font-size="14.00"> p: (0.54, 0.46) </text>
</g>
<!-- 1&#45;&gt;5 -->
<g id="edge4" class="edge">
<title>1:s&#45;&gt;5:n</title>
<path fill="none" stroke="black" d="M537.97,-250.71C537.97,-250.71 647.18,-212.63 680.46,-201.03"/>
<polygon fill="black" stroke="black" points="681.68,-204.31 689.97,-197.71 679.37,-197.7 681.68,-204.31"/>
<text text-anchor="middle" x="643.97" y="-221.51" font-family="Helvetica,sans-Serif" font-size="14.00">silk</text>
</g>
<!-- 6 -->
<g id="node6" class="node">
<title>6</title>
<ellipse fill="#64e544" stroke="black" cx="993.97" cy="-160.71" rx="115.93" ry="35.21"/>
<text text-anchor="start" x="954.97" y="-171.51" font-family="Helvetica,sans-Serif" font-weight="bold" font-size="14.00"> Class=1 </text>
<text text-anchor="start" x="1027.97" y="-171.51" font-family="Helvetica,sans-Serif" font-size="14.00"> </text>
<text text-anchor="start" x="919.97" y="-157.51" font-family="Helvetica,sans-Serif" font-size="14.00"> error: 0.897, n=500 </text>
<text text-anchor="start" x="938.97" y="-143.51" font-family="Helvetica,sans-Serif" font-size="14.00"> p: (0.69, 0.31) </text>
</g>
<!-- 1&#45;&gt;6 -->
<g id="edge5" class="edge">
<title>1:s&#45;&gt;6:n</title>
<path fill="none" stroke="black" d="M537.97,-250.71C537.97,-250.71 917.33,-206.62 984.02,-198.87"/>
<polygon fill="black" stroke="black" points="984.44,-202.34 993.97,-197.71 983.63,-195.39 984.44,-202.34"/>
<text text-anchor="middle" x="849.47" y="-221.51" font-family="Helvetica,sans-Serif" font-size="14.00">polyster</text>
</g>
<!-- 3 -->
<g id="node7" class="node">
<title>3</title>
<ellipse fill="#3d76cc" stroke="black" cx="115.97" cy="-35.36" rx="115.93" ry="35.21"/>
<text text-anchor="start" x="76.97" y="-46.16" font-family="Helvetica,sans-Serif" font-weight="bold" font-size="14.00"> Class=2 </text>
<text text-anchor="start" x="149.97" y="-46.16" font-family="Helvetica,sans-Serif" font-size="14.00"> </text>
<text text-anchor="start" x="41.97" y="-32.16" font-family="Helvetica,sans-Serif" font-size="14.00"> error: 0.949, n=500 </text>
<text text-anchor="start" x="60.97" y="-18.16" font-family="Helvetica,sans-Serif" font-size="14.00"> p: (0.37, 0.63) </text>
</g>
<!-- 2&#45;&gt;3 -->
<g id="edge6" class="edge">
<title>2:s&#45;&gt;3:n</title>
<path fill="none" stroke="black" d="M115.97,-121.71C115.97,-121.71 115.97,-95.93 115.97,-81.03"/>
<polygon fill="black" stroke="black" points="119.47,-80.71 115.97,-70.71 112.47,-80.71 119.47,-80.71"/>
<text text-anchor="middle" x="129.97" y="-92.51" font-family="Helvetica,sans-Serif" font-size="14.00">lace</text>
</g>
</g>
</svg>
