<?xml version="1.0" encoding="UTF-8" standalone="no"?>
<!DOCTYPE svg PUBLIC "-//W3C//DTD SVG 1.1//EN"
 "http://www.w3.org/Graphics/SVG/1.1/DTD/svg11.dtd">
<!-- Generated by graphviz version 2.43.0 (0)
 -->
<!-- Title: Tree Pages: 1 -->
<svg width="1652pt" height="438pt"
 viewBox="0.00 0.00 1651.93 437.71" xmlns="http://www.w3.org/2000/svg" xmlns:xlink="http://www.w3.org/1999/xlink">
<g id="graph0" class="graph" transform="scale(1 1) rotate(0) translate(18 419.71)">
<title>Tree</title>
<polygon fill="white" stroke="transparent" points="-18,18 -18,-419.71 1633.93,-419.71 1633.93,18 -18,18"/>
<!-- 0 -->
<g id="node1" class="node">
<title>0</title>
<polygon fill="white" stroke="transparent" points="682.97,-401.71 628.97,-401.71 628.97,-365.71 682.97,-365.71 682.97,-401.71"/>
<text text-anchor="middle" x="655.97" y="-380.01" font-family="Helvetica,sans-Serif" font-size="14.00">0</text>
</g>
<!-- 1 -->
<g id="node2" class="node">
<title>1</title>
<polygon fill="#cc3d3d" stroke="black" points="737.97,-328.71 573.97,-328.71 573.97,-250.71 737.97,-250.71 737.97,-328.71"/>
<text text-anchor="start" x="616.97" y="-314.51" font-family="Helvetica,sans-Serif" font-weight="bold" font-size="14.00"> Class=1 </text>
<text text-anchor="start" x="689.97" y="-314.51" font-family="Helvetica,sans-Serif" font-size="14.00"> </text>
<text text-anchor="start" x="581.97" y="-300.51" font-family="Helvetica,sans-Serif" font-size="14.00"> error: 0.981, n=500 </text>
<text text-anchor="start" x="600.97" y="-286.51" font-family="Helvetica,sans-Serif" font-size="14.00"> p: (0.58, 0.42) </text>
<text text-anchor="start" x="647.97" y="-272.51" font-family="Helvetica,sans-Serif" font-size="14.00">&#45;&#45;&#45;</text>
<text text-anchor="start" x="640.47" y="-258.51" font-family="Helvetica,sans-Serif" font-weight="bold" font-size="14.00">V10</text>
</g>
<!-- 0&#45;&gt;1 -->
<!-- 2 -->
<g id="node3" class="node">
<title>2</title>
<ellipse fill="#64e544" stroke="black" cx="115.97" cy="-160.71" rx="115.93" ry="35.21"/>
<text text-anchor="start" x="76.97" y="-171.51" font-family="Helvetica,sans-Serif" font-weight="bold" font-size="14.00"> Class=1 </text>
<text text-anchor="start" x="149.97" y="-171.51" font-family="Helvetica,sans-Serif" font-size="14.00"> </text>
<text text-anchor="start" x="41.97" y="-157.51" font-family="Helvetica,sans-Serif" font-size="14.00"> error: 0.918, n=500 </text>
<text text-anchor="start" x="60.97" y="-143.51" font-family="Helvetica,sans-Serif" font-size="14.00"> p: (0.67, 0.33) </text>
</g>
<!-- 1&#45;&gt;2 -->
<g id="edge2" class="edge">
<title>1:s&#45;&gt;2:n</title>
<path fill="none" stroke="black" d="M655.97,-250.71C655.97,-250.71 200.93,-206.05 126.27,-198.72"/>
<polygon fill="black" stroke="black" points="126.26,-195.2 115.97,-197.71 125.58,-202.17 126.26,-195.2"/>
<text text-anchor="middle" x="457.97" y="-221.51" font-family="Helvetica,sans-Serif" font-size="14.00">mix</text>
</g>
<!-- 3 -->
<g id="node4" class="node">
<title>3</title>
<polygon fill="#64e544" stroke="black" points="467.97,-199.71 303.97,-199.71 303.97,-121.71 467.97,-121.71 467.97,-199.71"/>
<text text-anchor="start" x="346.97" y="-185.51" font-family="Helvetica,sans-Serif" font-weight="bold" font-size="14.00"> Class=1 </text>
<text text-anchor="start" x="419.97" y="-185.51" font-family="Helvetica,sans-Serif" font-size="14.00"> </text>
<text text-anchor="start" x="311.97" y="-171.51" font-family="Helvetica,sans-Serif" font-size="14.00"> error: 0.982, n=500 </text>
<text text-anchor="start" x="330.97" y="-157.51" font-family="Helvetica,sans-Serif" font-size="14.00"> p: (0.58, 0.42) </text>
<text text-anchor="start" x="377.97" y="-143.51" font-family="Helvetica,sans-Serif" font-size="14.00">&#45;&#45;&#45;</text>
<text text-anchor="start" x="370.47" y="-129.51" font-family="Helvetica,sans-Serif" font-weight="bold" font-size="14.00">V12</text>
</g>
<!-- 1&#45;&gt;3 -->
<g id="edge3" class="edge">
<title>1:s&#45;&gt;3:n</title>
<path fill="none" stroke="black" d="M655.97,-250.71C655.97,-250.71 444.61,-210.79 395.9,-201.59"/>
<polygon fill="black" stroke="black" points="396.44,-198.13 385.97,-199.71 395.14,-205.01 396.44,-198.13"/>
<text text-anchor="middle" x="575.97" y="-221.51" font-family="Helvetica,sans-Serif" font-size="14.00">cotton</text>
</g>
<!-- 5 -->
<g id="node5" class="node">
<title>5</title>
<ellipse fill="#64e544" stroke="black" cx="655.97" cy="-160.71" rx="115.93" ry="35.21"/>
<text text-anchor="start" x="616.97" y="-171.51" font-family="Helvetica,sans-Serif" font-weight="bold" font-size="14.00"> Class=1 </text>
<text text-anchor="start" x="689.97" y="-171.51" font-family="Helvetica,sans-Serif" font-size="14.00"> </text>
<text text-anchor="start" x="581.97" y="-157.51" font-family="Helvetica,sans-Serif" font-size="14.00"> error: 0.904, n=500 </text>
<text text-anchor="start" x="600.97" y="-143.51" font-family="Helvetica,sans-Serif" font-size="14.00"> p: (0.68, 0.32) </text>
</g>
<!-- 1&#45;&gt;5 -->
<g id="edge4" class="edge">
<title>1:s&#45;&gt;5:n</title>
<path fill="none" stroke="black" d="M655.97,-250.71C655.97,-250.71 655.97,-223.33 655.97,-207.93"/>
<polygon fill="black" stroke="black" points="659.47,-207.71 655.97,-197.71 652.47,-207.71 659.47,-207.71"/>
<text text-anchor="middle" x="699.97" y="-221.51" font-family="Helvetica,sans-Serif" font-size="14.00">chiffonfabric</text>
</g>
<!-- 6 -->
<g id="node6" class="node">
<title>6</title>
<polygon fill="#64e544" stroke="black" points="1007.97,-199.71 843.97,-199.71 843.97,-121.71 1007.97,-121.71 1007.97,-199.71"/>
<text text-anchor="start" x="886.97" y="-185.51" font-family="Helvetica,sans-Serif" font-weight="bold" font-size="14.00"> Class=1 </text>
<text text-anchor="start" x="959.97" y="-185.51" font-family="Helvetica,sans-Serif" font-size="14.00"> </text>
<text text-anchor="start" x="851.97" y="-171.51" font-family="Helvetica,sans-Serif" font-size="14.00"> error: 0.996, n=500 </text>
<text text-anchor="start" x="870.97" y="-157.51" font-family="Helvetica,sans-Serif" font-size="14.00"> p: (0.54, 0.46) </text>
<text text-anchor="start" x="920.47" y="-143.51" font-family="Helvetica,sans-Serif" font-size="14.00">&#45;&#45;</text>
<text text-anchor="start" x="915.47" y="-129.51" font-family="Helvetica,sans-Serif" font-weight="bold" font-size="14.00">V6</text>
</g>
<!-- 1&#45;&gt;6 -->
<g id="edge5" class="edge">
<title>1:s&#45;&gt;6:n</title>
<path fill="none" stroke="black" d="M655.97,-250.71C655.97,-250.71 867.32,-210.79 916.04,-201.59"/>
<polygon fill="black" stroke="black" points="916.79,-205.01 925.97,-199.71 915.49,-198.13 916.79,-205.01"/>
<text text-anchor="middle" x="846.97" y="-221.51" font-family="Helvetica,sans-Serif" font-size="14.00">silk</text>
</g>
<!-- 8 -->
<g id="node7" class="node">
<title>8</title>
<polygon fill="#64e544" stroke="black" points="1277.97,-199.71 1113.97,-199.71 1113.97,-121.71 1277.97,-121.71 1277.97,-199.71"/>
<text text-anchor="start" x="1156.97" y="-185.51" font-family="Helvetica,sans-Serif" font-weight="bold" font-size="14.00"> Class=1 </text>
<text text-anchor="start" x="1229.97" y="-185.51" font-family="Helvetica,sans-Serif" font-size="14.00"> </text>
<text text-anchor="start" x="1121.97" y="-171.51" font-family="Helvetica,sans-Serif" font-size="14.00"> error: 0.897, n=500 </text>
<text text-anchor="start" x="1140.97" y="-157.51" font-family="Helvetica,sans-Serif" font-size="14.00"> p: (0.69, 0.31) </text>
<text text-anchor="start" x="1187.97" y="-143.51" font-family="Helvetica,sans-Serif" font-size="14.00">&#45;&#45;&#45;</text>
<text text-anchor="start" x="1180.47" y="-129.51" font-family="Helvetica,sans-Serif" font-weight="bold" font-size="14.00">V12</text>
</g>
<!-- 1&#45;&gt;8 -->
<g id="edge6" class="edge">
<title>1:s&#45;&gt;8:n</title>
<path fill="none" stroke="black" d="M655.97,-250.71C655.97,-250.71 1111.01,-207.73 1185.66,-200.68"/>
<polygon fill="black" stroke="black" points="1186.34,-204.14 1195.97,-199.71 1185.68,-197.17 1186.34,-204.14"/>
<text text-anchor="middle" x="1046.47" y="-221.51" font-family="Helvetica,sans-Serif" font-size="14.00">polyster</text>
</g>
<!-- 4 -->
<g id="node8" class="node">
<title>4</title>
<ellipse fill="#3d76cc" stroke="black" cx="385.97" cy="-35.36" rx="115.93" ry="35.21"/>
<text text-anchor="start" x="346.97" y="-46.16" font-family="Helvetica,sans-Serif" font-weight="bold" font-size="14.00"> Class=2 </text>
<text text-anchor="start" x="419.97" y="-46.16" font-family="Helvetica,sans-Serif" font-size="14.00"> </text>
<text text-anchor="start" x="311.97" y="-32.16" font-family="Helvetica,sans-Serif" font-size="14.00"> error: 0.949, n=500 </text>
<text text-anchor="start" x="330.97" y="-18.16" font-family="Helvetica,sans-Serif" font-size="14.00"> p: (0.37, 0.63) </text>
</g>
<!-- 3&#45;&gt;4 -->
<g id="edge7" class="edge">
<title>3:s&#45;&gt;4:n</title>
<path fill="none" stroke="black" d="M385.97,-121.71C385.97,-121.71 385.97,-95.93 385.97,-81.03"/>
<polygon fill="black" stroke="black" points="389.47,-80.71 385.97,-70.71 382.47,-80.71 389.47,-80.71"/>
<text text-anchor="middle" x="399.97" y="-92.51" font-family="Helvetica,sans-Serif" font-size="14.00">lace</text>
</g>
<!-- 7 -->
<g id="node9" class="node">
<title>7</title>
<ellipse fill="#3d76cc" stroke="black" cx="891.97" cy="-35.36" rx="115.93" ry="35.21"/>
<text text-anchor="start" x="852.97" y="-46.16" font-family="Helvetica,sans-Serif" font-weight="bold" font-size="14.00"> Class=2 </text>
<text text-anchor="start" x="925.97" y="-46.16" font-family="Helvetica,sans-Serif" font-size="14.00"> </text>
<text text-anchor="start" x="817.97" y="-32.16" font-family="Helvetica,sans-Serif" font-size="14.00"> error: 0.996, n=500 </text>
<text text-anchor="start" x="836.97" y="-18.16" font-family="Helvetica,sans-Serif" font-size="14.00"> p: (0.46, 0.54) </text>
</g>
<!-- 6&#45;&gt;7 -->
<g id="edge8" class="edge">
<title>6:s&#45;&gt;7:n</title>
<path fill="none" stroke="black" d="M925.97,-121.71C925.97,-121.71 907.24,-93.62 897.58,-79.13"/>
<polygon fill="black" stroke="black" points="900.42,-77.09 891.97,-70.71 894.6,-80.97 900.42,-77.09"/>
<text text-anchor="middle" x="936.97" y="-92.51" font-family="Helvetica,sans-Serif" font-size="14.00">Spring</text>
</g>
<!-- 9 -->
<g id="node10" class="node">
<title>9</title>
<ellipse fill="#3d76cc" stroke="black" cx="1195.97" cy="-35.36" rx="115.93" ry="35.21"/>
<text text-anchor="start" x="1156.97" y="-46.16" font-family="Helvetica,sans-Serif" font-weight="bold" font-size="14.00"> Class=1 </text>
<text text-anchor="start" x="1229.97" y="-46.16" font-family="Helvetica,sans-Serif" font-size="14.00"> </text>
<text text-anchor="start" x="1121.97" y="-32.16" font-family="Helvetica,sans-Serif" font-size="14.00"> error: 0.896, n=500 </text>
<text text-anchor="start" x="1140.97" y="-18.16" font-family="Helvetica,sans-Serif" font-size="14.00"> p: (0.69, 0.31) </text>
</g>
<!-- 8&#45;&gt;9 -->
<g id="edge9" class="edge">
<title>8:s&#45;&gt;9:n</title>
<path fill="none" stroke="black" d="M1195.97,-121.71C1195.97,-121.71 1195.97,-95.93 1195.97,-81.03"/>
<polygon fill="black" stroke="black" points="1199.47,-80.71 1195.97,-70.71 1192.47,-80.71 1199.47,-80.71"/>
<text text-anchor="middle" x="1209.97" y="-92.51" font-family="Helvetica,sans-Serif" font-size="14.00">lace</text>
</g>
<!-- 10 -->
<g id="node11" class="node">
<title>10</title>
<ellipse fill="#3d76cc" stroke="black" cx="1499.97" cy="-35.36" rx="115.93" ry="35.21"/>
<text text-anchor="start" x="1460.97" y="-46.16" font-family="Helvetica,sans-Serif" font-weight="bold" font-size="14.00"> Class=1 </text>
<text text-anchor="start" x="1533.97" y="-46.16" font-family="Helvetica,sans-Serif" font-size="14.00"> </text>
<text text-anchor="start" x="1425.97" y="-32.16" font-family="Helvetica,sans-Serif" font-size="14.00"> error: 0.811, n=500 </text>
<text text-anchor="start" x="1444.97" y="-18.16" font-family="Helvetica,sans-Serif" font-size="14.00"> p: (0.75, 0.25) </text>
</g>
<!-- 8&#45;&gt;10 -->
<g id="edge10" class="edge">
<title>8:s&#45;&gt;10:n</title>
<path fill="none" stroke="black" d="M1195.97,-121.71C1195.97,-121.71 1437.1,-81.26 1489.85,-72.41"/>
<polygon fill="black" stroke="black" points="1490.68,-75.82 1499.97,-70.71 1489.52,-68.91 1490.68,-75.82"/>
<text text-anchor="middle" x="1409.47" y="-92.51" font-family="Helvetica,sans-Serif" font-size="14.00">sashes</text>
</g>
</g>
</svg>
