<?xml version="1.0" encoding="UTF-8" standalone="no"?>
<!DOCTYPE svg PUBLIC "-//W3C//DTD SVG 1.1//EN"
 "http://www.w3.org/Graphics/SVG/1.1/DTD/svg11.dtd">
<!-- Generated by graphviz version 2.43.0 (0)
 -->
<!-- Title: Tree Pages: 1 -->
<svg width="929pt" height="567pt"
 viewBox="0.00 0.00 929.39 566.71" xmlns="http://www.w3.org/2000/svg" xmlns:xlink="http://www.w3.org/1999/xlink">
<g id="graph0" class="graph" transform="scale(1 1) rotate(0) translate(18 548.71)">
<title>Tree</title>
<polygon fill="white" stroke="transparent" points="-18,18 -18,-548.71 911.39,-548.71 911.39,18 -18,18"/>
<!-- 0 -->
<g id="node1" class="node">
<title>0</title>
<polygon fill="white" stroke="transparent" points="227.69,-530.71 173.69,-530.71 173.69,-494.71 227.69,-494.71 227.69,-530.71"/>
<text text-anchor="middle" x="200.69" y="-509.01" font-family="Helvetica,sans-Serif" font-size="14.00">0</text>
</g>
<!-- 1 -->
<g id="node2" class="node">
<title>1</title>
<polygon fill="#cc3d3d" stroke="black" points="291.69,-457.71 109.69,-457.71 109.69,-379.71 291.69,-379.71 291.69,-457.71"/>
<text text-anchor="start" x="141.19" y="-443.51" font-family="Helvetica,sans-Serif" font-weight="bold" font-size="14.00"> Class=DOWN </text>
<text text-anchor="start" x="255.19" y="-443.51" font-family="Helvetica,sans-Serif" font-size="14.00"> </text>
<text text-anchor="start" x="117.69" y="-429.51" font-family="Helvetica,sans-Serif" font-size="14.00"> error: 0.984, n=45312 </text>
<text text-anchor="start" x="145.69" y="-415.51" font-family="Helvetica,sans-Serif" font-size="14.00"> p: (0.58, 0.42) </text>
<text text-anchor="start" x="179.19" y="-401.51" font-family="Helvetica,sans-Serif" font-size="14.00">&#45;&#45;&#45;&#45;&#45;&#45;&#45;&#45;</text>
<text text-anchor="start" x="165.69" y="-387.51" font-family="Helvetica,sans-Serif" font-weight="bold" font-size="14.00">nswprice</text>
</g>
<!-- 0&#45;&gt;1 -->
<!-- 2 -->
<g id="node3" class="node">
<title>2</title>
<ellipse fill="#c5e544" stroke="black" cx="128.69" cy="-289.71" rx="128.89" ry="35.21"/>
<text text-anchor="start" x="83.69" y="-300.51" font-family="Helvetica,sans-Serif" font-weight="bold" font-size="14.00"> Class=UP </text>
<text text-anchor="start" x="168.69" y="-300.51" font-family="Helvetica,sans-Serif" font-size="14.00"> </text>
<text text-anchor="start" x="45.69" y="-286.51" font-family="Helvetica,sans-Serif" font-size="14.00"> error: 0.577, n=45312 </text>
<text text-anchor="start" x="73.69" y="-272.51" font-family="Helvetica,sans-Serif" font-size="14.00"> p: (0.14, 0.86) </text>
</g>
<!-- 1&#45;&gt;2 -->
<g id="edge2" class="edge">
<title>1:s&#45;&gt;2:n</title>
<path fill="none" stroke="black" d="M200.69,-379.71C200.69,-379.71 155.86,-346.09 136.95,-331.91"/>
<polygon fill="black" stroke="black" points="138.79,-328.91 128.69,-325.71 134.59,-334.51 138.79,-328.91"/>
<text text-anchor="middle" x="209.19" y="-350.51" font-family="Helvetica,sans-Serif" font-size="14.00">&gt; 0.0756</text>
</g>
<!-- 3 -->
<g id="node4" class="node">
<title>3</title>
<polygon fill="#c5e544" stroke="black" points="511.69,-328.71 329.69,-328.71 329.69,-250.71 511.69,-250.71 511.69,-328.71"/>
<text text-anchor="start" x="361.19" y="-314.51" font-family="Helvetica,sans-Serif" font-weight="bold" font-size="14.00"> Class=DOWN </text>
<text text-anchor="start" x="475.19" y="-314.51" font-family="Helvetica,sans-Serif" font-size="14.00"> </text>
<text text-anchor="start" x="337.69" y="-300.51" font-family="Helvetica,sans-Serif" font-size="14.00"> error: 0.880, n=45312 </text>
<text text-anchor="start" x="365.69" y="-286.51" font-family="Helvetica,sans-Serif" font-size="14.00"> p: (0.70, 0.30) </text>
<text text-anchor="start" x="396.69" y="-272.51" font-family="Helvetica,sans-Serif" font-size="14.00">&#45;&#45;&#45;&#45;&#45;&#45;&#45;&#45;&#45;</text>
<text text-anchor="start" x="373.69" y="-258.51" font-family="Helvetica,sans-Serif" font-weight="bold" font-size="14.00">nswdemand</text>
</g>
<!-- 1&#45;&gt;3 -->
<g id="edge3" class="edge">
<title>1:s&#45;&gt;3:n</title>
<path fill="none" stroke="black" d="M200.69,-379.71C200.69,-379.71 367.63,-341.01 410.67,-331.03"/>
<polygon fill="black" stroke="black" points="411.74,-334.38 420.69,-328.71 410.16,-327.56 411.74,-334.38"/>
<text text-anchor="middle" x="377.19" y="-350.51" font-family="Helvetica,sans-Serif" font-size="14.00">&lt;= 0.0756</text>
</g>
<!-- 4 -->
<g id="node5" class="node">
<title>4</title>
<ellipse fill="#3dcc76" stroke="black" cx="308.69" cy="-160.71" rx="128.89" ry="35.21"/>
<text text-anchor="start" x="249.19" y="-171.51" font-family="Helvetica,sans-Serif" font-weight="bold" font-size="14.00"> Class=DOWN </text>
<text text-anchor="start" x="363.19" y="-171.51" font-family="Helvetica,sans-Serif" font-size="14.00"> </text>
<text text-anchor="start" x="225.69" y="-157.51" font-family="Helvetica,sans-Serif" font-size="14.00"> error: 0.428, n=45312 </text>
<text text-anchor="start" x="253.69" y="-143.51" font-family="Helvetica,sans-Serif" font-size="14.00"> p: (0.91, 0.09) </text>
</g>
<!-- 3&#45;&gt;4 -->
<g id="edge4" class="edge">
<title>3:s&#45;&gt;4:n</title>
<path fill="none" stroke="black" d="M420.69,-250.71C420.69,-250.71 344.61,-214.03 317.86,-201.13"/>
<polygon fill="black" stroke="black" points="319.22,-197.9 308.69,-196.71 316.18,-204.21 319.22,-197.9"/>
<text text-anchor="middle" x="403.19" y="-221.51" font-family="Helvetica,sans-Serif" font-size="14.00">&lt;= 0.2276</text>
</g>
<!-- 5 -->
<g id="node6" class="node">
<title>5</title>
<polygon fill="#3dcc76" stroke="black" points="691.69,-199.71 509.69,-199.71 509.69,-121.71 691.69,-121.71 691.69,-199.71"/>
<text text-anchor="start" x="541.19" y="-185.51" font-family="Helvetica,sans-Serif" font-weight="bold" font-size="14.00"> Class=DOWN </text>
<text text-anchor="start" x="655.19" y="-185.51" font-family="Helvetica,sans-Serif" font-size="14.00"> </text>
<text text-anchor="start" x="517.69" y="-171.51" font-family="Helvetica,sans-Serif" font-size="14.00"> error: 0.930, n=45312 </text>
<text text-anchor="start" x="545.69" y="-157.51" font-family="Helvetica,sans-Serif" font-size="14.00"> p: (0.65, 0.35) </text>
<text text-anchor="start" x="579.19" y="-143.51" font-family="Helvetica,sans-Serif" font-size="14.00">&#45;&#45;&#45;&#45;&#45;&#45;&#45;&#45;</text>
<text text-anchor="start" x="565.69" y="-129.51" font-family="Helvetica,sans-Serif" font-weight="bold" font-size="14.00">nswprice</text>
</g>
<!-- 3&#45;&gt;5 -->
<g id="edge5" class="edge">
<title>3:s&#45;&gt;5:n</title>
<path fill="none" stroke="black" d="M420.69,-250.71C420.69,-250.71 553.63,-213.05 591.02,-202.45"/>
<polygon fill="black" stroke="black" points="592.03,-205.8 600.69,-199.71 590.12,-199.07 592.03,-205.8"/>
<text text-anchor="middle" x="566.19" y="-221.51" font-family="Helvetica,sans-Serif" font-size="14.00">&gt; 0.2276</text>
</g>
<!-- 6 -->
<g id="node7" class="node">
<title>6</title>
<ellipse fill="#4485e5" stroke="black" cx="435.69" cy="-35.36" rx="128.89" ry="35.21"/>
<text text-anchor="start" x="376.19" y="-46.16" font-family="Helvetica,sans-Serif" font-weight="bold" font-size="14.00"> Class=DOWN </text>
<text text-anchor="start" x="490.19" y="-46.16" font-family="Helvetica,sans-Serif" font-size="14.00"> </text>
<text text-anchor="start" x="352.69" y="-32.16" font-family="Helvetica,sans-Serif" font-size="14.00"> error: 0.876, n=45312 </text>
<text text-anchor="start" x="380.69" y="-18.16" font-family="Helvetica,sans-Serif" font-size="14.00"> p: (0.70, 0.30) </text>
</g>
<!-- 5&#45;&gt;6 -->
<g id="edge6" class="edge">
<title>5:s&#45;&gt;6:n</title>
<path fill="none" stroke="black" d="M600.69,-121.71C600.69,-121.71 481.04,-84.73 445.52,-73.75"/>
<polygon fill="black" stroke="black" points="446.28,-70.32 435.69,-70.71 444.21,-77.01 446.28,-70.32"/>
<text text-anchor="middle" x="582.69" y="-92.51" font-family="Helvetica,sans-Serif" font-size="14.00">&lt;= 0.06161</text>
</g>
<!-- 7 -->
<g id="node8" class="node">
<title>7</title>
<ellipse fill="#4485e5" stroke="black" cx="764.69" cy="-35.36" rx="128.89" ry="35.21"/>
<text text-anchor="start" x="719.69" y="-46.16" font-family="Helvetica,sans-Serif" font-weight="bold" font-size="14.00"> Class=UP </text>
<text text-anchor="start" x="804.69" y="-46.16" font-family="Helvetica,sans-Serif" font-size="14.00"> </text>
<text text-anchor="start" x="681.69" y="-32.16" font-family="Helvetica,sans-Serif" font-size="14.00"> error: 0.976, n=45312 </text>
<text text-anchor="start" x="709.69" y="-18.16" font-family="Helvetica,sans-Serif" font-size="14.00"> p: (0.41, 0.59) </text>
</g>
<!-- 5&#45;&gt;7 -->
<g id="edge7" class="edge">
<title>5:s&#45;&gt;7:n</title>
<path fill="none" stroke="black" d="M600.69,-121.71C600.69,-121.71 719.62,-84.73 754.93,-73.75"/>
<polygon fill="black" stroke="black" points="756.18,-77.02 764.69,-70.71 754.11,-70.34 756.18,-77.02"/>
<text text-anchor="middle" x="739.69" y="-92.51" font-family="Helvetica,sans-Serif" font-size="14.00">&gt; 0.06161</text>
</g>
</g>
</svg>
