<?xml version="1.0" encoding="UTF-8" standalone="no"?>
<!DOCTYPE svg PUBLIC "-//W3C//DTD SVG 1.1//EN"
 "http://www.w3.org/Graphics/SVG/1.1/DTD/svg11.dtd">
<!-- Generated by graphviz version 2.43.0 (0)
 -->
<!-- Title: Tree Pages: 1 -->
<svg width="1144pt" height="825pt"
 viewBox="0.00 0.00 1143.93 824.71" xmlns="http://www.w3.org/2000/svg" xmlns:xlink="http://www.w3.org/1999/xlink">
<g id="graph0" class="graph" transform="scale(1 1) rotate(0) translate(18 806.71)">
<title>Tree</title>
<polygon fill="white" stroke="transparent" points="-18,18 -18,-806.71 1125.93,-806.71 1125.93,18 -18,18"/>
<!-- 0 -->
<g id="node1" class="node">
<title>0</title>
<polygon fill="white" stroke="transparent" points="557.97,-788.71 503.97,-788.71 503.97,-752.71 557.97,-752.71 557.97,-788.71"/>
<text text-anchor="middle" x="530.97" y="-767.01" font-family="Helvetica,sans-Serif" font-size="14.00">0</text>
</g>
<!-- 1 -->
<g id="node2" class="node">
<title>1</title>
<polygon fill="#cc3d3d" stroke="black" points="612.97,-715.71 448.97,-715.71 448.97,-637.71 612.97,-637.71 612.97,-715.71"/>
<text text-anchor="start" x="491.97" y="-701.51" font-family="Helvetica,sans-Serif" font-weight="bold" font-size="14.00"> Class=1 </text>
<text text-anchor="start" x="564.97" y="-701.51" font-family="Helvetica,sans-Serif" font-size="14.00"> </text>
<text text-anchor="start" x="456.97" y="-687.51" font-family="Helvetica,sans-Serif" font-size="14.00"> error: 0.864, n=583 </text>
<text text-anchor="start" x="475.97" y="-673.51" font-family="Helvetica,sans-Serif" font-size="14.00"> p: (0.71, 0.29) </text>
<text text-anchor="start" x="525.47" y="-659.51" font-family="Helvetica,sans-Serif" font-size="14.00">&#45;&#45;</text>
<text text-anchor="start" x="520.47" y="-645.51" font-family="Helvetica,sans-Serif" font-weight="bold" font-size="14.00">V3</text>
</g>
<!-- 0&#45;&gt;1 -->
<!-- 2 -->
<g id="node3" class="node">
<title>2</title>
<polygon fill="#e5b844" stroke="black" points="495.97,-586.71 331.97,-586.71 331.97,-508.71 495.97,-508.71 495.97,-586.71"/>
<text text-anchor="start" x="374.97" y="-572.51" font-family="Helvetica,sans-Serif" font-weight="bold" font-size="14.00"> Class=1 </text>
<text text-anchor="start" x="447.97" y="-572.51" font-family="Helvetica,sans-Serif" font-size="14.00"> </text>
<text text-anchor="start" x="339.97" y="-558.51" font-family="Helvetica,sans-Serif" font-size="14.00"> error: 0.290, n=583 </text>
<text text-anchor="start" x="358.97" y="-544.51" font-family="Helvetica,sans-Serif" font-size="14.00"> p: (0.95, 0.05) </text>
<text text-anchor="start" x="408.47" y="-530.51" font-family="Helvetica,sans-Serif" font-size="14.00">&#45;&#45;</text>
<text text-anchor="start" x="403.47" y="-516.51" font-family="Helvetica,sans-Serif" font-weight="bold" font-size="14.00">V6</text>
</g>
<!-- 1&#45;&gt;2 -->
<g id="edge2" class="edge">
<title>1:s&#45;&gt;2:n</title>
<path fill="none" stroke="black" d="M530.97,-637.71C530.97,-637.71 450.73,-602.74 423.15,-590.71"/>
<polygon fill="black" stroke="black" points="424.53,-587.5 413.97,-586.71 421.73,-593.92 424.53,-587.5"/>
<text text-anchor="middle" x="506.97" y="-608.51" font-family="Helvetica,sans-Serif" font-size="14.00">&gt; 3.2</text>
</g>
<!-- 9 -->
<g id="node4" class="node">
<title>9</title>
<polygon fill="#e5b844" stroke="black" points="739.97,-586.71 575.97,-586.71 575.97,-508.71 739.97,-508.71 739.97,-586.71"/>
<text text-anchor="start" x="618.97" y="-572.51" font-family="Helvetica,sans-Serif" font-weight="bold" font-size="14.00"> Class=1 </text>
<text text-anchor="start" x="691.97" y="-572.51" font-family="Helvetica,sans-Serif" font-size="14.00"> </text>
<text text-anchor="start" x="583.97" y="-558.51" font-family="Helvetica,sans-Serif" font-size="14.00"> error: 0.931, n=583 </text>
<text text-anchor="start" x="602.97" y="-544.51" font-family="Helvetica,sans-Serif" font-size="14.00"> p: (0.65, 0.35) </text>
<text text-anchor="start" x="652.47" y="-530.51" font-family="Helvetica,sans-Serif" font-size="14.00">&#45;&#45;</text>
<text text-anchor="start" x="647.47" y="-516.51" font-family="Helvetica,sans-Serif" font-weight="bold" font-size="14.00">V6</text>
</g>
<!-- 1&#45;&gt;9 -->
<g id="edge3" class="edge">
<title>1:s&#45;&gt;9:n</title>
<path fill="none" stroke="black" d="M530.97,-637.71C530.97,-637.71 618.88,-602.4 648.42,-590.54"/>
<polygon fill="black" stroke="black" points="649.99,-593.69 657.97,-586.71 647.38,-587.19 649.99,-593.69"/>
<text text-anchor="middle" x="635.97" y="-608.51" font-family="Helvetica,sans-Serif" font-size="14.00">&lt;= 3.2</text>
</g>
<!-- 3 -->
<g id="node5" class="node">
<title>3</title>
<polygon fill="#8dcc3d" stroke="black" points="469.97,-457.71 305.97,-457.71 305.97,-379.71 469.97,-379.71 469.97,-457.71"/>
<text text-anchor="start" x="348.97" y="-443.51" font-family="Helvetica,sans-Serif" font-weight="bold" font-size="14.00"> Class=1 </text>
<text text-anchor="start" x="421.97" y="-443.51" font-family="Helvetica,sans-Serif" font-size="14.00"> </text>
<text text-anchor="start" x="313.97" y="-429.51" font-family="Helvetica,sans-Serif" font-size="14.00"> error: 0.255, n=583 </text>
<text text-anchor="start" x="332.97" y="-415.51" font-family="Helvetica,sans-Serif" font-size="14.00"> p: (0.96, 0.04) </text>
<text text-anchor="start" x="382.47" y="-401.51" font-family="Helvetica,sans-Serif" font-size="14.00">&#45;&#45;</text>
<text text-anchor="start" x="377.47" y="-387.51" font-family="Helvetica,sans-Serif" font-weight="bold" font-size="14.00">V8</text>
</g>
<!-- 2&#45;&gt;3 -->
<g id="edge4" class="edge">
<title>2:s&#45;&gt;3:n</title>
<path fill="none" stroke="black" d="M413.97,-508.71C413.97,-508.71 400.24,-481.79 392.73,-467.06"/>
<polygon fill="black" stroke="black" points="395.63,-465.03 387.97,-457.71 389.39,-468.21 395.63,-465.03"/>
<text text-anchor="middle" x="422.47" y="-479.51" font-family="Helvetica,sans-Serif" font-size="14.00">&gt; 11</text>
</g>
<!-- 10 -->
<g id="node11" class="node">
<title>10</title>
<ellipse fill="#8dcc3d" stroke="black" cx="657.97" cy="-418.71" rx="115.93" ry="35.21"/>
<text text-anchor="start" x="618.97" y="-429.51" font-family="Helvetica,sans-Serif" font-weight="bold" font-size="14.00"> Class=1 </text>
<text text-anchor="start" x="691.97" y="-429.51" font-family="Helvetica,sans-Serif" font-size="14.00"> </text>
<text text-anchor="start" x="583.97" y="-415.51" font-family="Helvetica,sans-Serif" font-size="14.00"> error: 0.965, n=583 </text>
<text text-anchor="start" x="602.97" y="-401.51" font-family="Helvetica,sans-Serif" font-size="14.00"> p: (0.61, 0.39) </text>
</g>
<!-- 9&#45;&gt;10 -->
<g id="edge10" class="edge">
<title>9:s&#45;&gt;10:n</title>
<path fill="none" stroke="black" d="M657.97,-508.71C657.97,-508.71 657.97,-481.33 657.97,-465.93"/>
<polygon fill="black" stroke="black" points="661.47,-465.71 657.97,-455.71 654.47,-465.71 661.47,-465.71"/>
<text text-anchor="middle" x="681.47" y="-479.51" font-family="Helvetica,sans-Serif" font-size="14.00">&lt;= 70</text>
</g>
<!-- 11 -->
<g id="node12" class="node">
<title>11</title>
<polygon fill="#8dcc3d" stroke="black" points="1009.97,-457.71 845.97,-457.71 845.97,-379.71 1009.97,-379.71 1009.97,-457.71"/>
<text text-anchor="start" x="888.97" y="-443.51" font-family="Helvetica,sans-Serif" font-weight="bold" font-size="14.00"> Class=1 </text>
<text text-anchor="start" x="961.97" y="-443.51" font-family="Helvetica,sans-Serif" font-size="14.00"> </text>
<text text-anchor="start" x="853.97" y="-429.51" font-family="Helvetica,sans-Serif" font-size="14.00"> error: 0.469, n=583 </text>
<text text-anchor="start" x="872.97" y="-415.51" font-family="Helvetica,sans-Serif" font-size="14.00"> p: (0.90, 0.10) </text>
<text text-anchor="start" x="922.47" y="-401.51" font-family="Helvetica,sans-Serif" font-size="14.00">&#45;&#45;</text>
<text text-anchor="start" x="917.47" y="-387.51" font-family="Helvetica,sans-Serif" font-weight="bold" font-size="14.00">V1</text>
</g>
<!-- 9&#45;&gt;11 -->
<g id="edge11" class="edge">
<title>9:s&#45;&gt;11:n</title>
<path fill="none" stroke="black" d="M657.97,-508.71C657.97,-508.71 869.32,-468.79 918.04,-459.59"/>
<polygon fill="black" stroke="black" points="918.79,-463.01 927.97,-457.71 917.49,-456.13 918.79,-463.01"/>
<text text-anchor="middle" x="842.47" y="-479.51" font-family="Helvetica,sans-Serif" font-size="14.00">&gt; 70</text>
</g>
<!-- 4 -->
<g id="node6" class="node">
<title>4</title>
<polygon fill="#44e55e" stroke="black" points="263.97,-328.71 99.97,-328.71 99.97,-250.71 263.97,-250.71 263.97,-328.71"/>
<text text-anchor="start" x="142.97" y="-314.51" font-family="Helvetica,sans-Serif" font-weight="bold" font-size="14.00"> Class=1 </text>
<text text-anchor="start" x="215.97" y="-314.51" font-family="Helvetica,sans-Serif" font-size="14.00"> </text>
<text text-anchor="start" x="107.97" y="-300.51" font-family="Helvetica,sans-Serif" font-size="14.00"> error: 0.457, n=583 </text>
<text text-anchor="start" x="126.97" y="-286.51" font-family="Helvetica,sans-Serif" font-size="14.00"> p: (0.90, 0.10) </text>
<text text-anchor="start" x="176.47" y="-272.51" font-family="Helvetica,sans-Serif" font-size="14.00">&#45;&#45;</text>
<text text-anchor="start" x="171.47" y="-258.51" font-family="Helvetica,sans-Serif" font-weight="bold" font-size="14.00">V3</text>
</g>
<!-- 3&#45;&gt;4 -->
<g id="edge5" class="edge">
<title>3:s&#45;&gt;4:n</title>
<path fill="none" stroke="black" d="M387.97,-379.71C387.97,-379.71 233.05,-341.36 191.9,-331.17"/>
<polygon fill="black" stroke="black" points="192.51,-327.72 181.97,-328.71 190.83,-334.51 192.51,-327.72"/>
<text text-anchor="middle" x="335.97" y="-350.51" font-family="Helvetica,sans-Serif" font-size="14.00">&lt;= 6.3</text>
</g>
<!-- 8 -->
<g id="node7" class="node">
<title>8</title>
<ellipse fill="#44e55e" stroke="black" cx="451.97" cy="-289.71" rx="115.93" ry="35.21"/>
<text text-anchor="start" x="412.97" y="-300.51" font-family="Helvetica,sans-Serif" font-weight="bold" font-size="14.00"> Class=1 </text>
<text text-anchor="start" x="485.97" y="-300.51" font-family="Helvetica,sans-Serif" font-size="14.00"> </text>
<text text-anchor="start" x="377.97" y="-286.51" font-family="Helvetica,sans-Serif" font-size="14.00"> error: 0.000, n=583 </text>
<text text-anchor="start" x="396.97" y="-272.51" font-family="Helvetica,sans-Serif" font-size="14.00"> p: (1.00, 0.00) </text>
</g>
<!-- 3&#45;&gt;8 -->
<g id="edge6" class="edge">
<title>3:s&#45;&gt;8:n</title>
<path fill="none" stroke="black" d="M387.97,-379.71C387.97,-379.71 427.03,-347.36 444.12,-333.21"/>
<polygon fill="black" stroke="black" points="446.5,-335.78 451.97,-326.71 442.03,-330.39 446.5,-335.78"/>
<text text-anchor="middle" x="447.97" y="-350.51" font-family="Helvetica,sans-Serif" font-size="14.00">&gt; 6.3</text>
</g>
<!-- 5 -->
<g id="node8" class="node">
<title>5</title>
<polygon fill="#3dccba" stroke="black" points="197.97,-199.71 33.97,-199.71 33.97,-121.71 197.97,-121.71 197.97,-199.71"/>
<text text-anchor="start" x="76.97" y="-185.51" font-family="Helvetica,sans-Serif" font-weight="bold" font-size="14.00"> Class=1 </text>
<text text-anchor="start" x="149.97" y="-185.51" font-family="Helvetica,sans-Serif" font-size="14.00"> </text>
<text text-anchor="start" x="41.97" y="-171.51" font-family="Helvetica,sans-Serif" font-size="14.00"> error: 0.663, n=583 </text>
<text text-anchor="start" x="60.97" y="-157.51" font-family="Helvetica,sans-Serif" font-size="14.00"> p: (0.83, 0.17) </text>
<text text-anchor="start" x="110.47" y="-143.51" font-family="Helvetica,sans-Serif" font-size="14.00">&#45;&#45;</text>
<text text-anchor="start" x="105.47" y="-129.51" font-family="Helvetica,sans-Serif" font-weight="bold" font-size="14.00">V5</text>
</g>
<!-- 4&#45;&gt;5 -->
<g id="edge7" class="edge">
<title>4:s&#45;&gt;5:n</title>
<path fill="none" stroke="black" d="M181.97,-250.71C181.97,-250.71 141.68,-219.58 124.06,-205.96"/>
<polygon fill="black" stroke="black" points="126.02,-203.06 115.97,-199.71 121.74,-208.59 126.02,-203.06"/>
<text text-anchor="middle" x="187.47" y="-221.51" font-family="Helvetica,sans-Serif" font-size="14.00">&lt;= 10.6</text>
</g>
<!-- 7 -->
<g id="node9" class="node">
<title>7</title>
<ellipse fill="#3dccba" stroke="black" cx="385.97" cy="-160.71" rx="115.93" ry="35.21"/>
<text text-anchor="start" x="346.97" y="-171.51" font-family="Helvetica,sans-Serif" font-weight="bold" font-size="14.00"> Class=1 </text>
<text text-anchor="start" x="419.97" y="-171.51" font-family="Helvetica,sans-Serif" font-size="14.00"> </text>
<text text-anchor="start" x="311.97" y="-157.51" font-family="Helvetica,sans-Serif" font-size="14.00"> error: 0.000, n=583 </text>
<text text-anchor="start" x="330.97" y="-143.51" font-family="Helvetica,sans-Serif" font-size="14.00"> p: (1.00, 0.00) </text>
</g>
<!-- 4&#45;&gt;7 -->
<g id="edge8" class="edge">
<title>4:s&#45;&gt;7:n</title>
<path fill="none" stroke="black" d="M181.97,-250.71C181.97,-250.71 335.38,-210.85 376.13,-200.27"/>
<polygon fill="black" stroke="black" points="377.17,-203.61 385.97,-197.71 375.41,-196.84 377.17,-203.61"/>
<text text-anchor="middle" x="333.47" y="-221.51" font-family="Helvetica,sans-Serif" font-size="14.00">&gt; 10.6</text>
</g>
<!-- 6 -->
<g id="node10" class="node">
<title>6</title>
<ellipse fill="#4485e5" stroke="black" cx="115.97" cy="-35.36" rx="115.93" ry="35.21"/>
<text text-anchor="start" x="76.97" y="-46.16" font-family="Helvetica,sans-Serif" font-weight="bold" font-size="14.00"> Class=1 </text>
<text text-anchor="start" x="149.97" y="-46.16" font-family="Helvetica,sans-Serif" font-size="14.00"> </text>
<text text-anchor="start" x="41.97" y="-32.16" font-family="Helvetica,sans-Serif" font-size="14.00"> error: 0.426, n=583 </text>
<text text-anchor="start" x="60.97" y="-18.16" font-family="Helvetica,sans-Serif" font-size="14.00"> p: (0.91, 0.09) </text>
</g>
<!-- 5&#45;&gt;6 -->
<g id="edge9" class="edge">
<title>5:s&#45;&gt;6:n</title>
<path fill="none" stroke="black" d="M115.97,-121.71C115.97,-121.71 115.97,-95.93 115.97,-81.03"/>
<polygon fill="black" stroke="black" points="119.47,-80.71 115.97,-70.71 112.47,-80.71 119.47,-80.71"/>
<text text-anchor="middle" x="143.97" y="-92.51" font-family="Helvetica,sans-Serif" font-size="14.00">&lt;= 599</text>
</g>
<!-- 12 -->
<g id="node13" class="node">
<title>12</title>
<polygon fill="#44e55e" stroke="black" points="803.97,-328.71 639.97,-328.71 639.97,-250.71 803.97,-250.71 803.97,-328.71"/>
<text text-anchor="start" x="682.97" y="-314.51" font-family="Helvetica,sans-Serif" font-weight="bold" font-size="14.00"> Class=1 </text>
<text text-anchor="start" x="755.97" y="-314.51" font-family="Helvetica,sans-Serif" font-size="14.00"> </text>
<text text-anchor="start" x="647.97" y="-300.51" font-family="Helvetica,sans-Serif" font-size="14.00"> error: 0.689, n=583 </text>
<text text-anchor="start" x="666.97" y="-286.51" font-family="Helvetica,sans-Serif" font-size="14.00"> p: (0.82, 0.18) </text>
<text text-anchor="start" x="716.47" y="-272.51" font-family="Helvetica,sans-Serif" font-size="14.00">&#45;&#45;</text>
<text text-anchor="start" x="711.47" y="-258.51" font-family="Helvetica,sans-Serif" font-weight="bold" font-size="14.00">V6</text>
</g>
<!-- 11&#45;&gt;12 -->
<g id="edge12" class="edge">
<title>11:s&#45;&gt;12:n</title>
<path fill="none" stroke="black" d="M927.97,-379.71C927.97,-379.71 773.05,-341.36 731.9,-331.17"/>
<polygon fill="black" stroke="black" points="732.51,-327.72 721.97,-328.71 730.83,-334.51 732.51,-327.72"/>
<text text-anchor="middle" x="872.47" y="-350.51" font-family="Helvetica,sans-Serif" font-size="14.00">&lt;= 41</text>
</g>
<!-- 15 -->
<g id="node14" class="node">
<title>15</title>
<ellipse fill="#44e55e" stroke="black" cx="991.97" cy="-289.71" rx="115.93" ry="35.21"/>
<text text-anchor="start" x="952.97" y="-300.51" font-family="Helvetica,sans-Serif" font-weight="bold" font-size="14.00"> Class=1 </text>
<text text-anchor="start" x="1025.97" y="-300.51" font-family="Helvetica,sans-Serif" font-size="14.00"> </text>
<text text-anchor="start" x="917.97" y="-286.51" font-family="Helvetica,sans-Serif" font-size="14.00"> error: 0.000, n=583 </text>
<text text-anchor="start" x="936.97" y="-272.51" font-family="Helvetica,sans-Serif" font-size="14.00"> p: (1.00, 0.00) </text>
</g>
<!-- 11&#45;&gt;15 -->
<g id="edge13" class="edge">
<title>11:s&#45;&gt;15:n</title>
<path fill="none" stroke="black" d="M927.97,-379.71C927.97,-379.71 967.03,-347.36 984.12,-333.21"/>
<polygon fill="black" stroke="black" points="986.5,-335.78 991.97,-326.71 982.03,-330.39 986.5,-335.78"/>
<text text-anchor="middle" x="984.47" y="-350.51" font-family="Helvetica,sans-Serif" font-size="14.00">&gt; 41</text>
</g>
<!-- 13 -->
<g id="node15" class="node">
<title>13</title>
<polygon fill="#3dccba" stroke="black" points="803.97,-199.71 639.97,-199.71 639.97,-121.71 803.97,-121.71 803.97,-199.71"/>
<text text-anchor="start" x="682.97" y="-185.51" font-family="Helvetica,sans-Serif" font-weight="bold" font-size="14.00"> Class=1 </text>
<text text-anchor="start" x="755.97" y="-185.51" font-family="Helvetica,sans-Serif" font-size="14.00"> </text>
<text text-anchor="start" x="647.97" y="-171.51" font-family="Helvetica,sans-Serif" font-size="14.00"> error: 0.811, n=583 </text>
<text text-anchor="start" x="666.97" y="-157.51" font-family="Helvetica,sans-Serif" font-size="14.00"> p: (0.75, 0.25) </text>
<text text-anchor="start" x="716.47" y="-143.51" font-family="Helvetica,sans-Serif" font-size="14.00">&#45;&#45;</text>
<text text-anchor="start" x="711.47" y="-129.51" font-family="Helvetica,sans-Serif" font-weight="bold" font-size="14.00">V1</text>
</g>
<!-- 12&#45;&gt;13 -->
<g id="edge14" class="edge">
<title>12:s&#45;&gt;13:n</title>
<path fill="none" stroke="black" d="M721.97,-250.71C721.97,-250.71 721.97,-224.93 721.97,-210.03"/>
<polygon fill="black" stroke="black" points="725.47,-209.71 721.97,-199.71 718.47,-209.71 725.47,-209.71"/>
<text text-anchor="middle" x="749.97" y="-221.51" font-family="Helvetica,sans-Serif" font-size="14.00">&lt;= 168</text>
</g>
<!-- 14 -->
<g id="node16" class="node">
<title>14</title>
<ellipse fill="#4485e5" stroke="black" cx="721.97" cy="-35.36" rx="115.93" ry="35.21"/>
<text text-anchor="start" x="682.97" y="-46.16" font-family="Helvetica,sans-Serif" font-weight="bold" font-size="14.00"> Class=1 </text>
<text text-anchor="start" x="755.97" y="-46.16" font-family="Helvetica,sans-Serif" font-size="14.00"> </text>
<text text-anchor="start" x="647.97" y="-32.16" font-family="Helvetica,sans-Serif" font-size="14.00"> error: 0.764, n=583 </text>
<text text-anchor="start" x="666.97" y="-18.16" font-family="Helvetica,sans-Serif" font-size="14.00"> p: (0.78, 0.22) </text>
</g>
<!-- 13&#45;&gt;14 -->
<g id="edge15" class="edge">
<title>13:s&#45;&gt;14:n</title>
<path fill="none" stroke="black" d="M721.97,-121.71C721.97,-121.71 721.97,-95.93 721.97,-81.03"/>
<polygon fill="black" stroke="black" points="725.47,-80.71 721.97,-70.71 718.47,-80.71 725.47,-80.71"/>
<text text-anchor="middle" x="734.97" y="-92.51" font-family="Helvetica,sans-Serif" font-size="14.00">&gt; 4</text>
</g>
</g>
</svg>
