<?xml version="1.0" encoding="UTF-8" standalone="no"?>
<!DOCTYPE svg PUBLIC "-//W3C//DTD SVG 1.1//EN"
 "http://www.w3.org/Graphics/SVG/1.1/DTD/svg11.dtd">
<!-- Generated by graphviz version 2.43.0 (0)
 -->
<!-- Title: Tree Pages: 1 -->
<svg width="836pt" height="567pt"
 viewBox="0.00 0.00 835.66 566.71" xmlns="http://www.w3.org/2000/svg" xmlns:xlink="http://www.w3.org/1999/xlink">
<g id="graph0" class="graph" transform="scale(1 1) rotate(0) translate(18 548.71)">
<title>Tree</title>
<polygon fill="white" stroke="transparent" points="-18,18 -18,-548.71 817.66,-548.71 817.66,18 -18,18"/>
<!-- 0 -->
<g id="node1" class="node">
<title>0</title>
<polygon fill="white" stroke="transparent" points="420.33,-530.71 366.33,-530.71 366.33,-494.71 420.33,-494.71 420.33,-530.71"/>
<text text-anchor="middle" x="393.33" y="-509.01" font-family="Helvetica,sans-Serif" font-size="14.00">0</text>
</g>
<!-- 1 -->
<g id="node2" class="node">
<title>1</title>
<polygon fill="#cc3d3d" stroke="black" points="479.83,-457.71 306.83,-457.71 306.83,-379.71 479.83,-379.71 479.83,-457.71"/>
<text text-anchor="start" x="339.83" y="-443.51" font-family="Helvetica,sans-Serif" font-weight="bold" font-size="14.00"> Class=noad </text>
<text text-anchor="start" x="441.83" y="-443.51" font-family="Helvetica,sans-Serif" font-size="14.00"> </text>
<text text-anchor="start" x="314.83" y="-429.51" font-family="Helvetica,sans-Serif" font-size="14.00"> error: 0.584, n=3279 </text>
<text text-anchor="start" x="338.33" y="-415.51" font-family="Helvetica,sans-Serif" font-size="14.00"> p: (0.14, 0.86) </text>
<text text-anchor="start" x="377.33" y="-401.51" font-family="Helvetica,sans-Serif" font-size="14.00">&#45;&#45;&#45;&#45;&#45;&#45;</text>
<text text-anchor="start" x="369.33" y="-387.51" font-family="Helvetica,sans-Serif" font-weight="bold" font-size="14.00">aratio</text>
</g>
<!-- 0&#45;&gt;1 -->
<!-- 2 -->
<g id="node3" class="node">
<title>2</title>
<polygon fill="#c5e544" stroke="black" points="229.83,-328.71 56.83,-328.71 56.83,-250.71 229.83,-250.71 229.83,-328.71"/>
<text text-anchor="start" x="89.83" y="-314.51" font-family="Helvetica,sans-Serif" font-weight="bold" font-size="14.00"> Class=noad </text>
<text text-anchor="start" x="191.83" y="-314.51" font-family="Helvetica,sans-Serif" font-size="14.00"> </text>
<text text-anchor="start" x="64.83" y="-300.51" font-family="Helvetica,sans-Serif" font-size="14.00"> error: 0.403, n=3279 </text>
<text text-anchor="start" x="88.33" y="-286.51" font-family="Helvetica,sans-Serif" font-size="14.00"> p: (0.08, 0.92) </text>
<text text-anchor="start" x="124.83" y="-272.51" font-family="Helvetica,sans-Serif" font-size="14.00">&#45;&#45;&#45;&#45;&#45;&#45;&#45;</text>
<text text-anchor="start" x="115.83" y="-258.51" font-family="Helvetica,sans-Serif" font-weight="bold" font-size="14.00">url.ads</text>
</g>
<!-- 1&#45;&gt;2 -->
<g id="edge2" class="edge">
<title>1:s&#45;&gt;2:n</title>
<path fill="none" stroke="black" d="M393.33,-379.71C393.33,-379.71 199.35,-340.14 153.13,-330.71"/>
<polygon fill="black" stroke="black" points="153.83,-327.28 143.33,-328.71 152.43,-334.14 153.83,-327.28"/>
<text text-anchor="middle" x="309.83" y="-350.51" font-family="Helvetica,sans-Serif" font-size="14.00">0.0</text>
</g>
<!-- 5 -->
<g id="node4" class="node">
<title>5</title>
<polygon fill="#c5e544" stroke="black" points="483.33,-328.71 303.33,-328.71 303.33,-250.71 483.33,-250.71 483.33,-328.71"/>
<text text-anchor="start" x="349.83" y="-314.51" font-family="Helvetica,sans-Serif" font-weight="bold" font-size="14.00"> Class=ad </text>
<text text-anchor="start" x="431.83" y="-314.51" font-family="Helvetica,sans-Serif" font-size="14.00"> </text>
<text text-anchor="start" x="314.83" y="-300.51" font-family="Helvetica,sans-Serif" font-size="14.00"> error: 0.120, n=3279 </text>
<text text-anchor="start" x="338.33" y="-286.51" font-family="Helvetica,sans-Serif" font-size="14.00"> p: (0.98, 0.02) </text>
<text text-anchor="start" x="337.83" y="-272.51" font-family="Helvetica,sans-Serif" font-size="14.00">&#45;&#45;&#45;&#45;&#45;&#45;&#45;&#45;&#45;&#45;&#45;&#45;&#45;&#45;&#45;&#45;&#45;&#45;&#45;&#45;&#45;</text>
<text text-anchor="start" x="311.33" y="-258.51" font-family="Helvetica,sans-Serif" font-weight="bold" font-size="14.00">origurl.4301.misfits2</text>
</g>
<!-- 1&#45;&gt;5 -->
<g id="edge3" class="edge">
<title>1:s&#45;&gt;5:n</title>
<path fill="none" stroke="black" d="M393.33,-379.71C393.33,-379.71 393.33,-353.93 393.33,-339.03"/>
<polygon fill="black" stroke="black" points="396.83,-338.71 393.33,-328.71 389.83,-338.71 396.83,-338.71"/>
<text text-anchor="middle" x="404.83" y="-350.51" font-family="Helvetica,sans-Serif" font-size="14.00">7.8</text>
</g>
<!-- 8 -->
<g id="node5" class="node">
<title>8</title>
<ellipse fill="#c5e544" stroke="black" cx="677.33" cy="-289.71" rx="122.16" ry="35.21"/>
<text text-anchor="start" x="623.83" y="-300.51" font-family="Helvetica,sans-Serif" font-weight="bold" font-size="14.00"> Class=noad </text>
<text text-anchor="start" x="725.83" y="-300.51" font-family="Helvetica,sans-Serif" font-size="14.00"> </text>
<text text-anchor="start" x="598.83" y="-286.51" font-family="Helvetica,sans-Serif" font-size="14.00"> error: 0.489, n=3279 </text>
<text text-anchor="start" x="622.33" y="-272.51" font-family="Helvetica,sans-Serif" font-size="14.00"> p: (0.11, 0.89) </text>
</g>
<!-- 1&#45;&gt;8 -->
<g id="edge4" class="edge">
<title>1:s&#45;&gt;8:n</title>
<path fill="none" stroke="black" d="M393.33,-379.71C393.33,-379.71 616.63,-338.04 667.22,-328.6"/>
<polygon fill="black" stroke="black" points="668.14,-331.99 677.33,-326.71 666.86,-325.1 668.14,-331.99"/>
<text text-anchor="middle" x="579.83" y="-350.51" font-family="Helvetica,sans-Serif" font-size="14.00">1.0</text>
</g>
<!-- 3 -->
<g id="node6" class="node">
<title>3</title>
<polygon fill="#3dcc76" stroke="black" points="223.83,-199.71 50.83,-199.71 50.83,-121.71 223.83,-121.71 223.83,-199.71"/>
<text text-anchor="start" x="83.83" y="-185.51" font-family="Helvetica,sans-Serif" font-weight="bold" font-size="14.00"> Class=noad </text>
<text text-anchor="start" x="185.83" y="-185.51" font-family="Helvetica,sans-Serif" font-size="14.00"> </text>
<text text-anchor="start" x="58.83" y="-171.51" font-family="Helvetica,sans-Serif" font-size="14.00"> error: 0.263, n=3279 </text>
<text text-anchor="start" x="82.33" y="-157.51" font-family="Helvetica,sans-Serif" font-size="14.00"> p: (0.04, 0.96) </text>
<text text-anchor="start" x="105.33" y="-143.51" font-family="Helvetica,sans-Serif" font-size="14.00">&#45;&#45;&#45;&#45;&#45;&#45;&#45;&#45;&#45;&#45;&#45;&#45;</text>
<text text-anchor="start" x="92.83" y="-129.51" font-family="Helvetica,sans-Serif" font-weight="bold" font-size="14.00">ancurl.click</text>
</g>
<!-- 2&#45;&gt;3 -->
<g id="edge5" class="edge">
<title>2:s&#45;&gt;3:n</title>
<path fill="none" stroke="black" d="M143.33,-250.71C143.33,-250.71 140.3,-224.93 138.54,-210.03"/>
<polygon fill="black" stroke="black" points="141.97,-209.23 137.33,-199.71 135.02,-210.05 141.97,-209.23"/>
<text text-anchor="middle" x="146.33" y="-221.51" font-family="Helvetica,sans-Serif" font-size="14.00">0</text>
</g>
<!-- 6 -->
<g id="node8" class="node">
<title>6</title>
<polygon fill="#3dcc76" stroke="black" points="522.83,-199.71 325.83,-199.71 325.83,-121.71 522.83,-121.71 522.83,-199.71"/>
<text text-anchor="start" x="380.83" y="-185.51" font-family="Helvetica,sans-Serif" font-weight="bold" font-size="14.00"> Class=ad </text>
<text text-anchor="start" x="462.83" y="-185.51" font-family="Helvetica,sans-Serif" font-size="14.00"> </text>
<text text-anchor="start" x="345.83" y="-171.51" font-family="Helvetica,sans-Serif" font-size="14.00"> error: 0.087, n=3279 </text>
<text text-anchor="start" x="369.33" y="-157.51" font-family="Helvetica,sans-Serif" font-size="14.00"> p: (0.99, 0.01) </text>
<text text-anchor="start" x="366.33" y="-143.51" font-family="Helvetica,sans-Serif" font-size="14.00">&#45;&#45;&#45;&#45;&#45;&#45;&#45;&#45;&#45;&#45;&#45;&#45;&#45;&#45;&#45;&#45;&#45;&#45;&#45;&#45;&#45;&#45;</text>
<text text-anchor="start" x="333.83" y="-129.51" font-family="Helvetica,sans-Serif" font-weight="bold" font-size="14.00">origurl.hollywood.9662</text>
</g>
<!-- 5&#45;&gt;6 -->
<g id="edge7" class="edge">
<title>5:s&#45;&gt;6:n</title>
<path fill="none" stroke="black" d="M393.33,-250.71C393.33,-250.71 410.05,-223.21 418.93,-208.59"/>
<polygon fill="black" stroke="black" points="422.13,-210.07 424.33,-199.71 416.14,-206.44 422.13,-210.07"/>
<text text-anchor="middle" x="418.33" y="-221.51" font-family="Helvetica,sans-Serif" font-size="14.00">0</text>
</g>
<!-- 4 -->
<g id="node7" class="node">
<title>4</title>
<ellipse fill="#4485e5" stroke="black" cx="122.33" cy="-35.36" rx="122.16" ry="35.21"/>
<text text-anchor="start" x="68.83" y="-46.16" font-family="Helvetica,sans-Serif" font-weight="bold" font-size="14.00"> Class=noad </text>
<text text-anchor="start" x="170.83" y="-46.16" font-family="Helvetica,sans-Serif" font-size="14.00"> </text>
<text text-anchor="start" x="43.83" y="-32.16" font-family="Helvetica,sans-Serif" font-size="14.00"> error: 0.190, n=3279 </text>
<text text-anchor="start" x="67.33" y="-18.16" font-family="Helvetica,sans-Serif" font-size="14.00"> p: (0.03, 0.97) </text>
</g>
<!-- 3&#45;&gt;4 -->
<g id="edge6" class="edge">
<title>3:s&#45;&gt;4:n</title>
<path fill="none" stroke="black" d="M137.33,-121.71C137.33,-121.71 129.58,-95.36 125.22,-80.54"/>
<polygon fill="black" stroke="black" points="128.51,-79.32 122.33,-70.71 121.79,-81.29 128.51,-79.32"/>
<text text-anchor="middle" x="137.33" y="-92.51" font-family="Helvetica,sans-Serif" font-size="14.00">0</text>
</g>
<!-- 7 -->
<g id="node9" class="node">
<title>7</title>
<ellipse fill="#4485e5" stroke="black" cx="439.33" cy="-35.36" rx="122.16" ry="35.21"/>
<text text-anchor="start" x="395.83" y="-46.16" font-family="Helvetica,sans-Serif" font-weight="bold" font-size="14.00"> Class=ad </text>
<text text-anchor="start" x="477.83" y="-46.16" font-family="Helvetica,sans-Serif" font-size="14.00"> </text>
<text text-anchor="start" x="360.83" y="-32.16" font-family="Helvetica,sans-Serif" font-size="14.00"> error: 0.049, n=3279 </text>
<text text-anchor="start" x="384.33" y="-18.16" font-family="Helvetica,sans-Serif" font-size="14.00"> p: (0.99, 0.01) </text>
</g>
<!-- 6&#45;&gt;7 -->
<g id="edge8" class="edge">
<title>6:s&#45;&gt;7:n</title>
<path fill="none" stroke="black" d="M424.33,-121.71C424.33,-121.71 432.08,-95.36 436.44,-80.54"/>
<polygon fill="black" stroke="black" points="439.87,-81.29 439.33,-70.71 433.15,-79.32 439.87,-81.29"/>
<text text-anchor="middle" x="439.33" y="-92.51" font-family="Helvetica,sans-Serif" font-size="14.00">0</text>
</g>
</g>
</svg>
