<?xml version="1.0" encoding="UTF-8" standalone="no"?>
<!DOCTYPE svg PUBLIC "-//W3C//DTD SVG 1.1//EN"
 "http://www.w3.org/Graphics/SVG/1.1/DTD/svg11.dtd">
<!-- Generated by graphviz version 2.43.0 (0)
 -->
<!-- Title: Tree Pages: 1 -->
<svg width="866pt" height="825pt"
 viewBox="0.00 0.00 866.33 824.71" xmlns="http://www.w3.org/2000/svg" xmlns:xlink="http://www.w3.org/1999/xlink">
<g id="graph0" class="graph" transform="scale(1 1) rotate(0) translate(18 806.71)">
<title>Tree</title>
<polygon fill="white" stroke="transparent" points="-18,18 -18,-806.71 848.33,-806.71 848.33,18 -18,18"/>
<!-- 0 -->
<g id="node1" class="node">
<title>0</title>
<polygon fill="white" stroke="transparent" points="560.33,-788.71 506.33,-788.71 506.33,-752.71 560.33,-752.71 560.33,-788.71"/>
<text text-anchor="middle" x="533.33" y="-767.01" font-family="Helvetica,sans-Serif" font-size="14.00">0</text>
</g>
<!-- 1 -->
<g id="node2" class="node">
<title>1</title>
<polygon fill="#cc3d3d" stroke="black" points="619.83,-715.71 446.83,-715.71 446.83,-637.71 619.83,-637.71 619.83,-715.71"/>
<text text-anchor="start" x="479.83" y="-701.51" font-family="Helvetica,sans-Serif" font-weight="bold" font-size="14.00"> Class=noad </text>
<text text-anchor="start" x="581.83" y="-701.51" font-family="Helvetica,sans-Serif" font-size="14.00"> </text>
<text text-anchor="start" x="454.83" y="-687.51" font-family="Helvetica,sans-Serif" font-size="14.00"> error: 0.584, n=3279 </text>
<text text-anchor="start" x="478.33" y="-673.51" font-family="Helvetica,sans-Serif" font-size="14.00"> p: (0.14, 0.86) </text>
<text text-anchor="start" x="506.83" y="-659.51" font-family="Helvetica,sans-Serif" font-size="14.00">&#45;&#45;&#45;&#45;&#45;&#45;&#45;&#45;&#45;&#45;</text>
<text text-anchor="start" x="489.83" y="-645.51" font-family="Helvetica,sans-Serif" font-weight="bold" font-size="14.00">ancurl.com</text>
</g>
<!-- 0&#45;&gt;1 -->
<!-- 2 -->
<g id="node3" class="node">
<title>2</title>
<polygon fill="#e5b844" stroke="black" points="489.83,-586.71 316.83,-586.71 316.83,-508.71 489.83,-508.71 489.83,-586.71"/>
<text text-anchor="start" x="349.83" y="-572.51" font-family="Helvetica,sans-Serif" font-weight="bold" font-size="14.00"> Class=noad </text>
<text text-anchor="start" x="451.83" y="-572.51" font-family="Helvetica,sans-Serif" font-size="14.00"> </text>
<text text-anchor="start" x="324.83" y="-558.51" font-family="Helvetica,sans-Serif" font-size="14.00"> error: 0.429, n=3279 </text>
<text text-anchor="start" x="348.33" y="-544.51" font-family="Helvetica,sans-Serif" font-size="14.00"> p: (0.09, 0.91) </text>
<text text-anchor="start" x="384.83" y="-530.51" font-family="Helvetica,sans-Serif" font-size="14.00">&#45;&#45;&#45;&#45;&#45;&#45;&#45;</text>
<text text-anchor="start" x="375.83" y="-516.51" font-family="Helvetica,sans-Serif" font-weight="bold" font-size="14.00">url.ads</text>
</g>
<!-- 1&#45;&gt;2 -->
<g id="edge2" class="edge">
<title>1:s&#45;&gt;2:n</title>
<path fill="none" stroke="black" d="M533.33,-637.71C533.33,-637.71 442.49,-602.07 412.68,-590.38"/>
<polygon fill="black" stroke="black" points="413.92,-587.1 403.33,-586.71 411.36,-593.62 413.92,-587.1"/>
<text text-anchor="middle" x="489.33" y="-608.51" font-family="Helvetica,sans-Serif" font-size="14.00">0</text>
</g>
<!-- 8 -->
<g id="node4" class="node">
<title>8</title>
<polygon fill="#e5b844" stroke="black" points="768.83,-586.71 561.83,-586.71 561.83,-508.71 768.83,-508.71 768.83,-586.71"/>
<text text-anchor="start" x="621.83" y="-572.51" font-family="Helvetica,sans-Serif" font-weight="bold" font-size="14.00"> Class=ad </text>
<text text-anchor="start" x="703.83" y="-572.51" font-family="Helvetica,sans-Serif" font-size="14.00"> </text>
<text text-anchor="start" x="586.83" y="-558.51" font-family="Helvetica,sans-Serif" font-size="14.00"> error: 0.426, n=3279 </text>
<text text-anchor="start" x="610.33" y="-544.51" font-family="Helvetica,sans-Serif" font-size="14.00"> p: (0.91, 0.09) </text>
<text text-anchor="start" x="607.33" y="-530.51" font-family="Helvetica,sans-Serif" font-size="14.00">&#45;&#45;&#45;&#45;&#45;&#45;&#45;&#45;&#45;&#45;&#45;&#45;&#45;&#45;&#45;&#45;&#45;&#45;&#45;&#45;&#45;&#45;</text>
<text text-anchor="start" x="569.83" y="-516.51" font-family="Helvetica,sans-Serif" font-weight="bold" font-size="14.00">ancurl.readersndex.com</text>
</g>
<!-- 1&#45;&gt;8 -->
<g id="edge3" class="edge">
<title>1:s&#45;&gt;8:n</title>
<path fill="none" stroke="black" d="M533.33,-637.71C533.33,-637.71 625.57,-602.07 655.84,-590.38"/>
<polygon fill="black" stroke="black" points="657.26,-593.58 665.33,-586.71 654.74,-587.05 657.26,-593.58"/>
<text text-anchor="middle" x="620.33" y="-608.51" font-family="Helvetica,sans-Serif" font-size="14.00">1</text>
</g>
<!-- 3 -->
<g id="node5" class="node">
<title>3</title>
<polygon fill="#8dcc3d" stroke="black" points="489.83,-457.71 316.83,-457.71 316.83,-379.71 489.83,-379.71 489.83,-457.71"/>
<text text-anchor="start" x="349.83" y="-443.51" font-family="Helvetica,sans-Serif" font-weight="bold" font-size="14.00"> Class=noad </text>
<text text-anchor="start" x="451.83" y="-443.51" font-family="Helvetica,sans-Serif" font-size="14.00"> </text>
<text text-anchor="start" x="324.83" y="-429.51" font-family="Helvetica,sans-Serif" font-size="14.00"> error: 0.349, n=3279 </text>
<text text-anchor="start" x="348.33" y="-415.51" font-family="Helvetica,sans-Serif" font-size="14.00"> p: (0.07, 0.93) </text>
<text text-anchor="start" x="389.83" y="-401.51" font-family="Helvetica,sans-Serif" font-size="14.00">&#45;&#45;&#45;&#45;&#45;</text>
<text text-anchor="start" x="381.33" y="-387.51" font-family="Helvetica,sans-Serif" font-weight="bold" font-size="14.00">width</text>
</g>
<!-- 2&#45;&gt;3 -->
<g id="edge4" class="edge">
<title>2:s&#45;&gt;3:n</title>
<path fill="none" stroke="black" d="M403.33,-508.71C403.33,-508.71 403.33,-482.93 403.33,-468.03"/>
<polygon fill="black" stroke="black" points="406.83,-467.71 403.33,-457.71 399.83,-467.71 406.83,-467.71"/>
<text text-anchor="middle" x="408.33" y="-479.51" font-family="Helvetica,sans-Serif" font-size="14.00">0</text>
</g>
<!-- 9 -->
<g id="node10" class="node">
<title>9</title>
<polygon fill="#8dcc3d" stroke="black" points="783.33,-457.71 577.33,-457.71 577.33,-379.71 783.33,-379.71 783.33,-457.71"/>
<text text-anchor="start" x="636.83" y="-443.51" font-family="Helvetica,sans-Serif" font-weight="bold" font-size="14.00"> Class=ad </text>
<text text-anchor="start" x="718.83" y="-443.51" font-family="Helvetica,sans-Serif" font-size="14.00"> </text>
<text text-anchor="start" x="601.83" y="-429.51" font-family="Helvetica,sans-Serif" font-size="14.00"> error: 0.267, n=3279 </text>
<text text-anchor="start" x="625.33" y="-415.51" font-family="Helvetica,sans-Serif" font-size="14.00"> p: (0.95, 0.05) </text>
<text text-anchor="start" x="622.33" y="-401.51" font-family="Helvetica,sans-Serif" font-size="14.00">&#45;&#45;&#45;&#45;&#45;&#45;&#45;&#45;&#45;&#45;&#45;&#45;&#45;&#45;&#45;&#45;&#45;&#45;&#45;&#45;&#45;&#45;</text>
<text text-anchor="start" x="585.33" y="-387.51" font-family="Helvetica,sans-Serif" font-weight="bold" font-size="14.00">url.members.tripod.com</text>
</g>
<!-- 8&#45;&gt;9 -->
<g id="edge9" class="edge">
<title>8:s&#45;&gt;9:n</title>
<path fill="none" stroke="black" d="M665.33,-508.71C665.33,-508.71 673.08,-482.36 677.44,-467.54"/>
<polygon fill="black" stroke="black" points="680.87,-468.29 680.33,-457.71 674.15,-466.32 680.87,-468.29"/>
<text text-anchor="middle" x="680.33" y="-479.51" font-family="Helvetica,sans-Serif" font-size="14.00">0</text>
</g>
<!-- 4 -->
<g id="node6" class="node">
<title>4</title>
<ellipse fill="#44e55e" stroke="black" cx="122.33" cy="-289.71" rx="122.16" ry="35.21"/>
<text text-anchor="start" x="68.83" y="-300.51" font-family="Helvetica,sans-Serif" font-weight="bold" font-size="14.00"> Class=noad </text>
<text text-anchor="start" x="170.83" y="-300.51" font-family="Helvetica,sans-Serif" font-size="14.00"> </text>
<text text-anchor="start" x="43.83" y="-286.51" font-family="Helvetica,sans-Serif" font-size="14.00"> error: 0.229, n=3279 </text>
<text text-anchor="start" x="67.33" y="-272.51" font-family="Helvetica,sans-Serif" font-size="14.00"> p: (0.04, 0.96) </text>
</g>
<!-- 3&#45;&gt;4 -->
<g id="edge5" class="edge">
<title>3:s&#45;&gt;4:n</title>
<path fill="none" stroke="black" d="M403.33,-379.71C403.33,-379.71 182.39,-338.04 132.33,-328.6"/>
<polygon fill="black" stroke="black" points="132.8,-325.12 122.33,-326.71 131.51,-332 132.8,-325.12"/>
<text text-anchor="middle" x="333.33" y="-350.51" font-family="Helvetica,sans-Serif" font-size="14.00">&lt;= 240</text>
</g>
<!-- 5 -->
<g id="node7" class="node">
<title>5</title>
<polygon fill="#44e55e" stroke="black" points="489.83,-328.71 316.83,-328.71 316.83,-250.71 489.83,-250.71 489.83,-328.71"/>
<text text-anchor="start" x="349.83" y="-314.51" font-family="Helvetica,sans-Serif" font-weight="bold" font-size="14.00"> Class=noad </text>
<text text-anchor="start" x="451.83" y="-314.51" font-family="Helvetica,sans-Serif" font-size="14.00"> </text>
<text text-anchor="start" x="324.83" y="-300.51" font-family="Helvetica,sans-Serif" font-size="14.00"> error: 0.978, n=3279 </text>
<text text-anchor="start" x="348.33" y="-286.51" font-family="Helvetica,sans-Serif" font-size="14.00"> p: (0.41, 0.59) </text>
<text text-anchor="start" x="389.83" y="-272.51" font-family="Helvetica,sans-Serif" font-size="14.00">&#45;&#45;&#45;&#45;&#45;</text>
<text text-anchor="start" x="381.33" y="-258.51" font-family="Helvetica,sans-Serif" font-weight="bold" font-size="14.00">width</text>
</g>
<!-- 3&#45;&gt;5 -->
<g id="edge6" class="edge">
<title>3:s&#45;&gt;5:n</title>
<path fill="none" stroke="black" d="M403.33,-379.71C403.33,-379.71 403.33,-353.93 403.33,-339.03"/>
<polygon fill="black" stroke="black" points="406.83,-338.71 403.33,-328.71 399.83,-338.71 406.83,-338.71"/>
<text text-anchor="middle" x="425.33" y="-350.51" font-family="Helvetica,sans-Serif" font-size="14.00">&gt; 240</text>
</g>
<!-- 6 -->
<g id="node8" class="node">
<title>6</title>
<polygon fill="#3dccba" stroke="black" points="489.83,-199.71 316.83,-199.71 316.83,-121.71 489.83,-121.71 489.83,-199.71"/>
<text text-anchor="start" x="359.83" y="-185.51" font-family="Helvetica,sans-Serif" font-weight="bold" font-size="14.00"> Class=ad </text>
<text text-anchor="start" x="441.83" y="-185.51" font-family="Helvetica,sans-Serif" font-size="14.00"> </text>
<text text-anchor="start" x="324.83" y="-171.51" font-family="Helvetica,sans-Serif" font-size="14.00"> error: 0.972, n=3279 </text>
<text text-anchor="start" x="348.33" y="-157.51" font-family="Helvetica,sans-Serif" font-size="14.00"> p: (0.60, 0.40) </text>
<text text-anchor="start" x="389.83" y="-143.51" font-family="Helvetica,sans-Serif" font-size="14.00">&#45;&#45;&#45;&#45;&#45;</text>
<text text-anchor="start" x="381.33" y="-129.51" font-family="Helvetica,sans-Serif" font-weight="bold" font-size="14.00">width</text>
</g>
<!-- 5&#45;&gt;6 -->
<g id="edge7" class="edge">
<title>5:s&#45;&gt;6:n</title>
<path fill="none" stroke="black" d="M403.33,-250.71C403.33,-250.71 403.33,-224.93 403.33,-210.03"/>
<polygon fill="black" stroke="black" points="406.83,-209.71 403.33,-199.71 399.83,-209.71 406.83,-209.71"/>
<text text-anchor="middle" x="425.33" y="-221.51" font-family="Helvetica,sans-Serif" font-size="14.00">&gt; 350</text>
</g>
<!-- 7 -->
<g id="node9" class="node">
<title>7</title>
<ellipse fill="#4485e5" stroke="black" cx="403.33" cy="-35.36" rx="122.16" ry="35.21"/>
<text text-anchor="start" x="359.83" y="-46.16" font-family="Helvetica,sans-Serif" font-weight="bold" font-size="14.00"> Class=ad </text>
<text text-anchor="start" x="441.83" y="-46.16" font-family="Helvetica,sans-Serif" font-size="14.00"> </text>
<text text-anchor="start" x="324.83" y="-32.16" font-family="Helvetica,sans-Serif" font-size="14.00"> error: 0.834, n=3279 </text>
<text text-anchor="start" x="348.33" y="-18.16" font-family="Helvetica,sans-Serif" font-size="14.00"> p: (0.74, 0.26) </text>
</g>
<!-- 6&#45;&gt;7 -->
<g id="edge8" class="edge">
<title>6:s&#45;&gt;7:n</title>
<path fill="none" stroke="black" d="M403.33,-121.71C403.33,-121.71 403.33,-95.93 403.33,-81.03"/>
<polygon fill="black" stroke="black" points="406.83,-80.71 403.33,-70.71 399.83,-80.71 406.83,-80.71"/>
<text text-anchor="middle" x="431.33" y="-92.51" font-family="Helvetica,sans-Serif" font-size="14.00">&lt;= 470</text>
</g>
<!-- 10 -->
<g id="node11" class="node">
<title>10</title>
<polygon fill="#44e55e" stroke="black" points="830.33,-328.71 562.33,-328.71 562.33,-250.71 830.33,-250.71 830.33,-328.71"/>
<text text-anchor="start" x="652.83" y="-314.51" font-family="Helvetica,sans-Serif" font-weight="bold" font-size="14.00"> Class=ad </text>
<text text-anchor="start" x="734.83" y="-314.51" font-family="Helvetica,sans-Serif" font-size="14.00"> </text>
<text text-anchor="start" x="617.83" y="-300.51" font-family="Helvetica,sans-Serif" font-size="14.00"> error: 0.198, n=3279 </text>
<text text-anchor="start" x="641.33" y="-286.51" font-family="Helvetica,sans-Serif" font-size="14.00"> p: (0.97, 0.03) </text>
<text text-anchor="start" x="619.83" y="-272.51" font-family="Helvetica,sans-Serif" font-size="14.00">&#45;&#45;&#45;&#45;&#45;&#45;&#45;&#45;&#45;&#45;&#45;&#45;&#45;&#45;&#45;&#45;&#45;&#45;&#45;&#45;&#45;&#45;&#45;&#45;&#45;&#45;&#45;&#45;&#45;</text>
<text text-anchor="start" x="570.33" y="-258.51" font-family="Helvetica,sans-Serif" font-weight="bold" font-size="14.00">origurl.www.news.observer.com</text>
</g>
<!-- 9&#45;&gt;10 -->
<g id="edge10" class="edge">
<title>9:s&#45;&gt;10:n</title>
<path fill="none" stroke="black" d="M680.33,-379.71C680.33,-379.71 688.6,-353.36 693.24,-338.54"/>
<polygon fill="black" stroke="black" points="696.68,-339.3 696.33,-328.71 690,-337.2 696.68,-339.3"/>
<text text-anchor="middle" x="695.33" y="-350.51" font-family="Helvetica,sans-Serif" font-size="14.00">0</text>
</g>
<!-- 11 -->
<g id="node12" class="node">
<title>11</title>
<ellipse fill="#3dccba" stroke="black" cx="696.33" cy="-160.71" rx="122.16" ry="35.21"/>
<text text-anchor="start" x="652.83" y="-171.51" font-family="Helvetica,sans-Serif" font-weight="bold" font-size="14.00"> Class=ad </text>
<text text-anchor="start" x="734.83" y="-171.51" font-family="Helvetica,sans-Serif" font-size="14.00"> </text>
<text text-anchor="start" x="617.83" y="-157.51" font-family="Helvetica,sans-Serif" font-size="14.00"> error: 0.146, n=3279 </text>
<text text-anchor="start" x="641.33" y="-143.51" font-family="Helvetica,sans-Serif" font-size="14.00"> p: (0.98, 0.02) </text>
</g>
<!-- 10&#45;&gt;11 -->
<g id="edge11" class="edge">
<title>10:s&#45;&gt;11:n</title>
<path fill="none" stroke="black" d="M696.33,-250.71C696.33,-250.71 696.33,-223.33 696.33,-207.93"/>
<polygon fill="black" stroke="black" points="699.83,-207.71 696.33,-197.71 692.83,-207.71 699.83,-207.71"/>
<text text-anchor="middle" x="701.33" y="-221.51" font-family="Helvetica,sans-Serif" font-size="14.00">0</text>
</g>
</g>
</svg>
