<?xml version="1.0" encoding="UTF-8" standalone="no"?>
<!DOCTYPE svg PUBLIC "-//W3C//DTD SVG 1.1//EN"
 "http://www.w3.org/Graphics/SVG/1.1/DTD/svg11.dtd">
<!-- Generated by graphviz version 2.43.0 (0)
 -->
<!-- Title: Tree Pages: 1 -->
<svg width="622pt" height="309pt"
 viewBox="0.00 0.00 622.39 308.71" xmlns="http://www.w3.org/2000/svg" xmlns:xlink="http://www.w3.org/1999/xlink">
<g id="graph0" class="graph" transform="scale(1 1) rotate(0) translate(18 290.71)">
<title>Tree</title>
<polygon fill="white" stroke="transparent" points="-18,18 -18,-290.71 604.39,-290.71 604.39,18 -18,18"/>
<!-- 0 -->
<g id="node1" class="node">
<title>0</title>
<polygon fill="white" stroke="transparent" points="319.69,-272.71 265.69,-272.71 265.69,-236.71 319.69,-236.71 319.69,-272.71"/>
<text text-anchor="middle" x="292.69" y="-251.01" font-family="Helvetica,sans-Serif" font-size="14.00">0</text>
</g>
<!-- 1 -->
<g id="node2" class="node">
<title>1</title>
<polygon fill="#cc3d3d" stroke="black" points="383.69,-199.71 201.69,-199.71 201.69,-121.71 383.69,-121.71 383.69,-199.71"/>
<text text-anchor="start" x="238.19" y="-185.51" font-family="Helvetica,sans-Serif" font-weight="bold" font-size="14.00"> Class=False </text>
<text text-anchor="start" x="342.19" y="-185.51" font-family="Helvetica,sans-Serif" font-size="14.00"> </text>
<text text-anchor="start" x="209.69" y="-171.51" font-family="Helvetica,sans-Serif" font-size="14.00"> error: 0.709, n=10885 </text>
<text text-anchor="start" x="237.69" y="-157.51" font-family="Helvetica,sans-Serif" font-size="14.00"> p: (0.81, 0.19) </text>
<text text-anchor="start" x="284.69" y="-143.51" font-family="Helvetica,sans-Serif" font-size="14.00">&#45;&#45;&#45;</text>
<text text-anchor="start" x="281.19" y="-129.51" font-family="Helvetica,sans-Serif" font-weight="bold" font-size="14.00">loc</text>
</g>
<!-- 0&#45;&gt;1 -->
<!-- 2 -->
<g id="node3" class="node">
<title>2</title>
<ellipse fill="#4485e5" stroke="black" cx="128.69" cy="-35.36" rx="128.89" ry="35.21"/>
<text text-anchor="start" x="74.19" y="-46.16" font-family="Helvetica,sans-Serif" font-weight="bold" font-size="14.00"> Class=False </text>
<text text-anchor="start" x="178.19" y="-46.16" font-family="Helvetica,sans-Serif" font-size="14.00"> </text>
<text text-anchor="start" x="45.69" y="-32.16" font-family="Helvetica,sans-Serif" font-size="14.00"> error: 1.000, n=10885 </text>
<text text-anchor="start" x="73.69" y="-18.16" font-family="Helvetica,sans-Serif" font-size="14.00"> p: (0.51, 0.49) </text>
</g>
<!-- 1&#45;&gt;2 -->
<g id="edge2" class="edge">
<title>1:s&#45;&gt;2:n</title>
<path fill="none" stroke="black" d="M292.69,-121.71C292.69,-121.71 173.77,-84.73 138.46,-73.75"/>
<polygon fill="black" stroke="black" points="139.28,-70.34 128.69,-70.71 137.2,-77.02 139.28,-70.34"/>
<text text-anchor="middle" x="248.19" y="-92.51" font-family="Helvetica,sans-Serif" font-size="14.00">&gt; 91</text>
</g>
<!-- 3 -->
<g id="node4" class="node">
<title>3</title>
<ellipse fill="#4485e5" stroke="black" cx="457.69" cy="-35.36" rx="128.89" ry="35.21"/>
<text text-anchor="start" x="403.19" y="-46.16" font-family="Helvetica,sans-Serif" font-weight="bold" font-size="14.00"> Class=False </text>
<text text-anchor="start" x="507.19" y="-46.16" font-family="Helvetica,sans-Serif" font-size="14.00"> </text>
<text text-anchor="start" x="374.69" y="-32.16" font-family="Helvetica,sans-Serif" font-size="14.00"> error: 0.635, n=10885 </text>
<text text-anchor="start" x="402.69" y="-18.16" font-family="Helvetica,sans-Serif" font-size="14.00"> p: (0.84, 0.16) </text>
</g>
<!-- 1&#45;&gt;3 -->
<g id="edge3" class="edge">
<title>1:s&#45;&gt;3:n</title>
<path fill="none" stroke="black" d="M292.69,-121.71C292.69,-121.71 412.34,-84.73 447.87,-73.75"/>
<polygon fill="black" stroke="black" points="449.17,-77.01 457.69,-70.71 447.11,-70.32 449.17,-77.01"/>
<text text-anchor="middle" x="418.19" y="-92.51" font-family="Helvetica,sans-Serif" font-size="14.00">&lt;= 91</text>
</g>
</g>
</svg>
