<?xml version="1.0" encoding="UTF-8" standalone="no"?>
<!DOCTYPE svg PUBLIC "-//W3C//DTD SVG 1.1//EN"
 "http://www.w3.org/Graphics/SVG/1.1/DTD/svg11.dtd">
<!-- Generated by graphviz version 2.43.0 (0)
 -->
<!-- Title: Tree Pages: 1 -->
<svg width="3254pt" height="696pt"
 viewBox="0.00 0.00 3254.39 695.71" xmlns="http://www.w3.org/2000/svg" xmlns:xlink="http://www.w3.org/1999/xlink">
<g id="graph0" class="graph" transform="scale(1 1) rotate(0) translate(18 677.71)">
<title>Tree</title>
<polygon fill="white" stroke="transparent" points="-18,18 -18,-677.71 3236.39,-677.71 3236.39,18 -18,18"/>
<!-- 0 -->
<g id="node1" class="node">
<title>0</title>
<polygon fill="white" stroke="transparent" points="1679.69,-659.71 1625.69,-659.71 1625.69,-623.71 1679.69,-623.71 1679.69,-659.71"/>
<text text-anchor="middle" x="1652.69" y="-638.01" font-family="Helvetica,sans-Serif" font-size="14.00">0</text>
</g>
<!-- 1 -->
<g id="node2" class="node">
<title>1</title>
<polygon fill="#cc3d3d" stroke="black" points="1743.69,-586.71 1561.69,-586.71 1561.69,-508.71 1743.69,-508.71 1743.69,-586.71"/>
<text text-anchor="start" x="1612.19" y="-572.51" font-family="Helvetica,sans-Serif" font-weight="bold" font-size="14.00"> Class=w </text>
<text text-anchor="start" x="1688.19" y="-572.51" font-family="Helvetica,sans-Serif" font-size="14.00"> </text>
<text text-anchor="start" x="1569.69" y="-558.51" font-family="Helvetica,sans-Serif" font-size="14.00"> error: 0.851, n=44819 </text>
<text text-anchor="start" x="1577.19" y="-544.51" font-family="Helvetica,sans-Serif" font-size="14.00"> p: (0.39, 0.10, 0.51) </text>
<text text-anchor="start" x="1607.69" y="-530.51" font-family="Helvetica,sans-Serif" font-size="14.00">&#45;&#45;&#45;&#45;&#45;&#45;&#45;&#45;&#45;&#45;&#45;&#45;&#45;&#45;&#45;&#45;&#45;</text>
<text text-anchor="start" x="1580.19" y="-516.51" font-family="Helvetica,sans-Serif" font-weight="bold" font-size="14.00">white_piece0_rank</text>
</g>
<!-- 0&#45;&gt;1 -->
<!-- 2 -->
<g id="node3" class="node">
<title>2</title>
<polygon fill="#e5d544" stroke="black" points="1563.69,-457.71 1381.69,-457.71 1381.69,-379.71 1563.69,-379.71 1563.69,-457.71"/>
<text text-anchor="start" x="1432.19" y="-443.51" font-family="Helvetica,sans-Serif" font-weight="bold" font-size="14.00"> Class=w </text>
<text text-anchor="start" x="1508.19" y="-443.51" font-family="Helvetica,sans-Serif" font-size="14.00"> </text>
<text text-anchor="start" x="1389.69" y="-429.51" font-family="Helvetica,sans-Serif" font-size="14.00"> error: 0.617, n=44819 </text>
<text text-anchor="start" x="1397.19" y="-415.51" font-family="Helvetica,sans-Serif" font-size="14.00"> p: (0.23, 0.03, 0.73) </text>
<text text-anchor="start" x="1427.69" y="-401.51" font-family="Helvetica,sans-Serif" font-size="14.00">&#45;&#45;&#45;&#45;&#45;&#45;&#45;&#45;&#45;&#45;&#45;&#45;&#45;&#45;&#45;&#45;&#45;</text>
<text text-anchor="start" x="1401.69" y="-387.51" font-family="Helvetica,sans-Serif" font-weight="bold" font-size="14.00">black_piece0_rank</text>
</g>
<!-- 1&#45;&gt;2 -->
<g id="edge2" class="edge">
<title>1:s&#45;&gt;2:n</title>
<path fill="none" stroke="black" d="M1652.69,-508.71C1652.69,-508.71 1519.76,-471.05 1482.37,-460.45"/>
<polygon fill="black" stroke="black" points="1483.27,-457.07 1472.69,-457.71 1481.36,-463.8 1483.27,-457.07"/>
<text text-anchor="middle" x="1597.69" y="-479.51" font-family="Helvetica,sans-Serif" font-size="14.00">&gt; 4</text>
</g>
<!-- 15 -->
<g id="node4" class="node">
<title>15</title>
<polygon fill="#e5d544" stroke="black" points="2000.69,-457.71 1818.69,-457.71 1818.69,-379.71 2000.69,-379.71 2000.69,-457.71"/>
<text text-anchor="start" x="1870.69" y="-443.51" font-family="Helvetica,sans-Serif" font-weight="bold" font-size="14.00"> Class=b </text>
<text text-anchor="start" x="1943.69" y="-443.51" font-family="Helvetica,sans-Serif" font-size="14.00"> </text>
<text text-anchor="start" x="1826.69" y="-429.51" font-family="Helvetica,sans-Serif" font-size="14.00"> error: 0.902, n=44819 </text>
<text text-anchor="start" x="1834.19" y="-415.51" font-family="Helvetica,sans-Serif" font-size="14.00"> p: (0.52, 0.15, 0.33) </text>
<text text-anchor="start" x="1864.69" y="-401.51" font-family="Helvetica,sans-Serif" font-size="14.00">&#45;&#45;&#45;&#45;&#45;&#45;&#45;&#45;&#45;&#45;&#45;&#45;&#45;&#45;&#45;&#45;&#45;</text>
<text text-anchor="start" x="1838.69" y="-387.51" font-family="Helvetica,sans-Serif" font-weight="bold" font-size="14.00">black_piece0_rank</text>
</g>
<!-- 1&#45;&gt;15 -->
<g id="edge3" class="edge">
<title>1:s&#45;&gt;15:n</title>
<path fill="none" stroke="black" d="M1652.69,-508.71C1652.69,-508.71 1852.1,-469.14 1899.62,-459.71"/>
<polygon fill="black" stroke="black" points="1900.57,-463.09 1909.69,-457.71 1899.2,-456.22 1900.57,-463.09"/>
<text text-anchor="middle" x="1831.69" y="-479.51" font-family="Helvetica,sans-Serif" font-size="14.00">&lt;= 4</text>
</g>
<!-- 3 -->
<g id="node5" class="node">
<title>3</title>
<polygon fill="#59cc3d" stroke="black" points="1070.69,-328.71 888.69,-328.71 888.69,-250.71 1070.69,-250.71 1070.69,-328.71"/>
<text text-anchor="start" x="939.19" y="-314.51" font-family="Helvetica,sans-Serif" font-weight="bold" font-size="14.00"> Class=w </text>
<text text-anchor="start" x="1015.19" y="-314.51" font-family="Helvetica,sans-Serif" font-size="14.00"> </text>
<text text-anchor="start" x="896.69" y="-300.51" font-family="Helvetica,sans-Serif" font-size="14.00"> error: 0.626, n=44819 </text>
<text text-anchor="start" x="904.19" y="-286.51" font-family="Helvetica,sans-Serif" font-size="14.00"> p: (0.45, 0.00, 0.55) </text>
<text text-anchor="start" x="934.69" y="-272.51" font-family="Helvetica,sans-Serif" font-size="14.00">&#45;&#45;&#45;&#45;&#45;&#45;&#45;&#45;&#45;&#45;&#45;&#45;&#45;&#45;&#45;&#45;&#45;</text>
<text text-anchor="start" x="907.19" y="-258.51" font-family="Helvetica,sans-Serif" font-weight="bold" font-size="14.00">white_piece0_rank</text>
</g>
<!-- 2&#45;&gt;3 -->
<g id="edge4" class="edge">
<title>2:s&#45;&gt;3:n</title>
<path fill="none" stroke="black" d="M1472.69,-379.71C1472.69,-379.71 1060.79,-337.1 989.99,-329.78"/>
<polygon fill="black" stroke="black" points="990,-326.26 979.69,-328.71 989.28,-333.22 990,-326.26"/>
<text text-anchor="middle" x="1304.69" y="-350.51" font-family="Helvetica,sans-Serif" font-size="14.00">&lt;= 2</text>
</g>
<!-- 10 -->
<g id="node6" class="node">
<title>10</title>
<polygon fill="#59cc3d" stroke="black" points="1563.69,-328.71 1381.69,-328.71 1381.69,-250.71 1563.69,-250.71 1563.69,-328.71"/>
<text text-anchor="start" x="1432.19" y="-314.51" font-family="Helvetica,sans-Serif" font-weight="bold" font-size="14.00"> Class=w </text>
<text text-anchor="start" x="1508.19" y="-314.51" font-family="Helvetica,sans-Serif" font-size="14.00"> </text>
<text text-anchor="start" x="1389.69" y="-300.51" font-family="Helvetica,sans-Serif" font-size="14.00"> error: 0.471, n=44819 </text>
<text text-anchor="start" x="1397.19" y="-286.51" font-family="Helvetica,sans-Serif" font-size="14.00"> p: (0.10, 0.05, 0.85) </text>
<text text-anchor="start" x="1427.69" y="-272.51" font-family="Helvetica,sans-Serif" font-size="14.00">&#45;&#45;&#45;&#45;&#45;&#45;&#45;&#45;&#45;&#45;&#45;&#45;&#45;&#45;&#45;&#45;&#45;</text>
<text text-anchor="start" x="1400.19" y="-258.51" font-family="Helvetica,sans-Serif" font-weight="bold" font-size="14.00">white_piece0_rank</text>
</g>
<!-- 2&#45;&gt;10 -->
<g id="edge5" class="edge">
<title>2:s&#45;&gt;10:n</title>
<path fill="none" stroke="black" d="M1472.69,-379.71C1472.69,-379.71 1472.69,-353.93 1472.69,-339.03"/>
<polygon fill="black" stroke="black" points="1476.19,-338.71 1472.69,-328.71 1469.19,-338.71 1476.19,-338.71"/>
<text text-anchor="middle" x="1485.69" y="-350.51" font-family="Helvetica,sans-Serif" font-size="14.00">&gt; 2</text>
</g>
<!-- 16 -->
<g id="node17" class="node">
<title>16</title>
<ellipse fill="#59cc3d" stroke="black" cx="1909.69" cy="-289.71" rx="128.89" ry="35.21"/>
<text text-anchor="start" x="1870.69" y="-300.51" font-family="Helvetica,sans-Serif" font-weight="bold" font-size="14.00"> Class=b </text>
<text text-anchor="start" x="1943.69" y="-300.51" font-family="Helvetica,sans-Serif" font-size="14.00"> </text>
<text text-anchor="start" x="1826.69" y="-286.51" font-family="Helvetica,sans-Serif" font-size="14.00"> error: 0.604, n=44819 </text>
<text text-anchor="start" x="1834.19" y="-272.51" font-family="Helvetica,sans-Serif" font-size="14.00"> p: (0.77, 0.06, 0.17) </text>
</g>
<!-- 15&#45;&gt;16 -->
<g id="edge16" class="edge">
<title>15:s&#45;&gt;16:n</title>
<path fill="none" stroke="black" d="M1909.69,-379.71C1909.69,-379.71 1909.69,-351.81 1909.69,-336.12"/>
<polygon fill="black" stroke="black" points="1913.19,-335.71 1909.69,-325.71 1906.19,-335.71 1913.19,-335.71"/>
<text text-anchor="middle" x="1928.69" y="-350.51" font-family="Helvetica,sans-Serif" font-size="14.00">&lt;= 2</text>
</g>
<!-- 17 -->
<g id="node18" class="node">
<title>17</title>
<polygon fill="#59cc3d" stroke="black" points="2335.19,-328.71 2142.19,-328.71 2142.19,-250.71 2335.19,-250.71 2335.19,-328.71"/>
<text text-anchor="start" x="2198.19" y="-314.51" font-family="Helvetica,sans-Serif" font-weight="bold" font-size="14.00"> Class=w </text>
<text text-anchor="start" x="2274.19" y="-314.51" font-family="Helvetica,sans-Serif" font-size="14.00"> </text>
<text text-anchor="start" x="2155.69" y="-300.51" font-family="Helvetica,sans-Serif" font-size="14.00"> error: 0.965, n=44819 </text>
<text text-anchor="start" x="2163.19" y="-286.51" font-family="Helvetica,sans-Serif" font-size="14.00"> p: (0.37, 0.21, 0.42) </text>
<text text-anchor="start" x="2183.19" y="-272.51" font-family="Helvetica,sans-Serif" font-size="14.00">&#45;&#45;&#45;&#45;&#45;&#45;&#45;&#45;&#45;&#45;&#45;&#45;&#45;&#45;&#45;&#45;&#45;&#45;&#45;&#45;&#45;</text>
<text text-anchor="start" x="2150.19" y="-258.51" font-family="Helvetica,sans-Serif" font-weight="bold" font-size="14.00">white_piece0_strength</text>
</g>
<!-- 15&#45;&gt;17 -->
<g id="edge17" class="edge">
<title>15:s&#45;&gt;17:n</title>
<path fill="none" stroke="black" d="M1909.69,-379.71C1909.69,-379.71 2172.95,-338.9 2228.49,-330.29"/>
<polygon fill="black" stroke="black" points="2229.35,-333.7 2238.69,-328.71 2228.28,-326.78 2229.35,-333.7"/>
<text text-anchor="middle" x="2126.69" y="-350.51" font-family="Helvetica,sans-Serif" font-size="14.00">&gt; 2</text>
</g>
<!-- 4 -->
<g id="node7" class="node">
<title>4</title>
<polygon fill="#44e5b5" stroke="black" points="548.69,-199.71 366.69,-199.71 366.69,-121.71 548.69,-121.71 548.69,-199.71"/>
<text text-anchor="start" x="418.69" y="-185.51" font-family="Helvetica,sans-Serif" font-weight="bold" font-size="14.00"> Class=b </text>
<text text-anchor="start" x="491.69" y="-185.51" font-family="Helvetica,sans-Serif" font-size="14.00"> </text>
<text text-anchor="start" x="374.69" y="-171.51" font-family="Helvetica,sans-Serif" font-size="14.00"> error: 0.590, n=44819 </text>
<text text-anchor="start" x="382.19" y="-157.51" font-family="Helvetica,sans-Serif" font-size="14.00"> p: (0.65, 0.00, 0.35) </text>
<text text-anchor="start" x="412.69" y="-143.51" font-family="Helvetica,sans-Serif" font-size="14.00">&#45;&#45;&#45;&#45;&#45;&#45;&#45;&#45;&#45;&#45;&#45;&#45;&#45;&#45;&#45;&#45;&#45;</text>
<text text-anchor="start" x="386.69" y="-129.51" font-family="Helvetica,sans-Serif" font-weight="bold" font-size="14.00">black_piece0_rank</text>
</g>
<!-- 3&#45;&gt;4 -->
<g id="edge6" class="edge">
<title>3:s&#45;&gt;4:n</title>
<path fill="none" stroke="black" d="M979.69,-250.71C979.69,-250.71 539.82,-207.73 467.65,-200.68"/>
<polygon fill="black" stroke="black" points="467.99,-197.2 457.69,-199.71 467.31,-204.17 467.99,-197.2"/>
<text text-anchor="middle" x="800.69" y="-221.51" font-family="Helvetica,sans-Serif" font-size="14.00">&lt;= 6</text>
</g>
<!-- 7 -->
<g id="node8" class="node">
<title>7</title>
<polygon fill="#44e5b5" stroke="black" points="1070.69,-199.71 888.69,-199.71 888.69,-121.71 1070.69,-121.71 1070.69,-199.71"/>
<text text-anchor="start" x="939.19" y="-185.51" font-family="Helvetica,sans-Serif" font-weight="bold" font-size="14.00"> Class=w </text>
<text text-anchor="start" x="1015.19" y="-185.51" font-family="Helvetica,sans-Serif" font-size="14.00"> </text>
<text text-anchor="start" x="896.69" y="-171.51" font-family="Helvetica,sans-Serif" font-size="14.00"> error: 0.537, n=44819 </text>
<text text-anchor="start" x="904.19" y="-157.51" font-family="Helvetica,sans-Serif" font-size="14.00"> p: (0.28, 0.00, 0.72) </text>
<text text-anchor="start" x="934.69" y="-143.51" font-family="Helvetica,sans-Serif" font-size="14.00">&#45;&#45;&#45;&#45;&#45;&#45;&#45;&#45;&#45;&#45;&#45;&#45;&#45;&#45;&#45;&#45;&#45;</text>
<text text-anchor="start" x="908.69" y="-129.51" font-family="Helvetica,sans-Serif" font-weight="bold" font-size="14.00">black_piece0_rank</text>
</g>
<!-- 3&#45;&gt;7 -->
<g id="edge7" class="edge">
<title>3:s&#45;&gt;7:n</title>
<path fill="none" stroke="black" d="M979.69,-250.71C979.69,-250.71 979.69,-224.93 979.69,-210.03"/>
<polygon fill="black" stroke="black" points="983.19,-209.71 979.69,-199.71 976.19,-209.71 983.19,-209.71"/>
<text text-anchor="middle" x="992.69" y="-221.51" font-family="Helvetica,sans-Serif" font-size="14.00">&gt; 6</text>
</g>
<!-- 11 -->
<g id="node13" class="node">
<title>11</title>
<polygon fill="#44e5b5" stroke="black" points="1543.69,-199.71 1361.69,-199.71 1361.69,-121.71 1543.69,-121.71 1543.69,-199.71"/>
<text text-anchor="start" x="1412.19" y="-185.51" font-family="Helvetica,sans-Serif" font-weight="bold" font-size="14.00"> Class=w </text>
<text text-anchor="start" x="1488.19" y="-185.51" font-family="Helvetica,sans-Serif" font-size="14.00"> </text>
<text text-anchor="start" x="1369.69" y="-171.51" font-family="Helvetica,sans-Serif" font-size="14.00"> error: 0.664, n=44819 </text>
<text text-anchor="start" x="1377.19" y="-157.51" font-family="Helvetica,sans-Serif" font-size="14.00"> p: (0.16, 0.09, 0.75) </text>
<text text-anchor="start" x="1407.69" y="-143.51" font-family="Helvetica,sans-Serif" font-size="14.00">&#45;&#45;&#45;&#45;&#45;&#45;&#45;&#45;&#45;&#45;&#45;&#45;&#45;&#45;&#45;&#45;&#45;</text>
<text text-anchor="start" x="1381.69" y="-129.51" font-family="Helvetica,sans-Serif" font-weight="bold" font-size="14.00">black_piece0_rank</text>
</g>
<!-- 10&#45;&gt;11 -->
<g id="edge12" class="edge">
<title>10:s&#45;&gt;11:n</title>
<path fill="none" stroke="black" d="M1472.69,-250.71C1472.69,-250.71 1462.14,-223.79 1456.36,-209.06"/>
<polygon fill="black" stroke="black" points="1459.6,-207.74 1452.69,-199.71 1453.09,-210.3 1459.6,-207.74"/>
<text text-anchor="middle" x="1484.69" y="-221.51" font-family="Helvetica,sans-Serif" font-size="14.00">&lt;= 6</text>
</g>
<!-- 14 -->
<g id="node14" class="node">
<title>14</title>
<ellipse fill="#44e5b5" stroke="black" cx="1744.69" cy="-160.71" rx="128.89" ry="35.21"/>
<text text-anchor="start" x="1704.19" y="-171.51" font-family="Helvetica,sans-Serif" font-weight="bold" font-size="14.00"> Class=w </text>
<text text-anchor="start" x="1780.19" y="-171.51" font-family="Helvetica,sans-Serif" font-size="14.00"> </text>
<text text-anchor="start" x="1661.69" y="-157.51" font-family="Helvetica,sans-Serif" font-size="14.00"> error: 0.247, n=44819 </text>
<text text-anchor="start" x="1669.19" y="-143.51" font-family="Helvetica,sans-Serif" font-size="14.00"> p: (0.04, 0.02, 0.94) </text>
</g>
<!-- 10&#45;&gt;14 -->
<g id="edge13" class="edge">
<title>10:s&#45;&gt;14:n</title>
<path fill="none" stroke="black" d="M1472.69,-250.71C1472.69,-250.71 1685.62,-208.44 1734.69,-198.7"/>
<polygon fill="black" stroke="black" points="1735.57,-202.09 1744.69,-196.71 1734.2,-195.23 1735.57,-202.09"/>
<text text-anchor="middle" x="1646.69" y="-221.51" font-family="Helvetica,sans-Serif" font-size="14.00">&gt; 6</text>
</g>
<!-- 5 -->
<g id="node9" class="node">
<title>5</title>
<ellipse fill="#3d76cc" stroke="black" cx="128.69" cy="-35.36" rx="128.89" ry="35.21"/>
<text text-anchor="start" x="89.69" y="-46.16" font-family="Helvetica,sans-Serif" font-weight="bold" font-size="14.00"> Class=b </text>
<text text-anchor="start" x="162.69" y="-46.16" font-family="Helvetica,sans-Serif" font-size="14.00"> </text>
<text text-anchor="start" x="45.69" y="-32.16" font-family="Helvetica,sans-Serif" font-size="14.00"> error: 0.503, n=44819 </text>
<text text-anchor="start" x="53.19" y="-18.16" font-family="Helvetica,sans-Serif" font-size="14.00"> p: (0.76, 0.00, 0.24) </text>
</g>
<!-- 4&#45;&gt;5 -->
<g id="edge8" class="edge">
<title>4:s&#45;&gt;5:n</title>
<path fill="none" stroke="black" d="M457.69,-121.71C457.69,-121.71 194.43,-80.9 138.9,-72.29"/>
<polygon fill="black" stroke="black" points="139.11,-68.78 128.69,-70.71 138.04,-75.7 139.11,-68.78"/>
<text text-anchor="middle" x="351.69" y="-92.51" font-family="Helvetica,sans-Serif" font-size="14.00">&lt;= 1</text>
</g>
<!-- 6 -->
<g id="node10" class="node">
<title>6</title>
<ellipse fill="#3d76cc" stroke="black" cx="457.69" cy="-35.36" rx="128.89" ry="35.21"/>
<text text-anchor="start" x="417.19" y="-46.16" font-family="Helvetica,sans-Serif" font-weight="bold" font-size="14.00"> Class=w </text>
<text text-anchor="start" x="493.19" y="-46.16" font-family="Helvetica,sans-Serif" font-size="14.00"> </text>
<text text-anchor="start" x="374.69" y="-32.16" font-family="Helvetica,sans-Serif" font-size="14.00"> error: 0.625, n=44819 </text>
<text text-anchor="start" x="382.19" y="-18.16" font-family="Helvetica,sans-Serif" font-size="14.00"> p: (0.44, 0.00, 0.56) </text>
</g>
<!-- 4&#45;&gt;6 -->
<g id="edge9" class="edge">
<title>4:s&#45;&gt;6:n</title>
<path fill="none" stroke="black" d="M457.69,-121.71C457.69,-121.71 457.69,-95.93 457.69,-81.03"/>
<polygon fill="black" stroke="black" points="461.19,-80.71 457.69,-70.71 454.19,-80.71 461.19,-80.71"/>
<text text-anchor="middle" x="470.69" y="-92.51" font-family="Helvetica,sans-Serif" font-size="14.00">&gt; 1</text>
</g>
<!-- 8 -->
<g id="node11" class="node">
<title>8</title>
<ellipse fill="#3d76cc" stroke="black" cx="786.69" cy="-35.36" rx="128.89" ry="35.21"/>
<text text-anchor="start" x="746.19" y="-46.16" font-family="Helvetica,sans-Serif" font-weight="bold" font-size="14.00"> Class=w </text>
<text text-anchor="start" x="822.19" y="-46.16" font-family="Helvetica,sans-Serif" font-size="14.00"> </text>
<text text-anchor="start" x="703.69" y="-32.16" font-family="Helvetica,sans-Serif" font-size="14.00"> error: 0.598, n=44819 </text>
<text text-anchor="start" x="711.19" y="-18.16" font-family="Helvetica,sans-Serif" font-size="14.00"> p: (0.37, 0.00, 0.63) </text>
</g>
<!-- 7&#45;&gt;8 -->
<g id="edge10" class="edge">
<title>7:s&#45;&gt;8:n</title>
<path fill="none" stroke="black" d="M979.69,-121.71C979.69,-121.71 835.86,-83.7 796.53,-73.31"/>
<polygon fill="black" stroke="black" points="797.26,-69.88 786.69,-70.71 795.47,-76.65 797.26,-69.88"/>
<text text-anchor="middle" x="925.69" y="-92.51" font-family="Helvetica,sans-Serif" font-size="14.00">&lt;= 1</text>
</g>
<!-- 9 -->
<g id="node12" class="node">
<title>9</title>
<ellipse fill="#3d76cc" stroke="black" cx="1115.69" cy="-35.36" rx="128.89" ry="35.21"/>
<text text-anchor="start" x="1075.19" y="-46.16" font-family="Helvetica,sans-Serif" font-weight="bold" font-size="14.00"> Class=w </text>
<text text-anchor="start" x="1151.19" y="-46.16" font-family="Helvetica,sans-Serif" font-size="14.00"> </text>
<text text-anchor="start" x="1032.69" y="-32.16" font-family="Helvetica,sans-Serif" font-size="14.00"> error: 0.315, n=44819 </text>
<text text-anchor="start" x="1040.19" y="-18.16" font-family="Helvetica,sans-Serif" font-size="14.00"> p: (0.11, 0.00, 0.89) </text>
</g>
<!-- 7&#45;&gt;9 -->
<g id="edge11" class="edge">
<title>7:s&#45;&gt;9:n</title>
<path fill="none" stroke="black" d="M979.69,-121.71C979.69,-121.71 1074.73,-86.07 1105.91,-74.38"/>
<polygon fill="black" stroke="black" points="1107.56,-77.5 1115.69,-70.71 1105.1,-70.94 1107.56,-77.5"/>
<text text-anchor="middle" x="1077.69" y="-92.51" font-family="Helvetica,sans-Serif" font-size="14.00">&gt; 1</text>
</g>
<!-- 12 -->
<g id="node15" class="node">
<title>12</title>
<ellipse fill="#3d76cc" stroke="black" cx="1444.69" cy="-35.36" rx="128.89" ry="35.21"/>
<text text-anchor="start" x="1404.19" y="-46.16" font-family="Helvetica,sans-Serif" font-weight="bold" font-size="14.00"> Class=w </text>
<text text-anchor="start" x="1480.19" y="-46.16" font-family="Helvetica,sans-Serif" font-size="14.00"> </text>
<text text-anchor="start" x="1361.69" y="-32.16" font-family="Helvetica,sans-Serif" font-size="14.00"> error: 0.442, n=44819 </text>
<text text-anchor="start" x="1369.19" y="-18.16" font-family="Helvetica,sans-Serif" font-size="14.00"> p: (0.17, 0.00, 0.82) </text>
</g>
<!-- 11&#45;&gt;12 -->
<g id="edge14" class="edge">
<title>11:s&#45;&gt;12:n</title>
<path fill="none" stroke="black" d="M1452.69,-121.71C1452.69,-121.71 1448.65,-95.93 1446.31,-81.03"/>
<polygon fill="black" stroke="black" points="1449.7,-80.05 1444.69,-70.71 1442.79,-81.13 1449.7,-80.05"/>
<text text-anchor="middle" x="1468.69" y="-92.51" font-family="Helvetica,sans-Serif" font-size="14.00">&lt;= 5</text>
</g>
<!-- 13 -->
<g id="node16" class="node">
<title>13</title>
<ellipse fill="#3d76cc" stroke="black" cx="1773.69" cy="-35.36" rx="128.89" ry="35.21"/>
<text text-anchor="start" x="1733.19" y="-46.16" font-family="Helvetica,sans-Serif" font-weight="bold" font-size="14.00"> Class=w </text>
<text text-anchor="start" x="1809.19" y="-46.16" font-family="Helvetica,sans-Serif" font-size="14.00"> </text>
<text text-anchor="start" x="1690.69" y="-32.16" font-family="Helvetica,sans-Serif" font-size="14.00"> error: 0.742, n=44819 </text>
<text text-anchor="start" x="1698.19" y="-18.16" font-family="Helvetica,sans-Serif" font-size="14.00"> p: (0.16, 0.14, 0.70) </text>
</g>
<!-- 11&#45;&gt;13 -->
<g id="edge15" class="edge">
<title>11:s&#45;&gt;13:n</title>
<path fill="none" stroke="black" d="M1452.69,-121.71C1452.69,-121.71 1709.55,-80.9 1763.73,-72.29"/>
<polygon fill="black" stroke="black" points="1764.37,-75.74 1773.69,-70.71 1763.27,-68.82 1764.37,-75.74"/>
<text text-anchor="middle" x="1664.69" y="-92.51" font-family="Helvetica,sans-Serif" font-size="14.00">&gt; 5</text>
</g>
<!-- 18 -->
<g id="node19" class="node">
<title>18</title>
<polygon fill="#44e5b5" stroke="black" points="2334.19,-199.71 2143.19,-199.71 2143.19,-121.71 2334.19,-121.71 2334.19,-199.71"/>
<text text-anchor="start" x="2199.69" y="-185.51" font-family="Helvetica,sans-Serif" font-weight="bold" font-size="14.00"> Class=b </text>
<text text-anchor="start" x="2272.69" y="-185.51" font-family="Helvetica,sans-Serif" font-size="14.00"> </text>
<text text-anchor="start" x="2155.69" y="-171.51" font-family="Helvetica,sans-Serif" font-size="14.00"> error: 0.924, n=44819 </text>
<text text-anchor="start" x="2163.19" y="-157.51" font-family="Helvetica,sans-Serif" font-size="14.00"> p: (0.53, 0.21, 0.26) </text>
<text text-anchor="start" x="2183.19" y="-143.51" font-family="Helvetica,sans-Serif" font-size="14.00">&#45;&#45;&#45;&#45;&#45;&#45;&#45;&#45;&#45;&#45;&#45;&#45;&#45;&#45;&#45;&#45;&#45;&#45;&#45;&#45;&#45;</text>
<text text-anchor="start" x="2151.19" y="-129.51" font-family="Helvetica,sans-Serif" font-weight="bold" font-size="14.00">black_piece0_strength</text>
</g>
<!-- 17&#45;&gt;18 -->
<g id="edge18" class="edge">
<title>17:s&#45;&gt;18:n</title>
<path fill="none" stroke="black" d="M2238.69,-250.71C2238.69,-250.71 2238.69,-224.93 2238.69,-210.03"/>
<polygon fill="black" stroke="black" points="2242.19,-209.71 2238.69,-199.71 2235.19,-209.71 2242.19,-209.71"/>
<text text-anchor="middle" x="2257.69" y="-221.51" font-family="Helvetica,sans-Serif" font-size="14.00">&lt;= 5</text>
</g>
<!-- 21 -->
<g id="node20" class="node">
<title>21</title>
<polygon fill="#44e5b5" stroke="black" points="2856.19,-199.71 2665.19,-199.71 2665.19,-121.71 2856.19,-121.71 2856.19,-199.71"/>
<text text-anchor="start" x="2720.19" y="-185.51" font-family="Helvetica,sans-Serif" font-weight="bold" font-size="14.00"> Class=w </text>
<text text-anchor="start" x="2796.19" y="-185.51" font-family="Helvetica,sans-Serif" font-size="14.00"> </text>
<text text-anchor="start" x="2677.69" y="-171.51" font-family="Helvetica,sans-Serif" font-size="14.00"> error: 0.877, n=44819 </text>
<text text-anchor="start" x="2685.19" y="-157.51" font-family="Helvetica,sans-Serif" font-size="14.00"> p: (0.20, 0.21, 0.59) </text>
<text text-anchor="start" x="2705.19" y="-143.51" font-family="Helvetica,sans-Serif" font-size="14.00">&#45;&#45;&#45;&#45;&#45;&#45;&#45;&#45;&#45;&#45;&#45;&#45;&#45;&#45;&#45;&#45;&#45;&#45;&#45;&#45;&#45;</text>
<text text-anchor="start" x="2673.19" y="-129.51" font-family="Helvetica,sans-Serif" font-weight="bold" font-size="14.00">black_piece0_strength</text>
</g>
<!-- 17&#45;&gt;21 -->
<g id="edge19" class="edge">
<title>17:s&#45;&gt;21:n</title>
<path fill="none" stroke="black" d="M2238.69,-250.71C2238.69,-250.71 2678.57,-207.73 2750.73,-200.68"/>
<polygon fill="black" stroke="black" points="2751.08,-204.17 2760.69,-199.71 2750.4,-197.2 2751.08,-204.17"/>
<text text-anchor="middle" x="2575.69" y="-221.51" font-family="Helvetica,sans-Serif" font-size="14.00">&gt; 5</text>
</g>
<!-- 19 -->
<g id="node21" class="node">
<title>19</title>
<ellipse fill="#3d76cc" stroke="black" cx="2102.69" cy="-35.36" rx="128.89" ry="35.21"/>
<text text-anchor="start" x="2062.19" y="-46.16" font-family="Helvetica,sans-Serif" font-weight="bold" font-size="14.00"> Class=w </text>
<text text-anchor="start" x="2138.19" y="-46.16" font-family="Helvetica,sans-Serif" font-size="14.00"> </text>
<text text-anchor="start" x="2019.69" y="-32.16" font-family="Helvetica,sans-Serif" font-size="14.00"> error: 0.949, n=44819 </text>
<text text-anchor="start" x="2027.19" y="-18.16" font-family="Helvetica,sans-Serif" font-size="14.00"> p: (0.30, 0.22, 0.49) </text>
</g>
<!-- 18&#45;&gt;19 -->
<g id="edge20" class="edge">
<title>18:s&#45;&gt;19:n</title>
<path fill="none" stroke="black" d="M2238.69,-121.71C2238.69,-121.71 2143.66,-86.07 2112.47,-74.38"/>
<polygon fill="black" stroke="black" points="2113.29,-70.94 2102.69,-70.71 2110.83,-77.5 2113.29,-70.94"/>
<text text-anchor="middle" x="2206.69" y="-92.51" font-family="Helvetica,sans-Serif" font-size="14.00">&lt;= 0</text>
</g>
<!-- 20 -->
<g id="node22" class="node">
<title>20</title>
<ellipse fill="#3d76cc" stroke="black" cx="2431.69" cy="-35.36" rx="128.89" ry="35.21"/>
<text text-anchor="start" x="2392.69" y="-46.16" font-family="Helvetica,sans-Serif" font-weight="bold" font-size="14.00"> Class=b </text>
<text text-anchor="start" x="2465.69" y="-46.16" font-family="Helvetica,sans-Serif" font-size="14.00"> </text>
<text text-anchor="start" x="2348.69" y="-32.16" font-family="Helvetica,sans-Serif" font-size="14.00"> error: 0.819, n=44819 </text>
<text text-anchor="start" x="2356.19" y="-18.16" font-family="Helvetica,sans-Serif" font-size="14.00"> p: (0.64, 0.21, 0.15) </text>
</g>
<!-- 18&#45;&gt;20 -->
<g id="edge21" class="edge">
<title>18:s&#45;&gt;20:n</title>
<path fill="none" stroke="black" d="M2238.69,-121.71C2238.69,-121.71 2382.53,-83.7 2421.86,-73.31"/>
<polygon fill="black" stroke="black" points="2422.92,-76.65 2431.69,-70.71 2421.13,-69.88 2422.92,-76.65"/>
<text text-anchor="middle" x="2371.69" y="-92.51" font-family="Helvetica,sans-Serif" font-size="14.00">&gt; 0</text>
</g>
<!-- 22 -->
<g id="node23" class="node">
<title>22</title>
<ellipse fill="#3d76cc" stroke="black" cx="2760.69" cy="-35.36" rx="128.89" ry="35.21"/>
<text text-anchor="start" x="2720.19" y="-46.16" font-family="Helvetica,sans-Serif" font-weight="bold" font-size="14.00"> Class=w </text>
<text text-anchor="start" x="2796.19" y="-46.16" font-family="Helvetica,sans-Serif" font-size="14.00"> </text>
<text text-anchor="start" x="2677.69" y="-32.16" font-family="Helvetica,sans-Serif" font-size="14.00"> error: 0.706, n=44819 </text>
<text text-anchor="start" x="2685.19" y="-18.16" font-family="Helvetica,sans-Serif" font-size="14.00"> p: (0.14, 0.13, 0.73) </text>
</g>
<!-- 21&#45;&gt;22 -->
<g id="edge22" class="edge">
<title>21:s&#45;&gt;22:n</title>
<path fill="none" stroke="black" d="M2760.69,-121.71C2760.69,-121.71 2760.69,-95.93 2760.69,-81.03"/>
<polygon fill="black" stroke="black" points="2764.19,-80.71 2760.69,-70.71 2757.19,-80.71 2764.19,-80.71"/>
<text text-anchor="middle" x="2779.69" y="-92.51" font-family="Helvetica,sans-Serif" font-size="14.00">&lt;= 5</text>
</g>
<!-- 23 -->
<g id="node24" class="node">
<title>23</title>
<ellipse fill="#3d76cc" stroke="black" cx="3089.69" cy="-35.36" rx="128.89" ry="35.21"/>
<text text-anchor="start" x="3049.19" y="-46.16" font-family="Helvetica,sans-Serif" font-weight="bold" font-size="14.00"> Class=w </text>
<text text-anchor="start" x="3125.19" y="-46.16" font-family="Helvetica,sans-Serif" font-size="14.00"> </text>
<text text-anchor="start" x="3006.69" y="-32.16" font-family="Helvetica,sans-Serif" font-size="14.00"> error: 0.994, n=44819 </text>
<text text-anchor="start" x="3014.19" y="-18.16" font-family="Helvetica,sans-Serif" font-size="14.00"> p: (0.29, 0.32, 0.39) </text>
</g>
<!-- 21&#45;&gt;23 -->
<g id="edge23" class="edge">
<title>21:s&#45;&gt;23:n</title>
<path fill="none" stroke="black" d="M2760.69,-121.71C2760.69,-121.71 3023.95,-80.9 3079.49,-72.29"/>
<polygon fill="black" stroke="black" points="3080.35,-75.7 3089.69,-70.71 3079.28,-68.78 3080.35,-75.7"/>
<text text-anchor="middle" x="2977.69" y="-92.51" font-family="Helvetica,sans-Serif" font-size="14.00">&gt; 5</text>
</g>
</g>
</svg>
