<?xml version="1.0" encoding="UTF-8" standalone="no"?>
<!DOCTYPE svg PUBLIC "-//W3C//DTD SVG 1.1//EN"
 "http://www.w3.org/Graphics/SVG/1.1/DTD/svg11.dtd">
<!-- Generated by graphviz version 2.43.0 (0)
 -->
<!-- Title: Tree Pages: 1 -->
<svg width="4570pt" height="696pt"
 viewBox="0.00 0.00 4570.39 695.71" xmlns="http://www.w3.org/2000/svg" xmlns:xlink="http://www.w3.org/1999/xlink">
<g id="graph0" class="graph" transform="scale(1 1) rotate(0) translate(18 677.71)">
<title>Tree</title>
<polygon fill="white" stroke="transparent" points="-18,18 -18,-677.71 4552.39,-677.71 4552.39,18 -18,18"/>
<!-- 0 -->
<g id="node1" class="node">
<title>0</title>
<polygon fill="white" stroke="transparent" points="2148.69,-659.71 2094.69,-659.71 2094.69,-623.71 2148.69,-623.71 2148.69,-659.71"/>
<text text-anchor="middle" x="2121.69" y="-638.01" font-family="Helvetica,sans-Serif" font-size="14.00">0</text>
</g>
<!-- 1 -->
<g id="node2" class="node">
<title>1</title>
<polygon fill="#cc3d3d" stroke="black" points="2212.69,-586.71 2030.69,-586.71 2030.69,-508.71 2212.69,-508.71 2212.69,-586.71"/>
<text text-anchor="start" x="2081.19" y="-572.51" font-family="Helvetica,sans-Serif" font-weight="bold" font-size="14.00"> Class=w </text>
<text text-anchor="start" x="2157.19" y="-572.51" font-family="Helvetica,sans-Serif" font-size="14.00"> </text>
<text text-anchor="start" x="2038.69" y="-558.51" font-family="Helvetica,sans-Serif" font-size="14.00"> error: 0.851, n=44819 </text>
<text text-anchor="start" x="2046.19" y="-544.51" font-family="Helvetica,sans-Serif" font-size="14.00"> p: (0.39, 0.10, 0.51) </text>
<text text-anchor="start" x="2076.69" y="-530.51" font-family="Helvetica,sans-Serif" font-size="14.00">&#45;&#45;&#45;&#45;&#45;&#45;&#45;&#45;&#45;&#45;&#45;&#45;&#45;&#45;&#45;&#45;&#45;</text>
<text text-anchor="start" x="2049.19" y="-516.51" font-family="Helvetica,sans-Serif" font-weight="bold" font-size="14.00">white_piece0_rank</text>
</g>
<!-- 0&#45;&gt;1 -->
<!-- 2 -->
<g id="node3" class="node">
<title>2</title>
<polygon fill="#e5d544" stroke="black" points="1865.69,-457.71 1683.69,-457.71 1683.69,-379.71 1865.69,-379.71 1865.69,-457.71"/>
<text text-anchor="start" x="1734.19" y="-443.51" font-family="Helvetica,sans-Serif" font-weight="bold" font-size="14.00"> Class=w </text>
<text text-anchor="start" x="1810.19" y="-443.51" font-family="Helvetica,sans-Serif" font-size="14.00"> </text>
<text text-anchor="start" x="1691.69" y="-429.51" font-family="Helvetica,sans-Serif" font-size="14.00"> error: 0.617, n=44819 </text>
<text text-anchor="start" x="1699.19" y="-415.51" font-family="Helvetica,sans-Serif" font-size="14.00"> p: (0.23, 0.03, 0.73) </text>
<text text-anchor="start" x="1729.69" y="-401.51" font-family="Helvetica,sans-Serif" font-size="14.00">&#45;&#45;&#45;&#45;&#45;&#45;&#45;&#45;&#45;&#45;&#45;&#45;&#45;&#45;&#45;&#45;&#45;</text>
<text text-anchor="start" x="1703.69" y="-387.51" font-family="Helvetica,sans-Serif" font-weight="bold" font-size="14.00">black_piece0_rank</text>
</g>
<!-- 1&#45;&gt;2 -->
<g id="edge2" class="edge">
<title>1:s&#45;&gt;2:n</title>
<path fill="none" stroke="black" d="M2121.69,-508.71C2121.69,-508.71 1841.6,-467.54 1784.7,-459.18"/>
<polygon fill="black" stroke="black" points="1785.1,-455.7 1774.69,-457.71 1784.08,-462.63 1785.1,-455.7"/>
<text text-anchor="middle" x="2002.69" y="-479.51" font-family="Helvetica,sans-Serif" font-size="14.00">&gt; 4</text>
</g>
<!-- 15 -->
<g id="node4" class="node">
<title>15</title>
<polygon fill="#e5d544" stroke="black" points="2686.69,-457.71 2504.69,-457.71 2504.69,-379.71 2686.69,-379.71 2686.69,-457.71"/>
<text text-anchor="start" x="2556.69" y="-443.51" font-family="Helvetica,sans-Serif" font-weight="bold" font-size="14.00"> Class=b </text>
<text text-anchor="start" x="2629.69" y="-443.51" font-family="Helvetica,sans-Serif" font-size="14.00"> </text>
<text text-anchor="start" x="2512.69" y="-429.51" font-family="Helvetica,sans-Serif" font-size="14.00"> error: 0.902, n=44819 </text>
<text text-anchor="start" x="2520.19" y="-415.51" font-family="Helvetica,sans-Serif" font-size="14.00"> p: (0.52, 0.15, 0.33) </text>
<text text-anchor="start" x="2550.69" y="-401.51" font-family="Helvetica,sans-Serif" font-size="14.00">&#45;&#45;&#45;&#45;&#45;&#45;&#45;&#45;&#45;&#45;&#45;&#45;&#45;&#45;&#45;&#45;&#45;</text>
<text text-anchor="start" x="2524.69" y="-387.51" font-family="Helvetica,sans-Serif" font-weight="bold" font-size="14.00">black_piece0_rank</text>
</g>
<!-- 1&#45;&gt;15 -->
<g id="edge3" class="edge">
<title>1:s&#45;&gt;15:n</title>
<path fill="none" stroke="black" d="M2121.69,-508.71C2121.69,-508.71 2516.03,-466.28 2585.35,-458.82"/>
<polygon fill="black" stroke="black" points="2586.13,-462.26 2595.69,-457.71 2585.38,-455.3 2586.13,-462.26"/>
<text text-anchor="middle" x="2434.69" y="-479.51" font-family="Helvetica,sans-Serif" font-size="14.00">&lt;= 4</text>
</g>
<!-- 3 -->
<g id="node5" class="node">
<title>3</title>
<polygon fill="#59cc3d" stroke="black" points="1070.69,-328.71 888.69,-328.71 888.69,-250.71 1070.69,-250.71 1070.69,-328.71"/>
<text text-anchor="start" x="939.19" y="-314.51" font-family="Helvetica,sans-Serif" font-weight="bold" font-size="14.00"> Class=w </text>
<text text-anchor="start" x="1015.19" y="-314.51" font-family="Helvetica,sans-Serif" font-size="14.00"> </text>
<text text-anchor="start" x="896.69" y="-300.51" font-family="Helvetica,sans-Serif" font-size="14.00"> error: 0.626, n=44819 </text>
<text text-anchor="start" x="904.19" y="-286.51" font-family="Helvetica,sans-Serif" font-size="14.00"> p: (0.45, 0.00, 0.55) </text>
<text text-anchor="start" x="934.69" y="-272.51" font-family="Helvetica,sans-Serif" font-size="14.00">&#45;&#45;&#45;&#45;&#45;&#45;&#45;&#45;&#45;&#45;&#45;&#45;&#45;&#45;&#45;&#45;&#45;</text>
<text text-anchor="start" x="907.19" y="-258.51" font-family="Helvetica,sans-Serif" font-weight="bold" font-size="14.00">white_piece0_rank</text>
</g>
<!-- 2&#45;&gt;3 -->
<g id="edge4" class="edge">
<title>2:s&#45;&gt;3:n</title>
<path fill="none" stroke="black" d="M1774.69,-379.71C1774.69,-379.71 1081.77,-335.26 989.75,-329.36"/>
<polygon fill="black" stroke="black" points="989.9,-325.86 979.69,-328.71 989.45,-332.84 989.9,-325.86"/>
<text text-anchor="middle" x="1491.69" y="-350.51" font-family="Helvetica,sans-Serif" font-size="14.00">&lt;= 2</text>
</g>
<!-- 10 -->
<g id="node6" class="node">
<title>10</title>
<polygon fill="#59cc3d" stroke="black" points="1865.69,-328.71 1683.69,-328.71 1683.69,-250.71 1865.69,-250.71 1865.69,-328.71"/>
<text text-anchor="start" x="1734.19" y="-314.51" font-family="Helvetica,sans-Serif" font-weight="bold" font-size="14.00"> Class=w </text>
<text text-anchor="start" x="1810.19" y="-314.51" font-family="Helvetica,sans-Serif" font-size="14.00"> </text>
<text text-anchor="start" x="1691.69" y="-300.51" font-family="Helvetica,sans-Serif" font-size="14.00"> error: 0.471, n=44819 </text>
<text text-anchor="start" x="1699.19" y="-286.51" font-family="Helvetica,sans-Serif" font-size="14.00"> p: (0.10, 0.05, 0.85) </text>
<text text-anchor="start" x="1729.69" y="-272.51" font-family="Helvetica,sans-Serif" font-size="14.00">&#45;&#45;&#45;&#45;&#45;&#45;&#45;&#45;&#45;&#45;&#45;&#45;&#45;&#45;&#45;&#45;&#45;</text>
<text text-anchor="start" x="1702.19" y="-258.51" font-family="Helvetica,sans-Serif" font-weight="bold" font-size="14.00">white_piece0_rank</text>
</g>
<!-- 2&#45;&gt;10 -->
<g id="edge5" class="edge">
<title>2:s&#45;&gt;10:n</title>
<path fill="none" stroke="black" d="M1774.69,-379.71C1774.69,-379.71 1774.69,-353.93 1774.69,-339.03"/>
<polygon fill="black" stroke="black" points="1778.19,-338.71 1774.69,-328.71 1771.19,-338.71 1778.19,-338.71"/>
<text text-anchor="middle" x="1787.69" y="-350.51" font-family="Helvetica,sans-Serif" font-size="14.00">&gt; 2</text>
</g>
<!-- 16 -->
<g id="node17" class="node">
<title>16</title>
<polygon fill="#59cc3d" stroke="black" points="2692.19,-328.71 2499.19,-328.71 2499.19,-250.71 2692.19,-250.71 2692.19,-328.71"/>
<text text-anchor="start" x="2556.69" y="-314.51" font-family="Helvetica,sans-Serif" font-weight="bold" font-size="14.00"> Class=b </text>
<text text-anchor="start" x="2629.69" y="-314.51" font-family="Helvetica,sans-Serif" font-size="14.00"> </text>
<text text-anchor="start" x="2512.69" y="-300.51" font-family="Helvetica,sans-Serif" font-size="14.00"> error: 0.604, n=44819 </text>
<text text-anchor="start" x="2520.19" y="-286.51" font-family="Helvetica,sans-Serif" font-size="14.00"> p: (0.77, 0.06, 0.17) </text>
<text text-anchor="start" x="2540.19" y="-272.51" font-family="Helvetica,sans-Serif" font-size="14.00">&#45;&#45;&#45;&#45;&#45;&#45;&#45;&#45;&#45;&#45;&#45;&#45;&#45;&#45;&#45;&#45;&#45;&#45;&#45;&#45;&#45;</text>
<text text-anchor="start" x="2507.19" y="-258.51" font-family="Helvetica,sans-Serif" font-weight="bold" font-size="14.00">white_piece0_strength</text>
</g>
<!-- 15&#45;&gt;16 -->
<g id="edge16" class="edge">
<title>15:s&#45;&gt;16:n</title>
<path fill="none" stroke="black" d="M2595.69,-379.71C2595.69,-379.71 2595.69,-353.93 2595.69,-339.03"/>
<polygon fill="black" stroke="black" points="2599.19,-338.71 2595.69,-328.71 2592.19,-338.71 2599.19,-338.71"/>
<text text-anchor="middle" x="2614.69" y="-350.51" font-family="Helvetica,sans-Serif" font-size="14.00">&lt;= 2</text>
</g>
<!-- 23 -->
<g id="node18" class="node">
<title>23</title>
<polygon fill="#59cc3d" stroke="black" points="3651.19,-328.71 3458.19,-328.71 3458.19,-250.71 3651.19,-250.71 3651.19,-328.71"/>
<text text-anchor="start" x="3514.19" y="-314.51" font-family="Helvetica,sans-Serif" font-weight="bold" font-size="14.00"> Class=w </text>
<text text-anchor="start" x="3590.19" y="-314.51" font-family="Helvetica,sans-Serif" font-size="14.00"> </text>
<text text-anchor="start" x="3471.69" y="-300.51" font-family="Helvetica,sans-Serif" font-size="14.00"> error: 0.965, n=44819 </text>
<text text-anchor="start" x="3479.19" y="-286.51" font-family="Helvetica,sans-Serif" font-size="14.00"> p: (0.37, 0.21, 0.42) </text>
<text text-anchor="start" x="3499.19" y="-272.51" font-family="Helvetica,sans-Serif" font-size="14.00">&#45;&#45;&#45;&#45;&#45;&#45;&#45;&#45;&#45;&#45;&#45;&#45;&#45;&#45;&#45;&#45;&#45;&#45;&#45;&#45;&#45;</text>
<text text-anchor="start" x="3466.19" y="-258.51" font-family="Helvetica,sans-Serif" font-weight="bold" font-size="14.00">white_piece0_strength</text>
</g>
<!-- 15&#45;&gt;23 -->
<g id="edge17" class="edge">
<title>15:s&#45;&gt;23:n</title>
<path fill="none" stroke="black" d="M2595.69,-379.71C2595.69,-379.71 3442.08,-334.7 3544.57,-329.25"/>
<polygon fill="black" stroke="black" points="3544.89,-332.74 3554.69,-328.71 3544.52,-325.75 3544.89,-332.74"/>
<text text-anchor="middle" x="3202.69" y="-350.51" font-family="Helvetica,sans-Serif" font-size="14.00">&gt; 2</text>
</g>
<!-- 4 -->
<g id="node7" class="node">
<title>4</title>
<polygon fill="#44e5b5" stroke="black" points="548.69,-199.71 366.69,-199.71 366.69,-121.71 548.69,-121.71 548.69,-199.71"/>
<text text-anchor="start" x="418.69" y="-185.51" font-family="Helvetica,sans-Serif" font-weight="bold" font-size="14.00"> Class=b </text>
<text text-anchor="start" x="491.69" y="-185.51" font-family="Helvetica,sans-Serif" font-size="14.00"> </text>
<text text-anchor="start" x="374.69" y="-171.51" font-family="Helvetica,sans-Serif" font-size="14.00"> error: 0.590, n=44819 </text>
<text text-anchor="start" x="382.19" y="-157.51" font-family="Helvetica,sans-Serif" font-size="14.00"> p: (0.65, 0.00, 0.35) </text>
<text text-anchor="start" x="412.69" y="-143.51" font-family="Helvetica,sans-Serif" font-size="14.00">&#45;&#45;&#45;&#45;&#45;&#45;&#45;&#45;&#45;&#45;&#45;&#45;&#45;&#45;&#45;&#45;&#45;</text>
<text text-anchor="start" x="386.69" y="-129.51" font-family="Helvetica,sans-Serif" font-weight="bold" font-size="14.00">black_piece0_rank</text>
</g>
<!-- 3&#45;&gt;4 -->
<g id="edge6" class="edge">
<title>3:s&#45;&gt;4:n</title>
<path fill="none" stroke="black" d="M979.69,-250.71C979.69,-250.71 539.82,-207.73 467.65,-200.68"/>
<polygon fill="black" stroke="black" points="467.99,-197.2 457.69,-199.71 467.31,-204.17 467.99,-197.2"/>
<text text-anchor="middle" x="800.69" y="-221.51" font-family="Helvetica,sans-Serif" font-size="14.00">&lt;= 6</text>
</g>
<!-- 7 -->
<g id="node8" class="node">
<title>7</title>
<polygon fill="#44e5b5" stroke="black" points="1070.69,-199.71 888.69,-199.71 888.69,-121.71 1070.69,-121.71 1070.69,-199.71"/>
<text text-anchor="start" x="939.19" y="-185.51" font-family="Helvetica,sans-Serif" font-weight="bold" font-size="14.00"> Class=w </text>
<text text-anchor="start" x="1015.19" y="-185.51" font-family="Helvetica,sans-Serif" font-size="14.00"> </text>
<text text-anchor="start" x="896.69" y="-171.51" font-family="Helvetica,sans-Serif" font-size="14.00"> error: 0.537, n=44819 </text>
<text text-anchor="start" x="904.19" y="-157.51" font-family="Helvetica,sans-Serif" font-size="14.00"> p: (0.28, 0.00, 0.72) </text>
<text text-anchor="start" x="934.69" y="-143.51" font-family="Helvetica,sans-Serif" font-size="14.00">&#45;&#45;&#45;&#45;&#45;&#45;&#45;&#45;&#45;&#45;&#45;&#45;&#45;&#45;&#45;&#45;&#45;</text>
<text text-anchor="start" x="908.69" y="-129.51" font-family="Helvetica,sans-Serif" font-weight="bold" font-size="14.00">black_piece0_rank</text>
</g>
<!-- 3&#45;&gt;7 -->
<g id="edge7" class="edge">
<title>3:s&#45;&gt;7:n</title>
<path fill="none" stroke="black" d="M979.69,-250.71C979.69,-250.71 979.69,-224.93 979.69,-210.03"/>
<polygon fill="black" stroke="black" points="983.19,-209.71 979.69,-199.71 976.19,-209.71 983.19,-209.71"/>
<text text-anchor="middle" x="992.69" y="-221.51" font-family="Helvetica,sans-Serif" font-size="14.00">&gt; 6</text>
</g>
<!-- 11 -->
<g id="node13" class="node">
<title>11</title>
<polygon fill="#44e5b5" stroke="black" points="1699.69,-199.71 1517.69,-199.71 1517.69,-121.71 1699.69,-121.71 1699.69,-199.71"/>
<text text-anchor="start" x="1568.19" y="-185.51" font-family="Helvetica,sans-Serif" font-weight="bold" font-size="14.00"> Class=w </text>
<text text-anchor="start" x="1644.19" y="-185.51" font-family="Helvetica,sans-Serif" font-size="14.00"> </text>
<text text-anchor="start" x="1525.69" y="-171.51" font-family="Helvetica,sans-Serif" font-size="14.00"> error: 0.664, n=44819 </text>
<text text-anchor="start" x="1533.19" y="-157.51" font-family="Helvetica,sans-Serif" font-size="14.00"> p: (0.16, 0.09, 0.75) </text>
<text text-anchor="start" x="1563.69" y="-143.51" font-family="Helvetica,sans-Serif" font-size="14.00">&#45;&#45;&#45;&#45;&#45;&#45;&#45;&#45;&#45;&#45;&#45;&#45;&#45;&#45;&#45;&#45;&#45;</text>
<text text-anchor="start" x="1537.69" y="-129.51" font-family="Helvetica,sans-Serif" font-weight="bold" font-size="14.00">black_piece0_rank</text>
</g>
<!-- 10&#45;&gt;11 -->
<g id="edge12" class="edge">
<title>10:s&#45;&gt;11:n</title>
<path fill="none" stroke="black" d="M1774.69,-250.71C1774.69,-250.71 1654.32,-213.73 1618.58,-202.75"/>
<polygon fill="black" stroke="black" points="1619.28,-199.3 1608.69,-199.71 1617.22,-205.99 1619.28,-199.3"/>
<text text-anchor="middle" x="1730.69" y="-221.51" font-family="Helvetica,sans-Serif" font-size="14.00">&lt;= 6</text>
</g>
<!-- 14 -->
<g id="node14" class="node">
<title>14</title>
<ellipse fill="#44e5b5" stroke="black" cx="1900.69" cy="-160.71" rx="128.89" ry="35.21"/>
<text text-anchor="start" x="1860.19" y="-171.51" font-family="Helvetica,sans-Serif" font-weight="bold" font-size="14.00"> Class=w </text>
<text text-anchor="start" x="1936.19" y="-171.51" font-family="Helvetica,sans-Serif" font-size="14.00"> </text>
<text text-anchor="start" x="1817.69" y="-157.51" font-family="Helvetica,sans-Serif" font-size="14.00"> error: 0.247, n=44819 </text>
<text text-anchor="start" x="1825.19" y="-143.51" font-family="Helvetica,sans-Serif" font-size="14.00"> p: (0.04, 0.02, 0.94) </text>
</g>
<!-- 10&#45;&gt;14 -->
<g id="edge13" class="edge">
<title>10:s&#45;&gt;14:n</title>
<path fill="none" stroke="black" d="M1774.69,-250.71C1774.69,-250.71 1861.92,-213.33 1891.22,-200.77"/>
<polygon fill="black" stroke="black" points="1892.88,-203.87 1900.69,-196.71 1890.12,-197.43 1892.88,-203.87"/>
<text text-anchor="middle" x="1862.69" y="-221.51" font-family="Helvetica,sans-Serif" font-size="14.00">&gt; 6</text>
</g>
<!-- 5 -->
<g id="node9" class="node">
<title>5</title>
<ellipse fill="#3d76cc" stroke="black" cx="128.69" cy="-35.36" rx="128.89" ry="35.21"/>
<text text-anchor="start" x="89.69" y="-46.16" font-family="Helvetica,sans-Serif" font-weight="bold" font-size="14.00"> Class=b </text>
<text text-anchor="start" x="162.69" y="-46.16" font-family="Helvetica,sans-Serif" font-size="14.00"> </text>
<text text-anchor="start" x="45.69" y="-32.16" font-family="Helvetica,sans-Serif" font-size="14.00"> error: 0.503, n=44819 </text>
<text text-anchor="start" x="53.19" y="-18.16" font-family="Helvetica,sans-Serif" font-size="14.00"> p: (0.76, 0.00, 0.24) </text>
</g>
<!-- 4&#45;&gt;5 -->
<g id="edge8" class="edge">
<title>4:s&#45;&gt;5:n</title>
<path fill="none" stroke="black" d="M457.69,-121.71C457.69,-121.71 194.43,-80.9 138.9,-72.29"/>
<polygon fill="black" stroke="black" points="139.11,-68.78 128.69,-70.71 138.04,-75.7 139.11,-68.78"/>
<text text-anchor="middle" x="351.69" y="-92.51" font-family="Helvetica,sans-Serif" font-size="14.00">&lt;= 1</text>
</g>
<!-- 6 -->
<g id="node10" class="node">
<title>6</title>
<ellipse fill="#3d76cc" stroke="black" cx="457.69" cy="-35.36" rx="128.89" ry="35.21"/>
<text text-anchor="start" x="417.19" y="-46.16" font-family="Helvetica,sans-Serif" font-weight="bold" font-size="14.00"> Class=w </text>
<text text-anchor="start" x="493.19" y="-46.16" font-family="Helvetica,sans-Serif" font-size="14.00"> </text>
<text text-anchor="start" x="374.69" y="-32.16" font-family="Helvetica,sans-Serif" font-size="14.00"> error: 0.625, n=44819 </text>
<text text-anchor="start" x="382.19" y="-18.16" font-family="Helvetica,sans-Serif" font-size="14.00"> p: (0.44, 0.00, 0.56) </text>
</g>
<!-- 4&#45;&gt;6 -->
<g id="edge9" class="edge">
<title>4:s&#45;&gt;6:n</title>
<path fill="none" stroke="black" d="M457.69,-121.71C457.69,-121.71 457.69,-95.93 457.69,-81.03"/>
<polygon fill="black" stroke="black" points="461.19,-80.71 457.69,-70.71 454.19,-80.71 461.19,-80.71"/>
<text text-anchor="middle" x="470.69" y="-92.51" font-family="Helvetica,sans-Serif" font-size="14.00">&gt; 1</text>
</g>
<!-- 8 -->
<g id="node11" class="node">
<title>8</title>
<ellipse fill="#3d76cc" stroke="black" cx="786.69" cy="-35.36" rx="128.89" ry="35.21"/>
<text text-anchor="start" x="746.19" y="-46.16" font-family="Helvetica,sans-Serif" font-weight="bold" font-size="14.00"> Class=w </text>
<text text-anchor="start" x="822.19" y="-46.16" font-family="Helvetica,sans-Serif" font-size="14.00"> </text>
<text text-anchor="start" x="703.69" y="-32.16" font-family="Helvetica,sans-Serif" font-size="14.00"> error: 0.598, n=44819 </text>
<text text-anchor="start" x="711.19" y="-18.16" font-family="Helvetica,sans-Serif" font-size="14.00"> p: (0.37, 0.00, 0.63) </text>
</g>
<!-- 7&#45;&gt;8 -->
<g id="edge10" class="edge">
<title>7:s&#45;&gt;8:n</title>
<path fill="none" stroke="black" d="M979.69,-121.71C979.69,-121.71 835.86,-83.7 796.53,-73.31"/>
<polygon fill="black" stroke="black" points="797.26,-69.88 786.69,-70.71 795.47,-76.65 797.26,-69.88"/>
<text text-anchor="middle" x="925.69" y="-92.51" font-family="Helvetica,sans-Serif" font-size="14.00">&lt;= 1</text>
</g>
<!-- 9 -->
<g id="node12" class="node">
<title>9</title>
<ellipse fill="#3d76cc" stroke="black" cx="1115.69" cy="-35.36" rx="128.89" ry="35.21"/>
<text text-anchor="start" x="1075.19" y="-46.16" font-family="Helvetica,sans-Serif" font-weight="bold" font-size="14.00"> Class=w </text>
<text text-anchor="start" x="1151.19" y="-46.16" font-family="Helvetica,sans-Serif" font-size="14.00"> </text>
<text text-anchor="start" x="1032.69" y="-32.16" font-family="Helvetica,sans-Serif" font-size="14.00"> error: 0.315, n=44819 </text>
<text text-anchor="start" x="1040.19" y="-18.16" font-family="Helvetica,sans-Serif" font-size="14.00"> p: (0.11, 0.00, 0.89) </text>
</g>
<!-- 7&#45;&gt;9 -->
<g id="edge11" class="edge">
<title>7:s&#45;&gt;9:n</title>
<path fill="none" stroke="black" d="M979.69,-121.71C979.69,-121.71 1074.73,-86.07 1105.91,-74.38"/>
<polygon fill="black" stroke="black" points="1107.56,-77.5 1115.69,-70.71 1105.1,-70.94 1107.56,-77.5"/>
<text text-anchor="middle" x="1077.69" y="-92.51" font-family="Helvetica,sans-Serif" font-size="14.00">&gt; 1</text>
</g>
<!-- 12 -->
<g id="node15" class="node">
<title>12</title>
<ellipse fill="#3d76cc" stroke="black" cx="1444.69" cy="-35.36" rx="128.89" ry="35.21"/>
<text text-anchor="start" x="1404.19" y="-46.16" font-family="Helvetica,sans-Serif" font-weight="bold" font-size="14.00"> Class=w </text>
<text text-anchor="start" x="1480.19" y="-46.16" font-family="Helvetica,sans-Serif" font-size="14.00"> </text>
<text text-anchor="start" x="1361.69" y="-32.16" font-family="Helvetica,sans-Serif" font-size="14.00"> error: 0.442, n=44819 </text>
<text text-anchor="start" x="1369.19" y="-18.16" font-family="Helvetica,sans-Serif" font-size="14.00"> p: (0.17, 0.00, 0.82) </text>
</g>
<!-- 11&#45;&gt;12 -->
<g id="edge14" class="edge">
<title>11:s&#45;&gt;12:n</title>
<path fill="none" stroke="black" d="M1608.69,-121.71C1608.69,-121.71 1489.77,-84.73 1454.46,-73.75"/>
<polygon fill="black" stroke="black" points="1455.28,-70.34 1444.69,-70.71 1453.2,-77.02 1455.28,-70.34"/>
<text text-anchor="middle" x="1565.69" y="-92.51" font-family="Helvetica,sans-Serif" font-size="14.00">&lt;= 5</text>
</g>
<!-- 13 -->
<g id="node16" class="node">
<title>13</title>
<ellipse fill="#3d76cc" stroke="black" cx="1773.69" cy="-35.36" rx="128.89" ry="35.21"/>
<text text-anchor="start" x="1733.19" y="-46.16" font-family="Helvetica,sans-Serif" font-weight="bold" font-size="14.00"> Class=w </text>
<text text-anchor="start" x="1809.19" y="-46.16" font-family="Helvetica,sans-Serif" font-size="14.00"> </text>
<text text-anchor="start" x="1690.69" y="-32.16" font-family="Helvetica,sans-Serif" font-size="14.00"> error: 0.742, n=44819 </text>
<text text-anchor="start" x="1698.19" y="-18.16" font-family="Helvetica,sans-Serif" font-size="14.00"> p: (0.16, 0.14, 0.70) </text>
</g>
<!-- 11&#45;&gt;13 -->
<g id="edge15" class="edge">
<title>11:s&#45;&gt;13:n</title>
<path fill="none" stroke="black" d="M1608.69,-121.71C1608.69,-121.71 1728.34,-84.73 1763.87,-73.75"/>
<polygon fill="black" stroke="black" points="1765.17,-77.01 1773.69,-70.71 1763.11,-70.32 1765.17,-77.01"/>
<text text-anchor="middle" x="1724.69" y="-92.51" font-family="Helvetica,sans-Serif" font-size="14.00">&gt; 5</text>
</g>
<!-- 17 -->
<g id="node19" class="node">
<title>17</title>
<polygon fill="#44e5b5" stroke="black" points="2527.19,-199.71 2336.19,-199.71 2336.19,-121.71 2527.19,-121.71 2527.19,-199.71"/>
<text text-anchor="start" x="2392.69" y="-185.51" font-family="Helvetica,sans-Serif" font-weight="bold" font-size="14.00"> Class=b </text>
<text text-anchor="start" x="2465.69" y="-185.51" font-family="Helvetica,sans-Serif" font-size="14.00"> </text>
<text text-anchor="start" x="2348.69" y="-171.51" font-family="Helvetica,sans-Serif" font-size="14.00"> error: 0.416, n=44819 </text>
<text text-anchor="start" x="2356.19" y="-157.51" font-family="Helvetica,sans-Serif" font-size="14.00"> p: (0.87, 0.02, 0.11) </text>
<text text-anchor="start" x="2376.19" y="-143.51" font-family="Helvetica,sans-Serif" font-size="14.00">&#45;&#45;&#45;&#45;&#45;&#45;&#45;&#45;&#45;&#45;&#45;&#45;&#45;&#45;&#45;&#45;&#45;&#45;&#45;&#45;&#45;</text>
<text text-anchor="start" x="2344.19" y="-129.51" font-family="Helvetica,sans-Serif" font-weight="bold" font-size="14.00">black_piece0_strength</text>
</g>
<!-- 16&#45;&gt;17 -->
<g id="edge18" class="edge">
<title>16:s&#45;&gt;17:n</title>
<path fill="none" stroke="black" d="M2595.69,-250.71C2595.69,-250.71 2476.77,-213.73 2441.46,-202.75"/>
<polygon fill="black" stroke="black" points="2442.28,-199.34 2431.69,-199.71 2440.2,-206.02 2442.28,-199.34"/>
<text text-anchor="middle" x="2544.69" y="-221.51" font-family="Helvetica,sans-Serif" font-size="14.00">&lt;= 5</text>
</g>
<!-- 20 -->
<g id="node20" class="node">
<title>20</title>
<polygon fill="#44e5b5" stroke="black" points="2851.69,-199.71 2669.69,-199.71 2669.69,-121.71 2851.69,-121.71 2851.69,-199.71"/>
<text text-anchor="start" x="2721.69" y="-185.51" font-family="Helvetica,sans-Serif" font-weight="bold" font-size="14.00"> Class=b </text>
<text text-anchor="start" x="2794.69" y="-185.51" font-family="Helvetica,sans-Serif" font-size="14.00"> </text>
<text text-anchor="start" x="2677.69" y="-171.51" font-family="Helvetica,sans-Serif" font-size="14.00"> error: 0.747, n=44819 </text>
<text text-anchor="start" x="2685.19" y="-157.51" font-family="Helvetica,sans-Serif" font-size="14.00"> p: (0.67, 0.09, 0.24) </text>
<text text-anchor="start" x="2715.69" y="-143.51" font-family="Helvetica,sans-Serif" font-size="14.00">&#45;&#45;&#45;&#45;&#45;&#45;&#45;&#45;&#45;&#45;&#45;&#45;&#45;&#45;&#45;&#45;&#45;</text>
<text text-anchor="start" x="2688.19" y="-129.51" font-family="Helvetica,sans-Serif" font-weight="bold" font-size="14.00">white_piece0_rank</text>
</g>
<!-- 16&#45;&gt;20 -->
<g id="edge19" class="edge">
<title>16:s&#45;&gt;20:n</title>
<path fill="none" stroke="black" d="M2595.69,-250.71C2595.69,-250.71 2715.34,-213.73 2750.87,-202.75"/>
<polygon fill="black" stroke="black" points="2752.17,-206.01 2760.69,-199.71 2750.11,-199.32 2752.17,-206.01"/>
<text text-anchor="middle" x="2711.69" y="-221.51" font-family="Helvetica,sans-Serif" font-size="14.00">&gt; 5</text>
</g>
<!-- 24 -->
<g id="node25" class="node">
<title>24</title>
<polygon fill="#44e5b5" stroke="black" points="3650.19,-199.71 3459.19,-199.71 3459.19,-121.71 3650.19,-121.71 3650.19,-199.71"/>
<text text-anchor="start" x="3515.69" y="-185.51" font-family="Helvetica,sans-Serif" font-weight="bold" font-size="14.00"> Class=b </text>
<text text-anchor="start" x="3588.69" y="-185.51" font-family="Helvetica,sans-Serif" font-size="14.00"> </text>
<text text-anchor="start" x="3471.69" y="-171.51" font-family="Helvetica,sans-Serif" font-size="14.00"> error: 0.924, n=44819 </text>
<text text-anchor="start" x="3479.19" y="-157.51" font-family="Helvetica,sans-Serif" font-size="14.00"> p: (0.53, 0.21, 0.26) </text>
<text text-anchor="start" x="3499.19" y="-143.51" font-family="Helvetica,sans-Serif" font-size="14.00">&#45;&#45;&#45;&#45;&#45;&#45;&#45;&#45;&#45;&#45;&#45;&#45;&#45;&#45;&#45;&#45;&#45;&#45;&#45;&#45;&#45;</text>
<text text-anchor="start" x="3467.19" y="-129.51" font-family="Helvetica,sans-Serif" font-weight="bold" font-size="14.00">black_piece0_strength</text>
</g>
<!-- 23&#45;&gt;24 -->
<g id="edge24" class="edge">
<title>23:s&#45;&gt;24:n</title>
<path fill="none" stroke="black" d="M3554.69,-250.71C3554.69,-250.71 3554.69,-224.93 3554.69,-210.03"/>
<polygon fill="black" stroke="black" points="3558.19,-209.71 3554.69,-199.71 3551.19,-209.71 3558.19,-209.71"/>
<text text-anchor="middle" x="3573.69" y="-221.51" font-family="Helvetica,sans-Serif" font-size="14.00">&lt;= 5</text>
</g>
<!-- 27 -->
<g id="node26" class="node">
<title>27</title>
<polygon fill="#44e5b5" stroke="black" points="4172.19,-199.71 3981.19,-199.71 3981.19,-121.71 4172.19,-121.71 4172.19,-199.71"/>
<text text-anchor="start" x="4036.19" y="-185.51" font-family="Helvetica,sans-Serif" font-weight="bold" font-size="14.00"> Class=w </text>
<text text-anchor="start" x="4112.19" y="-185.51" font-family="Helvetica,sans-Serif" font-size="14.00"> </text>
<text text-anchor="start" x="3993.69" y="-171.51" font-family="Helvetica,sans-Serif" font-size="14.00"> error: 0.877, n=44819 </text>
<text text-anchor="start" x="4001.19" y="-157.51" font-family="Helvetica,sans-Serif" font-size="14.00"> p: (0.20, 0.21, 0.59) </text>
<text text-anchor="start" x="4021.19" y="-143.51" font-family="Helvetica,sans-Serif" font-size="14.00">&#45;&#45;&#45;&#45;&#45;&#45;&#45;&#45;&#45;&#45;&#45;&#45;&#45;&#45;&#45;&#45;&#45;&#45;&#45;&#45;&#45;</text>
<text text-anchor="start" x="3989.19" y="-129.51" font-family="Helvetica,sans-Serif" font-weight="bold" font-size="14.00">black_piece0_strength</text>
</g>
<!-- 23&#45;&gt;27 -->
<g id="edge25" class="edge">
<title>23:s&#45;&gt;27:n</title>
<path fill="none" stroke="black" d="M3554.69,-250.71C3554.69,-250.71 3994.57,-207.73 4066.73,-200.68"/>
<polygon fill="black" stroke="black" points="4067.08,-204.17 4076.69,-199.71 4066.4,-197.2 4067.08,-204.17"/>
<text text-anchor="middle" x="3891.69" y="-221.51" font-family="Helvetica,sans-Serif" font-size="14.00">&gt; 5</text>
</g>
<!-- 18 -->
<g id="node21" class="node">
<title>18</title>
<ellipse fill="#3d76cc" stroke="black" cx="2102.69" cy="-35.36" rx="128.89" ry="35.21"/>
<text text-anchor="start" x="2063.69" y="-46.16" font-family="Helvetica,sans-Serif" font-weight="bold" font-size="14.00"> Class=b </text>
<text text-anchor="start" x="2136.69" y="-46.16" font-family="Helvetica,sans-Serif" font-size="14.00"> </text>
<text text-anchor="start" x="2019.69" y="-32.16" font-family="Helvetica,sans-Serif" font-size="14.00"> error: 0.738, n=44819 </text>
<text text-anchor="start" x="2027.19" y="-18.16" font-family="Helvetica,sans-Serif" font-size="14.00"> p: (0.69, 0.10, 0.21) </text>
</g>
<!-- 17&#45;&gt;18 -->
<g id="edge20" class="edge">
<title>17:s&#45;&gt;18:n</title>
<path fill="none" stroke="black" d="M2431.69,-121.71C2431.69,-121.71 2168.43,-80.9 2112.9,-72.29"/>
<polygon fill="black" stroke="black" points="2113.11,-68.78 2102.69,-70.71 2112.04,-75.7 2113.11,-68.78"/>
<text text-anchor="middle" x="2325.69" y="-92.51" font-family="Helvetica,sans-Serif" font-size="14.00">&lt;= 0</text>
</g>
<!-- 19 -->
<g id="node22" class="node">
<title>19</title>
<ellipse fill="#3d76cc" stroke="black" cx="2431.69" cy="-35.36" rx="128.89" ry="35.21"/>
<text text-anchor="start" x="2392.69" y="-46.16" font-family="Helvetica,sans-Serif" font-weight="bold" font-size="14.00"> Class=b </text>
<text text-anchor="start" x="2465.69" y="-46.16" font-family="Helvetica,sans-Serif" font-size="14.00"> </text>
<text text-anchor="start" x="2348.69" y="-32.16" font-family="Helvetica,sans-Serif" font-size="14.00"> error: 0.243, n=44819 </text>
<text text-anchor="start" x="2356.19" y="-18.16" font-family="Helvetica,sans-Serif" font-size="14.00"> p: (0.92, 0.00, 0.08) </text>
</g>
<!-- 17&#45;&gt;19 -->
<g id="edge21" class="edge">
<title>17:s&#45;&gt;19:n</title>
<path fill="none" stroke="black" d="M2431.69,-121.71C2431.69,-121.71 2431.69,-95.93 2431.69,-81.03"/>
<polygon fill="black" stroke="black" points="2435.19,-80.71 2431.69,-70.71 2428.19,-80.71 2435.19,-80.71"/>
<text text-anchor="middle" x="2444.69" y="-92.51" font-family="Helvetica,sans-Serif" font-size="14.00">&gt; 0</text>
</g>
<!-- 21 -->
<g id="node23" class="node">
<title>21</title>
<ellipse fill="#3d76cc" stroke="black" cx="2760.69" cy="-35.36" rx="128.89" ry="35.21"/>
<text text-anchor="start" x="2721.69" y="-46.16" font-family="Helvetica,sans-Serif" font-weight="bold" font-size="14.00"> Class=b </text>
<text text-anchor="start" x="2794.69" y="-46.16" font-family="Helvetica,sans-Serif" font-size="14.00"> </text>
<text text-anchor="start" x="2677.69" y="-32.16" font-family="Helvetica,sans-Serif" font-size="14.00"> error: 0.817, n=44819 </text>
<text text-anchor="start" x="2685.19" y="-18.16" font-family="Helvetica,sans-Serif" font-size="14.00"> p: (0.62, 0.11, 0.27) </text>
</g>
<!-- 20&#45;&gt;21 -->
<g id="edge22" class="edge">
<title>20:s&#45;&gt;21:n</title>
<path fill="none" stroke="black" d="M2760.69,-121.71C2760.69,-121.71 2760.69,-95.93 2760.69,-81.03"/>
<polygon fill="black" stroke="black" points="2764.19,-80.71 2760.69,-70.71 2757.19,-80.71 2764.19,-80.71"/>
<text text-anchor="middle" x="2779.69" y="-92.51" font-family="Helvetica,sans-Serif" font-size="14.00">&lt;= 2</text>
</g>
<!-- 22 -->
<g id="node24" class="node">
<title>22</title>
<ellipse fill="#3d76cc" stroke="black" cx="3089.69" cy="-35.36" rx="128.89" ry="35.21"/>
<text text-anchor="start" x="3050.69" y="-46.16" font-family="Helvetica,sans-Serif" font-weight="bold" font-size="14.00"> Class=b </text>
<text text-anchor="start" x="3123.69" y="-46.16" font-family="Helvetica,sans-Serif" font-size="14.00"> </text>
<text text-anchor="start" x="3006.69" y="-32.16" font-family="Helvetica,sans-Serif" font-size="14.00"> error: 0.402, n=44819 </text>
<text text-anchor="start" x="3014.19" y="-18.16" font-family="Helvetica,sans-Serif" font-size="14.00"> p: (0.86, 0.01, 0.14) </text>
</g>
<!-- 20&#45;&gt;22 -->
<g id="edge23" class="edge">
<title>20:s&#45;&gt;22:n</title>
<path fill="none" stroke="black" d="M2760.69,-121.71C2760.69,-121.71 3023.95,-80.9 3079.49,-72.29"/>
<polygon fill="black" stroke="black" points="3080.35,-75.7 3089.69,-70.71 3079.28,-68.78 3080.35,-75.7"/>
<text text-anchor="middle" x="2977.69" y="-92.51" font-family="Helvetica,sans-Serif" font-size="14.00">&gt; 2</text>
</g>
<!-- 25 -->
<g id="node27" class="node">
<title>25</title>
<ellipse fill="#3d76cc" stroke="black" cx="3418.69" cy="-35.36" rx="128.89" ry="35.21"/>
<text text-anchor="start" x="3378.19" y="-46.16" font-family="Helvetica,sans-Serif" font-weight="bold" font-size="14.00"> Class=w </text>
<text text-anchor="start" x="3454.19" y="-46.16" font-family="Helvetica,sans-Serif" font-size="14.00"> </text>
<text text-anchor="start" x="3335.69" y="-32.16" font-family="Helvetica,sans-Serif" font-size="14.00"> error: 0.949, n=44819 </text>
<text text-anchor="start" x="3343.19" y="-18.16" font-family="Helvetica,sans-Serif" font-size="14.00"> p: (0.30, 0.22, 0.49) </text>
</g>
<!-- 24&#45;&gt;25 -->
<g id="edge26" class="edge">
<title>24:s&#45;&gt;25:n</title>
<path fill="none" stroke="black" d="M3554.69,-121.71C3554.69,-121.71 3459.66,-86.07 3428.47,-74.38"/>
<polygon fill="black" stroke="black" points="3429.29,-70.94 3418.69,-70.71 3426.83,-77.5 3429.29,-70.94"/>
<text text-anchor="middle" x="3522.69" y="-92.51" font-family="Helvetica,sans-Serif" font-size="14.00">&lt;= 0</text>
</g>
<!-- 26 -->
<g id="node28" class="node">
<title>26</title>
<ellipse fill="#3d76cc" stroke="black" cx="3747.69" cy="-35.36" rx="128.89" ry="35.21"/>
<text text-anchor="start" x="3708.69" y="-46.16" font-family="Helvetica,sans-Serif" font-weight="bold" font-size="14.00"> Class=b </text>
<text text-anchor="start" x="3781.69" y="-46.16" font-family="Helvetica,sans-Serif" font-size="14.00"> </text>
<text text-anchor="start" x="3664.69" y="-32.16" font-family="Helvetica,sans-Serif" font-size="14.00"> error: 0.819, n=44819 </text>
<text text-anchor="start" x="3672.19" y="-18.16" font-family="Helvetica,sans-Serif" font-size="14.00"> p: (0.64, 0.21, 0.15) </text>
</g>
<!-- 24&#45;&gt;26 -->
<g id="edge27" class="edge">
<title>24:s&#45;&gt;26:n</title>
<path fill="none" stroke="black" d="M3554.69,-121.71C3554.69,-121.71 3698.53,-83.7 3737.86,-73.31"/>
<polygon fill="black" stroke="black" points="3738.92,-76.65 3747.69,-70.71 3737.13,-69.88 3738.92,-76.65"/>
<text text-anchor="middle" x="3687.69" y="-92.51" font-family="Helvetica,sans-Serif" font-size="14.00">&gt; 0</text>
</g>
<!-- 28 -->
<g id="node29" class="node">
<title>28</title>
<ellipse fill="#3d76cc" stroke="black" cx="4076.69" cy="-35.36" rx="128.89" ry="35.21"/>
<text text-anchor="start" x="4036.19" y="-46.16" font-family="Helvetica,sans-Serif" font-weight="bold" font-size="14.00"> Class=w </text>
<text text-anchor="start" x="4112.19" y="-46.16" font-family="Helvetica,sans-Serif" font-size="14.00"> </text>
<text text-anchor="start" x="3993.69" y="-32.16" font-family="Helvetica,sans-Serif" font-size="14.00"> error: 0.706, n=44819 </text>
<text text-anchor="start" x="4001.19" y="-18.16" font-family="Helvetica,sans-Serif" font-size="14.00"> p: (0.14, 0.13, 0.73) </text>
</g>
<!-- 27&#45;&gt;28 -->
<g id="edge28" class="edge">
<title>27:s&#45;&gt;28:n</title>
<path fill="none" stroke="black" d="M4076.69,-121.71C4076.69,-121.71 4076.69,-95.93 4076.69,-81.03"/>
<polygon fill="black" stroke="black" points="4080.19,-80.71 4076.69,-70.71 4073.19,-80.71 4080.19,-80.71"/>
<text text-anchor="middle" x="4095.69" y="-92.51" font-family="Helvetica,sans-Serif" font-size="14.00">&lt;= 5</text>
</g>
<!-- 29 -->
<g id="node30" class="node">
<title>29</title>
<ellipse fill="#3d76cc" stroke="black" cx="4405.69" cy="-35.36" rx="128.89" ry="35.21"/>
<text text-anchor="start" x="4365.19" y="-46.16" font-family="Helvetica,sans-Serif" font-weight="bold" font-size="14.00"> Class=w </text>
<text text-anchor="start" x="4441.19" y="-46.16" font-family="Helvetica,sans-Serif" font-size="14.00"> </text>
<text text-anchor="start" x="4322.69" y="-32.16" font-family="Helvetica,sans-Serif" font-size="14.00"> error: 0.994, n=44819 </text>
<text text-anchor="start" x="4330.19" y="-18.16" font-family="Helvetica,sans-Serif" font-size="14.00"> p: (0.29, 0.32, 0.39) </text>
</g>
<!-- 27&#45;&gt;29 -->
<g id="edge29" class="edge">
<title>27:s&#45;&gt;29:n</title>
<path fill="none" stroke="black" d="M4076.69,-121.71C4076.69,-121.71 4339.95,-80.9 4395.49,-72.29"/>
<polygon fill="black" stroke="black" points="4396.35,-75.7 4405.69,-70.71 4395.28,-68.78 4396.35,-75.7"/>
<text text-anchor="middle" x="4293.69" y="-92.51" font-family="Helvetica,sans-Serif" font-size="14.00">&gt; 5</text>
</g>
</g>
</svg>
