<?xml version="1.0" encoding="UTF-8" standalone="no"?>
<!DOCTYPE svg PUBLIC "-//W3C//DTD SVG 1.1//EN"
 "http://www.w3.org/Graphics/SVG/1.1/DTD/svg11.dtd">
<!-- Generated by graphviz version 2.43.0 (0)
 -->
<!-- Title: Tree Pages: 1 -->
<svg width="624pt" height="825pt"
 viewBox="0.00 0.00 623.66 824.71" xmlns="http://www.w3.org/2000/svg" xmlns:xlink="http://www.w3.org/1999/xlink">
<g id="graph0" class="graph" transform="scale(1 1) rotate(0) translate(18 806.71)">
<title>Tree</title>
<polygon fill="white" stroke="transparent" points="-18,18 -18,-806.71 605.66,-806.71 605.66,18 -18,18"/>
<!-- 0 -->
<g id="node1" class="node">
<title>0</title>
<polygon fill="white" stroke="transparent" points="351.33,-788.71 297.33,-788.71 297.33,-752.71 351.33,-752.71 351.33,-788.71"/>
<text text-anchor="middle" x="324.33" y="-767.01" font-family="Helvetica,sans-Serif" font-size="14.00">0</text>
</g>
<!-- 1 -->
<g id="node2" class="node">
<title>1</title>
<polygon fill="#cc3d3d" stroke="black" points="410.83,-715.71 237.83,-715.71 237.83,-637.71 410.83,-637.71 410.83,-715.71"/>
<text text-anchor="start" x="269.83" y="-701.51" font-family="Helvetica,sans-Serif" font-weight="bold" font-size="14.00"> Class=False </text>
<text text-anchor="start" x="373.83" y="-701.51" font-family="Helvetica,sans-Serif" font-size="14.00"> </text>
<text text-anchor="start" x="245.83" y="-687.51" font-family="Helvetica,sans-Serif" font-size="14.00"> error: 0.621, n=2109 </text>
<text text-anchor="start" x="269.33" y="-673.51" font-family="Helvetica,sans-Serif" font-size="14.00"> p: (0.85, 0.15) </text>
<text text-anchor="start" x="321.33" y="-659.51" font-family="Helvetica,sans-Serif" font-size="14.00">&#45;</text>
<text text-anchor="start" x="321.83" y="-645.51" font-family="Helvetica,sans-Serif" font-weight="bold" font-size="14.00">i</text>
</g>
<!-- 0&#45;&gt;1 -->
<!-- 2 -->
<g id="node3" class="node">
<title>2</title>
<polygon fill="#e5b844" stroke="black" points="270.83,-586.71 97.83,-586.71 97.83,-508.71 270.83,-508.71 270.83,-586.71"/>
<text text-anchor="start" x="129.83" y="-572.51" font-family="Helvetica,sans-Serif" font-weight="bold" font-size="14.00"> Class=False </text>
<text text-anchor="start" x="233.83" y="-572.51" font-family="Helvetica,sans-Serif" font-size="14.00"> </text>
<text text-anchor="start" x="105.83" y="-558.51" font-family="Helvetica,sans-Serif" font-size="14.00"> error: 0.884, n=2109 </text>
<text text-anchor="start" x="129.33" y="-544.51" font-family="Helvetica,sans-Serif" font-size="14.00"> p: (0.70, 0.30) </text>
<text text-anchor="start" x="157.83" y="-530.51" font-family="Helvetica,sans-Serif" font-size="14.00">&#45;&#45;&#45;&#45;&#45;&#45;&#45;&#45;&#45;&#45;</text>
<text text-anchor="start" x="141.33" y="-516.51" font-family="Helvetica,sans-Serif" font-weight="bold" font-size="14.00">total_Opnd</text>
</g>
<!-- 1&#45;&gt;2 -->
<g id="edge2" class="edge">
<title>1:s&#45;&gt;2:n</title>
<path fill="none" stroke="black" d="M324.33,-637.71C324.33,-637.71 225.58,-601.74 193.95,-590.22"/>
<polygon fill="black" stroke="black" points="194.92,-586.84 184.33,-586.71 192.53,-593.42 194.92,-586.84"/>
<text text-anchor="middle" x="300.33" y="-608.51" font-family="Helvetica,sans-Serif" font-size="14.00">&gt; 18.26</text>
</g>
<!-- 8 -->
<g id="node4" class="node">
<title>8</title>
<ellipse fill="#e5b844" stroke="black" cx="465.33" cy="-547.71" rx="122.16" ry="35.21"/>
<text text-anchor="start" x="410.83" y="-558.51" font-family="Helvetica,sans-Serif" font-weight="bold" font-size="14.00"> Class=False </text>
<text text-anchor="start" x="514.83" y="-558.51" font-family="Helvetica,sans-Serif" font-size="14.00"> </text>
<text text-anchor="start" x="386.83" y="-544.51" font-family="Helvetica,sans-Serif" font-size="14.00"> error: 0.307, n=2109 </text>
<text text-anchor="start" x="410.33" y="-530.51" font-family="Helvetica,sans-Serif" font-size="14.00"> p: (0.95, 0.05) </text>
</g>
<!-- 1&#45;&gt;8 -->
<g id="edge3" class="edge">
<title>1:s&#45;&gt;8:n</title>
<path fill="none" stroke="black" d="M324.33,-637.71C324.33,-637.71 423.78,-600.33 455.64,-588.35"/>
<polygon fill="black" stroke="black" points="457.2,-591.51 465.33,-584.71 454.74,-584.95 457.2,-591.51"/>
<text text-anchor="middle" x="447.33" y="-608.51" font-family="Helvetica,sans-Serif" font-size="14.00">&lt;= 18.26</text>
</g>
<!-- 3 -->
<g id="node5" class="node">
<title>3</title>
<ellipse fill="#8dcc3d" stroke="black" cx="122.33" cy="-418.71" rx="122.16" ry="35.21"/>
<text text-anchor="start" x="67.83" y="-429.51" font-family="Helvetica,sans-Serif" font-weight="bold" font-size="14.00"> Class=False </text>
<text text-anchor="start" x="171.83" y="-429.51" font-family="Helvetica,sans-Serif" font-size="14.00"> </text>
<text text-anchor="start" x="43.83" y="-415.51" font-family="Helvetica,sans-Serif" font-size="14.00"> error: 0.826, n=2109 </text>
<text text-anchor="start" x="67.33" y="-401.51" font-family="Helvetica,sans-Serif" font-size="14.00"> p: (0.74, 0.26) </text>
</g>
<!-- 2&#45;&gt;3 -->
<g id="edge4" class="edge">
<title>2:s&#45;&gt;3:n</title>
<path fill="none" stroke="black" d="M184.33,-508.71C184.33,-508.71 146.49,-476.36 129.93,-462.21"/>
<polygon fill="black" stroke="black" points="132.2,-459.55 122.33,-455.71 127.66,-464.87 132.2,-459.55"/>
<text text-anchor="middle" x="186.83" y="-479.51" font-family="Helvetica,sans-Serif" font-size="14.00">&lt;= 79</text>
</g>
<!-- 4 -->
<g id="node6" class="node">
<title>4</title>
<polygon fill="#8dcc3d" stroke="black" points="489.83,-457.71 316.83,-457.71 316.83,-379.71 489.83,-379.71 489.83,-457.71"/>
<text text-anchor="start" x="352.33" y="-443.51" font-family="Helvetica,sans-Serif" font-weight="bold" font-size="14.00"> Class=True </text>
<text text-anchor="start" x="449.33" y="-443.51" font-family="Helvetica,sans-Serif" font-size="14.00"> </text>
<text text-anchor="start" x="324.83" y="-429.51" font-family="Helvetica,sans-Serif" font-size="14.00"> error: 0.972, n=2109 </text>
<text text-anchor="start" x="348.33" y="-415.51" font-family="Helvetica,sans-Serif" font-size="14.00"> p: (0.40, 0.60) </text>
<text text-anchor="start" x="379.33" y="-401.51" font-family="Helvetica,sans-Serif" font-size="14.00">&#45;&#45;&#45;&#45;&#45;&#45;&#45;&#45;&#45;</text>
<text text-anchor="start" x="357.33" y="-387.51" font-family="Helvetica,sans-Serif" font-weight="bold" font-size="14.00">lOComment</text>
</g>
<!-- 2&#45;&gt;4 -->
<g id="edge5" class="edge">
<title>2:s&#45;&gt;4:n</title>
<path fill="none" stroke="black" d="M184.33,-508.71C184.33,-508.71 350.51,-470.01 393.35,-460.03"/>
<polygon fill="black" stroke="black" points="394.38,-463.39 403.33,-457.71 392.8,-456.57 394.38,-463.39"/>
<text text-anchor="middle" x="337.83" y="-479.51" font-family="Helvetica,sans-Serif" font-size="14.00">&gt; 79</text>
</g>
<!-- 5 -->
<g id="node7" class="node">
<title>5</title>
<polygon fill="#44e55e" stroke="black" points="495.33,-328.71 311.33,-328.71 311.33,-250.71 495.33,-250.71 495.33,-328.71"/>
<text text-anchor="start" x="352.33" y="-314.51" font-family="Helvetica,sans-Serif" font-weight="bold" font-size="14.00"> Class=True </text>
<text text-anchor="start" x="449.33" y="-314.51" font-family="Helvetica,sans-Serif" font-size="14.00"> </text>
<text text-anchor="start" x="324.83" y="-300.51" font-family="Helvetica,sans-Serif" font-size="14.00"> error: 0.991, n=2109 </text>
<text text-anchor="start" x="348.33" y="-286.51" font-family="Helvetica,sans-Serif" font-size="14.00"> p: (0.44, 0.56) </text>
<text text-anchor="start" x="358.33" y="-272.51" font-family="Helvetica,sans-Serif" font-size="14.00">&#45;&#45;&#45;&#45;&#45;&#45;&#45;&#45;&#45;&#45;&#45;&#45;&#45;&#45;&#45;&#45;&#45;</text>
<text text-anchor="start" x="319.33" y="-258.51" font-family="Helvetica,sans-Serif" font-weight="bold" font-size="14.00">locCodeAndComment</text>
</g>
<!-- 4&#45;&gt;5 -->
<g id="edge6" class="edge">
<title>4:s&#45;&gt;5:n</title>
<path fill="none" stroke="black" d="M403.33,-379.71C403.33,-379.71 403.33,-353.93 403.33,-339.03"/>
<polygon fill="black" stroke="black" points="406.83,-338.71 403.33,-328.71 399.83,-338.71 406.83,-338.71"/>
<text text-anchor="middle" x="426.83" y="-350.51" font-family="Helvetica,sans-Serif" font-size="14.00">&lt;= 20</text>
</g>
<!-- 6 -->
<g id="node8" class="node">
<title>6</title>
<polygon fill="#3dccba" stroke="black" points="489.83,-199.71 316.83,-199.71 316.83,-121.71 489.83,-121.71 489.83,-199.71"/>
<text text-anchor="start" x="352.33" y="-185.51" font-family="Helvetica,sans-Serif" font-weight="bold" font-size="14.00"> Class=True </text>
<text text-anchor="start" x="449.33" y="-185.51" font-family="Helvetica,sans-Serif" font-size="14.00"> </text>
<text text-anchor="start" x="324.83" y="-171.51" font-family="Helvetica,sans-Serif" font-size="14.00"> error: 0.957, n=2109 </text>
<text text-anchor="start" x="348.33" y="-157.51" font-family="Helvetica,sans-Serif" font-size="14.00"> p: (0.38, 0.62) </text>
<text text-anchor="start" x="374.33" y="-143.51" font-family="Helvetica,sans-Serif" font-size="14.00">&#45;&#45;&#45;&#45;&#45;&#45;&#45;&#45;&#45;&#45;&#45;</text>
<text text-anchor="start" x="352.83" y="-129.51" font-family="Helvetica,sans-Serif" font-weight="bold" font-size="14.00">branchCount</text>
</g>
<!-- 5&#45;&gt;6 -->
<g id="edge7" class="edge">
<title>5:s&#45;&gt;6:n</title>
<path fill="none" stroke="black" d="M403.33,-250.71C403.33,-250.71 403.33,-224.93 403.33,-210.03"/>
<polygon fill="black" stroke="black" points="406.83,-209.71 403.33,-199.71 399.83,-209.71 406.83,-209.71"/>
<text text-anchor="middle" x="422.33" y="-221.51" font-family="Helvetica,sans-Serif" font-size="14.00">&lt;= 2</text>
</g>
<!-- 7 -->
<g id="node9" class="node">
<title>7</title>
<ellipse fill="#4485e5" stroke="black" cx="403.33" cy="-35.36" rx="122.16" ry="35.21"/>
<text text-anchor="start" x="352.33" y="-46.16" font-family="Helvetica,sans-Serif" font-weight="bold" font-size="14.00"> Class=True </text>
<text text-anchor="start" x="449.33" y="-46.16" font-family="Helvetica,sans-Serif" font-size="14.00"> </text>
<text text-anchor="start" x="324.83" y="-32.16" font-family="Helvetica,sans-Serif" font-size="14.00"> error: 0.863, n=2109 </text>
<text text-anchor="start" x="348.33" y="-18.16" font-family="Helvetica,sans-Serif" font-size="14.00"> p: (0.29, 0.71) </text>
</g>
<!-- 6&#45;&gt;7 -->
<g id="edge8" class="edge">
<title>6:s&#45;&gt;7:n</title>
<path fill="none" stroke="black" d="M403.33,-121.71C403.33,-121.71 403.33,-95.93 403.33,-81.03"/>
<polygon fill="black" stroke="black" points="406.83,-80.71 403.33,-70.71 399.83,-80.71 406.83,-80.71"/>
<text text-anchor="middle" x="426.83" y="-92.51" font-family="Helvetica,sans-Serif" font-size="14.00">&lt;= 31</text>
</g>
</g>
</svg>
