<?xml version="1.0" encoding="UTF-8" standalone="no"?>
<!DOCTYPE svg PUBLIC "-//W3C//DTD SVG 1.1//EN"
 "http://www.w3.org/Graphics/SVG/1.1/DTD/svg11.dtd">
<!-- Generated by graphviz version 2.43.0 (0)
 -->
<!-- Title: Tree Pages: 1 -->
<svg width="979pt" height="1212pt"
 viewBox="0.00 0.00 978.93 1211.71" xmlns="http://www.w3.org/2000/svg" xmlns:xlink="http://www.w3.org/1999/xlink">
<g id="graph0" class="graph" transform="scale(1 1) rotate(0) translate(18 1193.71)">
<title>Tree</title>
<polygon fill="white" stroke="transparent" points="-18,18 -18,-1193.71 960.93,-1193.71 960.93,18 -18,18"/>
<!-- 0 -->
<g id="node1" class="node">
<title>0</title>
<polygon fill="white" stroke="transparent" points="718.97,-1175.71 664.97,-1175.71 664.97,-1139.71 718.97,-1139.71 718.97,-1175.71"/>
<text text-anchor="middle" x="691.97" y="-1154.01" font-family="Helvetica,sans-Serif" font-size="14.00">0</text>
</g>
<!-- 1 -->
<g id="node2" class="node">
<title>1</title>
<polygon fill="#cc3d3d" stroke="black" points="773.97,-1102.71 609.97,-1102.71 609.97,-1024.71 773.97,-1024.71 773.97,-1102.71"/>
<text text-anchor="start" x="648.47" y="-1088.51" font-family="Helvetica,sans-Serif" font-weight="bold" font-size="14.00"> Class=no </text>
<text text-anchor="start" x="730.47" y="-1088.51" font-family="Helvetica,sans-Serif" font-size="14.00"> </text>
<text text-anchor="start" x="617.97" y="-1074.51" font-family="Helvetica,sans-Serif" font-size="14.00"> error: 0.732, n=522 </text>
<text text-anchor="start" x="636.97" y="-1060.51" font-family="Helvetica,sans-Serif" font-size="14.00"> p: (0.80, 0.20) </text>
<text text-anchor="start" x="667.97" y="-1046.51" font-family="Helvetica,sans-Serif" font-size="14.00">&#45;&#45;&#45;&#45;&#45;&#45;&#45;&#45;&#45;</text>
<text text-anchor="start" x="650.97" y="-1032.51" font-family="Helvetica,sans-Serif" font-weight="bold" font-size="14.00">uniq_Opnd</text>
</g>
<!-- 0&#45;&gt;1 -->
<!-- 2 -->
<g id="node3" class="node">
<title>2</title>
<polygon fill="#e58d44" stroke="black" points="638.97,-973.71 474.97,-973.71 474.97,-895.71 638.97,-895.71 638.97,-973.71"/>
<text text-anchor="start" x="513.47" y="-959.51" font-family="Helvetica,sans-Serif" font-weight="bold" font-size="14.00"> Class=no </text>
<text text-anchor="start" x="595.47" y="-959.51" font-family="Helvetica,sans-Serif" font-size="14.00"> </text>
<text text-anchor="start" x="482.97" y="-945.51" font-family="Helvetica,sans-Serif" font-size="14.00"> error: 1.000, n=522 </text>
<text text-anchor="start" x="501.97" y="-931.51" font-family="Helvetica,sans-Serif" font-size="14.00"> p: (0.50, 0.50) </text>
<text text-anchor="start" x="543.47" y="-917.51" font-family="Helvetica,sans-Serif" font-size="14.00">&#45;&#45;&#45;&#45;&#45;</text>
<text text-anchor="start" x="535.47" y="-903.51" font-family="Helvetica,sans-Serif" font-weight="bold" font-size="14.00">ev(g)</text>
</g>
<!-- 1&#45;&gt;2 -->
<g id="edge2" class="edge">
<title>1:s&#45;&gt;2:n</title>
<path fill="none" stroke="black" d="M691.97,-1024.71C691.97,-1024.71 597.63,-989.07 566.67,-977.38"/>
<polygon fill="black" stroke="black" points="567.56,-973.97 556.97,-973.71 565.08,-980.52 567.56,-973.97"/>
<text text-anchor="middle" x="658.47" y="-995.51" font-family="Helvetica,sans-Serif" font-size="14.00">&gt; 15</text>
</g>
<!-- 21 -->
<g id="node4" class="node">
<title>21</title>
<ellipse fill="#e58d44" stroke="black" cx="826.97" cy="-934.71" rx="115.93" ry="35.21"/>
<text text-anchor="start" x="783.47" y="-945.51" font-family="Helvetica,sans-Serif" font-weight="bold" font-size="14.00"> Class=no </text>
<text text-anchor="start" x="865.47" y="-945.51" font-family="Helvetica,sans-Serif" font-size="14.00"> </text>
<text text-anchor="start" x="752.97" y="-931.51" font-family="Helvetica,sans-Serif" font-size="14.00"> error: 0.328, n=522 </text>
<text text-anchor="start" x="771.97" y="-917.51" font-family="Helvetica,sans-Serif" font-size="14.00"> p: (0.94, 0.06) </text>
</g>
<!-- 1&#45;&gt;21 -->
<g id="edge3" class="edge">
<title>1:s&#45;&gt;21:n</title>
<path fill="none" stroke="black" d="M691.97,-1024.71C691.97,-1024.71 786.3,-987.67 817.26,-975.52"/>
<polygon fill="black" stroke="black" points="818.94,-978.62 826.97,-971.71 816.38,-972.11 818.94,-978.62"/>
<text text-anchor="middle" x="799.47" y="-995.51" font-family="Helvetica,sans-Serif" font-size="14.00">&lt;= 15</text>
</g>
<!-- 3 -->
<g id="node5" class="node">
<title>3</title>
<polygon fill="#ccbd3d" stroke="black" points="504.97,-844.71 340.97,-844.71 340.97,-766.71 504.97,-766.71 504.97,-844.71"/>
<text text-anchor="start" x="379.47" y="-830.51" font-family="Helvetica,sans-Serif" font-weight="bold" font-size="14.00"> Class=no </text>
<text text-anchor="start" x="461.47" y="-830.51" font-family="Helvetica,sans-Serif" font-size="14.00"> </text>
<text text-anchor="start" x="348.97" y="-816.51" font-family="Helvetica,sans-Serif" font-size="14.00"> error: 0.982, n=522 </text>
<text text-anchor="start" x="367.97" y="-802.51" font-family="Helvetica,sans-Serif" font-size="14.00"> p: (0.58, 0.42) </text>
<text text-anchor="start" x="404.47" y="-788.51" font-family="Helvetica,sans-Serif" font-size="14.00">&#45;&#45;&#45;&#45;&#45;&#45;&#45;</text>
<text text-anchor="start" x="392.47" y="-774.51" font-family="Helvetica,sans-Serif" font-weight="bold" font-size="14.00">lOBlank</text>
</g>
<!-- 2&#45;&gt;3 -->
<g id="edge4" class="edge">
<title>2:s&#45;&gt;3:n</title>
<path fill="none" stroke="black" d="M556.97,-895.71C556.97,-895.71 463.33,-860.07 432.6,-848.38"/>
<polygon fill="black" stroke="black" points="433.56,-845 422.97,-844.71 431.07,-851.54 433.56,-845"/>
<text text-anchor="middle" x="524.97" y="-866.51" font-family="Helvetica,sans-Serif" font-size="14.00">&lt;= 7</text>
</g>
<!-- 19 -->
<g id="node6" class="node">
<title>19</title>
<polygon fill="#ccbd3d" stroke="black" points="757.97,-844.71 593.97,-844.71 593.97,-766.71 757.97,-766.71 757.97,-844.71"/>
<text text-anchor="start" x="628.47" y="-830.51" font-family="Helvetica,sans-Serif" font-weight="bold" font-size="14.00"> Class=yes </text>
<text text-anchor="start" x="718.47" y="-830.51" font-family="Helvetica,sans-Serif" font-size="14.00"> </text>
<text text-anchor="start" x="601.97" y="-816.51" font-family="Helvetica,sans-Serif" font-size="14.00"> error: 0.491, n=522 </text>
<text text-anchor="start" x="620.97" y="-802.51" font-family="Helvetica,sans-Serif" font-size="14.00"> p: (0.11, 0.89) </text>
<text text-anchor="start" x="657.47" y="-788.51" font-family="Helvetica,sans-Serif" font-size="14.00">&#45;&#45;&#45;&#45;&#45;&#45;&#45;</text>
<text text-anchor="start" x="645.47" y="-774.51" font-family="Helvetica,sans-Serif" font-weight="bold" font-size="14.00">lOBlank</text>
</g>
<!-- 2&#45;&gt;19 -->
<g id="edge5" class="edge">
<title>2:s&#45;&gt;19:n</title>
<path fill="none" stroke="black" d="M556.97,-895.71C556.97,-895.71 638.57,-860.74 666.63,-848.71"/>
<polygon fill="black" stroke="black" points="668.15,-851.87 675.97,-844.71 665.4,-845.43 668.15,-851.87"/>
<text text-anchor="middle" x="643.97" y="-866.51" font-family="Helvetica,sans-Serif" font-size="14.00">&gt; 7</text>
</g>
<!-- 4 -->
<g id="node7" class="node">
<title>4</title>
<polygon fill="#ade544" stroke="black" points="266.97,-715.71 102.97,-715.71 102.97,-637.71 266.97,-637.71 266.97,-715.71"/>
<text text-anchor="start" x="141.47" y="-701.51" font-family="Helvetica,sans-Serif" font-weight="bold" font-size="14.00"> Class=no </text>
<text text-anchor="start" x="223.47" y="-701.51" font-family="Helvetica,sans-Serif" font-size="14.00"> </text>
<text text-anchor="start" x="110.97" y="-687.51" font-family="Helvetica,sans-Serif" font-size="14.00"> error: 0.880, n=522 </text>
<text text-anchor="start" x="129.97" y="-673.51" font-family="Helvetica,sans-Serif" font-size="14.00"> p: (0.70, 0.30) </text>
<text text-anchor="start" x="160.97" y="-659.51" font-family="Helvetica,sans-Serif" font-size="14.00">&#45;&#45;&#45;&#45;&#45;&#45;&#45;&#45;&#45;</text>
<text text-anchor="start" x="143.97" y="-645.51" font-family="Helvetica,sans-Serif" font-weight="bold" font-size="14.00">uniq_Opnd</text>
</g>
<!-- 3&#45;&gt;4 -->
<g id="edge6" class="edge">
<title>3:s&#45;&gt;4:n</title>
<path fill="none" stroke="black" d="M422.97,-766.71C422.97,-766.71 239.93,-727.49 194.89,-717.84"/>
<polygon fill="black" stroke="black" points="195.48,-714.38 184.97,-715.71 194.01,-721.23 195.48,-714.38"/>
<text text-anchor="middle" x="351.97" y="-737.51" font-family="Helvetica,sans-Serif" font-size="14.00">&lt;= 7</text>
</g>
<!-- 12 -->
<g id="node8" class="node">
<title>12</title>
<polygon fill="#ade544" stroke="black" points="504.97,-715.71 340.97,-715.71 340.97,-637.71 504.97,-637.71 504.97,-715.71"/>
<text text-anchor="start" x="375.47" y="-701.51" font-family="Helvetica,sans-Serif" font-weight="bold" font-size="14.00"> Class=yes </text>
<text text-anchor="start" x="465.47" y="-701.51" font-family="Helvetica,sans-Serif" font-size="14.00"> </text>
<text text-anchor="start" x="348.97" y="-687.51" font-family="Helvetica,sans-Serif" font-size="14.00"> error: 0.990, n=522 </text>
<text text-anchor="start" x="367.97" y="-673.51" font-family="Helvetica,sans-Serif" font-size="14.00"> p: (0.44, 0.56) </text>
<text text-anchor="start" x="409.47" y="-659.51" font-family="Helvetica,sans-Serif" font-size="14.00">&#45;&#45;&#45;&#45;&#45;</text>
<text text-anchor="start" x="401.47" y="-645.51" font-family="Helvetica,sans-Serif" font-weight="bold" font-size="14.00">ev(g)</text>
</g>
<!-- 3&#45;&gt;12 -->
<g id="edge7" class="edge">
<title>3:s&#45;&gt;12:n</title>
<path fill="none" stroke="black" d="M422.97,-766.71C422.97,-766.71 422.97,-740.93 422.97,-726.03"/>
<polygon fill="black" stroke="black" points="426.47,-725.71 422.97,-715.71 419.47,-725.71 426.47,-725.71"/>
<text text-anchor="middle" x="435.97" y="-737.51" font-family="Helvetica,sans-Serif" font-size="14.00">&gt; 7</text>
</g>
<!-- 20 -->
<g id="node22" class="node">
<title>20</title>
<ellipse fill="#ade544" stroke="black" cx="692.97" cy="-676.71" rx="115.93" ry="35.21"/>
<text text-anchor="start" x="645.47" y="-687.51" font-family="Helvetica,sans-Serif" font-weight="bold" font-size="14.00"> Class=yes </text>
<text text-anchor="start" x="735.47" y="-687.51" font-family="Helvetica,sans-Serif" font-size="14.00"> </text>
<text text-anchor="start" x="618.97" y="-673.51" font-family="Helvetica,sans-Serif" font-size="14.00"> error: 0.000, n=522 </text>
<text text-anchor="start" x="637.97" y="-659.51" font-family="Helvetica,sans-Serif" font-size="14.00"> p: (0.00, 1.00) </text>
</g>
<!-- 19&#45;&gt;20 -->
<g id="edge21" class="edge">
<title>19:s&#45;&gt;20:n</title>
<path fill="none" stroke="black" d="M675.97,-766.71C675.97,-766.71 684.94,-738.73 689.85,-723.43"/>
<polygon fill="black" stroke="black" points="693.24,-724.3 692.97,-713.71 686.58,-722.16 693.24,-724.3"/>
<text text-anchor="middle" x="699.97" y="-737.51" font-family="Helvetica,sans-Serif" font-size="14.00">&gt; 9</text>
</g>
<!-- 5 -->
<g id="node9" class="node">
<title>5</title>
<polygon fill="#59cc3d" stroke="black" points="254.97,-586.71 90.97,-586.71 90.97,-508.71 254.97,-508.71 254.97,-586.71"/>
<text text-anchor="start" x="129.47" y="-572.51" font-family="Helvetica,sans-Serif" font-weight="bold" font-size="14.00"> Class=no </text>
<text text-anchor="start" x="211.47" y="-572.51" font-family="Helvetica,sans-Serif" font-size="14.00"> </text>
<text text-anchor="start" x="98.97" y="-558.51" font-family="Helvetica,sans-Serif" font-size="14.00"> error: 0.913, n=522 </text>
<text text-anchor="start" x="117.97" y="-544.51" font-family="Helvetica,sans-Serif" font-size="14.00"> p: (0.67, 0.33) </text>
<text text-anchor="start" x="159.47" y="-530.51" font-family="Helvetica,sans-Serif" font-size="14.00">&#45;&#45;&#45;&#45;&#45;</text>
<text text-anchor="start" x="154.47" y="-516.51" font-family="Helvetica,sans-Serif" font-weight="bold" font-size="14.00">iv(g)</text>
</g>
<!-- 4&#45;&gt;5 -->
<g id="edge8" class="edge">
<title>4:s&#45;&gt;5:n</title>
<path fill="none" stroke="black" d="M184.97,-637.71C184.97,-637.71 178.77,-611.36 175.28,-596.54"/>
<polygon fill="black" stroke="black" points="178.66,-595.64 172.97,-586.71 171.85,-597.25 178.66,-595.64"/>
<text text-anchor="middle" x="198.47" y="-608.51" font-family="Helvetica,sans-Serif" font-size="14.00">&gt; 16</text>
</g>
<!-- 13 -->
<g id="node16" class="node">
<title>13</title>
<polygon fill="#59cc3d" stroke="black" points="504.97,-586.71 340.97,-586.71 340.97,-508.71 504.97,-508.71 504.97,-586.71"/>
<text text-anchor="start" x="379.47" y="-572.51" font-family="Helvetica,sans-Serif" font-weight="bold" font-size="14.00"> Class=no </text>
<text text-anchor="start" x="461.47" y="-572.51" font-family="Helvetica,sans-Serif" font-size="14.00"> </text>
<text text-anchor="start" x="348.97" y="-558.51" font-family="Helvetica,sans-Serif" font-size="14.00"> error: 0.997, n=522 </text>
<text text-anchor="start" x="367.97" y="-544.51" font-family="Helvetica,sans-Serif" font-size="14.00"> p: (0.53, 0.47) </text>
<text text-anchor="start" x="411.97" y="-530.51" font-family="Helvetica,sans-Serif" font-size="14.00">&#45;&#45;&#45;&#45;</text>
<text text-anchor="start" x="406.47" y="-516.51" font-family="Helvetica,sans-Serif" font-weight="bold" font-size="14.00">v(g)</text>
</g>
<!-- 12&#45;&gt;13 -->
<g id="edge15" class="edge">
<title>12:s&#45;&gt;13:n</title>
<path fill="none" stroke="black" d="M422.97,-637.71C422.97,-637.71 422.97,-611.93 422.97,-597.03"/>
<polygon fill="black" stroke="black" points="426.47,-596.71 422.97,-586.71 419.47,-596.71 426.47,-596.71"/>
<text text-anchor="middle" x="441.97" y="-608.51" font-family="Helvetica,sans-Serif" font-size="14.00">&lt;= 4</text>
</g>
<!-- 18 -->
<g id="node17" class="node">
<title>18</title>
<ellipse fill="#59cc3d" stroke="black" cx="692.97" cy="-547.71" rx="115.93" ry="35.21"/>
<text text-anchor="start" x="645.47" y="-558.51" font-family="Helvetica,sans-Serif" font-weight="bold" font-size="14.00"> Class=yes </text>
<text text-anchor="start" x="735.47" y="-558.51" font-family="Helvetica,sans-Serif" font-size="14.00"> </text>
<text text-anchor="start" x="618.97" y="-544.51" font-family="Helvetica,sans-Serif" font-size="14.00"> error: 0.792, n=522 </text>
<text text-anchor="start" x="637.97" y="-530.51" font-family="Helvetica,sans-Serif" font-size="14.00"> p: (0.24, 0.76) </text>
</g>
<!-- 12&#45;&gt;18 -->
<g id="edge16" class="edge">
<title>12:s&#45;&gt;18:n</title>
<path fill="none" stroke="black" d="M422.97,-637.71C422.97,-637.71 634.32,-596.22 683.04,-586.66"/>
<polygon fill="black" stroke="black" points="683.83,-590.07 692.97,-584.71 682.48,-583.2 683.83,-590.07"/>
<text text-anchor="middle" x="603.97" y="-608.51" font-family="Helvetica,sans-Serif" font-size="14.00">&gt; 4</text>
</g>
<!-- 6 -->
<g id="node10" class="node">
<title>6</title>
<polygon fill="#44e56d" stroke="black" points="234.97,-457.71 70.97,-457.71 70.97,-379.71 234.97,-379.71 234.97,-457.71"/>
<text text-anchor="start" x="109.47" y="-443.51" font-family="Helvetica,sans-Serif" font-weight="bold" font-size="14.00"> Class=no </text>
<text text-anchor="start" x="191.47" y="-443.51" font-family="Helvetica,sans-Serif" font-size="14.00"> </text>
<text text-anchor="start" x="78.97" y="-429.51" font-family="Helvetica,sans-Serif" font-size="14.00"> error: 0.892, n=522 </text>
<text text-anchor="start" x="97.97" y="-415.51" font-family="Helvetica,sans-Serif" font-size="14.00"> p: (0.69, 0.31) </text>
<text text-anchor="start" x="141.97" y="-401.51" font-family="Helvetica,sans-Serif" font-size="14.00">&#45;&#45;&#45;&#45;</text>
<text text-anchor="start" x="136.47" y="-387.51" font-family="Helvetica,sans-Serif" font-weight="bold" font-size="14.00">v(g)</text>
</g>
<!-- 5&#45;&gt;6 -->
<g id="edge9" class="edge">
<title>5:s&#45;&gt;6:n</title>
<path fill="none" stroke="black" d="M172.97,-508.71C172.97,-508.71 162.41,-481.79 156.63,-467.06"/>
<polygon fill="black" stroke="black" points="159.87,-465.74 152.97,-457.71 153.36,-468.3 159.87,-465.74"/>
<text text-anchor="middle" x="178.97" y="-479.51" font-family="Helvetica,sans-Serif" font-size="14.00">&gt; 1</text>
</g>
<!-- 7 -->
<g id="node11" class="node">
<title>7</title>
<polygon fill="#3dcca1" stroke="black" points="222.97,-328.71 58.97,-328.71 58.97,-250.71 222.97,-250.71 222.97,-328.71"/>
<text text-anchor="start" x="97.47" y="-314.51" font-family="Helvetica,sans-Serif" font-weight="bold" font-size="14.00"> Class=no </text>
<text text-anchor="start" x="179.47" y="-314.51" font-family="Helvetica,sans-Serif" font-size="14.00"> </text>
<text text-anchor="start" x="66.97" y="-300.51" font-family="Helvetica,sans-Serif" font-size="14.00"> error: 0.732, n=522 </text>
<text text-anchor="start" x="85.97" y="-286.51" font-family="Helvetica,sans-Serif" font-size="14.00"> p: (0.79, 0.21) </text>
<text text-anchor="start" x="132.97" y="-272.51" font-family="Helvetica,sans-Serif" font-size="14.00">&#45;&#45;&#45;</text>
<text text-anchor="start" x="129.47" y="-258.51" font-family="Helvetica,sans-Serif" font-weight="bold" font-size="14.00">loc</text>
</g>
<!-- 6&#45;&gt;7 -->
<g id="edge10" class="edge">
<title>6:s&#45;&gt;7:n</title>
<path fill="none" stroke="black" d="M152.97,-379.71C152.97,-379.71 146.77,-353.36 143.28,-338.54"/>
<polygon fill="black" stroke="black" points="146.66,-337.64 140.97,-328.71 139.85,-339.25 146.66,-337.64"/>
<text text-anchor="middle" x="167.97" y="-350.51" font-family="Helvetica,sans-Serif" font-size="14.00">&lt;= 5</text>
</g>
<!-- 10 -->
<g id="node12" class="node">
<title>10</title>
<polygon fill="#3dcca1" stroke="black" points="464.97,-328.71 300.97,-328.71 300.97,-250.71 464.97,-250.71 464.97,-328.71"/>
<text text-anchor="start" x="339.47" y="-314.51" font-family="Helvetica,sans-Serif" font-weight="bold" font-size="14.00"> Class=no </text>
<text text-anchor="start" x="421.47" y="-314.51" font-family="Helvetica,sans-Serif" font-size="14.00"> </text>
<text text-anchor="start" x="308.97" y="-300.51" font-family="Helvetica,sans-Serif" font-size="14.00"> error: 0.992, n=522 </text>
<text text-anchor="start" x="327.97" y="-286.51" font-family="Helvetica,sans-Serif" font-size="14.00"> p: (0.55, 0.45) </text>
<text text-anchor="start" x="371.97" y="-272.51" font-family="Helvetica,sans-Serif" font-size="14.00">&#45;&#45;&#45;&#45;</text>
<text text-anchor="start" x="366.47" y="-258.51" font-family="Helvetica,sans-Serif" font-weight="bold" font-size="14.00">v(g)</text>
</g>
<!-- 6&#45;&gt;10 -->
<g id="edge11" class="edge">
<title>6:s&#45;&gt;10:n</title>
<path fill="none" stroke="black" d="M152.97,-379.71C152.97,-379.71 329.06,-340.66 373.08,-330.9"/>
<polygon fill="black" stroke="black" points="373.96,-334.29 382.97,-328.71 372.44,-327.46 373.96,-334.29"/>
<text text-anchor="middle" x="308.97" y="-350.51" font-family="Helvetica,sans-Serif" font-size="14.00">&gt; 5</text>
</g>
<!-- 8 -->
<g id="node13" class="node">
<title>8</title>
<polygon fill="#44cde5" stroke="black" points="197.97,-199.71 33.97,-199.71 33.97,-121.71 197.97,-121.71 197.97,-199.71"/>
<text text-anchor="start" x="72.47" y="-185.51" font-family="Helvetica,sans-Serif" font-weight="bold" font-size="14.00"> Class=no </text>
<text text-anchor="start" x="154.47" y="-185.51" font-family="Helvetica,sans-Serif" font-size="14.00"> </text>
<text text-anchor="start" x="41.97" y="-171.51" font-family="Helvetica,sans-Serif" font-size="14.00"> error: 0.689, n=522 </text>
<text text-anchor="start" x="60.97" y="-157.51" font-family="Helvetica,sans-Serif" font-size="14.00"> p: (0.82, 0.18) </text>
<text text-anchor="start" x="107.97" y="-143.51" font-family="Helvetica,sans-Serif" font-size="14.00">&#45;&#45;&#45;</text>
<text text-anchor="start" x="104.47" y="-129.51" font-family="Helvetica,sans-Serif" font-weight="bold" font-size="14.00">loc</text>
</g>
<!-- 7&#45;&gt;8 -->
<g id="edge12" class="edge">
<title>7:s&#45;&gt;8:n</title>
<path fill="none" stroke="black" d="M140.97,-250.71C140.97,-250.71 127.77,-223.79 120.55,-209.06"/>
<polygon fill="black" stroke="black" points="123.51,-207.15 115.97,-199.71 117.22,-210.23 123.51,-207.15"/>
<text text-anchor="middle" x="149.47" y="-221.51" font-family="Helvetica,sans-Serif" font-size="14.00">&gt; 14</text>
</g>
<!-- 11 -->
<g id="node15" class="node">
<title>11</title>
<ellipse fill="#44cde5" stroke="black" cx="385.97" cy="-160.71" rx="115.93" ry="35.21"/>
<text text-anchor="start" x="338.47" y="-171.51" font-family="Helvetica,sans-Serif" font-weight="bold" font-size="14.00"> Class=yes </text>
<text text-anchor="start" x="428.47" y="-171.51" font-family="Helvetica,sans-Serif" font-size="14.00"> </text>
<text text-anchor="start" x="311.97" y="-157.51" font-family="Helvetica,sans-Serif" font-size="14.00"> error: 0.999, n=522 </text>
<text text-anchor="start" x="330.97" y="-143.51" font-family="Helvetica,sans-Serif" font-size="14.00"> p: (0.48, 0.52) </text>
</g>
<!-- 10&#45;&gt;11 -->
<g id="edge14" class="edge">
<title>10:s&#45;&gt;11:n</title>
<path fill="none" stroke="black" d="M382.97,-250.71C382.97,-250.71 384.52,-223.33 385.39,-207.93"/>
<polygon fill="black" stroke="black" points="388.89,-207.89 385.97,-197.71 381.91,-207.5 388.89,-207.89"/>
<text text-anchor="middle" x="408.47" y="-221.51" font-family="Helvetica,sans-Serif" font-size="14.00">&lt;= 12</text>
</g>
<!-- 9 -->
<g id="node14" class="node">
<title>9</title>
<ellipse fill="#3d76cc" stroke="black" cx="115.97" cy="-35.36" rx="115.93" ry="35.21"/>
<text text-anchor="start" x="72.47" y="-46.16" font-family="Helvetica,sans-Serif" font-weight="bold" font-size="14.00"> Class=no </text>
<text text-anchor="start" x="154.47" y="-46.16" font-family="Helvetica,sans-Serif" font-size="14.00"> </text>
<text text-anchor="start" x="41.97" y="-32.16" font-family="Helvetica,sans-Serif" font-size="14.00"> error: 0.797, n=522 </text>
<text text-anchor="start" x="60.97" y="-18.16" font-family="Helvetica,sans-Serif" font-size="14.00"> p: (0.76, 0.24) </text>
</g>
<!-- 8&#45;&gt;9 -->
<g id="edge13" class="edge">
<title>8:s&#45;&gt;9:n</title>
<path fill="none" stroke="black" d="M115.97,-121.71C115.97,-121.71 115.97,-95.93 115.97,-81.03"/>
<polygon fill="black" stroke="black" points="119.47,-80.71 115.97,-70.71 112.47,-80.71 119.47,-80.71"/>
<text text-anchor="middle" x="133.47" y="-92.51" font-family="Helvetica,sans-Serif" font-size="14.00">&gt; 33</text>
</g>
<!-- 14 -->
<g id="node18" class="node">
<title>14</title>
<ellipse fill="#44e56d" stroke="black" cx="422.97" cy="-418.71" rx="115.93" ry="35.21"/>
<text text-anchor="start" x="375.47" y="-429.51" font-family="Helvetica,sans-Serif" font-weight="bold" font-size="14.00"> Class=yes </text>
<text text-anchor="start" x="465.47" y="-429.51" font-family="Helvetica,sans-Serif" font-size="14.00"> </text>
<text text-anchor="start" x="348.97" y="-415.51" font-family="Helvetica,sans-Serif" font-size="14.00"> error: 0.918, n=522 </text>
<text text-anchor="start" x="367.97" y="-401.51" font-family="Helvetica,sans-Serif" font-size="14.00"> p: (0.33, 0.67) </text>
</g>
<!-- 13&#45;&gt;14 -->
<g id="edge17" class="edge">
<title>13:s&#45;&gt;14:n</title>
<path fill="none" stroke="black" d="M422.97,-508.71C422.97,-508.71 422.97,-481.33 422.97,-465.93"/>
<polygon fill="black" stroke="black" points="426.47,-465.71 422.97,-455.71 419.47,-465.71 426.47,-465.71"/>
<text text-anchor="middle" x="441.97" y="-479.51" font-family="Helvetica,sans-Serif" font-size="14.00">&lt;= 5</text>
</g>
<!-- 15 -->
<g id="node19" class="node">
<title>15</title>
<polygon fill="#44e56d" stroke="black" points="774.97,-457.71 610.97,-457.71 610.97,-379.71 774.97,-379.71 774.97,-457.71"/>
<text text-anchor="start" x="649.47" y="-443.51" font-family="Helvetica,sans-Serif" font-weight="bold" font-size="14.00"> Class=no </text>
<text text-anchor="start" x="731.47" y="-443.51" font-family="Helvetica,sans-Serif" font-size="14.00"> </text>
<text text-anchor="start" x="618.97" y="-429.51" font-family="Helvetica,sans-Serif" font-size="14.00"> error: 0.929, n=522 </text>
<text text-anchor="start" x="637.97" y="-415.51" font-family="Helvetica,sans-Serif" font-size="14.00"> p: (0.66, 0.34) </text>
<text text-anchor="start" x="668.97" y="-401.51" font-family="Helvetica,sans-Serif" font-size="14.00">&#45;&#45;&#45;&#45;&#45;&#45;&#45;&#45;&#45;</text>
<text text-anchor="start" x="651.97" y="-387.51" font-family="Helvetica,sans-Serif" font-weight="bold" font-size="14.00">uniq_Opnd</text>
</g>
<!-- 13&#45;&gt;15 -->
<g id="edge18" class="edge">
<title>13:s&#45;&gt;15:n</title>
<path fill="none" stroke="black" d="M422.97,-508.71C422.97,-508.71 634.32,-468.79 683.04,-459.59"/>
<polygon fill="black" stroke="black" points="683.79,-463.01 692.97,-457.71 682.49,-456.13 683.79,-463.01"/>
<text text-anchor="middle" x="603.97" y="-479.51" font-family="Helvetica,sans-Serif" font-size="14.00">&gt; 5</text>
</g>
<!-- 16 -->
<g id="node20" class="node">
<title>16</title>
<polygon fill="#3dcca1" stroke="black" points="774.97,-328.71 610.97,-328.71 610.97,-250.71 774.97,-250.71 774.97,-328.71"/>
<text text-anchor="start" x="649.47" y="-314.51" font-family="Helvetica,sans-Serif" font-weight="bold" font-size="14.00"> Class=no </text>
<text text-anchor="start" x="731.47" y="-314.51" font-family="Helvetica,sans-Serif" font-size="14.00"> </text>
<text text-anchor="start" x="618.97" y="-300.51" font-family="Helvetica,sans-Serif" font-size="14.00"> error: 0.988, n=522 </text>
<text text-anchor="start" x="637.97" y="-286.51" font-family="Helvetica,sans-Serif" font-size="14.00"> p: (0.57, 0.43) </text>
<text text-anchor="start" x="681.97" y="-272.51" font-family="Helvetica,sans-Serif" font-size="14.00">&#45;&#45;&#45;&#45;</text>
<text text-anchor="start" x="676.47" y="-258.51" font-family="Helvetica,sans-Serif" font-weight="bold" font-size="14.00">v(g)</text>
</g>
<!-- 15&#45;&gt;16 -->
<g id="edge19" class="edge">
<title>15:s&#45;&gt;16:n</title>
<path fill="none" stroke="black" d="M692.97,-379.71C692.97,-379.71 692.97,-353.93 692.97,-339.03"/>
<polygon fill="black" stroke="black" points="696.47,-338.71 692.97,-328.71 689.47,-338.71 696.47,-338.71"/>
<text text-anchor="middle" x="710.47" y="-350.51" font-family="Helvetica,sans-Serif" font-size="14.00">&gt; 23</text>
</g>
<!-- 17 -->
<g id="node21" class="node">
<title>17</title>
<ellipse fill="#44cde5" stroke="black" cx="692.97" cy="-160.71" rx="115.93" ry="35.21"/>
<text text-anchor="start" x="649.47" y="-171.51" font-family="Helvetica,sans-Serif" font-weight="bold" font-size="14.00"> Class=no </text>
<text text-anchor="start" x="731.47" y="-171.51" font-family="Helvetica,sans-Serif" font-size="14.00"> </text>
<text text-anchor="start" x="618.97" y="-157.51" font-family="Helvetica,sans-Serif" font-size="14.00"> error: 0.998, n=522 </text>
<text text-anchor="start" x="637.97" y="-143.51" font-family="Helvetica,sans-Serif" font-size="14.00"> p: (0.52, 0.48) </text>
</g>
<!-- 16&#45;&gt;17 -->
<g id="edge20" class="edge">
<title>16:s&#45;&gt;17:n</title>
<path fill="none" stroke="black" d="M692.97,-250.71C692.97,-250.71 692.97,-223.33 692.97,-207.93"/>
<polygon fill="black" stroke="black" points="696.47,-207.71 692.97,-197.71 689.47,-207.71 696.47,-207.71"/>
<text text-anchor="middle" x="705.97" y="-221.51" font-family="Helvetica,sans-Serif" font-size="14.00">&gt; 6</text>
</g>
</g>
</svg>
