<?xml version="1.0" encoding="UTF-8" standalone="no"?>
<!DOCTYPE svg PUBLIC "-//W3C//DTD SVG 1.1//EN"
 "http://www.w3.org/Graphics/SVG/1.1/DTD/svg11.dtd">
<!-- Generated by graphviz version 2.43.0 (0)
 -->
<!-- Title: Tree Pages: 1 -->
<svg width="1023pt" height="1212pt"
 viewBox="0.00 0.00 1022.93 1211.71" xmlns="http://www.w3.org/2000/svg" xmlns:xlink="http://www.w3.org/1999/xlink">
<g id="graph0" class="graph" transform="scale(1 1) rotate(0) translate(18 1193.71)">
<title>Tree</title>
<polygon fill="white" stroke="transparent" points="-18,18 -18,-1193.71 1004.93,-1193.71 1004.93,18 -18,18"/>
<!-- 0 -->
<g id="node1" class="node">
<title>0</title>
<polygon fill="white" stroke="transparent" points="762.97,-1175.71 708.97,-1175.71 708.97,-1139.71 762.97,-1139.71 762.97,-1175.71"/>
<text text-anchor="middle" x="735.97" y="-1154.01" font-family="Helvetica,sans-Serif" font-size="14.00">0</text>
</g>
<!-- 1 -->
<g id="node2" class="node">
<title>1</title>
<polygon fill="#cc3d3d" stroke="black" points="817.97,-1102.71 653.97,-1102.71 653.97,-1024.71 817.97,-1024.71 817.97,-1102.71"/>
<text text-anchor="start" x="692.47" y="-1088.51" font-family="Helvetica,sans-Serif" font-weight="bold" font-size="14.00"> Class=no </text>
<text text-anchor="start" x="774.47" y="-1088.51" font-family="Helvetica,sans-Serif" font-size="14.00"> </text>
<text text-anchor="start" x="661.97" y="-1074.51" font-family="Helvetica,sans-Serif" font-size="14.00"> error: 0.732, n=522 </text>
<text text-anchor="start" x="680.97" y="-1060.51" font-family="Helvetica,sans-Serif" font-size="14.00"> p: (0.80, 0.20) </text>
<text text-anchor="start" x="711.97" y="-1046.51" font-family="Helvetica,sans-Serif" font-size="14.00">&#45;&#45;&#45;&#45;&#45;&#45;&#45;&#45;&#45;</text>
<text text-anchor="start" x="694.97" y="-1032.51" font-family="Helvetica,sans-Serif" font-weight="bold" font-size="14.00">uniq_Opnd</text>
</g>
<!-- 0&#45;&gt;1 -->
<!-- 2 -->
<g id="node3" class="node">
<title>2</title>
<polygon fill="#e58d44" stroke="black" points="682.97,-973.71 518.97,-973.71 518.97,-895.71 682.97,-895.71 682.97,-973.71"/>
<text text-anchor="start" x="557.47" y="-959.51" font-family="Helvetica,sans-Serif" font-weight="bold" font-size="14.00"> Class=no </text>
<text text-anchor="start" x="639.47" y="-959.51" font-family="Helvetica,sans-Serif" font-size="14.00"> </text>
<text text-anchor="start" x="526.97" y="-945.51" font-family="Helvetica,sans-Serif" font-size="14.00"> error: 1.000, n=522 </text>
<text text-anchor="start" x="545.97" y="-931.51" font-family="Helvetica,sans-Serif" font-size="14.00"> p: (0.50, 0.50) </text>
<text text-anchor="start" x="587.47" y="-917.51" font-family="Helvetica,sans-Serif" font-size="14.00">&#45;&#45;&#45;&#45;&#45;</text>
<text text-anchor="start" x="579.47" y="-903.51" font-family="Helvetica,sans-Serif" font-weight="bold" font-size="14.00">ev(g)</text>
</g>
<!-- 1&#45;&gt;2 -->
<g id="edge2" class="edge">
<title>1:s&#45;&gt;2:n</title>
<path fill="none" stroke="black" d="M735.97,-1024.71C735.97,-1024.71 641.63,-989.07 610.67,-977.38"/>
<polygon fill="black" stroke="black" points="611.56,-973.97 600.97,-973.71 609.08,-980.52 611.56,-973.97"/>
<text text-anchor="middle" x="702.47" y="-995.51" font-family="Helvetica,sans-Serif" font-size="14.00">&gt; 15</text>
</g>
<!-- 23 -->
<g id="node4" class="node">
<title>23</title>
<ellipse fill="#e58d44" stroke="black" cx="870.97" cy="-934.71" rx="115.93" ry="35.21"/>
<text text-anchor="start" x="827.47" y="-945.51" font-family="Helvetica,sans-Serif" font-weight="bold" font-size="14.00"> Class=no </text>
<text text-anchor="start" x="909.47" y="-945.51" font-family="Helvetica,sans-Serif" font-size="14.00"> </text>
<text text-anchor="start" x="796.97" y="-931.51" font-family="Helvetica,sans-Serif" font-size="14.00"> error: 0.328, n=522 </text>
<text text-anchor="start" x="815.97" y="-917.51" font-family="Helvetica,sans-Serif" font-size="14.00"> p: (0.94, 0.06) </text>
</g>
<!-- 1&#45;&gt;23 -->
<g id="edge3" class="edge">
<title>1:s&#45;&gt;23:n</title>
<path fill="none" stroke="black" d="M735.97,-1024.71C735.97,-1024.71 830.3,-987.67 861.26,-975.52"/>
<polygon fill="black" stroke="black" points="862.94,-978.62 870.97,-971.71 860.38,-972.11 862.94,-978.62"/>
<text text-anchor="middle" x="843.47" y="-995.51" font-family="Helvetica,sans-Serif" font-size="14.00">&lt;= 15</text>
</g>
<!-- 3 -->
<g id="node5" class="node">
<title>3</title>
<polygon fill="#ccbd3d" stroke="black" points="548.97,-844.71 384.97,-844.71 384.97,-766.71 548.97,-766.71 548.97,-844.71"/>
<text text-anchor="start" x="423.47" y="-830.51" font-family="Helvetica,sans-Serif" font-weight="bold" font-size="14.00"> Class=no </text>
<text text-anchor="start" x="505.47" y="-830.51" font-family="Helvetica,sans-Serif" font-size="14.00"> </text>
<text text-anchor="start" x="392.97" y="-816.51" font-family="Helvetica,sans-Serif" font-size="14.00"> error: 0.982, n=522 </text>
<text text-anchor="start" x="411.97" y="-802.51" font-family="Helvetica,sans-Serif" font-size="14.00"> p: (0.58, 0.42) </text>
<text text-anchor="start" x="448.47" y="-788.51" font-family="Helvetica,sans-Serif" font-size="14.00">&#45;&#45;&#45;&#45;&#45;&#45;&#45;</text>
<text text-anchor="start" x="436.47" y="-774.51" font-family="Helvetica,sans-Serif" font-weight="bold" font-size="14.00">lOBlank</text>
</g>
<!-- 2&#45;&gt;3 -->
<g id="edge4" class="edge">
<title>2:s&#45;&gt;3:n</title>
<path fill="none" stroke="black" d="M600.97,-895.71C600.97,-895.71 507.33,-860.07 476.6,-848.38"/>
<polygon fill="black" stroke="black" points="477.56,-845 466.97,-844.71 475.07,-851.54 477.56,-845"/>
<text text-anchor="middle" x="568.97" y="-866.51" font-family="Helvetica,sans-Serif" font-size="14.00">&lt;= 7</text>
</g>
<!-- 21 -->
<g id="node6" class="node">
<title>21</title>
<polygon fill="#ccbd3d" stroke="black" points="801.97,-844.71 637.97,-844.71 637.97,-766.71 801.97,-766.71 801.97,-844.71"/>
<text text-anchor="start" x="672.47" y="-830.51" font-family="Helvetica,sans-Serif" font-weight="bold" font-size="14.00"> Class=yes </text>
<text text-anchor="start" x="762.47" y="-830.51" font-family="Helvetica,sans-Serif" font-size="14.00"> </text>
<text text-anchor="start" x="645.97" y="-816.51" font-family="Helvetica,sans-Serif" font-size="14.00"> error: 0.491, n=522 </text>
<text text-anchor="start" x="664.97" y="-802.51" font-family="Helvetica,sans-Serif" font-size="14.00"> p: (0.11, 0.89) </text>
<text text-anchor="start" x="701.47" y="-788.51" font-family="Helvetica,sans-Serif" font-size="14.00">&#45;&#45;&#45;&#45;&#45;&#45;&#45;</text>
<text text-anchor="start" x="689.47" y="-774.51" font-family="Helvetica,sans-Serif" font-weight="bold" font-size="14.00">lOBlank</text>
</g>
<!-- 2&#45;&gt;21 -->
<g id="edge5" class="edge">
<title>2:s&#45;&gt;21:n</title>
<path fill="none" stroke="black" d="M600.97,-895.71C600.97,-895.71 682.57,-860.74 710.63,-848.71"/>
<polygon fill="black" stroke="black" points="712.15,-851.87 719.97,-844.71 709.4,-845.43 712.15,-851.87"/>
<text text-anchor="middle" x="687.97" y="-866.51" font-family="Helvetica,sans-Serif" font-size="14.00">&gt; 7</text>
</g>
<!-- 4 -->
<g id="node7" class="node">
<title>4</title>
<polygon fill="#ade544" stroke="black" points="310.97,-715.71 146.97,-715.71 146.97,-637.71 310.97,-637.71 310.97,-715.71"/>
<text text-anchor="start" x="185.47" y="-701.51" font-family="Helvetica,sans-Serif" font-weight="bold" font-size="14.00"> Class=no </text>
<text text-anchor="start" x="267.47" y="-701.51" font-family="Helvetica,sans-Serif" font-size="14.00"> </text>
<text text-anchor="start" x="154.97" y="-687.51" font-family="Helvetica,sans-Serif" font-size="14.00"> error: 0.880, n=522 </text>
<text text-anchor="start" x="173.97" y="-673.51" font-family="Helvetica,sans-Serif" font-size="14.00"> p: (0.70, 0.30) </text>
<text text-anchor="start" x="204.97" y="-659.51" font-family="Helvetica,sans-Serif" font-size="14.00">&#45;&#45;&#45;&#45;&#45;&#45;&#45;&#45;&#45;</text>
<text text-anchor="start" x="187.97" y="-645.51" font-family="Helvetica,sans-Serif" font-weight="bold" font-size="14.00">uniq_Opnd</text>
</g>
<!-- 3&#45;&gt;4 -->
<g id="edge6" class="edge">
<title>3:s&#45;&gt;4:n</title>
<path fill="none" stroke="black" d="M466.97,-766.71C466.97,-766.71 283.93,-727.49 238.89,-717.84"/>
<polygon fill="black" stroke="black" points="239.48,-714.38 228.97,-715.71 238.01,-721.23 239.48,-714.38"/>
<text text-anchor="middle" x="395.97" y="-737.51" font-family="Helvetica,sans-Serif" font-size="14.00">&lt;= 7</text>
</g>
<!-- 13 -->
<g id="node8" class="node">
<title>13</title>
<polygon fill="#ade544" stroke="black" points="548.97,-715.71 384.97,-715.71 384.97,-637.71 548.97,-637.71 548.97,-715.71"/>
<text text-anchor="start" x="419.47" y="-701.51" font-family="Helvetica,sans-Serif" font-weight="bold" font-size="14.00"> Class=yes </text>
<text text-anchor="start" x="509.47" y="-701.51" font-family="Helvetica,sans-Serif" font-size="14.00"> </text>
<text text-anchor="start" x="392.97" y="-687.51" font-family="Helvetica,sans-Serif" font-size="14.00"> error: 0.990, n=522 </text>
<text text-anchor="start" x="411.97" y="-673.51" font-family="Helvetica,sans-Serif" font-size="14.00"> p: (0.44, 0.56) </text>
<text text-anchor="start" x="453.47" y="-659.51" font-family="Helvetica,sans-Serif" font-size="14.00">&#45;&#45;&#45;&#45;&#45;</text>
<text text-anchor="start" x="445.47" y="-645.51" font-family="Helvetica,sans-Serif" font-weight="bold" font-size="14.00">ev(g)</text>
</g>
<!-- 3&#45;&gt;13 -->
<g id="edge7" class="edge">
<title>3:s&#45;&gt;13:n</title>
<path fill="none" stroke="black" d="M466.97,-766.71C466.97,-766.71 466.97,-740.93 466.97,-726.03"/>
<polygon fill="black" stroke="black" points="470.47,-725.71 466.97,-715.71 463.47,-725.71 470.47,-725.71"/>
<text text-anchor="middle" x="479.97" y="-737.51" font-family="Helvetica,sans-Serif" font-size="14.00">&gt; 7</text>
</g>
<!-- 22 -->
<g id="node24" class="node">
<title>22</title>
<ellipse fill="#ade544" stroke="black" cx="736.97" cy="-676.71" rx="115.93" ry="35.21"/>
<text text-anchor="start" x="689.47" y="-687.51" font-family="Helvetica,sans-Serif" font-weight="bold" font-size="14.00"> Class=yes </text>
<text text-anchor="start" x="779.47" y="-687.51" font-family="Helvetica,sans-Serif" font-size="14.00"> </text>
<text text-anchor="start" x="662.97" y="-673.51" font-family="Helvetica,sans-Serif" font-size="14.00"> error: 0.000, n=522 </text>
<text text-anchor="start" x="681.97" y="-659.51" font-family="Helvetica,sans-Serif" font-size="14.00"> p: (0.00, 1.00) </text>
</g>
<!-- 21&#45;&gt;22 -->
<g id="edge23" class="edge">
<title>21:s&#45;&gt;22:n</title>
<path fill="none" stroke="black" d="M719.97,-766.71C719.97,-766.71 728.94,-738.73 733.85,-723.43"/>
<polygon fill="black" stroke="black" points="737.24,-724.3 736.97,-713.71 730.58,-722.16 737.24,-724.3"/>
<text text-anchor="middle" x="743.97" y="-737.51" font-family="Helvetica,sans-Serif" font-size="14.00">&gt; 9</text>
</g>
<!-- 5 -->
<g id="node9" class="node">
<title>5</title>
<polygon fill="#59cc3d" stroke="black" points="298.97,-586.71 134.97,-586.71 134.97,-508.71 298.97,-508.71 298.97,-586.71"/>
<text text-anchor="start" x="173.47" y="-572.51" font-family="Helvetica,sans-Serif" font-weight="bold" font-size="14.00"> Class=no </text>
<text text-anchor="start" x="255.47" y="-572.51" font-family="Helvetica,sans-Serif" font-size="14.00"> </text>
<text text-anchor="start" x="142.97" y="-558.51" font-family="Helvetica,sans-Serif" font-size="14.00"> error: 0.913, n=522 </text>
<text text-anchor="start" x="161.97" y="-544.51" font-family="Helvetica,sans-Serif" font-size="14.00"> p: (0.67, 0.33) </text>
<text text-anchor="start" x="203.47" y="-530.51" font-family="Helvetica,sans-Serif" font-size="14.00">&#45;&#45;&#45;&#45;&#45;</text>
<text text-anchor="start" x="198.47" y="-516.51" font-family="Helvetica,sans-Serif" font-weight="bold" font-size="14.00">iv(g)</text>
</g>
<!-- 4&#45;&gt;5 -->
<g id="edge8" class="edge">
<title>4:s&#45;&gt;5:n</title>
<path fill="none" stroke="black" d="M228.97,-637.71C228.97,-637.71 222.77,-611.36 219.28,-596.54"/>
<polygon fill="black" stroke="black" points="222.66,-595.64 216.97,-586.71 215.85,-597.25 222.66,-595.64"/>
<text text-anchor="middle" x="242.47" y="-608.51" font-family="Helvetica,sans-Serif" font-size="14.00">&gt; 16</text>
</g>
<!-- 14 -->
<g id="node17" class="node">
<title>14</title>
<polygon fill="#59cc3d" stroke="black" points="548.97,-586.71 384.97,-586.71 384.97,-508.71 548.97,-508.71 548.97,-586.71"/>
<text text-anchor="start" x="423.47" y="-572.51" font-family="Helvetica,sans-Serif" font-weight="bold" font-size="14.00"> Class=no </text>
<text text-anchor="start" x="505.47" y="-572.51" font-family="Helvetica,sans-Serif" font-size="14.00"> </text>
<text text-anchor="start" x="392.97" y="-558.51" font-family="Helvetica,sans-Serif" font-size="14.00"> error: 0.997, n=522 </text>
<text text-anchor="start" x="411.97" y="-544.51" font-family="Helvetica,sans-Serif" font-size="14.00"> p: (0.53, 0.47) </text>
<text text-anchor="start" x="455.97" y="-530.51" font-family="Helvetica,sans-Serif" font-size="14.00">&#45;&#45;&#45;&#45;</text>
<text text-anchor="start" x="450.47" y="-516.51" font-family="Helvetica,sans-Serif" font-weight="bold" font-size="14.00">v(g)</text>
</g>
<!-- 13&#45;&gt;14 -->
<g id="edge16" class="edge">
<title>13:s&#45;&gt;14:n</title>
<path fill="none" stroke="black" d="M466.97,-637.71C466.97,-637.71 466.97,-611.93 466.97,-597.03"/>
<polygon fill="black" stroke="black" points="470.47,-596.71 466.97,-586.71 463.47,-596.71 470.47,-596.71"/>
<text text-anchor="middle" x="485.97" y="-608.51" font-family="Helvetica,sans-Serif" font-size="14.00">&lt;= 4</text>
</g>
<!-- 20 -->
<g id="node18" class="node">
<title>20</title>
<ellipse fill="#59cc3d" stroke="black" cx="736.97" cy="-547.71" rx="115.93" ry="35.21"/>
<text text-anchor="start" x="689.47" y="-558.51" font-family="Helvetica,sans-Serif" font-weight="bold" font-size="14.00"> Class=yes </text>
<text text-anchor="start" x="779.47" y="-558.51" font-family="Helvetica,sans-Serif" font-size="14.00"> </text>
<text text-anchor="start" x="662.97" y="-544.51" font-family="Helvetica,sans-Serif" font-size="14.00"> error: 0.792, n=522 </text>
<text text-anchor="start" x="681.97" y="-530.51" font-family="Helvetica,sans-Serif" font-size="14.00"> p: (0.24, 0.76) </text>
</g>
<!-- 13&#45;&gt;20 -->
<g id="edge17" class="edge">
<title>13:s&#45;&gt;20:n</title>
<path fill="none" stroke="black" d="M466.97,-637.71C466.97,-637.71 678.32,-596.22 727.04,-586.66"/>
<polygon fill="black" stroke="black" points="727.83,-590.07 736.97,-584.71 726.48,-583.2 727.83,-590.07"/>
<text text-anchor="middle" x="647.97" y="-608.51" font-family="Helvetica,sans-Serif" font-size="14.00">&gt; 4</text>
</g>
<!-- 6 -->
<g id="node10" class="node">
<title>6</title>
<polygon fill="#44e56d" stroke="black" points="278.97,-457.71 114.97,-457.71 114.97,-379.71 278.97,-379.71 278.97,-457.71"/>
<text text-anchor="start" x="153.47" y="-443.51" font-family="Helvetica,sans-Serif" font-weight="bold" font-size="14.00"> Class=no </text>
<text text-anchor="start" x="235.47" y="-443.51" font-family="Helvetica,sans-Serif" font-size="14.00"> </text>
<text text-anchor="start" x="122.97" y="-429.51" font-family="Helvetica,sans-Serif" font-size="14.00"> error: 0.892, n=522 </text>
<text text-anchor="start" x="141.97" y="-415.51" font-family="Helvetica,sans-Serif" font-size="14.00"> p: (0.69, 0.31) </text>
<text text-anchor="start" x="185.97" y="-401.51" font-family="Helvetica,sans-Serif" font-size="14.00">&#45;&#45;&#45;&#45;</text>
<text text-anchor="start" x="180.47" y="-387.51" font-family="Helvetica,sans-Serif" font-weight="bold" font-size="14.00">v(g)</text>
</g>
<!-- 5&#45;&gt;6 -->
<g id="edge9" class="edge">
<title>5:s&#45;&gt;6:n</title>
<path fill="none" stroke="black" d="M216.97,-508.71C216.97,-508.71 206.41,-481.79 200.63,-467.06"/>
<polygon fill="black" stroke="black" points="203.87,-465.74 196.97,-457.71 197.36,-468.3 203.87,-465.74"/>
<text text-anchor="middle" x="222.97" y="-479.51" font-family="Helvetica,sans-Serif" font-size="14.00">&gt; 1</text>
</g>
<!-- 7 -->
<g id="node11" class="node">
<title>7</title>
<polygon fill="#3dcca1" stroke="black" points="227.97,-328.71 63.97,-328.71 63.97,-250.71 227.97,-250.71 227.97,-328.71"/>
<text text-anchor="start" x="102.47" y="-314.51" font-family="Helvetica,sans-Serif" font-weight="bold" font-size="14.00"> Class=no </text>
<text text-anchor="start" x="184.47" y="-314.51" font-family="Helvetica,sans-Serif" font-size="14.00"> </text>
<text text-anchor="start" x="71.97" y="-300.51" font-family="Helvetica,sans-Serif" font-size="14.00"> error: 0.732, n=522 </text>
<text text-anchor="start" x="90.97" y="-286.51" font-family="Helvetica,sans-Serif" font-size="14.00"> p: (0.79, 0.21) </text>
<text text-anchor="start" x="137.97" y="-272.51" font-family="Helvetica,sans-Serif" font-size="14.00">&#45;&#45;&#45;</text>
<text text-anchor="start" x="134.47" y="-258.51" font-family="Helvetica,sans-Serif" font-weight="bold" font-size="14.00">loc</text>
</g>
<!-- 6&#45;&gt;7 -->
<g id="edge10" class="edge">
<title>6:s&#45;&gt;7:n</title>
<path fill="none" stroke="black" d="M196.97,-379.71C196.97,-379.71 167.07,-349.82 153.06,-335.8"/>
<polygon fill="black" stroke="black" points="155.51,-333.31 145.97,-328.71 150.56,-338.26 155.51,-333.31"/>
<text text-anchor="middle" x="196.97" y="-350.51" font-family="Helvetica,sans-Serif" font-size="14.00">&lt;= 5</text>
</g>
<!-- 10 -->
<g id="node12" class="node">
<title>10</title>
<polygon fill="#3dcca1" stroke="black" points="476.97,-328.71 312.97,-328.71 312.97,-250.71 476.97,-250.71 476.97,-328.71"/>
<text text-anchor="start" x="351.47" y="-314.51" font-family="Helvetica,sans-Serif" font-weight="bold" font-size="14.00"> Class=no </text>
<text text-anchor="start" x="433.47" y="-314.51" font-family="Helvetica,sans-Serif" font-size="14.00"> </text>
<text text-anchor="start" x="320.97" y="-300.51" font-family="Helvetica,sans-Serif" font-size="14.00"> error: 0.992, n=522 </text>
<text text-anchor="start" x="339.97" y="-286.51" font-family="Helvetica,sans-Serif" font-size="14.00"> p: (0.55, 0.45) </text>
<text text-anchor="start" x="383.97" y="-272.51" font-family="Helvetica,sans-Serif" font-size="14.00">&#45;&#45;&#45;&#45;</text>
<text text-anchor="start" x="378.47" y="-258.51" font-family="Helvetica,sans-Serif" font-weight="bold" font-size="14.00">v(g)</text>
</g>
<!-- 6&#45;&gt;10 -->
<g id="edge11" class="edge">
<title>6:s&#45;&gt;10:n</title>
<path fill="none" stroke="black" d="M196.97,-379.71C196.97,-379.71 345.19,-341.53 385.15,-331.24"/>
<polygon fill="black" stroke="black" points="386.15,-334.59 394.97,-328.71 384.41,-327.82 386.15,-334.59"/>
<text text-anchor="middle" x="332.97" y="-350.51" font-family="Helvetica,sans-Serif" font-size="14.00">&gt; 5</text>
</g>
<!-- 8 -->
<g id="node13" class="node">
<title>8</title>
<polygon fill="#44cde5" stroke="black" points="227.97,-199.71 63.97,-199.71 63.97,-121.71 227.97,-121.71 227.97,-199.71"/>
<text text-anchor="start" x="102.47" y="-185.51" font-family="Helvetica,sans-Serif" font-weight="bold" font-size="14.00"> Class=no </text>
<text text-anchor="start" x="184.47" y="-185.51" font-family="Helvetica,sans-Serif" font-size="14.00"> </text>
<text text-anchor="start" x="71.97" y="-171.51" font-family="Helvetica,sans-Serif" font-size="14.00"> error: 0.689, n=522 </text>
<text text-anchor="start" x="90.97" y="-157.51" font-family="Helvetica,sans-Serif" font-size="14.00"> p: (0.82, 0.18) </text>
<text text-anchor="start" x="137.97" y="-143.51" font-family="Helvetica,sans-Serif" font-size="14.00">&#45;&#45;&#45;</text>
<text text-anchor="start" x="134.47" y="-129.51" font-family="Helvetica,sans-Serif" font-weight="bold" font-size="14.00">loc</text>
</g>
<!-- 7&#45;&gt;8 -->
<g id="edge12" class="edge">
<title>7:s&#45;&gt;8:n</title>
<path fill="none" stroke="black" d="M145.97,-250.71C145.97,-250.71 145.97,-224.93 145.97,-210.03"/>
<polygon fill="black" stroke="black" points="149.47,-209.71 145.97,-199.71 142.47,-209.71 149.47,-209.71"/>
<text text-anchor="middle" x="163.47" y="-221.51" font-family="Helvetica,sans-Serif" font-size="14.00">&gt; 14</text>
</g>
<!-- 11 -->
<g id="node15" class="node">
<title>11</title>
<polygon fill="#44cde5" stroke="black" points="488.97,-199.71 324.97,-199.71 324.97,-121.71 488.97,-121.71 488.97,-199.71"/>
<text text-anchor="start" x="359.47" y="-185.51" font-family="Helvetica,sans-Serif" font-weight="bold" font-size="14.00"> Class=yes </text>
<text text-anchor="start" x="449.47" y="-185.51" font-family="Helvetica,sans-Serif" font-size="14.00"> </text>
<text text-anchor="start" x="332.97" y="-171.51" font-family="Helvetica,sans-Serif" font-size="14.00"> error: 0.999, n=522 </text>
<text text-anchor="start" x="351.97" y="-157.51" font-family="Helvetica,sans-Serif" font-size="14.00"> p: (0.48, 0.52) </text>
<text text-anchor="start" x="403.97" y="-143.51" font-family="Helvetica,sans-Serif" font-size="14.00">&#45;</text>
<text text-anchor="start" x="401.97" y="-129.51" font-family="Helvetica,sans-Serif" font-weight="bold" font-size="14.00">b</text>
</g>
<!-- 10&#45;&gt;11 -->
<g id="edge14" class="edge">
<title>10:s&#45;&gt;11:n</title>
<path fill="none" stroke="black" d="M394.97,-250.71C394.97,-250.71 401.16,-224.36 404.65,-209.54"/>
<polygon fill="black" stroke="black" points="408.08,-210.25 406.97,-199.71 401.27,-208.64 408.08,-210.25"/>
<text text-anchor="middle" x="426.47" y="-221.51" font-family="Helvetica,sans-Serif" font-size="14.00">&lt;= 12</text>
</g>
<!-- 9 -->
<g id="node14" class="node">
<title>9</title>
<ellipse fill="#3d76cc" stroke="black" cx="115.97" cy="-35.36" rx="115.93" ry="35.21"/>
<text text-anchor="start" x="72.47" y="-46.16" font-family="Helvetica,sans-Serif" font-weight="bold" font-size="14.00"> Class=no </text>
<text text-anchor="start" x="154.47" y="-46.16" font-family="Helvetica,sans-Serif" font-size="14.00"> </text>
<text text-anchor="start" x="41.97" y="-32.16" font-family="Helvetica,sans-Serif" font-size="14.00"> error: 0.797, n=522 </text>
<text text-anchor="start" x="60.97" y="-18.16" font-family="Helvetica,sans-Serif" font-size="14.00"> p: (0.76, 0.24) </text>
</g>
<!-- 8&#45;&gt;9 -->
<g id="edge13" class="edge">
<title>8:s&#45;&gt;9:n</title>
<path fill="none" stroke="black" d="M145.97,-121.71C145.97,-121.71 129.79,-94.21 121.19,-79.59"/>
<polygon fill="black" stroke="black" points="124.05,-77.56 115.97,-70.71 118.02,-81.1 124.05,-77.56"/>
<text text-anchor="middle" x="152.47" y="-92.51" font-family="Helvetica,sans-Serif" font-size="14.00">&gt; 33</text>
</g>
<!-- 12 -->
<g id="node16" class="node">
<title>12</title>
<ellipse fill="#3d76cc" stroke="black" cx="419.97" cy="-35.36" rx="115.93" ry="35.21"/>
<text text-anchor="start" x="372.47" y="-46.16" font-family="Helvetica,sans-Serif" font-weight="bold" font-size="14.00"> Class=yes </text>
<text text-anchor="start" x="462.47" y="-46.16" font-family="Helvetica,sans-Serif" font-size="14.00"> </text>
<text text-anchor="start" x="345.97" y="-32.16" font-family="Helvetica,sans-Serif" font-size="14.00"> error: 0.890, n=522 </text>
<text text-anchor="start" x="364.97" y="-18.16" font-family="Helvetica,sans-Serif" font-size="14.00"> p: (0.31, 0.69) </text>
</g>
<!-- 11&#45;&gt;12 -->
<g id="edge15" class="edge">
<title>11:s&#45;&gt;12:n</title>
<path fill="none" stroke="black" d="M406.97,-121.71C406.97,-121.71 413.68,-95.36 417.46,-80.54"/>
<polygon fill="black" stroke="black" points="420.89,-81.27 419.97,-70.71 414.1,-79.54 420.89,-81.27"/>
<text text-anchor="middle" x="446.47" y="-92.51" font-family="Helvetica,sans-Serif" font-size="14.00">&lt;= 0.24</text>
</g>
<!-- 15 -->
<g id="node19" class="node">
<title>15</title>
<ellipse fill="#44e56d" stroke="black" cx="466.97" cy="-418.71" rx="115.93" ry="35.21"/>
<text text-anchor="start" x="419.47" y="-429.51" font-family="Helvetica,sans-Serif" font-weight="bold" font-size="14.00"> Class=yes </text>
<text text-anchor="start" x="509.47" y="-429.51" font-family="Helvetica,sans-Serif" font-size="14.00"> </text>
<text text-anchor="start" x="392.97" y="-415.51" font-family="Helvetica,sans-Serif" font-size="14.00"> error: 0.918, n=522 </text>
<text text-anchor="start" x="411.97" y="-401.51" font-family="Helvetica,sans-Serif" font-size="14.00"> p: (0.33, 0.67) </text>
</g>
<!-- 14&#45;&gt;15 -->
<g id="edge18" class="edge">
<title>14:s&#45;&gt;15:n</title>
<path fill="none" stroke="black" d="M466.97,-508.71C466.97,-508.71 466.97,-481.33 466.97,-465.93"/>
<polygon fill="black" stroke="black" points="470.47,-465.71 466.97,-455.71 463.47,-465.71 470.47,-465.71"/>
<text text-anchor="middle" x="485.97" y="-479.51" font-family="Helvetica,sans-Serif" font-size="14.00">&lt;= 5</text>
</g>
<!-- 16 -->
<g id="node20" class="node">
<title>16</title>
<polygon fill="#44e56d" stroke="black" points="818.97,-457.71 654.97,-457.71 654.97,-379.71 818.97,-379.71 818.97,-457.71"/>
<text text-anchor="start" x="693.47" y="-443.51" font-family="Helvetica,sans-Serif" font-weight="bold" font-size="14.00"> Class=no </text>
<text text-anchor="start" x="775.47" y="-443.51" font-family="Helvetica,sans-Serif" font-size="14.00"> </text>
<text text-anchor="start" x="662.97" y="-429.51" font-family="Helvetica,sans-Serif" font-size="14.00"> error: 0.929, n=522 </text>
<text text-anchor="start" x="681.97" y="-415.51" font-family="Helvetica,sans-Serif" font-size="14.00"> p: (0.66, 0.34) </text>
<text text-anchor="start" x="712.97" y="-401.51" font-family="Helvetica,sans-Serif" font-size="14.00">&#45;&#45;&#45;&#45;&#45;&#45;&#45;&#45;&#45;</text>
<text text-anchor="start" x="695.97" y="-387.51" font-family="Helvetica,sans-Serif" font-weight="bold" font-size="14.00">uniq_Opnd</text>
</g>
<!-- 14&#45;&gt;16 -->
<g id="edge19" class="edge">
<title>14:s&#45;&gt;16:n</title>
<path fill="none" stroke="black" d="M466.97,-508.71C466.97,-508.71 678.32,-468.79 727.04,-459.59"/>
<polygon fill="black" stroke="black" points="727.79,-463.01 736.97,-457.71 726.49,-456.13 727.79,-463.01"/>
<text text-anchor="middle" x="647.97" y="-479.51" font-family="Helvetica,sans-Serif" font-size="14.00">&gt; 5</text>
</g>
<!-- 17 -->
<g id="node21" class="node">
<title>17</title>
<polygon fill="#3dcca1" stroke="black" points="818.97,-328.71 654.97,-328.71 654.97,-250.71 818.97,-250.71 818.97,-328.71"/>
<text text-anchor="start" x="693.47" y="-314.51" font-family="Helvetica,sans-Serif" font-weight="bold" font-size="14.00"> Class=no </text>
<text text-anchor="start" x="775.47" y="-314.51" font-family="Helvetica,sans-Serif" font-size="14.00"> </text>
<text text-anchor="start" x="662.97" y="-300.51" font-family="Helvetica,sans-Serif" font-size="14.00"> error: 0.988, n=522 </text>
<text text-anchor="start" x="681.97" y="-286.51" font-family="Helvetica,sans-Serif" font-size="14.00"> p: (0.57, 0.43) </text>
<text text-anchor="start" x="725.97" y="-272.51" font-family="Helvetica,sans-Serif" font-size="14.00">&#45;&#45;&#45;&#45;</text>
<text text-anchor="start" x="720.47" y="-258.51" font-family="Helvetica,sans-Serif" font-weight="bold" font-size="14.00">v(g)</text>
</g>
<!-- 16&#45;&gt;17 -->
<g id="edge20" class="edge">
<title>16:s&#45;&gt;17:n</title>
<path fill="none" stroke="black" d="M736.97,-379.71C736.97,-379.71 736.97,-353.93 736.97,-339.03"/>
<polygon fill="black" stroke="black" points="740.47,-338.71 736.97,-328.71 733.47,-338.71 740.47,-338.71"/>
<text text-anchor="middle" x="754.47" y="-350.51" font-family="Helvetica,sans-Serif" font-size="14.00">&gt; 23</text>
</g>
<!-- 18 -->
<g id="node22" class="node">
<title>18</title>
<polygon fill="#44cde5" stroke="black" points="818.97,-199.71 654.97,-199.71 654.97,-121.71 818.97,-121.71 818.97,-199.71"/>
<text text-anchor="start" x="693.47" y="-185.51" font-family="Helvetica,sans-Serif" font-weight="bold" font-size="14.00"> Class=no </text>
<text text-anchor="start" x="775.47" y="-185.51" font-family="Helvetica,sans-Serif" font-size="14.00"> </text>
<text text-anchor="start" x="662.97" y="-171.51" font-family="Helvetica,sans-Serif" font-size="14.00"> error: 0.998, n=522 </text>
<text text-anchor="start" x="681.97" y="-157.51" font-family="Helvetica,sans-Serif" font-size="14.00"> p: (0.52, 0.48) </text>
<text text-anchor="start" x="725.97" y="-143.51" font-family="Helvetica,sans-Serif" font-size="14.00">&#45;&#45;&#45;&#45;</text>
<text text-anchor="start" x="720.47" y="-129.51" font-family="Helvetica,sans-Serif" font-weight="bold" font-size="14.00">v(g)</text>
</g>
<!-- 17&#45;&gt;18 -->
<g id="edge21" class="edge">
<title>17:s&#45;&gt;18:n</title>
<path fill="none" stroke="black" d="M736.97,-250.71C736.97,-250.71 736.97,-224.93 736.97,-210.03"/>
<polygon fill="black" stroke="black" points="740.47,-209.71 736.97,-199.71 733.47,-209.71 740.47,-209.71"/>
<text text-anchor="middle" x="749.97" y="-221.51" font-family="Helvetica,sans-Serif" font-size="14.00">&gt; 6</text>
</g>
<!-- 19 -->
<g id="node23" class="node">
<title>19</title>
<ellipse fill="#3d76cc" stroke="black" cx="736.97" cy="-35.36" rx="115.93" ry="35.21"/>
<text text-anchor="start" x="693.47" y="-46.16" font-family="Helvetica,sans-Serif" font-weight="bold" font-size="14.00"> Class=no </text>
<text text-anchor="start" x="775.47" y="-46.16" font-family="Helvetica,sans-Serif" font-size="14.00"> </text>
<text text-anchor="start" x="662.97" y="-32.16" font-family="Helvetica,sans-Serif" font-size="14.00"> error: 0.937, n=522 </text>
<text text-anchor="start" x="681.97" y="-18.16" font-family="Helvetica,sans-Serif" font-size="14.00"> p: (0.65, 0.35) </text>
</g>
<!-- 18&#45;&gt;19 -->
<g id="edge22" class="edge">
<title>18:s&#45;&gt;19:n</title>
<path fill="none" stroke="black" d="M736.97,-121.71C736.97,-121.71 736.97,-95.93 736.97,-81.03"/>
<polygon fill="black" stroke="black" points="740.47,-80.71 736.97,-70.71 733.47,-80.71 740.47,-80.71"/>
<text text-anchor="middle" x="749.97" y="-92.51" font-family="Helvetica,sans-Serif" font-size="14.00">&gt; 7</text>
</g>
</g>
</svg>
