<?xml version="1.0" encoding="UTF-8" standalone="no"?>
<!DOCTYPE svg PUBLIC "-//W3C//DTD SVG 1.1//EN"
 "http://www.w3.org/Graphics/SVG/1.1/DTD/svg11.dtd">
<!-- Generated by graphviz version 2.43.0 (0)
 -->
<!-- Title: Tree Pages: 1 -->
<svg width="1653pt" height="1212pt"
 viewBox="0.00 0.00 1652.66 1211.71" xmlns="http://www.w3.org/2000/svg" xmlns:xlink="http://www.w3.org/1999/xlink">
<g id="graph0" class="graph" transform="scale(1 1) rotate(0) translate(18 1193.71)">
<title>Tree</title>
<polygon fill="white" stroke="transparent" points="-18,18 -18,-1193.71 1634.66,-1193.71 1634.66,18 -18,18"/>
<!-- 0 -->
<g id="node1" class="node">
<title>0</title>
<polygon fill="white" stroke="transparent" points="959.33,-1175.71 905.33,-1175.71 905.33,-1139.71 959.33,-1139.71 959.33,-1175.71"/>
<text text-anchor="middle" x="932.33" y="-1154.01" font-family="Helvetica,sans-Serif" font-size="14.00">0</text>
</g>
<!-- 1 -->
<g id="node2" class="node">
<title>1</title>
<polygon fill="#cc3d3d" stroke="black" points="1018.83,-1102.71 845.83,-1102.71 845.83,-1024.71 1018.83,-1024.71 1018.83,-1102.71"/>
<text text-anchor="start" x="882.33" y="-1088.51" font-family="Helvetica,sans-Serif" font-weight="bold" font-size="14.00"> Class=won </text>
<text text-anchor="start" x="977.33" y="-1088.51" font-family="Helvetica,sans-Serif" font-size="14.00"> </text>
<text text-anchor="start" x="853.83" y="-1074.51" font-family="Helvetica,sans-Serif" font-size="14.00"> error: 0.999, n=3196 </text>
<text text-anchor="start" x="877.33" y="-1060.51" font-family="Helvetica,sans-Serif" font-size="14.00"> p: (0.48, 0.52) </text>
<text text-anchor="start" x="918.83" y="-1046.51" font-family="Helvetica,sans-Serif" font-size="14.00">&#45;&#45;&#45;&#45;&#45;</text>
<text text-anchor="start" x="907.83" y="-1032.51" font-family="Helvetica,sans-Serif" font-weight="bold" font-size="14.00">rimmx</text>
</g>
<!-- 0&#45;&gt;1 -->
<!-- 2 -->
<g id="node3" class="node">
<title>2</title>
<ellipse fill="#e58d44" stroke="black" cx="891.33" cy="-934.71" rx="122.16" ry="35.21"/>
<text text-anchor="start" x="841.33" y="-945.51" font-family="Helvetica,sans-Serif" font-weight="bold" font-size="14.00"> Class=won </text>
<text text-anchor="start" x="936.33" y="-945.51" font-family="Helvetica,sans-Serif" font-size="14.00"> </text>
<text text-anchor="start" x="812.83" y="-931.51" font-family="Helvetica,sans-Serif" font-size="14.00"> error: 0.000, n=3196 </text>
<text text-anchor="start" x="836.33" y="-917.51" font-family="Helvetica,sans-Serif" font-size="14.00"> p: (0.00, 1.00) </text>
</g>
<!-- 1&#45;&gt;2 -->
<g id="edge2" class="edge">
<title>1:s&#45;&gt;2:n</title>
<path fill="none" stroke="black" d="M932.33,-1024.71C932.33,-1024.71 909.27,-994.9 897.74,-979.99"/>
<polygon fill="black" stroke="black" points="900.22,-977.48 891.33,-971.71 894.68,-981.76 900.22,-977.48"/>
<text text-anchor="middle" x="921.33" y="-995.51" font-family="Helvetica,sans-Serif" font-size="14.00">t</text>
</g>
<!-- 3 -->
<g id="node4" class="node">
<title>3</title>
<polygon fill="#e58d44" stroke="black" points="1258.83,-973.71 1085.83,-973.71 1085.83,-895.71 1258.83,-895.71 1258.83,-973.71"/>
<text text-anchor="start" x="1115.33" y="-959.51" font-family="Helvetica,sans-Serif" font-weight="bold" font-size="14.00"> Class=nowin </text>
<text text-anchor="start" x="1224.33" y="-959.51" font-family="Helvetica,sans-Serif" font-size="14.00"> </text>
<text text-anchor="start" x="1093.83" y="-945.51" font-family="Helvetica,sans-Serif" font-size="14.00"> error: 0.979, n=3196 </text>
<text text-anchor="start" x="1117.33" y="-931.51" font-family="Helvetica,sans-Serif" font-size="14.00"> p: (0.58, 0.42) </text>
<text text-anchor="start" x="1158.83" y="-917.51" font-family="Helvetica,sans-Serif" font-size="14.00">&#45;&#45;&#45;&#45;&#45;</text>
<text text-anchor="start" x="1148.83" y="-903.51" font-family="Helvetica,sans-Serif" font-weight="bold" font-size="14.00">bxqsq</text>
</g>
<!-- 1&#45;&gt;3 -->
<g id="edge3" class="edge">
<title>1:s&#45;&gt;3:n</title>
<path fill="none" stroke="black" d="M932.33,-1024.71C932.33,-1024.71 1116.9,-985.49 1162.32,-975.84"/>
<polygon fill="black" stroke="black" points="1163.28,-979.21 1172.33,-973.71 1161.82,-972.37 1163.28,-979.21"/>
<text text-anchor="middle" x="1084.33" y="-995.51" font-family="Helvetica,sans-Serif" font-size="14.00">f</text>
</g>
<!-- 4 -->
<g id="node5" class="node">
<title>4</title>
<polygon fill="#ccbd3d" stroke="black" points="1068.83,-844.71 895.83,-844.71 895.83,-766.71 1068.83,-766.71 1068.83,-844.71"/>
<text text-anchor="start" x="932.33" y="-830.51" font-family="Helvetica,sans-Serif" font-weight="bold" font-size="14.00"> Class=won </text>
<text text-anchor="start" x="1027.33" y="-830.51" font-family="Helvetica,sans-Serif" font-size="14.00"> </text>
<text text-anchor="start" x="903.83" y="-816.51" font-family="Helvetica,sans-Serif" font-size="14.00"> error: 0.981, n=3196 </text>
<text text-anchor="start" x="927.33" y="-802.51" font-family="Helvetica,sans-Serif" font-size="14.00"> p: (0.42, 0.58) </text>
<text text-anchor="start" x="968.83" y="-788.51" font-family="Helvetica,sans-Serif" font-size="14.00">&#45;&#45;&#45;&#45;&#45;</text>
<text text-anchor="start" x="957.83" y="-774.51" font-family="Helvetica,sans-Serif" font-weight="bold" font-size="14.00">wknck</text>
</g>
<!-- 3&#45;&gt;4 -->
<g id="edge4" class="edge">
<title>3:s&#45;&gt;4:n</title>
<path fill="none" stroke="black" d="M1172.33,-895.71C1172.33,-895.71 1030.73,-857.7 992.01,-847.31"/>
<polygon fill="black" stroke="black" points="992.89,-843.92 982.33,-844.71 991.08,-850.68 992.89,-843.92"/>
<text text-anchor="middle" x="1103.33" y="-866.51" font-family="Helvetica,sans-Serif" font-size="14.00">f</text>
</g>
<!-- 20 -->
<g id="node6" class="node">
<title>20</title>
<ellipse fill="#ccbd3d" stroke="black" cx="1263.33" cy="-805.71" rx="122.16" ry="35.21"/>
<text text-anchor="start" x="1206.33" y="-816.51" font-family="Helvetica,sans-Serif" font-weight="bold" font-size="14.00"> Class=nowin </text>
<text text-anchor="start" x="1315.33" y="-816.51" font-family="Helvetica,sans-Serif" font-size="14.00"> </text>
<text text-anchor="start" x="1184.83" y="-802.51" font-family="Helvetica,sans-Serif" font-size="14.00"> error: 0.000, n=3196 </text>
<text text-anchor="start" x="1208.33" y="-788.51" font-family="Helvetica,sans-Serif" font-size="14.00"> p: (1.00, 0.00) </text>
</g>
<!-- 3&#45;&gt;20 -->
<g id="edge5" class="edge">
<title>3:s&#45;&gt;20:n</title>
<path fill="none" stroke="black" d="M1172.33,-895.71C1172.33,-895.71 1231.83,-861.06 1254.6,-847.79"/>
<polygon fill="black" stroke="black" points="1256.45,-850.77 1263.33,-842.71 1252.93,-844.72 1256.45,-850.77"/>
<text text-anchor="middle" x="1232.33" y="-866.51" font-family="Helvetica,sans-Serif" font-size="14.00">t</text>
</g>
<!-- 5 -->
<g id="node7" class="node">
<title>5</title>
<polygon fill="#ade544" stroke="black" points="928.83,-715.71 755.83,-715.71 755.83,-637.71 928.83,-637.71 928.83,-715.71"/>
<text text-anchor="start" x="792.33" y="-701.51" font-family="Helvetica,sans-Serif" font-weight="bold" font-size="14.00"> Class=won </text>
<text text-anchor="start" x="887.33" y="-701.51" font-family="Helvetica,sans-Serif" font-size="14.00"> </text>
<text text-anchor="start" x="763.83" y="-687.51" font-family="Helvetica,sans-Serif" font-size="14.00"> error: 0.722, n=3196 </text>
<text text-anchor="start" x="787.33" y="-673.51" font-family="Helvetica,sans-Serif" font-size="14.00"> p: (0.20, 0.80) </text>
<text text-anchor="start" x="828.83" y="-659.51" font-family="Helvetica,sans-Serif" font-size="14.00">&#45;&#45;&#45;&#45;&#45;</text>
<text text-anchor="start" x="816.33" y="-645.51" font-family="Helvetica,sans-Serif" font-weight="bold" font-size="14.00">wkna8</text>
</g>
<!-- 4&#45;&gt;5 -->
<g id="edge6" class="edge">
<title>4:s&#45;&gt;5:n</title>
<path fill="none" stroke="black" d="M982.33,-766.71C982.33,-766.71 883.58,-730.74 851.95,-719.22"/>
<polygon fill="black" stroke="black" points="852.92,-715.84 842.33,-715.71 850.53,-722.42 852.92,-715.84"/>
<text text-anchor="middle" x="932.33" y="-737.51" font-family="Helvetica,sans-Serif" font-size="14.00">f</text>
</g>
<!-- 14 -->
<g id="node8" class="node">
<title>14</title>
<polygon fill="#ade544" stroke="black" points="1227.83,-715.71 1054.83,-715.71 1054.83,-637.71 1227.83,-637.71 1227.83,-715.71"/>
<text text-anchor="start" x="1084.33" y="-701.51" font-family="Helvetica,sans-Serif" font-weight="bold" font-size="14.00"> Class=nowin </text>
<text text-anchor="start" x="1193.33" y="-701.51" font-family="Helvetica,sans-Serif" font-size="14.00"> </text>
<text text-anchor="start" x="1062.83" y="-687.51" font-family="Helvetica,sans-Serif" font-size="14.00"> error: 0.405, n=3196 </text>
<text text-anchor="start" x="1086.33" y="-673.51" font-family="Helvetica,sans-Serif" font-size="14.00"> p: (0.92, 0.08) </text>
<text text-anchor="start" x="1127.83" y="-659.51" font-family="Helvetica,sans-Serif" font-size="14.00">&#45;&#45;&#45;&#45;&#45;</text>
<text text-anchor="start" x="1118.33" y="-645.51" font-family="Helvetica,sans-Serif" font-weight="bold" font-size="14.00">wkovl</text>
</g>
<!-- 4&#45;&gt;14 -->
<g id="edge7" class="edge">
<title>4:s&#45;&gt;14:n</title>
<path fill="none" stroke="black" d="M982.33,-766.71C982.33,-766.71 1096.57,-730.07 1131.38,-718.9"/>
<polygon fill="black" stroke="black" points="1132.88,-722.1 1141.33,-715.71 1130.74,-715.43 1132.88,-722.1"/>
<text text-anchor="middle" x="1084.33" y="-737.51" font-family="Helvetica,sans-Serif" font-size="14.00">t</text>
</g>
<!-- 6 -->
<g id="node9" class="node">
<title>6</title>
<polygon fill="#59cc3d" stroke="black" points="629.83,-586.71 456.83,-586.71 456.83,-508.71 629.83,-508.71 629.83,-586.71"/>
<text text-anchor="start" x="493.33" y="-572.51" font-family="Helvetica,sans-Serif" font-weight="bold" font-size="14.00"> Class=won </text>
<text text-anchor="start" x="588.33" y="-572.51" font-family="Helvetica,sans-Serif" font-size="14.00"> </text>
<text text-anchor="start" x="464.83" y="-558.51" font-family="Helvetica,sans-Serif" font-size="14.00"> error: 0.527, n=3196 </text>
<text text-anchor="start" x="488.33" y="-544.51" font-family="Helvetica,sans-Serif" font-size="14.00"> p: (0.12, 0.88) </text>
<text text-anchor="start" x="529.83" y="-530.51" font-family="Helvetica,sans-Serif" font-size="14.00">&#45;&#45;&#45;&#45;&#45;</text>
<text text-anchor="start" x="519.33" y="-516.51" font-family="Helvetica,sans-Serif" font-weight="bold" font-size="14.00">bkxbq</text>
</g>
<!-- 5&#45;&gt;6 -->
<g id="edge8" class="edge">
<title>5:s&#45;&gt;6:n</title>
<path fill="none" stroke="black" d="M842.33,-637.71C842.33,-637.71 605.16,-597.26 553.28,-588.41"/>
<polygon fill="black" stroke="black" points="553.78,-584.94 543.33,-586.71 552.6,-591.84 553.78,-584.94"/>
<text text-anchor="middle" x="732.33" y="-608.51" font-family="Helvetica,sans-Serif" font-size="14.00">f</text>
</g>
<!-- 13 -->
<g id="node10" class="node">
<title>13</title>
<ellipse fill="#59cc3d" stroke="black" cx="842.33" cy="-547.71" rx="122.16" ry="35.21"/>
<text text-anchor="start" x="785.33" y="-558.51" font-family="Helvetica,sans-Serif" font-weight="bold" font-size="14.00"> Class=nowin </text>
<text text-anchor="start" x="894.33" y="-558.51" font-family="Helvetica,sans-Serif" font-size="14.00"> </text>
<text text-anchor="start" x="763.83" y="-544.51" font-family="Helvetica,sans-Serif" font-size="14.00"> error: 0.165, n=3196 </text>
<text text-anchor="start" x="787.33" y="-530.51" font-family="Helvetica,sans-Serif" font-size="14.00"> p: (0.98, 0.02) </text>
</g>
<!-- 5&#45;&gt;13 -->
<g id="edge9" class="edge">
<title>5:s&#45;&gt;13:n</title>
<path fill="none" stroke="black" d="M842.33,-637.71C842.33,-637.71 842.33,-610.33 842.33,-594.93"/>
<polygon fill="black" stroke="black" points="845.83,-594.71 842.33,-584.71 838.83,-594.71 845.83,-594.71"/>
<text text-anchor="middle" x="845.33" y="-608.51" font-family="Helvetica,sans-Serif" font-size="14.00">t</text>
</g>
<!-- 15 -->
<g id="node17" class="node">
<title>15</title>
<polygon fill="#59cc3d" stroke="black" points="1227.83,-586.71 1054.83,-586.71 1054.83,-508.71 1227.83,-508.71 1227.83,-586.71"/>
<text text-anchor="start" x="1084.33" y="-572.51" font-family="Helvetica,sans-Serif" font-weight="bold" font-size="14.00"> Class=nowin </text>
<text text-anchor="start" x="1193.33" y="-572.51" font-family="Helvetica,sans-Serif" font-size="14.00"> </text>
<text text-anchor="start" x="1062.83" y="-558.51" font-family="Helvetica,sans-Serif" font-size="14.00"> error: 0.647, n=3196 </text>
<text text-anchor="start" x="1086.33" y="-544.51" font-family="Helvetica,sans-Serif" font-size="14.00"> p: (0.83, 0.17) </text>
<text text-anchor="start" x="1127.83" y="-530.51" font-family="Helvetica,sans-Serif" font-size="14.00">&#45;&#45;&#45;&#45;&#45;</text>
<text text-anchor="start" x="1119.83" y="-516.51" font-family="Helvetica,sans-Serif" font-weight="bold" font-size="14.00">bkxcr</text>
</g>
<!-- 14&#45;&gt;15 -->
<g id="edge16" class="edge">
<title>14:s&#45;&gt;15:n</title>
<path fill="none" stroke="black" d="M1141.33,-637.71C1141.33,-637.71 1141.33,-611.93 1141.33,-597.03"/>
<polygon fill="black" stroke="black" points="1144.83,-596.71 1141.33,-586.71 1137.83,-596.71 1144.83,-596.71"/>
<text text-anchor="middle" x="1144.33" y="-608.51" font-family="Helvetica,sans-Serif" font-size="14.00">f</text>
</g>
<!-- 18 -->
<g id="node18" class="node">
<title>18</title>
<polygon fill="#59cc3d" stroke="black" points="1526.83,-586.71 1353.83,-586.71 1353.83,-508.71 1526.83,-508.71 1526.83,-586.71"/>
<text text-anchor="start" x="1383.33" y="-572.51" font-family="Helvetica,sans-Serif" font-weight="bold" font-size="14.00"> Class=nowin </text>
<text text-anchor="start" x="1492.33" y="-572.51" font-family="Helvetica,sans-Serif" font-size="14.00"> </text>
<text text-anchor="start" x="1361.83" y="-558.51" font-family="Helvetica,sans-Serif" font-size="14.00"> error: 0.079, n=3196 </text>
<text text-anchor="start" x="1385.33" y="-544.51" font-family="Helvetica,sans-Serif" font-size="14.00"> p: (0.99, 0.01) </text>
<text text-anchor="start" x="1426.83" y="-530.51" font-family="Helvetica,sans-Serif" font-size="14.00">&#45;&#45;&#45;&#45;&#45;</text>
<text text-anchor="start" x="1414.83" y="-516.51" font-family="Helvetica,sans-Serif" font-weight="bold" font-size="14.00">bknwy</text>
</g>
<!-- 14&#45;&gt;18 -->
<g id="edge17" class="edge">
<title>14:s&#45;&gt;18:n</title>
<path fill="none" stroke="black" d="M1141.33,-637.71C1141.33,-637.71 1378.5,-597.26 1430.38,-588.41"/>
<polygon fill="black" stroke="black" points="1431.06,-591.84 1440.33,-586.71 1429.88,-584.94 1431.06,-591.84"/>
<text text-anchor="middle" x="1330.33" y="-608.51" font-family="Helvetica,sans-Serif" font-size="14.00">t</text>
</g>
<!-- 7 -->
<g id="node11" class="node">
<title>7</title>
<polygon fill="#44e56d" stroke="black" points="348.83,-457.71 175.83,-457.71 175.83,-379.71 348.83,-379.71 348.83,-457.71"/>
<text text-anchor="start" x="212.33" y="-443.51" font-family="Helvetica,sans-Serif" font-weight="bold" font-size="14.00"> Class=won </text>
<text text-anchor="start" x="307.33" y="-443.51" font-family="Helvetica,sans-Serif" font-size="14.00"> </text>
<text text-anchor="start" x="183.83" y="-429.51" font-family="Helvetica,sans-Serif" font-size="14.00"> error: 0.799, n=3196 </text>
<text text-anchor="start" x="207.33" y="-415.51" font-family="Helvetica,sans-Serif" font-size="14.00"> p: (0.24, 0.76) </text>
<text text-anchor="start" x="248.83" y="-401.51" font-family="Helvetica,sans-Serif" font-size="14.00">&#45;&#45;&#45;&#45;&#45;</text>
<text text-anchor="start" x="237.33" y="-387.51" font-family="Helvetica,sans-Serif" font-weight="bold" font-size="14.00">wkpos</text>
</g>
<!-- 6&#45;&gt;7 -->
<g id="edge10" class="edge">
<title>6:s&#45;&gt;7:n</title>
<path fill="none" stroke="black" d="M543.33,-508.71C543.33,-508.71 322.39,-468.61 272.33,-459.53"/>
<polygon fill="black" stroke="black" points="272.79,-456.05 262.33,-457.71 271.54,-462.94 272.79,-456.05"/>
<text text-anchor="middle" x="439.33" y="-479.51" font-family="Helvetica,sans-Serif" font-size="14.00">f</text>
</g>
<!-- 12 -->
<g id="node12" class="node">
<title>12</title>
<ellipse fill="#44e56d" stroke="black" cx="543.33" cy="-418.71" rx="122.16" ry="35.21"/>
<text text-anchor="start" x="493.33" y="-429.51" font-family="Helvetica,sans-Serif" font-weight="bold" font-size="14.00"> Class=won </text>
<text text-anchor="start" x="588.33" y="-429.51" font-family="Helvetica,sans-Serif" font-size="14.00"> </text>
<text text-anchor="start" x="464.83" y="-415.51" font-family="Helvetica,sans-Serif" font-size="14.00"> error: 0.000, n=3196 </text>
<text text-anchor="start" x="488.33" y="-401.51" font-family="Helvetica,sans-Serif" font-size="14.00"> p: (0.00, 1.00) </text>
</g>
<!-- 6&#45;&gt;12 -->
<g id="edge11" class="edge">
<title>6:s&#45;&gt;12:n</title>
<path fill="none" stroke="black" d="M543.33,-508.71C543.33,-508.71 543.33,-481.33 543.33,-465.93"/>
<polygon fill="black" stroke="black" points="546.83,-465.71 543.33,-455.71 539.83,-465.71 546.83,-465.71"/>
<text text-anchor="middle" x="546.33" y="-479.51" font-family="Helvetica,sans-Serif" font-size="14.00">t</text>
</g>
<!-- 8 -->
<g id="node13" class="node">
<title>8</title>
<polygon fill="#3dcca1" stroke="black" points="208.83,-328.71 35.83,-328.71 35.83,-250.71 208.83,-250.71 208.83,-328.71"/>
<text text-anchor="start" x="72.33" y="-314.51" font-family="Helvetica,sans-Serif" font-weight="bold" font-size="14.00"> Class=won </text>
<text text-anchor="start" x="167.33" y="-314.51" font-family="Helvetica,sans-Serif" font-size="14.00"> </text>
<text text-anchor="start" x="43.83" y="-300.51" font-family="Helvetica,sans-Serif" font-size="14.00"> error: 0.471, n=3196 </text>
<text text-anchor="start" x="67.33" y="-286.51" font-family="Helvetica,sans-Serif" font-size="14.00"> p: (0.10, 0.90) </text>
<text text-anchor="start" x="108.83" y="-272.51" font-family="Helvetica,sans-Serif" font-size="14.00">&#45;&#45;&#45;&#45;&#45;</text>
<text text-anchor="start" x="103.83" y="-258.51" font-family="Helvetica,sans-Serif" font-weight="bold" font-size="14.00">katri</text>
</g>
<!-- 7&#45;&gt;8 -->
<g id="edge12" class="edge">
<title>7:s&#45;&gt;8:n</title>
<path fill="none" stroke="black" d="M262.33,-379.71C262.33,-379.71 163.58,-343.74 131.95,-332.22"/>
<polygon fill="black" stroke="black" points="132.92,-328.84 122.33,-328.71 130.53,-335.42 132.92,-328.84"/>
<text text-anchor="middle" x="212.33" y="-350.51" font-family="Helvetica,sans-Serif" font-size="14.00">t</text>
</g>
<!-- 11 -->
<g id="node14" class="node">
<title>11</title>
<ellipse fill="#3dcca1" stroke="black" cx="403.33" cy="-289.71" rx="122.16" ry="35.21"/>
<text text-anchor="start" x="346.33" y="-300.51" font-family="Helvetica,sans-Serif" font-weight="bold" font-size="14.00"> Class=nowin </text>
<text text-anchor="start" x="455.33" y="-300.51" font-family="Helvetica,sans-Serif" font-size="14.00"> </text>
<text text-anchor="start" x="324.83" y="-286.51" font-family="Helvetica,sans-Serif" font-size="14.00"> error: 1.000, n=3196 </text>
<text text-anchor="start" x="348.33" y="-272.51" font-family="Helvetica,sans-Serif" font-size="14.00"> p: (0.51, 0.49) </text>
</g>
<!-- 7&#45;&gt;11 -->
<g id="edge13" class="edge">
<title>7:s&#45;&gt;11:n</title>
<path fill="none" stroke="black" d="M262.33,-379.71C262.33,-379.71 361.78,-342.33 393.64,-330.35"/>
<polygon fill="black" stroke="black" points="395.2,-333.51 403.33,-326.71 392.74,-326.95 395.2,-333.51"/>
<text text-anchor="middle" x="353.33" y="-350.51" font-family="Helvetica,sans-Serif" font-size="14.00">f</text>
</g>
<!-- 9 -->
<g id="node15" class="node">
<title>9</title>
<polygon fill="#44cde5" stroke="black" points="208.83,-199.71 35.83,-199.71 35.83,-121.71 208.83,-121.71 208.83,-199.71"/>
<text text-anchor="start" x="72.33" y="-185.51" font-family="Helvetica,sans-Serif" font-weight="bold" font-size="14.00"> Class=won </text>
<text text-anchor="start" x="167.33" y="-185.51" font-family="Helvetica,sans-Serif" font-size="14.00"> </text>
<text text-anchor="start" x="43.83" y="-171.51" font-family="Helvetica,sans-Serif" font-size="14.00"> error: 0.315, n=3196 </text>
<text text-anchor="start" x="67.33" y="-157.51" font-family="Helvetica,sans-Serif" font-size="14.00"> p: (0.06, 0.94) </text>
<text text-anchor="start" x="108.83" y="-143.51" font-family="Helvetica,sans-Serif" font-size="14.00">&#45;&#45;&#45;&#45;&#45;</text>
<text text-anchor="start" x="97.83" y="-129.51" font-family="Helvetica,sans-Serif" font-weight="bold" font-size="14.00">rxmsq</text>
</g>
<!-- 8&#45;&gt;9 -->
<g id="edge14" class="edge">
<title>8:s&#45;&gt;9:n</title>
<path fill="none" stroke="black" d="M122.33,-250.71C122.33,-250.71 122.33,-224.93 122.33,-210.03"/>
<polygon fill="black" stroke="black" points="125.83,-209.71 122.33,-199.71 118.83,-209.71 125.83,-209.71"/>
<text text-anchor="middle" x="127.33" y="-221.51" font-family="Helvetica,sans-Serif" font-size="14.00">n</text>
</g>
<!-- 10 -->
<g id="node16" class="node">
<title>10</title>
<ellipse fill="#3d76cc" stroke="black" cx="122.33" cy="-35.36" rx="122.16" ry="35.21"/>
<text text-anchor="start" x="72.33" y="-46.16" font-family="Helvetica,sans-Serif" font-weight="bold" font-size="14.00"> Class=won </text>
<text text-anchor="start" x="167.33" y="-46.16" font-family="Helvetica,sans-Serif" font-size="14.00"> </text>
<text text-anchor="start" x="43.83" y="-32.16" font-family="Helvetica,sans-Serif" font-size="14.00"> error: 0.066, n=3196 </text>
<text text-anchor="start" x="67.33" y="-18.16" font-family="Helvetica,sans-Serif" font-size="14.00"> p: (0.01, 0.99) </text>
</g>
<!-- 9&#45;&gt;10 -->
<g id="edge15" class="edge">
<title>9:s&#45;&gt;10:n</title>
<path fill="none" stroke="black" d="M122.33,-121.71C122.33,-121.71 122.33,-95.93 122.33,-81.03"/>
<polygon fill="black" stroke="black" points="125.83,-80.71 122.33,-70.71 118.83,-80.71 125.83,-80.71"/>
<text text-anchor="middle" x="125.33" y="-92.51" font-family="Helvetica,sans-Serif" font-size="14.00">f</text>
</g>
<!-- 16 -->
<g id="node19" class="node">
<title>16</title>
<ellipse fill="#44e56d" stroke="black" cx="860.33" cy="-418.71" rx="122.16" ry="35.21"/>
<text text-anchor="start" x="803.33" y="-429.51" font-family="Helvetica,sans-Serif" font-weight="bold" font-size="14.00"> Class=nowin </text>
<text text-anchor="start" x="912.33" y="-429.51" font-family="Helvetica,sans-Serif" font-size="14.00"> </text>
<text text-anchor="start" x="781.83" y="-415.51" font-family="Helvetica,sans-Serif" font-size="14.00"> error: 0.885, n=3196 </text>
<text text-anchor="start" x="805.33" y="-401.51" font-family="Helvetica,sans-Serif" font-size="14.00"> p: (0.70, 0.30) </text>
</g>
<!-- 15&#45;&gt;16 -->
<g id="edge18" class="edge">
<title>15:s&#45;&gt;16:n</title>
<path fill="none" stroke="black" d="M1141.33,-508.71C1141.33,-508.71 920.39,-467.04 870.33,-457.6"/>
<polygon fill="black" stroke="black" points="870.8,-454.12 860.33,-455.71 869.51,-461 870.8,-454.12"/>
<text text-anchor="middle" x="1046.33" y="-479.51" font-family="Helvetica,sans-Serif" font-size="14.00">f</text>
</g>
<!-- 17 -->
<g id="node20" class="node">
<title>17</title>
<ellipse fill="#44e56d" stroke="black" cx="1177.33" cy="-418.71" rx="122.16" ry="35.21"/>
<text text-anchor="start" x="1120.33" y="-429.51" font-family="Helvetica,sans-Serif" font-weight="bold" font-size="14.00"> Class=nowin </text>
<text text-anchor="start" x="1229.33" y="-429.51" font-family="Helvetica,sans-Serif" font-size="14.00"> </text>
<text text-anchor="start" x="1098.83" y="-415.51" font-family="Helvetica,sans-Serif" font-size="14.00"> error: 0.000, n=3196 </text>
<text text-anchor="start" x="1122.33" y="-401.51" font-family="Helvetica,sans-Serif" font-size="14.00"> p: (1.00, 0.00) </text>
</g>
<!-- 15&#45;&gt;17 -->
<g id="edge19" class="edge">
<title>15:s&#45;&gt;17:n</title>
<path fill="none" stroke="black" d="M1141.33,-508.71C1141.33,-508.71 1161.58,-478.9 1171.7,-463.99"/>
<polygon fill="black" stroke="black" points="1174.61,-465.95 1177.33,-455.71 1168.82,-462.02 1174.61,-465.95"/>
<text text-anchor="middle" x="1167.33" y="-479.51" font-family="Helvetica,sans-Serif" font-size="14.00">t</text>
</g>
<!-- 19 -->
<g id="node21" class="node">
<title>19</title>
<ellipse fill="#44e56d" stroke="black" cx="1494.33" cy="-418.71" rx="122.16" ry="35.21"/>
<text text-anchor="start" x="1437.33" y="-429.51" font-family="Helvetica,sans-Serif" font-weight="bold" font-size="14.00"> Class=nowin </text>
<text text-anchor="start" x="1546.33" y="-429.51" font-family="Helvetica,sans-Serif" font-size="14.00"> </text>
<text text-anchor="start" x="1415.83" y="-415.51" font-family="Helvetica,sans-Serif" font-size="14.00"> error: 0.000, n=3196 </text>
<text text-anchor="start" x="1439.33" y="-401.51" font-family="Helvetica,sans-Serif" font-size="14.00"> p: (1.00, 0.00) </text>
</g>
<!-- 18&#45;&gt;19 -->
<g id="edge20" class="edge">
<title>18:s&#45;&gt;19:n</title>
<path fill="none" stroke="black" d="M1440.33,-508.71C1440.33,-508.71 1471.98,-477.64 1486.82,-463.08"/>
<polygon fill="black" stroke="black" points="1489.64,-465.21 1494.33,-455.71 1484.74,-460.22 1489.64,-465.21"/>
<text text-anchor="middle" x="1477.33" y="-479.51" font-family="Helvetica,sans-Serif" font-size="14.00">f</text>
</g>
</g>
</svg>
