<?xml version="1.0" encoding="UTF-8" standalone="no"?>
<!DOCTYPE svg PUBLIC "-//W3C//DTD SVG 1.1//EN"
 "http://www.w3.org/Graphics/SVG/1.1/DTD/svg11.dtd">
<!-- Generated by graphviz version 2.43.0 (0)
 -->
<!-- Title: Tree Pages: 1 -->
<svg width="1939pt" height="1212pt"
 viewBox="0.00 0.00 1938.66 1211.71" xmlns="http://www.w3.org/2000/svg" xmlns:xlink="http://www.w3.org/1999/xlink">
<g id="graph0" class="graph" transform="scale(1 1) rotate(0) translate(18 1193.71)">
<title>Tree</title>
<polygon fill="white" stroke="transparent" points="-18,18 -18,-1193.71 1920.66,-1193.71 1920.66,18 -18,18"/>
<!-- 0 -->
<g id="node1" class="node">
<title>0</title>
<polygon fill="white" stroke="transparent" points="1018.33,-1175.71 964.33,-1175.71 964.33,-1139.71 1018.33,-1139.71 1018.33,-1175.71"/>
<text text-anchor="middle" x="991.33" y="-1154.01" font-family="Helvetica,sans-Serif" font-size="14.00">0</text>
</g>
<!-- 1 -->
<g id="node2" class="node">
<title>1</title>
<polygon fill="#cc3d3d" stroke="black" points="1077.83,-1102.71 904.83,-1102.71 904.83,-1024.71 1077.83,-1024.71 1077.83,-1102.71"/>
<text text-anchor="start" x="941.33" y="-1088.51" font-family="Helvetica,sans-Serif" font-weight="bold" font-size="14.00"> Class=won </text>
<text text-anchor="start" x="1036.33" y="-1088.51" font-family="Helvetica,sans-Serif" font-size="14.00"> </text>
<text text-anchor="start" x="912.83" y="-1074.51" font-family="Helvetica,sans-Serif" font-size="14.00"> error: 0.999, n=3196 </text>
<text text-anchor="start" x="936.33" y="-1060.51" font-family="Helvetica,sans-Serif" font-size="14.00"> p: (0.48, 0.52) </text>
<text text-anchor="start" x="977.83" y="-1046.51" font-family="Helvetica,sans-Serif" font-size="14.00">&#45;&#45;&#45;&#45;&#45;</text>
<text text-anchor="start" x="966.83" y="-1032.51" font-family="Helvetica,sans-Serif" font-weight="bold" font-size="14.00">rimmx</text>
</g>
<!-- 0&#45;&gt;1 -->
<!-- 2 -->
<g id="node3" class="node">
<title>2</title>
<ellipse fill="#e58d44" stroke="black" cx="950.33" cy="-934.71" rx="122.16" ry="35.21"/>
<text text-anchor="start" x="900.33" y="-945.51" font-family="Helvetica,sans-Serif" font-weight="bold" font-size="14.00"> Class=won </text>
<text text-anchor="start" x="995.33" y="-945.51" font-family="Helvetica,sans-Serif" font-size="14.00"> </text>
<text text-anchor="start" x="871.83" y="-931.51" font-family="Helvetica,sans-Serif" font-size="14.00"> error: 0.000, n=3196 </text>
<text text-anchor="start" x="895.33" y="-917.51" font-family="Helvetica,sans-Serif" font-size="14.00"> p: (0.00, 1.00) </text>
</g>
<!-- 1&#45;&gt;2 -->
<g id="edge2" class="edge">
<title>1:s&#45;&gt;2:n</title>
<path fill="none" stroke="black" d="M991.33,-1024.71C991.33,-1024.71 968.27,-994.9 956.74,-979.99"/>
<polygon fill="black" stroke="black" points="959.22,-977.48 950.33,-971.71 953.68,-981.76 959.22,-977.48"/>
<text text-anchor="middle" x="980.33" y="-995.51" font-family="Helvetica,sans-Serif" font-size="14.00">t</text>
</g>
<!-- 3 -->
<g id="node4" class="node">
<title>3</title>
<polygon fill="#e58d44" stroke="black" points="1317.83,-973.71 1144.83,-973.71 1144.83,-895.71 1317.83,-895.71 1317.83,-973.71"/>
<text text-anchor="start" x="1174.33" y="-959.51" font-family="Helvetica,sans-Serif" font-weight="bold" font-size="14.00"> Class=nowin </text>
<text text-anchor="start" x="1283.33" y="-959.51" font-family="Helvetica,sans-Serif" font-size="14.00"> </text>
<text text-anchor="start" x="1152.83" y="-945.51" font-family="Helvetica,sans-Serif" font-size="14.00"> error: 0.979, n=3196 </text>
<text text-anchor="start" x="1176.33" y="-931.51" font-family="Helvetica,sans-Serif" font-size="14.00"> p: (0.58, 0.42) </text>
<text text-anchor="start" x="1217.83" y="-917.51" font-family="Helvetica,sans-Serif" font-size="14.00">&#45;&#45;&#45;&#45;&#45;</text>
<text text-anchor="start" x="1207.83" y="-903.51" font-family="Helvetica,sans-Serif" font-weight="bold" font-size="14.00">bxqsq</text>
</g>
<!-- 1&#45;&gt;3 -->
<g id="edge3" class="edge">
<title>1:s&#45;&gt;3:n</title>
<path fill="none" stroke="black" d="M991.33,-1024.71C991.33,-1024.71 1175.9,-985.49 1221.32,-975.84"/>
<polygon fill="black" stroke="black" points="1222.28,-979.21 1231.33,-973.71 1220.82,-972.37 1222.28,-979.21"/>
<text text-anchor="middle" x="1143.33" y="-995.51" font-family="Helvetica,sans-Serif" font-size="14.00">f</text>
</g>
<!-- 4 -->
<g id="node5" class="node">
<title>4</title>
<polygon fill="#ccbd3d" stroke="black" points="1127.83,-844.71 954.83,-844.71 954.83,-766.71 1127.83,-766.71 1127.83,-844.71"/>
<text text-anchor="start" x="991.33" y="-830.51" font-family="Helvetica,sans-Serif" font-weight="bold" font-size="14.00"> Class=won </text>
<text text-anchor="start" x="1086.33" y="-830.51" font-family="Helvetica,sans-Serif" font-size="14.00"> </text>
<text text-anchor="start" x="962.83" y="-816.51" font-family="Helvetica,sans-Serif" font-size="14.00"> error: 0.981, n=3196 </text>
<text text-anchor="start" x="986.33" y="-802.51" font-family="Helvetica,sans-Serif" font-size="14.00"> p: (0.42, 0.58) </text>
<text text-anchor="start" x="1027.83" y="-788.51" font-family="Helvetica,sans-Serif" font-size="14.00">&#45;&#45;&#45;&#45;&#45;</text>
<text text-anchor="start" x="1016.83" y="-774.51" font-family="Helvetica,sans-Serif" font-weight="bold" font-size="14.00">wknck</text>
</g>
<!-- 3&#45;&gt;4 -->
<g id="edge4" class="edge">
<title>3:s&#45;&gt;4:n</title>
<path fill="none" stroke="black" d="M1231.33,-895.71C1231.33,-895.71 1089.73,-857.7 1051.01,-847.31"/>
<polygon fill="black" stroke="black" points="1051.89,-843.92 1041.33,-844.71 1050.08,-850.68 1051.89,-843.92"/>
<text text-anchor="middle" x="1162.33" y="-866.51" font-family="Helvetica,sans-Serif" font-size="14.00">f</text>
</g>
<!-- 24 -->
<g id="node6" class="node">
<title>24</title>
<ellipse fill="#ccbd3d" stroke="black" cx="1322.33" cy="-805.71" rx="122.16" ry="35.21"/>
<text text-anchor="start" x="1265.33" y="-816.51" font-family="Helvetica,sans-Serif" font-weight="bold" font-size="14.00"> Class=nowin </text>
<text text-anchor="start" x="1374.33" y="-816.51" font-family="Helvetica,sans-Serif" font-size="14.00"> </text>
<text text-anchor="start" x="1243.83" y="-802.51" font-family="Helvetica,sans-Serif" font-size="14.00"> error: 0.000, n=3196 </text>
<text text-anchor="start" x="1267.33" y="-788.51" font-family="Helvetica,sans-Serif" font-size="14.00"> p: (1.00, 0.00) </text>
</g>
<!-- 3&#45;&gt;24 -->
<g id="edge5" class="edge">
<title>3:s&#45;&gt;24:n</title>
<path fill="none" stroke="black" d="M1231.33,-895.71C1231.33,-895.71 1290.83,-861.06 1313.6,-847.79"/>
<polygon fill="black" stroke="black" points="1315.45,-850.77 1322.33,-842.71 1311.93,-844.72 1315.45,-850.77"/>
<text text-anchor="middle" x="1291.33" y="-866.51" font-family="Helvetica,sans-Serif" font-size="14.00">t</text>
</g>
<!-- 5 -->
<g id="node7" class="node">
<title>5</title>
<polygon fill="#ade544" stroke="black" points="987.83,-715.71 814.83,-715.71 814.83,-637.71 987.83,-637.71 987.83,-715.71"/>
<text text-anchor="start" x="851.33" y="-701.51" font-family="Helvetica,sans-Serif" font-weight="bold" font-size="14.00"> Class=won </text>
<text text-anchor="start" x="946.33" y="-701.51" font-family="Helvetica,sans-Serif" font-size="14.00"> </text>
<text text-anchor="start" x="822.83" y="-687.51" font-family="Helvetica,sans-Serif" font-size="14.00"> error: 0.722, n=3196 </text>
<text text-anchor="start" x="846.33" y="-673.51" font-family="Helvetica,sans-Serif" font-size="14.00"> p: (0.20, 0.80) </text>
<text text-anchor="start" x="887.83" y="-659.51" font-family="Helvetica,sans-Serif" font-size="14.00">&#45;&#45;&#45;&#45;&#45;</text>
<text text-anchor="start" x="875.33" y="-645.51" font-family="Helvetica,sans-Serif" font-weight="bold" font-size="14.00">wkna8</text>
</g>
<!-- 4&#45;&gt;5 -->
<g id="edge6" class="edge">
<title>4:s&#45;&gt;5:n</title>
<path fill="none" stroke="black" d="M1041.33,-766.71C1041.33,-766.71 942.58,-730.74 910.95,-719.22"/>
<polygon fill="black" stroke="black" points="911.92,-715.84 901.33,-715.71 909.53,-722.42 911.92,-715.84"/>
<text text-anchor="middle" x="991.33" y="-737.51" font-family="Helvetica,sans-Serif" font-size="14.00">f</text>
</g>
<!-- 17 -->
<g id="node8" class="node">
<title>17</title>
<polygon fill="#ade544" stroke="black" points="1461.83,-715.71 1288.83,-715.71 1288.83,-637.71 1461.83,-637.71 1461.83,-715.71"/>
<text text-anchor="start" x="1318.33" y="-701.51" font-family="Helvetica,sans-Serif" font-weight="bold" font-size="14.00"> Class=nowin </text>
<text text-anchor="start" x="1427.33" y="-701.51" font-family="Helvetica,sans-Serif" font-size="14.00"> </text>
<text text-anchor="start" x="1296.83" y="-687.51" font-family="Helvetica,sans-Serif" font-size="14.00"> error: 0.405, n=3196 </text>
<text text-anchor="start" x="1320.33" y="-673.51" font-family="Helvetica,sans-Serif" font-size="14.00"> p: (0.92, 0.08) </text>
<text text-anchor="start" x="1361.83" y="-659.51" font-family="Helvetica,sans-Serif" font-size="14.00">&#45;&#45;&#45;&#45;&#45;</text>
<text text-anchor="start" x="1352.33" y="-645.51" font-family="Helvetica,sans-Serif" font-weight="bold" font-size="14.00">wkovl</text>
</g>
<!-- 4&#45;&gt;17 -->
<g id="edge7" class="edge">
<title>4:s&#45;&gt;17:n</title>
<path fill="none" stroke="black" d="M1041.33,-766.71C1041.33,-766.71 1309.76,-725.72 1365.33,-717.24"/>
<polygon fill="black" stroke="black" points="1365.97,-720.68 1375.33,-715.71 1364.92,-713.76 1365.97,-720.68"/>
<text text-anchor="middle" x="1251.33" y="-737.51" font-family="Helvetica,sans-Serif" font-size="14.00">t</text>
</g>
<!-- 6 -->
<g id="node9" class="node">
<title>6</title>
<polygon fill="#59cc3d" stroke="black" points="670.83,-586.71 497.83,-586.71 497.83,-508.71 670.83,-508.71 670.83,-586.71"/>
<text text-anchor="start" x="534.33" y="-572.51" font-family="Helvetica,sans-Serif" font-weight="bold" font-size="14.00"> Class=won </text>
<text text-anchor="start" x="629.33" y="-572.51" font-family="Helvetica,sans-Serif" font-size="14.00"> </text>
<text text-anchor="start" x="505.83" y="-558.51" font-family="Helvetica,sans-Serif" font-size="14.00"> error: 0.527, n=3196 </text>
<text text-anchor="start" x="529.33" y="-544.51" font-family="Helvetica,sans-Serif" font-size="14.00"> p: (0.12, 0.88) </text>
<text text-anchor="start" x="570.83" y="-530.51" font-family="Helvetica,sans-Serif" font-size="14.00">&#45;&#45;&#45;&#45;&#45;</text>
<text text-anchor="start" x="560.33" y="-516.51" font-family="Helvetica,sans-Serif" font-weight="bold" font-size="14.00">bkxbq</text>
</g>
<!-- 5&#45;&gt;6 -->
<g id="edge8" class="edge">
<title>5:s&#45;&gt;6:n</title>
<path fill="none" stroke="black" d="M901.33,-637.71C901.33,-637.71 648.78,-597.08 594.52,-588.35"/>
<polygon fill="black" stroke="black" points="594.76,-584.84 584.33,-586.71 593.65,-591.75 594.76,-584.84"/>
<text text-anchor="middle" x="784.33" y="-608.51" font-family="Helvetica,sans-Serif" font-size="14.00">f</text>
</g>
<!-- 15 -->
<g id="node10" class="node">
<title>15</title>
<polygon fill="#59cc3d" stroke="black" points="987.83,-586.71 814.83,-586.71 814.83,-508.71 987.83,-508.71 987.83,-586.71"/>
<text text-anchor="start" x="844.33" y="-572.51" font-family="Helvetica,sans-Serif" font-weight="bold" font-size="14.00"> Class=nowin </text>
<text text-anchor="start" x="953.33" y="-572.51" font-family="Helvetica,sans-Serif" font-size="14.00"> </text>
<text text-anchor="start" x="822.83" y="-558.51" font-family="Helvetica,sans-Serif" font-size="14.00"> error: 0.165, n=3196 </text>
<text text-anchor="start" x="846.33" y="-544.51" font-family="Helvetica,sans-Serif" font-size="14.00"> p: (0.98, 0.02) </text>
<text text-anchor="start" x="887.83" y="-530.51" font-family="Helvetica,sans-Serif" font-size="14.00">&#45;&#45;&#45;&#45;&#45;</text>
<text text-anchor="start" x="875.83" y="-516.51" font-family="Helvetica,sans-Serif" font-weight="bold" font-size="14.00">bknwy</text>
</g>
<!-- 5&#45;&gt;15 -->
<g id="edge9" class="edge">
<title>5:s&#45;&gt;15:n</title>
<path fill="none" stroke="black" d="M901.33,-637.71C901.33,-637.71 901.33,-611.93 901.33,-597.03"/>
<polygon fill="black" stroke="black" points="904.83,-596.71 901.33,-586.71 897.83,-596.71 904.83,-596.71"/>
<text text-anchor="middle" x="904.33" y="-608.51" font-family="Helvetica,sans-Serif" font-size="14.00">t</text>
</g>
<!-- 18 -->
<g id="node20" class="node">
<title>18</title>
<polygon fill="#59cc3d" stroke="black" points="1461.83,-586.71 1288.83,-586.71 1288.83,-508.71 1461.83,-508.71 1461.83,-586.71"/>
<text text-anchor="start" x="1318.33" y="-572.51" font-family="Helvetica,sans-Serif" font-weight="bold" font-size="14.00"> Class=nowin </text>
<text text-anchor="start" x="1427.33" y="-572.51" font-family="Helvetica,sans-Serif" font-size="14.00"> </text>
<text text-anchor="start" x="1296.83" y="-558.51" font-family="Helvetica,sans-Serif" font-size="14.00"> error: 0.647, n=3196 </text>
<text text-anchor="start" x="1320.33" y="-544.51" font-family="Helvetica,sans-Serif" font-size="14.00"> p: (0.83, 0.17) </text>
<text text-anchor="start" x="1361.83" y="-530.51" font-family="Helvetica,sans-Serif" font-size="14.00">&#45;&#45;&#45;&#45;&#45;</text>
<text text-anchor="start" x="1353.83" y="-516.51" font-family="Helvetica,sans-Serif" font-weight="bold" font-size="14.00">bkxcr</text>
</g>
<!-- 17&#45;&gt;18 -->
<g id="edge19" class="edge">
<title>17:s&#45;&gt;18:n</title>
<path fill="none" stroke="black" d="M1375.33,-637.71C1375.33,-637.71 1375.33,-611.93 1375.33,-597.03"/>
<polygon fill="black" stroke="black" points="1378.83,-596.71 1375.33,-586.71 1371.83,-596.71 1378.83,-596.71"/>
<text text-anchor="middle" x="1378.33" y="-608.51" font-family="Helvetica,sans-Serif" font-size="14.00">f</text>
</g>
<!-- 22 -->
<g id="node21" class="node">
<title>22</title>
<polygon fill="#59cc3d" stroke="black" points="1834.83,-586.71 1661.83,-586.71 1661.83,-508.71 1834.83,-508.71 1834.83,-586.71"/>
<text text-anchor="start" x="1691.33" y="-572.51" font-family="Helvetica,sans-Serif" font-weight="bold" font-size="14.00"> Class=nowin </text>
<text text-anchor="start" x="1800.33" y="-572.51" font-family="Helvetica,sans-Serif" font-size="14.00"> </text>
<text text-anchor="start" x="1669.83" y="-558.51" font-family="Helvetica,sans-Serif" font-size="14.00"> error: 0.079, n=3196 </text>
<text text-anchor="start" x="1693.33" y="-544.51" font-family="Helvetica,sans-Serif" font-size="14.00"> p: (0.99, 0.01) </text>
<text text-anchor="start" x="1734.83" y="-530.51" font-family="Helvetica,sans-Serif" font-size="14.00">&#45;&#45;&#45;&#45;&#45;</text>
<text text-anchor="start" x="1722.83" y="-516.51" font-family="Helvetica,sans-Serif" font-weight="bold" font-size="14.00">bknwy</text>
</g>
<!-- 17&#45;&gt;22 -->
<g id="edge20" class="edge">
<title>17:s&#45;&gt;22:n</title>
<path fill="none" stroke="black" d="M1375.33,-637.71C1375.33,-637.71 1679.04,-596.19 1738.35,-588.07"/>
<polygon fill="black" stroke="black" points="1738.9,-591.53 1748.33,-586.71 1737.95,-584.6 1738.9,-591.53"/>
<text text-anchor="middle" x="1609.33" y="-608.51" font-family="Helvetica,sans-Serif" font-size="14.00">t</text>
</g>
<!-- 7 -->
<g id="node11" class="node">
<title>7</title>
<polygon fill="#44e56d" stroke="black" points="389.83,-457.71 216.83,-457.71 216.83,-379.71 389.83,-379.71 389.83,-457.71"/>
<text text-anchor="start" x="253.33" y="-443.51" font-family="Helvetica,sans-Serif" font-weight="bold" font-size="14.00"> Class=won </text>
<text text-anchor="start" x="348.33" y="-443.51" font-family="Helvetica,sans-Serif" font-size="14.00"> </text>
<text text-anchor="start" x="224.83" y="-429.51" font-family="Helvetica,sans-Serif" font-size="14.00"> error: 0.799, n=3196 </text>
<text text-anchor="start" x="248.33" y="-415.51" font-family="Helvetica,sans-Serif" font-size="14.00"> p: (0.24, 0.76) </text>
<text text-anchor="start" x="289.83" y="-401.51" font-family="Helvetica,sans-Serif" font-size="14.00">&#45;&#45;&#45;&#45;&#45;</text>
<text text-anchor="start" x="278.33" y="-387.51" font-family="Helvetica,sans-Serif" font-weight="bold" font-size="14.00">wkpos</text>
</g>
<!-- 6&#45;&gt;7 -->
<g id="edge10" class="edge">
<title>6:s&#45;&gt;7:n</title>
<path fill="none" stroke="black" d="M584.33,-508.71C584.33,-508.71 363.39,-468.61 313.33,-459.53"/>
<polygon fill="black" stroke="black" points="313.79,-456.05 303.33,-457.71 312.54,-462.94 313.79,-456.05"/>
<text text-anchor="middle" x="480.33" y="-479.51" font-family="Helvetica,sans-Serif" font-size="14.00">f</text>
</g>
<!-- 14 -->
<g id="node12" class="node">
<title>14</title>
<ellipse fill="#44e56d" stroke="black" cx="584.33" cy="-418.71" rx="122.16" ry="35.21"/>
<text text-anchor="start" x="534.33" y="-429.51" font-family="Helvetica,sans-Serif" font-weight="bold" font-size="14.00"> Class=won </text>
<text text-anchor="start" x="629.33" y="-429.51" font-family="Helvetica,sans-Serif" font-size="14.00"> </text>
<text text-anchor="start" x="505.83" y="-415.51" font-family="Helvetica,sans-Serif" font-size="14.00"> error: 0.000, n=3196 </text>
<text text-anchor="start" x="529.33" y="-401.51" font-family="Helvetica,sans-Serif" font-size="14.00"> p: (0.00, 1.00) </text>
</g>
<!-- 6&#45;&gt;14 -->
<g id="edge11" class="edge">
<title>6:s&#45;&gt;14:n</title>
<path fill="none" stroke="black" d="M584.33,-508.71C584.33,-508.71 584.33,-481.33 584.33,-465.93"/>
<polygon fill="black" stroke="black" points="587.83,-465.71 584.33,-455.71 580.83,-465.71 587.83,-465.71"/>
<text text-anchor="middle" x="587.33" y="-479.51" font-family="Helvetica,sans-Serif" font-size="14.00">t</text>
</g>
<!-- 16 -->
<g id="node19" class="node">
<title>16</title>
<ellipse fill="#44e56d" stroke="black" cx="901.33" cy="-418.71" rx="122.16" ry="35.21"/>
<text text-anchor="start" x="844.33" y="-429.51" font-family="Helvetica,sans-Serif" font-weight="bold" font-size="14.00"> Class=nowin </text>
<text text-anchor="start" x="953.33" y="-429.51" font-family="Helvetica,sans-Serif" font-size="14.00"> </text>
<text text-anchor="start" x="822.83" y="-415.51" font-family="Helvetica,sans-Serif" font-size="14.00"> error: 0.000, n=3196 </text>
<text text-anchor="start" x="846.33" y="-401.51" font-family="Helvetica,sans-Serif" font-size="14.00"> p: (1.00, 0.00) </text>
</g>
<!-- 15&#45;&gt;16 -->
<g id="edge18" class="edge">
<title>15:s&#45;&gt;16:n</title>
<path fill="none" stroke="black" d="M901.33,-508.71C901.33,-508.71 901.33,-481.33 901.33,-465.93"/>
<polygon fill="black" stroke="black" points="904.83,-465.71 901.33,-455.71 897.83,-465.71 904.83,-465.71"/>
<text text-anchor="middle" x="904.33" y="-479.51" font-family="Helvetica,sans-Serif" font-size="14.00">f</text>
</g>
<!-- 8 -->
<g id="node13" class="node">
<title>8</title>
<polygon fill="#3dcca1" stroke="black" points="226.83,-328.71 53.83,-328.71 53.83,-250.71 226.83,-250.71 226.83,-328.71"/>
<text text-anchor="start" x="90.33" y="-314.51" font-family="Helvetica,sans-Serif" font-weight="bold" font-size="14.00"> Class=won </text>
<text text-anchor="start" x="185.33" y="-314.51" font-family="Helvetica,sans-Serif" font-size="14.00"> </text>
<text text-anchor="start" x="61.83" y="-300.51" font-family="Helvetica,sans-Serif" font-size="14.00"> error: 0.471, n=3196 </text>
<text text-anchor="start" x="85.33" y="-286.51" font-family="Helvetica,sans-Serif" font-size="14.00"> p: (0.10, 0.90) </text>
<text text-anchor="start" x="126.83" y="-272.51" font-family="Helvetica,sans-Serif" font-size="14.00">&#45;&#45;&#45;&#45;&#45;</text>
<text text-anchor="start" x="121.83" y="-258.51" font-family="Helvetica,sans-Serif" font-weight="bold" font-size="14.00">katri</text>
</g>
<!-- 7&#45;&gt;8 -->
<g id="edge12" class="edge">
<title>7:s&#45;&gt;8:n</title>
<path fill="none" stroke="black" d="M303.33,-379.71C303.33,-379.71 185.13,-342.73 150.04,-331.75"/>
<polygon fill="black" stroke="black" points="150.92,-328.36 140.33,-328.71 148.83,-335.04 150.92,-328.36"/>
<text text-anchor="middle" x="244.33" y="-350.51" font-family="Helvetica,sans-Serif" font-size="14.00">t</text>
</g>
<!-- 11 -->
<g id="node14" class="node">
<title>11</title>
<polygon fill="#3dcca1" stroke="black" points="489.83,-328.71 316.83,-328.71 316.83,-250.71 489.83,-250.71 489.83,-328.71"/>
<text text-anchor="start" x="346.33" y="-314.51" font-family="Helvetica,sans-Serif" font-weight="bold" font-size="14.00"> Class=nowin </text>
<text text-anchor="start" x="455.33" y="-314.51" font-family="Helvetica,sans-Serif" font-size="14.00"> </text>
<text text-anchor="start" x="324.83" y="-300.51" font-family="Helvetica,sans-Serif" font-size="14.00"> error: 1.000, n=3196 </text>
<text text-anchor="start" x="348.33" y="-286.51" font-family="Helvetica,sans-Serif" font-size="14.00"> p: (0.51, 0.49) </text>
<text text-anchor="start" x="389.83" y="-272.51" font-family="Helvetica,sans-Serif" font-size="14.00">&#45;&#45;&#45;&#45;&#45;</text>
<text text-anchor="start" x="384.83" y="-258.51" font-family="Helvetica,sans-Serif" font-weight="bold" font-size="14.00">katri</text>
</g>
<!-- 7&#45;&gt;11 -->
<g id="edge13" class="edge">
<title>7:s&#45;&gt;11:n</title>
<path fill="none" stroke="black" d="M303.33,-379.71C303.33,-379.71 369.35,-346.04 394.1,-333.42"/>
<polygon fill="black" stroke="black" points="396.01,-336.37 403.33,-328.71 392.83,-330.14 396.01,-336.37"/>
<text text-anchor="middle" x="368.33" y="-350.51" font-family="Helvetica,sans-Serif" font-size="14.00">f</text>
</g>
<!-- 9 -->
<g id="node15" class="node">
<title>9</title>
<polygon fill="#44cde5" stroke="black" points="226.83,-199.71 53.83,-199.71 53.83,-121.71 226.83,-121.71 226.83,-199.71"/>
<text text-anchor="start" x="90.33" y="-185.51" font-family="Helvetica,sans-Serif" font-weight="bold" font-size="14.00"> Class=won </text>
<text text-anchor="start" x="185.33" y="-185.51" font-family="Helvetica,sans-Serif" font-size="14.00"> </text>
<text text-anchor="start" x="61.83" y="-171.51" font-family="Helvetica,sans-Serif" font-size="14.00"> error: 0.315, n=3196 </text>
<text text-anchor="start" x="85.33" y="-157.51" font-family="Helvetica,sans-Serif" font-size="14.00"> p: (0.06, 0.94) </text>
<text text-anchor="start" x="126.83" y="-143.51" font-family="Helvetica,sans-Serif" font-size="14.00">&#45;&#45;&#45;&#45;&#45;</text>
<text text-anchor="start" x="115.83" y="-129.51" font-family="Helvetica,sans-Serif" font-weight="bold" font-size="14.00">rxmsq</text>
</g>
<!-- 8&#45;&gt;9 -->
<g id="edge14" class="edge">
<title>8:s&#45;&gt;9:n</title>
<path fill="none" stroke="black" d="M140.33,-250.71C140.33,-250.71 140.33,-224.93 140.33,-210.03"/>
<polygon fill="black" stroke="black" points="143.83,-209.71 140.33,-199.71 136.83,-209.71 143.83,-209.71"/>
<text text-anchor="middle" x="145.33" y="-221.51" font-family="Helvetica,sans-Serif" font-size="14.00">n</text>
</g>
<!-- 12 -->
<g id="node17" class="node">
<title>12</title>
<polygon fill="#44cde5" stroke="black" points="507.83,-199.71 334.83,-199.71 334.83,-121.71 507.83,-121.71 507.83,-199.71"/>
<text text-anchor="start" x="364.33" y="-185.51" font-family="Helvetica,sans-Serif" font-weight="bold" font-size="14.00"> Class=nowin </text>
<text text-anchor="start" x="473.33" y="-185.51" font-family="Helvetica,sans-Serif" font-size="14.00"> </text>
<text text-anchor="start" x="342.83" y="-171.51" font-family="Helvetica,sans-Serif" font-size="14.00"> error: 0.796, n=3196 </text>
<text text-anchor="start" x="366.33" y="-157.51" font-family="Helvetica,sans-Serif" font-size="14.00"> p: (0.76, 0.24) </text>
<text text-anchor="start" x="407.83" y="-143.51" font-family="Helvetica,sans-Serif" font-size="14.00">&#45;&#45;&#45;&#45;&#45;</text>
<text text-anchor="start" x="399.83" y="-129.51" font-family="Helvetica,sans-Serif" font-weight="bold" font-size="14.00">bkblk</text>
</g>
<!-- 11&#45;&gt;12 -->
<g id="edge16" class="edge">
<title>11:s&#45;&gt;12:n</title>
<path fill="none" stroke="black" d="M403.33,-250.71C403.33,-250.71 412.63,-224.36 417.86,-209.54"/>
<polygon fill="black" stroke="black" points="421.3,-210.31 421.33,-199.71 414.7,-207.98 421.3,-210.31"/>
<text text-anchor="middle" x="420.33" y="-221.51" font-family="Helvetica,sans-Serif" font-size="14.00">n</text>
</g>
<!-- 10 -->
<g id="node16" class="node">
<title>10</title>
<ellipse fill="#3d76cc" stroke="black" cx="122.33" cy="-35.36" rx="122.16" ry="35.21"/>
<text text-anchor="start" x="72.33" y="-46.16" font-family="Helvetica,sans-Serif" font-weight="bold" font-size="14.00"> Class=won </text>
<text text-anchor="start" x="167.33" y="-46.16" font-family="Helvetica,sans-Serif" font-size="14.00"> </text>
<text text-anchor="start" x="43.83" y="-32.16" font-family="Helvetica,sans-Serif" font-size="14.00"> error: 0.066, n=3196 </text>
<text text-anchor="start" x="67.33" y="-18.16" font-family="Helvetica,sans-Serif" font-size="14.00"> p: (0.01, 0.99) </text>
</g>
<!-- 9&#45;&gt;10 -->
<g id="edge15" class="edge">
<title>9:s&#45;&gt;10:n</title>
<path fill="none" stroke="black" d="M140.33,-121.71C140.33,-121.71 131.03,-95.36 125.8,-80.54"/>
<polygon fill="black" stroke="black" points="128.96,-78.98 122.33,-70.71 122.36,-81.31 128.96,-78.98"/>
<text text-anchor="middle" x="137.33" y="-92.51" font-family="Helvetica,sans-Serif" font-size="14.00">f</text>
</g>
<!-- 13 -->
<g id="node18" class="node">
<title>13</title>
<ellipse fill="#3d76cc" stroke="black" cx="439.33" cy="-35.36" rx="122.16" ry="35.21"/>
<text text-anchor="start" x="382.33" y="-46.16" font-family="Helvetica,sans-Serif" font-weight="bold" font-size="14.00"> Class=nowin </text>
<text text-anchor="start" x="491.33" y="-46.16" font-family="Helvetica,sans-Serif" font-size="14.00"> </text>
<text text-anchor="start" x="360.83" y="-32.16" font-family="Helvetica,sans-Serif" font-size="14.00"> error: 0.281, n=3196 </text>
<text text-anchor="start" x="384.33" y="-18.16" font-family="Helvetica,sans-Serif" font-size="14.00"> p: (0.95, 0.05) </text>
</g>
<!-- 12&#45;&gt;13 -->
<g id="edge17" class="edge">
<title>12:s&#45;&gt;13:n</title>
<path fill="none" stroke="black" d="M421.33,-121.71C421.33,-121.71 430.63,-95.36 435.86,-80.54"/>
<polygon fill="black" stroke="black" points="439.3,-81.31 439.33,-70.71 432.7,-78.98 439.3,-81.31"/>
<text text-anchor="middle" x="436.33" y="-92.51" font-family="Helvetica,sans-Serif" font-size="14.00">f</text>
</g>
<!-- 19 -->
<g id="node22" class="node">
<title>19</title>
<polygon fill="#44e56d" stroke="black" points="1268.83,-457.71 1095.83,-457.71 1095.83,-379.71 1268.83,-379.71 1268.83,-457.71"/>
<text text-anchor="start" x="1125.33" y="-443.51" font-family="Helvetica,sans-Serif" font-weight="bold" font-size="14.00"> Class=nowin </text>
<text text-anchor="start" x="1234.33" y="-443.51" font-family="Helvetica,sans-Serif" font-size="14.00"> </text>
<text text-anchor="start" x="1103.83" y="-429.51" font-family="Helvetica,sans-Serif" font-size="14.00"> error: 0.885, n=3196 </text>
<text text-anchor="start" x="1127.33" y="-415.51" font-family="Helvetica,sans-Serif" font-size="14.00"> p: (0.70, 0.30) </text>
<text text-anchor="start" x="1168.83" y="-401.51" font-family="Helvetica,sans-Serif" font-size="14.00">&#45;&#45;&#45;&#45;&#45;</text>
<text text-anchor="start" x="1160.83" y="-387.51" font-family="Helvetica,sans-Serif" font-weight="bold" font-size="14.00">skrxp</text>
</g>
<!-- 18&#45;&gt;19 -->
<g id="edge21" class="edge">
<title>18:s&#45;&gt;19:n</title>
<path fill="none" stroke="black" d="M1375.33,-508.71C1375.33,-508.71 1231.5,-470.7 1192.17,-460.31"/>
<polygon fill="black" stroke="black" points="1192.89,-456.88 1182.33,-457.71 1191.1,-463.65 1192.89,-456.88"/>
<text text-anchor="middle" x="1305.33" y="-479.51" font-family="Helvetica,sans-Serif" font-size="14.00">f</text>
</g>
<!-- 21 -->
<g id="node23" class="node">
<title>21</title>
<ellipse fill="#44e56d" stroke="black" cx="1463.33" cy="-418.71" rx="122.16" ry="35.21"/>
<text text-anchor="start" x="1406.33" y="-429.51" font-family="Helvetica,sans-Serif" font-weight="bold" font-size="14.00"> Class=nowin </text>
<text text-anchor="start" x="1515.33" y="-429.51" font-family="Helvetica,sans-Serif" font-size="14.00"> </text>
<text text-anchor="start" x="1384.83" y="-415.51" font-family="Helvetica,sans-Serif" font-size="14.00"> error: 0.000, n=3196 </text>
<text text-anchor="start" x="1408.33" y="-401.51" font-family="Helvetica,sans-Serif" font-size="14.00"> p: (1.00, 0.00) </text>
</g>
<!-- 18&#45;&gt;21 -->
<g id="edge22" class="edge">
<title>18:s&#45;&gt;21:n</title>
<path fill="none" stroke="black" d="M1375.33,-508.71C1375.33,-508.71 1432.31,-474.39 1454.57,-460.99"/>
<polygon fill="black" stroke="black" points="1456.57,-463.87 1463.33,-455.71 1452.96,-457.87 1456.57,-463.87"/>
<text text-anchor="middle" x="1433.33" y="-479.51" font-family="Helvetica,sans-Serif" font-size="14.00">t</text>
</g>
<!-- 23 -->
<g id="node25" class="node">
<title>23</title>
<ellipse fill="#44e56d" stroke="black" cx="1780.33" cy="-418.71" rx="122.16" ry="35.21"/>
<text text-anchor="start" x="1723.33" y="-429.51" font-family="Helvetica,sans-Serif" font-weight="bold" font-size="14.00"> Class=nowin </text>
<text text-anchor="start" x="1832.33" y="-429.51" font-family="Helvetica,sans-Serif" font-size="14.00"> </text>
<text text-anchor="start" x="1701.83" y="-415.51" font-family="Helvetica,sans-Serif" font-size="14.00"> error: 0.000, n=3196 </text>
<text text-anchor="start" x="1725.33" y="-401.51" font-family="Helvetica,sans-Serif" font-size="14.00"> p: (1.00, 0.00) </text>
</g>
<!-- 22&#45;&gt;23 -->
<g id="edge24" class="edge">
<title>22:s&#45;&gt;23:n</title>
<path fill="none" stroke="black" d="M1748.33,-508.71C1748.33,-508.71 1765.96,-479.52 1775.05,-464.46"/>
<polygon fill="black" stroke="black" points="1778.16,-466.08 1780.33,-455.71 1772.16,-462.46 1778.16,-466.08"/>
<text text-anchor="middle" x="1770.33" y="-479.51" font-family="Helvetica,sans-Serif" font-size="14.00">f</text>
</g>
<!-- 20 -->
<g id="node24" class="node">
<title>20</title>
<ellipse fill="#3dcca1" stroke="black" cx="1182.33" cy="-289.71" rx="122.16" ry="35.21"/>
<text text-anchor="start" x="1125.33" y="-300.51" font-family="Helvetica,sans-Serif" font-weight="bold" font-size="14.00"> Class=nowin </text>
<text text-anchor="start" x="1234.33" y="-300.51" font-family="Helvetica,sans-Serif" font-size="14.00"> </text>
<text text-anchor="start" x="1103.83" y="-286.51" font-family="Helvetica,sans-Serif" font-size="14.00"> error: 0.986, n=3196 </text>
<text text-anchor="start" x="1127.33" y="-272.51" font-family="Helvetica,sans-Serif" font-size="14.00"> p: (0.57, 0.43) </text>
</g>
<!-- 19&#45;&gt;20 -->
<g id="edge23" class="edge">
<title>19:s&#45;&gt;20:n</title>
<path fill="none" stroke="black" d="M1182.33,-379.71C1182.33,-379.71 1182.33,-352.33 1182.33,-336.93"/>
<polygon fill="black" stroke="black" points="1185.83,-336.71 1182.33,-326.71 1178.83,-336.71 1185.83,-336.71"/>
<text text-anchor="middle" x="1185.33" y="-350.51" font-family="Helvetica,sans-Serif" font-size="14.00">f</text>
</g>
</g>
</svg>
