<?xml version="1.0" encoding="UTF-8" standalone="no"?>
<!DOCTYPE svg PUBLIC "-//W3C//DTD SVG 1.1//EN"
 "http://www.w3.org/Graphics/SVG/1.1/DTD/svg11.dtd">
<!-- Generated by graphviz version 2.43.0 (0)
 -->
<!-- Title: Tree Pages: 1 -->
<svg width="1362pt" height="954pt"
 viewBox="0.00 0.00 1361.66 953.71" xmlns="http://www.w3.org/2000/svg" xmlns:xlink="http://www.w3.org/1999/xlink">
<g id="graph0" class="graph" transform="scale(1 1) rotate(0) translate(18 935.71)">
<title>Tree</title>
<polygon fill="white" stroke="transparent" points="-18,18 -18,-935.71 1343.66,-935.71 1343.66,18 -18,18"/>
<!-- 0 -->
<g id="node1" class="node">
<title>0</title>
<polygon fill="white" stroke="transparent" points="764.33,-917.71 710.33,-917.71 710.33,-881.71 764.33,-881.71 764.33,-917.71"/>
<text text-anchor="middle" x="737.33" y="-896.01" font-family="Helvetica,sans-Serif" font-size="14.00">0</text>
</g>
<!-- 1 -->
<g id="node2" class="node">
<title>1</title>
<polygon fill="#cc3d3d" stroke="black" points="823.83,-844.71 650.83,-844.71 650.83,-766.71 823.83,-766.71 823.83,-844.71"/>
<text text-anchor="start" x="698.33" y="-830.51" font-family="Helvetica,sans-Serif" font-weight="bold" font-size="14.00"> Class=1 </text>
<text text-anchor="start" x="771.33" y="-830.51" font-family="Helvetica,sans-Serif" font-size="14.00"> </text>
<text text-anchor="start" x="658.83" y="-816.51" font-family="Helvetica,sans-Serif" font-size="14.00"> error: 1.000, n=2600 </text>
<text text-anchor="start" x="682.33" y="-802.51" font-family="Helvetica,sans-Serif" font-size="14.00"> p: (0.50, 0.50) </text>
<text text-anchor="start" x="715.83" y="-788.51" font-family="Helvetica,sans-Serif" font-size="14.00">&#45;&#45;&#45;&#45;&#45;&#45;&#45;&#45;</text>
<text text-anchor="start" x="700.83" y="-774.51" font-family="Helvetica,sans-Serif" font-weight="bold" font-size="14.00">v_1=0.09</text>
</g>
<!-- 0&#45;&gt;1 -->
<!-- 2 -->
<g id="node3" class="node">
<title>2</title>
<polygon fill="#e5a544" stroke="black" points="683.83,-715.71 510.83,-715.71 510.83,-637.71 683.83,-637.71 683.83,-715.71"/>
<text text-anchor="start" x="558.33" y="-701.51" font-family="Helvetica,sans-Serif" font-weight="bold" font-size="14.00"> Class=2 </text>
<text text-anchor="start" x="631.33" y="-701.51" font-family="Helvetica,sans-Serif" font-size="14.00"> </text>
<text text-anchor="start" x="518.83" y="-687.51" font-family="Helvetica,sans-Serif" font-size="14.00"> error: 0.967, n=2600 </text>
<text text-anchor="start" x="542.33" y="-673.51" font-family="Helvetica,sans-Serif" font-size="14.00"> p: (0.39, 0.61) </text>
<text text-anchor="start" x="575.83" y="-659.51" font-family="Helvetica,sans-Serif" font-size="14.00">&#45;&#45;&#45;&#45;&#45;&#45;&#45;&#45;</text>
<text text-anchor="start" x="560.83" y="-645.51" font-family="Helvetica,sans-Serif" font-weight="bold" font-size="14.00">v_4=0.01</text>
</g>
<!-- 1&#45;&gt;2 -->
<g id="edge2" class="edge">
<title>1:s&#45;&gt;2:n</title>
<path fill="none" stroke="black" d="M737.33,-766.71C737.33,-766.71 638.58,-730.74 606.95,-719.22"/>
<polygon fill="black" stroke="black" points="607.92,-715.84 597.33,-715.71 605.53,-722.42 607.92,-715.84"/>
<text text-anchor="middle" x="720.33" y="-737.51" font-family="Helvetica,sans-Serif" font-size="14.00">&gt; &#45;0.4396</text>
</g>
<!-- 15 -->
<g id="node4" class="node">
<title>15</title>
<ellipse fill="#e5a544" stroke="black" cx="878.33" cy="-676.71" rx="122.16" ry="35.21"/>
<text text-anchor="start" x="839.33" y="-687.51" font-family="Helvetica,sans-Serif" font-weight="bold" font-size="14.00"> Class=1 </text>
<text text-anchor="start" x="912.33" y="-687.51" font-family="Helvetica,sans-Serif" font-size="14.00"> </text>
<text text-anchor="start" x="799.83" y="-673.51" font-family="Helvetica,sans-Serif" font-size="14.00"> error: 0.968, n=2600 </text>
<text text-anchor="start" x="823.33" y="-659.51" font-family="Helvetica,sans-Serif" font-size="14.00"> p: (0.61, 0.39) </text>
</g>
<!-- 1&#45;&gt;15 -->
<g id="edge3" class="edge">
<title>1:s&#45;&gt;15:n</title>
<path fill="none" stroke="black" d="M737.33,-766.71C737.33,-766.71 836.78,-729.33 868.64,-717.35"/>
<polygon fill="black" stroke="black" points="870.2,-720.51 878.33,-713.71 867.74,-713.95 870.2,-720.51"/>
<text text-anchor="middle" x="867.33" y="-737.51" font-family="Helvetica,sans-Serif" font-size="14.00">&lt;= &#45;0.4396</text>
</g>
<!-- 3 -->
<g id="node5" class="node">
<title>3</title>
<polygon fill="#afcc3d" stroke="black" points="525.83,-586.71 352.83,-586.71 352.83,-508.71 525.83,-508.71 525.83,-586.71"/>
<text text-anchor="start" x="400.33" y="-572.51" font-family="Helvetica,sans-Serif" font-weight="bold" font-size="14.00"> Class=2 </text>
<text text-anchor="start" x="473.33" y="-572.51" font-family="Helvetica,sans-Serif" font-size="14.00"> </text>
<text text-anchor="start" x="360.83" y="-558.51" font-family="Helvetica,sans-Serif" font-size="14.00"> error: 0.763, n=2600 </text>
<text text-anchor="start" x="384.33" y="-544.51" font-family="Helvetica,sans-Serif" font-size="14.00"> p: (0.22, 0.78) </text>
<text text-anchor="start" x="417.83" y="-530.51" font-family="Helvetica,sans-Serif" font-size="14.00">&#45;&#45;&#45;&#45;&#45;&#45;&#45;&#45;</text>
<text text-anchor="start" x="402.83" y="-516.51" font-family="Helvetica,sans-Serif" font-weight="bold" font-size="14.00">v_2=0.05</text>
</g>
<!-- 2&#45;&gt;3 -->
<g id="edge4" class="edge">
<title>2:s&#45;&gt;3:n</title>
<path fill="none" stroke="black" d="M597.33,-637.71C597.33,-637.71 483.8,-601.07 449.21,-589.9"/>
<polygon fill="black" stroke="black" points="449.92,-586.45 439.33,-586.71 447.77,-593.11 449.92,-586.45"/>
<text text-anchor="middle" x="574.83" y="-608.51" font-family="Helvetica,sans-Serif" font-size="14.00">&lt;= &#45;50.01</text>
</g>
<!-- 6 -->
<g id="node6" class="node">
<title>6</title>
<polygon fill="#afcc3d" stroke="black" points="842.83,-586.71 669.83,-586.71 669.83,-508.71 842.83,-508.71 842.83,-586.71"/>
<text text-anchor="start" x="717.33" y="-572.51" font-family="Helvetica,sans-Serif" font-weight="bold" font-size="14.00"> Class=2 </text>
<text text-anchor="start" x="790.33" y="-572.51" font-family="Helvetica,sans-Serif" font-size="14.00"> </text>
<text text-anchor="start" x="677.83" y="-558.51" font-family="Helvetica,sans-Serif" font-size="14.00"> error: 0.993, n=2600 </text>
<text text-anchor="start" x="701.33" y="-544.51" font-family="Helvetica,sans-Serif" font-size="14.00"> p: (0.45, 0.55) </text>
<text text-anchor="start" x="734.83" y="-530.51" font-family="Helvetica,sans-Serif" font-size="14.00">&#45;&#45;&#45;&#45;&#45;&#45;&#45;&#45;</text>
<text text-anchor="start" x="719.83" y="-516.51" font-family="Helvetica,sans-Serif" font-weight="bold" font-size="14.00">v_3=0.02</text>
</g>
<!-- 2&#45;&gt;6 -->
<g id="edge5" class="edge">
<title>2:s&#45;&gt;6:n</title>
<path fill="none" stroke="black" d="M597.33,-637.71C597.33,-637.71 711.57,-601.07 746.38,-589.9"/>
<polygon fill="black" stroke="black" points="747.88,-593.1 756.33,-586.71 745.74,-586.43 747.88,-593.1"/>
<text text-anchor="middle" x="727.83" y="-608.51" font-family="Helvetica,sans-Serif" font-size="14.00">&gt; &#45;50.01</text>
</g>
<!-- 4 -->
<g id="node7" class="node">
<title>4</title>
<ellipse fill="#64e544" stroke="black" cx="122.33" cy="-418.71" rx="122.16" ry="35.21"/>
<text text-anchor="start" x="83.33" y="-429.51" font-family="Helvetica,sans-Serif" font-weight="bold" font-size="14.00"> Class=2 </text>
<text text-anchor="start" x="156.33" y="-429.51" font-family="Helvetica,sans-Serif" font-size="14.00"> </text>
<text text-anchor="start" x="43.83" y="-415.51" font-family="Helvetica,sans-Serif" font-size="14.00"> error: 0.526, n=2600 </text>
<text text-anchor="start" x="67.33" y="-401.51" font-family="Helvetica,sans-Serif" font-size="14.00"> p: (0.12, 0.88) </text>
</g>
<!-- 3&#45;&gt;4 -->
<g id="edge6" class="edge">
<title>3:s&#45;&gt;4:n</title>
<path fill="none" stroke="black" d="M439.33,-508.71C439.33,-508.71 186.78,-466.49 132.52,-457.41"/>
<polygon fill="black" stroke="black" points="132.77,-453.91 122.33,-455.71 131.62,-460.81 132.77,-453.91"/>
<text text-anchor="middle" x="356.33" y="-479.51" font-family="Helvetica,sans-Serif" font-size="14.00">&lt;= 104</text>
</g>
<!-- 5 -->
<g id="node8" class="node">
<title>5</title>
<ellipse fill="#64e544" stroke="black" cx="439.33" cy="-418.71" rx="122.16" ry="35.21"/>
<text text-anchor="start" x="400.33" y="-429.51" font-family="Helvetica,sans-Serif" font-weight="bold" font-size="14.00"> Class=1 </text>
<text text-anchor="start" x="473.33" y="-429.51" font-family="Helvetica,sans-Serif" font-size="14.00"> </text>
<text text-anchor="start" x="360.83" y="-415.51" font-family="Helvetica,sans-Serif" font-size="14.00"> error: 0.997, n=2600 </text>
<text text-anchor="start" x="384.33" y="-401.51" font-family="Helvetica,sans-Serif" font-size="14.00"> p: (0.53, 0.47) </text>
</g>
<!-- 3&#45;&gt;5 -->
<g id="edge7" class="edge">
<title>3:s&#45;&gt;5:n</title>
<path fill="none" stroke="black" d="M439.33,-508.71C439.33,-508.71 439.33,-481.33 439.33,-465.93"/>
<polygon fill="black" stroke="black" points="442.83,-465.71 439.33,-455.71 435.83,-465.71 442.83,-465.71"/>
<text text-anchor="middle" x="461.33" y="-479.51" font-family="Helvetica,sans-Serif" font-size="14.00">&gt; 104</text>
</g>
<!-- 7 -->
<g id="node9" class="node">
<title>7</title>
<ellipse fill="#64e544" stroke="black" cx="756.33" cy="-418.71" rx="122.16" ry="35.21"/>
<text text-anchor="start" x="717.33" y="-429.51" font-family="Helvetica,sans-Serif" font-weight="bold" font-size="14.00"> Class=1 </text>
<text text-anchor="start" x="790.33" y="-429.51" font-family="Helvetica,sans-Serif" font-size="14.00"> </text>
<text text-anchor="start" x="677.83" y="-415.51" font-family="Helvetica,sans-Serif" font-size="14.00"> error: 0.999, n=2600 </text>
<text text-anchor="start" x="701.33" y="-401.51" font-family="Helvetica,sans-Serif" font-size="14.00"> p: (0.52, 0.48) </text>
</g>
<!-- 6&#45;&gt;7 -->
<g id="edge8" class="edge">
<title>6:s&#45;&gt;7:n</title>
<path fill="none" stroke="black" d="M756.33,-508.71C756.33,-508.71 756.33,-481.33 756.33,-465.93"/>
<polygon fill="black" stroke="black" points="759.83,-465.71 756.33,-455.71 752.83,-465.71 759.83,-465.71"/>
<text text-anchor="middle" x="791.33" y="-479.51" font-family="Helvetica,sans-Serif" font-size="14.00">&lt;= 78.97</text>
</g>
<!-- 8 -->
<g id="node10" class="node">
<title>8</title>
<polygon fill="#64e544" stroke="black" points="1123.83,-457.71 950.83,-457.71 950.83,-379.71 1123.83,-379.71 1123.83,-457.71"/>
<text text-anchor="start" x="998.33" y="-443.51" font-family="Helvetica,sans-Serif" font-weight="bold" font-size="14.00"> Class=2 </text>
<text text-anchor="start" x="1071.33" y="-443.51" font-family="Helvetica,sans-Serif" font-size="14.00"> </text>
<text text-anchor="start" x="958.83" y="-429.51" font-family="Helvetica,sans-Serif" font-size="14.00"> error: 0.811, n=2600 </text>
<text text-anchor="start" x="982.33" y="-415.51" font-family="Helvetica,sans-Serif" font-size="14.00"> p: (0.25, 0.75) </text>
<text text-anchor="start" x="1015.83" y="-401.51" font-family="Helvetica,sans-Serif" font-size="14.00">&#45;&#45;&#45;&#45;&#45;&#45;&#45;&#45;</text>
<text text-anchor="start" x="1000.83" y="-387.51" font-family="Helvetica,sans-Serif" font-weight="bold" font-size="14.00">v_0=0.10</text>
</g>
<!-- 6&#45;&gt;8 -->
<g id="edge9" class="edge">
<title>6:s&#45;&gt;8:n</title>
<path fill="none" stroke="black" d="M756.33,-508.71C756.33,-508.71 977.27,-468.61 1027.33,-459.53"/>
<polygon fill="black" stroke="black" points="1028.12,-462.94 1037.33,-457.71 1026.87,-456.05 1028.12,-462.94"/>
<text text-anchor="middle" x="959.33" y="-479.51" font-family="Helvetica,sans-Serif" font-size="14.00">&gt; 78.97</text>
</g>
<!-- 9 -->
<g id="node11" class="node">
<title>9</title>
<polygon fill="#3dcc76" stroke="black" points="990.83,-328.71 817.83,-328.71 817.83,-250.71 990.83,-250.71 990.83,-328.71"/>
<text text-anchor="start" x="865.33" y="-314.51" font-family="Helvetica,sans-Serif" font-weight="bold" font-size="14.00"> Class=2 </text>
<text text-anchor="start" x="938.33" y="-314.51" font-family="Helvetica,sans-Serif" font-size="14.00"> </text>
<text text-anchor="start" x="825.83" y="-300.51" font-family="Helvetica,sans-Serif" font-size="14.00"> error: 0.970, n=2600 </text>
<text text-anchor="start" x="849.33" y="-286.51" font-family="Helvetica,sans-Serif" font-size="14.00"> p: (0.40, 0.60) </text>
<text text-anchor="start" x="882.83" y="-272.51" font-family="Helvetica,sans-Serif" font-size="14.00">&#45;&#45;&#45;&#45;&#45;&#45;&#45;&#45;</text>
<text text-anchor="start" x="867.83" y="-258.51" font-family="Helvetica,sans-Serif" font-weight="bold" font-size="14.00">v_1=0.09</text>
</g>
<!-- 8&#45;&gt;9 -->
<g id="edge10" class="edge">
<title>8:s&#45;&gt;9:n</title>
<path fill="none" stroke="black" d="M1037.33,-379.71C1037.33,-379.71 944.39,-344.07 913.89,-332.38"/>
<polygon fill="black" stroke="black" points="914.92,-329.02 904.33,-328.71 912.41,-335.56 914.92,-329.02"/>
<text text-anchor="middle" x="1024.83" y="-350.51" font-family="Helvetica,sans-Serif" font-size="14.00">&lt;= &#45;21.26</text>
</g>
<!-- 12 -->
<g id="node12" class="node">
<title>12</title>
<polygon fill="#3dcc76" stroke="black" points="1235.83,-328.71 1062.83,-328.71 1062.83,-250.71 1235.83,-250.71 1235.83,-328.71"/>
<text text-anchor="start" x="1110.33" y="-314.51" font-family="Helvetica,sans-Serif" font-weight="bold" font-size="14.00"> Class=2 </text>
<text text-anchor="start" x="1183.33" y="-314.51" font-family="Helvetica,sans-Serif" font-size="14.00"> </text>
<text text-anchor="start" x="1070.83" y="-300.51" font-family="Helvetica,sans-Serif" font-size="14.00"> error: 0.466, n=2600 </text>
<text text-anchor="start" x="1094.33" y="-286.51" font-family="Helvetica,sans-Serif" font-size="14.00"> p: (0.10, 0.90) </text>
<text text-anchor="start" x="1127.83" y="-272.51" font-family="Helvetica,sans-Serif" font-size="14.00">&#45;&#45;&#45;&#45;&#45;&#45;&#45;&#45;</text>
<text text-anchor="start" x="1112.83" y="-258.51" font-family="Helvetica,sans-Serif" font-weight="bold" font-size="14.00">v_4=0.01</text>
</g>
<!-- 8&#45;&gt;12 -->
<g id="edge11" class="edge">
<title>8:s&#45;&gt;12:n</title>
<path fill="none" stroke="black" d="M1037.33,-379.71C1037.33,-379.71 1113.42,-345.06 1140.16,-332.88"/>
<polygon fill="black" stroke="black" points="1141.68,-336.04 1149.33,-328.71 1138.78,-329.67 1141.68,-336.04"/>
<text text-anchor="middle" x="1138.83" y="-350.51" font-family="Helvetica,sans-Serif" font-size="14.00">&gt; &#45;21.26</text>
</g>
<!-- 10 -->
<g id="node13" class="node">
<title>10</title>
<polygon fill="#44e5e5" stroke="black" points="990.83,-199.71 817.83,-199.71 817.83,-121.71 990.83,-121.71 990.83,-199.71"/>
<text text-anchor="start" x="865.33" y="-185.51" font-family="Helvetica,sans-Serif" font-weight="bold" font-size="14.00"> Class=2 </text>
<text text-anchor="start" x="938.33" y="-185.51" font-family="Helvetica,sans-Serif" font-size="14.00"> </text>
<text text-anchor="start" x="825.83" y="-171.51" font-family="Helvetica,sans-Serif" font-size="14.00"> error: 0.828, n=2600 </text>
<text text-anchor="start" x="849.33" y="-157.51" font-family="Helvetica,sans-Serif" font-size="14.00"> p: (0.26, 0.74) </text>
<text text-anchor="start" x="882.83" y="-143.51" font-family="Helvetica,sans-Serif" font-size="14.00">&#45;&#45;&#45;&#45;&#45;&#45;&#45;&#45;</text>
<text text-anchor="start" x="867.83" y="-129.51" font-family="Helvetica,sans-Serif" font-weight="bold" font-size="14.00">v_0=0.10</text>
</g>
<!-- 9&#45;&gt;10 -->
<g id="edge12" class="edge">
<title>9:s&#45;&gt;10:n</title>
<path fill="none" stroke="black" d="M904.33,-250.71C904.33,-250.71 904.33,-224.93 904.33,-210.03"/>
<polygon fill="black" stroke="black" points="907.83,-209.71 904.33,-199.71 900.83,-209.71 907.83,-209.71"/>
<text text-anchor="middle" x="933.33" y="-221.51" font-family="Helvetica,sans-Serif" font-size="14.00">&gt; 67.49</text>
</g>
<!-- 13 -->
<g id="node15" class="node">
<title>13</title>
<polygon fill="#44e5e5" stroke="black" points="1271.83,-199.71 1098.83,-199.71 1098.83,-121.71 1271.83,-121.71 1271.83,-199.71"/>
<text text-anchor="start" x="1146.33" y="-185.51" font-family="Helvetica,sans-Serif" font-weight="bold" font-size="14.00"> Class=2 </text>
<text text-anchor="start" x="1219.33" y="-185.51" font-family="Helvetica,sans-Serif" font-size="14.00"> </text>
<text text-anchor="start" x="1106.83" y="-171.51" font-family="Helvetica,sans-Serif" font-size="14.00"> error: 0.152, n=2600 </text>
<text text-anchor="start" x="1130.33" y="-157.51" font-family="Helvetica,sans-Serif" font-size="14.00"> p: (0.02, 0.98) </text>
<text text-anchor="start" x="1161.33" y="-143.51" font-family="Helvetica,sans-Serif" font-size="14.00">&#45;&#45;&#45;&#45;&#45;&#45;&#45;&#45;&#45;</text>
<text text-anchor="start" x="1144.33" y="-129.51" font-family="Helvetica,sans-Serif" font-weight="bold" font-size="14.00">v_27=0.00</text>
</g>
<!-- 12&#45;&gt;13 -->
<g id="edge14" class="edge">
<title>12:s&#45;&gt;13:n</title>
<path fill="none" stroke="black" d="M1149.33,-250.71C1149.33,-250.71 1169.16,-222.62 1179.38,-208.13"/>
<polygon fill="black" stroke="black" points="1182.42,-209.9 1185.33,-199.71 1176.7,-205.86 1182.42,-209.9"/>
<text text-anchor="middle" x="1207.33" y="-221.51" font-family="Helvetica,sans-Serif" font-size="14.00">&lt;= 30.78</text>
</g>
<!-- 11 -->
<g id="node14" class="node">
<title>11</title>
<ellipse fill="#3d76cc" stroke="black" cx="886.33" cy="-35.36" rx="122.16" ry="35.21"/>
<text text-anchor="start" x="847.33" y="-46.16" font-family="Helvetica,sans-Serif" font-weight="bold" font-size="14.00"> Class=2 </text>
<text text-anchor="start" x="920.33" y="-46.16" font-family="Helvetica,sans-Serif" font-size="14.00"> </text>
<text text-anchor="start" x="807.83" y="-32.16" font-family="Helvetica,sans-Serif" font-size="14.00"> error: 0.639, n=2600 </text>
<text text-anchor="start" x="831.33" y="-18.16" font-family="Helvetica,sans-Serif" font-size="14.00"> p: (0.16, 0.84) </text>
</g>
<!-- 10&#45;&gt;11 -->
<g id="edge13" class="edge">
<title>10:s&#45;&gt;11:n</title>
<path fill="none" stroke="black" d="M904.33,-121.71C904.33,-121.71 895.03,-95.36 889.8,-80.54"/>
<polygon fill="black" stroke="black" points="892.96,-78.98 886.33,-70.71 886.36,-81.31 892.96,-78.98"/>
<text text-anchor="middle" x="929.83" y="-92.51" font-family="Helvetica,sans-Serif" font-size="14.00">&gt; &#45;253.5</text>
</g>
<!-- 14 -->
<g id="node16" class="node">
<title>14</title>
<ellipse fill="#3d76cc" stroke="black" cx="1203.33" cy="-35.36" rx="122.16" ry="35.21"/>
<text text-anchor="start" x="1164.33" y="-46.16" font-family="Helvetica,sans-Serif" font-weight="bold" font-size="14.00"> Class=2 </text>
<text text-anchor="start" x="1237.33" y="-46.16" font-family="Helvetica,sans-Serif" font-size="14.00"> </text>
<text text-anchor="start" x="1124.83" y="-32.16" font-family="Helvetica,sans-Serif" font-size="14.00"> error: 0.000, n=2600 </text>
<text text-anchor="start" x="1148.33" y="-18.16" font-family="Helvetica,sans-Serif" font-size="14.00"> p: (0.00, 1.00) </text>
</g>
<!-- 13&#45;&gt;14 -->
<g id="edge15" class="edge">
<title>13:s&#45;&gt;14:n</title>
<path fill="none" stroke="black" d="M1185.33,-121.71C1185.33,-121.71 1194.63,-95.36 1199.86,-80.54"/>
<polygon fill="black" stroke="black" points="1203.3,-81.31 1203.33,-70.71 1196.7,-78.98 1203.3,-81.31"/>
<text text-anchor="middle" x="1228.83" y="-92.51" font-family="Helvetica,sans-Serif" font-size="14.00">&gt; &#45;32.66</text>
</g>
</g>
</svg>
