<?xml version="1.0" encoding="UTF-8" standalone="no"?>
<!DOCTYPE svg PUBLIC "-//W3C//DTD SVG 1.1//EN"
 "http://www.w3.org/Graphics/SVG/1.1/DTD/svg11.dtd">
<!-- Generated by graphviz version 2.43.0 (0)
 -->
<!-- Title: Tree Pages: 1 -->
<svg width="5535pt" height="696pt"
 viewBox="0.00 0.00 5535.40 695.71" xmlns="http://www.w3.org/2000/svg" xmlns:xlink="http://www.w3.org/1999/xlink">
<g id="graph0" class="graph" transform="scale(1 1) rotate(0) translate(18 677.71)">
<title>Tree</title>
<polygon fill="white" stroke="transparent" points="-18,18 -18,-677.71 5517.4,-677.71 5517.4,18 -18,18"/>
<!-- 0 -->
<g id="node1" class="node">
<title>0</title>
<polygon fill="white" stroke="transparent" points="1987.2,-659.71 1933.2,-659.71 1933.2,-623.71 1987.2,-623.71 1987.2,-659.71"/>
<text text-anchor="middle" x="1960.2" y="-638.01" font-family="Helvetica,sans-Serif" font-size="14.00">0</text>
</g>
<!-- 1 -->
<g id="node2" class="node">
<title>1</title>
<polygon fill="#cc3d3d" stroke="black" points="2185.2,-586.71 1735.2,-586.71 1735.2,-508.71 2185.2,-508.71 2185.2,-586.71"/>
<text text-anchor="start" x="1921.2" y="-572.51" font-family="Helvetica,sans-Serif" font-weight="bold" font-size="14.00"> Class=1 </text>
<text text-anchor="start" x="1994.2" y="-572.51" font-family="Helvetica,sans-Serif" font-size="14.00"> </text>
<text text-anchor="start" x="1881.7" y="-558.51" font-family="Helvetica,sans-Serif" font-size="14.00"> error: 1.000, n=2000 </text>
<text text-anchor="start" x="1743.2" y="-544.51" font-family="Helvetica,sans-Serif" font-size="14.00"> p: (0.10, 0.10, 0.10, 0.10, 0.10, 0.10, 0.10, 0.10, 0.10, 0.10) </text>
<text text-anchor="start" x="1949.2" y="-530.51" font-family="Helvetica,sans-Serif" font-size="14.00">&#45;&#45;&#45;&#45;</text>
<text text-anchor="start" x="1943.2" y="-516.51" font-family="Helvetica,sans-Serif" font-weight="bold" font-size="14.00">att1</text>
</g>
<!-- 0&#45;&gt;1 -->
<!-- 2 -->
<g id="node3" class="node">
<title>2</title>
<polygon fill="#e5d544" stroke="black" points="1878.2,-457.71 1428.2,-457.71 1428.2,-379.71 1878.2,-379.71 1878.2,-457.71"/>
<text text-anchor="start" x="1614.2" y="-443.51" font-family="Helvetica,sans-Serif" font-weight="bold" font-size="14.00"> Class=9 </text>
<text text-anchor="start" x="1687.2" y="-443.51" font-family="Helvetica,sans-Serif" font-size="14.00"> </text>
<text text-anchor="start" x="1574.7" y="-429.51" font-family="Helvetica,sans-Serif" font-size="14.00"> error: 0.615, n=2000 </text>
<text text-anchor="start" x="1436.2" y="-415.51" font-family="Helvetica,sans-Serif" font-size="14.00"> p: (0.25, 0.24, 0.00, 0.00, 0.00, 0.00, 0.00, 0.25, 0.00, 0.25) </text>
<text text-anchor="start" x="1642.2" y="-401.51" font-family="Helvetica,sans-Serif" font-size="14.00">&#45;&#45;&#45;&#45;</text>
<text text-anchor="start" x="1636.2" y="-387.51" font-family="Helvetica,sans-Serif" font-weight="bold" font-size="14.00">att2</text>
</g>
<!-- 1&#45;&gt;2 -->
<g id="edge2" class="edge">
<title>1:s&#45;&gt;2:n</title>
<path fill="none" stroke="black" d="M1960.2,-508.71C1960.2,-508.71 1715.61,-468.08 1663.06,-459.35"/>
<polygon fill="black" stroke="black" points="1663.64,-455.9 1653.2,-457.71 1662.49,-462.8 1663.64,-455.9"/>
<text text-anchor="middle" x="1857.2" y="-479.51" font-family="Helvetica,sans-Serif" font-size="14.00">&gt; 0</text>
</g>
<!-- 7 -->
<g id="node4" class="node">
<title>7</title>
<polygon fill="#e5d544" stroke="black" points="2516.2,-457.71 2066.2,-457.71 2066.2,-379.71 2516.2,-379.71 2516.2,-457.71"/>
<text text-anchor="start" x="2252.2" y="-443.51" font-family="Helvetica,sans-Serif" font-weight="bold" font-size="14.00"> Class=4 </text>
<text text-anchor="start" x="2325.2" y="-443.51" font-family="Helvetica,sans-Serif" font-size="14.00"> </text>
<text text-anchor="start" x="2212.7" y="-429.51" font-family="Helvetica,sans-Serif" font-size="14.00"> error: 0.798, n=2000 </text>
<text text-anchor="start" x="2074.2" y="-415.51" font-family="Helvetica,sans-Serif" font-size="14.00"> p: (0.00, 0.00, 0.16, 0.16, 0.17, 0.16, 0.17, 0.00, 0.17, 0.00) </text>
<text text-anchor="start" x="2280.2" y="-401.51" font-family="Helvetica,sans-Serif" font-size="14.00">&#45;&#45;&#45;&#45;</text>
<text text-anchor="start" x="2274.2" y="-387.51" font-family="Helvetica,sans-Serif" font-weight="bold" font-size="14.00">att6</text>
</g>
<!-- 1&#45;&gt;7 -->
<g id="edge3" class="edge">
<title>1:s&#45;&gt;7:n</title>
<path fill="none" stroke="black" d="M1960.2,-508.71C1960.2,-508.71 2226.22,-467.72 2281.29,-459.24"/>
<polygon fill="black" stroke="black" points="2281.85,-462.69 2291.2,-457.71 2280.78,-455.77 2281.85,-462.69"/>
<text text-anchor="middle" x="2184.2" y="-479.51" font-family="Helvetica,sans-Serif" font-size="14.00">&lt;= 0</text>
</g>
<!-- 3 -->
<g id="node5" class="node">
<title>3</title>
<polygon fill="#59cc3d" stroke="black" points="1251.2,-328.71 801.2,-328.71 801.2,-250.71 1251.2,-250.71 1251.2,-328.71"/>
<text text-anchor="start" x="987.2" y="-314.51" font-family="Helvetica,sans-Serif" font-weight="bold" font-size="14.00"> Class=1 </text>
<text text-anchor="start" x="1060.2" y="-314.51" font-family="Helvetica,sans-Serif" font-size="14.00"> </text>
<text text-anchor="start" x="947.7" y="-300.51" font-family="Helvetica,sans-Serif" font-size="14.00"> error: 0.301, n=2000 </text>
<text text-anchor="start" x="809.2" y="-286.51" font-family="Helvetica,sans-Serif" font-size="14.00"> p: (0.51, 0.00, 0.00, 0.00, 0.00, 0.00, 0.00, 0.00, 0.00, 0.49) </text>
<text text-anchor="start" x="1015.2" y="-272.51" font-family="Helvetica,sans-Serif" font-size="14.00">&#45;&#45;&#45;&#45;</text>
<text text-anchor="start" x="1009.2" y="-258.51" font-family="Helvetica,sans-Serif" font-weight="bold" font-size="14.00">att1</text>
</g>
<!-- 2&#45;&gt;3 -->
<g id="edge4" class="edge">
<title>2:s&#45;&gt;3:n</title>
<path fill="none" stroke="black" d="M1653.2,-379.71C1653.2,-379.71 1116.95,-336.09 1036.3,-329.53"/>
<polygon fill="black" stroke="black" points="1036.45,-326.03 1026.2,-328.71 1035.88,-333.01 1036.45,-326.03"/>
<text text-anchor="middle" x="1434.2" y="-350.51" font-family="Helvetica,sans-Serif" font-size="14.00">&lt;= 0</text>
</g>
<!-- 6 -->
<g id="node6" class="node">
<title>6</title>
<ellipse fill="#59cc3d" stroke="black" cx="1653.2" cy="-289.71" rx="318.4" ry="35.21"/>
<text text-anchor="start" x="1614.2" y="-300.51" font-family="Helvetica,sans-Serif" font-weight="bold" font-size="14.00"> Class=7 </text>
<text text-anchor="start" x="1687.2" y="-300.51" font-family="Helvetica,sans-Serif" font-size="14.00"> </text>
<text text-anchor="start" x="1574.7" y="-286.51" font-family="Helvetica,sans-Serif" font-size="14.00"> error: 0.369, n=2000 </text>
<text text-anchor="start" x="1436.2" y="-272.51" font-family="Helvetica,sans-Serif" font-size="14.00"> p: (0.00, 0.48, 0.00, 0.00, 0.00, 0.00, 0.00, 0.49, 0.00, 0.02) </text>
</g>
<!-- 2&#45;&gt;6 -->
<g id="edge5" class="edge">
<title>2:s&#45;&gt;6:n</title>
<path fill="none" stroke="black" d="M1653.2,-379.71C1653.2,-379.71 1653.2,-351.81 1653.2,-336.12"/>
<polygon fill="black" stroke="black" points="1656.7,-335.71 1653.2,-325.71 1649.7,-335.71 1656.7,-335.71"/>
<text text-anchor="middle" x="1666.2" y="-350.51" font-family="Helvetica,sans-Serif" font-size="14.00">&gt; 0</text>
</g>
<!-- 8 -->
<g id="node9" class="node">
<title>8</title>
<polygon fill="#59cc3d" stroke="black" points="2516.2,-328.71 2066.2,-328.71 2066.2,-250.71 2516.2,-250.71 2516.2,-328.71"/>
<text text-anchor="start" x="2252.2" y="-314.51" font-family="Helvetica,sans-Serif" font-weight="bold" font-size="14.00"> Class=2 </text>
<text text-anchor="start" x="2325.2" y="-314.51" font-family="Helvetica,sans-Serif" font-size="14.00"> </text>
<text text-anchor="start" x="2212.7" y="-300.51" font-family="Helvetica,sans-Serif" font-size="14.00"> error: 0.622, n=2000 </text>
<text text-anchor="start" x="2074.2" y="-286.51" font-family="Helvetica,sans-Serif" font-size="14.00"> p: (0.00, 0.00, 0.33, 0.03, 0.07, 0.23, 0.01, 0.00, 0.32, 0.00) </text>
<text text-anchor="start" x="2280.2" y="-272.51" font-family="Helvetica,sans-Serif" font-size="14.00">&#45;&#45;&#45;&#45;</text>
<text text-anchor="start" x="2274.2" y="-258.51" font-family="Helvetica,sans-Serif" font-weight="bold" font-size="14.00">att5</text>
</g>
<!-- 7&#45;&gt;8 -->
<g id="edge8" class="edge">
<title>7:s&#45;&gt;8:n</title>
<path fill="none" stroke="black" d="M2291.2,-379.71C2291.2,-379.71 2291.2,-353.93 2291.2,-339.03"/>
<polygon fill="black" stroke="black" points="2294.7,-338.71 2291.2,-328.71 2287.7,-338.71 2294.7,-338.71"/>
<text text-anchor="middle" x="2323.7" y="-350.51" font-family="Helvetica,sans-Serif" font-size="14.00">&lt;= 8129</text>
</g>
<!-- 13 -->
<g id="node10" class="node">
<title>13</title>
<polygon fill="#59cc3d" stroke="black" points="3636.2,-328.71 3186.2,-328.71 3186.2,-250.71 3636.2,-250.71 3636.2,-328.71"/>
<text text-anchor="start" x="3372.2" y="-314.51" font-family="Helvetica,sans-Serif" font-weight="bold" font-size="14.00"> Class=6 </text>
<text text-anchor="start" x="3445.2" y="-314.51" font-family="Helvetica,sans-Serif" font-size="14.00"> </text>
<text text-anchor="start" x="3332.7" y="-300.51" font-family="Helvetica,sans-Serif" font-size="14.00"> error: 0.617, n=2000 </text>
<text text-anchor="start" x="3194.2" y="-286.51" font-family="Helvetica,sans-Serif" font-size="14.00"> p: (0.00, 0.01, 0.00, 0.30, 0.26, 0.10, 0.32, 0.00, 0.01, 0.00) </text>
<text text-anchor="start" x="3400.2" y="-272.51" font-family="Helvetica,sans-Serif" font-size="14.00">&#45;&#45;&#45;&#45;</text>
<text text-anchor="start" x="3394.2" y="-258.51" font-family="Helvetica,sans-Serif" font-weight="bold" font-size="14.00">att3</text>
</g>
<!-- 7&#45;&gt;13 -->
<g id="edge9" class="edge">
<title>7:s&#45;&gt;13:n</title>
<path fill="none" stroke="black" d="M2291.2,-379.71C2291.2,-379.71 3289.98,-334.23 3401.17,-329.17"/>
<polygon fill="black" stroke="black" points="3401.37,-332.66 3411.2,-328.71 3401.05,-325.67 3401.37,-332.66"/>
<text text-anchor="middle" x="3010.7" y="-350.51" font-family="Helvetica,sans-Serif" font-size="14.00">&gt; 8129</text>
</g>
<!-- 4 -->
<g id="node7" class="node">
<title>4</title>
<ellipse fill="#44e5b5" stroke="black" cx="318.2" cy="-160.71" rx="318.4" ry="35.21"/>
<text text-anchor="start" x="279.2" y="-171.51" font-family="Helvetica,sans-Serif" font-weight="bold" font-size="14.00"> Class=1 </text>
<text text-anchor="start" x="352.2" y="-171.51" font-family="Helvetica,sans-Serif" font-size="14.00"> </text>
<text text-anchor="start" x="239.7" y="-157.51" font-family="Helvetica,sans-Serif" font-size="14.00"> error: 0.000, n=2000 </text>
<text text-anchor="start" x="101.2" y="-143.51" font-family="Helvetica,sans-Serif" font-size="14.00"> p: (1.00, 0.00, 0.00, 0.00, 0.00, 0.00, 0.00, 0.00, 0.00, 0.00) </text>
</g>
<!-- 3&#45;&gt;4 -->
<g id="edge6" class="edge">
<title>3:s&#45;&gt;4:n</title>
<path fill="none" stroke="black" d="M1026.2,-250.71C1026.2,-250.71 414.26,-204.04 328.21,-197.47"/>
<polygon fill="black" stroke="black" points="328.44,-193.98 318.2,-196.71 327.9,-200.96 328.44,-193.98"/>
<text text-anchor="middle" x="796.2" y="-221.51" font-family="Helvetica,sans-Serif" font-size="14.00">&lt;= 1</text>
</g>
<!-- 5 -->
<g id="node8" class="node">
<title>5</title>
<ellipse fill="#44e5b5" stroke="black" cx="1026.2" cy="-160.71" rx="318.4" ry="35.21"/>
<text text-anchor="start" x="987.2" y="-171.51" font-family="Helvetica,sans-Serif" font-weight="bold" font-size="14.00"> Class=9 </text>
<text text-anchor="start" x="1060.2" y="-171.51" font-family="Helvetica,sans-Serif" font-size="14.00"> </text>
<text text-anchor="start" x="947.7" y="-157.51" font-family="Helvetica,sans-Serif" font-size="14.00"> error: 0.000, n=2000 </text>
<text text-anchor="start" x="809.2" y="-143.51" font-family="Helvetica,sans-Serif" font-size="14.00"> p: (0.00, 0.00, 0.00, 0.00, 0.00, 0.00, 0.00, 0.00, 0.00, 1.00) </text>
</g>
<!-- 3&#45;&gt;5 -->
<g id="edge7" class="edge">
<title>3:s&#45;&gt;5:n</title>
<path fill="none" stroke="black" d="M1026.2,-250.71C1026.2,-250.71 1026.2,-222.81 1026.2,-207.12"/>
<polygon fill="black" stroke="black" points="1029.7,-206.71 1026.2,-196.71 1022.7,-206.71 1029.7,-206.71"/>
<text text-anchor="middle" x="1039.2" y="-221.51" font-family="Helvetica,sans-Serif" font-size="14.00">&gt; 1</text>
</g>
<!-- 9 -->
<g id="node11" class="node">
<title>9</title>
<ellipse fill="#44e5b5" stroke="black" cx="1734.2" cy="-160.71" rx="318.4" ry="35.21"/>
<text text-anchor="start" x="1695.2" y="-171.51" font-family="Helvetica,sans-Serif" font-weight="bold" font-size="14.00"> Class=2 </text>
<text text-anchor="start" x="1768.2" y="-171.51" font-family="Helvetica,sans-Serif" font-size="14.00"> </text>
<text text-anchor="start" x="1655.7" y="-157.51" font-family="Helvetica,sans-Serif" font-size="14.00"> error: 0.076, n=2000 </text>
<text text-anchor="start" x="1517.2" y="-143.51" font-family="Helvetica,sans-Serif" font-size="14.00"> p: (0.00, 0.01, 0.97, 0.00, 0.00, 0.02, 0.00, 0.01, 0.00, 0.00) </text>
</g>
<!-- 8&#45;&gt;9 -->
<g id="edge10" class="edge">
<title>8:s&#45;&gt;9:n</title>
<path fill="none" stroke="black" d="M2291.2,-250.71C2291.2,-250.71 1819.83,-205.01 1744.34,-197.69"/>
<polygon fill="black" stroke="black" points="1744.49,-194.19 1734.2,-196.71 1743.81,-201.16 1744.49,-194.19"/>
<text text-anchor="middle" x="2130.2" y="-221.51" font-family="Helvetica,sans-Serif" font-size="14.00">&lt;= 1.438</text>
</g>
<!-- 10 -->
<g id="node12" class="node">
<title>10</title>
<polygon fill="#44e5b5" stroke="black" points="2574.2,-199.71 2124.2,-199.71 2124.2,-121.71 2574.2,-121.71 2574.2,-199.71"/>
<text text-anchor="start" x="2310.2" y="-185.51" font-family="Helvetica,sans-Serif" font-weight="bold" font-size="14.00"> Class=8 </text>
<text text-anchor="start" x="2383.2" y="-185.51" font-family="Helvetica,sans-Serif" font-size="14.00"> </text>
<text text-anchor="start" x="2270.7" y="-171.51" font-family="Helvetica,sans-Serif" font-size="14.00"> error: 0.602, n=2000 </text>
<text text-anchor="start" x="2132.2" y="-157.51" font-family="Helvetica,sans-Serif" font-size="14.00"> p: (0.00, 0.00, 0.12, 0.04, 0.10, 0.30, 0.02, 0.00, 0.43, 0.00) </text>
<text text-anchor="start" x="2338.2" y="-143.51" font-family="Helvetica,sans-Serif" font-size="14.00">&#45;&#45;&#45;&#45;</text>
<text text-anchor="start" x="2332.2" y="-129.51" font-family="Helvetica,sans-Serif" font-weight="bold" font-size="14.00">att3</text>
</g>
<!-- 8&#45;&gt;10 -->
<g id="edge11" class="edge">
<title>8:s&#45;&gt;10:n</title>
<path fill="none" stroke="black" d="M2291.2,-250.71C2291.2,-250.71 2325.89,-220.2 2341.62,-206.38"/>
<polygon fill="black" stroke="black" points="2344,-208.94 2349.2,-199.71 2339.38,-203.69 2344,-208.94"/>
<text text-anchor="middle" x="2356.2" y="-221.51" font-family="Helvetica,sans-Serif" font-size="14.00">&gt; 1.438</text>
</g>
<!-- 14 -->
<g id="node15" class="node">
<title>14</title>
<polygon fill="#44e5b5" stroke="black" points="3636.2,-199.71 3186.2,-199.71 3186.2,-121.71 3636.2,-121.71 3636.2,-199.71"/>
<text text-anchor="start" x="3372.2" y="-185.51" font-family="Helvetica,sans-Serif" font-weight="bold" font-size="14.00"> Class=3 </text>
<text text-anchor="start" x="3445.2" y="-185.51" font-family="Helvetica,sans-Serif" font-size="14.00"> </text>
<text text-anchor="start" x="3332.7" y="-171.51" font-family="Helvetica,sans-Serif" font-size="14.00"> error: 0.447, n=2000 </text>
<text text-anchor="start" x="3194.2" y="-157.51" font-family="Helvetica,sans-Serif" font-size="14.00"> p: (0.01, 0.01, 0.00, 0.62, 0.07, 0.01, 0.27, 0.00, 0.01, 0.00) </text>
<text text-anchor="start" x="3400.2" y="-143.51" font-family="Helvetica,sans-Serif" font-size="14.00">&#45;&#45;&#45;&#45;</text>
<text text-anchor="start" x="3394.2" y="-129.51" font-family="Helvetica,sans-Serif" font-weight="bold" font-size="14.00">att6</text>
</g>
<!-- 13&#45;&gt;14 -->
<g id="edge14" class="edge">
<title>13:s&#45;&gt;14:n</title>
<path fill="none" stroke="black" d="M3411.2,-250.71C3411.2,-250.71 3411.2,-224.93 3411.2,-210.03"/>
<polygon fill="black" stroke="black" points="3414.7,-209.71 3411.2,-199.71 3407.7,-209.71 3414.7,-209.71"/>
<text text-anchor="middle" x="3430.2" y="-221.51" font-family="Helvetica,sans-Serif" font-size="14.00">&lt;= 0</text>
</g>
<!-- 17 -->
<g id="node16" class="node">
<title>17</title>
<polygon fill="#44e5b5" stroke="black" points="4698.2,-199.71 4248.2,-199.71 4248.2,-121.71 4698.2,-121.71 4698.2,-199.71"/>
<text text-anchor="start" x="4434.2" y="-185.51" font-family="Helvetica,sans-Serif" font-weight="bold" font-size="14.00"> Class=4 </text>
<text text-anchor="start" x="4507.2" y="-185.51" font-family="Helvetica,sans-Serif" font-size="14.00"> </text>
<text text-anchor="start" x="4394.7" y="-171.51" font-family="Helvetica,sans-Serif" font-size="14.00"> error: 0.541, n=2000 </text>
<text text-anchor="start" x="4256.2" y="-157.51" font-family="Helvetica,sans-Serif" font-size="14.00"> p: (0.00, 0.01, 0.00, 0.04, 0.41, 0.17, 0.36, 0.00, 0.01, 0.00) </text>
<text text-anchor="start" x="4462.2" y="-143.51" font-family="Helvetica,sans-Serif" font-size="14.00">&#45;&#45;&#45;&#45;</text>
<text text-anchor="start" x="4456.2" y="-129.51" font-family="Helvetica,sans-Serif" font-weight="bold" font-size="14.00">att6</text>
</g>
<!-- 13&#45;&gt;17 -->
<g id="edge15" class="edge">
<title>13:s&#45;&gt;17:n</title>
<path fill="none" stroke="black" d="M3411.2,-250.71C3411.2,-250.71 4354.34,-205.42 4463.03,-200.2"/>
<polygon fill="black" stroke="black" points="4463.38,-203.69 4473.2,-199.71 4463.04,-196.69 4463.38,-203.69"/>
<text text-anchor="middle" x="4081.2" y="-221.51" font-family="Helvetica,sans-Serif" font-size="14.00">&gt; 0</text>
</g>
<!-- 11 -->
<g id="node13" class="node">
<title>11</title>
<ellipse fill="#3d76cc" stroke="black" cx="1641.2" cy="-35.36" rx="318.4" ry="35.21"/>
<text text-anchor="start" x="1602.2" y="-46.16" font-family="Helvetica,sans-Serif" font-weight="bold" font-size="14.00"> Class=8 </text>
<text text-anchor="start" x="1675.2" y="-46.16" font-family="Helvetica,sans-Serif" font-size="14.00"> </text>
<text text-anchor="start" x="1562.7" y="-32.16" font-family="Helvetica,sans-Serif" font-size="14.00"> error: 0.529, n=2000 </text>
<text text-anchor="start" x="1424.2" y="-18.16" font-family="Helvetica,sans-Serif" font-size="14.00"> p: (0.00, 0.00, 0.08, 0.05, 0.07, 0.16, 0.02, 0.00, 0.62, 0.00) </text>
</g>
<!-- 10&#45;&gt;11 -->
<g id="edge12" class="edge">
<title>10:s&#45;&gt;11:n</title>
<path fill="none" stroke="black" d="M2349.2,-121.71C2349.2,-121.71 1737.26,-77.63 1651.21,-71.43"/>
<polygon fill="black" stroke="black" points="1651.42,-67.94 1641.2,-70.71 1650.92,-74.92 1651.42,-67.94"/>
<text text-anchor="middle" x="2099.2" y="-92.51" font-family="Helvetica,sans-Serif" font-size="14.00">&lt;= 0</text>
</g>
<!-- 12 -->
<g id="node14" class="node">
<title>12</title>
<ellipse fill="#3d76cc" stroke="black" cx="2349.2" cy="-35.36" rx="318.4" ry="35.21"/>
<text text-anchor="start" x="2310.2" y="-46.16" font-family="Helvetica,sans-Serif" font-weight="bold" font-size="14.00"> Class=5 </text>
<text text-anchor="start" x="2383.2" y="-46.16" font-family="Helvetica,sans-Serif" font-size="14.00"> </text>
<text text-anchor="start" x="2270.7" y="-32.16" font-family="Helvetica,sans-Serif" font-size="14.00"> error: 0.555, n=2000 </text>
<text text-anchor="start" x="2132.2" y="-18.16" font-family="Helvetica,sans-Serif" font-size="14.00"> p: (0.00, 0.00, 0.17, 0.01, 0.14, 0.53, 0.01, 0.00, 0.14, 0.00) </text>
</g>
<!-- 10&#45;&gt;12 -->
<g id="edge13" class="edge">
<title>10:s&#45;&gt;12:n</title>
<path fill="none" stroke="black" d="M2349.2,-121.71C2349.2,-121.71 2349.2,-95.93 2349.2,-81.03"/>
<polygon fill="black" stroke="black" points="2352.7,-80.71 2349.2,-70.71 2345.7,-80.71 2352.7,-80.71"/>
<text text-anchor="middle" x="2362.2" y="-92.51" font-family="Helvetica,sans-Serif" font-size="14.00">&gt; 0</text>
</g>
<!-- 15 -->
<g id="node17" class="node">
<title>15</title>
<ellipse fill="#3d76cc" stroke="black" cx="3057.2" cy="-35.36" rx="318.4" ry="35.21"/>
<text text-anchor="start" x="3018.2" y="-46.16" font-family="Helvetica,sans-Serif" font-weight="bold" font-size="14.00"> Class=3 </text>
<text text-anchor="start" x="3091.2" y="-46.16" font-family="Helvetica,sans-Serif" font-size="14.00"> </text>
<text text-anchor="start" x="2978.7" y="-32.16" font-family="Helvetica,sans-Serif" font-size="14.00"> error: 0.615, n=2000 </text>
<text text-anchor="start" x="2840.2" y="-18.16" font-family="Helvetica,sans-Serif" font-size="14.00"> p: (0.01, 0.04, 0.00, 0.51, 0.19, 0.04, 0.15, 0.00, 0.04, 0.00) </text>
</g>
<!-- 14&#45;&gt;15 -->
<g id="edge16" class="edge">
<title>14:s&#45;&gt;15:n</title>
<path fill="none" stroke="black" d="M3411.2,-121.71C3411.2,-121.71 3125.45,-80.54 3067.41,-72.18"/>
<polygon fill="black" stroke="black" points="3067.59,-68.67 3057.2,-70.71 3066.6,-75.6 3067.59,-68.67"/>
<text text-anchor="middle" x="3308.7" y="-92.51" font-family="Helvetica,sans-Serif" font-size="14.00">&lt;= 9638</text>
</g>
<!-- 16 -->
<g id="node18" class="node">
<title>16</title>
<ellipse fill="#3d76cc" stroke="black" cx="3765.2" cy="-35.36" rx="318.4" ry="35.21"/>
<text text-anchor="start" x="3726.2" y="-46.16" font-family="Helvetica,sans-Serif" font-weight="bold" font-size="14.00"> Class=3 </text>
<text text-anchor="start" x="3799.2" y="-46.16" font-family="Helvetica,sans-Serif" font-size="14.00"> </text>
<text text-anchor="start" x="3686.7" y="-32.16" font-family="Helvetica,sans-Serif" font-size="14.00"> error: 0.337, n=2000 </text>
<text text-anchor="start" x="3548.2" y="-18.16" font-family="Helvetica,sans-Serif" font-size="14.00"> p: (0.01, 0.00, 0.00, 0.66, 0.02, 0.00, 0.31, 0.00, 0.00, 0.00) </text>
</g>
<!-- 14&#45;&gt;16 -->
<g id="edge17" class="edge">
<title>14:s&#45;&gt;16:n</title>
<path fill="none" stroke="black" d="M3411.2,-121.71C3411.2,-121.71 3696.94,-80.54 3754.99,-72.18"/>
<polygon fill="black" stroke="black" points="3755.8,-75.6 3765.2,-70.71 3754.8,-68.67 3755.8,-75.6"/>
<text text-anchor="middle" x="3656.7" y="-92.51" font-family="Helvetica,sans-Serif" font-size="14.00">&gt; 9638</text>
</g>
<!-- 18 -->
<g id="node19" class="node">
<title>18</title>
<ellipse fill="#3d76cc" stroke="black" cx="4473.2" cy="-35.36" rx="318.4" ry="35.21"/>
<text text-anchor="start" x="4434.2" y="-46.16" font-family="Helvetica,sans-Serif" font-weight="bold" font-size="14.00"> Class=4 </text>
<text text-anchor="start" x="4507.2" y="-46.16" font-family="Helvetica,sans-Serif" font-size="14.00"> </text>
<text text-anchor="start" x="4394.7" y="-32.16" font-family="Helvetica,sans-Serif" font-size="14.00"> error: 0.518, n=2000 </text>
<text text-anchor="start" x="4256.2" y="-18.16" font-family="Helvetica,sans-Serif" font-size="14.00"> p: (0.00, 0.01, 0.00, 0.05, 0.50, 0.34, 0.08, 0.01, 0.01, 0.00) </text>
</g>
<!-- 17&#45;&gt;18 -->
<g id="edge18" class="edge">
<title>17:s&#45;&gt;18:n</title>
<path fill="none" stroke="black" d="M4473.2,-121.71C4473.2,-121.71 4473.2,-95.93 4473.2,-81.03"/>
<polygon fill="black" stroke="black" points="4476.7,-80.71 4473.2,-70.71 4469.7,-80.71 4476.7,-80.71"/>
<text text-anchor="middle" x="4527.2" y="-92.51" font-family="Helvetica,sans-Serif" font-size="14.00">&lt;= 1.084e+04</text>
</g>
<!-- 19 -->
<g id="node20" class="node">
<title>19</title>
<ellipse fill="#3d76cc" stroke="black" cx="5181.2" cy="-35.36" rx="318.4" ry="35.21"/>
<text text-anchor="start" x="5142.2" y="-46.16" font-family="Helvetica,sans-Serif" font-weight="bold" font-size="14.00"> Class=6 </text>
<text text-anchor="start" x="5215.2" y="-46.16" font-family="Helvetica,sans-Serif" font-size="14.00"> </text>
<text text-anchor="start" x="5102.7" y="-32.16" font-family="Helvetica,sans-Serif" font-size="14.00"> error: 0.341, n=2000 </text>
<text text-anchor="start" x="4964.2" y="-18.16" font-family="Helvetica,sans-Serif" font-size="14.00"> p: (0.00, 0.01, 0.00, 0.03, 0.32, 0.00, 0.64, 0.00, 0.00, 0.00) </text>
</g>
<!-- 17&#45;&gt;19 -->
<g id="edge19" class="edge">
<title>17:s&#45;&gt;19:n</title>
<path fill="none" stroke="black" d="M4473.2,-121.71C4473.2,-121.71 5085.14,-77.63 5171.19,-71.43"/>
<polygon fill="black" stroke="black" points="5171.48,-74.92 5181.2,-70.71 5170.97,-67.94 5171.48,-74.92"/>
<text text-anchor="middle" x="4959.2" y="-92.51" font-family="Helvetica,sans-Serif" font-size="14.00">&gt; 1.084e+04</text>
</g>
</g>
</svg>
