<?xml version="1.0" encoding="UTF-8" standalone="no"?>
<!DOCTYPE svg PUBLIC "-//W3C//DTD SVG 1.1//EN"
 "http://www.w3.org/Graphics/SVG/1.1/DTD/svg11.dtd">
<!-- Generated by graphviz version 2.43.0 (0)
 -->
<!-- Title: Tree Pages: 1 -->
<svg width="2114pt" height="954pt"
 viewBox="0.00 0.00 2114.39 953.71" xmlns="http://www.w3.org/2000/svg" xmlns:xlink="http://www.w3.org/1999/xlink">
<g id="graph0" class="graph" transform="scale(1 1) rotate(0) translate(18 935.71)">
<title>Tree</title>
<polygon fill="white" stroke="transparent" points="-18,18 -18,-935.71 2096.39,-935.71 2096.39,18 -18,18"/>
<!-- 0 -->
<g id="node1" class="node">
<title>0</title>
<polygon fill="white" stroke="transparent" points="1218.69,-917.71 1164.69,-917.71 1164.69,-881.71 1218.69,-881.71 1218.69,-917.71"/>
<text text-anchor="middle" x="1191.69" y="-896.01" font-family="Helvetica,sans-Serif" font-size="14.00">0</text>
</g>
<!-- 1 -->
<g id="node2" class="node">
<title>1</title>
<polygon fill="#cc3d3d" stroke="black" points="1282.69,-844.71 1100.69,-844.71 1100.69,-766.71 1282.69,-766.71 1282.69,-844.71"/>
<text text-anchor="start" x="1152.69" y="-830.51" font-family="Helvetica,sans-Serif" font-weight="bold" font-size="14.00"> Class=2 </text>
<text text-anchor="start" x="1225.69" y="-830.51" font-family="Helvetica,sans-Serif" font-size="14.00"> </text>
<text text-anchor="start" x="1108.69" y="-816.51" font-family="Helvetica,sans-Serif" font-size="14.00"> error: 0.863, n=34465 </text>
<text text-anchor="start" x="1136.69" y="-802.51" font-family="Helvetica,sans-Serif" font-size="14.00"> p: (0.29, 0.71) </text>
<text text-anchor="start" x="1180.69" y="-788.51" font-family="Helvetica,sans-Serif" font-size="14.00">&#45;&#45;&#45;&#45;</text>
<text text-anchor="start" x="1171.69" y="-774.51" font-family="Helvetica,sans-Serif" font-weight="bold" font-size="14.00">V100</text>
</g>
<!-- 0&#45;&gt;1 -->
<!-- 2 -->
<g id="node3" class="node">
<title>2</title>
<polygon fill="#e5a544" stroke="black" points="1137.69,-715.71 955.69,-715.71 955.69,-637.71 1137.69,-637.71 1137.69,-715.71"/>
<text text-anchor="start" x="1007.69" y="-701.51" font-family="Helvetica,sans-Serif" font-weight="bold" font-size="14.00"> Class=1 </text>
<text text-anchor="start" x="1080.69" y="-701.51" font-family="Helvetica,sans-Serif" font-size="14.00"> </text>
<text text-anchor="start" x="963.69" y="-687.51" font-family="Helvetica,sans-Serif" font-size="14.00"> error: 0.996, n=34465 </text>
<text text-anchor="start" x="991.69" y="-673.51" font-family="Helvetica,sans-Serif" font-size="14.00"> p: (0.54, 0.46) </text>
<text text-anchor="start" x="1041.19" y="-659.51" font-family="Helvetica,sans-Serif" font-size="14.00">&#45;&#45;</text>
<text text-anchor="start" x="1036.19" y="-645.51" font-family="Helvetica,sans-Serif" font-weight="bold" font-size="14.00">V7</text>
</g>
<!-- 1&#45;&gt;2 -->
<g id="edge2" class="edge">
<title>1:s&#45;&gt;2:n</title>
<path fill="none" stroke="black" d="M1191.69,-766.71C1191.69,-766.71 1088.47,-730.4 1056.21,-719.06"/>
<polygon fill="black" stroke="black" points="1057.29,-715.73 1046.69,-715.71 1054.97,-722.33 1057.29,-715.73"/>
<text text-anchor="middle" x="1141.69" y="-737.51" font-family="Helvetica,sans-Serif" font-size="14.00">2</text>
</g>
<!-- 16 -->
<g id="node4" class="node">
<title>16</title>
<polygon fill="#e5a544" stroke="black" points="1447.69,-715.71 1265.69,-715.71 1265.69,-637.71 1447.69,-637.71 1447.69,-715.71"/>
<text text-anchor="start" x="1317.69" y="-701.51" font-family="Helvetica,sans-Serif" font-weight="bold" font-size="14.00"> Class=2 </text>
<text text-anchor="start" x="1390.69" y="-701.51" font-family="Helvetica,sans-Serif" font-size="14.00"> </text>
<text text-anchor="start" x="1273.69" y="-687.51" font-family="Helvetica,sans-Serif" font-size="14.00"> error: 0.206, n=34465 </text>
<text text-anchor="start" x="1301.69" y="-673.51" font-family="Helvetica,sans-Serif" font-size="14.00"> p: (0.03, 0.97) </text>
<text text-anchor="start" x="1351.19" y="-659.51" font-family="Helvetica,sans-Serif" font-size="14.00">&#45;&#45;</text>
<text text-anchor="start" x="1346.19" y="-645.51" font-family="Helvetica,sans-Serif" font-weight="bold" font-size="14.00">V7</text>
</g>
<!-- 1&#45;&gt;16 -->
<g id="edge3" class="edge">
<title>1:s&#45;&gt;16:n</title>
<path fill="none" stroke="black" d="M1191.69,-766.71C1191.69,-766.71 1311.34,-729.73 1346.87,-718.75"/>
<polygon fill="black" stroke="black" points="1348.17,-722.01 1356.69,-715.71 1346.11,-715.32 1348.17,-722.01"/>
<text text-anchor="middle" x="1299.69" y="-737.51" font-family="Helvetica,sans-Serif" font-size="14.00">3</text>
</g>
<!-- 3 -->
<g id="node5" class="node">
<title>3</title>
<polygon fill="#afcc3d" stroke="black" points="803.69,-586.71 621.69,-586.71 621.69,-508.71 803.69,-508.71 803.69,-586.71"/>
<text text-anchor="start" x="673.69" y="-572.51" font-family="Helvetica,sans-Serif" font-weight="bold" font-size="14.00"> Class=1 </text>
<text text-anchor="start" x="746.69" y="-572.51" font-family="Helvetica,sans-Serif" font-size="14.00"> </text>
<text text-anchor="start" x="629.69" y="-558.51" font-family="Helvetica,sans-Serif" font-size="14.00"> error: 0.787, n=34465 </text>
<text text-anchor="start" x="657.69" y="-544.51" font-family="Helvetica,sans-Serif" font-size="14.00"> p: (0.76, 0.24) </text>
<text text-anchor="start" x="704.69" y="-530.51" font-family="Helvetica,sans-Serif" font-size="14.00">&#45;&#45;&#45;</text>
<text text-anchor="start" x="697.19" y="-516.51" font-family="Helvetica,sans-Serif" font-weight="bold" font-size="14.00">V92</text>
</g>
<!-- 2&#45;&gt;3 -->
<g id="edge4" class="edge">
<title>2:s&#45;&gt;3:n</title>
<path fill="none" stroke="black" d="M1046.69,-637.71C1046.69,-637.71 778.26,-596.72 722.69,-588.24"/>
<polygon fill="black" stroke="black" points="723.11,-584.76 712.69,-586.71 722.05,-591.68 723.11,-584.76"/>
<text text-anchor="middle" x="924.69" y="-608.51" font-family="Helvetica,sans-Serif" font-size="14.00">1</text>
</g>
<!-- 12 -->
<g id="node6" class="node">
<title>12</title>
<polygon fill="#afcc3d" stroke="black" points="1137.69,-586.71 955.69,-586.71 955.69,-508.71 1137.69,-508.71 1137.69,-586.71"/>
<text text-anchor="start" x="1007.69" y="-572.51" font-family="Helvetica,sans-Serif" font-weight="bold" font-size="14.00"> Class=2 </text>
<text text-anchor="start" x="1080.69" y="-572.51" font-family="Helvetica,sans-Serif" font-size="14.00"> </text>
<text text-anchor="start" x="963.69" y="-558.51" font-family="Helvetica,sans-Serif" font-size="14.00"> error: 0.488, n=34465 </text>
<text text-anchor="start" x="991.69" y="-544.51" font-family="Helvetica,sans-Serif" font-size="14.00"> p: (0.11, 0.89) </text>
<text text-anchor="start" x="1038.69" y="-530.51" font-family="Helvetica,sans-Serif" font-size="14.00">&#45;&#45;&#45;</text>
<text text-anchor="start" x="1031.19" y="-516.51" font-family="Helvetica,sans-Serif" font-weight="bold" font-size="14.00">V23</text>
</g>
<!-- 2&#45;&gt;12 -->
<g id="edge5" class="edge">
<title>2:s&#45;&gt;12:n</title>
<path fill="none" stroke="black" d="M1046.69,-637.71C1046.69,-637.71 1046.69,-611.93 1046.69,-597.03"/>
<polygon fill="black" stroke="black" points="1050.19,-596.71 1046.69,-586.71 1043.19,-596.71 1050.19,-596.71"/>
<text text-anchor="middle" x="1051.69" y="-608.51" font-family="Helvetica,sans-Serif" font-size="14.00">2</text>
</g>
<!-- 17 -->
<g id="node18" class="node">
<title>17</title>
<ellipse fill="#afcc3d" stroke="black" cx="1356.69" cy="-547.71" rx="128.89" ry="35.21"/>
<text text-anchor="start" x="1317.69" y="-558.51" font-family="Helvetica,sans-Serif" font-weight="bold" font-size="14.00"> Class=2 </text>
<text text-anchor="start" x="1390.69" y="-558.51" font-family="Helvetica,sans-Serif" font-size="14.00"> </text>
<text text-anchor="start" x="1273.69" y="-544.51" font-family="Helvetica,sans-Serif" font-size="14.00"> error: 0.018, n=34465 </text>
<text text-anchor="start" x="1301.69" y="-530.51" font-family="Helvetica,sans-Serif" font-size="14.00"> p: (0.00, 1.00) </text>
</g>
<!-- 16&#45;&gt;17 -->
<g id="edge17" class="edge">
<title>16:s&#45;&gt;17:n</title>
<path fill="none" stroke="black" d="M1356.69,-637.71C1356.69,-637.71 1356.69,-609.81 1356.69,-594.12"/>
<polygon fill="black" stroke="black" points="1360.19,-593.71 1356.69,-583.71 1353.19,-593.71 1360.19,-593.71"/>
<text text-anchor="middle" x="1361.69" y="-608.51" font-family="Helvetica,sans-Serif" font-size="14.00">2</text>
</g>
<!-- 18 -->
<g id="node19" class="node">
<title>18</title>
<polygon fill="#afcc3d" stroke="black" points="1748.69,-586.71 1566.69,-586.71 1566.69,-508.71 1748.69,-508.71 1748.69,-586.71"/>
<text text-anchor="start" x="1618.69" y="-572.51" font-family="Helvetica,sans-Serif" font-weight="bold" font-size="14.00"> Class=2 </text>
<text text-anchor="start" x="1691.69" y="-572.51" font-family="Helvetica,sans-Serif" font-size="14.00"> </text>
<text text-anchor="start" x="1574.69" y="-558.51" font-family="Helvetica,sans-Serif" font-size="14.00"> error: 0.460, n=34465 </text>
<text text-anchor="start" x="1602.69" y="-544.51" font-family="Helvetica,sans-Serif" font-size="14.00"> p: (0.10, 0.90) </text>
<text text-anchor="start" x="1649.69" y="-530.51" font-family="Helvetica,sans-Serif" font-size="14.00">&#45;&#45;&#45;</text>
<text text-anchor="start" x="1642.19" y="-516.51" font-family="Helvetica,sans-Serif" font-weight="bold" font-size="14.00">V92</text>
</g>
<!-- 16&#45;&gt;18 -->
<g id="edge18" class="edge">
<title>16:s&#45;&gt;18:n</title>
<path fill="none" stroke="black" d="M1356.69,-637.71C1356.69,-637.71 1595.45,-597.26 1647.68,-588.41"/>
<polygon fill="black" stroke="black" points="1648.42,-591.83 1657.69,-586.71 1647.25,-584.93 1648.42,-591.83"/>
<text text-anchor="middle" x="1548.69" y="-608.51" font-family="Helvetica,sans-Serif" font-size="14.00">1</text>
</g>
<!-- 4 -->
<g id="node7" class="node">
<title>4</title>
<polygon fill="#64e544" stroke="black" points="511.69,-457.71 329.69,-457.71 329.69,-379.71 511.69,-379.71 511.69,-457.71"/>
<text text-anchor="start" x="381.69" y="-443.51" font-family="Helvetica,sans-Serif" font-weight="bold" font-size="14.00"> Class=1 </text>
<text text-anchor="start" x="454.69" y="-443.51" font-family="Helvetica,sans-Serif" font-size="14.00"> </text>
<text text-anchor="start" x="337.69" y="-429.51" font-family="Helvetica,sans-Serif" font-size="14.00"> error: 0.694, n=34465 </text>
<text text-anchor="start" x="365.69" y="-415.51" font-family="Helvetica,sans-Serif" font-size="14.00"> p: (0.81, 0.19) </text>
<text text-anchor="start" x="412.69" y="-401.51" font-family="Helvetica,sans-Serif" font-size="14.00">&#45;&#45;&#45;</text>
<text text-anchor="start" x="405.19" y="-387.51" font-family="Helvetica,sans-Serif" font-weight="bold" font-size="14.00">V31</text>
</g>
<!-- 3&#45;&gt;4 -->
<g id="edge6" class="edge">
<title>3:s&#45;&gt;4:n</title>
<path fill="none" stroke="black" d="M712.69,-508.71C712.69,-508.71 482.09,-468.43 430.74,-459.47"/>
<polygon fill="black" stroke="black" points="431.15,-455.98 420.69,-457.71 429.94,-462.88 431.15,-455.98"/>
<text text-anchor="middle" x="606.69" y="-479.51" font-family="Helvetica,sans-Serif" font-size="14.00">1</text>
</g>
<!-- 10 -->
<g id="node8" class="node">
<title>10</title>
<polygon fill="#64e544" stroke="black" points="803.69,-457.71 621.69,-457.71 621.69,-379.71 803.69,-379.71 803.69,-457.71"/>
<text text-anchor="start" x="673.69" y="-443.51" font-family="Helvetica,sans-Serif" font-weight="bold" font-size="14.00"> Class=1 </text>
<text text-anchor="start" x="746.69" y="-443.51" font-family="Helvetica,sans-Serif" font-size="14.00"> </text>
<text text-anchor="start" x="629.69" y="-429.51" font-family="Helvetica,sans-Serif" font-size="14.00"> error: 0.336, n=34465 </text>
<text text-anchor="start" x="657.69" y="-415.51" font-family="Helvetica,sans-Serif" font-size="14.00"> p: (0.94, 0.06) </text>
<text text-anchor="start" x="688.69" y="-401.51" font-family="Helvetica,sans-Serif" font-size="14.00">&#45;&#45;&#45;&#45;&#45;&#45;&#45;&#45;&#45;</text>
<text text-anchor="start" x="671.69" y="-387.51" font-family="Helvetica,sans-Serif" font-weight="bold" font-size="14.00">v_16=0.00</text>
</g>
<!-- 3&#45;&gt;10 -->
<g id="edge7" class="edge">
<title>3:s&#45;&gt;10:n</title>
<path fill="none" stroke="black" d="M712.69,-508.71C712.69,-508.71 712.69,-482.93 712.69,-468.03"/>
<polygon fill="black" stroke="black" points="716.19,-467.71 712.69,-457.71 709.19,-467.71 716.19,-467.71"/>
<text text-anchor="middle" x="717.69" y="-479.51" font-family="Helvetica,sans-Serif" font-size="14.00">2</text>
</g>
<!-- 13 -->
<g id="node15" class="node">
<title>13</title>
<polygon fill="#64e544" stroke="black" points="1137.69,-457.71 955.69,-457.71 955.69,-379.71 1137.69,-379.71 1137.69,-457.71"/>
<text text-anchor="start" x="1007.69" y="-443.51" font-family="Helvetica,sans-Serif" font-weight="bold" font-size="14.00"> Class=2 </text>
<text text-anchor="start" x="1080.69" y="-443.51" font-family="Helvetica,sans-Serif" font-size="14.00"> </text>
<text text-anchor="start" x="963.69" y="-429.51" font-family="Helvetica,sans-Serif" font-size="14.00"> error: 0.326, n=34465 </text>
<text text-anchor="start" x="991.69" y="-415.51" font-family="Helvetica,sans-Serif" font-size="14.00"> p: (0.06, 0.94) </text>
<text text-anchor="start" x="1038.69" y="-401.51" font-family="Helvetica,sans-Serif" font-size="14.00">&#45;&#45;&#45;</text>
<text text-anchor="start" x="1031.19" y="-387.51" font-family="Helvetica,sans-Serif" font-weight="bold" font-size="14.00">V92</text>
</g>
<!-- 12&#45;&gt;13 -->
<g id="edge14" class="edge">
<title>12:s&#45;&gt;13:n</title>
<path fill="none" stroke="black" d="M1046.69,-508.71C1046.69,-508.71 1046.69,-482.93 1046.69,-468.03"/>
<polygon fill="black" stroke="black" points="1050.19,-467.71 1046.69,-457.71 1043.19,-467.71 1050.19,-467.71"/>
<text text-anchor="middle" x="1051.69" y="-479.51" font-family="Helvetica,sans-Serif" font-size="14.00">1</text>
</g>
<!-- 5 -->
<g id="node9" class="node">
<title>5</title>
<ellipse fill="#3dcc76" stroke="black" cx="128.69" cy="-289.71" rx="128.89" ry="35.21"/>
<text text-anchor="start" x="89.69" y="-300.51" font-family="Helvetica,sans-Serif" font-weight="bold" font-size="14.00"> Class=1 </text>
<text text-anchor="start" x="162.69" y="-300.51" font-family="Helvetica,sans-Serif" font-size="14.00"> </text>
<text text-anchor="start" x="45.69" y="-286.51" font-family="Helvetica,sans-Serif" font-size="14.00"> error: 0.294, n=34465 </text>
<text text-anchor="start" x="73.69" y="-272.51" font-family="Helvetica,sans-Serif" font-size="14.00"> p: (0.95, 0.05) </text>
</g>
<!-- 4&#45;&gt;5 -->
<g id="edge8" class="edge">
<title>4:s&#45;&gt;5:n</title>
<path fill="none" stroke="black" d="M420.69,-379.71C420.69,-379.71 190.09,-337.06 138.74,-327.57"/>
<polygon fill="black" stroke="black" points="139.16,-324.09 128.69,-325.71 137.89,-330.97 139.16,-324.09"/>
<text text-anchor="middle" x="323.69" y="-350.51" font-family="Helvetica,sans-Serif" font-size="14.00">2</text>
</g>
<!-- 6 -->
<g id="node10" class="node">
<title>6</title>
<polygon fill="#3dcc76" stroke="black" points="511.69,-328.71 329.69,-328.71 329.69,-250.71 511.69,-250.71 511.69,-328.71"/>
<text text-anchor="start" x="381.69" y="-314.51" font-family="Helvetica,sans-Serif" font-weight="bold" font-size="14.00"> Class=1 </text>
<text text-anchor="start" x="454.69" y="-314.51" font-family="Helvetica,sans-Serif" font-size="14.00"> </text>
<text text-anchor="start" x="337.69" y="-300.51" font-family="Helvetica,sans-Serif" font-size="14.00"> error: 0.806, n=34465 </text>
<text text-anchor="start" x="365.69" y="-286.51" font-family="Helvetica,sans-Serif" font-size="14.00"> p: (0.75, 0.25) </text>
<text text-anchor="start" x="396.69" y="-272.51" font-family="Helvetica,sans-Serif" font-size="14.00">&#45;&#45;&#45;&#45;&#45;&#45;&#45;&#45;&#45;</text>
<text text-anchor="start" x="379.69" y="-258.51" font-family="Helvetica,sans-Serif" font-weight="bold" font-size="14.00">v_29=0.00</text>
</g>
<!-- 4&#45;&gt;6 -->
<g id="edge9" class="edge">
<title>4:s&#45;&gt;6:n</title>
<path fill="none" stroke="black" d="M420.69,-379.71C420.69,-379.71 420.69,-353.93 420.69,-339.03"/>
<polygon fill="black" stroke="black" points="424.19,-338.71 420.69,-328.71 417.19,-338.71 424.19,-338.71"/>
<text text-anchor="middle" x="425.69" y="-350.51" font-family="Helvetica,sans-Serif" font-size="14.00">1</text>
</g>
<!-- 11 -->
<g id="node14" class="node">
<title>11</title>
<ellipse fill="#3dcc76" stroke="black" cx="712.69" cy="-289.71" rx="128.89" ry="35.21"/>
<text text-anchor="start" x="673.69" y="-300.51" font-family="Helvetica,sans-Serif" font-weight="bold" font-size="14.00"> Class=1 </text>
<text text-anchor="start" x="746.69" y="-300.51" font-family="Helvetica,sans-Serif" font-size="14.00"> </text>
<text text-anchor="start" x="629.69" y="-286.51" font-family="Helvetica,sans-Serif" font-size="14.00"> error: 0.183, n=34465 </text>
<text text-anchor="start" x="657.69" y="-272.51" font-family="Helvetica,sans-Serif" font-size="14.00"> p: (0.97, 0.03) </text>
</g>
<!-- 10&#45;&gt;11 -->
<g id="edge13" class="edge">
<title>10:s&#45;&gt;11:n</title>
<path fill="none" stroke="black" d="M712.69,-379.71C712.69,-379.71 712.69,-351.81 712.69,-336.12"/>
<polygon fill="black" stroke="black" points="716.19,-335.71 712.69,-325.71 709.19,-335.71 716.19,-335.71"/>
<text text-anchor="middle" x="756.69" y="-350.51" font-family="Helvetica,sans-Serif" font-size="14.00">&lt;= 0.04486</text>
</g>
<!-- 7 -->
<g id="node11" class="node">
<title>7</title>
<polygon fill="#44e5e5" stroke="black" points="511.69,-199.71 329.69,-199.71 329.69,-121.71 511.69,-121.71 511.69,-199.71"/>
<text text-anchor="start" x="381.69" y="-185.51" font-family="Helvetica,sans-Serif" font-weight="bold" font-size="14.00"> Class=1 </text>
<text text-anchor="start" x="454.69" y="-185.51" font-family="Helvetica,sans-Serif" font-size="14.00"> </text>
<text text-anchor="start" x="337.69" y="-171.51" font-family="Helvetica,sans-Serif" font-size="14.00"> error: 0.641, n=34465 </text>
<text text-anchor="start" x="365.69" y="-157.51" font-family="Helvetica,sans-Serif" font-size="14.00"> p: (0.84, 0.16) </text>
<text text-anchor="start" x="399.19" y="-143.51" font-family="Helvetica,sans-Serif" font-size="14.00">&#45;&#45;&#45;&#45;&#45;&#45;&#45;&#45;</text>
<text text-anchor="start" x="384.19" y="-129.51" font-family="Helvetica,sans-Serif" font-weight="bold" font-size="14.00">v_1=0.18</text>
</g>
<!-- 6&#45;&gt;7 -->
<g id="edge10" class="edge">
<title>6:s&#45;&gt;7:n</title>
<path fill="none" stroke="black" d="M420.69,-250.71C420.69,-250.71 420.69,-224.93 420.69,-210.03"/>
<polygon fill="black" stroke="black" points="424.19,-209.71 420.69,-199.71 417.19,-209.71 424.19,-209.71"/>
<text text-anchor="middle" x="461.19" y="-221.51" font-family="Helvetica,sans-Serif" font-size="14.00">&gt; &#45;0.01998</text>
</g>
<!-- 8 -->
<g id="node12" class="node">
<title>8</title>
<ellipse fill="#3d76cc" stroke="black" cx="256.69" cy="-35.36" rx="128.89" ry="35.21"/>
<text text-anchor="start" x="217.69" y="-46.16" font-family="Helvetica,sans-Serif" font-weight="bold" font-size="14.00"> Class=1 </text>
<text text-anchor="start" x="290.69" y="-46.16" font-family="Helvetica,sans-Serif" font-size="14.00"> </text>
<text text-anchor="start" x="173.69" y="-32.16" font-family="Helvetica,sans-Serif" font-size="14.00"> error: 0.239, n=34465 </text>
<text text-anchor="start" x="201.69" y="-18.16" font-family="Helvetica,sans-Serif" font-size="14.00"> p: (0.96, 0.04) </text>
</g>
<!-- 7&#45;&gt;8 -->
<g id="edge11" class="edge">
<title>7:s&#45;&gt;8:n</title>
<path fill="none" stroke="black" d="M420.69,-121.71C420.69,-121.71 301.77,-84.73 266.46,-73.75"/>
<polygon fill="black" stroke="black" points="267.28,-70.34 256.69,-70.71 265.2,-77.02 267.28,-70.34"/>
<text text-anchor="middle" x="400.69" y="-92.51" font-family="Helvetica,sans-Serif" font-size="14.00">&lt;= &#45;0.7023</text>
</g>
<!-- 9 -->
<g id="node13" class="node">
<title>9</title>
<ellipse fill="#3d76cc" stroke="black" cx="585.69" cy="-35.36" rx="128.89" ry="35.21"/>
<text text-anchor="start" x="546.69" y="-46.16" font-family="Helvetica,sans-Serif" font-weight="bold" font-size="14.00"> Class=1 </text>
<text text-anchor="start" x="619.69" y="-46.16" font-family="Helvetica,sans-Serif" font-size="14.00"> </text>
<text text-anchor="start" x="502.69" y="-32.16" font-family="Helvetica,sans-Serif" font-size="14.00"> error: 0.862, n=34465 </text>
<text text-anchor="start" x="530.69" y="-18.16" font-family="Helvetica,sans-Serif" font-size="14.00"> p: (0.72, 0.28) </text>
</g>
<!-- 7&#45;&gt;9 -->
<g id="edge12" class="edge">
<title>7:s&#45;&gt;9:n</title>
<path fill="none" stroke="black" d="M420.69,-121.71C420.69,-121.71 540.34,-84.73 575.87,-73.75"/>
<polygon fill="black" stroke="black" points="577.17,-77.01 585.69,-70.71 575.11,-70.32 577.17,-77.01"/>
<text text-anchor="middle" x="559.69" y="-92.51" font-family="Helvetica,sans-Serif" font-size="14.00">&gt; &#45;0.7023</text>
</g>
<!-- 14 -->
<g id="node16" class="node">
<title>14</title>
<ellipse fill="#3dcc76" stroke="black" cx="1041.69" cy="-289.71" rx="128.89" ry="35.21"/>
<text text-anchor="start" x="1002.69" y="-300.51" font-family="Helvetica,sans-Serif" font-weight="bold" font-size="14.00"> Class=2 </text>
<text text-anchor="start" x="1075.69" y="-300.51" font-family="Helvetica,sans-Serif" font-size="14.00"> </text>
<text text-anchor="start" x="958.69" y="-286.51" font-family="Helvetica,sans-Serif" font-size="14.00"> error: 0.357, n=34465 </text>
<text text-anchor="start" x="986.69" y="-272.51" font-family="Helvetica,sans-Serif" font-size="14.00"> p: (0.07, 0.93) </text>
</g>
<!-- 13&#45;&gt;14 -->
<g id="edge15" class="edge">
<title>13:s&#45;&gt;14:n</title>
<path fill="none" stroke="black" d="M1046.69,-379.71C1046.69,-379.71 1044.11,-351.81 1042.66,-336.12"/>
<polygon fill="black" stroke="black" points="1046.1,-335.35 1041.69,-325.71 1039.13,-335.99 1046.1,-335.35"/>
<text text-anchor="middle" x="1050.69" y="-350.51" font-family="Helvetica,sans-Serif" font-size="14.00">1</text>
</g>
<!-- 15 -->
<g id="node17" class="node">
<title>15</title>
<ellipse fill="#3dcc76" stroke="black" cx="1370.69" cy="-289.71" rx="128.89" ry="35.21"/>
<text text-anchor="start" x="1331.69" y="-300.51" font-family="Helvetica,sans-Serif" font-weight="bold" font-size="14.00"> Class=2 </text>
<text text-anchor="start" x="1404.69" y="-300.51" font-family="Helvetica,sans-Serif" font-size="14.00"> </text>
<text text-anchor="start" x="1287.69" y="-286.51" font-family="Helvetica,sans-Serif" font-size="14.00"> error: 0.079, n=34465 </text>
<text text-anchor="start" x="1315.69" y="-272.51" font-family="Helvetica,sans-Serif" font-size="14.00"> p: (0.01, 0.99) </text>
</g>
<!-- 13&#45;&gt;15 -->
<g id="edge16" class="edge">
<title>13:s&#45;&gt;15:n</title>
<path fill="none" stroke="black" d="M1046.69,-379.71C1046.69,-379.71 1305.95,-336.5 1360.64,-327.39"/>
<polygon fill="black" stroke="black" points="1361.4,-330.81 1370.69,-325.71 1360.25,-323.9 1361.4,-330.81"/>
<text text-anchor="middle" x="1243.69" y="-350.51" font-family="Helvetica,sans-Serif" font-size="14.00">3</text>
</g>
<!-- 19 -->
<g id="node20" class="node">
<title>19</title>
<polygon fill="#64e544" stroke="black" points="1748.69,-457.71 1566.69,-457.71 1566.69,-379.71 1748.69,-379.71 1748.69,-457.71"/>
<text text-anchor="start" x="1618.69" y="-443.51" font-family="Helvetica,sans-Serif" font-weight="bold" font-size="14.00"> Class=2 </text>
<text text-anchor="start" x="1691.69" y="-443.51" font-family="Helvetica,sans-Serif" font-size="14.00"> </text>
<text text-anchor="start" x="1574.69" y="-429.51" font-family="Helvetica,sans-Serif" font-size="14.00"> error: 0.461, n=34465 </text>
<text text-anchor="start" x="1602.69" y="-415.51" font-family="Helvetica,sans-Serif" font-size="14.00"> p: (0.10, 0.90) </text>
<text text-anchor="start" x="1636.19" y="-401.51" font-family="Helvetica,sans-Serif" font-size="14.00">&#45;&#45;&#45;&#45;&#45;&#45;&#45;&#45;</text>
<text text-anchor="start" x="1621.19" y="-387.51" font-family="Helvetica,sans-Serif" font-weight="bold" font-size="14.00">v_1=0.18</text>
</g>
<!-- 18&#45;&gt;19 -->
<g id="edge19" class="edge">
<title>18:s&#45;&gt;19:n</title>
<path fill="none" stroke="black" d="M1657.69,-508.71C1657.69,-508.71 1657.69,-482.93 1657.69,-468.03"/>
<polygon fill="black" stroke="black" points="1661.19,-467.71 1657.69,-457.71 1654.19,-467.71 1661.19,-467.71"/>
<text text-anchor="middle" x="1662.69" y="-479.51" font-family="Helvetica,sans-Serif" font-size="14.00">1</text>
</g>
<!-- 22 -->
<g id="node21" class="node">
<title>22</title>
<ellipse fill="#64e544" stroke="black" cx="1949.69" cy="-418.71" rx="128.89" ry="35.21"/>
<text text-anchor="start" x="1910.69" y="-429.51" font-family="Helvetica,sans-Serif" font-weight="bold" font-size="14.00"> Class=2 </text>
<text text-anchor="start" x="1983.69" y="-429.51" font-family="Helvetica,sans-Serif" font-size="14.00"> </text>
<text text-anchor="start" x="1866.69" y="-415.51" font-family="Helvetica,sans-Serif" font-size="14.00"> error: 0.091, n=34465 </text>
<text text-anchor="start" x="1894.69" y="-401.51" font-family="Helvetica,sans-Serif" font-size="14.00"> p: (0.01, 0.99) </text>
</g>
<!-- 18&#45;&gt;22 -->
<g id="edge20" class="edge">
<title>18:s&#45;&gt;22:n</title>
<path fill="none" stroke="black" d="M1657.69,-508.71C1657.69,-508.71 1888.3,-466.06 1939.64,-456.57"/>
<polygon fill="black" stroke="black" points="1940.5,-459.97 1949.69,-454.71 1939.22,-453.09 1940.5,-459.97"/>
<text text-anchor="middle" x="1835.69" y="-479.51" font-family="Helvetica,sans-Serif" font-size="14.00">3</text>
</g>
<!-- 20 -->
<g id="node22" class="node">
<title>20</title>
<polygon fill="#3dcc76" stroke="black" points="1753.69,-328.71 1571.69,-328.71 1571.69,-250.71 1753.69,-250.71 1753.69,-328.71"/>
<text text-anchor="start" x="1623.69" y="-314.51" font-family="Helvetica,sans-Serif" font-weight="bold" font-size="14.00"> Class=2 </text>
<text text-anchor="start" x="1696.69" y="-314.51" font-family="Helvetica,sans-Serif" font-size="14.00"> </text>
<text text-anchor="start" x="1579.69" y="-300.51" font-family="Helvetica,sans-Serif" font-size="14.00"> error: 0.222, n=34465 </text>
<text text-anchor="start" x="1607.69" y="-286.51" font-family="Helvetica,sans-Serif" font-size="14.00"> p: (0.04, 0.96) </text>
<text text-anchor="start" x="1654.69" y="-272.51" font-family="Helvetica,sans-Serif" font-size="14.00">&#45;&#45;&#45;</text>
<text text-anchor="start" x="1647.19" y="-258.51" font-family="Helvetica,sans-Serif" font-weight="bold" font-size="14.00">V71</text>
</g>
<!-- 19&#45;&gt;20 -->
<g id="edge21" class="edge">
<title>19:s&#45;&gt;20:n</title>
<path fill="none" stroke="black" d="M1657.69,-379.71C1657.69,-379.71 1660.22,-353.93 1661.68,-339.03"/>
<polygon fill="black" stroke="black" points="1665.2,-339 1662.69,-328.71 1658.23,-338.32 1665.2,-339"/>
<text text-anchor="middle" x="1697.69" y="-350.51" font-family="Helvetica,sans-Serif" font-size="14.00">&gt; &#45;0.8413</text>
</g>
<!-- 21 -->
<g id="node23" class="node">
<title>21</title>
<ellipse fill="#44e5e5" stroke="black" cx="1662.69" cy="-160.71" rx="128.89" ry="35.21"/>
<text text-anchor="start" x="1623.69" y="-171.51" font-family="Helvetica,sans-Serif" font-weight="bold" font-size="14.00"> Class=2 </text>
<text text-anchor="start" x="1696.69" y="-171.51" font-family="Helvetica,sans-Serif" font-size="14.00"> </text>
<text text-anchor="start" x="1579.69" y="-157.51" font-family="Helvetica,sans-Serif" font-size="14.00"> error: 0.080, n=34465 </text>
<text text-anchor="start" x="1607.69" y="-143.51" font-family="Helvetica,sans-Serif" font-size="14.00"> p: (0.01, 0.99) </text>
</g>
<!-- 20&#45;&gt;21 -->
<g id="edge22" class="edge">
<title>20:s&#45;&gt;21:n</title>
<path fill="none" stroke="black" d="M1662.69,-250.71C1662.69,-250.71 1662.69,-222.81 1662.69,-207.12"/>
<polygon fill="black" stroke="black" points="1666.19,-206.71 1662.69,-196.71 1659.19,-206.71 1666.19,-206.71"/>
<text text-anchor="middle" x="1667.69" y="-221.51" font-family="Helvetica,sans-Serif" font-size="14.00">3</text>
</g>
</g>
</svg>
