<?xml version="1.0" encoding="UTF-8" standalone="no"?>
<!DOCTYPE svg PUBLIC "-//W3C//DTD SVG 1.1//EN"
 "http://www.w3.org/Graphics/SVG/1.1/DTD/svg11.dtd">
<!-- Generated by graphviz version 2.43.0 (0)
 -->
<!-- Title: Tree Pages: 1 -->
<svg width="1477pt" height="1083pt"
 viewBox="0.00 0.00 1476.66 1082.71" xmlns="http://www.w3.org/2000/svg" xmlns:xlink="http://www.w3.org/1999/xlink">
<g id="graph0" class="graph" transform="scale(1 1) rotate(0) translate(18 1064.71)">
<title>Tree</title>
<polygon fill="white" stroke="transparent" points="-18,18 -18,-1064.71 1458.66,-1064.71 1458.66,18 -18,18"/>
<!-- 0 -->
<g id="node1" class="node">
<title>0</title>
<polygon fill="white" stroke="transparent" points="529.33,-1046.71 475.33,-1046.71 475.33,-1010.71 529.33,-1010.71 529.33,-1046.71"/>
<text text-anchor="middle" x="502.33" y="-1025.01" font-family="Helvetica,sans-Serif" font-size="14.00">0</text>
</g>
<!-- 1 -->
<g id="node2" class="node">
<title>1</title>
<polygon fill="#cc3d3d" stroke="black" points="588.83,-973.71 415.83,-973.71 415.83,-895.71 588.83,-895.71 588.83,-973.71"/>
<text text-anchor="start" x="463.33" y="-959.51" font-family="Helvetica,sans-Serif" font-weight="bold" font-size="14.00"> Class=1 </text>
<text text-anchor="start" x="536.33" y="-959.51" font-family="Helvetica,sans-Serif" font-size="14.00"> </text>
<text text-anchor="start" x="423.83" y="-945.51" font-family="Helvetica,sans-Serif" font-size="14.00"> error: 0.340, n=2534 </text>
<text text-anchor="start" x="447.33" y="-931.51" font-family="Helvetica,sans-Serif" font-size="14.00"> p: (0.94, 0.06) </text>
<text text-anchor="start" x="480.83" y="-917.51" font-family="Helvetica,sans-Serif" font-size="14.00">&#45;&#45;&#45;&#45;&#45;&#45;&#45;&#45;</text>
<text text-anchor="start" x="465.83" y="-903.51" font-family="Helvetica,sans-Serif" font-weight="bold" font-size="14.00">v_4=0.02</text>
</g>
<!-- 0&#45;&gt;1 -->
<!-- 2 -->
<g id="node3" class="node">
<title>2</title>
<ellipse fill="#e59744" stroke="black" cx="432.33" cy="-805.71" rx="122.16" ry="35.21"/>
<text text-anchor="start" x="393.33" y="-816.51" font-family="Helvetica,sans-Serif" font-weight="bold" font-size="14.00"> Class=1 </text>
<text text-anchor="start" x="466.33" y="-816.51" font-family="Helvetica,sans-Serif" font-size="14.00"> </text>
<text text-anchor="start" x="353.83" y="-802.51" font-family="Helvetica,sans-Serif" font-size="14.00"> error: 0.131, n=2534 </text>
<text text-anchor="start" x="377.33" y="-788.51" font-family="Helvetica,sans-Serif" font-size="14.00"> p: (0.98, 0.02) </text>
</g>
<!-- 1&#45;&gt;2 -->
<g id="edge2" class="edge">
<title>1:s&#45;&gt;2:n</title>
<path fill="none" stroke="black" d="M502.33,-895.71C502.33,-895.71 458.75,-862.71 440.36,-848.79"/>
<polygon fill="black" stroke="black" points="442.41,-845.96 432.33,-842.71 438.19,-851.54 442.41,-845.96"/>
<text text-anchor="middle" x="509.83" y="-866.51" font-family="Helvetica,sans-Serif" font-size="14.00">&gt; &#45;2.651</text>
</g>
<!-- 3 -->
<g id="node4" class="node">
<title>3</title>
<polygon fill="#e59744" stroke="black" points="799.83,-844.71 626.83,-844.71 626.83,-766.71 799.83,-766.71 799.83,-844.71"/>
<text text-anchor="start" x="674.33" y="-830.51" font-family="Helvetica,sans-Serif" font-weight="bold" font-size="14.00"> Class=1 </text>
<text text-anchor="start" x="747.33" y="-830.51" font-family="Helvetica,sans-Serif" font-size="14.00"> </text>
<text text-anchor="start" x="634.83" y="-816.51" font-family="Helvetica,sans-Serif" font-size="14.00"> error: 0.495, n=2534 </text>
<text text-anchor="start" x="658.33" y="-802.51" font-family="Helvetica,sans-Serif" font-size="14.00"> p: (0.89, 0.11) </text>
<text text-anchor="start" x="691.83" y="-788.51" font-family="Helvetica,sans-Serif" font-size="14.00">&#45;&#45;&#45;&#45;&#45;&#45;&#45;&#45;</text>
<text text-anchor="start" x="676.83" y="-774.51" font-family="Helvetica,sans-Serif" font-weight="bold" font-size="14.00">v_5=0.01</text>
</g>
<!-- 1&#45;&gt;3 -->
<g id="edge3" class="edge">
<title>1:s&#45;&gt;3:n</title>
<path fill="none" stroke="black" d="M502.33,-895.71C502.33,-895.71 661.72,-857.19 703.44,-847.1"/>
<polygon fill="black" stroke="black" points="704.43,-850.46 713.33,-844.71 702.79,-843.66 704.43,-850.46"/>
<text text-anchor="middle" x="670.83" y="-866.51" font-family="Helvetica,sans-Serif" font-size="14.00">&lt;= &#45;2.651</text>
</g>
<!-- 4 -->
<g id="node5" class="node">
<title>4</title>
<polygon fill="#c8cc3d" stroke="black" points="629.83,-715.71 456.83,-715.71 456.83,-637.71 629.83,-637.71 629.83,-715.71"/>
<text text-anchor="start" x="504.33" y="-701.51" font-family="Helvetica,sans-Serif" font-weight="bold" font-size="14.00"> Class=1 </text>
<text text-anchor="start" x="577.33" y="-701.51" font-family="Helvetica,sans-Serif" font-size="14.00"> </text>
<text text-anchor="start" x="464.83" y="-687.51" font-family="Helvetica,sans-Serif" font-size="14.00"> error: 0.682, n=2534 </text>
<text text-anchor="start" x="488.33" y="-673.51" font-family="Helvetica,sans-Serif" font-size="14.00"> p: (0.82, 0.18) </text>
<text text-anchor="start" x="519.33" y="-659.51" font-family="Helvetica,sans-Serif" font-size="14.00">&#45;&#45;&#45;&#45;&#45;&#45;&#45;&#45;&#45;</text>
<text text-anchor="start" x="502.33" y="-645.51" font-family="Helvetica,sans-Serif" font-weight="bold" font-size="14.00">v_20=0.00</text>
</g>
<!-- 3&#45;&gt;4 -->
<g id="edge4" class="edge">
<title>3:s&#45;&gt;4:n</title>
<path fill="none" stroke="black" d="M713.33,-766.71C713.33,-766.71 588.92,-729.39 552.96,-718.6"/>
<polygon fill="black" stroke="black" points="553.91,-715.23 543.33,-715.71 551.9,-721.94 553.91,-715.23"/>
<text text-anchor="middle" x="693.33" y="-737.51" font-family="Helvetica,sans-Serif" font-size="14.00">&lt;= &#45;0.9488</text>
</g>
<!-- 18 -->
<g id="node6" class="node">
<title>18</title>
<ellipse fill="#c8cc3d" stroke="black" cx="824.33" cy="-676.71" rx="122.16" ry="35.21"/>
<text text-anchor="start" x="785.33" y="-687.51" font-family="Helvetica,sans-Serif" font-weight="bold" font-size="14.00"> Class=1 </text>
<text text-anchor="start" x="858.33" y="-687.51" font-family="Helvetica,sans-Serif" font-size="14.00"> </text>
<text text-anchor="start" x="745.83" y="-673.51" font-family="Helvetica,sans-Serif" font-size="14.00"> error: 0.225, n=2534 </text>
<text text-anchor="start" x="769.33" y="-659.51" font-family="Helvetica,sans-Serif" font-size="14.00"> p: (0.96, 0.04) </text>
</g>
<!-- 3&#45;&gt;18 -->
<g id="edge5" class="edge">
<title>3:s&#45;&gt;18:n</title>
<path fill="none" stroke="black" d="M713.33,-766.71C713.33,-766.71 788.74,-730.71 815.25,-718.05"/>
<polygon fill="black" stroke="black" points="816.81,-721.18 824.33,-713.71 813.8,-714.86 816.81,-721.18"/>
<text text-anchor="middle" x="818.33" y="-737.51" font-family="Helvetica,sans-Serif" font-size="14.00">&gt; &#45;0.9488</text>
</g>
<!-- 5 -->
<g id="node7" class="node">
<title>5</title>
<polygon fill="#8ee544" stroke="black" points="489.83,-586.71 316.83,-586.71 316.83,-508.71 489.83,-508.71 489.83,-586.71"/>
<text text-anchor="start" x="364.33" y="-572.51" font-family="Helvetica,sans-Serif" font-weight="bold" font-size="14.00"> Class=1 </text>
<text text-anchor="start" x="437.33" y="-572.51" font-family="Helvetica,sans-Serif" font-size="14.00"> </text>
<text text-anchor="start" x="324.83" y="-558.51" font-family="Helvetica,sans-Serif" font-size="14.00"> error: 0.818, n=2534 </text>
<text text-anchor="start" x="348.33" y="-544.51" font-family="Helvetica,sans-Serif" font-size="14.00"> p: (0.75, 0.25) </text>
<text text-anchor="start" x="381.83" y="-530.51" font-family="Helvetica,sans-Serif" font-size="14.00">&#45;&#45;&#45;&#45;&#45;&#45;&#45;&#45;</text>
<text text-anchor="start" x="366.83" y="-516.51" font-family="Helvetica,sans-Serif" font-weight="bold" font-size="14.00">v_0=0.62</text>
</g>
<!-- 4&#45;&gt;5 -->
<g id="edge6" class="edge">
<title>4:s&#45;&gt;5:n</title>
<path fill="none" stroke="black" d="M543.33,-637.71C543.33,-637.71 444.58,-601.74 412.95,-590.22"/>
<polygon fill="black" stroke="black" points="413.92,-586.84 403.33,-586.71 411.53,-593.42 413.92,-586.84"/>
<text text-anchor="middle" x="519.83" y="-608.51" font-family="Helvetica,sans-Serif" font-size="14.00">&lt;= &#45;0.03903</text>
</g>
<!-- 12 -->
<g id="node8" class="node">
<title>12</title>
<polygon fill="#8ee544" stroke="black" points="770.83,-586.71 597.83,-586.71 597.83,-508.71 770.83,-508.71 770.83,-586.71"/>
<text text-anchor="start" x="645.33" y="-572.51" font-family="Helvetica,sans-Serif" font-weight="bold" font-size="14.00"> Class=1 </text>
<text text-anchor="start" x="718.33" y="-572.51" font-family="Helvetica,sans-Serif" font-size="14.00"> </text>
<text text-anchor="start" x="605.83" y="-558.51" font-family="Helvetica,sans-Serif" font-size="14.00"> error: 0.493, n=2534 </text>
<text text-anchor="start" x="629.33" y="-544.51" font-family="Helvetica,sans-Serif" font-size="14.00"> p: (0.89, 0.11) </text>
<text text-anchor="start" x="660.33" y="-530.51" font-family="Helvetica,sans-Serif" font-size="14.00">&#45;&#45;&#45;&#45;&#45;&#45;&#45;&#45;&#45;</text>
<text text-anchor="start" x="643.33" y="-516.51" font-family="Helvetica,sans-Serif" font-weight="bold" font-size="14.00">v_18=0.00</text>
</g>
<!-- 4&#45;&gt;12 -->
<g id="edge7" class="edge">
<title>4:s&#45;&gt;12:n</title>
<path fill="none" stroke="black" d="M543.33,-637.71C543.33,-637.71 642.78,-601.74 674.64,-590.22"/>
<polygon fill="black" stroke="black" points="676.12,-593.4 684.33,-586.71 673.74,-586.82 676.12,-593.4"/>
<text text-anchor="middle" x="671.83" y="-608.51" font-family="Helvetica,sans-Serif" font-size="14.00">&gt; &#45;0.03903</text>
</g>
<!-- 6 -->
<g id="node9" class="node">
<title>6</title>
<ellipse fill="#3dcc45" stroke="black" cx="122.33" cy="-418.71" rx="122.16" ry="35.21"/>
<text text-anchor="start" x="83.33" y="-429.51" font-family="Helvetica,sans-Serif" font-weight="bold" font-size="14.00"> Class=1 </text>
<text text-anchor="start" x="156.33" y="-429.51" font-family="Helvetica,sans-Serif" font-size="14.00"> </text>
<text text-anchor="start" x="43.83" y="-415.51" font-family="Helvetica,sans-Serif" font-size="14.00"> error: 0.473, n=2534 </text>
<text text-anchor="start" x="67.33" y="-401.51" font-family="Helvetica,sans-Serif" font-size="14.00"> p: (0.90, 0.10) </text>
</g>
<!-- 5&#45;&gt;6 -->
<g id="edge8" class="edge">
<title>5:s&#45;&gt;6:n</title>
<path fill="none" stroke="black" d="M403.33,-508.71C403.33,-508.71 182.39,-467.04 132.33,-457.6"/>
<polygon fill="black" stroke="black" points="132.8,-454.12 122.33,-455.71 131.51,-461 132.8,-454.12"/>
<text text-anchor="middle" x="342.83" y="-479.51" font-family="Helvetica,sans-Serif" font-size="14.00">&lt;= &#45;80.26</text>
</g>
<!-- 7 -->
<g id="node10" class="node">
<title>7</title>
<polygon fill="#3dcc45" stroke="black" points="489.83,-457.71 316.83,-457.71 316.83,-379.71 489.83,-379.71 489.83,-457.71"/>
<text text-anchor="start" x="364.33" y="-443.51" font-family="Helvetica,sans-Serif" font-weight="bold" font-size="14.00"> Class=1 </text>
<text text-anchor="start" x="437.33" y="-443.51" font-family="Helvetica,sans-Serif" font-size="14.00"> </text>
<text text-anchor="start" x="324.83" y="-429.51" font-family="Helvetica,sans-Serif" font-size="14.00"> error: 0.887, n=2534 </text>
<text text-anchor="start" x="348.33" y="-415.51" font-family="Helvetica,sans-Serif" font-size="14.00"> p: (0.69, 0.31) </text>
<text text-anchor="start" x="379.33" y="-401.51" font-family="Helvetica,sans-Serif" font-size="14.00">&#45;&#45;&#45;&#45;&#45;&#45;&#45;&#45;&#45;</text>
<text text-anchor="start" x="362.33" y="-387.51" font-family="Helvetica,sans-Serif" font-weight="bold" font-size="14.00">v_23=0.00</text>
</g>
<!-- 5&#45;&gt;7 -->
<g id="edge9" class="edge">
<title>5:s&#45;&gt;7:n</title>
<path fill="none" stroke="black" d="M403.33,-508.71C403.33,-508.71 403.33,-482.93 403.33,-468.03"/>
<polygon fill="black" stroke="black" points="406.83,-467.71 403.33,-457.71 399.83,-467.71 406.83,-467.71"/>
<text text-anchor="middle" x="434.83" y="-479.51" font-family="Helvetica,sans-Serif" font-size="14.00">&gt; &#45;80.26</text>
</g>
<!-- 13 -->
<g id="node15" class="node">
<title>13</title>
<polygon fill="#3dcc45" stroke="black" points="770.83,-457.71 597.83,-457.71 597.83,-379.71 770.83,-379.71 770.83,-457.71"/>
<text text-anchor="start" x="645.33" y="-443.51" font-family="Helvetica,sans-Serif" font-weight="bold" font-size="14.00"> Class=1 </text>
<text text-anchor="start" x="718.33" y="-443.51" font-family="Helvetica,sans-Serif" font-size="14.00"> </text>
<text text-anchor="start" x="605.83" y="-429.51" font-family="Helvetica,sans-Serif" font-size="14.00"> error: 0.260, n=2534 </text>
<text text-anchor="start" x="629.33" y="-415.51" font-family="Helvetica,sans-Serif" font-size="14.00"> p: (0.96, 0.04) </text>
<text text-anchor="start" x="660.33" y="-401.51" font-family="Helvetica,sans-Serif" font-size="14.00">&#45;&#45;&#45;&#45;&#45;&#45;&#45;&#45;&#45;</text>
<text text-anchor="start" x="643.33" y="-387.51" font-family="Helvetica,sans-Serif" font-weight="bold" font-size="14.00">v_19=0.00</text>
</g>
<!-- 12&#45;&gt;13 -->
<g id="edge14" class="edge">
<title>12:s&#45;&gt;13:n</title>
<path fill="none" stroke="black" d="M684.33,-508.71C684.33,-508.71 684.33,-482.93 684.33,-468.03"/>
<polygon fill="black" stroke="black" points="687.83,-467.71 684.33,-457.71 680.83,-467.71 687.83,-467.71"/>
<text text-anchor="middle" x="726.33" y="-479.51" font-family="Helvetica,sans-Serif" font-size="14.00">&lt;= &#45;0.1178</text>
</g>
<!-- 15 -->
<g id="node16" class="node">
<title>15</title>
<polygon fill="#3dcc45" stroke="black" points="1087.83,-457.71 914.83,-457.71 914.83,-379.71 1087.83,-379.71 1087.83,-457.71"/>
<text text-anchor="start" x="962.33" y="-443.51" font-family="Helvetica,sans-Serif" font-weight="bold" font-size="14.00"> Class=1 </text>
<text text-anchor="start" x="1035.33" y="-443.51" font-family="Helvetica,sans-Serif" font-size="14.00"> </text>
<text text-anchor="start" x="922.83" y="-429.51" font-family="Helvetica,sans-Serif" font-size="14.00"> error: 0.662, n=2534 </text>
<text text-anchor="start" x="946.33" y="-415.51" font-family="Helvetica,sans-Serif" font-size="14.00"> p: (0.83, 0.17) </text>
<text text-anchor="start" x="979.83" y="-401.51" font-family="Helvetica,sans-Serif" font-size="14.00">&#45;&#45;&#45;&#45;&#45;&#45;&#45;&#45;</text>
<text text-anchor="start" x="964.83" y="-387.51" font-family="Helvetica,sans-Serif" font-weight="bold" font-size="14.00">v_0=0.62</text>
</g>
<!-- 12&#45;&gt;15 -->
<g id="edge15" class="edge">
<title>12:s&#45;&gt;15:n</title>
<path fill="none" stroke="black" d="M684.33,-508.71C684.33,-508.71 936.88,-468.08 991.14,-459.35"/>
<polygon fill="black" stroke="black" points="992.01,-462.75 1001.33,-457.71 990.9,-455.84 992.01,-462.75"/>
<text text-anchor="middle" x="917.33" y="-479.51" font-family="Helvetica,sans-Serif" font-size="14.00">&gt; &#45;0.1178</text>
</g>
<!-- 8 -->
<g id="node11" class="node">
<title>8</title>
<ellipse fill="#44e5a1" stroke="black" cx="122.33" cy="-289.71" rx="122.16" ry="35.21"/>
<text text-anchor="start" x="83.33" y="-300.51" font-family="Helvetica,sans-Serif" font-weight="bold" font-size="14.00"> Class=1 </text>
<text text-anchor="start" x="156.33" y="-300.51" font-family="Helvetica,sans-Serif" font-size="14.00"> </text>
<text text-anchor="start" x="43.83" y="-286.51" font-family="Helvetica,sans-Serif" font-size="14.00"> error: 0.725, n=2534 </text>
<text text-anchor="start" x="67.33" y="-272.51" font-family="Helvetica,sans-Serif" font-size="14.00"> p: (0.80, 0.20) </text>
</g>
<!-- 7&#45;&gt;8 -->
<g id="edge10" class="edge">
<title>7:s&#45;&gt;8:n</title>
<path fill="none" stroke="black" d="M403.33,-379.71C403.33,-379.71 182.39,-338.04 132.33,-328.6"/>
<polygon fill="black" stroke="black" points="132.8,-325.12 122.33,-326.71 131.51,-332 132.8,-325.12"/>
<text text-anchor="middle" x="338.83" y="-350.51" font-family="Helvetica,sans-Serif" font-size="14.00">&lt;= &#45;0.01104</text>
</g>
<!-- 9 -->
<g id="node12" class="node">
<title>9</title>
<polygon fill="#44e5a1" stroke="black" points="489.83,-328.71 316.83,-328.71 316.83,-250.71 489.83,-250.71 489.83,-328.71"/>
<text text-anchor="start" x="364.33" y="-314.51" font-family="Helvetica,sans-Serif" font-weight="bold" font-size="14.00"> Class=1 </text>
<text text-anchor="start" x="437.33" y="-314.51" font-family="Helvetica,sans-Serif" font-size="14.00"> </text>
<text text-anchor="start" x="324.83" y="-300.51" font-family="Helvetica,sans-Serif" font-size="14.00"> error: 0.977, n=2534 </text>
<text text-anchor="start" x="348.33" y="-286.51" font-family="Helvetica,sans-Serif" font-size="14.00"> p: (0.59, 0.41) </text>
<text text-anchor="start" x="379.33" y="-272.51" font-family="Helvetica,sans-Serif" font-size="14.00">&#45;&#45;&#45;&#45;&#45;&#45;&#45;&#45;&#45;</text>
<text text-anchor="start" x="362.33" y="-258.51" font-family="Helvetica,sans-Serif" font-weight="bold" font-size="14.00">v_28=0.00</text>
</g>
<!-- 7&#45;&gt;9 -->
<g id="edge11" class="edge">
<title>7:s&#45;&gt;9:n</title>
<path fill="none" stroke="black" d="M403.33,-379.71C403.33,-379.71 403.33,-353.93 403.33,-339.03"/>
<polygon fill="black" stroke="black" points="406.83,-338.71 403.33,-328.71 399.83,-338.71 406.83,-338.71"/>
<text text-anchor="middle" x="443.83" y="-350.51" font-family="Helvetica,sans-Serif" font-size="14.00">&gt; &#45;0.01104</text>
</g>
<!-- 10 -->
<g id="node13" class="node">
<title>10</title>
<polygon fill="#3dc0cc" stroke="black" points="489.83,-199.71 316.83,-199.71 316.83,-121.71 489.83,-121.71 489.83,-199.71"/>
<text text-anchor="start" x="364.33" y="-185.51" font-family="Helvetica,sans-Serif" font-weight="bold" font-size="14.00"> Class=1 </text>
<text text-anchor="start" x="437.33" y="-185.51" font-family="Helvetica,sans-Serif" font-size="14.00"> </text>
<text text-anchor="start" x="324.83" y="-171.51" font-family="Helvetica,sans-Serif" font-size="14.00"> error: 0.929, n=2534 </text>
<text text-anchor="start" x="348.33" y="-157.51" font-family="Helvetica,sans-Serif" font-size="14.00"> p: (0.66, 0.34) </text>
<text text-anchor="start" x="379.33" y="-143.51" font-family="Helvetica,sans-Serif" font-size="14.00">&#45;&#45;&#45;&#45;&#45;&#45;&#45;&#45;&#45;</text>
<text text-anchor="start" x="362.33" y="-129.51" font-family="Helvetica,sans-Serif" font-weight="bold" font-size="14.00">v_20=0.00</text>
</g>
<!-- 9&#45;&gt;10 -->
<g id="edge12" class="edge">
<title>9:s&#45;&gt;10:n</title>
<path fill="none" stroke="black" d="M403.33,-250.71C403.33,-250.71 403.33,-224.93 403.33,-210.03"/>
<polygon fill="black" stroke="black" points="406.83,-209.71 403.33,-199.71 399.83,-209.71 406.83,-209.71"/>
<text text-anchor="middle" x="439.33" y="-221.51" font-family="Helvetica,sans-Serif" font-size="14.00">&gt; &#45;0.3982</text>
</g>
<!-- 11 -->
<g id="node14" class="node">
<title>11</title>
<ellipse fill="#4485e5" stroke="black" cx="403.33" cy="-35.36" rx="122.16" ry="35.21"/>
<text text-anchor="start" x="364.33" y="-46.16" font-family="Helvetica,sans-Serif" font-weight="bold" font-size="14.00"> Class=1 </text>
<text text-anchor="start" x="437.33" y="-46.16" font-family="Helvetica,sans-Serif" font-size="14.00"> </text>
<text text-anchor="start" x="324.83" y="-32.16" font-family="Helvetica,sans-Serif" font-size="14.00"> error: 0.982, n=2534 </text>
<text text-anchor="start" x="348.33" y="-18.16" font-family="Helvetica,sans-Serif" font-size="14.00"> p: (0.58, 0.42) </text>
</g>
<!-- 10&#45;&gt;11 -->
<g id="edge13" class="edge">
<title>10:s&#45;&gt;11:n</title>
<path fill="none" stroke="black" d="M403.33,-121.71C403.33,-121.71 403.33,-95.93 403.33,-81.03"/>
<polygon fill="black" stroke="black" points="406.83,-80.71 403.33,-70.71 399.83,-80.71 406.83,-80.71"/>
<text text-anchor="middle" x="445.33" y="-92.51" font-family="Helvetica,sans-Serif" font-size="14.00">&lt;= &#45;0.5929</text>
</g>
<!-- 14 -->
<g id="node17" class="node">
<title>14</title>
<ellipse fill="#44e5a1" stroke="black" cx="684.33" cy="-289.71" rx="122.16" ry="35.21"/>
<text text-anchor="start" x="645.33" y="-300.51" font-family="Helvetica,sans-Serif" font-weight="bold" font-size="14.00"> Class=1 </text>
<text text-anchor="start" x="718.33" y="-300.51" font-family="Helvetica,sans-Serif" font-size="14.00"> </text>
<text text-anchor="start" x="605.83" y="-286.51" font-family="Helvetica,sans-Serif" font-size="14.00"> error: 0.233, n=2534 </text>
<text text-anchor="start" x="629.33" y="-272.51" font-family="Helvetica,sans-Serif" font-size="14.00"> p: (0.96, 0.04) </text>
</g>
<!-- 13&#45;&gt;14 -->
<g id="edge16" class="edge">
<title>13:s&#45;&gt;14:n</title>
<path fill="none" stroke="black" d="M684.33,-379.71C684.33,-379.71 684.33,-352.33 684.33,-336.93"/>
<polygon fill="black" stroke="black" points="687.83,-336.71 684.33,-326.71 680.83,-336.71 687.83,-336.71"/>
<text text-anchor="middle" x="715.83" y="-350.51" font-family="Helvetica,sans-Serif" font-size="14.00">&gt; &#45;4.303</text>
</g>
<!-- 16 -->
<g id="node18" class="node">
<title>16</title>
<ellipse fill="#44e5a1" stroke="black" cx="1001.33" cy="-289.71" rx="122.16" ry="35.21"/>
<text text-anchor="start" x="962.33" y="-300.51" font-family="Helvetica,sans-Serif" font-weight="bold" font-size="14.00"> Class=1 </text>
<text text-anchor="start" x="1035.33" y="-300.51" font-family="Helvetica,sans-Serif" font-size="14.00"> </text>
<text text-anchor="start" x="922.83" y="-286.51" font-family="Helvetica,sans-Serif" font-size="14.00"> error: 0.340, n=2534 </text>
<text text-anchor="start" x="946.33" y="-272.51" font-family="Helvetica,sans-Serif" font-size="14.00"> p: (0.94, 0.06) </text>
</g>
<!-- 15&#45;&gt;16 -->
<g id="edge17" class="edge">
<title>15:s&#45;&gt;16:n</title>
<path fill="none" stroke="black" d="M1001.33,-379.71C1001.33,-379.71 1001.33,-352.33 1001.33,-336.93"/>
<polygon fill="black" stroke="black" points="1004.83,-336.71 1001.33,-326.71 997.83,-336.71 1004.83,-336.71"/>
<text text-anchor="middle" x="1036.33" y="-350.51" font-family="Helvetica,sans-Serif" font-size="14.00">&lt;= 40.02</text>
</g>
<!-- 17 -->
<g id="node19" class="node">
<title>17</title>
<ellipse fill="#44e5a1" stroke="black" cx="1318.33" cy="-289.71" rx="122.16" ry="35.21"/>
<text text-anchor="start" x="1279.33" y="-300.51" font-family="Helvetica,sans-Serif" font-weight="bold" font-size="14.00"> Class=1 </text>
<text text-anchor="start" x="1352.33" y="-300.51" font-family="Helvetica,sans-Serif" font-size="14.00"> </text>
<text text-anchor="start" x="1239.83" y="-286.51" font-family="Helvetica,sans-Serif" font-size="14.00"> error: 0.858, n=2534 </text>
<text text-anchor="start" x="1263.33" y="-272.51" font-family="Helvetica,sans-Serif" font-size="14.00"> p: (0.72, 0.28) </text>
</g>
<!-- 15&#45;&gt;17 -->
<g id="edge18" class="edge">
<title>15:s&#45;&gt;17:n</title>
<path fill="none" stroke="black" d="M1001.33,-379.71C1001.33,-379.71 1253.88,-337.49 1308.14,-328.41"/>
<polygon fill="black" stroke="black" points="1309.04,-331.81 1318.33,-326.71 1307.89,-324.91 1309.04,-331.81"/>
<text text-anchor="middle" x="1227.33" y="-350.51" font-family="Helvetica,sans-Serif" font-size="14.00">&gt; 40.02</text>
</g>
</g>
</svg>
