<?xml version="1.0" encoding="UTF-8" standalone="no"?>
<!DOCTYPE svg PUBLIC "-//W3C//DTD SVG 1.1//EN"
 "http://www.w3.org/Graphics/SVG/1.1/DTD/svg11.dtd">
<!-- Generated by graphviz version 2.43.0 (0)
 -->
<!-- Title: Tree Pages: 1 -->
<svg width="624pt" height="696pt"
 viewBox="0.00 0.00 623.66 695.71" xmlns="http://www.w3.org/2000/svg" xmlns:xlink="http://www.w3.org/1999/xlink">
<g id="graph0" class="graph" transform="scale(1 1) rotate(0) translate(18 677.71)">
<title>Tree</title>
<polygon fill="white" stroke="transparent" points="-18,18 -18,-677.71 605.66,-677.71 605.66,18 -18,18"/>
<!-- 0 -->
<g id="node1" class="node">
<title>0</title>
<polygon fill="white" stroke="transparent" points="351.33,-659.71 297.33,-659.71 297.33,-623.71 351.33,-623.71 351.33,-659.71"/>
<text text-anchor="middle" x="324.33" y="-638.01" font-family="Helvetica,sans-Serif" font-size="14.00">0</text>
</g>
<!-- 1 -->
<g id="node2" class="node">
<title>1</title>
<polygon fill="#cc3d3d" stroke="black" points="410.83,-586.71 237.83,-586.71 237.83,-508.71 410.83,-508.71 410.83,-586.71"/>
<text text-anchor="start" x="269.83" y="-572.51" font-family="Helvetica,sans-Serif" font-weight="bold" font-size="14.00"> Class=False </text>
<text text-anchor="start" x="373.83" y="-572.51" font-family="Helvetica,sans-Serif" font-size="14.00"> </text>
<text text-anchor="start" x="245.83" y="-558.51" font-family="Helvetica,sans-Serif" font-size="14.00"> error: 0.364, n=1109 </text>
<text text-anchor="start" x="269.33" y="-544.51" font-family="Helvetica,sans-Serif" font-size="14.00"> p: (0.93, 0.07) </text>
<text text-anchor="start" x="321.33" y="-530.51" font-family="Helvetica,sans-Serif" font-size="14.00">&#45;</text>
<text text-anchor="start" x="321.33" y="-516.51" font-family="Helvetica,sans-Serif" font-weight="bold" font-size="14.00">I</text>
</g>
<!-- 0&#45;&gt;1 -->
<!-- 2 -->
<g id="node3" class="node">
<title>2</title>
<polygon fill="#e5d544" stroke="black" points="270.83,-457.71 97.83,-457.71 97.83,-379.71 270.83,-379.71 270.83,-457.71"/>
<text text-anchor="start" x="129.83" y="-443.51" font-family="Helvetica,sans-Serif" font-weight="bold" font-size="14.00"> Class=False </text>
<text text-anchor="start" x="233.83" y="-443.51" font-family="Helvetica,sans-Serif" font-size="14.00"> </text>
<text text-anchor="start" x="105.83" y="-429.51" font-family="Helvetica,sans-Serif" font-size="14.00"> error: 0.561, n=1109 </text>
<text text-anchor="start" x="129.33" y="-415.51" font-family="Helvetica,sans-Serif" font-size="14.00"> p: (0.87, 0.13) </text>
<text text-anchor="start" x="160.33" y="-401.51" font-family="Helvetica,sans-Serif" font-size="14.00">&#45;&#45;&#45;&#45;&#45;&#45;&#45;&#45;&#45;</text>
<text text-anchor="start" x="138.33" y="-387.51" font-family="Helvetica,sans-Serif" font-weight="bold" font-size="14.00">lOComment</text>
</g>
<!-- 1&#45;&gt;2 -->
<g id="edge2" class="edge">
<title>1:s&#45;&gt;2:n</title>
<path fill="none" stroke="black" d="M324.33,-508.71C324.33,-508.71 225.58,-472.74 193.95,-461.22"/>
<polygon fill="black" stroke="black" points="194.92,-457.84 184.33,-457.71 192.53,-464.42 194.92,-457.84"/>
<text text-anchor="middle" x="300.33" y="-479.51" font-family="Helvetica,sans-Serif" font-size="14.00">&gt; 27.54</text>
</g>
<!-- 7 -->
<g id="node4" class="node">
<title>7</title>
<ellipse fill="#e5d544" stroke="black" cx="465.33" cy="-418.71" rx="122.16" ry="35.21"/>
<text text-anchor="start" x="410.83" y="-429.51" font-family="Helvetica,sans-Serif" font-weight="bold" font-size="14.00"> Class=False </text>
<text text-anchor="start" x="514.83" y="-429.51" font-family="Helvetica,sans-Serif" font-size="14.00"> </text>
<text text-anchor="start" x="386.83" y="-415.51" font-family="Helvetica,sans-Serif" font-size="14.00"> error: 0.161, n=1109 </text>
<text text-anchor="start" x="410.33" y="-401.51" font-family="Helvetica,sans-Serif" font-size="14.00"> p: (0.98, 0.02) </text>
</g>
<!-- 1&#45;&gt;7 -->
<g id="edge3" class="edge">
<title>1:s&#45;&gt;7:n</title>
<path fill="none" stroke="black" d="M324.33,-508.71C324.33,-508.71 423.78,-471.33 455.64,-459.35"/>
<polygon fill="black" stroke="black" points="457.2,-462.51 465.33,-455.71 454.74,-455.95 457.2,-462.51"/>
<text text-anchor="middle" x="447.33" y="-479.51" font-family="Helvetica,sans-Serif" font-size="14.00">&lt;= 27.54</text>
</g>
<!-- 3 -->
<g id="node5" class="node">
<title>3</title>
<ellipse fill="#59cc3d" stroke="black" cx="122.33" cy="-289.71" rx="122.16" ry="35.21"/>
<text text-anchor="start" x="67.83" y="-300.51" font-family="Helvetica,sans-Serif" font-weight="bold" font-size="14.00"> Class=False </text>
<text text-anchor="start" x="171.83" y="-300.51" font-family="Helvetica,sans-Serif" font-size="14.00"> </text>
<text text-anchor="start" x="43.83" y="-286.51" font-family="Helvetica,sans-Serif" font-size="14.00"> error: 0.479, n=1109 </text>
<text text-anchor="start" x="67.33" y="-272.51" font-family="Helvetica,sans-Serif" font-size="14.00"> p: (0.90, 0.10) </text>
</g>
<!-- 2&#45;&gt;3 -->
<g id="edge4" class="edge">
<title>2:s&#45;&gt;3:n</title>
<path fill="none" stroke="black" d="M184.33,-379.71C184.33,-379.71 146.49,-347.36 129.93,-333.21"/>
<polygon fill="black" stroke="black" points="132.2,-330.55 122.33,-326.71 127.66,-335.87 132.2,-330.55"/>
<text text-anchor="middle" x="186.83" y="-350.51" font-family="Helvetica,sans-Serif" font-size="14.00">&lt;= 26</text>
</g>
<!-- 4 -->
<g id="node6" class="node">
<title>4</title>
<polygon fill="#59cc3d" stroke="black" points="489.83,-328.71 316.83,-328.71 316.83,-250.71 489.83,-250.71 489.83,-328.71"/>
<text text-anchor="start" x="348.83" y="-314.51" font-family="Helvetica,sans-Serif" font-weight="bold" font-size="14.00"> Class=False </text>
<text text-anchor="start" x="452.83" y="-314.51" font-family="Helvetica,sans-Serif" font-size="14.00"> </text>
<text text-anchor="start" x="324.83" y="-300.51" font-family="Helvetica,sans-Serif" font-size="14.00"> error: 0.971, n=1109 </text>
<text text-anchor="start" x="348.33" y="-286.51" font-family="Helvetica,sans-Serif" font-size="14.00"> p: (0.60, 0.40) </text>
<text text-anchor="start" x="384.83" y="-272.51" font-family="Helvetica,sans-Serif" font-size="14.00">&#45;&#45;&#45;&#45;&#45;&#45;&#45;</text>
<text text-anchor="start" x="371.83" y="-258.51" font-family="Helvetica,sans-Serif" font-weight="bold" font-size="14.00">uniq_Op</text>
</g>
<!-- 2&#45;&gt;4 -->
<g id="edge5" class="edge">
<title>2:s&#45;&gt;4:n</title>
<path fill="none" stroke="black" d="M184.33,-379.71C184.33,-379.71 350.51,-341.01 393.35,-331.03"/>
<polygon fill="black" stroke="black" points="394.38,-334.39 403.33,-328.71 392.8,-327.57 394.38,-334.39"/>
<text text-anchor="middle" x="337.83" y="-350.51" font-family="Helvetica,sans-Serif" font-size="14.00">&gt; 26</text>
</g>
<!-- 5 -->
<g id="node7" class="node">
<title>5</title>
<polygon fill="#44e5b5" stroke="black" points="495.33,-199.71 311.33,-199.71 311.33,-121.71 495.33,-121.71 495.33,-199.71"/>
<text text-anchor="start" x="348.83" y="-185.51" font-family="Helvetica,sans-Serif" font-weight="bold" font-size="14.00"> Class=False </text>
<text text-anchor="start" x="452.83" y="-185.51" font-family="Helvetica,sans-Serif" font-size="14.00"> </text>
<text text-anchor="start" x="324.83" y="-171.51" font-family="Helvetica,sans-Serif" font-size="14.00"> error: 0.722, n=1109 </text>
<text text-anchor="start" x="348.33" y="-157.51" font-family="Helvetica,sans-Serif" font-size="14.00"> p: (0.80, 0.20) </text>
<text text-anchor="start" x="358.33" y="-143.51" font-family="Helvetica,sans-Serif" font-size="14.00">&#45;&#45;&#45;&#45;&#45;&#45;&#45;&#45;&#45;&#45;&#45;&#45;&#45;&#45;&#45;&#45;&#45;</text>
<text text-anchor="start" x="319.33" y="-129.51" font-family="Helvetica,sans-Serif" font-weight="bold" font-size="14.00">locCodeAndComment</text>
</g>
<!-- 4&#45;&gt;5 -->
<g id="edge6" class="edge">
<title>4:s&#45;&gt;5:n</title>
<path fill="none" stroke="black" d="M403.33,-250.71C403.33,-250.71 403.33,-224.93 403.33,-210.03"/>
<polygon fill="black" stroke="black" points="406.83,-209.71 403.33,-199.71 399.83,-209.71 406.83,-209.71"/>
<text text-anchor="middle" x="426.83" y="-221.51" font-family="Helvetica,sans-Serif" font-size="14.00">&lt;= 27</text>
</g>
<!-- 6 -->
<g id="node8" class="node">
<title>6</title>
<ellipse fill="#3d76cc" stroke="black" cx="403.33" cy="-35.36" rx="122.16" ry="35.21"/>
<text text-anchor="start" x="348.83" y="-46.16" font-family="Helvetica,sans-Serif" font-weight="bold" font-size="14.00"> Class=False </text>
<text text-anchor="start" x="452.83" y="-46.16" font-family="Helvetica,sans-Serif" font-size="14.00"> </text>
<text text-anchor="start" x="324.83" y="-32.16" font-family="Helvetica,sans-Serif" font-size="14.00"> error: 0.592, n=1109 </text>
<text text-anchor="start" x="348.33" y="-18.16" font-family="Helvetica,sans-Serif" font-size="14.00"> p: (0.86, 0.14) </text>
</g>
<!-- 5&#45;&gt;6 -->
<g id="edge7" class="edge">
<title>5:s&#45;&gt;6:n</title>
<path fill="none" stroke="black" d="M403.33,-121.71C403.33,-121.71 403.33,-95.93 403.33,-81.03"/>
<polygon fill="black" stroke="black" points="406.83,-80.71 403.33,-70.71 399.83,-80.71 406.83,-80.71"/>
<text text-anchor="middle" x="426.83" y="-92.51" font-family="Helvetica,sans-Serif" font-size="14.00">&lt;= 17</text>
</g>
</g>
</svg>
