<?xml version="1.0" encoding="UTF-8" standalone="no"?>
<!DOCTYPE svg PUBLIC "-//W3C//DTD SVG 1.1//EN"
 "http://www.w3.org/Graphics/SVG/1.1/DTD/svg11.dtd">
<!-- Generated by graphviz version 2.43.0 (0)
 -->
<!-- Title: Tree Pages: 1 -->
<svg width="1650pt" height="954pt"
 viewBox="0.00 0.00 1649.66 953.71" xmlns="http://www.w3.org/2000/svg" xmlns:xlink="http://www.w3.org/1999/xlink">
<g id="graph0" class="graph" transform="scale(1 1) rotate(0) translate(18 935.71)">
<title>Tree</title>
<polygon fill="white" stroke="transparent" points="-18,18 -18,-935.71 1631.66,-935.71 1631.66,18 -18,18"/>
<!-- 0 -->
<g id="node1" class="node">
<title>0</title>
<polygon fill="white" stroke="transparent" points="1254.33,-917.71 1200.33,-917.71 1200.33,-881.71 1254.33,-881.71 1254.33,-917.71"/>
<text text-anchor="middle" x="1227.33" y="-896.01" font-family="Helvetica,sans-Serif" font-size="14.00">0</text>
</g>
<!-- 1 -->
<g id="node2" class="node">
<title>1</title>
<polygon fill="#cc3d3d" stroke="black" points="1313.83,-844.71 1140.83,-844.71 1140.83,-766.71 1313.83,-766.71 1313.83,-844.71"/>
<text text-anchor="start" x="1172.83" y="-830.51" font-family="Helvetica,sans-Serif" font-weight="bold" font-size="14.00"> Class=False </text>
<text text-anchor="start" x="1276.83" y="-830.51" font-family="Helvetica,sans-Serif" font-size="14.00"> </text>
<text text-anchor="start" x="1148.83" y="-816.51" font-family="Helvetica,sans-Serif" font-size="14.00"> error: 0.476, n=1563 </text>
<text text-anchor="start" x="1172.33" y="-802.51" font-family="Helvetica,sans-Serif" font-size="14.00"> p: (0.90, 0.10) </text>
<text text-anchor="start" x="1205.83" y="-788.51" font-family="Helvetica,sans-Serif" font-size="14.00">&#45;&#45;&#45;&#45;&#45;&#45;&#45;&#45;</text>
<text text-anchor="start" x="1190.83" y="-774.51" font-family="Helvetica,sans-Serif" font-weight="bold" font-size="14.00">v_2=0.00</text>
</g>
<!-- 0&#45;&gt;1 -->
<!-- 2 -->
<g id="node3" class="node">
<title>2</title>
<polygon fill="#e5a544" stroke="black" points="1173.83,-715.71 1000.83,-715.71 1000.83,-637.71 1173.83,-637.71 1173.83,-715.71"/>
<text text-anchor="start" x="1032.83" y="-701.51" font-family="Helvetica,sans-Serif" font-weight="bold" font-size="14.00"> Class=False </text>
<text text-anchor="start" x="1136.83" y="-701.51" font-family="Helvetica,sans-Serif" font-size="14.00"> </text>
<text text-anchor="start" x="1008.83" y="-687.51" font-family="Helvetica,sans-Serif" font-size="14.00"> error: 0.690, n=1563 </text>
<text text-anchor="start" x="1032.33" y="-673.51" font-family="Helvetica,sans-Serif" font-size="14.00"> p: (0.82, 0.18) </text>
<text text-anchor="start" x="1065.83" y="-659.51" font-family="Helvetica,sans-Serif" font-size="14.00">&#45;&#45;&#45;&#45;&#45;&#45;&#45;&#45;</text>
<text text-anchor="start" x="1050.83" y="-645.51" font-family="Helvetica,sans-Serif" font-weight="bold" font-size="14.00">v_6=0.00</text>
</g>
<!-- 1&#45;&gt;2 -->
<g id="edge2" class="edge">
<title>1:s&#45;&gt;2:n</title>
<path fill="none" stroke="black" d="M1227.33,-766.71C1227.33,-766.71 1128.58,-730.74 1096.95,-719.22"/>
<polygon fill="black" stroke="black" points="1097.92,-715.84 1087.33,-715.71 1095.53,-722.42 1097.92,-715.84"/>
<text text-anchor="middle" x="1201.33" y="-737.51" font-family="Helvetica,sans-Serif" font-size="14.00">&gt; &#45;13.4</text>
</g>
<!-- 22 -->
<g id="node4" class="node">
<title>22</title>
<ellipse fill="#e5a544" stroke="black" cx="1368.33" cy="-676.71" rx="122.16" ry="35.21"/>
<text text-anchor="start" x="1313.83" y="-687.51" font-family="Helvetica,sans-Serif" font-weight="bold" font-size="14.00"> Class=False </text>
<text text-anchor="start" x="1417.83" y="-687.51" font-family="Helvetica,sans-Serif" font-size="14.00"> </text>
<text text-anchor="start" x="1289.83" y="-673.51" font-family="Helvetica,sans-Serif" font-size="14.00"> error: 0.190, n=1563 </text>
<text text-anchor="start" x="1313.33" y="-659.51" font-family="Helvetica,sans-Serif" font-size="14.00"> p: (0.97, 0.03) </text>
</g>
<!-- 1&#45;&gt;22 -->
<g id="edge3" class="edge">
<title>1:s&#45;&gt;22:n</title>
<path fill="none" stroke="black" d="M1227.33,-766.71C1227.33,-766.71 1326.78,-729.33 1358.64,-717.35"/>
<polygon fill="black" stroke="black" points="1360.2,-720.51 1368.33,-713.71 1357.74,-713.95 1360.2,-720.51"/>
<text text-anchor="middle" x="1348.33" y="-737.51" font-family="Helvetica,sans-Serif" font-size="14.00">&lt;= &#45;13.4</text>
</g>
<!-- 3 -->
<g id="node5" class="node">
<title>3</title>
<polygon fill="#afcc3d" stroke="black" points="1051.83,-586.71 878.83,-586.71 878.83,-508.71 1051.83,-508.71 1051.83,-586.71"/>
<text text-anchor="start" x="910.83" y="-572.51" font-family="Helvetica,sans-Serif" font-weight="bold" font-size="14.00"> Class=False </text>
<text text-anchor="start" x="1014.83" y="-572.51" font-family="Helvetica,sans-Serif" font-size="14.00"> </text>
<text text-anchor="start" x="886.83" y="-558.51" font-family="Helvetica,sans-Serif" font-size="14.00"> error: 0.472, n=1563 </text>
<text text-anchor="start" x="910.33" y="-544.51" font-family="Helvetica,sans-Serif" font-size="14.00"> p: (0.90, 0.10) </text>
<text text-anchor="start" x="941.33" y="-530.51" font-family="Helvetica,sans-Serif" font-size="14.00">&#45;&#45;&#45;&#45;&#45;&#45;&#45;&#45;&#45;</text>
<text text-anchor="start" x="924.33" y="-516.51" font-family="Helvetica,sans-Serif" font-weight="bold" font-size="14.00">v_16=0.00</text>
</g>
<!-- 2&#45;&gt;3 -->
<g id="edge4" class="edge">
<title>2:s&#45;&gt;3:n</title>
<path fill="none" stroke="black" d="M1087.33,-637.71C1087.33,-637.71 1003.66,-602.74 974.9,-590.71"/>
<polygon fill="black" stroke="black" points="975.91,-587.34 965.33,-586.71 973.21,-593.8 975.91,-587.34"/>
<text text-anchor="middle" x="1062.83" y="-608.51" font-family="Helvetica,sans-Serif" font-size="14.00">&lt;= 0.74</text>
</g>
<!-- 16 -->
<g id="node6" class="node">
<title>16</title>
<polygon fill="#afcc3d" stroke="black" points="1296.83,-586.71 1123.83,-586.71 1123.83,-508.71 1296.83,-508.71 1296.83,-586.71"/>
<text text-anchor="start" x="1155.83" y="-572.51" font-family="Helvetica,sans-Serif" font-weight="bold" font-size="14.00"> Class=False </text>
<text text-anchor="start" x="1259.83" y="-572.51" font-family="Helvetica,sans-Serif" font-size="14.00"> </text>
<text text-anchor="start" x="1131.83" y="-558.51" font-family="Helvetica,sans-Serif" font-size="14.00"> error: 0.837, n=1563 </text>
<text text-anchor="start" x="1155.33" y="-544.51" font-family="Helvetica,sans-Serif" font-size="14.00"> p: (0.73, 0.27) </text>
<text text-anchor="start" x="1186.33" y="-530.51" font-family="Helvetica,sans-Serif" font-size="14.00">&#45;&#45;&#45;&#45;&#45;&#45;&#45;&#45;&#45;</text>
<text text-anchor="start" x="1169.33" y="-516.51" font-family="Helvetica,sans-Serif" font-weight="bold" font-size="14.00">v_29=0.00</text>
</g>
<!-- 2&#45;&gt;16 -->
<g id="edge5" class="edge">
<title>2:s&#45;&gt;16:n</title>
<path fill="none" stroke="black" d="M1087.33,-637.71C1087.33,-637.71 1172.48,-602.4 1201.08,-590.54"/>
<polygon fill="black" stroke="black" points="1202.43,-593.77 1210.33,-586.71 1199.75,-587.31 1202.43,-593.77"/>
<text text-anchor="middle" x="1188.83" y="-608.51" font-family="Helvetica,sans-Serif" font-size="14.00">&gt; 0.74</text>
</g>
<!-- 4 -->
<g id="node7" class="node">
<title>4</title>
<polygon fill="#64e544" stroke="black" points="600.83,-457.71 427.83,-457.71 427.83,-379.71 600.83,-379.71 600.83,-457.71"/>
<text text-anchor="start" x="459.83" y="-443.51" font-family="Helvetica,sans-Serif" font-weight="bold" font-size="14.00"> Class=False </text>
<text text-anchor="start" x="563.83" y="-443.51" font-family="Helvetica,sans-Serif" font-size="14.00"> </text>
<text text-anchor="start" x="435.83" y="-429.51" font-family="Helvetica,sans-Serif" font-size="14.00"> error: 0.308, n=1563 </text>
<text text-anchor="start" x="459.33" y="-415.51" font-family="Helvetica,sans-Serif" font-size="14.00"> p: (0.94, 0.06) </text>
<text text-anchor="start" x="492.83" y="-401.51" font-family="Helvetica,sans-Serif" font-size="14.00">&#45;&#45;&#45;&#45;&#45;&#45;&#45;&#45;</text>
<text text-anchor="start" x="477.83" y="-387.51" font-family="Helvetica,sans-Serif" font-weight="bold" font-size="14.00">v_3=0.00</text>
</g>
<!-- 3&#45;&gt;4 -->
<g id="edge6" class="edge">
<title>3:s&#45;&gt;4:n</title>
<path fill="none" stroke="black" d="M965.33,-508.71C965.33,-508.71 591.73,-466.46 524.6,-458.87"/>
<polygon fill="black" stroke="black" points="524.66,-455.36 514.33,-457.71 523.87,-462.31 524.66,-455.36"/>
<text text-anchor="middle" x="833.83" y="-479.51" font-family="Helvetica,sans-Serif" font-size="14.00">&lt;= 0.8235</text>
</g>
<!-- 12 -->
<g id="node8" class="node">
<title>12</title>
<polygon fill="#64e544" stroke="black" points="1051.83,-457.71 878.83,-457.71 878.83,-379.71 1051.83,-379.71 1051.83,-457.71"/>
<text text-anchor="start" x="910.83" y="-443.51" font-family="Helvetica,sans-Serif" font-weight="bold" font-size="14.00"> Class=False </text>
<text text-anchor="start" x="1014.83" y="-443.51" font-family="Helvetica,sans-Serif" font-size="14.00"> </text>
<text text-anchor="start" x="886.83" y="-429.51" font-family="Helvetica,sans-Serif" font-size="14.00"> error: 0.785, n=1563 </text>
<text text-anchor="start" x="910.33" y="-415.51" font-family="Helvetica,sans-Serif" font-size="14.00"> p: (0.77, 0.23) </text>
<text text-anchor="start" x="943.83" y="-401.51" font-family="Helvetica,sans-Serif" font-size="14.00">&#45;&#45;&#45;&#45;&#45;&#45;&#45;&#45;</text>
<text text-anchor="start" x="928.83" y="-387.51" font-family="Helvetica,sans-Serif" font-weight="bold" font-size="14.00">v_1=0.00</text>
</g>
<!-- 3&#45;&gt;12 -->
<g id="edge7" class="edge">
<title>3:s&#45;&gt;12:n</title>
<path fill="none" stroke="black" d="M965.33,-508.71C965.33,-508.71 965.33,-482.93 965.33,-468.03"/>
<polygon fill="black" stroke="black" points="968.83,-467.71 965.33,-457.71 961.83,-467.71 968.83,-467.71"/>
<text text-anchor="middle" x="998.83" y="-479.51" font-family="Helvetica,sans-Serif" font-size="14.00">&gt; 0.8235</text>
</g>
<!-- 17 -->
<g id="node19" class="node">
<title>17</title>
<polygon fill="#64e544" stroke="black" points="1296.83,-457.71 1123.83,-457.71 1123.83,-379.71 1296.83,-379.71 1296.83,-457.71"/>
<text text-anchor="start" x="1155.83" y="-443.51" font-family="Helvetica,sans-Serif" font-weight="bold" font-size="14.00"> Class=False </text>
<text text-anchor="start" x="1259.83" y="-443.51" font-family="Helvetica,sans-Serif" font-size="14.00"> </text>
<text text-anchor="start" x="1131.83" y="-429.51" font-family="Helvetica,sans-Serif" font-size="14.00"> error: 0.997, n=1563 </text>
<text text-anchor="start" x="1155.33" y="-415.51" font-family="Helvetica,sans-Serif" font-size="14.00"> p: (0.53, 0.47) </text>
<text text-anchor="start" x="1186.33" y="-401.51" font-family="Helvetica,sans-Serif" font-size="14.00">&#45;&#45;&#45;&#45;&#45;&#45;&#45;&#45;&#45;</text>
<text text-anchor="start" x="1169.33" y="-387.51" font-family="Helvetica,sans-Serif" font-weight="bold" font-size="14.00">v_26=0.00</text>
</g>
<!-- 16&#45;&gt;17 -->
<g id="edge18" class="edge">
<title>16:s&#45;&gt;17:n</title>
<path fill="none" stroke="black" d="M1210.33,-508.71C1210.33,-508.71 1210.33,-482.93 1210.33,-468.03"/>
<polygon fill="black" stroke="black" points="1213.83,-467.71 1210.33,-457.71 1206.83,-467.71 1213.83,-467.71"/>
<text text-anchor="middle" x="1256.83" y="-479.51" font-family="Helvetica,sans-Serif" font-size="14.00">&lt;= &#45;0.05607</text>
</g>
<!-- 21 -->
<g id="node20" class="node">
<title>21</title>
<ellipse fill="#64e544" stroke="black" cx="1491.33" cy="-418.71" rx="122.16" ry="35.21"/>
<text text-anchor="start" x="1436.83" y="-429.51" font-family="Helvetica,sans-Serif" font-weight="bold" font-size="14.00"> Class=False </text>
<text text-anchor="start" x="1540.83" y="-429.51" font-family="Helvetica,sans-Serif" font-size="14.00"> </text>
<text text-anchor="start" x="1412.83" y="-415.51" font-family="Helvetica,sans-Serif" font-size="14.00"> error: 0.723, n=1563 </text>
<text text-anchor="start" x="1436.33" y="-401.51" font-family="Helvetica,sans-Serif" font-size="14.00"> p: (0.80, 0.20) </text>
</g>
<!-- 16&#45;&gt;21 -->
<g id="edge19" class="edge">
<title>16:s&#45;&gt;21:n</title>
<path fill="none" stroke="black" d="M1210.33,-508.71C1210.33,-508.71 1431.27,-467.04 1481.33,-457.6"/>
<polygon fill="black" stroke="black" points="1482.15,-461 1491.33,-455.71 1480.85,-454.12 1482.15,-461"/>
<text text-anchor="middle" x="1431.83" y="-479.51" font-family="Helvetica,sans-Serif" font-size="14.00">&gt; &#45;0.05607</text>
</g>
<!-- 5 -->
<g id="node9" class="node">
<title>5</title>
<polygon fill="#3dcc76" stroke="black" points="337.83,-328.71 164.83,-328.71 164.83,-250.71 337.83,-250.71 337.83,-328.71"/>
<text text-anchor="start" x="196.83" y="-314.51" font-family="Helvetica,sans-Serif" font-weight="bold" font-size="14.00"> Class=False </text>
<text text-anchor="start" x="300.83" y="-314.51" font-family="Helvetica,sans-Serif" font-size="14.00"> </text>
<text text-anchor="start" x="172.83" y="-300.51" font-family="Helvetica,sans-Serif" font-size="14.00"> error: 0.109, n=1563 </text>
<text text-anchor="start" x="196.33" y="-286.51" font-family="Helvetica,sans-Serif" font-size="14.00"> p: (0.99, 0.01) </text>
<text text-anchor="start" x="227.33" y="-272.51" font-family="Helvetica,sans-Serif" font-size="14.00">&#45;&#45;&#45;&#45;&#45;&#45;&#45;&#45;&#45;</text>
<text text-anchor="start" x="210.33" y="-258.51" font-family="Helvetica,sans-Serif" font-weight="bold" font-size="14.00">v_10=0.00</text>
</g>
<!-- 4&#45;&gt;5 -->
<g id="edge8" class="edge">
<title>4:s&#45;&gt;5:n</title>
<path fill="none" stroke="black" d="M514.33,-379.71C514.33,-379.71 309.36,-339.96 261.32,-330.65"/>
<polygon fill="black" stroke="black" points="261.81,-327.18 251.33,-328.71 260.48,-334.05 261.81,-327.18"/>
<text text-anchor="middle" x="458.83" y="-350.51" font-family="Helvetica,sans-Serif" font-size="14.00">&lt;= &#45;8.326</text>
</g>
<!-- 7 -->
<g id="node10" class="node">
<title>7</title>
<polygon fill="#3dcc76" stroke="black" points="600.83,-328.71 427.83,-328.71 427.83,-250.71 600.83,-250.71 600.83,-328.71"/>
<text text-anchor="start" x="459.83" y="-314.51" font-family="Helvetica,sans-Serif" font-weight="bold" font-size="14.00"> Class=False </text>
<text text-anchor="start" x="563.83" y="-314.51" font-family="Helvetica,sans-Serif" font-size="14.00"> </text>
<text text-anchor="start" x="435.83" y="-300.51" font-family="Helvetica,sans-Serif" font-size="14.00"> error: 0.459, n=1563 </text>
<text text-anchor="start" x="459.33" y="-286.51" font-family="Helvetica,sans-Serif" font-size="14.00"> p: (0.90, 0.10) </text>
<text text-anchor="start" x="492.83" y="-272.51" font-family="Helvetica,sans-Serif" font-size="14.00">&#45;&#45;&#45;&#45;&#45;&#45;&#45;&#45;</text>
<text text-anchor="start" x="477.83" y="-258.51" font-family="Helvetica,sans-Serif" font-weight="bold" font-size="14.00">v_7=0.00</text>
</g>
<!-- 4&#45;&gt;7 -->
<g id="edge9" class="edge">
<title>4:s&#45;&gt;7:n</title>
<path fill="none" stroke="black" d="M514.33,-379.71C514.33,-379.71 514.33,-353.93 514.33,-339.03"/>
<polygon fill="black" stroke="black" points="517.83,-338.71 514.33,-328.71 510.83,-338.71 517.83,-338.71"/>
<text text-anchor="middle" x="545.83" y="-350.51" font-family="Helvetica,sans-Serif" font-size="14.00">&gt; &#45;8.326</text>
</g>
<!-- 13 -->
<g id="node16" class="node">
<title>13</title>
<polygon fill="#3dcc76" stroke="black" points="1051.83,-328.71 878.83,-328.71 878.83,-250.71 1051.83,-250.71 1051.83,-328.71"/>
<text text-anchor="start" x="910.83" y="-314.51" font-family="Helvetica,sans-Serif" font-weight="bold" font-size="14.00"> Class=False </text>
<text text-anchor="start" x="1014.83" y="-314.51" font-family="Helvetica,sans-Serif" font-size="14.00"> </text>
<text text-anchor="start" x="886.83" y="-300.51" font-family="Helvetica,sans-Serif" font-size="14.00"> error: 0.876, n=1563 </text>
<text text-anchor="start" x="910.33" y="-286.51" font-family="Helvetica,sans-Serif" font-size="14.00"> p: (0.70, 0.30) </text>
<text text-anchor="start" x="941.33" y="-272.51" font-family="Helvetica,sans-Serif" font-size="14.00">&#45;&#45;&#45;&#45;&#45;&#45;&#45;&#45;&#45;</text>
<text text-anchor="start" x="924.33" y="-258.51" font-family="Helvetica,sans-Serif" font-weight="bold" font-size="14.00">v_20=0.00</text>
</g>
<!-- 12&#45;&gt;13 -->
<g id="edge15" class="edge">
<title>12:s&#45;&gt;13:n</title>
<path fill="none" stroke="black" d="M965.33,-379.71C965.33,-379.71 965.33,-353.93 965.33,-339.03"/>
<polygon fill="black" stroke="black" points="968.83,-338.71 965.33,-328.71 961.83,-338.71 968.83,-338.71"/>
<text text-anchor="middle" x="996.83" y="-350.51" font-family="Helvetica,sans-Serif" font-size="14.00">&gt; &#45;95.23</text>
</g>
<!-- 6 -->
<g id="node11" class="node">
<title>6</title>
<ellipse fill="#44e5e5" stroke="black" cx="122.33" cy="-160.71" rx="122.16" ry="35.21"/>
<text text-anchor="start" x="67.83" y="-171.51" font-family="Helvetica,sans-Serif" font-weight="bold" font-size="14.00"> Class=False </text>
<text text-anchor="start" x="171.83" y="-171.51" font-family="Helvetica,sans-Serif" font-size="14.00"> </text>
<text text-anchor="start" x="43.83" y="-157.51" font-family="Helvetica,sans-Serif" font-size="14.00"> error: 0.000, n=1563 </text>
<text text-anchor="start" x="67.33" y="-143.51" font-family="Helvetica,sans-Serif" font-size="14.00"> p: (1.00, 0.00) </text>
</g>
<!-- 5&#45;&gt;6 -->
<g id="edge10" class="edge">
<title>5:s&#45;&gt;6:n</title>
<path fill="none" stroke="black" d="M251.33,-250.71C251.33,-250.71 161.19,-213.67 131.61,-201.52"/>
<polygon fill="black" stroke="black" points="132.91,-198.27 122.33,-197.71 130.25,-204.75 132.91,-198.27"/>
<text text-anchor="middle" x="237.83" y="-221.51" font-family="Helvetica,sans-Serif" font-size="14.00">&gt; &#45;1.117</text>
</g>
<!-- 8 -->
<g id="node12" class="node">
<title>8</title>
<polygon fill="#44e5e5" stroke="black" points="489.83,-199.71 316.83,-199.71 316.83,-121.71 489.83,-121.71 489.83,-199.71"/>
<text text-anchor="start" x="348.83" y="-185.51" font-family="Helvetica,sans-Serif" font-weight="bold" font-size="14.00"> Class=False </text>
<text text-anchor="start" x="452.83" y="-185.51" font-family="Helvetica,sans-Serif" font-size="14.00"> </text>
<text text-anchor="start" x="324.83" y="-171.51" font-family="Helvetica,sans-Serif" font-size="14.00"> error: 0.678, n=1563 </text>
<text text-anchor="start" x="348.33" y="-157.51" font-family="Helvetica,sans-Serif" font-size="14.00"> p: (0.82, 0.18) </text>
<text text-anchor="start" x="379.33" y="-143.51" font-family="Helvetica,sans-Serif" font-size="14.00">&#45;&#45;&#45;&#45;&#45;&#45;&#45;&#45;&#45;</text>
<text text-anchor="start" x="362.33" y="-129.51" font-family="Helvetica,sans-Serif" font-weight="bold" font-size="14.00">v_16=0.00</text>
</g>
<!-- 7&#45;&gt;8 -->
<g id="edge11" class="edge">
<title>7:s&#45;&gt;8:n</title>
<path fill="none" stroke="black" d="M514.33,-250.71C514.33,-250.71 439.64,-216.39 412.79,-204.06"/>
<polygon fill="black" stroke="black" points="413.88,-200.71 403.33,-199.71 410.95,-207.07 413.88,-200.71"/>
<text text-anchor="middle" x="474.83" y="-221.51" font-family="Helvetica,sans-Serif" font-size="14.00">&lt;= &#45;3.993</text>
</g>
<!-- 10 -->
<g id="node13" class="node">
<title>10</title>
<polygon fill="#44e5e5" stroke="black" points="734.83,-199.71 561.83,-199.71 561.83,-121.71 734.83,-121.71 734.83,-199.71"/>
<text text-anchor="start" x="593.83" y="-185.51" font-family="Helvetica,sans-Serif" font-weight="bold" font-size="14.00"> Class=False </text>
<text text-anchor="start" x="697.83" y="-185.51" font-family="Helvetica,sans-Serif" font-size="14.00"> </text>
<text text-anchor="start" x="569.83" y="-171.51" font-family="Helvetica,sans-Serif" font-size="14.00"> error: 0.112, n=1563 </text>
<text text-anchor="start" x="593.33" y="-157.51" font-family="Helvetica,sans-Serif" font-size="14.00"> p: (0.99, 0.01) </text>
<text text-anchor="start" x="626.83" y="-143.51" font-family="Helvetica,sans-Serif" font-size="14.00">&#45;&#45;&#45;&#45;&#45;&#45;&#45;&#45;</text>
<text text-anchor="start" x="611.83" y="-129.51" font-family="Helvetica,sans-Serif" font-weight="bold" font-size="14.00">v_4=0.00</text>
</g>
<!-- 7&#45;&gt;10 -->
<g id="edge12" class="edge">
<title>7:s&#45;&gt;10:n</title>
<path fill="none" stroke="black" d="M514.33,-250.71C514.33,-250.71 607.97,-215.07 638.69,-203.38"/>
<polygon fill="black" stroke="black" points="640.23,-206.54 648.33,-199.71 637.74,-200 640.23,-206.54"/>
<text text-anchor="middle" x="628.83" y="-221.51" font-family="Helvetica,sans-Serif" font-size="14.00">&gt; &#45;3.993</text>
</g>
<!-- 9 -->
<g id="node14" class="node">
<title>9</title>
<ellipse fill="#3d76cc" stroke="black" cx="331.33" cy="-35.36" rx="122.16" ry="35.21"/>
<text text-anchor="start" x="276.83" y="-46.16" font-family="Helvetica,sans-Serif" font-weight="bold" font-size="14.00"> Class=False </text>
<text text-anchor="start" x="380.83" y="-46.16" font-family="Helvetica,sans-Serif" font-size="14.00"> </text>
<text text-anchor="start" x="252.83" y="-32.16" font-family="Helvetica,sans-Serif" font-size="14.00"> error: 0.795, n=1563 </text>
<text text-anchor="start" x="276.33" y="-18.16" font-family="Helvetica,sans-Serif" font-size="14.00"> p: (0.76, 0.24) </text>
</g>
<!-- 8&#45;&gt;9 -->
<g id="edge13" class="edge">
<title>8:s&#45;&gt;9:n</title>
<path fill="none" stroke="black" d="M403.33,-121.71C403.33,-121.71 358.5,-89.96 339.59,-76.56"/>
<polygon fill="black" stroke="black" points="341.51,-73.63 331.33,-70.71 337.47,-79.35 341.51,-73.63"/>
<text text-anchor="middle" x="407.83" y="-92.51" font-family="Helvetica,sans-Serif" font-size="14.00">&gt; &#45;2.588</text>
</g>
<!-- 11 -->
<g id="node15" class="node">
<title>11</title>
<ellipse fill="#3d76cc" stroke="black" cx="648.33" cy="-35.36" rx="122.16" ry="35.21"/>
<text text-anchor="start" x="593.83" y="-46.16" font-family="Helvetica,sans-Serif" font-weight="bold" font-size="14.00"> Class=False </text>
<text text-anchor="start" x="697.83" y="-46.16" font-family="Helvetica,sans-Serif" font-size="14.00"> </text>
<text text-anchor="start" x="569.83" y="-32.16" font-family="Helvetica,sans-Serif" font-size="14.00"> error: 0.000, n=1563 </text>
<text text-anchor="start" x="593.33" y="-18.16" font-family="Helvetica,sans-Serif" font-size="14.00"> p: (1.00, 0.00) </text>
</g>
<!-- 10&#45;&gt;11 -->
<g id="edge14" class="edge">
<title>10:s&#45;&gt;11:n</title>
<path fill="none" stroke="black" d="M648.33,-121.71C648.33,-121.71 648.33,-95.93 648.33,-81.03"/>
<polygon fill="black" stroke="black" points="651.83,-80.71 648.33,-70.71 644.83,-80.71 651.83,-80.71"/>
<text text-anchor="middle" x="683.33" y="-92.51" font-family="Helvetica,sans-Serif" font-size="14.00">&lt;= 3.922</text>
</g>
<!-- 14 -->
<g id="node17" class="node">
<title>14</title>
<polygon fill="#44e5e5" stroke="black" points="1051.83,-199.71 878.83,-199.71 878.83,-121.71 1051.83,-121.71 1051.83,-199.71"/>
<text text-anchor="start" x="910.83" y="-185.51" font-family="Helvetica,sans-Serif" font-weight="bold" font-size="14.00"> Class=False </text>
<text text-anchor="start" x="1014.83" y="-185.51" font-family="Helvetica,sans-Serif" font-size="14.00"> </text>
<text text-anchor="start" x="886.83" y="-171.51" font-family="Helvetica,sans-Serif" font-size="14.00"> error: 0.956, n=1563 </text>
<text text-anchor="start" x="910.33" y="-157.51" font-family="Helvetica,sans-Serif" font-size="14.00"> p: (0.62, 0.38) </text>
<text text-anchor="start" x="941.33" y="-143.51" font-family="Helvetica,sans-Serif" font-size="14.00">&#45;&#45;&#45;&#45;&#45;&#45;&#45;&#45;&#45;</text>
<text text-anchor="start" x="924.33" y="-129.51" font-family="Helvetica,sans-Serif" font-weight="bold" font-size="14.00">v_31=0.00</text>
</g>
<!-- 13&#45;&gt;14 -->
<g id="edge16" class="edge">
<title>13:s&#45;&gt;14:n</title>
<path fill="none" stroke="black" d="M965.33,-250.71C965.33,-250.71 965.33,-224.93 965.33,-210.03"/>
<polygon fill="black" stroke="black" points="968.83,-209.71 965.33,-199.71 961.83,-209.71 968.83,-209.71"/>
<text text-anchor="middle" x="996.83" y="-221.51" font-family="Helvetica,sans-Serif" font-size="14.00">&gt; &#45;1.595</text>
</g>
<!-- 15 -->
<g id="node18" class="node">
<title>15</title>
<ellipse fill="#3d76cc" stroke="black" cx="965.33" cy="-35.36" rx="122.16" ry="35.21"/>
<text text-anchor="start" x="910.83" y="-46.16" font-family="Helvetica,sans-Serif" font-weight="bold" font-size="14.00"> Class=False </text>
<text text-anchor="start" x="1014.83" y="-46.16" font-family="Helvetica,sans-Serif" font-size="14.00"> </text>
<text text-anchor="start" x="886.83" y="-32.16" font-family="Helvetica,sans-Serif" font-size="14.00"> error: 0.996, n=1563 </text>
<text text-anchor="start" x="910.33" y="-18.16" font-family="Helvetica,sans-Serif" font-size="14.00"> p: (0.54, 0.46) </text>
</g>
<!-- 14&#45;&gt;15 -->
<g id="edge17" class="edge">
<title>14:s&#45;&gt;15:n</title>
<path fill="none" stroke="black" d="M965.33,-121.71C965.33,-121.71 965.33,-95.93 965.33,-81.03"/>
<polygon fill="black" stroke="black" points="968.83,-80.71 965.33,-70.71 961.83,-80.71 968.83,-80.71"/>
<text text-anchor="middle" x="1013.83" y="-92.51" font-family="Helvetica,sans-Serif" font-size="14.00">&lt;= 0.001527</text>
</g>
<!-- 18 -->
<g id="node21" class="node">
<title>18</title>
<polygon fill="#3dcc76" stroke="black" points="1332.83,-328.71 1159.83,-328.71 1159.83,-250.71 1332.83,-250.71 1332.83,-328.71"/>
<text text-anchor="start" x="1195.33" y="-314.51" font-family="Helvetica,sans-Serif" font-weight="bold" font-size="14.00"> Class=True </text>
<text text-anchor="start" x="1292.33" y="-314.51" font-family="Helvetica,sans-Serif" font-size="14.00"> </text>
<text text-anchor="start" x="1167.83" y="-300.51" font-family="Helvetica,sans-Serif" font-size="14.00"> error: 0.988, n=1563 </text>
<text text-anchor="start" x="1191.33" y="-286.51" font-family="Helvetica,sans-Serif" font-size="14.00"> p: (0.43, 0.57) </text>
<text text-anchor="start" x="1224.83" y="-272.51" font-family="Helvetica,sans-Serif" font-size="14.00">&#45;&#45;&#45;&#45;&#45;&#45;&#45;&#45;</text>
<text text-anchor="start" x="1209.83" y="-258.51" font-family="Helvetica,sans-Serif" font-weight="bold" font-size="14.00">v_7=0.00</text>
</g>
<!-- 17&#45;&gt;18 -->
<g id="edge20" class="edge">
<title>17:s&#45;&gt;18:n</title>
<path fill="none" stroke="black" d="M1210.33,-379.71C1210.33,-379.71 1230.16,-351.62 1240.38,-337.13"/>
<polygon fill="black" stroke="black" points="1243.42,-338.9 1246.33,-328.71 1237.7,-334.86 1243.42,-338.9"/>
<text text-anchor="middle" x="1273.83" y="-350.51" font-family="Helvetica,sans-Serif" font-size="14.00">&gt; &#45;0.03456</text>
</g>
<!-- 19 -->
<g id="node22" class="node">
<title>19</title>
<polygon fill="#44e5e5" stroke="black" points="1350.83,-199.71 1177.83,-199.71 1177.83,-121.71 1350.83,-121.71 1350.83,-199.71"/>
<text text-anchor="start" x="1209.83" y="-185.51" font-family="Helvetica,sans-Serif" font-weight="bold" font-size="14.00"> Class=False </text>
<text text-anchor="start" x="1313.83" y="-185.51" font-family="Helvetica,sans-Serif" font-size="14.00"> </text>
<text text-anchor="start" x="1185.83" y="-171.51" font-family="Helvetica,sans-Serif" font-size="14.00"> error: 0.990, n=1563 </text>
<text text-anchor="start" x="1209.33" y="-157.51" font-family="Helvetica,sans-Serif" font-size="14.00"> p: (0.56, 0.44) </text>
<text text-anchor="start" x="1240.33" y="-143.51" font-family="Helvetica,sans-Serif" font-size="14.00">&#45;&#45;&#45;&#45;&#45;&#45;&#45;&#45;&#45;</text>
<text text-anchor="start" x="1223.33" y="-129.51" font-family="Helvetica,sans-Serif" font-weight="bold" font-size="14.00">v_13=0.00</text>
</g>
<!-- 18&#45;&gt;19 -->
<g id="edge21" class="edge">
<title>18:s&#45;&gt;19:n</title>
<path fill="none" stroke="black" d="M1246.33,-250.71C1246.33,-250.71 1255.63,-224.36 1260.86,-209.54"/>
<polygon fill="black" stroke="black" points="1264.3,-210.31 1264.33,-199.71 1257.7,-207.98 1264.3,-210.31"/>
<text text-anchor="middle" x="1289.83" y="-221.51" font-family="Helvetica,sans-Serif" font-size="14.00">&gt; &#45;5.982</text>
</g>
<!-- 20 -->
<g id="node23" class="node">
<title>20</title>
<ellipse fill="#3d76cc" stroke="black" cx="1282.33" cy="-35.36" rx="122.16" ry="35.21"/>
<text text-anchor="start" x="1227.83" y="-46.16" font-family="Helvetica,sans-Serif" font-weight="bold" font-size="14.00"> Class=False </text>
<text text-anchor="start" x="1331.83" y="-46.16" font-family="Helvetica,sans-Serif" font-size="14.00"> </text>
<text text-anchor="start" x="1203.83" y="-32.16" font-family="Helvetica,sans-Serif" font-size="14.00"> error: 0.918, n=1563 </text>
<text text-anchor="start" x="1227.33" y="-18.16" font-family="Helvetica,sans-Serif" font-size="14.00"> p: (0.67, 0.33) </text>
</g>
<!-- 19&#45;&gt;20 -->
<g id="edge22" class="edge">
<title>19:s&#45;&gt;20:n</title>
<path fill="none" stroke="black" d="M1264.33,-121.71C1264.33,-121.71 1273.63,-95.36 1278.86,-80.54"/>
<polygon fill="black" stroke="black" points="1282.3,-81.31 1282.33,-70.71 1275.7,-78.98 1282.3,-81.31"/>
<text text-anchor="middle" x="1315.83" y="-92.51" font-family="Helvetica,sans-Serif" font-size="14.00">&lt;= 0.9682</text>
</g>
</g>
</svg>
