<?xml version="1.0" encoding="UTF-8" standalone="no"?>
<!DOCTYPE svg PUBLIC "-//W3C//DTD SVG 1.1//EN"
 "http://www.w3.org/Graphics/SVG/1.1/DTD/svg11.dtd">
<!-- Generated by graphviz version 2.43.0 (0)
 -->
<!-- Title: Tree Pages: 1 -->
<svg width="1160pt" height="954pt"
 viewBox="0.00 0.00 1159.66 953.71" xmlns="http://www.w3.org/2000/svg" xmlns:xlink="http://www.w3.org/1999/xlink">
<g id="graph0" class="graph" transform="scale(1 1) rotate(0) translate(18 935.71)">
<title>Tree</title>
<polygon fill="white" stroke="transparent" points="-18,18 -18,-935.71 1141.66,-935.71 1141.66,18 -18,18"/>
<!-- 0 -->
<g id="node1" class="node">
<title>0</title>
<polygon fill="white" stroke="transparent" points="606.33,-917.71 552.33,-917.71 552.33,-881.71 606.33,-881.71 606.33,-917.71"/>
<text text-anchor="middle" x="579.33" y="-896.01" font-family="Helvetica,sans-Serif" font-size="14.00">0</text>
</g>
<!-- 1 -->
<g id="node2" class="node">
<title>1</title>
<polygon fill="#cc3d3d" stroke="black" points="665.83,-844.71 492.83,-844.71 492.83,-766.71 665.83,-766.71 665.83,-844.71"/>
<text text-anchor="start" x="524.83" y="-830.51" font-family="Helvetica,sans-Serif" font-weight="bold" font-size="14.00"> Class=False </text>
<text text-anchor="start" x="628.83" y="-830.51" font-family="Helvetica,sans-Serif" font-size="14.00"> </text>
<text text-anchor="start" x="500.83" y="-816.51" font-family="Helvetica,sans-Serif" font-size="14.00"> error: 0.535, n=1458 </text>
<text text-anchor="start" x="524.33" y="-802.51" font-family="Helvetica,sans-Serif" font-size="14.00"> p: (0.88, 0.12) </text>
<text text-anchor="start" x="555.33" y="-788.51" font-family="Helvetica,sans-Serif" font-size="14.00">&#45;&#45;&#45;&#45;&#45;&#45;&#45;&#45;&#45;</text>
<text text-anchor="start" x="538.33" y="-774.51" font-family="Helvetica,sans-Serif" font-weight="bold" font-size="14.00">v_11=0.00</text>
</g>
<!-- 0&#45;&gt;1 -->
<!-- 2 -->
<g id="node3" class="node">
<title>2</title>
<polygon fill="#e5a544" stroke="black" points="525.83,-715.71 352.83,-715.71 352.83,-637.71 525.83,-637.71 525.83,-715.71"/>
<text text-anchor="start" x="384.83" y="-701.51" font-family="Helvetica,sans-Serif" font-weight="bold" font-size="14.00"> Class=False </text>
<text text-anchor="start" x="488.83" y="-701.51" font-family="Helvetica,sans-Serif" font-size="14.00"> </text>
<text text-anchor="start" x="360.83" y="-687.51" font-family="Helvetica,sans-Serif" font-size="14.00"> error: 0.316, n=1458 </text>
<text text-anchor="start" x="384.33" y="-673.51" font-family="Helvetica,sans-Serif" font-size="14.00"> p: (0.94, 0.06) </text>
<text text-anchor="start" x="417.83" y="-659.51" font-family="Helvetica,sans-Serif" font-size="14.00">&#45;&#45;&#45;&#45;&#45;&#45;&#45;&#45;</text>
<text text-anchor="start" x="402.83" y="-645.51" font-family="Helvetica,sans-Serif" font-weight="bold" font-size="14.00">v_6=0.00</text>
</g>
<!-- 1&#45;&gt;2 -->
<g id="edge2" class="edge">
<title>1:s&#45;&gt;2:n</title>
<path fill="none" stroke="black" d="M579.33,-766.71C579.33,-766.71 480.58,-730.74 448.95,-719.22"/>
<polygon fill="black" stroke="black" points="449.92,-715.84 439.33,-715.71 447.53,-722.42 449.92,-715.84"/>
<text text-anchor="middle" x="557.83" y="-737.51" font-family="Helvetica,sans-Serif" font-size="14.00">&gt; &#45;2.255</text>
</g>
<!-- 5 -->
<g id="node4" class="node">
<title>5</title>
<polygon fill="#e5a544" stroke="black" points="806.83,-715.71 633.83,-715.71 633.83,-637.71 806.83,-637.71 806.83,-715.71"/>
<text text-anchor="start" x="665.83" y="-701.51" font-family="Helvetica,sans-Serif" font-weight="bold" font-size="14.00"> Class=False </text>
<text text-anchor="start" x="769.83" y="-701.51" font-family="Helvetica,sans-Serif" font-size="14.00"> </text>
<text text-anchor="start" x="641.83" y="-687.51" font-family="Helvetica,sans-Serif" font-size="14.00"> error: 0.910, n=1458 </text>
<text text-anchor="start" x="665.33" y="-673.51" font-family="Helvetica,sans-Serif" font-size="14.00"> p: (0.68, 0.32) </text>
<text text-anchor="start" x="696.33" y="-659.51" font-family="Helvetica,sans-Serif" font-size="14.00">&#45;&#45;&#45;&#45;&#45;&#45;&#45;&#45;&#45;</text>
<text text-anchor="start" x="679.33" y="-645.51" font-family="Helvetica,sans-Serif" font-weight="bold" font-size="14.00">v_12=0.00</text>
</g>
<!-- 1&#45;&gt;5 -->
<g id="edge3" class="edge">
<title>1:s&#45;&gt;5:n</title>
<path fill="none" stroke="black" d="M579.33,-766.71C579.33,-766.71 678.78,-730.74 710.64,-719.22"/>
<polygon fill="black" stroke="black" points="712.12,-722.4 720.33,-715.71 709.74,-715.82 712.12,-722.4"/>
<text text-anchor="middle" x="704.83" y="-737.51" font-family="Helvetica,sans-Serif" font-size="14.00">&lt;= &#45;2.255</text>
</g>
<!-- 3 -->
<g id="node5" class="node">
<title>3</title>
<ellipse fill="#afcc3d" stroke="black" cx="122.33" cy="-547.71" rx="122.16" ry="35.21"/>
<text text-anchor="start" x="67.83" y="-558.51" font-family="Helvetica,sans-Serif" font-weight="bold" font-size="14.00"> Class=False </text>
<text text-anchor="start" x="171.83" y="-558.51" font-family="Helvetica,sans-Serif" font-size="14.00"> </text>
<text text-anchor="start" x="43.83" y="-544.51" font-family="Helvetica,sans-Serif" font-size="14.00"> error: 0.046, n=1458 </text>
<text text-anchor="start" x="67.33" y="-530.51" font-family="Helvetica,sans-Serif" font-size="14.00"> p: (0.99, 0.01) </text>
</g>
<!-- 2&#45;&gt;3 -->
<g id="edge4" class="edge">
<title>2:s&#45;&gt;3:n</title>
<path fill="none" stroke="black" d="M439.33,-637.71C439.33,-637.71 186.78,-595.49 132.52,-586.41"/>
<polygon fill="black" stroke="black" points="132.77,-582.91 122.33,-584.71 131.62,-589.81 132.77,-582.91"/>
<text text-anchor="middle" x="361.33" y="-608.51" font-family="Helvetica,sans-Serif" font-size="14.00">&lt;= &#45;8.68</text>
</g>
<!-- 4 -->
<g id="node6" class="node">
<title>4</title>
<ellipse fill="#afcc3d" stroke="black" cx="439.33" cy="-547.71" rx="122.16" ry="35.21"/>
<text text-anchor="start" x="384.83" y="-558.51" font-family="Helvetica,sans-Serif" font-weight="bold" font-size="14.00"> Class=False </text>
<text text-anchor="start" x="488.83" y="-558.51" font-family="Helvetica,sans-Serif" font-size="14.00"> </text>
<text text-anchor="start" x="360.83" y="-544.51" font-family="Helvetica,sans-Serif" font-size="14.00"> error: 0.523, n=1458 </text>
<text text-anchor="start" x="384.33" y="-530.51" font-family="Helvetica,sans-Serif" font-size="14.00"> p: (0.88, 0.12) </text>
</g>
<!-- 2&#45;&gt;4 -->
<g id="edge5" class="edge">
<title>2:s&#45;&gt;4:n</title>
<path fill="none" stroke="black" d="M439.33,-637.71C439.33,-637.71 439.33,-610.33 439.33,-594.93"/>
<polygon fill="black" stroke="black" points="442.83,-594.71 439.33,-584.71 435.83,-594.71 442.83,-594.71"/>
<text text-anchor="middle" x="466.33" y="-608.51" font-family="Helvetica,sans-Serif" font-size="14.00">&gt; &#45;8.68</text>
</g>
<!-- 6 -->
<g id="node7" class="node">
<title>6</title>
<polygon fill="#afcc3d" stroke="black" points="806.83,-586.71 633.83,-586.71 633.83,-508.71 806.83,-508.71 806.83,-586.71"/>
<text text-anchor="start" x="665.83" y="-572.51" font-family="Helvetica,sans-Serif" font-weight="bold" font-size="14.00"> Class=False </text>
<text text-anchor="start" x="769.83" y="-572.51" font-family="Helvetica,sans-Serif" font-size="14.00"> </text>
<text text-anchor="start" x="641.83" y="-558.51" font-family="Helvetica,sans-Serif" font-size="14.00"> error: 0.685, n=1458 </text>
<text text-anchor="start" x="665.33" y="-544.51" font-family="Helvetica,sans-Serif" font-size="14.00"> p: (0.82, 0.18) </text>
<text text-anchor="start" x="698.83" y="-530.51" font-family="Helvetica,sans-Serif" font-size="14.00">&#45;&#45;&#45;&#45;&#45;&#45;&#45;&#45;</text>
<text text-anchor="start" x="683.83" y="-516.51" font-family="Helvetica,sans-Serif" font-weight="bold" font-size="14.00">v_7=0.00</text>
</g>
<!-- 5&#45;&gt;6 -->
<g id="edge6" class="edge">
<title>5:s&#45;&gt;6:n</title>
<path fill="none" stroke="black" d="M720.33,-637.71C720.33,-637.71 720.33,-611.93 720.33,-597.03"/>
<polygon fill="black" stroke="black" points="723.83,-596.71 720.33,-586.71 716.83,-596.71 723.83,-596.71"/>
<text text-anchor="middle" x="762.33" y="-608.51" font-family="Helvetica,sans-Serif" font-size="14.00">&lt;= &#45;0.5611</text>
</g>
<!-- 9 -->
<g id="node8" class="node">
<title>9</title>
<polygon fill="#afcc3d" stroke="black" points="1069.83,-586.71 896.83,-586.71 896.83,-508.71 1069.83,-508.71 1069.83,-586.71"/>
<text text-anchor="start" x="928.83" y="-572.51" font-family="Helvetica,sans-Serif" font-weight="bold" font-size="14.00"> Class=False </text>
<text text-anchor="start" x="1032.83" y="-572.51" font-family="Helvetica,sans-Serif" font-size="14.00"> </text>
<text text-anchor="start" x="904.83" y="-558.51" font-family="Helvetica,sans-Serif" font-size="14.00"> error: 0.998, n=1458 </text>
<text text-anchor="start" x="928.33" y="-544.51" font-family="Helvetica,sans-Serif" font-size="14.00"> p: (0.53, 0.47) </text>
<text text-anchor="start" x="959.33" y="-530.51" font-family="Helvetica,sans-Serif" font-size="14.00">&#45;&#45;&#45;&#45;&#45;&#45;&#45;&#45;&#45;</text>
<text text-anchor="start" x="942.33" y="-516.51" font-family="Helvetica,sans-Serif" font-weight="bold" font-size="14.00">v_13=0.00</text>
</g>
<!-- 5&#45;&gt;9 -->
<g id="edge7" class="edge">
<title>5:s&#45;&gt;9:n</title>
<path fill="none" stroke="black" d="M720.33,-637.71C720.33,-637.71 925.3,-597.96 973.34,-588.65"/>
<polygon fill="black" stroke="black" points="974.18,-592.05 983.33,-586.71 972.85,-585.18 974.18,-592.05"/>
<text text-anchor="middle" x="928.33" y="-608.51" font-family="Helvetica,sans-Serif" font-size="14.00">&gt; &#45;0.5611</text>
</g>
<!-- 7 -->
<g id="node9" class="node">
<title>7</title>
<ellipse fill="#64e544" stroke="black" cx="403.33" cy="-418.71" rx="122.16" ry="35.21"/>
<text text-anchor="start" x="348.83" y="-429.51" font-family="Helvetica,sans-Serif" font-weight="bold" font-size="14.00"> Class=False </text>
<text text-anchor="start" x="452.83" y="-429.51" font-family="Helvetica,sans-Serif" font-size="14.00"> </text>
<text text-anchor="start" x="324.83" y="-415.51" font-family="Helvetica,sans-Serif" font-size="14.00"> error: 0.380, n=1458 </text>
<text text-anchor="start" x="348.33" y="-401.51" font-family="Helvetica,sans-Serif" font-size="14.00"> p: (0.93, 0.07) </text>
</g>
<!-- 6&#45;&gt;7 -->
<g id="edge8" class="edge">
<title>6:s&#45;&gt;7:n</title>
<path fill="none" stroke="black" d="M720.33,-508.71C720.33,-508.71 467.78,-466.49 413.52,-457.41"/>
<polygon fill="black" stroke="black" points="413.77,-453.91 403.33,-455.71 412.62,-460.81 413.77,-453.91"/>
<text text-anchor="middle" x="646.83" y="-479.51" font-family="Helvetica,sans-Serif" font-size="14.00">&lt;= &#45;1.862</text>
</g>
<!-- 8 -->
<g id="node10" class="node">
<title>8</title>
<ellipse fill="#64e544" stroke="black" cx="720.33" cy="-418.71" rx="122.16" ry="35.21"/>
<text text-anchor="start" x="665.83" y="-429.51" font-family="Helvetica,sans-Serif" font-weight="bold" font-size="14.00"> Class=False </text>
<text text-anchor="start" x="769.83" y="-429.51" font-family="Helvetica,sans-Serif" font-size="14.00"> </text>
<text text-anchor="start" x="641.83" y="-415.51" font-family="Helvetica,sans-Serif" font-size="14.00"> error: 0.884, n=1458 </text>
<text text-anchor="start" x="665.33" y="-401.51" font-family="Helvetica,sans-Serif" font-size="14.00"> p: (0.70, 0.30) </text>
</g>
<!-- 6&#45;&gt;8 -->
<g id="edge9" class="edge">
<title>6:s&#45;&gt;8:n</title>
<path fill="none" stroke="black" d="M720.33,-508.71C720.33,-508.71 720.33,-481.33 720.33,-465.93"/>
<polygon fill="black" stroke="black" points="723.83,-465.71 720.33,-455.71 716.83,-465.71 723.83,-465.71"/>
<text text-anchor="middle" x="751.83" y="-479.51" font-family="Helvetica,sans-Serif" font-size="14.00">&gt; &#45;1.862</text>
</g>
<!-- 10 -->
<g id="node11" class="node">
<title>10</title>
<polygon fill="#64e544" stroke="black" points="1087.83,-457.71 914.83,-457.71 914.83,-379.71 1087.83,-379.71 1087.83,-457.71"/>
<text text-anchor="start" x="950.33" y="-443.51" font-family="Helvetica,sans-Serif" font-weight="bold" font-size="14.00"> Class=True </text>
<text text-anchor="start" x="1047.33" y="-443.51" font-family="Helvetica,sans-Serif" font-size="14.00"> </text>
<text text-anchor="start" x="922.83" y="-429.51" font-family="Helvetica,sans-Serif" font-size="14.00"> error: 0.979, n=1458 </text>
<text text-anchor="start" x="946.33" y="-415.51" font-family="Helvetica,sans-Serif" font-size="14.00"> p: (0.42, 0.58) </text>
<text text-anchor="start" x="977.33" y="-401.51" font-family="Helvetica,sans-Serif" font-size="14.00">&#45;&#45;&#45;&#45;&#45;&#45;&#45;&#45;&#45;</text>
<text text-anchor="start" x="960.33" y="-387.51" font-family="Helvetica,sans-Serif" font-weight="bold" font-size="14.00">v_21=0.00</text>
</g>
<!-- 9&#45;&gt;10 -->
<g id="edge10" class="edge">
<title>9:s&#45;&gt;10:n</title>
<path fill="none" stroke="black" d="M983.33,-508.71C983.33,-508.71 992.63,-482.36 997.86,-467.54"/>
<polygon fill="black" stroke="black" points="1001.3,-468.31 1001.33,-457.71 994.7,-465.98 1001.3,-468.31"/>
<text text-anchor="middle" x="1025.83" y="-479.51" font-family="Helvetica,sans-Serif" font-size="14.00">&gt; &#45;2.102</text>
</g>
<!-- 11 -->
<g id="node12" class="node">
<title>11</title>
<polygon fill="#3dcc76" stroke="black" points="1087.83,-328.71 914.83,-328.71 914.83,-250.71 1087.83,-250.71 1087.83,-328.71"/>
<text text-anchor="start" x="950.33" y="-314.51" font-family="Helvetica,sans-Serif" font-weight="bold" font-size="14.00"> Class=True </text>
<text text-anchor="start" x="1047.33" y="-314.51" font-family="Helvetica,sans-Serif" font-size="14.00"> </text>
<text text-anchor="start" x="922.83" y="-300.51" font-family="Helvetica,sans-Serif" font-size="14.00"> error: 0.820, n=1458 </text>
<text text-anchor="start" x="946.33" y="-286.51" font-family="Helvetica,sans-Serif" font-size="14.00"> p: (0.26, 0.74) </text>
<text text-anchor="start" x="977.33" y="-272.51" font-family="Helvetica,sans-Serif" font-size="14.00">&#45;&#45;&#45;&#45;&#45;&#45;&#45;&#45;&#45;</text>
<text text-anchor="start" x="960.33" y="-258.51" font-family="Helvetica,sans-Serif" font-weight="bold" font-size="14.00">v_14=0.00</text>
</g>
<!-- 10&#45;&gt;11 -->
<g id="edge11" class="edge">
<title>10:s&#45;&gt;11:n</title>
<path fill="none" stroke="black" d="M1001.33,-379.71C1001.33,-379.71 1001.33,-353.93 1001.33,-339.03"/>
<polygon fill="black" stroke="black" points="1004.83,-338.71 1001.33,-328.71 997.83,-338.71 1004.83,-338.71"/>
<text text-anchor="middle" x="1040.83" y="-350.51" font-family="Helvetica,sans-Serif" font-size="14.00">&lt;= 0.2962</text>
</g>
<!-- 12 -->
<g id="node13" class="node">
<title>12</title>
<polygon fill="#44e5e5" stroke="black" points="1087.83,-199.71 914.83,-199.71 914.83,-121.71 1087.83,-121.71 1087.83,-199.71"/>
<text text-anchor="start" x="950.33" y="-185.51" font-family="Helvetica,sans-Serif" font-weight="bold" font-size="14.00"> Class=True </text>
<text text-anchor="start" x="1047.33" y="-185.51" font-family="Helvetica,sans-Serif" font-size="14.00"> </text>
<text text-anchor="start" x="922.83" y="-171.51" font-family="Helvetica,sans-Serif" font-size="14.00"> error: 0.928, n=1458 </text>
<text text-anchor="start" x="946.33" y="-157.51" font-family="Helvetica,sans-Serif" font-size="14.00"> p: (0.34, 0.66) </text>
<text text-anchor="start" x="977.33" y="-143.51" font-family="Helvetica,sans-Serif" font-size="14.00">&#45;&#45;&#45;&#45;&#45;&#45;&#45;&#45;&#45;</text>
<text text-anchor="start" x="960.33" y="-129.51" font-family="Helvetica,sans-Serif" font-weight="bold" font-size="14.00">v_30=0.00</text>
</g>
<!-- 11&#45;&gt;12 -->
<g id="edge12" class="edge">
<title>11:s&#45;&gt;12:n</title>
<path fill="none" stroke="black" d="M1001.33,-250.71C1001.33,-250.71 1001.33,-224.93 1001.33,-210.03"/>
<polygon fill="black" stroke="black" points="1004.83,-209.71 1001.33,-199.71 997.83,-209.71 1004.83,-209.71"/>
<text text-anchor="middle" x="1036.33" y="-221.51" font-family="Helvetica,sans-Serif" font-size="14.00">&lt;= 4.268</text>
</g>
<!-- 13 -->
<g id="node14" class="node">
<title>13</title>
<ellipse fill="#3d76cc" stroke="black" cx="1001.33" cy="-35.36" rx="122.16" ry="35.21"/>
<text text-anchor="start" x="950.33" y="-46.16" font-family="Helvetica,sans-Serif" font-weight="bold" font-size="14.00"> Class=True </text>
<text text-anchor="start" x="1047.33" y="-46.16" font-family="Helvetica,sans-Serif" font-size="14.00"> </text>
<text text-anchor="start" x="922.83" y="-32.16" font-family="Helvetica,sans-Serif" font-size="14.00"> error: 0.840, n=1458 </text>
<text text-anchor="start" x="946.33" y="-18.16" font-family="Helvetica,sans-Serif" font-size="14.00"> p: (0.27, 0.73) </text>
</g>
<!-- 12&#45;&gt;13 -->
<g id="edge13" class="edge">
<title>12:s&#45;&gt;13:n</title>
<path fill="none" stroke="black" d="M1001.33,-121.71C1001.33,-121.71 1001.33,-95.93 1001.33,-81.03"/>
<polygon fill="black" stroke="black" points="1004.83,-80.71 1001.33,-70.71 997.83,-80.71 1004.83,-80.71"/>
<text text-anchor="middle" x="1045.33" y="-92.51" font-family="Helvetica,sans-Serif" font-size="14.00">&lt;= 0.02115</text>
</g>
</g>
</svg>
