<?xml version="1.0" encoding="UTF-8" standalone="no"?>
<!DOCTYPE svg PUBLIC "-//W3C//DTD SVG 1.1//EN"
 "http://www.w3.org/Graphics/SVG/1.1/DTD/svg11.dtd">
<!-- Generated by graphviz version 2.43.0 (0)
 -->
<!-- Title: Tree Pages: 1 -->
<svg width="2654pt" height="954pt"
 viewBox="0.00 0.00 2653.66 953.71" xmlns="http://www.w3.org/2000/svg" xmlns:xlink="http://www.w3.org/1999/xlink">
<g id="graph0" class="graph" transform="scale(1 1) rotate(0) translate(18 935.71)">
<title>Tree</title>
<polygon fill="white" stroke="transparent" points="-18,18 -18,-935.71 2635.66,-935.71 2635.66,18 -18,18"/>
<!-- 0 -->
<g id="node1" class="node">
<title>0</title>
<polygon fill="white" stroke="transparent" points="1199.33,-917.71 1145.33,-917.71 1145.33,-881.71 1199.33,-881.71 1199.33,-917.71"/>
<text text-anchor="middle" x="1172.33" y="-896.01" font-family="Helvetica,sans-Serif" font-size="14.00">0</text>
</g>
<!-- 1 -->
<g id="node2" class="node">
<title>1</title>
<polygon fill="#cc3d3d" stroke="black" points="1258.83,-844.71 1085.83,-844.71 1085.83,-766.71 1258.83,-766.71 1258.83,-844.71"/>
<text text-anchor="start" x="1117.83" y="-830.51" font-family="Helvetica,sans-Serif" font-weight="bold" font-size="14.00"> Class=False </text>
<text text-anchor="start" x="1221.83" y="-830.51" font-family="Helvetica,sans-Serif" font-size="14.00"> </text>
<text text-anchor="start" x="1093.83" y="-816.51" font-family="Helvetica,sans-Serif" font-size="14.00"> error: 0.535, n=1458 </text>
<text text-anchor="start" x="1117.33" y="-802.51" font-family="Helvetica,sans-Serif" font-size="14.00"> p: (0.88, 0.12) </text>
<text text-anchor="start" x="1148.33" y="-788.51" font-family="Helvetica,sans-Serif" font-size="14.00">&#45;&#45;&#45;&#45;&#45;&#45;&#45;&#45;&#45;</text>
<text text-anchor="start" x="1131.33" y="-774.51" font-family="Helvetica,sans-Serif" font-weight="bold" font-size="14.00">v_11=0.00</text>
</g>
<!-- 0&#45;&gt;1 -->
<!-- 2 -->
<g id="node3" class="node">
<title>2</title>
<polygon fill="#e5a544" stroke="black" points="997.83,-715.71 824.83,-715.71 824.83,-637.71 997.83,-637.71 997.83,-715.71"/>
<text text-anchor="start" x="856.83" y="-701.51" font-family="Helvetica,sans-Serif" font-weight="bold" font-size="14.00"> Class=False </text>
<text text-anchor="start" x="960.83" y="-701.51" font-family="Helvetica,sans-Serif" font-size="14.00"> </text>
<text text-anchor="start" x="832.83" y="-687.51" font-family="Helvetica,sans-Serif" font-size="14.00"> error: 0.316, n=1458 </text>
<text text-anchor="start" x="856.33" y="-673.51" font-family="Helvetica,sans-Serif" font-size="14.00"> p: (0.94, 0.06) </text>
<text text-anchor="start" x="889.83" y="-659.51" font-family="Helvetica,sans-Serif" font-size="14.00">&#45;&#45;&#45;&#45;&#45;&#45;&#45;&#45;</text>
<text text-anchor="start" x="874.83" y="-645.51" font-family="Helvetica,sans-Serif" font-weight="bold" font-size="14.00">v_6=0.00</text>
</g>
<!-- 1&#45;&gt;2 -->
<g id="edge2" class="edge">
<title>1:s&#45;&gt;2:n</title>
<path fill="none" stroke="black" d="M1172.33,-766.71C1172.33,-766.71 968.92,-726.96 921.24,-717.65"/>
<polygon fill="black" stroke="black" points="921.82,-714.19 911.33,-715.71 920.47,-721.06 921.82,-714.19"/>
<text text-anchor="middle" x="1104.83" y="-737.51" font-family="Helvetica,sans-Serif" font-size="14.00">&gt; &#45;2.255</text>
</g>
<!-- 19 -->
<g id="node4" class="node">
<title>19</title>
<polygon fill="#e5a544" stroke="black" points="1561.83,-715.71 1388.83,-715.71 1388.83,-637.71 1561.83,-637.71 1561.83,-715.71"/>
<text text-anchor="start" x="1420.83" y="-701.51" font-family="Helvetica,sans-Serif" font-weight="bold" font-size="14.00"> Class=False </text>
<text text-anchor="start" x="1524.83" y="-701.51" font-family="Helvetica,sans-Serif" font-size="14.00"> </text>
<text text-anchor="start" x="1396.83" y="-687.51" font-family="Helvetica,sans-Serif" font-size="14.00"> error: 0.910, n=1458 </text>
<text text-anchor="start" x="1420.33" y="-673.51" font-family="Helvetica,sans-Serif" font-size="14.00"> p: (0.68, 0.32) </text>
<text text-anchor="start" x="1451.33" y="-659.51" font-family="Helvetica,sans-Serif" font-size="14.00">&#45;&#45;&#45;&#45;&#45;&#45;&#45;&#45;&#45;</text>
<text text-anchor="start" x="1434.33" y="-645.51" font-family="Helvetica,sans-Serif" font-weight="bold" font-size="14.00">v_12=0.00</text>
</g>
<!-- 1&#45;&gt;19 -->
<g id="edge3" class="edge">
<title>1:s&#45;&gt;19:n</title>
<path fill="none" stroke="black" d="M1172.33,-766.71C1172.33,-766.71 1412.67,-726.26 1465.25,-717.41"/>
<polygon fill="black" stroke="black" points="1466.05,-720.82 1475.33,-715.71 1464.89,-713.92 1466.05,-720.82"/>
<text text-anchor="middle" x="1397.83" y="-737.51" font-family="Helvetica,sans-Serif" font-size="14.00">&lt;= &#45;2.255</text>
</g>
<!-- 3 -->
<g id="node5" class="node">
<title>3</title>
<ellipse fill="#afcc3d" stroke="black" cx="630.33" cy="-547.71" rx="122.16" ry="35.21"/>
<text text-anchor="start" x="575.83" y="-558.51" font-family="Helvetica,sans-Serif" font-weight="bold" font-size="14.00"> Class=False </text>
<text text-anchor="start" x="679.83" y="-558.51" font-family="Helvetica,sans-Serif" font-size="14.00"> </text>
<text text-anchor="start" x="551.83" y="-544.51" font-family="Helvetica,sans-Serif" font-size="14.00"> error: 0.046, n=1458 </text>
<text text-anchor="start" x="575.33" y="-530.51" font-family="Helvetica,sans-Serif" font-size="14.00"> p: (0.99, 0.01) </text>
</g>
<!-- 2&#45;&gt;3 -->
<g id="edge4" class="edge">
<title>2:s&#45;&gt;3:n</title>
<path fill="none" stroke="black" d="M911.33,-637.71C911.33,-637.71 690.39,-596.04 640.33,-586.6"/>
<polygon fill="black" stroke="black" points="640.8,-583.12 630.33,-584.71 639.51,-590 640.8,-583.12"/>
<text text-anchor="middle" x="846.33" y="-608.51" font-family="Helvetica,sans-Serif" font-size="14.00">&lt;= &#45;8.68</text>
</g>
<!-- 4 -->
<g id="node6" class="node">
<title>4</title>
<polygon fill="#afcc3d" stroke="black" points="997.83,-586.71 824.83,-586.71 824.83,-508.71 997.83,-508.71 997.83,-586.71"/>
<text text-anchor="start" x="856.83" y="-572.51" font-family="Helvetica,sans-Serif" font-weight="bold" font-size="14.00"> Class=False </text>
<text text-anchor="start" x="960.83" y="-572.51" font-family="Helvetica,sans-Serif" font-size="14.00"> </text>
<text text-anchor="start" x="832.83" y="-558.51" font-family="Helvetica,sans-Serif" font-size="14.00"> error: 0.523, n=1458 </text>
<text text-anchor="start" x="856.33" y="-544.51" font-family="Helvetica,sans-Serif" font-size="14.00"> p: (0.88, 0.12) </text>
<text text-anchor="start" x="887.33" y="-530.51" font-family="Helvetica,sans-Serif" font-size="14.00">&#45;&#45;&#45;&#45;&#45;&#45;&#45;&#45;&#45;</text>
<text text-anchor="start" x="870.33" y="-516.51" font-family="Helvetica,sans-Serif" font-weight="bold" font-size="14.00">v_11=0.00</text>
</g>
<!-- 2&#45;&gt;4 -->
<g id="edge5" class="edge">
<title>2:s&#45;&gt;4:n</title>
<path fill="none" stroke="black" d="M911.33,-637.71C911.33,-637.71 911.33,-611.93 911.33,-597.03"/>
<polygon fill="black" stroke="black" points="914.83,-596.71 911.33,-586.71 907.83,-596.71 914.83,-596.71"/>
<text text-anchor="middle" x="938.33" y="-608.51" font-family="Helvetica,sans-Serif" font-size="14.00">&gt; &#45;8.68</text>
</g>
<!-- 20 -->
<g id="node21" class="node">
<title>20</title>
<polygon fill="#afcc3d" stroke="black" points="1561.83,-586.71 1388.83,-586.71 1388.83,-508.71 1561.83,-508.71 1561.83,-586.71"/>
<text text-anchor="start" x="1420.83" y="-572.51" font-family="Helvetica,sans-Serif" font-weight="bold" font-size="14.00"> Class=False </text>
<text text-anchor="start" x="1524.83" y="-572.51" font-family="Helvetica,sans-Serif" font-size="14.00"> </text>
<text text-anchor="start" x="1396.83" y="-558.51" font-family="Helvetica,sans-Serif" font-size="14.00"> error: 0.685, n=1458 </text>
<text text-anchor="start" x="1420.33" y="-544.51" font-family="Helvetica,sans-Serif" font-size="14.00"> p: (0.82, 0.18) </text>
<text text-anchor="start" x="1453.83" y="-530.51" font-family="Helvetica,sans-Serif" font-size="14.00">&#45;&#45;&#45;&#45;&#45;&#45;&#45;&#45;</text>
<text text-anchor="start" x="1438.83" y="-516.51" font-family="Helvetica,sans-Serif" font-weight="bold" font-size="14.00">v_7=0.00</text>
</g>
<!-- 19&#45;&gt;20 -->
<g id="edge20" class="edge">
<title>19:s&#45;&gt;20:n</title>
<path fill="none" stroke="black" d="M1475.33,-637.71C1475.33,-637.71 1475.33,-611.93 1475.33,-597.03"/>
<polygon fill="black" stroke="black" points="1478.83,-596.71 1475.33,-586.71 1471.83,-596.71 1478.83,-596.71"/>
<text text-anchor="middle" x="1517.33" y="-608.51" font-family="Helvetica,sans-Serif" font-size="14.00">&lt;= &#45;0.5611</text>
</g>
<!-- 26 -->
<g id="node22" class="node">
<title>26</title>
<polygon fill="#afcc3d" stroke="black" points="2001.83,-586.71 1828.83,-586.71 1828.83,-508.71 2001.83,-508.71 2001.83,-586.71"/>
<text text-anchor="start" x="1860.83" y="-572.51" font-family="Helvetica,sans-Serif" font-weight="bold" font-size="14.00"> Class=False </text>
<text text-anchor="start" x="1964.83" y="-572.51" font-family="Helvetica,sans-Serif" font-size="14.00"> </text>
<text text-anchor="start" x="1836.83" y="-558.51" font-family="Helvetica,sans-Serif" font-size="14.00"> error: 0.998, n=1458 </text>
<text text-anchor="start" x="1860.33" y="-544.51" font-family="Helvetica,sans-Serif" font-size="14.00"> p: (0.53, 0.47) </text>
<text text-anchor="start" x="1891.33" y="-530.51" font-family="Helvetica,sans-Serif" font-size="14.00">&#45;&#45;&#45;&#45;&#45;&#45;&#45;&#45;&#45;</text>
<text text-anchor="start" x="1874.33" y="-516.51" font-family="Helvetica,sans-Serif" font-weight="bold" font-size="14.00">v_13=0.00</text>
</g>
<!-- 19&#45;&gt;26 -->
<g id="edge21" class="edge">
<title>19:s&#45;&gt;26:n</title>
<path fill="none" stroke="black" d="M1475.33,-637.71C1475.33,-637.71 1839.82,-595.46 1905.31,-587.87"/>
<polygon fill="black" stroke="black" points="1905.8,-591.34 1915.33,-586.71 1904.99,-584.39 1905.8,-591.34"/>
<text text-anchor="middle" x="1784.33" y="-608.51" font-family="Helvetica,sans-Serif" font-size="14.00">&gt; &#45;0.5611</text>
</g>
<!-- 5 -->
<g id="node7" class="node">
<title>5</title>
<polygon fill="#64e544" stroke="black" points="489.83,-457.71 316.83,-457.71 316.83,-379.71 489.83,-379.71 489.83,-457.71"/>
<text text-anchor="start" x="348.83" y="-443.51" font-family="Helvetica,sans-Serif" font-weight="bold" font-size="14.00"> Class=False </text>
<text text-anchor="start" x="452.83" y="-443.51" font-family="Helvetica,sans-Serif" font-size="14.00"> </text>
<text text-anchor="start" x="324.83" y="-429.51" font-family="Helvetica,sans-Serif" font-size="14.00"> error: 0.802, n=1458 </text>
<text text-anchor="start" x="348.33" y="-415.51" font-family="Helvetica,sans-Serif" font-size="14.00"> p: (0.76, 0.24) </text>
<text text-anchor="start" x="381.83" y="-401.51" font-family="Helvetica,sans-Serif" font-size="14.00">&#45;&#45;&#45;&#45;&#45;&#45;&#45;&#45;</text>
<text text-anchor="start" x="366.83" y="-387.51" font-family="Helvetica,sans-Serif" font-weight="bold" font-size="14.00">v_7=0.00</text>
</g>
<!-- 4&#45;&gt;5 -->
<g id="edge6" class="edge">
<title>4:s&#45;&gt;5:n</title>
<path fill="none" stroke="black" d="M911.33,-508.71C911.33,-508.71 485.07,-465.92 413.48,-458.73"/>
<polygon fill="black" stroke="black" points="413.63,-455.23 403.33,-457.71 412.93,-462.19 413.63,-455.23"/>
<text text-anchor="middle" x="760.33" y="-479.51" font-family="Helvetica,sans-Serif" font-size="14.00">&lt;= &#45;0.8766</text>
</g>
<!-- 10 -->
<g id="node8" class="node">
<title>10</title>
<polygon fill="#64e544" stroke="black" points="997.83,-457.71 824.83,-457.71 824.83,-379.71 997.83,-379.71 997.83,-457.71"/>
<text text-anchor="start" x="856.83" y="-443.51" font-family="Helvetica,sans-Serif" font-weight="bold" font-size="14.00"> Class=False </text>
<text text-anchor="start" x="960.83" y="-443.51" font-family="Helvetica,sans-Serif" font-size="14.00"> </text>
<text text-anchor="start" x="832.83" y="-429.51" font-family="Helvetica,sans-Serif" font-size="14.00"> error: 0.381, n=1458 </text>
<text text-anchor="start" x="856.33" y="-415.51" font-family="Helvetica,sans-Serif" font-size="14.00"> p: (0.93, 0.07) </text>
<text text-anchor="start" x="889.83" y="-401.51" font-family="Helvetica,sans-Serif" font-size="14.00">&#45;&#45;&#45;&#45;&#45;&#45;&#45;&#45;</text>
<text text-anchor="start" x="874.83" y="-387.51" font-family="Helvetica,sans-Serif" font-weight="bold" font-size="14.00">v_1=0.00</text>
</g>
<!-- 4&#45;&gt;10 -->
<g id="edge7" class="edge">
<title>4:s&#45;&gt;10:n</title>
<path fill="none" stroke="black" d="M911.33,-508.71C911.33,-508.71 911.33,-482.93 911.33,-468.03"/>
<polygon fill="black" stroke="black" points="914.83,-467.71 911.33,-457.71 907.83,-467.71 914.83,-467.71"/>
<text text-anchor="middle" x="947.33" y="-479.51" font-family="Helvetica,sans-Serif" font-size="14.00">&gt; &#45;0.8766</text>
</g>
<!-- 6 -->
<g id="node9" class="node">
<title>6</title>
<ellipse fill="#3dcc76" stroke="black" cx="122.33" cy="-289.71" rx="122.16" ry="35.21"/>
<text text-anchor="start" x="67.83" y="-300.51" font-family="Helvetica,sans-Serif" font-weight="bold" font-size="14.00"> Class=False </text>
<text text-anchor="start" x="171.83" y="-300.51" font-family="Helvetica,sans-Serif" font-size="14.00"> </text>
<text text-anchor="start" x="43.83" y="-286.51" font-family="Helvetica,sans-Serif" font-size="14.00"> error: 0.337, n=1458 </text>
<text text-anchor="start" x="67.33" y="-272.51" font-family="Helvetica,sans-Serif" font-size="14.00"> p: (0.94, 0.06) </text>
</g>
<!-- 5&#45;&gt;6 -->
<g id="edge8" class="edge">
<title>5:s&#45;&gt;6:n</title>
<path fill="none" stroke="black" d="M403.33,-379.71C403.33,-379.71 182.39,-338.04 132.33,-328.6"/>
<polygon fill="black" stroke="black" points="132.8,-325.12 122.33,-326.71 131.51,-332 132.8,-325.12"/>
<text text-anchor="middle" x="345.83" y="-350.51" font-family="Helvetica,sans-Serif" font-size="14.00">&lt;= 0.7416</text>
</g>
<!-- 7 -->
<g id="node10" class="node">
<title>7</title>
<polygon fill="#3dcc76" stroke="black" points="489.83,-328.71 316.83,-328.71 316.83,-250.71 489.83,-250.71 489.83,-328.71"/>
<text text-anchor="start" x="348.83" y="-314.51" font-family="Helvetica,sans-Serif" font-weight="bold" font-size="14.00"> Class=False </text>
<text text-anchor="start" x="452.83" y="-314.51" font-family="Helvetica,sans-Serif" font-size="14.00"> </text>
<text text-anchor="start" x="324.83" y="-300.51" font-family="Helvetica,sans-Serif" font-size="14.00"> error: 0.980, n=1458 </text>
<text text-anchor="start" x="348.33" y="-286.51" font-family="Helvetica,sans-Serif" font-size="14.00"> p: (0.58, 0.42) </text>
<text text-anchor="start" x="379.33" y="-272.51" font-family="Helvetica,sans-Serif" font-size="14.00">&#45;&#45;&#45;&#45;&#45;&#45;&#45;&#45;&#45;</text>
<text text-anchor="start" x="362.33" y="-258.51" font-family="Helvetica,sans-Serif" font-weight="bold" font-size="14.00">v_19=0.00</text>
</g>
<!-- 5&#45;&gt;7 -->
<g id="edge9" class="edge">
<title>5:s&#45;&gt;7:n</title>
<path fill="none" stroke="black" d="M403.33,-379.71C403.33,-379.71 403.33,-353.93 403.33,-339.03"/>
<polygon fill="black" stroke="black" points="406.83,-338.71 403.33,-328.71 399.83,-338.71 406.83,-338.71"/>
<text text-anchor="middle" x="436.83" y="-350.51" font-family="Helvetica,sans-Serif" font-size="14.00">&gt; 0.7416</text>
</g>
<!-- 11 -->
<g id="node13" class="node">
<title>11</title>
<polygon fill="#3dcc76" stroke="black" points="859.83,-328.71 686.83,-328.71 686.83,-250.71 859.83,-250.71 859.83,-328.71"/>
<text text-anchor="start" x="718.83" y="-314.51" font-family="Helvetica,sans-Serif" font-weight="bold" font-size="14.00"> Class=False </text>
<text text-anchor="start" x="822.83" y="-314.51" font-family="Helvetica,sans-Serif" font-size="14.00"> </text>
<text text-anchor="start" x="694.83" y="-300.51" font-family="Helvetica,sans-Serif" font-size="14.00"> error: 0.220, n=1458 </text>
<text text-anchor="start" x="718.33" y="-286.51" font-family="Helvetica,sans-Serif" font-size="14.00"> p: (0.96, 0.04) </text>
<text text-anchor="start" x="749.33" y="-272.51" font-family="Helvetica,sans-Serif" font-size="14.00">&#45;&#45;&#45;&#45;&#45;&#45;&#45;&#45;&#45;</text>
<text text-anchor="start" x="732.33" y="-258.51" font-family="Helvetica,sans-Serif" font-weight="bold" font-size="14.00">v_16=0.00</text>
</g>
<!-- 10&#45;&gt;11 -->
<g id="edge12" class="edge">
<title>10:s&#45;&gt;11:n</title>
<path fill="none" stroke="black" d="M911.33,-379.71C911.33,-379.71 813.99,-343.74 782.81,-332.22"/>
<polygon fill="black" stroke="black" points="783.92,-328.89 773.33,-328.71 781.5,-335.46 783.92,-328.89"/>
<text text-anchor="middle" x="894.33" y="-350.51" font-family="Helvetica,sans-Serif" font-size="14.00">&lt;= 181.3</text>
</g>
<!-- 15 -->
<g id="node14" class="node">
<title>15</title>
<polygon fill="#3dcc76" stroke="black" points="1104.83,-328.71 931.83,-328.71 931.83,-250.71 1104.83,-250.71 1104.83,-328.71"/>
<text text-anchor="start" x="963.83" y="-314.51" font-family="Helvetica,sans-Serif" font-weight="bold" font-size="14.00"> Class=False </text>
<text text-anchor="start" x="1067.83" y="-314.51" font-family="Helvetica,sans-Serif" font-size="14.00"> </text>
<text text-anchor="start" x="939.83" y="-300.51" font-family="Helvetica,sans-Serif" font-size="14.00"> error: 0.705, n=1458 </text>
<text text-anchor="start" x="963.33" y="-286.51" font-family="Helvetica,sans-Serif" font-size="14.00"> p: (0.81, 0.19) </text>
<text text-anchor="start" x="994.33" y="-272.51" font-family="Helvetica,sans-Serif" font-size="14.00">&#45;&#45;&#45;&#45;&#45;&#45;&#45;&#45;&#45;</text>
<text text-anchor="start" x="977.33" y="-258.51" font-family="Helvetica,sans-Serif" font-weight="bold" font-size="14.00">v_22=0.00</text>
</g>
<!-- 10&#45;&gt;15 -->
<g id="edge13" class="edge">
<title>10:s&#45;&gt;15:n</title>
<path fill="none" stroke="black" d="M911.33,-379.71C911.33,-379.71 983.33,-345.39 1009.21,-333.06"/>
<polygon fill="black" stroke="black" points="1010.81,-336.17 1018.33,-328.71 1007.8,-329.85 1010.81,-336.17"/>
<text text-anchor="middle" x="1007.33" y="-350.51" font-family="Helvetica,sans-Serif" font-size="14.00">&gt; 181.3</text>
</g>
<!-- 8 -->
<g id="node11" class="node">
<title>8</title>
<polygon fill="#44e5e5" stroke="black" points="297.83,-199.71 124.83,-199.71 124.83,-121.71 297.83,-121.71 297.83,-199.71"/>
<text text-anchor="start" x="160.33" y="-185.51" font-family="Helvetica,sans-Serif" font-weight="bold" font-size="14.00"> Class=True </text>
<text text-anchor="start" x="257.33" y="-185.51" font-family="Helvetica,sans-Serif" font-size="14.00"> </text>
<text text-anchor="start" x="132.83" y="-171.51" font-family="Helvetica,sans-Serif" font-size="14.00"> error: 0.997, n=1458 </text>
<text text-anchor="start" x="156.33" y="-157.51" font-family="Helvetica,sans-Serif" font-size="14.00"> p: (0.47, 0.53) </text>
<text text-anchor="start" x="189.83" y="-143.51" font-family="Helvetica,sans-Serif" font-size="14.00">&#45;&#45;&#45;&#45;&#45;&#45;&#45;&#45;</text>
<text text-anchor="start" x="174.83" y="-129.51" font-family="Helvetica,sans-Serif" font-weight="bold" font-size="14.00">v_4=0.00</text>
</g>
<!-- 7&#45;&gt;8 -->
<g id="edge10" class="edge">
<title>7:s&#45;&gt;8:n</title>
<path fill="none" stroke="black" d="M403.33,-250.71C403.33,-250.71 260.24,-212.7 221.11,-202.31"/>
<polygon fill="black" stroke="black" points="221.89,-198.9 211.33,-199.71 220.1,-205.66 221.89,-198.9"/>
<text text-anchor="middle" x="366.33" y="-221.51" font-family="Helvetica,sans-Serif" font-size="14.00">&gt; &#45;0.6855</text>
</g>
<!-- 9 -->
<g id="node12" class="node">
<title>9</title>
<ellipse fill="#3d76cc" stroke="black" cx="211.33" cy="-35.36" rx="122.16" ry="35.21"/>
<text text-anchor="start" x="160.33" y="-46.16" font-family="Helvetica,sans-Serif" font-weight="bold" font-size="14.00"> Class=True </text>
<text text-anchor="start" x="257.33" y="-46.16" font-family="Helvetica,sans-Serif" font-size="14.00"> </text>
<text text-anchor="start" x="132.83" y="-32.16" font-family="Helvetica,sans-Serif" font-size="14.00"> error: 0.918, n=1458 </text>
<text text-anchor="start" x="156.33" y="-18.16" font-family="Helvetica,sans-Serif" font-size="14.00"> p: (0.33, 0.67) </text>
</g>
<!-- 8&#45;&gt;9 -->
<g id="edge11" class="edge">
<title>8:s&#45;&gt;9:n</title>
<path fill="none" stroke="black" d="M211.33,-121.71C211.33,-121.71 211.33,-95.93 211.33,-81.03"/>
<polygon fill="black" stroke="black" points="214.83,-80.71 211.33,-70.71 207.83,-80.71 214.83,-80.71"/>
<text text-anchor="middle" x="246.33" y="-92.51" font-family="Helvetica,sans-Serif" font-size="14.00">&lt;= 3.771</text>
</g>
<!-- 12 -->
<g id="node15" class="node">
<title>12</title>
<ellipse fill="#44e5e5" stroke="black" cx="492.33" cy="-160.71" rx="122.16" ry="35.21"/>
<text text-anchor="start" x="437.83" y="-171.51" font-family="Helvetica,sans-Serif" font-weight="bold" font-size="14.00"> Class=False </text>
<text text-anchor="start" x="541.83" y="-171.51" font-family="Helvetica,sans-Serif" font-size="14.00"> </text>
<text text-anchor="start" x="413.83" y="-157.51" font-family="Helvetica,sans-Serif" font-size="14.00"> error: 0.077, n=1458 </text>
<text text-anchor="start" x="437.33" y="-143.51" font-family="Helvetica,sans-Serif" font-size="14.00"> p: (0.99, 0.01) </text>
</g>
<!-- 11&#45;&gt;12 -->
<g id="edge14" class="edge">
<title>11:s&#45;&gt;12:n</title>
<path fill="none" stroke="black" d="M773.33,-250.71C773.33,-250.71 552.39,-209.04 502.33,-199.6"/>
<polygon fill="black" stroke="black" points="502.8,-196.12 492.33,-197.71 501.51,-203 502.8,-196.12"/>
<text text-anchor="middle" x="715.83" y="-221.51" font-family="Helvetica,sans-Serif" font-size="14.00">&lt;= 0.6411</text>
</g>
<!-- 13 -->
<g id="node16" class="node">
<title>13</title>
<polygon fill="#44e5e5" stroke="black" points="859.83,-199.71 686.83,-199.71 686.83,-121.71 859.83,-121.71 859.83,-199.71"/>
<text text-anchor="start" x="718.83" y="-185.51" font-family="Helvetica,sans-Serif" font-weight="bold" font-size="14.00"> Class=False </text>
<text text-anchor="start" x="822.83" y="-185.51" font-family="Helvetica,sans-Serif" font-size="14.00"> </text>
<text text-anchor="start" x="694.83" y="-171.51" font-family="Helvetica,sans-Serif" font-size="14.00"> error: 0.503, n=1458 </text>
<text text-anchor="start" x="718.33" y="-157.51" font-family="Helvetica,sans-Serif" font-size="14.00"> p: (0.89, 0.11) </text>
<text text-anchor="start" x="749.33" y="-143.51" font-family="Helvetica,sans-Serif" font-size="14.00">&#45;&#45;&#45;&#45;&#45;&#45;&#45;&#45;&#45;</text>
<text text-anchor="start" x="732.33" y="-129.51" font-family="Helvetica,sans-Serif" font-weight="bold" font-size="14.00">v_23=0.00</text>
</g>
<!-- 11&#45;&gt;13 -->
<g id="edge15" class="edge">
<title>11:s&#45;&gt;13:n</title>
<path fill="none" stroke="black" d="M773.33,-250.71C773.33,-250.71 773.33,-224.93 773.33,-210.03"/>
<polygon fill="black" stroke="black" points="776.83,-209.71 773.33,-199.71 769.83,-209.71 776.83,-209.71"/>
<text text-anchor="middle" x="806.83" y="-221.51" font-family="Helvetica,sans-Serif" font-size="14.00">&gt; 0.6411</text>
</g>
<!-- 16 -->
<g id="node18" class="node">
<title>16</title>
<polygon fill="#44e5e5" stroke="black" points="1104.83,-199.71 931.83,-199.71 931.83,-121.71 1104.83,-121.71 1104.83,-199.71"/>
<text text-anchor="start" x="963.83" y="-185.51" font-family="Helvetica,sans-Serif" font-weight="bold" font-size="14.00"> Class=False </text>
<text text-anchor="start" x="1067.83" y="-185.51" font-family="Helvetica,sans-Serif" font-size="14.00"> </text>
<text text-anchor="start" x="939.83" y="-171.51" font-family="Helvetica,sans-Serif" font-size="14.00"> error: 0.254, n=1458 </text>
<text text-anchor="start" x="963.33" y="-157.51" font-family="Helvetica,sans-Serif" font-size="14.00"> p: (0.96, 0.04) </text>
<text text-anchor="start" x="996.83" y="-143.51" font-family="Helvetica,sans-Serif" font-size="14.00">&#45;&#45;&#45;&#45;&#45;&#45;&#45;&#45;</text>
<text text-anchor="start" x="981.83" y="-129.51" font-family="Helvetica,sans-Serif" font-weight="bold" font-size="14.00">v_0=1.00</text>
</g>
<!-- 15&#45;&gt;16 -->
<g id="edge17" class="edge">
<title>15:s&#45;&gt;16:n</title>
<path fill="none" stroke="black" d="M1018.33,-250.71C1018.33,-250.71 1018.33,-224.93 1018.33,-210.03"/>
<polygon fill="black" stroke="black" points="1021.83,-209.71 1018.33,-199.71 1014.83,-209.71 1021.83,-209.71"/>
<text text-anchor="middle" x="1069.33" y="-221.51" font-family="Helvetica,sans-Serif" font-size="14.00">&lt;= &#45;0.005321</text>
</g>
<!-- 18 -->
<g id="node19" class="node">
<title>18</title>
<ellipse fill="#44e5e5" stroke="black" cx="1299.33" cy="-160.71" rx="122.16" ry="35.21"/>
<text text-anchor="start" x="1244.83" y="-171.51" font-family="Helvetica,sans-Serif" font-weight="bold" font-size="14.00"> Class=False </text>
<text text-anchor="start" x="1348.83" y="-171.51" font-family="Helvetica,sans-Serif" font-size="14.00"> </text>
<text text-anchor="start" x="1220.83" y="-157.51" font-family="Helvetica,sans-Serif" font-size="14.00"> error: 0.925, n=1458 </text>
<text text-anchor="start" x="1244.33" y="-143.51" font-family="Helvetica,sans-Serif" font-size="14.00"> p: (0.66, 0.34) </text>
</g>
<!-- 15&#45;&gt;18 -->
<g id="edge18" class="edge">
<title>15:s&#45;&gt;18:n</title>
<path fill="none" stroke="black" d="M1018.33,-250.71C1018.33,-250.71 1239.27,-209.04 1289.33,-199.6"/>
<polygon fill="black" stroke="black" points="1290.15,-203 1299.33,-197.71 1288.85,-196.12 1290.15,-203"/>
<text text-anchor="middle" x="1250.33" y="-221.51" font-family="Helvetica,sans-Serif" font-size="14.00">&gt; &#45;0.005321</text>
</g>
<!-- 14 -->
<g id="node17" class="node">
<title>14</title>
<ellipse fill="#3d76cc" stroke="black" cx="737.33" cy="-35.36" rx="122.16" ry="35.21"/>
<text text-anchor="start" x="682.83" y="-46.16" font-family="Helvetica,sans-Serif" font-weight="bold" font-size="14.00"> Class=False </text>
<text text-anchor="start" x="786.83" y="-46.16" font-family="Helvetica,sans-Serif" font-size="14.00"> </text>
<text text-anchor="start" x="658.83" y="-32.16" font-family="Helvetica,sans-Serif" font-size="14.00"> error: 0.179, n=1458 </text>
<text text-anchor="start" x="682.33" y="-18.16" font-family="Helvetica,sans-Serif" font-size="14.00"> p: (0.97, 0.03) </text>
</g>
<!-- 13&#45;&gt;14 -->
<g id="edge16" class="edge">
<title>13:s&#45;&gt;14:n</title>
<path fill="none" stroke="black" d="M773.33,-121.71C773.33,-121.71 753.5,-93.62 743.27,-79.13"/>
<polygon fill="black" stroke="black" points="745.96,-76.86 737.33,-70.71 740.24,-80.9 745.96,-76.86"/>
<text text-anchor="middle" x="802.33" y="-92.51" font-family="Helvetica,sans-Serif" font-size="14.00">&lt;= &#45;0.1093</text>
</g>
<!-- 17 -->
<g id="node20" class="node">
<title>17</title>
<ellipse fill="#3d76cc" stroke="black" cx="1054.33" cy="-35.36" rx="122.16" ry="35.21"/>
<text text-anchor="start" x="999.83" y="-46.16" font-family="Helvetica,sans-Serif" font-weight="bold" font-size="14.00"> Class=False </text>
<text text-anchor="start" x="1103.83" y="-46.16" font-family="Helvetica,sans-Serif" font-size="14.00"> </text>
<text text-anchor="start" x="975.83" y="-32.16" font-family="Helvetica,sans-Serif" font-size="14.00"> error: 0.151, n=1458 </text>
<text text-anchor="start" x="999.33" y="-18.16" font-family="Helvetica,sans-Serif" font-size="14.00"> p: (0.98, 0.02) </text>
</g>
<!-- 16&#45;&gt;17 -->
<g id="edge19" class="edge">
<title>16:s&#45;&gt;17:n</title>
<path fill="none" stroke="black" d="M1018.33,-121.71C1018.33,-121.71 1038.16,-93.62 1048.38,-79.13"/>
<polygon fill="black" stroke="black" points="1051.42,-80.9 1054.33,-70.71 1045.7,-76.86 1051.42,-80.9"/>
<text text-anchor="middle" x="1091.83" y="-92.51" font-family="Helvetica,sans-Serif" font-size="14.00">&gt; &#45;1.025e+04</text>
</g>
<!-- 21 -->
<g id="node23" class="node">
<title>21</title>
<polygon fill="#64e544" stroke="black" points="1421.83,-457.71 1248.83,-457.71 1248.83,-379.71 1421.83,-379.71 1421.83,-457.71"/>
<text text-anchor="start" x="1280.83" y="-443.51" font-family="Helvetica,sans-Serif" font-weight="bold" font-size="14.00"> Class=False </text>
<text text-anchor="start" x="1384.83" y="-443.51" font-family="Helvetica,sans-Serif" font-size="14.00"> </text>
<text text-anchor="start" x="1256.83" y="-429.51" font-family="Helvetica,sans-Serif" font-size="14.00"> error: 0.380, n=1458 </text>
<text text-anchor="start" x="1280.33" y="-415.51" font-family="Helvetica,sans-Serif" font-size="14.00"> p: (0.93, 0.07) </text>
<text text-anchor="start" x="1311.33" y="-401.51" font-family="Helvetica,sans-Serif" font-size="14.00">&#45;&#45;&#45;&#45;&#45;&#45;&#45;&#45;&#45;</text>
<text text-anchor="start" x="1294.33" y="-387.51" font-family="Helvetica,sans-Serif" font-weight="bold" font-size="14.00">v_14=0.00</text>
</g>
<!-- 20&#45;&gt;21 -->
<g id="edge22" class="edge">
<title>20:s&#45;&gt;21:n</title>
<path fill="none" stroke="black" d="M1475.33,-508.71C1475.33,-508.71 1376.58,-472.74 1344.95,-461.22"/>
<polygon fill="black" stroke="black" points="1345.92,-457.84 1335.33,-457.71 1343.53,-464.42 1345.92,-457.84"/>
<text text-anchor="middle" x="1442.83" y="-479.51" font-family="Helvetica,sans-Serif" font-size="14.00">&lt;= &#45;1.862</text>
</g>
<!-- 23 -->
<g id="node24" class="node">
<title>23</title>
<polygon fill="#64e544" stroke="black" points="1702.83,-457.71 1529.83,-457.71 1529.83,-379.71 1702.83,-379.71 1702.83,-457.71"/>
<text text-anchor="start" x="1561.83" y="-443.51" font-family="Helvetica,sans-Serif" font-weight="bold" font-size="14.00"> Class=False </text>
<text text-anchor="start" x="1665.83" y="-443.51" font-family="Helvetica,sans-Serif" font-size="14.00"> </text>
<text text-anchor="start" x="1537.83" y="-429.51" font-family="Helvetica,sans-Serif" font-size="14.00"> error: 0.884, n=1458 </text>
<text text-anchor="start" x="1561.33" y="-415.51" font-family="Helvetica,sans-Serif" font-size="14.00"> p: (0.70, 0.30) </text>
<text text-anchor="start" x="1592.33" y="-401.51" font-family="Helvetica,sans-Serif" font-size="14.00">&#45;&#45;&#45;&#45;&#45;&#45;&#45;&#45;&#45;</text>
<text text-anchor="start" x="1575.33" y="-387.51" font-family="Helvetica,sans-Serif" font-weight="bold" font-size="14.00">v_13=0.00</text>
</g>
<!-- 20&#45;&gt;23 -->
<g id="edge23" class="edge">
<title>20:s&#45;&gt;23:n</title>
<path fill="none" stroke="black" d="M1475.33,-508.71C1475.33,-508.71 1574.78,-472.74 1606.64,-461.22"/>
<polygon fill="black" stroke="black" points="1608.12,-464.4 1616.33,-457.71 1605.74,-457.82 1608.12,-464.4"/>
<text text-anchor="middle" x="1594.83" y="-479.51" font-family="Helvetica,sans-Serif" font-size="14.00">&gt; &#45;1.862</text>
</g>
<!-- 27 -->
<g id="node28" class="node">
<title>27</title>
<ellipse fill="#64e544" stroke="black" cx="1915.33" cy="-418.71" rx="122.16" ry="35.21"/>
<text text-anchor="start" x="1860.83" y="-429.51" font-family="Helvetica,sans-Serif" font-weight="bold" font-size="14.00"> Class=False </text>
<text text-anchor="start" x="1964.83" y="-429.51" font-family="Helvetica,sans-Serif" font-size="14.00"> </text>
<text text-anchor="start" x="1836.83" y="-415.51" font-family="Helvetica,sans-Serif" font-size="14.00"> error: 0.583, n=1458 </text>
<text text-anchor="start" x="1860.33" y="-401.51" font-family="Helvetica,sans-Serif" font-size="14.00"> p: (0.86, 0.14) </text>
</g>
<!-- 26&#45;&gt;27 -->
<g id="edge27" class="edge">
<title>26:s&#45;&gt;27:n</title>
<path fill="none" stroke="black" d="M1915.33,-508.71C1915.33,-508.71 1915.33,-481.33 1915.33,-465.93"/>
<polygon fill="black" stroke="black" points="1918.83,-465.71 1915.33,-455.71 1911.83,-465.71 1918.83,-465.71"/>
<text text-anchor="middle" x="1952.83" y="-479.51" font-family="Helvetica,sans-Serif" font-size="14.00">&lt;= &#45;2.102</text>
</g>
<!-- 28 -->
<g id="node29" class="node">
<title>28</title>
<polygon fill="#64e544" stroke="black" points="2300.83,-457.71 2127.83,-457.71 2127.83,-379.71 2300.83,-379.71 2300.83,-457.71"/>
<text text-anchor="start" x="2163.33" y="-443.51" font-family="Helvetica,sans-Serif" font-weight="bold" font-size="14.00"> Class=True </text>
<text text-anchor="start" x="2260.33" y="-443.51" font-family="Helvetica,sans-Serif" font-size="14.00"> </text>
<text text-anchor="start" x="2135.83" y="-429.51" font-family="Helvetica,sans-Serif" font-size="14.00"> error: 0.979, n=1458 </text>
<text text-anchor="start" x="2159.33" y="-415.51" font-family="Helvetica,sans-Serif" font-size="14.00"> p: (0.42, 0.58) </text>
<text text-anchor="start" x="2190.33" y="-401.51" font-family="Helvetica,sans-Serif" font-size="14.00">&#45;&#45;&#45;&#45;&#45;&#45;&#45;&#45;&#45;</text>
<text text-anchor="start" x="2173.33" y="-387.51" font-family="Helvetica,sans-Serif" font-weight="bold" font-size="14.00">v_21=0.00</text>
</g>
<!-- 26&#45;&gt;28 -->
<g id="edge28" class="edge">
<title>26:s&#45;&gt;28:n</title>
<path fill="none" stroke="black" d="M1915.33,-508.71C1915.33,-508.71 2152.5,-468.26 2204.38,-459.41"/>
<polygon fill="black" stroke="black" points="2205.06,-462.84 2214.33,-457.71 2203.88,-455.94 2205.06,-462.84"/>
<text text-anchor="middle" x="2131.83" y="-479.51" font-family="Helvetica,sans-Serif" font-size="14.00">&gt; &#45;2.102</text>
</g>
<!-- 22 -->
<g id="node25" class="node">
<title>22</title>
<ellipse fill="#3dcc76" stroke="black" cx="1299.33" cy="-289.71" rx="122.16" ry="35.21"/>
<text text-anchor="start" x="1244.83" y="-300.51" font-family="Helvetica,sans-Serif" font-weight="bold" font-size="14.00"> Class=False </text>
<text text-anchor="start" x="1348.83" y="-300.51" font-family="Helvetica,sans-Serif" font-size="14.00"> </text>
<text text-anchor="start" x="1220.83" y="-286.51" font-family="Helvetica,sans-Serif" font-size="14.00"> error: 0.469, n=1458 </text>
<text text-anchor="start" x="1244.33" y="-272.51" font-family="Helvetica,sans-Serif" font-size="14.00"> p: (0.90, 0.10) </text>
</g>
<!-- 21&#45;&gt;22 -->
<g id="edge24" class="edge">
<title>21:s&#45;&gt;22:n</title>
<path fill="none" stroke="black" d="M1335.33,-379.71C1335.33,-379.71 1315.08,-349.9 1304.95,-334.99"/>
<polygon fill="black" stroke="black" points="1307.84,-333.02 1299.33,-326.71 1302.05,-336.95 1307.84,-333.02"/>
<text text-anchor="middle" x="1365.33" y="-350.51" font-family="Helvetica,sans-Serif" font-size="14.00">&lt;= &#45;0.3622</text>
</g>
<!-- 24 -->
<g id="node26" class="node">
<title>24</title>
<ellipse fill="#3dcc76" stroke="black" cx="1616.33" cy="-289.71" rx="122.16" ry="35.21"/>
<text text-anchor="start" x="1561.83" y="-300.51" font-family="Helvetica,sans-Serif" font-weight="bold" font-size="14.00"> Class=False </text>
<text text-anchor="start" x="1665.83" y="-300.51" font-family="Helvetica,sans-Serif" font-size="14.00"> </text>
<text text-anchor="start" x="1537.83" y="-286.51" font-family="Helvetica,sans-Serif" font-size="14.00"> error: 0.433, n=1458 </text>
<text text-anchor="start" x="1561.33" y="-272.51" font-family="Helvetica,sans-Serif" font-size="14.00"> p: (0.91, 0.09) </text>
</g>
<!-- 23&#45;&gt;24 -->
<g id="edge25" class="edge">
<title>23:s&#45;&gt;24:n</title>
<path fill="none" stroke="black" d="M1616.33,-379.71C1616.33,-379.71 1616.33,-352.33 1616.33,-336.93"/>
<polygon fill="black" stroke="black" points="1619.83,-336.71 1616.33,-326.71 1612.83,-336.71 1619.83,-336.71"/>
<text text-anchor="middle" x="1658.33" y="-350.51" font-family="Helvetica,sans-Serif" font-size="14.00">&lt;= &#45;0.8882</text>
</g>
<!-- 25 -->
<g id="node27" class="node">
<title>25</title>
<ellipse fill="#3dcc76" stroke="black" cx="1933.33" cy="-289.71" rx="122.16" ry="35.21"/>
<text text-anchor="start" x="1882.33" y="-300.51" font-family="Helvetica,sans-Serif" font-weight="bold" font-size="14.00"> Class=True </text>
<text text-anchor="start" x="1979.33" y="-300.51" font-family="Helvetica,sans-Serif" font-size="14.00"> </text>
<text text-anchor="start" x="1854.83" y="-286.51" font-family="Helvetica,sans-Serif" font-size="14.00"> error: 0.996, n=1458 </text>
<text text-anchor="start" x="1878.33" y="-272.51" font-family="Helvetica,sans-Serif" font-size="14.00"> p: (0.46, 0.54) </text>
</g>
<!-- 23&#45;&gt;25 -->
<g id="edge26" class="edge">
<title>23:s&#45;&gt;25:n</title>
<path fill="none" stroke="black" d="M1616.33,-379.71C1616.33,-379.71 1868.88,-337.49 1923.14,-328.41"/>
<polygon fill="black" stroke="black" points="1924.04,-331.81 1933.33,-326.71 1922.89,-324.91 1924.04,-331.81"/>
<text text-anchor="middle" x="1849.33" y="-350.51" font-family="Helvetica,sans-Serif" font-size="14.00">&gt; &#45;0.8882</text>
</g>
<!-- 29 -->
<g id="node30" class="node">
<title>29</title>
<polygon fill="#3dcc76" stroke="black" points="2300.83,-328.71 2127.83,-328.71 2127.83,-250.71 2300.83,-250.71 2300.83,-328.71"/>
<text text-anchor="start" x="2163.33" y="-314.51" font-family="Helvetica,sans-Serif" font-weight="bold" font-size="14.00"> Class=True </text>
<text text-anchor="start" x="2260.33" y="-314.51" font-family="Helvetica,sans-Serif" font-size="14.00"> </text>
<text text-anchor="start" x="2135.83" y="-300.51" font-family="Helvetica,sans-Serif" font-size="14.00"> error: 0.820, n=1458 </text>
<text text-anchor="start" x="2159.33" y="-286.51" font-family="Helvetica,sans-Serif" font-size="14.00"> p: (0.26, 0.74) </text>
<text text-anchor="start" x="2190.33" y="-272.51" font-family="Helvetica,sans-Serif" font-size="14.00">&#45;&#45;&#45;&#45;&#45;&#45;&#45;&#45;&#45;</text>
<text text-anchor="start" x="2173.33" y="-258.51" font-family="Helvetica,sans-Serif" font-weight="bold" font-size="14.00">v_14=0.00</text>
</g>
<!-- 28&#45;&gt;29 -->
<g id="edge29" class="edge">
<title>28:s&#45;&gt;29:n</title>
<path fill="none" stroke="black" d="M2214.33,-379.71C2214.33,-379.71 2214.33,-353.93 2214.33,-339.03"/>
<polygon fill="black" stroke="black" points="2217.83,-338.71 2214.33,-328.71 2210.83,-338.71 2217.83,-338.71"/>
<text text-anchor="middle" x="2253.83" y="-350.51" font-family="Helvetica,sans-Serif" font-size="14.00">&lt;= 0.2962</text>
</g>
<!-- 32 -->
<g id="node31" class="node">
<title>32</title>
<ellipse fill="#3dcc76" stroke="black" cx="2495.33" cy="-289.71" rx="122.16" ry="35.21"/>
<text text-anchor="start" x="2440.83" y="-300.51" font-family="Helvetica,sans-Serif" font-weight="bold" font-size="14.00"> Class=False </text>
<text text-anchor="start" x="2544.83" y="-300.51" font-family="Helvetica,sans-Serif" font-size="14.00"> </text>
<text text-anchor="start" x="2416.83" y="-286.51" font-family="Helvetica,sans-Serif" font-size="14.00"> error: 0.650, n=1458 </text>
<text text-anchor="start" x="2440.33" y="-272.51" font-family="Helvetica,sans-Serif" font-size="14.00"> p: (0.83, 0.17) </text>
</g>
<!-- 28&#45;&gt;32 -->
<g id="edge30" class="edge">
<title>28:s&#45;&gt;32:n</title>
<path fill="none" stroke="black" d="M2214.33,-379.71C2214.33,-379.71 2435.27,-338.04 2485.33,-328.6"/>
<polygon fill="black" stroke="black" points="2486.15,-332 2495.33,-326.71 2484.85,-325.12 2486.15,-332"/>
<text text-anchor="middle" x="2419.83" y="-350.51" font-family="Helvetica,sans-Serif" font-size="14.00">&gt; 0.2962</text>
</g>
<!-- 30 -->
<g id="node32" class="node">
<title>30</title>
<polygon fill="#44e5e5" stroke="black" points="2300.83,-199.71 2127.83,-199.71 2127.83,-121.71 2300.83,-121.71 2300.83,-199.71"/>
<text text-anchor="start" x="2163.33" y="-185.51" font-family="Helvetica,sans-Serif" font-weight="bold" font-size="14.00"> Class=True </text>
<text text-anchor="start" x="2260.33" y="-185.51" font-family="Helvetica,sans-Serif" font-size="14.00"> </text>
<text text-anchor="start" x="2135.83" y="-171.51" font-family="Helvetica,sans-Serif" font-size="14.00"> error: 0.928, n=1458 </text>
<text text-anchor="start" x="2159.33" y="-157.51" font-family="Helvetica,sans-Serif" font-size="14.00"> p: (0.34, 0.66) </text>
<text text-anchor="start" x="2190.33" y="-143.51" font-family="Helvetica,sans-Serif" font-size="14.00">&#45;&#45;&#45;&#45;&#45;&#45;&#45;&#45;&#45;</text>
<text text-anchor="start" x="2173.33" y="-129.51" font-family="Helvetica,sans-Serif" font-weight="bold" font-size="14.00">v_30=0.00</text>
</g>
<!-- 29&#45;&gt;30 -->
<g id="edge31" class="edge">
<title>29:s&#45;&gt;30:n</title>
<path fill="none" stroke="black" d="M2214.33,-250.71C2214.33,-250.71 2214.33,-224.93 2214.33,-210.03"/>
<polygon fill="black" stroke="black" points="2217.83,-209.71 2214.33,-199.71 2210.83,-209.71 2217.83,-209.71"/>
<text text-anchor="middle" x="2249.33" y="-221.51" font-family="Helvetica,sans-Serif" font-size="14.00">&lt;= 4.268</text>
</g>
<!-- 31 -->
<g id="node33" class="node">
<title>31</title>
<ellipse fill="#3d76cc" stroke="black" cx="2214.33" cy="-35.36" rx="122.16" ry="35.21"/>
<text text-anchor="start" x="2163.33" y="-46.16" font-family="Helvetica,sans-Serif" font-weight="bold" font-size="14.00"> Class=True </text>
<text text-anchor="start" x="2260.33" y="-46.16" font-family="Helvetica,sans-Serif" font-size="14.00"> </text>
<text text-anchor="start" x="2135.83" y="-32.16" font-family="Helvetica,sans-Serif" font-size="14.00"> error: 0.840, n=1458 </text>
<text text-anchor="start" x="2159.33" y="-18.16" font-family="Helvetica,sans-Serif" font-size="14.00"> p: (0.27, 0.73) </text>
</g>
<!-- 30&#45;&gt;31 -->
<g id="edge32" class="edge">
<title>30:s&#45;&gt;31:n</title>
<path fill="none" stroke="black" d="M2214.33,-121.71C2214.33,-121.71 2214.33,-95.93 2214.33,-81.03"/>
<polygon fill="black" stroke="black" points="2217.83,-80.71 2214.33,-70.71 2210.83,-80.71 2217.83,-80.71"/>
<text text-anchor="middle" x="2258.33" y="-92.51" font-family="Helvetica,sans-Serif" font-size="14.00">&lt;= 0.02115</text>
</g>
</g>
</svg>
