<?xml version="1.0" encoding="UTF-8" standalone="no"?>
<!DOCTYPE svg PUBLIC "-//W3C//DTD SVG 1.1//EN"
 "http://www.w3.org/Graphics/SVG/1.1/DTD/svg11.dtd">
<!-- Generated by graphviz version 2.43.0 (0)
 -->
<!-- Title: Tree Pages: 1 -->
<svg width="1654pt" height="696pt"
 viewBox="0.00 0.00 1654.39 695.71" xmlns="http://www.w3.org/2000/svg" xmlns:xlink="http://www.w3.org/1999/xlink">
<g id="graph0" class="graph" transform="scale(1 1) rotate(0) translate(18 677.71)">
<title>Tree</title>
<polygon fill="white" stroke="transparent" points="-18,18 -18,-677.71 1636.39,-677.71 1636.39,18 -18,18"/>
<!-- 0 -->
<g id="node1" class="node">
<title>0</title>
<polygon fill="white" stroke="transparent" points="631.69,-659.71 577.69,-659.71 577.69,-623.71 631.69,-623.71 631.69,-659.71"/>
<text text-anchor="middle" x="604.69" y="-638.01" font-family="Helvetica,sans-Serif" font-size="14.00">0</text>
</g>
<!-- 1 -->
<g id="node2" class="node">
<title>1</title>
<polygon fill="#cc3d3d" stroke="black" points="695.69,-586.71 513.69,-586.71 513.69,-508.71 695.69,-508.71 695.69,-586.71"/>
<text text-anchor="start" x="565.69" y="-572.51" font-family="Helvetica,sans-Serif" font-weight="bold" font-size="14.00"> Class=1 </text>
<text text-anchor="start" x="638.69" y="-572.51" font-family="Helvetica,sans-Serif" font-size="14.00"> </text>
<text text-anchor="start" x="521.69" y="-558.51" font-family="Helvetica,sans-Serif" font-size="14.00"> error: 0.991, n=11055 </text>
<text text-anchor="start" x="549.69" y="-544.51" font-family="Helvetica,sans-Serif" font-size="14.00"> p: (0.44, 0.56) </text>
<text text-anchor="start" x="567.69" y="-530.51" font-family="Helvetica,sans-Serif" font-size="14.00">&#45;&#45;&#45;&#45;&#45;&#45;&#45;&#45;&#45;&#45;&#45;&#45;&#45;&#45;</text>
<text text-anchor="start" x="548.19" y="-516.51" font-family="Helvetica,sans-Serif" font-weight="bold" font-size="14.00">SSLfinal_State</text>
</g>
<!-- 0&#45;&gt;1 -->
<!-- 2 -->
<g id="node3" class="node">
<title>2</title>
<polygon fill="#e5d544" stroke="black" points="422.69,-457.71 240.69,-457.71 240.69,-379.71 422.69,-379.71 422.69,-457.71"/>
<text text-anchor="start" x="289.69" y="-443.51" font-family="Helvetica,sans-Serif" font-weight="bold" font-size="14.00"> Class=&#45;1 </text>
<text text-anchor="start" x="368.69" y="-443.51" font-family="Helvetica,sans-Serif" font-size="14.00"> </text>
<text text-anchor="start" x="248.69" y="-429.51" font-family="Helvetica,sans-Serif" font-size="14.00"> error: 0.130, n=11055 </text>
<text text-anchor="start" x="276.69" y="-415.51" font-family="Helvetica,sans-Serif" font-size="14.00"> p: (0.98, 0.02) </text>
<text text-anchor="start" x="297.19" y="-401.51" font-family="Helvetica,sans-Serif" font-size="14.00">&#45;&#45;&#45;&#45;&#45;&#45;&#45;&#45;&#45;&#45;&#45;&#45;&#45;</text>
<text text-anchor="start" x="274.19" y="-387.51" font-family="Helvetica,sans-Serif" font-weight="bold" font-size="14.00">URL_of_Anchor</text>
</g>
<!-- 1&#45;&gt;2 -->
<g id="edge2" class="edge">
<title>1:s&#45;&gt;2:n</title>
<path fill="none" stroke="black" d="M604.69,-508.71C604.69,-508.71 390.99,-468.79 341.73,-459.59"/>
<polygon fill="black" stroke="black" points="342.17,-456.11 331.69,-457.71 340.88,-462.99 342.17,-456.11"/>
<text text-anchor="middle" x="505.69" y="-479.51" font-family="Helvetica,sans-Serif" font-size="14.00">0</text>
</g>
<!-- 4 -->
<g id="node4" class="node">
<title>4</title>
<polygon fill="#e5d544" stroke="black" points="695.69,-457.71 513.69,-457.71 513.69,-379.71 695.69,-379.71 695.69,-457.71"/>
<text text-anchor="start" x="565.69" y="-443.51" font-family="Helvetica,sans-Serif" font-weight="bold" font-size="14.00"> Class=1 </text>
<text text-anchor="start" x="638.69" y="-443.51" font-family="Helvetica,sans-Serif" font-size="14.00"> </text>
<text text-anchor="start" x="521.69" y="-429.51" font-family="Helvetica,sans-Serif" font-size="14.00"> error: 0.502, n=11055 </text>
<text text-anchor="start" x="549.69" y="-415.51" font-family="Helvetica,sans-Serif" font-size="14.00"> p: (0.11, 0.89) </text>
<text text-anchor="start" x="570.19" y="-401.51" font-family="Helvetica,sans-Serif" font-size="14.00">&#45;&#45;&#45;&#45;&#45;&#45;&#45;&#45;&#45;&#45;&#45;&#45;&#45;</text>
<text text-anchor="start" x="547.19" y="-387.51" font-family="Helvetica,sans-Serif" font-weight="bold" font-size="14.00">URL_of_Anchor</text>
</g>
<!-- 1&#45;&gt;4 -->
<g id="edge3" class="edge">
<title>1:s&#45;&gt;4:n</title>
<path fill="none" stroke="black" d="M604.69,-508.71C604.69,-508.71 604.69,-482.93 604.69,-468.03"/>
<polygon fill="black" stroke="black" points="608.19,-467.71 604.69,-457.71 601.19,-467.71 608.19,-467.71"/>
<text text-anchor="middle" x="609.69" y="-479.51" font-family="Helvetica,sans-Serif" font-size="14.00">1</text>
</g>
<!-- 11 -->
<g id="node5" class="node">
<title>11</title>
<polygon fill="#e5d544" stroke="black" points="1132.69,-457.71 950.69,-457.71 950.69,-379.71 1132.69,-379.71 1132.69,-457.71"/>
<text text-anchor="start" x="999.69" y="-443.51" font-family="Helvetica,sans-Serif" font-weight="bold" font-size="14.00"> Class=&#45;1 </text>
<text text-anchor="start" x="1078.69" y="-443.51" font-family="Helvetica,sans-Serif" font-size="14.00"> </text>
<text text-anchor="start" x="958.69" y="-429.51" font-family="Helvetica,sans-Serif" font-size="14.00"> error: 0.590, n=11055 </text>
<text text-anchor="start" x="986.69" y="-415.51" font-family="Helvetica,sans-Serif" font-size="14.00"> p: (0.86, 0.14) </text>
<text text-anchor="start" x="1007.19" y="-401.51" font-family="Helvetica,sans-Serif" font-size="14.00">&#45;&#45;&#45;&#45;&#45;&#45;&#45;&#45;&#45;&#45;&#45;&#45;&#45;</text>
<text text-anchor="start" x="984.19" y="-387.51" font-family="Helvetica,sans-Serif" font-weight="bold" font-size="14.00">URL_of_Anchor</text>
</g>
<!-- 1&#45;&gt;11 -->
<g id="edge4" class="edge">
<title>1:s&#45;&gt;11:n</title>
<path fill="none" stroke="black" d="M604.69,-508.71C604.69,-508.71 966.7,-466.46 1031.75,-458.87"/>
<polygon fill="black" stroke="black" points="1032.17,-462.35 1041.69,-457.71 1031.36,-455.39 1032.17,-462.35"/>
<text text-anchor="middle" x="883.19" y="-479.51" font-family="Helvetica,sans-Serif" font-size="14.00">&#45;1</text>
</g>
<!-- 3 -->
<g id="node6" class="node">
<title>3</title>
<ellipse fill="#59cc3d" stroke="black" cx="128.69" cy="-289.71" rx="128.89" ry="35.21"/>
<text text-anchor="start" x="86.69" y="-300.51" font-family="Helvetica,sans-Serif" font-weight="bold" font-size="14.00"> Class=&#45;1 </text>
<text text-anchor="start" x="165.69" y="-300.51" font-family="Helvetica,sans-Serif" font-size="14.00"> </text>
<text text-anchor="start" x="45.69" y="-286.51" font-family="Helvetica,sans-Serif" font-size="14.00"> error: 0.000, n=11055 </text>
<text text-anchor="start" x="73.69" y="-272.51" font-family="Helvetica,sans-Serif" font-size="14.00"> p: (1.00, 0.00) </text>
</g>
<!-- 2&#45;&gt;3 -->
<g id="edge5" class="edge">
<title>2:s&#45;&gt;3:n</title>
<path fill="none" stroke="black" d="M331.69,-379.71C331.69,-379.71 179.03,-339.1 138.48,-328.32"/>
<polygon fill="black" stroke="black" points="139.26,-324.9 128.69,-325.71 137.46,-331.66 139.26,-324.9"/>
<text text-anchor="middle" x="268.19" y="-350.51" font-family="Helvetica,sans-Serif" font-size="14.00">&#45;1</text>
</g>
<!-- 5 -->
<g id="node7" class="node">
<title>5</title>
<polygon fill="#59cc3d" stroke="black" points="511.69,-328.71 329.69,-328.71 329.69,-250.71 511.69,-250.71 511.69,-328.71"/>
<text text-anchor="start" x="381.69" y="-314.51" font-family="Helvetica,sans-Serif" font-weight="bold" font-size="14.00"> Class=1 </text>
<text text-anchor="start" x="454.69" y="-314.51" font-family="Helvetica,sans-Serif" font-size="14.00"> </text>
<text text-anchor="start" x="337.69" y="-300.51" font-family="Helvetica,sans-Serif" font-size="14.00"> error: 0.518, n=11055 </text>
<text text-anchor="start" x="365.69" y="-286.51" font-family="Helvetica,sans-Serif" font-size="14.00"> p: (0.12, 0.88) </text>
<text text-anchor="start" x="391.69" y="-272.51" font-family="Helvetica,sans-Serif" font-size="14.00">&#45;&#45;&#45;&#45;&#45;&#45;&#45;&#45;&#45;&#45;&#45;</text>
<text text-anchor="start" x="377.19" y="-258.51" font-family="Helvetica,sans-Serif" font-weight="bold" font-size="14.00">web_traffic</text>
</g>
<!-- 4&#45;&gt;5 -->
<g id="edge6" class="edge">
<title>4:s&#45;&gt;5:n</title>
<path fill="none" stroke="black" d="M604.69,-379.71C604.69,-379.71 468.8,-342.05 430.59,-331.45"/>
<polygon fill="black" stroke="black" points="431.27,-328.01 420.69,-328.71 429.4,-334.75 431.27,-328.01"/>
<text text-anchor="middle" x="539.69" y="-350.51" font-family="Helvetica,sans-Serif" font-size="14.00">0</text>
</g>
<!-- 10 -->
<g id="node8" class="node">
<title>10</title>
<ellipse fill="#59cc3d" stroke="black" cx="712.69" cy="-289.71" rx="128.89" ry="35.21"/>
<text text-anchor="start" x="673.69" y="-300.51" font-family="Helvetica,sans-Serif" font-weight="bold" font-size="14.00"> Class=1 </text>
<text text-anchor="start" x="746.69" y="-300.51" font-family="Helvetica,sans-Serif" font-size="14.00"> </text>
<text text-anchor="start" x="629.69" y="-286.51" font-family="Helvetica,sans-Serif" font-size="14.00"> error: 0.064, n=11055 </text>
<text text-anchor="start" x="657.69" y="-272.51" font-family="Helvetica,sans-Serif" font-size="14.00"> p: (0.01, 0.99) </text>
</g>
<!-- 4&#45;&gt;10 -->
<g id="edge7" class="edge">
<title>4:s&#45;&gt;10:n</title>
<path fill="none" stroke="black" d="M604.69,-379.71C604.69,-379.71 677.37,-343.37 703.49,-330.31"/>
<polygon fill="black" stroke="black" points="705.31,-333.31 712.69,-325.71 702.18,-327.05 705.31,-333.31"/>
<text text-anchor="middle" x="673.69" y="-350.51" font-family="Helvetica,sans-Serif" font-size="14.00">1</text>
</g>
<!-- 12 -->
<g id="node13" class="node">
<title>12</title>
<ellipse fill="#59cc3d" stroke="black" cx="1041.69" cy="-289.71" rx="128.89" ry="35.21"/>
<text text-anchor="start" x="999.69" y="-300.51" font-family="Helvetica,sans-Serif" font-weight="bold" font-size="14.00"> Class=&#45;1 </text>
<text text-anchor="start" x="1078.69" y="-300.51" font-family="Helvetica,sans-Serif" font-size="14.00"> </text>
<text text-anchor="start" x="958.69" y="-286.51" font-family="Helvetica,sans-Serif" font-size="14.00"> error: 0.000, n=11055 </text>
<text text-anchor="start" x="986.69" y="-272.51" font-family="Helvetica,sans-Serif" font-size="14.00"> p: (1.00, 0.00) </text>
</g>
<!-- 11&#45;&gt;12 -->
<g id="edge12" class="edge">
<title>11:s&#45;&gt;12:n</title>
<path fill="none" stroke="black" d="M1041.69,-379.71C1041.69,-379.71 1041.69,-351.81 1041.69,-336.12"/>
<polygon fill="black" stroke="black" points="1045.19,-335.71 1041.69,-325.71 1038.19,-335.71 1045.19,-335.71"/>
<text text-anchor="middle" x="1049.19" y="-350.51" font-family="Helvetica,sans-Serif" font-size="14.00">&#45;1</text>
</g>
<!-- 13 -->
<g id="node14" class="node">
<title>13</title>
<polygon fill="#59cc3d" stroke="black" points="1424.69,-328.71 1242.69,-328.71 1242.69,-250.71 1424.69,-250.71 1424.69,-328.71"/>
<text text-anchor="start" x="1291.69" y="-314.51" font-family="Helvetica,sans-Serif" font-weight="bold" font-size="14.00"> Class=&#45;1 </text>
<text text-anchor="start" x="1370.69" y="-314.51" font-family="Helvetica,sans-Serif" font-size="14.00"> </text>
<text text-anchor="start" x="1250.69" y="-300.51" font-family="Helvetica,sans-Serif" font-size="14.00"> error: 0.844, n=11055 </text>
<text text-anchor="start" x="1278.69" y="-286.51" font-family="Helvetica,sans-Serif" font-size="14.00"> p: (0.73, 0.27) </text>
<text text-anchor="start" x="1299.19" y="-272.51" font-family="Helvetica,sans-Serif" font-size="14.00">&#45;&#45;&#45;&#45;&#45;&#45;&#45;&#45;&#45;&#45;&#45;&#45;&#45;</text>
<text text-anchor="start" x="1282.19" y="-258.51" font-family="Helvetica,sans-Serif" font-weight="bold" font-size="14.00">Links_in_tags</text>
</g>
<!-- 11&#45;&gt;13 -->
<g id="edge13" class="edge">
<title>11:s&#45;&gt;13:n</title>
<path fill="none" stroke="black" d="M1041.69,-379.71C1041.69,-379.71 1272.3,-339.43 1323.64,-330.47"/>
<polygon fill="black" stroke="black" points="1324.44,-333.88 1333.69,-328.71 1323.24,-326.98 1324.44,-333.88"/>
<text text-anchor="middle" x="1226.69" y="-350.51" font-family="Helvetica,sans-Serif" font-size="14.00">0</text>
</g>
<!-- 6 -->
<g id="node9" class="node">
<title>6</title>
<polygon fill="#44e5b5" stroke="black" points="219.69,-199.71 37.69,-199.71 37.69,-121.71 219.69,-121.71 219.69,-199.71"/>
<text text-anchor="start" x="89.69" y="-185.51" font-family="Helvetica,sans-Serif" font-weight="bold" font-size="14.00"> Class=1 </text>
<text text-anchor="start" x="162.69" y="-185.51" font-family="Helvetica,sans-Serif" font-size="14.00"> </text>
<text text-anchor="start" x="45.69" y="-171.51" font-family="Helvetica,sans-Serif" font-size="14.00"> error: 0.955, n=11055 </text>
<text text-anchor="start" x="73.69" y="-157.51" font-family="Helvetica,sans-Serif" font-size="14.00"> p: (0.38, 0.62) </text>
<text text-anchor="start" x="83.69" y="-143.51" font-family="Helvetica,sans-Serif" font-size="14.00">&#45;&#45;&#45;&#45;&#45;&#45;&#45;&#45;&#45;&#45;&#45;&#45;&#45;&#45;&#45;&#45;&#45;</text>
<text text-anchor="start" x="51.19" y="-129.51" font-family="Helvetica,sans-Serif" font-weight="bold" font-size="14.00">having_Sub_Domain</text>
</g>
<!-- 5&#45;&gt;6 -->
<g id="edge8" class="edge">
<title>5:s&#45;&gt;6:n</title>
<path fill="none" stroke="black" d="M420.69,-250.71C420.69,-250.71 190.09,-210.43 138.74,-201.47"/>
<polygon fill="black" stroke="black" points="139.15,-197.98 128.69,-199.71 137.94,-204.88 139.15,-197.98"/>
<text text-anchor="middle" x="314.69" y="-221.51" font-family="Helvetica,sans-Serif" font-size="14.00">0</text>
</g>
<!-- 8 -->
<g id="node10" class="node">
<title>8</title>
<ellipse fill="#44e5b5" stroke="black" cx="420.69" cy="-160.71" rx="128.89" ry="35.21"/>
<text text-anchor="start" x="381.69" y="-171.51" font-family="Helvetica,sans-Serif" font-weight="bold" font-size="14.00"> Class=1 </text>
<text text-anchor="start" x="454.69" y="-171.51" font-family="Helvetica,sans-Serif" font-size="14.00"> </text>
<text text-anchor="start" x="337.69" y="-157.51" font-family="Helvetica,sans-Serif" font-size="14.00"> error: 0.298, n=11055 </text>
<text text-anchor="start" x="365.69" y="-143.51" font-family="Helvetica,sans-Serif" font-size="14.00"> p: (0.05, 0.95) </text>
</g>
<!-- 5&#45;&gt;8 -->
<g id="edge9" class="edge">
<title>5:s&#45;&gt;8:n</title>
<path fill="none" stroke="black" d="M420.69,-250.71C420.69,-250.71 420.69,-222.81 420.69,-207.12"/>
<polygon fill="black" stroke="black" points="424.19,-206.71 420.69,-196.71 417.19,-206.71 424.19,-206.71"/>
<text text-anchor="middle" x="425.69" y="-221.51" font-family="Helvetica,sans-Serif" font-size="14.00">1</text>
</g>
<!-- 9 -->
<g id="node11" class="node">
<title>9</title>
<ellipse fill="#44e5b5" stroke="black" cx="749.69" cy="-160.71" rx="128.89" ry="35.21"/>
<text text-anchor="start" x="710.69" y="-171.51" font-family="Helvetica,sans-Serif" font-weight="bold" font-size="14.00"> Class=1 </text>
<text text-anchor="start" x="783.69" y="-171.51" font-family="Helvetica,sans-Serif" font-size="14.00"> </text>
<text text-anchor="start" x="666.69" y="-157.51" font-family="Helvetica,sans-Serif" font-size="14.00"> error: 0.129, n=11055 </text>
<text text-anchor="start" x="694.69" y="-143.51" font-family="Helvetica,sans-Serif" font-size="14.00"> p: (0.02, 0.98) </text>
</g>
<!-- 5&#45;&gt;9 -->
<g id="edge10" class="edge">
<title>5:s&#45;&gt;9:n</title>
<path fill="none" stroke="black" d="M420.69,-250.71C420.69,-250.71 683.95,-207.5 739.49,-198.39"/>
<polygon fill="black" stroke="black" points="740.39,-201.78 749.69,-196.71 739.26,-194.88 740.39,-201.78"/>
<text text-anchor="middle" x="622.19" y="-221.51" font-family="Helvetica,sans-Serif" font-size="14.00">&#45;1</text>
</g>
<!-- 7 -->
<g id="node12" class="node">
<title>7</title>
<ellipse fill="#3d76cc" stroke="black" cx="128.69" cy="-35.36" rx="128.89" ry="35.21"/>
<text text-anchor="start" x="89.69" y="-46.16" font-family="Helvetica,sans-Serif" font-weight="bold" font-size="14.00"> Class=1 </text>
<text text-anchor="start" x="162.69" y="-46.16" font-family="Helvetica,sans-Serif" font-size="14.00"> </text>
<text text-anchor="start" x="45.69" y="-32.16" font-family="Helvetica,sans-Serif" font-size="14.00"> error: 0.755, n=11055 </text>
<text text-anchor="start" x="73.69" y="-18.16" font-family="Helvetica,sans-Serif" font-size="14.00"> p: (0.22, 0.78) </text>
</g>
<!-- 6&#45;&gt;7 -->
<g id="edge11" class="edge">
<title>6:s&#45;&gt;7:n</title>
<path fill="none" stroke="black" d="M128.69,-121.71C128.69,-121.71 128.69,-95.93 128.69,-81.03"/>
<polygon fill="black" stroke="black" points="132.19,-80.71 128.69,-70.71 125.19,-80.71 132.19,-80.71"/>
<text text-anchor="middle" x="133.69" y="-92.51" font-family="Helvetica,sans-Serif" font-size="14.00">1</text>
</g>
<!-- 14 -->
<g id="node15" class="node">
<title>14</title>
<polygon fill="#44e5b5" stroke="black" points="1289.19,-199.71 1092.19,-199.71 1092.19,-121.71 1289.19,-121.71 1289.19,-199.71"/>
<text text-anchor="start" x="1148.69" y="-185.51" font-family="Helvetica,sans-Serif" font-weight="bold" font-size="14.00"> Class=&#45;1 </text>
<text text-anchor="start" x="1227.69" y="-185.51" font-family="Helvetica,sans-Serif" font-size="14.00"> </text>
<text text-anchor="start" x="1107.69" y="-171.51" font-family="Helvetica,sans-Serif" font-size="14.00"> error: 0.563, n=11055 </text>
<text text-anchor="start" x="1135.69" y="-157.51" font-family="Helvetica,sans-Serif" font-size="14.00"> p: (0.87, 0.13) </text>
<text text-anchor="start" x="1132.69" y="-143.51" font-family="Helvetica,sans-Serif" font-size="14.00">&#45;&#45;&#45;&#45;&#45;&#45;&#45;&#45;&#45;&#45;&#45;&#45;&#45;&#45;&#45;&#45;&#45;&#45;&#45;&#45;&#45;&#45;</text>
<text text-anchor="start" x="1100.19" y="-129.51" font-family="Helvetica,sans-Serif" font-weight="bold" font-size="14.00">Links_pointing_to_page</text>
</g>
<!-- 13&#45;&gt;14 -->
<g id="edge14" class="edge">
<title>13:s&#45;&gt;14:n</title>
<path fill="none" stroke="black" d="M1333.69,-250.71C1333.69,-250.71 1232.83,-214.74 1200.52,-203.22"/>
<polygon fill="black" stroke="black" points="1201.29,-199.77 1190.69,-199.71 1198.94,-206.37 1201.29,-199.77"/>
<text text-anchor="middle" x="1286.19" y="-221.51" font-family="Helvetica,sans-Serif" font-size="14.00">&#45;1</text>
</g>
<!-- 16 -->
<g id="node16" class="node">
<title>16</title>
<ellipse fill="#44e5b5" stroke="black" cx="1489.69" cy="-160.71" rx="128.89" ry="35.21"/>
<text text-anchor="start" x="1447.69" y="-171.51" font-family="Helvetica,sans-Serif" font-weight="bold" font-size="14.00"> Class=&#45;1 </text>
<text text-anchor="start" x="1526.69" y="-171.51" font-family="Helvetica,sans-Serif" font-size="14.00"> </text>
<text text-anchor="start" x="1406.69" y="-157.51" font-family="Helvetica,sans-Serif" font-size="14.00"> error: 0.970, n=11055 </text>
<text text-anchor="start" x="1434.69" y="-143.51" font-family="Helvetica,sans-Serif" font-size="14.00"> p: (0.60, 0.40) </text>
</g>
<!-- 13&#45;&gt;16 -->
<g id="edge15" class="edge">
<title>13:s&#45;&gt;16:n</title>
<path fill="none" stroke="black" d="M1333.69,-250.71C1333.69,-250.71 1445.78,-211.91 1479.93,-200.09"/>
<polygon fill="black" stroke="black" points="1481.39,-203.29 1489.69,-196.71 1479.1,-196.67 1481.39,-203.29"/>
<text text-anchor="middle" x="1429.69" y="-221.51" font-family="Helvetica,sans-Serif" font-size="14.00">0</text>
</g>
<!-- 15 -->
<g id="node17" class="node">
<title>15</title>
<ellipse fill="#3d76cc" stroke="black" cx="1190.69" cy="-35.36" rx="128.89" ry="35.21"/>
<text text-anchor="start" x="1148.69" y="-46.16" font-family="Helvetica,sans-Serif" font-weight="bold" font-size="14.00"> Class=&#45;1 </text>
<text text-anchor="start" x="1227.69" y="-46.16" font-family="Helvetica,sans-Serif" font-size="14.00"> </text>
<text text-anchor="start" x="1107.69" y="-32.16" font-family="Helvetica,sans-Serif" font-size="14.00"> error: 0.416, n=11055 </text>
<text text-anchor="start" x="1135.69" y="-18.16" font-family="Helvetica,sans-Serif" font-size="14.00"> p: (0.92, 0.08) </text>
</g>
<!-- 14&#45;&gt;15 -->
<g id="edge16" class="edge">
<title>14:s&#45;&gt;15:n</title>
<path fill="none" stroke="black" d="M1190.69,-121.71C1190.69,-121.71 1190.69,-95.93 1190.69,-81.03"/>
<polygon fill="black" stroke="black" points="1194.19,-80.71 1190.69,-70.71 1187.19,-80.71 1194.19,-80.71"/>
<text text-anchor="middle" x="1195.69" y="-92.51" font-family="Helvetica,sans-Serif" font-size="14.00">0</text>
</g>
</g>
</svg>
