<?xml version="1.0" encoding="UTF-8" standalone="no"?>
<!DOCTYPE svg PUBLIC "-//W3C//DTD SVG 1.1//EN"
 "http://www.w3.org/Graphics/SVG/1.1/DTD/svg11.dtd">
<!-- Generated by graphviz version 2.43.0 (0)
 -->
<!-- Title: Tree Pages: 1 -->
<svg width="1934pt" height="825pt"
 viewBox="0.00 0.00 1934.39 824.71" xmlns="http://www.w3.org/2000/svg" xmlns:xlink="http://www.w3.org/1999/xlink">
<g id="graph0" class="graph" transform="scale(1 1) rotate(0) translate(18 806.71)">
<title>Tree</title>
<polygon fill="white" stroke="transparent" points="-18,18 -18,-806.71 1916.39,-806.71 1916.39,18 -18,18"/>
<!-- 0 -->
<g id="node1" class="node">
<title>0</title>
<polygon fill="white" stroke="transparent" points="869.69,-788.71 815.69,-788.71 815.69,-752.71 869.69,-752.71 869.69,-788.71"/>
<text text-anchor="middle" x="842.69" y="-767.01" font-family="Helvetica,sans-Serif" font-size="14.00">0</text>
</g>
<!-- 1 -->
<g id="node2" class="node">
<title>1</title>
<polygon fill="#cc3d3d" stroke="black" points="933.69,-715.71 751.69,-715.71 751.69,-637.71 933.69,-637.71 933.69,-715.71"/>
<text text-anchor="start" x="803.69" y="-701.51" font-family="Helvetica,sans-Serif" font-weight="bold" font-size="14.00"> Class=1 </text>
<text text-anchor="start" x="876.69" y="-701.51" font-family="Helvetica,sans-Serif" font-size="14.00"> </text>
<text text-anchor="start" x="759.69" y="-687.51" font-family="Helvetica,sans-Serif" font-size="14.00"> error: 0.991, n=11055 </text>
<text text-anchor="start" x="787.69" y="-673.51" font-family="Helvetica,sans-Serif" font-size="14.00"> p: (0.44, 0.56) </text>
<text text-anchor="start" x="805.69" y="-659.51" font-family="Helvetica,sans-Serif" font-size="14.00">&#45;&#45;&#45;&#45;&#45;&#45;&#45;&#45;&#45;&#45;&#45;&#45;&#45;&#45;</text>
<text text-anchor="start" x="786.19" y="-645.51" font-family="Helvetica,sans-Serif" font-weight="bold" font-size="14.00">SSLfinal_State</text>
</g>
<!-- 0&#45;&gt;1 -->
<!-- 2 -->
<g id="node3" class="node">
<title>2</title>
<polygon fill="#e5b844" stroke="black" points="660.69,-586.71 478.69,-586.71 478.69,-508.71 660.69,-508.71 660.69,-586.71"/>
<text text-anchor="start" x="527.69" y="-572.51" font-family="Helvetica,sans-Serif" font-weight="bold" font-size="14.00"> Class=&#45;1 </text>
<text text-anchor="start" x="606.69" y="-572.51" font-family="Helvetica,sans-Serif" font-size="14.00"> </text>
<text text-anchor="start" x="486.69" y="-558.51" font-family="Helvetica,sans-Serif" font-size="14.00"> error: 0.130, n=11055 </text>
<text text-anchor="start" x="514.69" y="-544.51" font-family="Helvetica,sans-Serif" font-size="14.00"> p: (0.98, 0.02) </text>
<text text-anchor="start" x="535.19" y="-530.51" font-family="Helvetica,sans-Serif" font-size="14.00">&#45;&#45;&#45;&#45;&#45;&#45;&#45;&#45;&#45;&#45;&#45;&#45;&#45;</text>
<text text-anchor="start" x="512.19" y="-516.51" font-family="Helvetica,sans-Serif" font-weight="bold" font-size="14.00">URL_of_Anchor</text>
</g>
<!-- 1&#45;&gt;2 -->
<g id="edge2" class="edge">
<title>1:s&#45;&gt;2:n</title>
<path fill="none" stroke="black" d="M842.69,-637.71C842.69,-637.71 628.99,-597.79 579.73,-588.59"/>
<polygon fill="black" stroke="black" points="580.17,-585.11 569.69,-586.71 578.88,-591.99 580.17,-585.11"/>
<text text-anchor="middle" x="743.69" y="-608.51" font-family="Helvetica,sans-Serif" font-size="14.00">0</text>
</g>
<!-- 4 -->
<g id="node4" class="node">
<title>4</title>
<polygon fill="#e5b844" stroke="black" points="933.69,-586.71 751.69,-586.71 751.69,-508.71 933.69,-508.71 933.69,-586.71"/>
<text text-anchor="start" x="803.69" y="-572.51" font-family="Helvetica,sans-Serif" font-weight="bold" font-size="14.00"> Class=1 </text>
<text text-anchor="start" x="876.69" y="-572.51" font-family="Helvetica,sans-Serif" font-size="14.00"> </text>
<text text-anchor="start" x="759.69" y="-558.51" font-family="Helvetica,sans-Serif" font-size="14.00"> error: 0.502, n=11055 </text>
<text text-anchor="start" x="787.69" y="-544.51" font-family="Helvetica,sans-Serif" font-size="14.00"> p: (0.11, 0.89) </text>
<text text-anchor="start" x="808.19" y="-530.51" font-family="Helvetica,sans-Serif" font-size="14.00">&#45;&#45;&#45;&#45;&#45;&#45;&#45;&#45;&#45;&#45;&#45;&#45;&#45;</text>
<text text-anchor="start" x="785.19" y="-516.51" font-family="Helvetica,sans-Serif" font-weight="bold" font-size="14.00">URL_of_Anchor</text>
</g>
<!-- 1&#45;&gt;4 -->
<g id="edge3" class="edge">
<title>1:s&#45;&gt;4:n</title>
<path fill="none" stroke="black" d="M842.69,-637.71C842.69,-637.71 842.69,-611.93 842.69,-597.03"/>
<polygon fill="black" stroke="black" points="846.19,-596.71 842.69,-586.71 839.19,-596.71 846.19,-596.71"/>
<text text-anchor="middle" x="847.69" y="-608.51" font-family="Helvetica,sans-Serif" font-size="14.00">1</text>
</g>
<!-- 16 -->
<g id="node5" class="node">
<title>16</title>
<polygon fill="#e5b844" stroke="black" points="1370.69,-586.71 1188.69,-586.71 1188.69,-508.71 1370.69,-508.71 1370.69,-586.71"/>
<text text-anchor="start" x="1237.69" y="-572.51" font-family="Helvetica,sans-Serif" font-weight="bold" font-size="14.00"> Class=&#45;1 </text>
<text text-anchor="start" x="1316.69" y="-572.51" font-family="Helvetica,sans-Serif" font-size="14.00"> </text>
<text text-anchor="start" x="1196.69" y="-558.51" font-family="Helvetica,sans-Serif" font-size="14.00"> error: 0.590, n=11055 </text>
<text text-anchor="start" x="1224.69" y="-544.51" font-family="Helvetica,sans-Serif" font-size="14.00"> p: (0.86, 0.14) </text>
<text text-anchor="start" x="1245.19" y="-530.51" font-family="Helvetica,sans-Serif" font-size="14.00">&#45;&#45;&#45;&#45;&#45;&#45;&#45;&#45;&#45;&#45;&#45;&#45;&#45;</text>
<text text-anchor="start" x="1222.19" y="-516.51" font-family="Helvetica,sans-Serif" font-weight="bold" font-size="14.00">URL_of_Anchor</text>
</g>
<!-- 1&#45;&gt;16 -->
<g id="edge4" class="edge">
<title>1:s&#45;&gt;16:n</title>
<path fill="none" stroke="black" d="M842.69,-637.71C842.69,-637.71 1204.7,-595.46 1269.75,-587.87"/>
<polygon fill="black" stroke="black" points="1270.17,-591.35 1279.69,-586.71 1269.36,-584.39 1270.17,-591.35"/>
<text text-anchor="middle" x="1121.19" y="-608.51" font-family="Helvetica,sans-Serif" font-size="14.00">&#45;1</text>
</g>
<!-- 3 -->
<g id="node6" class="node">
<title>3</title>
<ellipse fill="#8dcc3d" stroke="black" cx="366.69" cy="-418.71" rx="128.89" ry="35.21"/>
<text text-anchor="start" x="324.69" y="-429.51" font-family="Helvetica,sans-Serif" font-weight="bold" font-size="14.00"> Class=&#45;1 </text>
<text text-anchor="start" x="403.69" y="-429.51" font-family="Helvetica,sans-Serif" font-size="14.00"> </text>
<text text-anchor="start" x="283.69" y="-415.51" font-family="Helvetica,sans-Serif" font-size="14.00"> error: 0.000, n=11055 </text>
<text text-anchor="start" x="311.69" y="-401.51" font-family="Helvetica,sans-Serif" font-size="14.00"> p: (1.00, 0.00) </text>
</g>
<!-- 2&#45;&gt;3 -->
<g id="edge5" class="edge">
<title>2:s&#45;&gt;3:n</title>
<path fill="none" stroke="black" d="M569.69,-508.71C569.69,-508.71 417.03,-468.1 376.48,-457.32"/>
<polygon fill="black" stroke="black" points="377.26,-453.9 366.69,-454.71 375.46,-460.66 377.26,-453.9"/>
<text text-anchor="middle" x="506.19" y="-479.51" font-family="Helvetica,sans-Serif" font-size="14.00">&#45;1</text>
</g>
<!-- 5 -->
<g id="node7" class="node">
<title>5</title>
<polygon fill="#8dcc3d" stroke="black" points="749.69,-457.71 567.69,-457.71 567.69,-379.71 749.69,-379.71 749.69,-457.71"/>
<text text-anchor="start" x="619.69" y="-443.51" font-family="Helvetica,sans-Serif" font-weight="bold" font-size="14.00"> Class=1 </text>
<text text-anchor="start" x="692.69" y="-443.51" font-family="Helvetica,sans-Serif" font-size="14.00"> </text>
<text text-anchor="start" x="575.69" y="-429.51" font-family="Helvetica,sans-Serif" font-size="14.00"> error: 0.518, n=11055 </text>
<text text-anchor="start" x="603.69" y="-415.51" font-family="Helvetica,sans-Serif" font-size="14.00"> p: (0.12, 0.88) </text>
<text text-anchor="start" x="629.69" y="-401.51" font-family="Helvetica,sans-Serif" font-size="14.00">&#45;&#45;&#45;&#45;&#45;&#45;&#45;&#45;&#45;&#45;&#45;</text>
<text text-anchor="start" x="615.19" y="-387.51" font-family="Helvetica,sans-Serif" font-weight="bold" font-size="14.00">web_traffic</text>
</g>
<!-- 4&#45;&gt;5 -->
<g id="edge6" class="edge">
<title>4:s&#45;&gt;5:n</title>
<path fill="none" stroke="black" d="M842.69,-508.71C842.69,-508.71 706.8,-471.05 668.59,-460.45"/>
<polygon fill="black" stroke="black" points="669.27,-457.01 658.69,-457.71 667.4,-463.75 669.27,-457.01"/>
<text text-anchor="middle" x="777.69" y="-479.51" font-family="Helvetica,sans-Serif" font-size="14.00">0</text>
</g>
<!-- 15 -->
<g id="node8" class="node">
<title>15</title>
<ellipse fill="#8dcc3d" stroke="black" cx="950.69" cy="-418.71" rx="128.89" ry="35.21"/>
<text text-anchor="start" x="911.69" y="-429.51" font-family="Helvetica,sans-Serif" font-weight="bold" font-size="14.00"> Class=1 </text>
<text text-anchor="start" x="984.69" y="-429.51" font-family="Helvetica,sans-Serif" font-size="14.00"> </text>
<text text-anchor="start" x="867.69" y="-415.51" font-family="Helvetica,sans-Serif" font-size="14.00"> error: 0.064, n=11055 </text>
<text text-anchor="start" x="895.69" y="-401.51" font-family="Helvetica,sans-Serif" font-size="14.00"> p: (0.01, 0.99) </text>
</g>
<!-- 4&#45;&gt;15 -->
<g id="edge7" class="edge">
<title>4:s&#45;&gt;15:n</title>
<path fill="none" stroke="black" d="M842.69,-508.71C842.69,-508.71 915.37,-472.37 941.49,-459.31"/>
<polygon fill="black" stroke="black" points="943.31,-462.31 950.69,-454.71 940.18,-456.05 943.31,-462.31"/>
<text text-anchor="middle" x="911.69" y="-479.51" font-family="Helvetica,sans-Serif" font-size="14.00">1</text>
</g>
<!-- 17 -->
<g id="node18" class="node">
<title>17</title>
<ellipse fill="#8dcc3d" stroke="black" cx="1279.69" cy="-418.71" rx="128.89" ry="35.21"/>
<text text-anchor="start" x="1237.69" y="-429.51" font-family="Helvetica,sans-Serif" font-weight="bold" font-size="14.00"> Class=&#45;1 </text>
<text text-anchor="start" x="1316.69" y="-429.51" font-family="Helvetica,sans-Serif" font-size="14.00"> </text>
<text text-anchor="start" x="1196.69" y="-415.51" font-family="Helvetica,sans-Serif" font-size="14.00"> error: 0.000, n=11055 </text>
<text text-anchor="start" x="1224.69" y="-401.51" font-family="Helvetica,sans-Serif" font-size="14.00"> p: (1.00, 0.00) </text>
</g>
<!-- 16&#45;&gt;17 -->
<g id="edge17" class="edge">
<title>16:s&#45;&gt;17:n</title>
<path fill="none" stroke="black" d="M1279.69,-508.71C1279.69,-508.71 1279.69,-480.81 1279.69,-465.12"/>
<polygon fill="black" stroke="black" points="1283.19,-464.71 1279.69,-454.71 1276.19,-464.71 1283.19,-464.71"/>
<text text-anchor="middle" x="1287.19" y="-479.51" font-family="Helvetica,sans-Serif" font-size="14.00">&#45;1</text>
</g>
<!-- 18 -->
<g id="node19" class="node">
<title>18</title>
<polygon fill="#8dcc3d" stroke="black" points="1662.69,-457.71 1480.69,-457.71 1480.69,-379.71 1662.69,-379.71 1662.69,-457.71"/>
<text text-anchor="start" x="1529.69" y="-443.51" font-family="Helvetica,sans-Serif" font-weight="bold" font-size="14.00"> Class=&#45;1 </text>
<text text-anchor="start" x="1608.69" y="-443.51" font-family="Helvetica,sans-Serif" font-size="14.00"> </text>
<text text-anchor="start" x="1488.69" y="-429.51" font-family="Helvetica,sans-Serif" font-size="14.00"> error: 0.844, n=11055 </text>
<text text-anchor="start" x="1516.69" y="-415.51" font-family="Helvetica,sans-Serif" font-size="14.00"> p: (0.73, 0.27) </text>
<text text-anchor="start" x="1537.19" y="-401.51" font-family="Helvetica,sans-Serif" font-size="14.00">&#45;&#45;&#45;&#45;&#45;&#45;&#45;&#45;&#45;&#45;&#45;&#45;&#45;</text>
<text text-anchor="start" x="1520.19" y="-387.51" font-family="Helvetica,sans-Serif" font-weight="bold" font-size="14.00">Links_in_tags</text>
</g>
<!-- 16&#45;&gt;18 -->
<g id="edge18" class="edge">
<title>16:s&#45;&gt;18:n</title>
<path fill="none" stroke="black" d="M1279.69,-508.71C1279.69,-508.71 1510.3,-468.43 1561.64,-459.47"/>
<polygon fill="black" stroke="black" points="1562.44,-462.88 1571.69,-457.71 1561.24,-455.98 1562.44,-462.88"/>
<text text-anchor="middle" x="1465.69" y="-479.51" font-family="Helvetica,sans-Serif" font-size="14.00">0</text>
</g>
<!-- 6 -->
<g id="node9" class="node">
<title>6</title>
<polygon fill="#44e55e" stroke="black" points="403.69,-328.71 221.69,-328.71 221.69,-250.71 403.69,-250.71 403.69,-328.71"/>
<text text-anchor="start" x="273.69" y="-314.51" font-family="Helvetica,sans-Serif" font-weight="bold" font-size="14.00"> Class=1 </text>
<text text-anchor="start" x="346.69" y="-314.51" font-family="Helvetica,sans-Serif" font-size="14.00"> </text>
<text text-anchor="start" x="229.69" y="-300.51" font-family="Helvetica,sans-Serif" font-size="14.00"> error: 0.955, n=11055 </text>
<text text-anchor="start" x="257.69" y="-286.51" font-family="Helvetica,sans-Serif" font-size="14.00"> p: (0.38, 0.62) </text>
<text text-anchor="start" x="267.69" y="-272.51" font-family="Helvetica,sans-Serif" font-size="14.00">&#45;&#45;&#45;&#45;&#45;&#45;&#45;&#45;&#45;&#45;&#45;&#45;&#45;&#45;&#45;&#45;&#45;</text>
<text text-anchor="start" x="235.19" y="-258.51" font-family="Helvetica,sans-Serif" font-weight="bold" font-size="14.00">having_Sub_Domain</text>
</g>
<!-- 5&#45;&gt;6 -->
<g id="edge8" class="edge">
<title>5:s&#45;&gt;6:n</title>
<path fill="none" stroke="black" d="M658.69,-379.71C658.69,-379.71 379.41,-338.54 322.68,-330.18"/>
<polygon fill="black" stroke="black" points="323.1,-326.71 312.69,-328.71 322.08,-333.63 323.1,-326.71"/>
<text text-anchor="middle" x="532.69" y="-350.51" font-family="Helvetica,sans-Serif" font-size="14.00">0</text>
</g>
<!-- 9 -->
<g id="node10" class="node">
<title>9</title>
<polygon fill="#44e55e" stroke="black" points="749.69,-328.71 567.69,-328.71 567.69,-250.71 749.69,-250.71 749.69,-328.71"/>
<text text-anchor="start" x="619.69" y="-314.51" font-family="Helvetica,sans-Serif" font-weight="bold" font-size="14.00"> Class=1 </text>
<text text-anchor="start" x="692.69" y="-314.51" font-family="Helvetica,sans-Serif" font-size="14.00"> </text>
<text text-anchor="start" x="575.69" y="-300.51" font-family="Helvetica,sans-Serif" font-size="14.00"> error: 0.298, n=11055 </text>
<text text-anchor="start" x="603.69" y="-286.51" font-family="Helvetica,sans-Serif" font-size="14.00"> p: (0.05, 0.95) </text>
<text text-anchor="start" x="624.19" y="-272.51" font-family="Helvetica,sans-Serif" font-size="14.00">&#45;&#45;&#45;&#45;&#45;&#45;&#45;&#45;&#45;&#45;&#45;&#45;&#45;</text>
<text text-anchor="start" x="607.19" y="-258.51" font-family="Helvetica,sans-Serif" font-weight="bold" font-size="14.00">Links_in_tags</text>
</g>
<!-- 5&#45;&gt;9 -->
<g id="edge9" class="edge">
<title>5:s&#45;&gt;9:n</title>
<path fill="none" stroke="black" d="M658.69,-379.71C658.69,-379.71 658.69,-353.93 658.69,-339.03"/>
<polygon fill="black" stroke="black" points="662.19,-338.71 658.69,-328.71 655.19,-338.71 662.19,-338.71"/>
<text text-anchor="middle" x="663.69" y="-350.51" font-family="Helvetica,sans-Serif" font-size="14.00">1</text>
</g>
<!-- 14 -->
<g id="node11" class="node">
<title>14</title>
<ellipse fill="#44e55e" stroke="black" cx="950.69" cy="-289.71" rx="128.89" ry="35.21"/>
<text text-anchor="start" x="911.69" y="-300.51" font-family="Helvetica,sans-Serif" font-weight="bold" font-size="14.00"> Class=1 </text>
<text text-anchor="start" x="984.69" y="-300.51" font-family="Helvetica,sans-Serif" font-size="14.00"> </text>
<text text-anchor="start" x="867.69" y="-286.51" font-family="Helvetica,sans-Serif" font-size="14.00"> error: 0.129, n=11055 </text>
<text text-anchor="start" x="895.69" y="-272.51" font-family="Helvetica,sans-Serif" font-size="14.00"> p: (0.02, 0.98) </text>
</g>
<!-- 5&#45;&gt;14 -->
<g id="edge10" class="edge">
<title>5:s&#45;&gt;14:n</title>
<path fill="none" stroke="black" d="M658.69,-379.71C658.69,-379.71 889.3,-337.06 940.64,-327.57"/>
<polygon fill="black" stroke="black" points="941.5,-330.97 950.69,-325.71 940.22,-324.09 941.5,-330.97"/>
<text text-anchor="middle" x="839.19" y="-350.51" font-family="Helvetica,sans-Serif" font-size="14.00">&#45;1</text>
</g>
<!-- 7 -->
<g id="node12" class="node">
<title>7</title>
<polygon fill="#3dccba" stroke="black" points="219.69,-199.71 37.69,-199.71 37.69,-121.71 219.69,-121.71 219.69,-199.71"/>
<text text-anchor="start" x="89.69" y="-185.51" font-family="Helvetica,sans-Serif" font-weight="bold" font-size="14.00"> Class=1 </text>
<text text-anchor="start" x="162.69" y="-185.51" font-family="Helvetica,sans-Serif" font-size="14.00"> </text>
<text text-anchor="start" x="45.69" y="-171.51" font-family="Helvetica,sans-Serif" font-size="14.00"> error: 0.755, n=11055 </text>
<text text-anchor="start" x="73.69" y="-157.51" font-family="Helvetica,sans-Serif" font-size="14.00"> p: (0.22, 0.78) </text>
<text text-anchor="start" x="120.69" y="-143.51" font-family="Helvetica,sans-Serif" font-size="14.00">&#45;&#45;&#45;</text>
<text text-anchor="start" x="112.69" y="-129.51" font-family="Helvetica,sans-Serif" font-weight="bold" font-size="14.00">SFH</text>
</g>
<!-- 6&#45;&gt;7 -->
<g id="edge11" class="edge">
<title>6:s&#45;&gt;7:n</title>
<path fill="none" stroke="black" d="M312.69,-250.71C312.69,-250.71 176.8,-213.05 138.59,-202.45"/>
<polygon fill="black" stroke="black" points="139.27,-199.01 128.69,-199.71 137.4,-205.75 139.27,-199.01"/>
<text text-anchor="middle" x="247.69" y="-221.51" font-family="Helvetica,sans-Serif" font-size="14.00">1</text>
</g>
<!-- 10 -->
<g id="node14" class="node">
<title>10</title>
<ellipse fill="#3dccba" stroke="black" cx="420.69" cy="-160.71" rx="128.89" ry="35.21"/>
<text text-anchor="start" x="381.69" y="-171.51" font-family="Helvetica,sans-Serif" font-weight="bold" font-size="14.00"> Class=1 </text>
<text text-anchor="start" x="454.69" y="-171.51" font-family="Helvetica,sans-Serif" font-size="14.00"> </text>
<text text-anchor="start" x="337.69" y="-157.51" font-family="Helvetica,sans-Serif" font-size="14.00"> error: 0.133, n=11055 </text>
<text text-anchor="start" x="365.69" y="-143.51" font-family="Helvetica,sans-Serif" font-size="14.00"> p: (0.02, 0.98) </text>
</g>
<!-- 9&#45;&gt;10 -->
<g id="edge13" class="edge">
<title>9:s&#45;&gt;10:n</title>
<path fill="none" stroke="black" d="M658.69,-250.71C658.69,-250.71 475.66,-209.18 430.62,-198.96"/>
<polygon fill="black" stroke="black" points="431.22,-195.51 420.69,-196.71 429.67,-202.34 431.22,-195.51"/>
<text text-anchor="middle" x="580.69" y="-221.51" font-family="Helvetica,sans-Serif" font-size="14.00">0</text>
</g>
<!-- 11 -->
<g id="node15" class="node">
<title>11</title>
<ellipse fill="#3dccba" stroke="black" cx="749.69" cy="-160.71" rx="128.89" ry="35.21"/>
<text text-anchor="start" x="710.69" y="-171.51" font-family="Helvetica,sans-Serif" font-weight="bold" font-size="14.00"> Class=1 </text>
<text text-anchor="start" x="783.69" y="-171.51" font-family="Helvetica,sans-Serif" font-size="14.00"> </text>
<text text-anchor="start" x="666.69" y="-157.51" font-family="Helvetica,sans-Serif" font-size="14.00"> error: 0.158, n=11055 </text>
<text text-anchor="start" x="694.69" y="-143.51" font-family="Helvetica,sans-Serif" font-size="14.00"> p: (0.02, 0.98) </text>
</g>
<!-- 9&#45;&gt;11 -->
<g id="edge14" class="edge">
<title>9:s&#45;&gt;11:n</title>
<path fill="none" stroke="black" d="M658.69,-250.71C658.69,-250.71 718.19,-215.4 740.97,-201.89"/>
<polygon fill="black" stroke="black" points="742.88,-204.82 749.69,-196.71 739.31,-198.8 742.88,-204.82"/>
<text text-anchor="middle" x="717.69" y="-221.51" font-family="Helvetica,sans-Serif" font-size="14.00">1</text>
</g>
<!-- 12 -->
<g id="node16" class="node">
<title>12</title>
<polygon fill="#3dccba" stroke="black" points="1132.69,-199.71 950.69,-199.71 950.69,-121.71 1132.69,-121.71 1132.69,-199.71"/>
<text text-anchor="start" x="1002.69" y="-185.51" font-family="Helvetica,sans-Serif" font-weight="bold" font-size="14.00"> Class=1 </text>
<text text-anchor="start" x="1075.69" y="-185.51" font-family="Helvetica,sans-Serif" font-size="14.00"> </text>
<text text-anchor="start" x="958.69" y="-171.51" font-family="Helvetica,sans-Serif" font-size="14.00"> error: 0.571, n=11055 </text>
<text text-anchor="start" x="986.69" y="-157.51" font-family="Helvetica,sans-Serif" font-size="14.00"> p: (0.14, 0.86) </text>
<text text-anchor="start" x="1033.69" y="-143.51" font-family="Helvetica,sans-Serif" font-size="14.00">&#45;&#45;&#45;</text>
<text text-anchor="start" x="1025.69" y="-129.51" font-family="Helvetica,sans-Serif" font-weight="bold" font-size="14.00">SFH</text>
</g>
<!-- 9&#45;&gt;12 -->
<g id="edge15" class="edge">
<title>9:s&#45;&gt;12:n</title>
<path fill="none" stroke="black" d="M658.69,-250.71C658.69,-250.71 970.54,-209.19 1031.45,-201.07"/>
<polygon fill="black" stroke="black" points="1032.24,-204.5 1041.69,-199.71 1031.32,-197.56 1032.24,-204.5"/>
<text text-anchor="middle" x="904.19" y="-221.51" font-family="Helvetica,sans-Serif" font-size="14.00">&#45;1</text>
</g>
<!-- 8 -->
<g id="node13" class="node">
<title>8</title>
<ellipse fill="#4485e5" stroke="black" cx="128.69" cy="-35.36" rx="128.89" ry="35.21"/>
<text text-anchor="start" x="89.69" y="-46.16" font-family="Helvetica,sans-Serif" font-weight="bold" font-size="14.00"> Class=1 </text>
<text text-anchor="start" x="162.69" y="-46.16" font-family="Helvetica,sans-Serif" font-size="14.00"> </text>
<text text-anchor="start" x="45.69" y="-32.16" font-family="Helvetica,sans-Serif" font-size="14.00"> error: 0.828, n=11055 </text>
<text text-anchor="start" x="73.69" y="-18.16" font-family="Helvetica,sans-Serif" font-size="14.00"> p: (0.26, 0.74) </text>
</g>
<!-- 7&#45;&gt;8 -->
<g id="edge12" class="edge">
<title>7:s&#45;&gt;8:n</title>
<path fill="none" stroke="black" d="M128.69,-121.71C128.69,-121.71 128.69,-95.93 128.69,-81.03"/>
<polygon fill="black" stroke="black" points="132.19,-80.71 128.69,-70.71 125.19,-80.71 132.19,-80.71"/>
<text text-anchor="middle" x="136.19" y="-92.51" font-family="Helvetica,sans-Serif" font-size="14.00">&#45;1</text>
</g>
<!-- 13 -->
<g id="node17" class="node">
<title>13</title>
<ellipse fill="#4485e5" stroke="black" cx="1041.69" cy="-35.36" rx="128.89" ry="35.21"/>
<text text-anchor="start" x="1002.69" y="-46.16" font-family="Helvetica,sans-Serif" font-weight="bold" font-size="14.00"> Class=1 </text>
<text text-anchor="start" x="1075.69" y="-46.16" font-family="Helvetica,sans-Serif" font-size="14.00"> </text>
<text text-anchor="start" x="958.69" y="-32.16" font-family="Helvetica,sans-Serif" font-size="14.00"> error: 0.732, n=11055 </text>
<text text-anchor="start" x="986.69" y="-18.16" font-family="Helvetica,sans-Serif" font-size="14.00"> p: (0.21, 0.79) </text>
</g>
<!-- 12&#45;&gt;13 -->
<g id="edge16" class="edge">
<title>12:s&#45;&gt;13:n</title>
<path fill="none" stroke="black" d="M1041.69,-121.71C1041.69,-121.71 1041.69,-95.93 1041.69,-81.03"/>
<polygon fill="black" stroke="black" points="1045.19,-80.71 1041.69,-70.71 1038.19,-80.71 1045.19,-80.71"/>
<text text-anchor="middle" x="1049.19" y="-92.51" font-family="Helvetica,sans-Serif" font-size="14.00">&#45;1</text>
</g>
<!-- 19 -->
<g id="node20" class="node">
<title>19</title>
<polygon fill="#44e55e" stroke="black" points="1569.19,-328.71 1372.19,-328.71 1372.19,-250.71 1569.19,-250.71 1569.19,-328.71"/>
<text text-anchor="start" x="1428.69" y="-314.51" font-family="Helvetica,sans-Serif" font-weight="bold" font-size="14.00"> Class=&#45;1 </text>
<text text-anchor="start" x="1507.69" y="-314.51" font-family="Helvetica,sans-Serif" font-size="14.00"> </text>
<text text-anchor="start" x="1387.69" y="-300.51" font-family="Helvetica,sans-Serif" font-size="14.00"> error: 0.563, n=11055 </text>
<text text-anchor="start" x="1415.69" y="-286.51" font-family="Helvetica,sans-Serif" font-size="14.00"> p: (0.87, 0.13) </text>
<text text-anchor="start" x="1412.69" y="-272.51" font-family="Helvetica,sans-Serif" font-size="14.00">&#45;&#45;&#45;&#45;&#45;&#45;&#45;&#45;&#45;&#45;&#45;&#45;&#45;&#45;&#45;&#45;&#45;&#45;&#45;&#45;&#45;&#45;</text>
<text text-anchor="start" x="1380.19" y="-258.51" font-family="Helvetica,sans-Serif" font-weight="bold" font-size="14.00">Links_pointing_to_page</text>
</g>
<!-- 18&#45;&gt;19 -->
<g id="edge19" class="edge">
<title>18:s&#45;&gt;19:n</title>
<path fill="none" stroke="black" d="M1571.69,-379.71C1571.69,-379.71 1504.37,-345.72 1479.66,-333.24"/>
<polygon fill="black" stroke="black" points="1481.2,-330.09 1470.69,-328.71 1478.04,-336.34 1481.2,-330.09"/>
<text text-anchor="middle" x="1541.19" y="-350.51" font-family="Helvetica,sans-Serif" font-size="14.00">&#45;1</text>
</g>
<!-- 22 -->
<g id="node21" class="node">
<title>22</title>
<ellipse fill="#44e55e" stroke="black" cx="1769.69" cy="-289.71" rx="128.89" ry="35.21"/>
<text text-anchor="start" x="1727.69" y="-300.51" font-family="Helvetica,sans-Serif" font-weight="bold" font-size="14.00"> Class=&#45;1 </text>
<text text-anchor="start" x="1806.69" y="-300.51" font-family="Helvetica,sans-Serif" font-size="14.00"> </text>
<text text-anchor="start" x="1686.69" y="-286.51" font-family="Helvetica,sans-Serif" font-size="14.00"> error: 0.970, n=11055 </text>
<text text-anchor="start" x="1714.69" y="-272.51" font-family="Helvetica,sans-Serif" font-size="14.00"> p: (0.60, 0.40) </text>
</g>
<!-- 18&#45;&gt;22 -->
<g id="edge20" class="edge">
<title>18:s&#45;&gt;22:n</title>
<path fill="none" stroke="black" d="M1571.69,-379.71C1571.69,-379.71 1719.92,-339.28 1759.87,-328.39"/>
<polygon fill="black" stroke="black" points="1760.97,-331.72 1769.69,-325.71 1759.12,-324.97 1760.97,-331.72"/>
<text text-anchor="middle" x="1692.69" y="-350.51" font-family="Helvetica,sans-Serif" font-size="14.00">0</text>
</g>
<!-- 20 -->
<g id="node22" class="node">
<title>20</title>
<polygon fill="#3dccba" stroke="black" points="1561.69,-199.71 1379.69,-199.71 1379.69,-121.71 1561.69,-121.71 1561.69,-199.71"/>
<text text-anchor="start" x="1428.69" y="-185.51" font-family="Helvetica,sans-Serif" font-weight="bold" font-size="14.00"> Class=&#45;1 </text>
<text text-anchor="start" x="1507.69" y="-185.51" font-family="Helvetica,sans-Serif" font-size="14.00"> </text>
<text text-anchor="start" x="1387.69" y="-171.51" font-family="Helvetica,sans-Serif" font-size="14.00"> error: 0.416, n=11055 </text>
<text text-anchor="start" x="1415.69" y="-157.51" font-family="Helvetica,sans-Serif" font-size="14.00"> p: (0.92, 0.08) </text>
<text text-anchor="start" x="1425.69" y="-143.51" font-family="Helvetica,sans-Serif" font-size="14.00">&#45;&#45;&#45;&#45;&#45;&#45;&#45;&#45;&#45;&#45;&#45;&#45;&#45;&#45;&#45;&#45;&#45;</text>
<text text-anchor="start" x="1398.19" y="-129.51" font-family="Helvetica,sans-Serif" font-weight="bold" font-size="14.00">having_IP_Address</text>
</g>
<!-- 19&#45;&gt;20 -->
<g id="edge21" class="edge">
<title>19:s&#45;&gt;20:n</title>
<path fill="none" stroke="black" d="M1470.69,-250.71C1470.69,-250.71 1470.69,-224.93 1470.69,-210.03"/>
<polygon fill="black" stroke="black" points="1474.19,-209.71 1470.69,-199.71 1467.19,-209.71 1474.19,-209.71"/>
<text text-anchor="middle" x="1475.69" y="-221.51" font-family="Helvetica,sans-Serif" font-size="14.00">0</text>
</g>
<!-- 21 -->
<g id="node23" class="node">
<title>21</title>
<ellipse fill="#4485e5" stroke="black" cx="1470.69" cy="-35.36" rx="128.89" ry="35.21"/>
<text text-anchor="start" x="1428.69" y="-46.16" font-family="Helvetica,sans-Serif" font-weight="bold" font-size="14.00"> Class=&#45;1 </text>
<text text-anchor="start" x="1507.69" y="-46.16" font-family="Helvetica,sans-Serif" font-size="14.00"> </text>
<text text-anchor="start" x="1387.69" y="-32.16" font-family="Helvetica,sans-Serif" font-size="14.00"> error: 0.517, n=11055 </text>
<text text-anchor="start" x="1415.69" y="-18.16" font-family="Helvetica,sans-Serif" font-size="14.00"> p: (0.88, 0.12) </text>
</g>
<!-- 20&#45;&gt;21 -->
<g id="edge22" class="edge">
<title>20:s&#45;&gt;21:n</title>
<path fill="none" stroke="black" d="M1470.69,-121.71C1470.69,-121.71 1470.69,-95.93 1470.69,-81.03"/>
<polygon fill="black" stroke="black" points="1474.19,-80.71 1470.69,-70.71 1467.19,-80.71 1474.19,-80.71"/>
<text text-anchor="middle" x="1475.69" y="-92.51" font-family="Helvetica,sans-Serif" font-size="14.00">1</text>
</g>
</g>
</svg>
