<?xml version="1.0" encoding="UTF-8" standalone="no"?>
<!DOCTYPE svg PUBLIC "-//W3C//DTD SVG 1.1//EN"
 "http://www.w3.org/Graphics/SVG/1.1/DTD/svg11.dtd">
<!-- Generated by graphviz version 2.43.0 (0)
 -->
<!-- Title: Tree Pages: 1 -->
<svg width="1208pt" height="696pt"
 viewBox="0.00 0.00 1207.66 695.71" xmlns="http://www.w3.org/2000/svg" xmlns:xlink="http://www.w3.org/1999/xlink">
<g id="graph0" class="graph" transform="scale(1 1) rotate(0) translate(18 677.71)">
<title>Tree</title>
<polygon fill="white" stroke="transparent" points="-18,18 -18,-677.71 1189.66,-677.71 1189.66,18 -18,18"/>
<!-- 0 -->
<g id="node1" class="node">
<title>0</title>
<polygon fill="white" stroke="transparent" points="606.33,-659.71 552.33,-659.71 552.33,-623.71 606.33,-623.71 606.33,-659.71"/>
<text text-anchor="middle" x="579.33" y="-638.01" font-family="Helvetica,sans-Serif" font-size="14.00">0</text>
</g>
<!-- 1 -->
<g id="node2" class="node">
<title>1</title>
<polygon fill="#cc3d3d" stroke="black" points="665.83,-586.71 492.83,-586.71 492.83,-508.71 665.83,-508.71 665.83,-586.71"/>
<text text-anchor="start" x="540.33" y="-572.51" font-family="Helvetica,sans-Serif" font-weight="bold" font-size="14.00"> Class=1 </text>
<text text-anchor="start" x="613.33" y="-572.51" font-family="Helvetica,sans-Serif" font-size="14.00"> </text>
<text text-anchor="start" x="500.83" y="-558.51" font-family="Helvetica,sans-Serif" font-size="14.00"> error: 0.873, n=5404 </text>
<text text-anchor="start" x="524.33" y="-544.51" font-family="Helvetica,sans-Serif" font-size="14.00"> p: (0.71, 0.29) </text>
<text text-anchor="start" x="573.83" y="-530.51" font-family="Helvetica,sans-Serif" font-size="14.00">&#45;&#45;</text>
<text text-anchor="start" x="568.83" y="-516.51" font-family="Helvetica,sans-Serif" font-weight="bold" font-size="14.00">V4</text>
</g>
<!-- 0&#45;&gt;1 -->
<!-- 2 -->
<g id="node3" class="node">
<title>2</title>
<polygon fill="#e5d544" stroke="black" points="525.83,-457.71 352.83,-457.71 352.83,-379.71 525.83,-379.71 525.83,-457.71"/>
<text text-anchor="start" x="400.33" y="-443.51" font-family="Helvetica,sans-Serif" font-weight="bold" font-size="14.00"> Class=1 </text>
<text text-anchor="start" x="473.33" y="-443.51" font-family="Helvetica,sans-Serif" font-size="14.00"> </text>
<text text-anchor="start" x="360.83" y="-429.51" font-family="Helvetica,sans-Serif" font-size="14.00"> error: 0.994, n=5404 </text>
<text text-anchor="start" x="384.33" y="-415.51" font-family="Helvetica,sans-Serif" font-size="14.00"> p: (0.55, 0.45) </text>
<text text-anchor="start" x="433.83" y="-401.51" font-family="Helvetica,sans-Serif" font-size="14.00">&#45;&#45;</text>
<text text-anchor="start" x="428.83" y="-387.51" font-family="Helvetica,sans-Serif" font-weight="bold" font-size="14.00">V4</text>
</g>
<!-- 1&#45;&gt;2 -->
<g id="edge2" class="edge">
<title>1:s&#45;&gt;2:n</title>
<path fill="none" stroke="black" d="M579.33,-508.71C579.33,-508.71 480.58,-472.74 448.95,-461.22"/>
<polygon fill="black" stroke="black" points="449.92,-457.84 439.33,-457.71 447.53,-464.42 449.92,-457.84"/>
<text text-anchor="middle" x="561.33" y="-479.51" font-family="Helvetica,sans-Serif" font-size="14.00">&gt; &#45;0.1416</text>
</g>
<!-- 5 -->
<g id="node4" class="node">
<title>5</title>
<polygon fill="#e5d544" stroke="black" points="806.83,-457.71 633.83,-457.71 633.83,-379.71 806.83,-379.71 806.83,-457.71"/>
<text text-anchor="start" x="681.33" y="-443.51" font-family="Helvetica,sans-Serif" font-weight="bold" font-size="14.00"> Class=1 </text>
<text text-anchor="start" x="754.33" y="-443.51" font-family="Helvetica,sans-Serif" font-size="14.00"> </text>
<text text-anchor="start" x="641.83" y="-429.51" font-family="Helvetica,sans-Serif" font-size="14.00"> error: 0.568, n=5404 </text>
<text text-anchor="start" x="665.33" y="-415.51" font-family="Helvetica,sans-Serif" font-size="14.00"> p: (0.87, 0.13) </text>
<text text-anchor="start" x="714.83" y="-401.51" font-family="Helvetica,sans-Serif" font-size="14.00">&#45;&#45;</text>
<text text-anchor="start" x="709.83" y="-387.51" font-family="Helvetica,sans-Serif" font-weight="bold" font-size="14.00">V4</text>
</g>
<!-- 1&#45;&gt;5 -->
<g id="edge3" class="edge">
<title>1:s&#45;&gt;5:n</title>
<path fill="none" stroke="black" d="M579.33,-508.71C579.33,-508.71 678.78,-472.74 710.64,-461.22"/>
<polygon fill="black" stroke="black" points="712.12,-464.4 720.33,-457.71 709.74,-457.82 712.12,-464.4"/>
<text text-anchor="middle" x="709.33" y="-479.51" font-family="Helvetica,sans-Serif" font-size="14.00">&lt;= &#45;0.1416</text>
</g>
<!-- 3 -->
<g id="node5" class="node">
<title>3</title>
<ellipse fill="#59cc3d" stroke="black" cx="122.33" cy="-289.71" rx="122.16" ry="35.21"/>
<text text-anchor="start" x="83.33" y="-300.51" font-family="Helvetica,sans-Serif" font-weight="bold" font-size="14.00"> Class=1 </text>
<text text-anchor="start" x="156.33" y="-300.51" font-family="Helvetica,sans-Serif" font-size="14.00"> </text>
<text text-anchor="start" x="43.83" y="-286.51" font-family="Helvetica,sans-Serif" font-size="14.00"> error: 0.538, n=5404 </text>
<text text-anchor="start" x="67.33" y="-272.51" font-family="Helvetica,sans-Serif" font-size="14.00"> p: (0.88, 0.12) </text>
</g>
<!-- 2&#45;&gt;3 -->
<g id="edge4" class="edge">
<title>2:s&#45;&gt;3:n</title>
<path fill="none" stroke="black" d="M439.33,-379.71C439.33,-379.71 186.78,-337.49 132.52,-328.41"/>
<polygon fill="black" stroke="black" points="132.77,-324.91 122.33,-326.71 131.62,-331.81 132.77,-324.91"/>
<text text-anchor="middle" x="367.83" y="-350.51" font-family="Helvetica,sans-Serif" font-size="14.00">&lt;= 0.2267</text>
</g>
<!-- 4 -->
<g id="node6" class="node">
<title>4</title>
<ellipse fill="#59cc3d" stroke="black" cx="439.33" cy="-289.71" rx="122.16" ry="35.21"/>
<text text-anchor="start" x="400.33" y="-300.51" font-family="Helvetica,sans-Serif" font-weight="bold" font-size="14.00"> Class=2 </text>
<text text-anchor="start" x="473.33" y="-300.51" font-family="Helvetica,sans-Serif" font-size="14.00"> </text>
<text text-anchor="start" x="360.83" y="-286.51" font-family="Helvetica,sans-Serif" font-size="14.00"> error: 0.988, n=5404 </text>
<text text-anchor="start" x="384.33" y="-272.51" font-family="Helvetica,sans-Serif" font-size="14.00"> p: (0.44, 0.56) </text>
</g>
<!-- 2&#45;&gt;4 -->
<g id="edge5" class="edge">
<title>2:s&#45;&gt;4:n</title>
<path fill="none" stroke="black" d="M439.33,-379.71C439.33,-379.71 439.33,-352.33 439.33,-336.93"/>
<polygon fill="black" stroke="black" points="442.83,-336.71 439.33,-326.71 435.83,-336.71 442.83,-336.71"/>
<text text-anchor="middle" x="472.83" y="-350.51" font-family="Helvetica,sans-Serif" font-size="14.00">&gt; 0.2267</text>
</g>
<!-- 6 -->
<g id="node7" class="node">
<title>6</title>
<polygon fill="#59cc3d" stroke="black" points="806.83,-328.71 633.83,-328.71 633.83,-250.71 806.83,-250.71 806.83,-328.71"/>
<text text-anchor="start" x="681.33" y="-314.51" font-family="Helvetica,sans-Serif" font-weight="bold" font-size="14.00"> Class=1 </text>
<text text-anchor="start" x="754.33" y="-314.51" font-family="Helvetica,sans-Serif" font-size="14.00"> </text>
<text text-anchor="start" x="641.83" y="-300.51" font-family="Helvetica,sans-Serif" font-size="14.00"> error: 0.823, n=5404 </text>
<text text-anchor="start" x="665.33" y="-286.51" font-family="Helvetica,sans-Serif" font-size="14.00"> p: (0.74, 0.26) </text>
<text text-anchor="start" x="714.83" y="-272.51" font-family="Helvetica,sans-Serif" font-size="14.00">&#45;&#45;</text>
<text text-anchor="start" x="709.83" y="-258.51" font-family="Helvetica,sans-Serif" font-weight="bold" font-size="14.00">V2</text>
</g>
<!-- 5&#45;&gt;6 -->
<g id="edge6" class="edge">
<title>5:s&#45;&gt;6:n</title>
<path fill="none" stroke="black" d="M720.33,-379.71C720.33,-379.71 720.33,-353.93 720.33,-339.03"/>
<polygon fill="black" stroke="black" points="723.83,-338.71 720.33,-328.71 716.83,-338.71 723.83,-338.71"/>
<text text-anchor="middle" x="762.33" y="-350.51" font-family="Helvetica,sans-Serif" font-size="14.00">&lt;= &#45;0.7625</text>
</g>
<!-- 11 -->
<g id="node8" class="node">
<title>11</title>
<ellipse fill="#59cc3d" stroke="black" cx="1001.33" cy="-289.71" rx="122.16" ry="35.21"/>
<text text-anchor="start" x="962.33" y="-300.51" font-family="Helvetica,sans-Serif" font-weight="bold" font-size="14.00"> Class=1 </text>
<text text-anchor="start" x="1035.33" y="-300.51" font-family="Helvetica,sans-Serif" font-size="14.00"> </text>
<text text-anchor="start" x="922.83" y="-286.51" font-family="Helvetica,sans-Serif" font-size="14.00"> error: 0.092, n=5404 </text>
<text text-anchor="start" x="946.33" y="-272.51" font-family="Helvetica,sans-Serif" font-size="14.00"> p: (0.99, 0.01) </text>
</g>
<!-- 5&#45;&gt;11 -->
<g id="edge7" class="edge">
<title>5:s&#45;&gt;11:n</title>
<path fill="none" stroke="black" d="M720.33,-379.71C720.33,-379.71 941.27,-338.04 991.33,-328.6"/>
<polygon fill="black" stroke="black" points="992.15,-332 1001.33,-326.71 990.85,-325.12 992.15,-332"/>
<text text-anchor="middle" x="932.33" y="-350.51" font-family="Helvetica,sans-Serif" font-size="14.00">&gt; &#45;0.7625</text>
</g>
<!-- 7 -->
<g id="node9" class="node">
<title>7</title>
<ellipse fill="#44e5b5" stroke="black" cx="610.33" cy="-160.71" rx="122.16" ry="35.21"/>
<text text-anchor="start" x="571.33" y="-171.51" font-family="Helvetica,sans-Serif" font-weight="bold" font-size="14.00"> Class=1 </text>
<text text-anchor="start" x="644.33" y="-171.51" font-family="Helvetica,sans-Serif" font-size="14.00"> </text>
<text text-anchor="start" x="531.83" y="-157.51" font-family="Helvetica,sans-Serif" font-size="14.00"> error: 0.994, n=5404 </text>
<text text-anchor="start" x="555.33" y="-143.51" font-family="Helvetica,sans-Serif" font-size="14.00"> p: (0.54, 0.46) </text>
</g>
<!-- 6&#45;&gt;7 -->
<g id="edge8" class="edge">
<title>6:s&#45;&gt;7:n</title>
<path fill="none" stroke="black" d="M720.33,-250.71C720.33,-250.71 646.31,-215.05 619.71,-202.23"/>
<polygon fill="black" stroke="black" points="620.86,-198.9 610.33,-197.71 617.82,-205.2 620.86,-198.9"/>
<text text-anchor="middle" x="699.33" y="-221.51" font-family="Helvetica,sans-Serif" font-size="14.00">&lt;= &#45;0.4761</text>
</g>
<!-- 8 -->
<g id="node10" class="node">
<title>8</title>
<polygon fill="#44e5b5" stroke="black" points="977.83,-199.71 804.83,-199.71 804.83,-121.71 977.83,-121.71 977.83,-199.71"/>
<text text-anchor="start" x="852.33" y="-185.51" font-family="Helvetica,sans-Serif" font-weight="bold" font-size="14.00"> Class=1 </text>
<text text-anchor="start" x="925.33" y="-185.51" font-family="Helvetica,sans-Serif" font-size="14.00"> </text>
<text text-anchor="start" x="812.83" y="-171.51" font-family="Helvetica,sans-Serif" font-size="14.00"> error: 0.703, n=5404 </text>
<text text-anchor="start" x="836.33" y="-157.51" font-family="Helvetica,sans-Serif" font-size="14.00"> p: (0.81, 0.19) </text>
<text text-anchor="start" x="885.83" y="-143.51" font-family="Helvetica,sans-Serif" font-size="14.00">&#45;&#45;</text>
<text text-anchor="start" x="880.83" y="-129.51" font-family="Helvetica,sans-Serif" font-weight="bold" font-size="14.00">V1</text>
</g>
<!-- 6&#45;&gt;8 -->
<g id="edge9" class="edge">
<title>6:s&#45;&gt;8:n</title>
<path fill="none" stroke="black" d="M720.33,-250.71C720.33,-250.71 845.47,-213.39 881.65,-202.6"/>
<polygon fill="black" stroke="black" points="882.75,-205.92 891.33,-199.71 880.75,-199.21 882.75,-205.92"/>
<text text-anchor="middle" x="862.33" y="-221.51" font-family="Helvetica,sans-Serif" font-size="14.00">&gt; &#45;0.4761</text>
</g>
<!-- 9 -->
<g id="node11" class="node">
<title>9</title>
<ellipse fill="#3d76cc" stroke="black" cx="732.33" cy="-35.36" rx="122.16" ry="35.21"/>
<text text-anchor="start" x="693.33" y="-46.16" font-family="Helvetica,sans-Serif" font-weight="bold" font-size="14.00"> Class=1 </text>
<text text-anchor="start" x="766.33" y="-46.16" font-family="Helvetica,sans-Serif" font-size="14.00"> </text>
<text text-anchor="start" x="653.83" y="-32.16" font-family="Helvetica,sans-Serif" font-size="14.00"> error: 0.462, n=5404 </text>
<text text-anchor="start" x="677.33" y="-18.16" font-family="Helvetica,sans-Serif" font-size="14.00"> p: (0.90, 0.10) </text>
</g>
<!-- 8&#45;&gt;9 -->
<g id="edge10" class="edge">
<title>8:s&#45;&gt;9:n</title>
<path fill="none" stroke="black" d="M891.33,-121.71C891.33,-121.71 777.08,-85.07 742.28,-73.9"/>
<polygon fill="black" stroke="black" points="742.92,-70.43 732.33,-70.71 740.78,-77.1 742.92,-70.43"/>
<text text-anchor="middle" x="873.33" y="-92.51" font-family="Helvetica,sans-Serif" font-size="14.00">&lt;= &#45;0.4705</text>
</g>
<!-- 10 -->
<g id="node12" class="node">
<title>10</title>
<ellipse fill="#3d76cc" stroke="black" cx="1049.33" cy="-35.36" rx="122.16" ry="35.21"/>
<text text-anchor="start" x="1010.33" y="-46.16" font-family="Helvetica,sans-Serif" font-weight="bold" font-size="14.00"> Class=1 </text>
<text text-anchor="start" x="1083.33" y="-46.16" font-family="Helvetica,sans-Serif" font-size="14.00"> </text>
<text text-anchor="start" x="970.83" y="-32.16" font-family="Helvetica,sans-Serif" font-size="14.00"> error: 0.860, n=5404 </text>
<text text-anchor="start" x="994.33" y="-18.16" font-family="Helvetica,sans-Serif" font-size="14.00"> p: (0.72, 0.28) </text>
</g>
<!-- 8&#45;&gt;10 -->
<g id="edge11" class="edge">
<title>8:s&#45;&gt;10:n</title>
<path fill="none" stroke="black" d="M891.33,-121.71C891.33,-121.71 1004.86,-85.07 1039.45,-73.9"/>
<polygon fill="black" stroke="black" points="1040.89,-77.11 1049.33,-70.71 1038.74,-70.45 1040.89,-77.11"/>
<text text-anchor="middle" x="1025.33" y="-92.51" font-family="Helvetica,sans-Serif" font-size="14.00">&gt; &#45;0.4705</text>
</g>
</g>
</svg>
