<?xml version="1.0" encoding="UTF-8" standalone="no"?>
<!DOCTYPE svg PUBLIC "-//W3C//DTD SVG 1.1//EN"
 "http://www.w3.org/Graphics/SVG/1.1/DTD/svg11.dtd">
<!-- Generated by graphviz version 2.43.0 (0)
 -->
<!-- Title: Tree Pages: 1 -->
<svg width="1555pt" height="696pt"
 viewBox="0.00 0.00 1554.66 695.71" xmlns="http://www.w3.org/2000/svg" xmlns:xlink="http://www.w3.org/1999/xlink">
<g id="graph0" class="graph" transform="scale(1 1) rotate(0) translate(18 677.71)">
<title>Tree</title>
<polygon fill="white" stroke="transparent" points="-18,18 -18,-677.71 1536.66,-677.71 1536.66,18 -18,18"/>
<!-- 0 -->
<g id="node1" class="node">
<title>0</title>
<polygon fill="white" stroke="transparent" points="775.33,-659.71 721.33,-659.71 721.33,-623.71 775.33,-623.71 775.33,-659.71"/>
<text text-anchor="middle" x="748.33" y="-638.01" font-family="Helvetica,sans-Serif" font-size="14.00">0</text>
</g>
<!-- 1 -->
<g id="node2" class="node">
<title>1</title>
<polygon fill="#cc3d3d" stroke="black" points="834.83,-586.71 661.83,-586.71 661.83,-508.71 834.83,-508.71 834.83,-586.71"/>
<text text-anchor="start" x="709.33" y="-572.51" font-family="Helvetica,sans-Serif" font-weight="bold" font-size="14.00"> Class=1 </text>
<text text-anchor="start" x="782.33" y="-572.51" font-family="Helvetica,sans-Serif" font-size="14.00"> </text>
<text text-anchor="start" x="669.83" y="-558.51" font-family="Helvetica,sans-Serif" font-size="14.00"> error: 0.873, n=5404 </text>
<text text-anchor="start" x="693.33" y="-544.51" font-family="Helvetica,sans-Serif" font-size="14.00"> p: (0.71, 0.29) </text>
<text text-anchor="start" x="742.83" y="-530.51" font-family="Helvetica,sans-Serif" font-size="14.00">&#45;&#45;</text>
<text text-anchor="start" x="737.83" y="-516.51" font-family="Helvetica,sans-Serif" font-weight="bold" font-size="14.00">V4</text>
</g>
<!-- 0&#45;&gt;1 -->
<!-- 2 -->
<g id="node3" class="node">
<title>2</title>
<polygon fill="#e5d544" stroke="black" points="694.83,-457.71 521.83,-457.71 521.83,-379.71 694.83,-379.71 694.83,-457.71"/>
<text text-anchor="start" x="569.33" y="-443.51" font-family="Helvetica,sans-Serif" font-weight="bold" font-size="14.00"> Class=1 </text>
<text text-anchor="start" x="642.33" y="-443.51" font-family="Helvetica,sans-Serif" font-size="14.00"> </text>
<text text-anchor="start" x="529.83" y="-429.51" font-family="Helvetica,sans-Serif" font-size="14.00"> error: 0.994, n=5404 </text>
<text text-anchor="start" x="553.33" y="-415.51" font-family="Helvetica,sans-Serif" font-size="14.00"> p: (0.55, 0.45) </text>
<text text-anchor="start" x="602.83" y="-401.51" font-family="Helvetica,sans-Serif" font-size="14.00">&#45;&#45;</text>
<text text-anchor="start" x="597.83" y="-387.51" font-family="Helvetica,sans-Serif" font-weight="bold" font-size="14.00">V4</text>
</g>
<!-- 1&#45;&gt;2 -->
<g id="edge2" class="edge">
<title>1:s&#45;&gt;2:n</title>
<path fill="none" stroke="black" d="M748.33,-508.71C748.33,-508.71 649.58,-472.74 617.95,-461.22"/>
<polygon fill="black" stroke="black" points="618.92,-457.84 608.33,-457.71 616.53,-464.42 618.92,-457.84"/>
<text text-anchor="middle" x="730.33" y="-479.51" font-family="Helvetica,sans-Serif" font-size="14.00">&gt; &#45;0.1416</text>
</g>
<!-- 8 -->
<g id="node4" class="node">
<title>8</title>
<polygon fill="#e5d544" stroke="black" points="975.83,-457.71 802.83,-457.71 802.83,-379.71 975.83,-379.71 975.83,-457.71"/>
<text text-anchor="start" x="850.33" y="-443.51" font-family="Helvetica,sans-Serif" font-weight="bold" font-size="14.00"> Class=1 </text>
<text text-anchor="start" x="923.33" y="-443.51" font-family="Helvetica,sans-Serif" font-size="14.00"> </text>
<text text-anchor="start" x="810.83" y="-429.51" font-family="Helvetica,sans-Serif" font-size="14.00"> error: 0.568, n=5404 </text>
<text text-anchor="start" x="834.33" y="-415.51" font-family="Helvetica,sans-Serif" font-size="14.00"> p: (0.87, 0.13) </text>
<text text-anchor="start" x="883.83" y="-401.51" font-family="Helvetica,sans-Serif" font-size="14.00">&#45;&#45;</text>
<text text-anchor="start" x="878.83" y="-387.51" font-family="Helvetica,sans-Serif" font-weight="bold" font-size="14.00">V4</text>
</g>
<!-- 1&#45;&gt;8 -->
<g id="edge3" class="edge">
<title>1:s&#45;&gt;8:n</title>
<path fill="none" stroke="black" d="M748.33,-508.71C748.33,-508.71 847.78,-472.74 879.64,-461.22"/>
<polygon fill="black" stroke="black" points="881.12,-464.4 889.33,-457.71 878.74,-457.82 881.12,-464.4"/>
<text text-anchor="middle" x="878.33" y="-479.51" font-family="Helvetica,sans-Serif" font-size="14.00">&lt;= &#45;0.1416</text>
</g>
<!-- 3 -->
<g id="node5" class="node">
<title>3</title>
<polygon fill="#59cc3d" stroke="black" points="413.83,-328.71 240.83,-328.71 240.83,-250.71 413.83,-250.71 413.83,-328.71"/>
<text text-anchor="start" x="288.33" y="-314.51" font-family="Helvetica,sans-Serif" font-weight="bold" font-size="14.00"> Class=1 </text>
<text text-anchor="start" x="361.33" y="-314.51" font-family="Helvetica,sans-Serif" font-size="14.00"> </text>
<text text-anchor="start" x="248.83" y="-300.51" font-family="Helvetica,sans-Serif" font-size="14.00"> error: 0.538, n=5404 </text>
<text text-anchor="start" x="272.33" y="-286.51" font-family="Helvetica,sans-Serif" font-size="14.00"> p: (0.88, 0.12) </text>
<text text-anchor="start" x="321.83" y="-272.51" font-family="Helvetica,sans-Serif" font-size="14.00">&#45;&#45;</text>
<text text-anchor="start" x="316.83" y="-258.51" font-family="Helvetica,sans-Serif" font-weight="bold" font-size="14.00">V4</text>
</g>
<!-- 2&#45;&gt;3 -->
<g id="edge4" class="edge">
<title>2:s&#45;&gt;3:n</title>
<path fill="none" stroke="black" d="M608.33,-379.71C608.33,-379.71 387.39,-339.61 337.33,-330.53"/>
<polygon fill="black" stroke="black" points="337.79,-327.05 327.33,-328.71 336.54,-333.94 337.79,-327.05"/>
<text text-anchor="middle" x="540.83" y="-350.51" font-family="Helvetica,sans-Serif" font-size="14.00">&lt;= 0.2267</text>
</g>
<!-- 7 -->
<g id="node6" class="node">
<title>7</title>
<ellipse fill="#59cc3d" stroke="black" cx="608.33" cy="-289.71" rx="122.16" ry="35.21"/>
<text text-anchor="start" x="569.33" y="-300.51" font-family="Helvetica,sans-Serif" font-weight="bold" font-size="14.00"> Class=2 </text>
<text text-anchor="start" x="642.33" y="-300.51" font-family="Helvetica,sans-Serif" font-size="14.00"> </text>
<text text-anchor="start" x="529.83" y="-286.51" font-family="Helvetica,sans-Serif" font-size="14.00"> error: 0.988, n=5404 </text>
<text text-anchor="start" x="553.33" y="-272.51" font-family="Helvetica,sans-Serif" font-size="14.00"> p: (0.44, 0.56) </text>
</g>
<!-- 2&#45;&gt;7 -->
<g id="edge5" class="edge">
<title>2:s&#45;&gt;7:n</title>
<path fill="none" stroke="black" d="M608.33,-379.71C608.33,-379.71 608.33,-352.33 608.33,-336.93"/>
<polygon fill="black" stroke="black" points="611.83,-336.71 608.33,-326.71 604.83,-336.71 611.83,-336.71"/>
<text text-anchor="middle" x="641.83" y="-350.51" font-family="Helvetica,sans-Serif" font-size="14.00">&gt; 0.2267</text>
</g>
<!-- 9 -->
<g id="node10" class="node">
<title>9</title>
<polygon fill="#59cc3d" stroke="black" points="975.83,-328.71 802.83,-328.71 802.83,-250.71 975.83,-250.71 975.83,-328.71"/>
<text text-anchor="start" x="850.33" y="-314.51" font-family="Helvetica,sans-Serif" font-weight="bold" font-size="14.00"> Class=1 </text>
<text text-anchor="start" x="923.33" y="-314.51" font-family="Helvetica,sans-Serif" font-size="14.00"> </text>
<text text-anchor="start" x="810.83" y="-300.51" font-family="Helvetica,sans-Serif" font-size="14.00"> error: 0.823, n=5404 </text>
<text text-anchor="start" x="834.33" y="-286.51" font-family="Helvetica,sans-Serif" font-size="14.00"> p: (0.74, 0.26) </text>
<text text-anchor="start" x="883.83" y="-272.51" font-family="Helvetica,sans-Serif" font-size="14.00">&#45;&#45;</text>
<text text-anchor="start" x="878.83" y="-258.51" font-family="Helvetica,sans-Serif" font-weight="bold" font-size="14.00">V2</text>
</g>
<!-- 8&#45;&gt;9 -->
<g id="edge9" class="edge">
<title>8:s&#45;&gt;9:n</title>
<path fill="none" stroke="black" d="M889.33,-379.71C889.33,-379.71 889.33,-353.93 889.33,-339.03"/>
<polygon fill="black" stroke="black" points="892.83,-338.71 889.33,-328.71 885.83,-338.71 892.83,-338.71"/>
<text text-anchor="middle" x="931.33" y="-350.51" font-family="Helvetica,sans-Serif" font-size="14.00">&lt;= &#45;0.7625</text>
</g>
<!-- 15 -->
<g id="node11" class="node">
<title>15</title>
<ellipse fill="#59cc3d" stroke="black" cx="1170.33" cy="-289.71" rx="122.16" ry="35.21"/>
<text text-anchor="start" x="1131.33" y="-300.51" font-family="Helvetica,sans-Serif" font-weight="bold" font-size="14.00"> Class=1 </text>
<text text-anchor="start" x="1204.33" y="-300.51" font-family="Helvetica,sans-Serif" font-size="14.00"> </text>
<text text-anchor="start" x="1091.83" y="-286.51" font-family="Helvetica,sans-Serif" font-size="14.00"> error: 0.092, n=5404 </text>
<text text-anchor="start" x="1115.33" y="-272.51" font-family="Helvetica,sans-Serif" font-size="14.00"> p: (0.99, 0.01) </text>
</g>
<!-- 8&#45;&gt;15 -->
<g id="edge10" class="edge">
<title>8:s&#45;&gt;15:n</title>
<path fill="none" stroke="black" d="M889.33,-379.71C889.33,-379.71 1110.27,-338.04 1160.33,-328.6"/>
<polygon fill="black" stroke="black" points="1161.15,-332 1170.33,-326.71 1159.85,-325.12 1161.15,-332"/>
<text text-anchor="middle" x="1101.33" y="-350.51" font-family="Helvetica,sans-Serif" font-size="14.00">&gt; &#45;0.7625</text>
</g>
<!-- 4 -->
<g id="node7" class="node">
<title>4</title>
<ellipse fill="#44e5b5" stroke="black" cx="122.33" cy="-160.71" rx="122.16" ry="35.21"/>
<text text-anchor="start" x="83.33" y="-171.51" font-family="Helvetica,sans-Serif" font-weight="bold" font-size="14.00"> Class=1 </text>
<text text-anchor="start" x="156.33" y="-171.51" font-family="Helvetica,sans-Serif" font-size="14.00"> </text>
<text text-anchor="start" x="43.83" y="-157.51" font-family="Helvetica,sans-Serif" font-size="14.00"> error: 0.162, n=5404 </text>
<text text-anchor="start" x="67.33" y="-143.51" font-family="Helvetica,sans-Serif" font-size="14.00"> p: (0.98, 0.02) </text>
</g>
<!-- 3&#45;&gt;4 -->
<g id="edge6" class="edge">
<title>3:s&#45;&gt;4:n</title>
<path fill="none" stroke="black" d="M327.33,-250.71C327.33,-250.71 173.17,-210.85 132.22,-200.27"/>
<polygon fill="black" stroke="black" points="132.89,-196.83 122.33,-197.71 131.14,-203.6 132.89,-196.83"/>
<text text-anchor="middle" x="296.33" y="-221.51" font-family="Helvetica,sans-Serif" font-size="14.00">&lt;= &#45;0.0695</text>
</g>
<!-- 5 -->
<g id="node8" class="node">
<title>5</title>
<polygon fill="#44e5b5" stroke="black" points="489.83,-199.71 316.83,-199.71 316.83,-121.71 489.83,-121.71 489.83,-199.71"/>
<text text-anchor="start" x="364.33" y="-185.51" font-family="Helvetica,sans-Serif" font-weight="bold" font-size="14.00"> Class=1 </text>
<text text-anchor="start" x="437.33" y="-185.51" font-family="Helvetica,sans-Serif" font-size="14.00"> </text>
<text text-anchor="start" x="324.83" y="-171.51" font-family="Helvetica,sans-Serif" font-size="14.00"> error: 0.625, n=5404 </text>
<text text-anchor="start" x="348.33" y="-157.51" font-family="Helvetica,sans-Serif" font-size="14.00"> p: (0.84, 0.16) </text>
<text text-anchor="start" x="397.83" y="-143.51" font-family="Helvetica,sans-Serif" font-size="14.00">&#45;&#45;</text>
<text text-anchor="start" x="392.83" y="-129.51" font-family="Helvetica,sans-Serif" font-weight="bold" font-size="14.00">V5</text>
</g>
<!-- 3&#45;&gt;5 -->
<g id="edge7" class="edge">
<title>3:s&#45;&gt;5:n</title>
<path fill="none" stroke="black" d="M327.33,-250.71C327.33,-250.71 375.12,-218.64 394.91,-205.36"/>
<polygon fill="black" stroke="black" points="396.98,-208.19 403.33,-199.71 393.08,-202.38 396.98,-208.19"/>
<text text-anchor="middle" x="411.33" y="-221.51" font-family="Helvetica,sans-Serif" font-size="14.00">&gt; &#45;0.0695</text>
</g>
<!-- 6 -->
<g id="node9" class="node">
<title>6</title>
<ellipse fill="#3d76cc" stroke="black" cx="403.33" cy="-35.36" rx="122.16" ry="35.21"/>
<text text-anchor="start" x="364.33" y="-46.16" font-family="Helvetica,sans-Serif" font-weight="bold" font-size="14.00"> Class=1 </text>
<text text-anchor="start" x="437.33" y="-46.16" font-family="Helvetica,sans-Serif" font-size="14.00"> </text>
<text text-anchor="start" x="324.83" y="-32.16" font-family="Helvetica,sans-Serif" font-size="14.00"> error: 0.517, n=5404 </text>
<text text-anchor="start" x="348.33" y="-18.16" font-family="Helvetica,sans-Serif" font-size="14.00"> p: (0.88, 0.12) </text>
</g>
<!-- 5&#45;&gt;6 -->
<g id="edge8" class="edge">
<title>5:s&#45;&gt;6:n</title>
<path fill="none" stroke="black" d="M403.33,-121.71C403.33,-121.71 403.33,-95.93 403.33,-81.03"/>
<polygon fill="black" stroke="black" points="406.83,-80.71 403.33,-70.71 399.83,-80.71 406.83,-80.71"/>
<text text-anchor="middle" x="442.83" y="-92.51" font-family="Helvetica,sans-Serif" font-size="14.00">&lt;= 0.6413</text>
</g>
<!-- 10 -->
<g id="node12" class="node">
<title>10</title>
<polygon fill="#44e5b5" stroke="black" points="884.83,-199.71 711.83,-199.71 711.83,-121.71 884.83,-121.71 884.83,-199.71"/>
<text text-anchor="start" x="759.33" y="-185.51" font-family="Helvetica,sans-Serif" font-weight="bold" font-size="14.00"> Class=1 </text>
<text text-anchor="start" x="832.33" y="-185.51" font-family="Helvetica,sans-Serif" font-size="14.00"> </text>
<text text-anchor="start" x="719.83" y="-171.51" font-family="Helvetica,sans-Serif" font-size="14.00"> error: 0.994, n=5404 </text>
<text text-anchor="start" x="743.33" y="-157.51" font-family="Helvetica,sans-Serif" font-size="14.00"> p: (0.54, 0.46) </text>
<text text-anchor="start" x="792.83" y="-143.51" font-family="Helvetica,sans-Serif" font-size="14.00">&#45;&#45;</text>
<text text-anchor="start" x="787.83" y="-129.51" font-family="Helvetica,sans-Serif" font-weight="bold" font-size="14.00">V3</text>
</g>
<!-- 9&#45;&gt;10 -->
<g id="edge11" class="edge">
<title>9:s&#45;&gt;10:n</title>
<path fill="none" stroke="black" d="M889.33,-250.71C889.33,-250.71 829.83,-217.37 807.05,-204.6"/>
<polygon fill="black" stroke="black" points="808.76,-201.55 798.33,-199.71 805.34,-207.65 808.76,-201.55"/>
<text text-anchor="middle" x="842.33" y="-221.51" font-family="Helvetica,sans-Serif" font-size="14.00">&lt;= &#45;0.4761</text>
</g>
<!-- 12 -->
<g id="node13" class="node">
<title>12</title>
<polygon fill="#44e5b5" stroke="black" points="1165.83,-199.71 992.83,-199.71 992.83,-121.71 1165.83,-121.71 1165.83,-199.71"/>
<text text-anchor="start" x="1040.33" y="-185.51" font-family="Helvetica,sans-Serif" font-weight="bold" font-size="14.00"> Class=1 </text>
<text text-anchor="start" x="1113.33" y="-185.51" font-family="Helvetica,sans-Serif" font-size="14.00"> </text>
<text text-anchor="start" x="1000.83" y="-171.51" font-family="Helvetica,sans-Serif" font-size="14.00"> error: 0.703, n=5404 </text>
<text text-anchor="start" x="1024.33" y="-157.51" font-family="Helvetica,sans-Serif" font-size="14.00"> p: (0.81, 0.19) </text>
<text text-anchor="start" x="1073.83" y="-143.51" font-family="Helvetica,sans-Serif" font-size="14.00">&#45;&#45;</text>
<text text-anchor="start" x="1068.83" y="-129.51" font-family="Helvetica,sans-Serif" font-weight="bold" font-size="14.00">V1</text>
</g>
<!-- 9&#45;&gt;12 -->
<g id="edge12" class="edge">
<title>9:s&#45;&gt;12:n</title>
<path fill="none" stroke="black" d="M889.33,-250.71C889.33,-250.71 1030.93,-212.7 1069.65,-202.31"/>
<polygon fill="black" stroke="black" points="1070.58,-205.68 1079.33,-199.71 1068.76,-198.92 1070.58,-205.68"/>
<text text-anchor="middle" x="1043.33" y="-221.51" font-family="Helvetica,sans-Serif" font-size="14.00">&gt; &#45;0.4761</text>
</g>
<!-- 11 -->
<g id="node14" class="node">
<title>11</title>
<ellipse fill="#3d76cc" stroke="black" cx="762.33" cy="-35.36" rx="122.16" ry="35.21"/>
<text text-anchor="start" x="723.33" y="-46.16" font-family="Helvetica,sans-Serif" font-weight="bold" font-size="14.00"> Class=1 </text>
<text text-anchor="start" x="796.33" y="-46.16" font-family="Helvetica,sans-Serif" font-size="14.00"> </text>
<text text-anchor="start" x="683.83" y="-32.16" font-family="Helvetica,sans-Serif" font-size="14.00"> error: 0.967, n=5404 </text>
<text text-anchor="start" x="707.33" y="-18.16" font-family="Helvetica,sans-Serif" font-size="14.00"> p: (0.61, 0.39) </text>
</g>
<!-- 10&#45;&gt;11 -->
<g id="edge13" class="edge">
<title>10:s&#45;&gt;11:n</title>
<path fill="none" stroke="black" d="M798.33,-121.71C798.33,-121.71 778.5,-93.62 768.27,-79.13"/>
<polygon fill="black" stroke="black" points="770.96,-76.86 762.33,-70.71 765.24,-80.9 770.96,-76.86"/>
<text text-anchor="middle" x="820.33" y="-92.51" font-family="Helvetica,sans-Serif" font-size="14.00">&lt;= 1.295</text>
</g>
<!-- 13 -->
<g id="node15" class="node">
<title>13</title>
<ellipse fill="#3d76cc" stroke="black" cx="1079.33" cy="-35.36" rx="122.16" ry="35.21"/>
<text text-anchor="start" x="1040.33" y="-46.16" font-family="Helvetica,sans-Serif" font-weight="bold" font-size="14.00"> Class=1 </text>
<text text-anchor="start" x="1113.33" y="-46.16" font-family="Helvetica,sans-Serif" font-size="14.00"> </text>
<text text-anchor="start" x="1000.83" y="-32.16" font-family="Helvetica,sans-Serif" font-size="14.00"> error: 0.462, n=5404 </text>
<text text-anchor="start" x="1024.33" y="-18.16" font-family="Helvetica,sans-Serif" font-size="14.00"> p: (0.90, 0.10) </text>
</g>
<!-- 12&#45;&gt;13 -->
<g id="edge14" class="edge">
<title>12:s&#45;&gt;13:n</title>
<path fill="none" stroke="black" d="M1079.33,-121.71C1079.33,-121.71 1079.33,-95.93 1079.33,-81.03"/>
<polygon fill="black" stroke="black" points="1082.83,-80.71 1079.33,-70.71 1075.83,-80.71 1082.83,-80.71"/>
<text text-anchor="middle" x="1121.33" y="-92.51" font-family="Helvetica,sans-Serif" font-size="14.00">&lt;= &#45;0.4705</text>
</g>
<!-- 14 -->
<g id="node16" class="node">
<title>14</title>
<ellipse fill="#3d76cc" stroke="black" cx="1396.33" cy="-35.36" rx="122.16" ry="35.21"/>
<text text-anchor="start" x="1357.33" y="-46.16" font-family="Helvetica,sans-Serif" font-weight="bold" font-size="14.00"> Class=1 </text>
<text text-anchor="start" x="1430.33" y="-46.16" font-family="Helvetica,sans-Serif" font-size="14.00"> </text>
<text text-anchor="start" x="1317.83" y="-32.16" font-family="Helvetica,sans-Serif" font-size="14.00"> error: 0.860, n=5404 </text>
<text text-anchor="start" x="1341.33" y="-18.16" font-family="Helvetica,sans-Serif" font-size="14.00"> p: (0.72, 0.28) </text>
</g>
<!-- 12&#45;&gt;14 -->
<g id="edge15" class="edge">
<title>12:s&#45;&gt;14:n</title>
<path fill="none" stroke="black" d="M1079.33,-121.71C1079.33,-121.71 1331.88,-81.08 1386.14,-72.35"/>
<polygon fill="black" stroke="black" points="1387.01,-75.75 1396.33,-70.71 1385.9,-68.84 1387.01,-75.75"/>
<text text-anchor="middle" x="1312.33" y="-92.51" font-family="Helvetica,sans-Serif" font-size="14.00">&gt; &#45;0.4705</text>
</g>
</g>
</svg>
