<?xml version="1.0" encoding="UTF-8" standalone="no"?>
<!DOCTYPE svg PUBLIC "-//W3C//DTD SVG 1.1//EN"
 "http://www.w3.org/Graphics/SVG/1.1/DTD/svg11.dtd">
<!-- Generated by graphviz version 2.43.0 (0)
 -->
<!-- Title: Tree Pages: 1 -->
<svg width="2523pt" height="1083pt"
 viewBox="0.00 0.00 2522.66 1082.71" xmlns="http://www.w3.org/2000/svg" xmlns:xlink="http://www.w3.org/1999/xlink">
<g id="graph0" class="graph" transform="scale(1 1) rotate(0) translate(18 1064.71)">
<title>Tree</title>
<polygon fill="white" stroke="transparent" points="-18,18 -18,-1064.71 2504.66,-1064.71 2504.66,18 -18,18"/>
<!-- 0 -->
<g id="node1" class="node">
<title>0</title>
<polygon fill="white" stroke="transparent" points="1566.33,-1046.71 1512.33,-1046.71 1512.33,-1010.71 1566.33,-1010.71 1566.33,-1046.71"/>
<text text-anchor="middle" x="1539.33" y="-1025.01" font-family="Helvetica,sans-Serif" font-size="14.00">0</text>
</g>
<!-- 1 -->
<g id="node2" class="node">
<title>1</title>
<polygon fill="#cc3d3d" stroke="black" points="1625.83,-973.71 1452.83,-973.71 1452.83,-895.71 1625.83,-895.71 1625.83,-973.71"/>
<text text-anchor="start" x="1500.33" y="-959.51" font-family="Helvetica,sans-Serif" font-weight="bold" font-size="14.00"> Class=1 </text>
<text text-anchor="start" x="1573.33" y="-959.51" font-family="Helvetica,sans-Serif" font-size="14.00"> </text>
<text text-anchor="start" x="1460.83" y="-945.51" font-family="Helvetica,sans-Serif" font-size="14.00"> error: 0.922, n=1055 </text>
<text text-anchor="start" x="1484.33" y="-931.51" font-family="Helvetica,sans-Serif" font-size="14.00"> p: (0.66, 0.34) </text>
<text text-anchor="start" x="1517.83" y="-917.51" font-family="Helvetica,sans-Serif" font-size="14.00">&#45;&#45;&#45;&#45;&#45;&#45;&#45;&#45;</text>
<text text-anchor="start" x="1502.83" y="-903.51" font-family="Helvetica,sans-Serif" font-weight="bold" font-size="14.00">v_4=0.03</text>
</g>
<!-- 0&#45;&gt;1 -->
<!-- 2 -->
<g id="node3" class="node">
<title>2</title>
<polygon fill="#e59744" stroke="black" points="1485.83,-844.71 1312.83,-844.71 1312.83,-766.71 1485.83,-766.71 1485.83,-844.71"/>
<text text-anchor="start" x="1360.33" y="-830.51" font-family="Helvetica,sans-Serif" font-weight="bold" font-size="14.00"> Class=1 </text>
<text text-anchor="start" x="1433.33" y="-830.51" font-family="Helvetica,sans-Serif" font-size="14.00"> </text>
<text text-anchor="start" x="1320.83" y="-816.51" font-family="Helvetica,sans-Serif" font-size="14.00"> error: 1.000, n=1055 </text>
<text text-anchor="start" x="1344.33" y="-802.51" font-family="Helvetica,sans-Serif" font-size="14.00"> p: (0.51, 0.49) </text>
<text text-anchor="start" x="1377.83" y="-788.51" font-family="Helvetica,sans-Serif" font-size="14.00">&#45;&#45;&#45;&#45;&#45;&#45;&#45;&#45;</text>
<text text-anchor="start" x="1362.83" y="-774.51" font-family="Helvetica,sans-Serif" font-weight="bold" font-size="14.00">v_5=0.02</text>
</g>
<!-- 1&#45;&gt;2 -->
<g id="edge2" class="edge">
<title>1:s&#45;&gt;2:n</title>
<path fill="none" stroke="black" d="M1539.33,-895.71C1539.33,-895.71 1440.58,-859.74 1408.95,-848.22"/>
<polygon fill="black" stroke="black" points="1409.92,-844.84 1399.33,-844.71 1407.53,-851.42 1409.92,-844.84"/>
<text text-anchor="middle" x="1521.83" y="-866.51" font-family="Helvetica,sans-Serif" font-size="14.00">&gt; 0.4448</text>
</g>
<!-- 20 -->
<g id="node4" class="node">
<title>20</title>
<polygon fill="#e59744" stroke="black" points="2006.83,-844.71 1833.83,-844.71 1833.83,-766.71 2006.83,-766.71 2006.83,-844.71"/>
<text text-anchor="start" x="1881.33" y="-830.51" font-family="Helvetica,sans-Serif" font-weight="bold" font-size="14.00"> Class=1 </text>
<text text-anchor="start" x="1954.33" y="-830.51" font-family="Helvetica,sans-Serif" font-size="14.00"> </text>
<text text-anchor="start" x="1841.83" y="-816.51" font-family="Helvetica,sans-Serif" font-size="14.00"> error: 0.684, n=1055 </text>
<text text-anchor="start" x="1865.33" y="-802.51" font-family="Helvetica,sans-Serif" font-size="14.00"> p: (0.82, 0.18) </text>
<text text-anchor="start" x="1898.83" y="-788.51" font-family="Helvetica,sans-Serif" font-size="14.00">&#45;&#45;&#45;&#45;&#45;&#45;&#45;&#45;</text>
<text text-anchor="start" x="1883.83" y="-774.51" font-family="Helvetica,sans-Serif" font-weight="bold" font-size="14.00">v_5=0.02</text>
</g>
<!-- 1&#45;&gt;20 -->
<g id="edge3" class="edge">
<title>1:s&#45;&gt;20:n</title>
<path fill="none" stroke="black" d="M1539.33,-895.71C1539.33,-895.71 1849.55,-854.19 1910.14,-846.07"/>
<polygon fill="black" stroke="black" points="1910.88,-849.51 1920.33,-844.71 1909.95,-842.57 1910.88,-849.51"/>
<text text-anchor="middle" x="1814.83" y="-866.51" font-family="Helvetica,sans-Serif" font-size="14.00">&lt;= 0.4448</text>
</g>
<!-- 3 -->
<g id="node5" class="node">
<title>3</title>
<polygon fill="#c8cc3d" stroke="black" points="963.83,-715.71 790.83,-715.71 790.83,-637.71 963.83,-637.71 963.83,-715.71"/>
<text text-anchor="start" x="838.33" y="-701.51" font-family="Helvetica,sans-Serif" font-weight="bold" font-size="14.00"> Class=2 </text>
<text text-anchor="start" x="911.33" y="-701.51" font-family="Helvetica,sans-Serif" font-size="14.00"> </text>
<text text-anchor="start" x="798.83" y="-687.51" font-family="Helvetica,sans-Serif" font-size="14.00"> error: 0.972, n=1055 </text>
<text text-anchor="start" x="822.33" y="-673.51" font-family="Helvetica,sans-Serif" font-size="14.00"> p: (0.40, 0.60) </text>
<text text-anchor="start" x="853.33" y="-659.51" font-family="Helvetica,sans-Serif" font-size="14.00">&#45;&#45;&#45;&#45;&#45;&#45;&#45;&#45;&#45;</text>
<text text-anchor="start" x="836.33" y="-645.51" font-family="Helvetica,sans-Serif" font-weight="bold" font-size="14.00">v_17=0.00</text>
</g>
<!-- 2&#45;&gt;3 -->
<g id="edge4" class="edge">
<title>2:s&#45;&gt;3:n</title>
<path fill="none" stroke="black" d="M1399.33,-766.71C1399.33,-766.71 959.46,-723.73 887.29,-716.68"/>
<polygon fill="black" stroke="black" points="887.62,-713.2 877.33,-715.71 886.94,-720.17 887.62,-713.2"/>
<text text-anchor="middle" x="1240.83" y="-737.51" font-family="Helvetica,sans-Serif" font-size="14.00">&lt;= 0.1783</text>
</g>
<!-- 15 -->
<g id="node6" class="node">
<title>15</title>
<polygon fill="#c8cc3d" stroke="black" points="1485.83,-715.71 1312.83,-715.71 1312.83,-637.71 1485.83,-637.71 1485.83,-715.71"/>
<text text-anchor="start" x="1360.33" y="-701.51" font-family="Helvetica,sans-Serif" font-weight="bold" font-size="14.00"> Class=1 </text>
<text text-anchor="start" x="1433.33" y="-701.51" font-family="Helvetica,sans-Serif" font-size="14.00"> </text>
<text text-anchor="start" x="1320.83" y="-687.51" font-family="Helvetica,sans-Serif" font-size="14.00"> error: 0.684, n=1055 </text>
<text text-anchor="start" x="1344.33" y="-673.51" font-family="Helvetica,sans-Serif" font-size="14.00"> p: (0.82, 0.18) </text>
<text text-anchor="start" x="1375.33" y="-659.51" font-family="Helvetica,sans-Serif" font-size="14.00">&#45;&#45;&#45;&#45;&#45;&#45;&#45;&#45;&#45;</text>
<text text-anchor="start" x="1358.33" y="-645.51" font-family="Helvetica,sans-Serif" font-weight="bold" font-size="14.00">v_10=0.00</text>
</g>
<!-- 2&#45;&gt;15 -->
<g id="edge5" class="edge">
<title>2:s&#45;&gt;15:n</title>
<path fill="none" stroke="black" d="M1399.33,-766.71C1399.33,-766.71 1399.33,-740.93 1399.33,-726.03"/>
<polygon fill="black" stroke="black" points="1402.83,-725.71 1399.33,-715.71 1395.83,-725.71 1402.83,-725.71"/>
<text text-anchor="middle" x="1432.83" y="-737.51" font-family="Helvetica,sans-Serif" font-size="14.00">&gt; 0.1783</text>
</g>
<!-- 21 -->
<g id="node22" class="node">
<title>21</title>
<polygon fill="#c8cc3d" stroke="black" points="2006.83,-715.71 1833.83,-715.71 1833.83,-637.71 2006.83,-637.71 2006.83,-715.71"/>
<text text-anchor="start" x="1881.33" y="-701.51" font-family="Helvetica,sans-Serif" font-weight="bold" font-size="14.00"> Class=1 </text>
<text text-anchor="start" x="1954.33" y="-701.51" font-family="Helvetica,sans-Serif" font-size="14.00"> </text>
<text text-anchor="start" x="1841.83" y="-687.51" font-family="Helvetica,sans-Serif" font-size="14.00"> error: 0.880, n=1055 </text>
<text text-anchor="start" x="1865.33" y="-673.51" font-family="Helvetica,sans-Serif" font-size="14.00"> p: (0.70, 0.30) </text>
<text text-anchor="start" x="1898.83" y="-659.51" font-family="Helvetica,sans-Serif" font-size="14.00">&#45;&#45;&#45;&#45;&#45;&#45;&#45;&#45;</text>
<text text-anchor="start" x="1883.83" y="-645.51" font-family="Helvetica,sans-Serif" font-weight="bold" font-size="14.00">v_4=0.03</text>
</g>
<!-- 20&#45;&gt;21 -->
<g id="edge21" class="edge">
<title>20:s&#45;&gt;21:n</title>
<path fill="none" stroke="black" d="M1920.33,-766.71C1920.33,-766.71 1920.33,-740.93 1920.33,-726.03"/>
<polygon fill="black" stroke="black" points="1923.83,-725.71 1920.33,-715.71 1916.83,-725.71 1923.83,-725.71"/>
<text text-anchor="middle" x="1957.83" y="-737.51" font-family="Helvetica,sans-Serif" font-size="14.00">&lt;= &#45;1.145</text>
</g>
<!-- 33 -->
<g id="node23" class="node">
<title>33</title>
<ellipse fill="#c8cc3d" stroke="black" cx="2201.33" cy="-676.71" rx="122.16" ry="35.21"/>
<text text-anchor="start" x="2162.33" y="-687.51" font-family="Helvetica,sans-Serif" font-weight="bold" font-size="14.00"> Class=1 </text>
<text text-anchor="start" x="2235.33" y="-687.51" font-family="Helvetica,sans-Serif" font-size="14.00"> </text>
<text text-anchor="start" x="2122.83" y="-673.51" font-family="Helvetica,sans-Serif" font-size="14.00"> error: 0.345, n=1055 </text>
<text text-anchor="start" x="2146.33" y="-659.51" font-family="Helvetica,sans-Serif" font-size="14.00"> p: (0.94, 0.06) </text>
</g>
<!-- 20&#45;&gt;33 -->
<g id="edge22" class="edge">
<title>20:s&#45;&gt;33:n</title>
<path fill="none" stroke="black" d="M1920.33,-766.71C1920.33,-766.71 2141.27,-725.04 2191.33,-715.6"/>
<polygon fill="black" stroke="black" points="2192.15,-719 2201.33,-713.71 2190.85,-712.12 2192.15,-719"/>
<text text-anchor="middle" x="2125.83" y="-737.51" font-family="Helvetica,sans-Serif" font-size="14.00">&gt; &#45;1.145</text>
</g>
<!-- 4 -->
<g id="node7" class="node">
<title>4</title>
<polygon fill="#8ee544" stroke="black" points="489.83,-586.71 316.83,-586.71 316.83,-508.71 489.83,-508.71 489.83,-586.71"/>
<text text-anchor="start" x="364.33" y="-572.51" font-family="Helvetica,sans-Serif" font-weight="bold" font-size="14.00"> Class=1 </text>
<text text-anchor="start" x="437.33" y="-572.51" font-family="Helvetica,sans-Serif" font-size="14.00"> </text>
<text text-anchor="start" x="324.83" y="-558.51" font-family="Helvetica,sans-Serif" font-size="14.00"> error: 0.918, n=1055 </text>
<text text-anchor="start" x="348.33" y="-544.51" font-family="Helvetica,sans-Serif" font-size="14.00"> p: (0.67, 0.33) </text>
<text text-anchor="start" x="381.83" y="-530.51" font-family="Helvetica,sans-Serif" font-size="14.00">&#45;&#45;&#45;&#45;&#45;&#45;&#45;&#45;</text>
<text text-anchor="start" x="366.83" y="-516.51" font-family="Helvetica,sans-Serif" font-weight="bold" font-size="14.00">v_0=0.48</text>
</g>
<!-- 3&#45;&gt;4 -->
<g id="edge6" class="edge">
<title>3:s&#45;&gt;4:n</title>
<path fill="none" stroke="black" d="M877.33,-637.71C877.33,-637.71 482.99,-595.28 413.67,-587.82"/>
<polygon fill="black" stroke="black" points="413.65,-584.3 403.33,-586.71 412.9,-591.26 413.65,-584.3"/>
<text text-anchor="middle" x="739.33" y="-608.51" font-family="Helvetica,sans-Serif" font-size="14.00">&lt;= &#45;0.2734</text>
</g>
<!-- 8 -->
<g id="node8" class="node">
<title>8</title>
<polygon fill="#8ee544" stroke="black" points="963.83,-586.71 790.83,-586.71 790.83,-508.71 963.83,-508.71 963.83,-586.71"/>
<text text-anchor="start" x="838.33" y="-572.51" font-family="Helvetica,sans-Serif" font-weight="bold" font-size="14.00"> Class=2 </text>
<text text-anchor="start" x="911.33" y="-572.51" font-family="Helvetica,sans-Serif" font-size="14.00"> </text>
<text text-anchor="start" x="798.83" y="-558.51" font-family="Helvetica,sans-Serif" font-size="14.00"> error: 0.898, n=1055 </text>
<text text-anchor="start" x="822.33" y="-544.51" font-family="Helvetica,sans-Serif" font-size="14.00"> p: (0.31, 0.69) </text>
<text text-anchor="start" x="853.33" y="-530.51" font-family="Helvetica,sans-Serif" font-size="14.00">&#45;&#45;&#45;&#45;&#45;&#45;&#45;&#45;&#45;</text>
<text text-anchor="start" x="836.33" y="-516.51" font-family="Helvetica,sans-Serif" font-weight="bold" font-size="14.00">v_26=0.00</text>
</g>
<!-- 3&#45;&gt;8 -->
<g id="edge7" class="edge">
<title>3:s&#45;&gt;8:n</title>
<path fill="none" stroke="black" d="M877.33,-637.71C877.33,-637.71 877.33,-611.93 877.33,-597.03"/>
<polygon fill="black" stroke="black" points="880.83,-596.71 877.33,-586.71 873.83,-596.71 880.83,-596.71"/>
<text text-anchor="middle" x="913.33" y="-608.51" font-family="Helvetica,sans-Serif" font-size="14.00">&gt; &#45;0.2734</text>
</g>
<!-- 16 -->
<g id="node18" class="node">
<title>16</title>
<polygon fill="#8ee544" stroke="black" points="1344.83,-586.71 1171.83,-586.71 1171.83,-508.71 1344.83,-508.71 1344.83,-586.71"/>
<text text-anchor="start" x="1219.33" y="-572.51" font-family="Helvetica,sans-Serif" font-weight="bold" font-size="14.00"> Class=1 </text>
<text text-anchor="start" x="1292.33" y="-572.51" font-family="Helvetica,sans-Serif" font-size="14.00"> </text>
<text text-anchor="start" x="1179.83" y="-558.51" font-family="Helvetica,sans-Serif" font-size="14.00"> error: 0.196, n=1055 </text>
<text text-anchor="start" x="1203.33" y="-544.51" font-family="Helvetica,sans-Serif" font-size="14.00"> p: (0.97, 0.03) </text>
<text text-anchor="start" x="1234.33" y="-530.51" font-family="Helvetica,sans-Serif" font-size="14.00">&#45;&#45;&#45;&#45;&#45;&#45;&#45;&#45;&#45;</text>
<text text-anchor="start" x="1217.33" y="-516.51" font-family="Helvetica,sans-Serif" font-weight="bold" font-size="14.00">v_14=0.00</text>
</g>
<!-- 15&#45;&gt;16 -->
<g id="edge17" class="edge">
<title>15:s&#45;&gt;16:n</title>
<path fill="none" stroke="black" d="M1399.33,-637.71C1399.33,-637.71 1299.88,-601.74 1268.02,-590.22"/>
<polygon fill="black" stroke="black" points="1268.92,-586.82 1258.33,-586.71 1266.54,-593.4 1268.92,-586.82"/>
<text text-anchor="middle" x="1388.33" y="-608.51" font-family="Helvetica,sans-Serif" font-size="14.00">&lt;= &#45;0.2417</text>
</g>
<!-- 18 -->
<g id="node19" class="node">
<title>18</title>
<polygon fill="#8ee544" stroke="black" points="1625.83,-586.71 1452.83,-586.71 1452.83,-508.71 1625.83,-508.71 1625.83,-586.71"/>
<text text-anchor="start" x="1500.33" y="-572.51" font-family="Helvetica,sans-Serif" font-weight="bold" font-size="14.00"> Class=1 </text>
<text text-anchor="start" x="1573.33" y="-572.51" font-family="Helvetica,sans-Serif" font-size="14.00"> </text>
<text text-anchor="start" x="1460.83" y="-558.51" font-family="Helvetica,sans-Serif" font-size="14.00"> error: 0.918, n=1055 </text>
<text text-anchor="start" x="1484.33" y="-544.51" font-family="Helvetica,sans-Serif" font-size="14.00"> p: (0.67, 0.33) </text>
<text text-anchor="start" x="1515.33" y="-530.51" font-family="Helvetica,sans-Serif" font-size="14.00">&#45;&#45;&#45;&#45;&#45;&#45;&#45;&#45;&#45;</text>
<text text-anchor="start" x="1498.33" y="-516.51" font-family="Helvetica,sans-Serif" font-weight="bold" font-size="14.00">v_21=0.00</text>
</g>
<!-- 15&#45;&gt;18 -->
<g id="edge18" class="edge">
<title>15:s&#45;&gt;18:n</title>
<path fill="none" stroke="black" d="M1399.33,-637.71C1399.33,-637.71 1498.08,-601.74 1529.71,-590.22"/>
<polygon fill="black" stroke="black" points="1531.13,-593.42 1539.33,-586.71 1528.74,-586.84 1531.13,-593.42"/>
<text text-anchor="middle" x="1522.33" y="-608.51" font-family="Helvetica,sans-Serif" font-size="14.00">&gt; &#45;0.2417</text>
</g>
<!-- 5 -->
<g id="node9" class="node">
<title>5</title>
<ellipse fill="#3dcc45" stroke="black" cx="122.33" cy="-418.71" rx="122.16" ry="35.21"/>
<text text-anchor="start" x="83.33" y="-429.51" font-family="Helvetica,sans-Serif" font-weight="bold" font-size="14.00"> Class=1 </text>
<text text-anchor="start" x="156.33" y="-429.51" font-family="Helvetica,sans-Serif" font-size="14.00"> </text>
<text text-anchor="start" x="43.83" y="-415.51" font-family="Helvetica,sans-Serif" font-size="14.00"> error: 0.536, n=1055 </text>
<text text-anchor="start" x="67.33" y="-401.51" font-family="Helvetica,sans-Serif" font-size="14.00"> p: (0.88, 0.12) </text>
</g>
<!-- 4&#45;&gt;5 -->
<g id="edge8" class="edge">
<title>4:s&#45;&gt;5:n</title>
<path fill="none" stroke="black" d="M403.33,-508.71C403.33,-508.71 182.39,-467.04 132.33,-457.6"/>
<polygon fill="black" stroke="black" points="132.8,-454.12 122.33,-455.71 131.51,-461 132.8,-454.12"/>
<text text-anchor="middle" x="340.33" y="-479.51" font-family="Helvetica,sans-Serif" font-size="14.00">&lt;= 0.438</text>
</g>
<!-- 6 -->
<g id="node10" class="node">
<title>6</title>
<polygon fill="#3dcc45" stroke="black" points="489.83,-457.71 316.83,-457.71 316.83,-379.71 489.83,-379.71 489.83,-457.71"/>
<text text-anchor="start" x="364.33" y="-443.51" font-family="Helvetica,sans-Serif" font-weight="bold" font-size="14.00"> Class=2 </text>
<text text-anchor="start" x="437.33" y="-443.51" font-family="Helvetica,sans-Serif" font-size="14.00"> </text>
<text text-anchor="start" x="324.83" y="-429.51" font-family="Helvetica,sans-Serif" font-size="14.00"> error: 0.995, n=1055 </text>
<text text-anchor="start" x="348.33" y="-415.51" font-family="Helvetica,sans-Serif" font-size="14.00"> p: (0.46, 0.54) </text>
<text text-anchor="start" x="379.33" y="-401.51" font-family="Helvetica,sans-Serif" font-size="14.00">&#45;&#45;&#45;&#45;&#45;&#45;&#45;&#45;&#45;</text>
<text text-anchor="start" x="362.33" y="-387.51" font-family="Helvetica,sans-Serif" font-weight="bold" font-size="14.00">v_17=0.00</text>
</g>
<!-- 4&#45;&gt;6 -->
<g id="edge9" class="edge">
<title>4:s&#45;&gt;6:n</title>
<path fill="none" stroke="black" d="M403.33,-508.71C403.33,-508.71 403.33,-482.93 403.33,-468.03"/>
<polygon fill="black" stroke="black" points="406.83,-467.71 403.33,-457.71 399.83,-467.71 406.83,-467.71"/>
<text text-anchor="middle" x="432.33" y="-479.51" font-family="Helvetica,sans-Serif" font-size="14.00">&gt; 0.438</text>
</g>
<!-- 9 -->
<g id="node12" class="node">
<title>9</title>
<polygon fill="#3dcc45" stroke="black" points="800.83,-457.71 627.83,-457.71 627.83,-379.71 800.83,-379.71 800.83,-457.71"/>
<text text-anchor="start" x="675.33" y="-443.51" font-family="Helvetica,sans-Serif" font-weight="bold" font-size="14.00"> Class=2 </text>
<text text-anchor="start" x="748.33" y="-443.51" font-family="Helvetica,sans-Serif" font-size="14.00"> </text>
<text text-anchor="start" x="635.83" y="-429.51" font-family="Helvetica,sans-Serif" font-size="14.00"> error: 0.738, n=1055 </text>
<text text-anchor="start" x="659.33" y="-415.51" font-family="Helvetica,sans-Serif" font-size="14.00"> p: (0.21, 0.79) </text>
<text text-anchor="start" x="690.33" y="-401.51" font-family="Helvetica,sans-Serif" font-size="14.00">&#45;&#45;&#45;&#45;&#45;&#45;&#45;&#45;&#45;</text>
<text text-anchor="start" x="673.33" y="-387.51" font-family="Helvetica,sans-Serif" font-weight="bold" font-size="14.00">v_13=0.00</text>
</g>
<!-- 8&#45;&gt;9 -->
<g id="edge11" class="edge">
<title>8:s&#45;&gt;9:n</title>
<path fill="none" stroke="black" d="M877.33,-508.71C877.33,-508.71 759.13,-471.73 724.04,-460.75"/>
<polygon fill="black" stroke="black" points="724.92,-457.36 714.33,-457.71 722.83,-464.04 724.92,-457.36"/>
<text text-anchor="middle" x="847.33" y="-479.51" font-family="Helvetica,sans-Serif" font-size="14.00">&lt;= 0.03144</text>
</g>
<!-- 13 -->
<g id="node13" class="node">
<title>13</title>
<polygon fill="#3dcc45" stroke="black" points="1045.83,-457.71 872.83,-457.71 872.83,-379.71 1045.83,-379.71 1045.83,-457.71"/>
<text text-anchor="start" x="920.33" y="-443.51" font-family="Helvetica,sans-Serif" font-weight="bold" font-size="14.00"> Class=1 </text>
<text text-anchor="start" x="993.33" y="-443.51" font-family="Helvetica,sans-Serif" font-size="14.00"> </text>
<text text-anchor="start" x="880.83" y="-429.51" font-family="Helvetica,sans-Serif" font-size="14.00"> error: 0.953, n=1055 </text>
<text text-anchor="start" x="904.33" y="-415.51" font-family="Helvetica,sans-Serif" font-size="14.00"> p: (0.63, 0.37) </text>
<text text-anchor="start" x="937.83" y="-401.51" font-family="Helvetica,sans-Serif" font-size="14.00">&#45;&#45;&#45;&#45;&#45;&#45;&#45;&#45;</text>
<text text-anchor="start" x="922.83" y="-387.51" font-family="Helvetica,sans-Serif" font-weight="bold" font-size="14.00">v_9=0.01</text>
</g>
<!-- 8&#45;&gt;13 -->
<g id="edge12" class="edge">
<title>8:s&#45;&gt;13:n</title>
<path fill="none" stroke="black" d="M877.33,-508.71C877.33,-508.71 929.4,-476.33 950.55,-463.17"/>
<polygon fill="black" stroke="black" points="952.69,-465.96 959.33,-457.71 948.99,-460.02 952.69,-465.96"/>
<text text-anchor="middle" x="966.33" y="-479.51" font-family="Helvetica,sans-Serif" font-size="14.00">&gt; 0.03144</text>
</g>
<!-- 7 -->
<g id="node11" class="node">
<title>7</title>
<ellipse fill="#44e5a1" stroke="black" cx="337.33" cy="-289.71" rx="122.16" ry="35.21"/>
<text text-anchor="start" x="298.33" y="-300.51" font-family="Helvetica,sans-Serif" font-weight="bold" font-size="14.00"> Class=1 </text>
<text text-anchor="start" x="371.33" y="-300.51" font-family="Helvetica,sans-Serif" font-size="14.00"> </text>
<text text-anchor="start" x="258.83" y="-286.51" font-family="Helvetica,sans-Serif" font-size="14.00"> error: 0.974, n=1055 </text>
<text text-anchor="start" x="282.33" y="-272.51" font-family="Helvetica,sans-Serif" font-size="14.00"> p: (0.59, 0.41) </text>
</g>
<!-- 6&#45;&gt;7 -->
<g id="edge10" class="edge">
<title>6:s&#45;&gt;7:n</title>
<path fill="none" stroke="black" d="M403.33,-379.71C403.33,-379.71 362.64,-347.04 345.16,-333"/>
<polygon fill="black" stroke="black" points="347.32,-330.24 337.33,-326.71 342.94,-335.7 347.32,-330.24"/>
<text text-anchor="middle" x="422.33" y="-350.51" font-family="Helvetica,sans-Serif" font-size="14.00">&lt;= &#45;0.3537</text>
</g>
<!-- 10 -->
<g id="node14" class="node">
<title>10</title>
<polygon fill="#44e5a1" stroke="black" points="704.83,-328.71 531.83,-328.71 531.83,-250.71 704.83,-250.71 704.83,-328.71"/>
<text text-anchor="start" x="579.33" y="-314.51" font-family="Helvetica,sans-Serif" font-weight="bold" font-size="14.00"> Class=2 </text>
<text text-anchor="start" x="652.33" y="-314.51" font-family="Helvetica,sans-Serif" font-size="14.00"> </text>
<text text-anchor="start" x="539.83" y="-300.51" font-family="Helvetica,sans-Serif" font-size="14.00"> error: 0.999, n=1055 </text>
<text text-anchor="start" x="563.33" y="-286.51" font-family="Helvetica,sans-Serif" font-size="14.00"> p: (0.48, 0.52) </text>
<text text-anchor="start" x="594.33" y="-272.51" font-family="Helvetica,sans-Serif" font-size="14.00">&#45;&#45;&#45;&#45;&#45;&#45;&#45;&#45;&#45;</text>
<text text-anchor="start" x="577.33" y="-258.51" font-family="Helvetica,sans-Serif" font-weight="bold" font-size="14.00">v_13=0.00</text>
</g>
<!-- 9&#45;&gt;10 -->
<g id="edge13" class="edge">
<title>9:s&#45;&gt;10:n</title>
<path fill="none" stroke="black" d="M714.33,-379.71C714.33,-379.71 650.95,-346.04 627.19,-333.42"/>
<polygon fill="black" stroke="black" points="628.8,-330.31 618.33,-328.71 625.52,-336.49 628.8,-330.31"/>
<text text-anchor="middle" x="720.33" y="-350.51" font-family="Helvetica,sans-Serif" font-size="14.00">&lt;= &#45;0.1722</text>
</g>
<!-- 12 -->
<g id="node15" class="node">
<title>12</title>
<ellipse fill="#44e5a1" stroke="black" cx="899.33" cy="-289.71" rx="122.16" ry="35.21"/>
<text text-anchor="start" x="860.33" y="-300.51" font-family="Helvetica,sans-Serif" font-weight="bold" font-size="14.00"> Class=2 </text>
<text text-anchor="start" x="933.33" y="-300.51" font-family="Helvetica,sans-Serif" font-size="14.00"> </text>
<text text-anchor="start" x="820.83" y="-286.51" font-family="Helvetica,sans-Serif" font-size="14.00"> error: 0.515, n=1055 </text>
<text text-anchor="start" x="844.33" y="-272.51" font-family="Helvetica,sans-Serif" font-size="14.00"> p: (0.12, 0.88) </text>
</g>
<!-- 9&#45;&gt;12 -->
<g id="edge14" class="edge">
<title>9:s&#45;&gt;12:n</title>
<path fill="none" stroke="black" d="M714.33,-379.71C714.33,-379.71 851.58,-340.39 889.64,-329.49"/>
<polygon fill="black" stroke="black" points="890.68,-332.83 899.33,-326.71 888.75,-326.1 890.68,-332.83"/>
<text text-anchor="middle" x="865.33" y="-350.51" font-family="Helvetica,sans-Serif" font-size="14.00">&gt; &#45;0.1722</text>
</g>
<!-- 14 -->
<g id="node17" class="node">
<title>14</title>
<ellipse fill="#44e5a1" stroke="black" cx="1216.33" cy="-289.71" rx="122.16" ry="35.21"/>
<text text-anchor="start" x="1177.33" y="-300.51" font-family="Helvetica,sans-Serif" font-weight="bold" font-size="14.00"> Class=1 </text>
<text text-anchor="start" x="1250.33" y="-300.51" font-family="Helvetica,sans-Serif" font-size="14.00"> </text>
<text text-anchor="start" x="1137.83" y="-286.51" font-family="Helvetica,sans-Serif" font-size="14.00"> error: 0.782, n=1055 </text>
<text text-anchor="start" x="1161.33" y="-272.51" font-family="Helvetica,sans-Serif" font-size="14.00"> p: (0.77, 0.23) </text>
</g>
<!-- 13&#45;&gt;14 -->
<g id="edge16" class="edge">
<title>13:s&#45;&gt;14:n</title>
<path fill="none" stroke="black" d="M959.33,-379.71C959.33,-379.71 1158.74,-338.59 1206.25,-328.79"/>
<polygon fill="black" stroke="black" points="1207.24,-332.16 1216.33,-326.71 1205.83,-325.3 1207.24,-332.16"/>
<text text-anchor="middle" x="1155.33" y="-350.51" font-family="Helvetica,sans-Serif" font-size="14.00">&gt; &#45;0.7531</text>
</g>
<!-- 11 -->
<g id="node16" class="node">
<title>11</title>
<ellipse fill="#3dc0cc" stroke="black" cx="618.33" cy="-160.71" rx="122.16" ry="35.21"/>
<text text-anchor="start" x="579.33" y="-171.51" font-family="Helvetica,sans-Serif" font-weight="bold" font-size="14.00"> Class=2 </text>
<text text-anchor="start" x="652.33" y="-171.51" font-family="Helvetica,sans-Serif" font-size="14.00"> </text>
<text text-anchor="start" x="539.83" y="-157.51" font-family="Helvetica,sans-Serif" font-size="14.00"> error: 0.947, n=1055 </text>
<text text-anchor="start" x="563.33" y="-143.51" font-family="Helvetica,sans-Serif" font-size="14.00"> p: (0.37, 0.63) </text>
</g>
<!-- 10&#45;&gt;11 -->
<g id="edge15" class="edge">
<title>10:s&#45;&gt;11:n</title>
<path fill="none" stroke="black" d="M618.33,-250.71C618.33,-250.71 618.33,-223.33 618.33,-207.93"/>
<polygon fill="black" stroke="black" points="621.83,-207.71 618.33,-197.71 614.83,-207.71 621.83,-207.71"/>
<text text-anchor="middle" x="654.33" y="-221.51" font-family="Helvetica,sans-Serif" font-size="14.00">&gt; &#45;0.7544</text>
</g>
<!-- 17 -->
<g id="node20" class="node">
<title>17</title>
<ellipse fill="#3dcc45" stroke="black" cx="1240.33" cy="-418.71" rx="122.16" ry="35.21"/>
<text text-anchor="start" x="1201.33" y="-429.51" font-family="Helvetica,sans-Serif" font-weight="bold" font-size="14.00"> Class=1 </text>
<text text-anchor="start" x="1274.33" y="-429.51" font-family="Helvetica,sans-Serif" font-size="14.00"> </text>
<text text-anchor="start" x="1161.83" y="-415.51" font-family="Helvetica,sans-Serif" font-size="14.00"> error: 0.000, n=1055 </text>
<text text-anchor="start" x="1185.33" y="-401.51" font-family="Helvetica,sans-Serif" font-size="14.00"> p: (1.00, 0.00) </text>
</g>
<!-- 16&#45;&gt;17 -->
<g id="edge19" class="edge">
<title>16:s&#45;&gt;17:n</title>
<path fill="none" stroke="black" d="M1258.33,-508.71C1258.33,-508.71 1248.83,-480.73 1243.63,-465.43"/>
<polygon fill="black" stroke="black" points="1246.86,-464.05 1240.33,-455.71 1240.23,-466.31 1246.86,-464.05"/>
<text text-anchor="middle" x="1291.83" y="-479.51" font-family="Helvetica,sans-Serif" font-size="14.00">&lt;= 0.5962</text>
</g>
<!-- 19 -->
<g id="node21" class="node">
<title>19</title>
<ellipse fill="#3dcc45" stroke="black" cx="1557.33" cy="-418.71" rx="122.16" ry="35.21"/>
<text text-anchor="start" x="1518.33" y="-429.51" font-family="Helvetica,sans-Serif" font-weight="bold" font-size="14.00"> Class=1 </text>
<text text-anchor="start" x="1591.33" y="-429.51" font-family="Helvetica,sans-Serif" font-size="14.00"> </text>
<text text-anchor="start" x="1478.83" y="-415.51" font-family="Helvetica,sans-Serif" font-size="14.00"> error: 0.688, n=1055 </text>
<text text-anchor="start" x="1502.33" y="-401.51" font-family="Helvetica,sans-Serif" font-size="14.00"> p: (0.82, 0.18) </text>
</g>
<!-- 18&#45;&gt;19 -->
<g id="edge20" class="edge">
<title>18:s&#45;&gt;19:n</title>
<path fill="none" stroke="black" d="M1539.33,-508.71C1539.33,-508.71 1548.83,-480.73 1554.03,-465.43"/>
<polygon fill="black" stroke="black" points="1557.43,-466.31 1557.33,-455.71 1550.8,-464.05 1557.43,-466.31"/>
<text text-anchor="middle" x="1587.33" y="-479.51" font-family="Helvetica,sans-Serif" font-size="14.00">&gt; &#45;0.3482</text>
</g>
<!-- 22 -->
<g id="node24" class="node">
<title>22</title>
<polygon fill="#8ee544" stroke="black" points="2006.83,-586.71 1833.83,-586.71 1833.83,-508.71 2006.83,-508.71 2006.83,-586.71"/>
<text text-anchor="start" x="1881.33" y="-572.51" font-family="Helvetica,sans-Serif" font-weight="bold" font-size="14.00"> Class=1 </text>
<text text-anchor="start" x="1954.33" y="-572.51" font-family="Helvetica,sans-Serif" font-size="14.00"> </text>
<text text-anchor="start" x="1841.83" y="-558.51" font-family="Helvetica,sans-Serif" font-size="14.00"> error: 0.686, n=1055 </text>
<text text-anchor="start" x="1865.33" y="-544.51" font-family="Helvetica,sans-Serif" font-size="14.00"> p: (0.82, 0.18) </text>
<text text-anchor="start" x="1898.83" y="-530.51" font-family="Helvetica,sans-Serif" font-size="14.00">&#45;&#45;&#45;&#45;&#45;&#45;&#45;&#45;</text>
<text text-anchor="start" x="1883.83" y="-516.51" font-family="Helvetica,sans-Serif" font-weight="bold" font-size="14.00">v_3=0.04</text>
</g>
<!-- 21&#45;&gt;22 -->
<g id="edge23" class="edge">
<title>21:s&#45;&gt;22:n</title>
<path fill="none" stroke="black" d="M1920.33,-637.71C1920.33,-637.71 1920.33,-611.93 1920.33,-597.03"/>
<polygon fill="black" stroke="black" points="1923.83,-596.71 1920.33,-586.71 1916.83,-596.71 1923.83,-596.71"/>
<text text-anchor="middle" x="1962.33" y="-608.51" font-family="Helvetica,sans-Serif" font-size="14.00">&lt;= &#45;0.3376</text>
</g>
<!-- 31 -->
<g id="node25" class="node">
<title>31</title>
<polygon fill="#8ee544" stroke="black" points="2391.83,-586.71 2218.83,-586.71 2218.83,-508.71 2391.83,-508.71 2391.83,-586.71"/>
<text text-anchor="start" x="2266.33" y="-572.51" font-family="Helvetica,sans-Serif" font-weight="bold" font-size="14.00"> Class=2 </text>
<text text-anchor="start" x="2339.33" y="-572.51" font-family="Helvetica,sans-Serif" font-size="14.00"> </text>
<text text-anchor="start" x="2226.83" y="-558.51" font-family="Helvetica,sans-Serif" font-size="14.00"> error: 0.941, n=1055 </text>
<text text-anchor="start" x="2250.33" y="-544.51" font-family="Helvetica,sans-Serif" font-size="14.00"> p: (0.36, 0.64) </text>
<text text-anchor="start" x="2281.33" y="-530.51" font-family="Helvetica,sans-Serif" font-size="14.00">&#45;&#45;&#45;&#45;&#45;&#45;&#45;&#45;&#45;</text>
<text text-anchor="start" x="2264.33" y="-516.51" font-family="Helvetica,sans-Serif" font-weight="bold" font-size="14.00">v_11=0.00</text>
</g>
<!-- 21&#45;&gt;31 -->
<g id="edge24" class="edge">
<title>21:s&#45;&gt;31:n</title>
<path fill="none" stroke="black" d="M1920.33,-637.71C1920.33,-637.71 2233.81,-596.19 2295.03,-588.07"/>
<polygon fill="black" stroke="black" points="2295.88,-591.49 2305.33,-586.71 2294.96,-584.55 2295.88,-591.49"/>
<text text-anchor="middle" x="2195.33" y="-608.51" font-family="Helvetica,sans-Serif" font-size="14.00">&gt; &#45;0.3376</text>
</g>
<!-- 23 -->
<g id="node26" class="node">
<title>23</title>
<polygon fill="#3dcc45" stroke="black" points="1924.83,-457.71 1751.83,-457.71 1751.83,-379.71 1924.83,-379.71 1924.83,-457.71"/>
<text text-anchor="start" x="1799.33" y="-443.51" font-family="Helvetica,sans-Serif" font-weight="bold" font-size="14.00"> Class=1 </text>
<text text-anchor="start" x="1872.33" y="-443.51" font-family="Helvetica,sans-Serif" font-size="14.00"> </text>
<text text-anchor="start" x="1759.83" y="-429.51" font-family="Helvetica,sans-Serif" font-size="14.00"> error: 0.369, n=1055 </text>
<text text-anchor="start" x="1783.33" y="-415.51" font-family="Helvetica,sans-Serif" font-size="14.00"> p: (0.93, 0.07) </text>
<text text-anchor="start" x="1814.33" y="-401.51" font-family="Helvetica,sans-Serif" font-size="14.00">&#45;&#45;&#45;&#45;&#45;&#45;&#45;&#45;&#45;</text>
<text text-anchor="start" x="1797.33" y="-387.51" font-family="Helvetica,sans-Serif" font-weight="bold" font-size="14.00">v_27=0.00</text>
</g>
<!-- 22&#45;&gt;23 -->
<g id="edge25" class="edge">
<title>22:s&#45;&gt;23:n</title>
<path fill="none" stroke="black" d="M1920.33,-508.71C1920.33,-508.71 1868.26,-476.33 1847.1,-463.17"/>
<polygon fill="black" stroke="black" points="1848.67,-460.02 1838.33,-457.71 1844.97,-465.96 1848.67,-460.02"/>
<text text-anchor="middle" x="1909.83" y="-479.51" font-family="Helvetica,sans-Serif" font-size="14.00">&lt;= &#45;1.194</text>
</g>
<!-- 27 -->
<g id="node27" class="node">
<title>27</title>
<polygon fill="#3dcc45" stroke="black" points="2169.83,-457.71 1996.83,-457.71 1996.83,-379.71 2169.83,-379.71 2169.83,-457.71"/>
<text text-anchor="start" x="2044.33" y="-443.51" font-family="Helvetica,sans-Serif" font-weight="bold" font-size="14.00"> Class=1 </text>
<text text-anchor="start" x="2117.33" y="-443.51" font-family="Helvetica,sans-Serif" font-size="14.00"> </text>
<text text-anchor="start" x="2004.83" y="-429.51" font-family="Helvetica,sans-Serif" font-size="14.00"> error: 0.876, n=1055 </text>
<text text-anchor="start" x="2028.33" y="-415.51" font-family="Helvetica,sans-Serif" font-size="14.00"> p: (0.70, 0.30) </text>
<text text-anchor="start" x="2061.83" y="-401.51" font-family="Helvetica,sans-Serif" font-size="14.00">&#45;&#45;&#45;&#45;&#45;&#45;&#45;&#45;</text>
<text text-anchor="start" x="2046.83" y="-387.51" font-family="Helvetica,sans-Serif" font-weight="bold" font-size="14.00">v_6=0.01</text>
</g>
<!-- 22&#45;&gt;27 -->
<g id="edge26" class="edge">
<title>22:s&#45;&gt;27:n</title>
<path fill="none" stroke="black" d="M1920.33,-508.71C1920.33,-508.71 2038.53,-471.73 2073.62,-460.75"/>
<polygon fill="black" stroke="black" points="2074.83,-464.04 2083.33,-457.71 2072.74,-457.36 2074.83,-464.04"/>
<text text-anchor="middle" x="2052.83" y="-479.51" font-family="Helvetica,sans-Serif" font-size="14.00">&gt; &#45;1.194</text>
</g>
<!-- 32 -->
<g id="node34" class="node">
<title>32</title>
<ellipse fill="#3dcc45" stroke="black" cx="2364.33" cy="-418.71" rx="122.16" ry="35.21"/>
<text text-anchor="start" x="2325.33" y="-429.51" font-family="Helvetica,sans-Serif" font-weight="bold" font-size="14.00"> Class=2 </text>
<text text-anchor="start" x="2398.33" y="-429.51" font-family="Helvetica,sans-Serif" font-size="14.00"> </text>
<text text-anchor="start" x="2285.83" y="-415.51" font-family="Helvetica,sans-Serif" font-size="14.00"> error: 0.768, n=1055 </text>
<text text-anchor="start" x="2309.33" y="-401.51" font-family="Helvetica,sans-Serif" font-size="14.00"> p: (0.22, 0.78) </text>
</g>
<!-- 31&#45;&gt;32 -->
<g id="edge33" class="edge">
<title>31:s&#45;&gt;32:n</title>
<path fill="none" stroke="black" d="M2305.33,-508.71C2305.33,-508.71 2340.62,-477.01 2356.62,-462.64"/>
<polygon fill="black" stroke="black" points="2359.23,-465 2364.33,-455.71 2354.55,-459.79 2359.23,-465"/>
<text text-anchor="middle" x="2386.33" y="-479.51" font-family="Helvetica,sans-Serif" font-size="14.00">&lt;= 0.09698</text>
</g>
<!-- 24 -->
<g id="node28" class="node">
<title>24</title>
<ellipse fill="#44e5a1" stroke="black" cx="1557.33" cy="-289.71" rx="122.16" ry="35.21"/>
<text text-anchor="start" x="1518.33" y="-300.51" font-family="Helvetica,sans-Serif" font-weight="bold" font-size="14.00"> Class=1 </text>
<text text-anchor="start" x="1591.33" y="-300.51" font-family="Helvetica,sans-Serif" font-size="14.00"> </text>
<text text-anchor="start" x="1478.83" y="-286.51" font-family="Helvetica,sans-Serif" font-size="14.00"> error: 0.000, n=1055 </text>
<text text-anchor="start" x="1502.33" y="-272.51" font-family="Helvetica,sans-Serif" font-size="14.00"> p: (1.00, 0.00) </text>
</g>
<!-- 23&#45;&gt;24 -->
<g id="edge27" class="edge">
<title>23:s&#45;&gt;24:n</title>
<path fill="none" stroke="black" d="M1838.33,-379.71C1838.33,-379.71 1617.39,-338.04 1567.33,-328.6"/>
<polygon fill="black" stroke="black" points="1567.8,-325.12 1557.33,-326.71 1566.51,-332 1567.8,-325.12"/>
<text text-anchor="middle" x="1777.83" y="-350.51" font-family="Helvetica,sans-Serif" font-size="14.00">&lt;= &#45;0.116</text>
</g>
<!-- 25 -->
<g id="node29" class="node">
<title>25</title>
<polygon fill="#44e5a1" stroke="black" points="1924.83,-328.71 1751.83,-328.71 1751.83,-250.71 1924.83,-250.71 1924.83,-328.71"/>
<text text-anchor="start" x="1799.33" y="-314.51" font-family="Helvetica,sans-Serif" font-weight="bold" font-size="14.00"> Class=1 </text>
<text text-anchor="start" x="1872.33" y="-314.51" font-family="Helvetica,sans-Serif" font-size="14.00"> </text>
<text text-anchor="start" x="1759.83" y="-300.51" font-family="Helvetica,sans-Serif" font-size="14.00"> error: 0.584, n=1055 </text>
<text text-anchor="start" x="1783.33" y="-286.51" font-family="Helvetica,sans-Serif" font-size="14.00"> p: (0.86, 0.14) </text>
<text text-anchor="start" x="1816.83" y="-272.51" font-family="Helvetica,sans-Serif" font-size="14.00">&#45;&#45;&#45;&#45;&#45;&#45;&#45;&#45;</text>
<text text-anchor="start" x="1801.83" y="-258.51" font-family="Helvetica,sans-Serif" font-weight="bold" font-size="14.00">v_0=0.48</text>
</g>
<!-- 23&#45;&gt;25 -->
<g id="edge28" class="edge">
<title>23:s&#45;&gt;25:n</title>
<path fill="none" stroke="black" d="M1838.33,-379.71C1838.33,-379.71 1838.33,-353.93 1838.33,-339.03"/>
<polygon fill="black" stroke="black" points="1841.83,-338.71 1838.33,-328.71 1834.83,-338.71 1841.83,-338.71"/>
<text text-anchor="middle" x="1869.83" y="-350.51" font-family="Helvetica,sans-Serif" font-size="14.00">&gt; &#45;0.116</text>
</g>
<!-- 28 -->
<g id="node31" class="node">
<title>28</title>
<polygon fill="#44e5a1" stroke="black" points="2178.83,-328.71 2005.83,-328.71 2005.83,-250.71 2178.83,-250.71 2178.83,-328.71"/>
<text text-anchor="start" x="2053.33" y="-314.51" font-family="Helvetica,sans-Serif" font-weight="bold" font-size="14.00"> Class=1 </text>
<text text-anchor="start" x="2126.33" y="-314.51" font-family="Helvetica,sans-Serif" font-size="14.00"> </text>
<text text-anchor="start" x="2013.83" y="-300.51" font-family="Helvetica,sans-Serif" font-size="14.00"> error: 0.727, n=1055 </text>
<text text-anchor="start" x="2037.33" y="-286.51" font-family="Helvetica,sans-Serif" font-size="14.00"> p: (0.80, 0.20) </text>
<text text-anchor="start" x="2068.33" y="-272.51" font-family="Helvetica,sans-Serif" font-size="14.00">&#45;&#45;&#45;&#45;&#45;&#45;&#45;&#45;&#45;</text>
<text text-anchor="start" x="2051.33" y="-258.51" font-family="Helvetica,sans-Serif" font-weight="bold" font-size="14.00">v_19=0.00</text>
</g>
<!-- 27&#45;&gt;28 -->
<g id="edge30" class="edge">
<title>27:s&#45;&gt;28:n</title>
<path fill="none" stroke="black" d="M2083.33,-379.71C2083.33,-379.71 2087.88,-353.93 2090.51,-339.03"/>
<polygon fill="black" stroke="black" points="2094.04,-339.17 2092.33,-328.71 2087.14,-337.95 2094.04,-339.17"/>
<text text-anchor="middle" x="2128.83" y="-350.51" font-family="Helvetica,sans-Serif" font-size="14.00">&lt;= 0.9053</text>
</g>
<!-- 26 -->
<g id="node30" class="node">
<title>26</title>
<ellipse fill="#3dc0cc" stroke="black" cx="1833.33" cy="-160.71" rx="122.16" ry="35.21"/>
<text text-anchor="start" x="1794.33" y="-171.51" font-family="Helvetica,sans-Serif" font-weight="bold" font-size="14.00"> Class=1 </text>
<text text-anchor="start" x="1867.33" y="-171.51" font-family="Helvetica,sans-Serif" font-size="14.00"> </text>
<text text-anchor="start" x="1754.83" y="-157.51" font-family="Helvetica,sans-Serif" font-size="14.00"> error: 0.303, n=1055 </text>
<text text-anchor="start" x="1778.33" y="-143.51" font-family="Helvetica,sans-Serif" font-size="14.00"> p: (0.95, 0.05) </text>
</g>
<!-- 25&#45;&gt;26 -->
<g id="edge29" class="edge">
<title>25:s&#45;&gt;26:n</title>
<path fill="none" stroke="black" d="M1838.33,-250.71C1838.33,-250.71 1835.75,-223.33 1834.29,-207.93"/>
<polygon fill="black" stroke="black" points="1837.75,-207.34 1833.33,-197.71 1830.78,-208 1837.75,-207.34"/>
<text text-anchor="middle" x="1868.83" y="-221.51" font-family="Helvetica,sans-Serif" font-size="14.00">&gt; &#45;9.292</text>
</g>
<!-- 29 -->
<g id="node32" class="node">
<title>29</title>
<polygon fill="#3dc0cc" stroke="black" points="2200.83,-199.71 2027.83,-199.71 2027.83,-121.71 2200.83,-121.71 2200.83,-199.71"/>
<text text-anchor="start" x="2075.33" y="-185.51" font-family="Helvetica,sans-Serif" font-weight="bold" font-size="14.00"> Class=1 </text>
<text text-anchor="start" x="2148.33" y="-185.51" font-family="Helvetica,sans-Serif" font-size="14.00"> </text>
<text text-anchor="start" x="2035.83" y="-171.51" font-family="Helvetica,sans-Serif" font-size="14.00"> error: 0.838, n=1055 </text>
<text text-anchor="start" x="2059.33" y="-157.51" font-family="Helvetica,sans-Serif" font-size="14.00"> p: (0.73, 0.27) </text>
<text text-anchor="start" x="2090.33" y="-143.51" font-family="Helvetica,sans-Serif" font-size="14.00">&#45;&#45;&#45;&#45;&#45;&#45;&#45;&#45;&#45;</text>
<text text-anchor="start" x="2073.33" y="-129.51" font-family="Helvetica,sans-Serif" font-weight="bold" font-size="14.00">v_17=0.00</text>
</g>
<!-- 28&#45;&gt;29 -->
<g id="edge31" class="edge">
<title>28:s&#45;&gt;29:n</title>
<path fill="none" stroke="black" d="M2092.33,-250.71C2092.33,-250.71 2103.94,-223.79 2110.29,-209.06"/>
<polygon fill="black" stroke="black" points="2113.58,-210.28 2114.33,-199.71 2107.15,-207.51 2113.58,-210.28"/>
<text text-anchor="middle" x="2145.83" y="-221.51" font-family="Helvetica,sans-Serif" font-size="14.00">&lt;= 0.1489</text>
</g>
<!-- 30 -->
<g id="node33" class="node">
<title>30</title>
<ellipse fill="#4485e5" stroke="black" cx="2114.33" cy="-35.36" rx="122.16" ry="35.21"/>
<text text-anchor="start" x="2075.33" y="-46.16" font-family="Helvetica,sans-Serif" font-weight="bold" font-size="14.00"> Class=1 </text>
<text text-anchor="start" x="2148.33" y="-46.16" font-family="Helvetica,sans-Serif" font-size="14.00"> </text>
<text text-anchor="start" x="2035.83" y="-32.16" font-family="Helvetica,sans-Serif" font-size="14.00"> error: 0.669, n=1055 </text>
<text text-anchor="start" x="2059.33" y="-18.16" font-family="Helvetica,sans-Serif" font-size="14.00"> p: (0.82, 0.17) </text>
</g>
<!-- 29&#45;&gt;30 -->
<g id="edge32" class="edge">
<title>29:s&#45;&gt;30:n</title>
<path fill="none" stroke="black" d="M2114.33,-121.71C2114.33,-121.71 2114.33,-95.93 2114.33,-81.03"/>
<polygon fill="black" stroke="black" points="2117.83,-80.71 2114.33,-70.71 2110.83,-80.71 2117.83,-80.71"/>
<text text-anchor="middle" x="2153.83" y="-92.51" font-family="Helvetica,sans-Serif" font-size="14.00">&lt;= 0.2781</text>
</g>
</g>
</svg>
