<?xml version="1.0" encoding="UTF-8" standalone="no"?>
<!DOCTYPE svg PUBLIC "-//W3C//DTD SVG 1.1//EN"
 "http://www.w3.org/Graphics/SVG/1.1/DTD/svg11.dtd">
<!-- Generated by graphviz version 2.43.0 (0)
 -->
<!-- Title: Tree Pages: 1 -->
<svg width="4049pt" height="438pt"
 viewBox="0.00 0.00 4048.66 437.71" xmlns="http://www.w3.org/2000/svg" xmlns:xlink="http://www.w3.org/1999/xlink">
<g id="graph0" class="graph" transform="scale(1 1) rotate(0) translate(18 419.71)">
<title>Tree</title>
<polygon fill="white" stroke="transparent" points="-18,18 -18,-419.71 4030.66,-419.71 4030.66,18 -18,18"/>
<!-- 0 -->
<g id="node1" class="node">
<title>0</title>
<polygon fill="white" stroke="transparent" points="2015.33,-401.71 1961.33,-401.71 1961.33,-365.71 2015.33,-365.71 2015.33,-401.71"/>
<text text-anchor="middle" x="1988.33" y="-380.01" font-family="Helvetica,sans-Serif" font-size="14.00">0</text>
</g>
<!-- 1 -->
<g id="node2" class="node">
<title>1</title>
<polygon fill="#cc3d3d" stroke="black" points="2074.83,-328.71 1901.83,-328.71 1901.83,-250.71 2074.83,-250.71 2074.83,-328.71"/>
<text text-anchor="start" x="1919.83" y="-314.51" font-family="Helvetica,sans-Serif" font-weight="bold" font-size="14.00"> Class=negative </text>
<text text-anchor="start" x="2051.83" y="-314.51" font-family="Helvetica,sans-Serif" font-size="14.00"> </text>
<text text-anchor="start" x="1909.83" y="-300.51" font-family="Helvetica,sans-Serif" font-size="14.00"> error: 0.332, n=3772 </text>
<text text-anchor="start" x="1933.33" y="-286.51" font-family="Helvetica,sans-Serif" font-size="14.00"> p: (0.94, 0.06) </text>
<text text-anchor="start" x="1982.83" y="-272.51" font-family="Helvetica,sans-Serif" font-size="14.00">&#45;&#45;</text>
<text text-anchor="start" x="1978.33" y="-258.51" font-family="Helvetica,sans-Serif" font-weight="bold" font-size="14.00">T3</text>
</g>
<!-- 0&#45;&gt;1 -->
<!-- 2 -->
<g id="node3" class="node">
<title>2</title>
<polygon fill="#64e544" stroke="black" points="208.83,-199.71 35.83,-199.71 35.83,-121.71 208.83,-121.71 208.83,-199.71"/>
<text text-anchor="start" x="53.83" y="-185.51" font-family="Helvetica,sans-Serif" font-weight="bold" font-size="14.00"> Class=negative </text>
<text text-anchor="start" x="185.83" y="-185.51" font-family="Helvetica,sans-Serif" font-size="14.00"> </text>
<text text-anchor="start" x="43.83" y="-171.51" font-family="Helvetica,sans-Serif" font-size="14.00"> error: 0.083, n=3772 </text>
<text text-anchor="start" x="67.33" y="-157.51" font-family="Helvetica,sans-Serif" font-size="14.00"> p: (0.99, 0.01) </text>
<text text-anchor="start" x="87.83" y="-143.51" font-family="Helvetica,sans-Serif" font-size="14.00">&#45;&#45;&#45;&#45;&#45;&#45;&#45;&#45;&#45;&#45;&#45;&#45;&#45;</text>
<text text-anchor="start" x="69.33" y="-129.51" font-family="Helvetica,sans-Serif" font-weight="bold" font-size="14.00">hypopituitary</text>
</g>
<!-- 1&#45;&gt;2 -->
<g id="edge2" class="edge">
<title>1:s&#45;&gt;2:n</title>
<path fill="none" stroke="black" d="M1988.33,-250.71C1988.33,-250.71 279.24,-204 132.37,-199.99"/>
<polygon fill="black" stroke="black" points="132.42,-196.49 122.33,-199.71 132.23,-203.48 132.42,-196.49"/>
<text text-anchor="middle" x="737.83" y="-221.51" font-family="Helvetica,sans-Serif" font-size="14.00">1.3</text>
</g>
<!-- 4 -->
<g id="node4" class="node">
<title>4</title>
<ellipse fill="#64e544" stroke="black" cx="403.33" cy="-160.71" rx="122.16" ry="35.21"/>
<text text-anchor="start" x="334.83" y="-171.51" font-family="Helvetica,sans-Serif" font-weight="bold" font-size="14.00"> Class=negative </text>
<text text-anchor="start" x="466.83" y="-171.51" font-family="Helvetica,sans-Serif" font-size="14.00"> </text>
<text text-anchor="start" x="324.83" y="-157.51" font-family="Helvetica,sans-Serif" font-size="14.00"> error: 0.000, n=3772 </text>
<text text-anchor="start" x="348.33" y="-143.51" font-family="Helvetica,sans-Serif" font-size="14.00"> p: (1.00, 0.00) </text>
</g>
<!-- 1&#45;&gt;4 -->
<g id="edge3" class="edge">
<title>1:s&#45;&gt;4:n</title>
<path fill="none" stroke="black" d="M1988.33,-250.71C1988.33,-250.71 548.44,-202.56 413.45,-198.05"/>
<polygon fill="black" stroke="black" points="413.44,-194.55 403.33,-197.71 413.21,-201.54 413.44,-194.55"/>
<text text-anchor="middle" x="1031.83" y="-221.51" font-family="Helvetica,sans-Serif" font-size="14.00">2.4</text>
</g>
<!-- 5 -->
<g id="node5" class="node">
<title>5</title>
<ellipse fill="#64e544" stroke="black" cx="720.33" cy="-160.71" rx="122.16" ry="35.21"/>
<text text-anchor="start" x="651.83" y="-171.51" font-family="Helvetica,sans-Serif" font-weight="bold" font-size="14.00"> Class=negative </text>
<text text-anchor="start" x="783.83" y="-171.51" font-family="Helvetica,sans-Serif" font-size="14.00"> </text>
<text text-anchor="start" x="641.83" y="-157.51" font-family="Helvetica,sans-Serif" font-size="14.00"> error: 0.000, n=3772 </text>
<text text-anchor="start" x="665.33" y="-143.51" font-family="Helvetica,sans-Serif" font-size="14.00"> p: (1.00, 0.00) </text>
</g>
<!-- 1&#45;&gt;5 -->
<g id="edge4" class="edge">
<title>1:s&#45;&gt;5:n</title>
<path fill="none" stroke="black" d="M1988.33,-250.71C1988.33,-250.71 850.54,-203.15 730.54,-198.14"/>
<polygon fill="black" stroke="black" points="730.47,-194.63 720.33,-197.71 730.17,-201.63 730.47,-194.63"/>
<text text-anchor="middle" x="1309.83" y="-221.51" font-family="Helvetica,sans-Serif" font-size="14.00">2.3</text>
</g>
<!-- 6 -->
<g id="node6" class="node">
<title>6</title>
<ellipse fill="#64e544" stroke="black" cx="1037.33" cy="-160.71" rx="122.16" ry="35.21"/>
<text text-anchor="start" x="968.83" y="-171.51" font-family="Helvetica,sans-Serif" font-weight="bold" font-size="14.00"> Class=negative </text>
<text text-anchor="start" x="1100.83" y="-171.51" font-family="Helvetica,sans-Serif" font-size="14.00"> </text>
<text text-anchor="start" x="958.83" y="-157.51" font-family="Helvetica,sans-Serif" font-size="14.00"> error: 0.107, n=3772 </text>
<text text-anchor="start" x="982.33" y="-143.51" font-family="Helvetica,sans-Serif" font-size="14.00"> p: (0.99, 0.01) </text>
</g>
<!-- 1&#45;&gt;6 -->
<g id="edge5" class="edge">
<title>1:s&#45;&gt;6:n</title>
<path fill="none" stroke="black" d="M1988.33,-250.71C1988.33,-250.71 1149,-203.93 1047.37,-198.27"/>
<polygon fill="black" stroke="black" points="1047.51,-194.77 1037.33,-197.71 1047.12,-201.76 1047.51,-194.77"/>
<text text-anchor="middle" x="1559.83" y="-221.51" font-family="Helvetica,sans-Serif" font-size="14.00">1.5</text>
</g>
<!-- 7 -->
<g id="node7" class="node">
<title>7</title>
<ellipse fill="#64e544" stroke="black" cx="1354.33" cy="-160.71" rx="122.16" ry="35.21"/>
<text text-anchor="start" x="1285.83" y="-171.51" font-family="Helvetica,sans-Serif" font-weight="bold" font-size="14.00"> Class=negative </text>
<text text-anchor="start" x="1417.83" y="-171.51" font-family="Helvetica,sans-Serif" font-size="14.00"> </text>
<text text-anchor="start" x="1275.83" y="-157.51" font-family="Helvetica,sans-Serif" font-size="14.00"> error: 0.076, n=3772 </text>
<text text-anchor="start" x="1299.33" y="-143.51" font-family="Helvetica,sans-Serif" font-size="14.00"> p: (0.99, 0.01) </text>
</g>
<!-- 1&#45;&gt;7 -->
<g id="edge6" class="edge">
<title>1:s&#45;&gt;7:n</title>
<path fill="none" stroke="black" d="M1988.33,-250.71C1988.33,-250.71 1446.09,-205.38 1364.54,-198.56"/>
<polygon fill="black" stroke="black" points="1364.59,-195.06 1354.33,-197.71 1364,-202.03 1364.59,-195.06"/>
<text text-anchor="middle" x="1762.83" y="-221.51" font-family="Helvetica,sans-Serif" font-size="14.00">1.4</text>
</g>
<!-- 8 -->
<g id="node8" class="node">
<title>8</title>
<ellipse fill="#64e544" stroke="black" cx="1671.33" cy="-160.71" rx="122.16" ry="35.21"/>
<text text-anchor="start" x="1602.83" y="-171.51" font-family="Helvetica,sans-Serif" font-weight="bold" font-size="14.00"> Class=negative </text>
<text text-anchor="start" x="1734.83" y="-171.51" font-family="Helvetica,sans-Serif" font-size="14.00"> </text>
<text text-anchor="start" x="1592.83" y="-157.51" font-family="Helvetica,sans-Serif" font-size="14.00"> error: 0.087, n=3772 </text>
<text text-anchor="start" x="1616.33" y="-143.51" font-family="Helvetica,sans-Serif" font-size="14.00"> p: (0.99, 0.01) </text>
</g>
<!-- 1&#45;&gt;8 -->
<g id="edge7" class="edge">
<title>1:s&#45;&gt;8:n</title>
<path fill="none" stroke="black" d="M1988.33,-250.71C1988.33,-250.71 1735.78,-208.49 1681.52,-199.41"/>
<polygon fill="black" stroke="black" points="1681.77,-195.91 1671.33,-197.71 1680.62,-202.81 1681.77,-195.91"/>
<text text-anchor="middle" x="1888.83" y="-221.51" font-family="Helvetica,sans-Serif" font-size="14.00">2.1</text>
</g>
<!-- 9 -->
<g id="node9" class="node">
<title>9</title>
<ellipse fill="#64e544" stroke="black" cx="1988.33" cy="-160.71" rx="122.16" ry="35.21"/>
<text text-anchor="start" x="1919.83" y="-171.51" font-family="Helvetica,sans-Serif" font-weight="bold" font-size="14.00"> Class=negative </text>
<text text-anchor="start" x="2051.83" y="-171.51" font-family="Helvetica,sans-Serif" font-size="14.00"> </text>
<text text-anchor="start" x="1909.83" y="-157.51" font-family="Helvetica,sans-Serif" font-size="14.00"> error: 0.138, n=3772 </text>
<text text-anchor="start" x="1933.33" y="-143.51" font-family="Helvetica,sans-Serif" font-size="14.00"> p: (0.98, 0.02) </text>
</g>
<!-- 1&#45;&gt;9 -->
<g id="edge8" class="edge">
<title>1:s&#45;&gt;9:n</title>
<path fill="none" stroke="black" d="M1988.33,-250.71C1988.33,-250.71 1988.33,-223.33 1988.33,-207.93"/>
<polygon fill="black" stroke="black" points="1991.83,-207.71 1988.33,-197.71 1984.83,-207.71 1991.83,-207.71"/>
<text text-anchor="middle" x="1999.83" y="-221.51" font-family="Helvetica,sans-Serif" font-size="14.00">1.8</text>
</g>
<!-- 10 -->
<g id="node10" class="node">
<title>10</title>
<ellipse fill="#64e544" stroke="black" cx="2305.33" cy="-160.71" rx="122.16" ry="35.21"/>
<text text-anchor="start" x="2236.83" y="-171.51" font-family="Helvetica,sans-Serif" font-weight="bold" font-size="14.00"> Class=negative </text>
<text text-anchor="start" x="2368.83" y="-171.51" font-family="Helvetica,sans-Serif" font-size="14.00"> </text>
<text text-anchor="start" x="2226.83" y="-157.51" font-family="Helvetica,sans-Serif" font-size="14.00"> error: 0.098, n=3772 </text>
<text text-anchor="start" x="2250.33" y="-143.51" font-family="Helvetica,sans-Serif" font-size="14.00"> p: (0.99, 0.01) </text>
</g>
<!-- 1&#45;&gt;10 -->
<g id="edge9" class="edge">
<title>1:s&#45;&gt;10:n</title>
<path fill="none" stroke="black" d="M1988.33,-250.71C1988.33,-250.71 2240.88,-208.49 2295.14,-199.41"/>
<polygon fill="black" stroke="black" points="2296.04,-202.81 2305.33,-197.71 2294.89,-195.91 2296.04,-202.81"/>
<text text-anchor="middle" x="2196.83" y="-221.51" font-family="Helvetica,sans-Serif" font-size="14.00">1.7</text>
</g>
<!-- 11 -->
<g id="node11" class="node">
<title>11</title>
<ellipse fill="#64e544" stroke="black" cx="2622.33" cy="-160.71" rx="122.16" ry="35.21"/>
<text text-anchor="start" x="2553.83" y="-171.51" font-family="Helvetica,sans-Serif" font-weight="bold" font-size="14.00"> Class=negative </text>
<text text-anchor="start" x="2685.83" y="-171.51" font-family="Helvetica,sans-Serif" font-size="14.00"> </text>
<text text-anchor="start" x="2543.83" y="-157.51" font-family="Helvetica,sans-Serif" font-size="14.00"> error: 0.000, n=3772 </text>
<text text-anchor="start" x="2567.33" y="-143.51" font-family="Helvetica,sans-Serif" font-size="14.00"> p: (1.00, 0.00) </text>
</g>
<!-- 1&#45;&gt;11 -->
<g id="edge10" class="edge">
<title>1:s&#45;&gt;11:n</title>
<path fill="none" stroke="black" d="M1988.33,-250.71C1988.33,-250.71 2530.57,-205.38 2612.11,-198.56"/>
<polygon fill="black" stroke="black" points="2612.66,-202.03 2622.33,-197.71 2612.07,-195.06 2612.66,-202.03"/>
<text text-anchor="middle" x="2400.83" y="-221.51" font-family="Helvetica,sans-Serif" font-size="14.00">1.6</text>
</g>
<!-- 12 -->
<g id="node12" class="node">
<title>12</title>
<ellipse fill="#64e544" stroke="black" cx="2939.33" cy="-160.71" rx="122.16" ry="35.21"/>
<text text-anchor="start" x="2870.83" y="-171.51" font-family="Helvetica,sans-Serif" font-weight="bold" font-size="14.00"> Class=negative </text>
<text text-anchor="start" x="3002.83" y="-171.51" font-family="Helvetica,sans-Serif" font-size="14.00"> </text>
<text text-anchor="start" x="2860.83" y="-157.51" font-family="Helvetica,sans-Serif" font-size="14.00"> error: 0.080, n=3772 </text>
<text text-anchor="start" x="2884.33" y="-143.51" font-family="Helvetica,sans-Serif" font-size="14.00"> p: (0.99, 0.01) </text>
</g>
<!-- 1&#45;&gt;12 -->
<g id="edge11" class="edge">
<title>1:s&#45;&gt;12:n</title>
<path fill="none" stroke="black" d="M1988.33,-250.71C1988.33,-250.71 2827.66,-203.93 2929.29,-198.27"/>
<polygon fill="black" stroke="black" points="2929.54,-201.76 2939.33,-197.71 2929.15,-194.77 2929.54,-201.76"/>
<text text-anchor="middle" x="2650.83" y="-221.51" font-family="Helvetica,sans-Serif" font-size="14.00">2.2</text>
</g>
<!-- 13 -->
<g id="node13" class="node">
<title>13</title>
<ellipse fill="#64e544" stroke="black" cx="3256.33" cy="-160.71" rx="122.16" ry="35.21"/>
<text text-anchor="start" x="3187.83" y="-171.51" font-family="Helvetica,sans-Serif" font-weight="bold" font-size="14.00"> Class=negative </text>
<text text-anchor="start" x="3319.83" y="-171.51" font-family="Helvetica,sans-Serif" font-size="14.00"> </text>
<text text-anchor="start" x="3177.83" y="-157.51" font-family="Helvetica,sans-Serif" font-size="14.00"> error: 0.048, n=3772 </text>
<text text-anchor="start" x="3201.33" y="-143.51" font-family="Helvetica,sans-Serif" font-size="14.00"> p: (0.99, 0.01) </text>
</g>
<!-- 1&#45;&gt;13 -->
<g id="edge12" class="edge">
<title>1:s&#45;&gt;13:n</title>
<path fill="none" stroke="black" d="M1988.33,-250.71C1988.33,-250.71 3126.12,-203.15 3246.12,-198.14"/>
<polygon fill="black" stroke="black" points="3246.48,-201.63 3256.33,-197.71 3246.19,-194.63 3246.48,-201.63"/>
<text text-anchor="middle" x="2928.83" y="-221.51" font-family="Helvetica,sans-Serif" font-size="14.00">1.9</text>
</g>
<!-- 14 -->
<g id="node14" class="node">
<title>14</title>
<ellipse fill="#64e544" stroke="black" cx="3573.33" cy="-160.71" rx="122.16" ry="35.21"/>
<text text-anchor="start" x="3504.83" y="-171.51" font-family="Helvetica,sans-Serif" font-weight="bold" font-size="14.00"> Class=negative </text>
<text text-anchor="start" x="3636.83" y="-171.51" font-family="Helvetica,sans-Serif" font-size="14.00"> </text>
<text text-anchor="start" x="3494.83" y="-157.51" font-family="Helvetica,sans-Serif" font-size="14.00"> error: 0.070, n=3772 </text>
<text text-anchor="start" x="3518.33" y="-143.51" font-family="Helvetica,sans-Serif" font-size="14.00"> p: (0.99, 0.01) </text>
</g>
<!-- 1&#45;&gt;14 -->
<g id="edge13" class="edge">
<title>1:s&#45;&gt;14:n</title>
<path fill="none" stroke="black" d="M1988.33,-250.71C1988.33,-250.71 3428.22,-202.56 3563.21,-198.05"/>
<polygon fill="black" stroke="black" points="3563.45,-201.54 3573.33,-197.71 3563.22,-194.55 3563.45,-201.54"/>
<text text-anchor="middle" x="3222.83" y="-221.51" font-family="Helvetica,sans-Serif" font-size="14.00">2.0</text>
</g>
<!-- 15 -->
<g id="node15" class="node">
<title>15</title>
<ellipse fill="#64e544" stroke="black" cx="3890.33" cy="-160.71" rx="122.16" ry="35.21"/>
<text text-anchor="start" x="3821.83" y="-171.51" font-family="Helvetica,sans-Serif" font-weight="bold" font-size="14.00"> Class=negative </text>
<text text-anchor="start" x="3953.83" y="-171.51" font-family="Helvetica,sans-Serif" font-size="14.00"> </text>
<text text-anchor="start" x="3811.83" y="-157.51" font-family="Helvetica,sans-Serif" font-size="14.00"> error: 0.118, n=3772 </text>
<text text-anchor="start" x="3835.33" y="-143.51" font-family="Helvetica,sans-Serif" font-size="14.00"> p: (0.98, 0.02) </text>
</g>
<!-- 1&#45;&gt;15 -->
<g id="edge14" class="edge">
<title>1:s&#45;&gt;15:n</title>
<path fill="none" stroke="black" d="M1988.33,-250.71C1988.33,-250.71 3730.39,-202.17 3880.1,-198"/>
<polygon fill="black" stroke="black" points="3880.43,-201.49 3890.33,-197.71 3880.24,-194.49 3880.43,-201.49"/>
<text text-anchor="middle" x="3525.83" y="-221.51" font-family="Helvetica,sans-Serif" font-size="14.00">2.5</text>
</g>
<!-- 3 -->
<g id="node16" class="node">
<title>3</title>
<ellipse fill="#3d76cc" stroke="black" cx="122.33" cy="-35.36" rx="122.16" ry="35.21"/>
<text text-anchor="start" x="53.83" y="-46.16" font-family="Helvetica,sans-Serif" font-weight="bold" font-size="14.00"> Class=negative </text>
<text text-anchor="start" x="185.83" y="-46.16" font-family="Helvetica,sans-Serif" font-size="14.00"> </text>
<text text-anchor="start" x="43.83" y="-32.16" font-family="Helvetica,sans-Serif" font-size="14.00"> error: 0.000, n=3772 </text>
<text text-anchor="start" x="67.33" y="-18.16" font-family="Helvetica,sans-Serif" font-size="14.00"> p: (1.00, 0.00) </text>
</g>
<!-- 2&#45;&gt;3 -->
<g id="edge15" class="edge">
<title>2:s&#45;&gt;3:n</title>
<path fill="none" stroke="black" d="M122.33,-121.71C122.33,-121.71 122.33,-95.93 122.33,-81.03"/>
<polygon fill="black" stroke="black" points="125.83,-80.71 122.33,-70.71 118.83,-80.71 125.83,-80.71"/>
<text text-anchor="middle" x="125.33" y="-92.51" font-family="Helvetica,sans-Serif" font-size="14.00">f</text>
</g>
</g>
</svg>
