<?xml version="1.0" encoding="UTF-8" standalone="no"?>
<!DOCTYPE svg PUBLIC "-//W3C//DTD SVG 1.1//EN"
 "http://www.w3.org/Graphics/SVG/1.1/DTD/svg11.dtd">
<!-- Generated by graphviz version 2.43.0 (0)
 -->
<!-- Title: Tree Pages: 1 -->
<svg width="890pt" height="567pt"
 viewBox="0.00 0.00 889.66 566.71" xmlns="http://www.w3.org/2000/svg" xmlns:xlink="http://www.w3.org/1999/xlink">
<g id="graph0" class="graph" transform="scale(1 1) rotate(0) translate(18 548.71)">
<title>Tree</title>
<polygon fill="white" stroke="transparent" points="-18,18 -18,-548.71 871.66,-548.71 871.66,18 -18,18"/>
<!-- 0 -->
<g id="node1" class="node">
<title>0</title>
<polygon fill="white" stroke="transparent" points="477.33,-530.71 423.33,-530.71 423.33,-494.71 477.33,-494.71 477.33,-530.71"/>
<text text-anchor="middle" x="450.33" y="-509.01" font-family="Helvetica,sans-Serif" font-size="14.00">0</text>
</g>
<!-- 1 -->
<g id="node2" class="node">
<title>1</title>
<polygon fill="#cc3d3d" stroke="black" points="536.83,-457.71 363.83,-457.71 363.83,-379.71 536.83,-379.71 536.83,-457.71"/>
<text text-anchor="start" x="381.83" y="-443.51" font-family="Helvetica,sans-Serif" font-weight="bold" font-size="14.00"> Class=negative </text>
<text text-anchor="start" x="513.83" y="-443.51" font-family="Helvetica,sans-Serif" font-size="14.00"> </text>
<text text-anchor="start" x="371.83" y="-429.51" font-family="Helvetica,sans-Serif" font-size="14.00"> error: 0.332, n=3772 </text>
<text text-anchor="start" x="395.33" y="-415.51" font-family="Helvetica,sans-Serif" font-size="14.00"> p: (0.94, 0.06) </text>
<text text-anchor="start" x="410.83" y="-401.51" font-family="Helvetica,sans-Serif" font-size="14.00">&#45;&#45;&#45;&#45;&#45;&#45;&#45;&#45;&#45;&#45;&#45;&#45;&#45;&#45;&#45;</text>
<text text-anchor="start" x="390.33" y="-387.51" font-family="Helvetica,sans-Serif" font-weight="bold" font-size="14.00">referral_source</text>
</g>
<!-- 0&#45;&gt;1 -->
<!-- 2 -->
<g id="node3" class="node">
<title>2</title>
<polygon fill="#c5e544" stroke="black" points="255.83,-328.71 82.83,-328.71 82.83,-250.71 255.83,-250.71 255.83,-328.71"/>
<text text-anchor="start" x="100.83" y="-314.51" font-family="Helvetica,sans-Serif" font-weight="bold" font-size="14.00"> Class=negative </text>
<text text-anchor="start" x="232.83" y="-314.51" font-family="Helvetica,sans-Serif" font-size="14.00"> </text>
<text text-anchor="start" x="90.83" y="-300.51" font-family="Helvetica,sans-Serif" font-size="14.00"> error: 0.680, n=3772 </text>
<text text-anchor="start" x="114.33" y="-286.51" font-family="Helvetica,sans-Serif" font-size="14.00"> p: (0.82, 0.18) </text>
<text text-anchor="start" x="163.83" y="-272.51" font-family="Helvetica,sans-Serif" font-size="14.00">&#45;&#45;</text>
<text text-anchor="start" x="159.33" y="-258.51" font-family="Helvetica,sans-Serif" font-weight="bold" font-size="14.00">T3</text>
</g>
<!-- 1&#45;&gt;2 -->
<g id="edge2" class="edge">
<title>1:s&#45;&gt;2:n</title>
<path fill="none" stroke="black" d="M450.33,-379.71C450.33,-379.71 229.39,-339.61 179.33,-330.53"/>
<polygon fill="black" stroke="black" points="179.79,-327.05 169.33,-328.71 178.54,-333.94 179.79,-327.05"/>
<text text-anchor="middle" x="355.33" y="-350.51" font-family="Helvetica,sans-Serif" font-size="14.00">SVI</text>
</g>
<!-- 7 -->
<g id="node4" class="node">
<title>7</title>
<ellipse fill="#c5e544" stroke="black" cx="450.33" cy="-289.71" rx="122.16" ry="35.21"/>
<text text-anchor="start" x="381.83" y="-300.51" font-family="Helvetica,sans-Serif" font-weight="bold" font-size="14.00"> Class=negative </text>
<text text-anchor="start" x="513.83" y="-300.51" font-family="Helvetica,sans-Serif" font-size="14.00"> </text>
<text text-anchor="start" x="371.83" y="-286.51" font-family="Helvetica,sans-Serif" font-size="14.00"> error: 0.112, n=3772 </text>
<text text-anchor="start" x="395.33" y="-272.51" font-family="Helvetica,sans-Serif" font-size="14.00"> p: (0.99, 0.01) </text>
</g>
<!-- 1&#45;&gt;7 -->
<g id="edge3" class="edge">
<title>1:s&#45;&gt;7:n</title>
<path fill="none" stroke="black" d="M450.33,-379.71C450.33,-379.71 450.33,-352.33 450.33,-336.93"/>
<polygon fill="black" stroke="black" points="453.83,-336.71 450.33,-326.71 446.83,-336.71 453.83,-336.71"/>
<text text-anchor="middle" x="468.83" y="-350.51" font-family="Helvetica,sans-Serif" font-size="14.00">other</text>
</g>
<!-- 8 -->
<g id="node5" class="node">
<title>8</title>
<polygon fill="#c5e544" stroke="black" points="817.83,-328.71 644.83,-328.71 644.83,-250.71 817.83,-250.71 817.83,-328.71"/>
<text text-anchor="start" x="662.83" y="-314.51" font-family="Helvetica,sans-Serif" font-weight="bold" font-size="14.00"> Class=negative </text>
<text text-anchor="start" x="794.83" y="-314.51" font-family="Helvetica,sans-Serif" font-size="14.00"> </text>
<text text-anchor="start" x="652.83" y="-300.51" font-family="Helvetica,sans-Serif" font-size="14.00"> error: 0.160, n=3772 </text>
<text text-anchor="start" x="676.33" y="-286.51" font-family="Helvetica,sans-Serif" font-size="14.00"> p: (0.98, 0.02) </text>
<text text-anchor="start" x="725.83" y="-272.51" font-family="Helvetica,sans-Serif" font-size="14.00">&#45;&#45;</text>
<text text-anchor="start" x="721.33" y="-258.51" font-family="Helvetica,sans-Serif" font-weight="bold" font-size="14.00">T3</text>
</g>
<!-- 1&#45;&gt;8 -->
<g id="edge4" class="edge">
<title>1:s&#45;&gt;8:n</title>
<path fill="none" stroke="black" d="M450.33,-379.71C450.33,-379.71 671.27,-339.61 721.33,-330.53"/>
<polygon fill="black" stroke="black" points="722.12,-333.94 731.33,-328.71 720.87,-327.05 722.12,-333.94"/>
<text text-anchor="middle" x="644.33" y="-350.51" font-family="Helvetica,sans-Serif" font-size="14.00">SVHC</text>
</g>
<!-- 3 -->
<g id="node6" class="node">
<title>3</title>
<polygon fill="#3dcc76" stroke="black" points="228.83,-199.71 55.83,-199.71 55.83,-121.71 228.83,-121.71 228.83,-199.71"/>
<text text-anchor="start" x="93.33" y="-185.51" font-family="Helvetica,sans-Serif" font-weight="bold" font-size="14.00"> Class=sick </text>
<text text-anchor="start" x="186.33" y="-185.51" font-family="Helvetica,sans-Serif" font-size="14.00"> </text>
<text text-anchor="start" x="63.83" y="-171.51" font-family="Helvetica,sans-Serif" font-size="14.00"> error: 0.759, n=3772 </text>
<text text-anchor="start" x="87.33" y="-157.51" font-family="Helvetica,sans-Serif" font-size="14.00"> p: (0.22, 0.78) </text>
<text text-anchor="start" x="134.33" y="-143.51" font-family="Helvetica,sans-Serif" font-size="14.00">&#45;&#45;&#45;</text>
<text text-anchor="start" x="127.33" y="-129.51" font-family="Helvetica,sans-Serif" font-weight="bold" font-size="14.00">TT4</text>
</g>
<!-- 2&#45;&gt;3 -->
<g id="edge5" class="edge">
<title>2:s&#45;&gt;3:n</title>
<path fill="none" stroke="black" d="M169.33,-250.71C169.33,-250.71 154.77,-223.21 147.03,-208.59"/>
<polygon fill="black" stroke="black" points="150.1,-206.91 142.33,-199.71 143.92,-210.19 150.1,-206.91"/>
<text text-anchor="middle" x="178.33" y="-221.51" font-family="Helvetica,sans-Serif" font-size="14.00">&lt;= 1</text>
</g>
<!-- 5 -->
<g id="node7" class="node">
<title>5</title>
<polygon fill="#3dcc76" stroke="black" points="505.83,-199.71 332.83,-199.71 332.83,-121.71 505.83,-121.71 505.83,-199.71"/>
<text text-anchor="start" x="350.83" y="-185.51" font-family="Helvetica,sans-Serif" font-weight="bold" font-size="14.00"> Class=negative </text>
<text text-anchor="start" x="482.83" y="-185.51" font-family="Helvetica,sans-Serif" font-size="14.00"> </text>
<text text-anchor="start" x="340.83" y="-171.51" font-family="Helvetica,sans-Serif" font-size="14.00"> error: 0.276, n=3772 </text>
<text text-anchor="start" x="364.33" y="-157.51" font-family="Helvetica,sans-Serif" font-size="14.00"> p: (0.95, 0.05) </text>
<text text-anchor="start" x="413.83" y="-143.51" font-family="Helvetica,sans-Serif" font-size="14.00">&#45;&#45;</text>
<text text-anchor="start" x="409.33" y="-129.51" font-family="Helvetica,sans-Serif" font-weight="bold" font-size="14.00">T3</text>
</g>
<!-- 2&#45;&gt;5 -->
<g id="edge6" class="edge">
<title>2:s&#45;&gt;5:n</title>
<path fill="none" stroke="black" d="M169.33,-250.71C169.33,-250.71 363.31,-211.14 409.53,-201.71"/>
<polygon fill="black" stroke="black" points="410.23,-205.14 419.33,-199.71 408.83,-198.28 410.23,-205.14"/>
<text text-anchor="middle" x="337.33" y="-221.51" font-family="Helvetica,sans-Serif" font-size="14.00">&gt; 1</text>
</g>
<!-- 9 -->
<g id="node10" class="node">
<title>9</title>
<ellipse fill="#3dcc76" stroke="black" cx="731.33" cy="-160.71" rx="122.16" ry="35.21"/>
<text text-anchor="start" x="662.83" y="-171.51" font-family="Helvetica,sans-Serif" font-weight="bold" font-size="14.00"> Class=negative </text>
<text text-anchor="start" x="794.83" y="-171.51" font-family="Helvetica,sans-Serif" font-size="14.00"> </text>
<text text-anchor="start" x="652.83" y="-157.51" font-family="Helvetica,sans-Serif" font-size="14.00"> error: 0.000, n=3772 </text>
<text text-anchor="start" x="676.33" y="-143.51" font-family="Helvetica,sans-Serif" font-size="14.00"> p: (1.00, 0.00) </text>
</g>
<!-- 8&#45;&gt;9 -->
<g id="edge9" class="edge">
<title>8:s&#45;&gt;9:n</title>
<path fill="none" stroke="black" d="M731.33,-250.71C731.33,-250.71 731.33,-223.33 731.33,-207.93"/>
<polygon fill="black" stroke="black" points="734.83,-207.71 731.33,-197.71 727.83,-207.71 734.83,-207.71"/>
<text text-anchor="middle" x="751.33" y="-221.51" font-family="Helvetica,sans-Serif" font-size="14.00">&gt; 1.5</text>
</g>
<!-- 4 -->
<g id="node8" class="node">
<title>4</title>
<ellipse fill="#4485e5" stroke="black" cx="122.33" cy="-35.36" rx="122.16" ry="35.21"/>
<text text-anchor="start" x="73.33" y="-46.16" font-family="Helvetica,sans-Serif" font-weight="bold" font-size="14.00"> Class=sick </text>
<text text-anchor="start" x="166.33" y="-46.16" font-family="Helvetica,sans-Serif" font-size="14.00"> </text>
<text text-anchor="start" x="43.83" y="-32.16" font-family="Helvetica,sans-Serif" font-size="14.00"> error: 0.355, n=3772 </text>
<text text-anchor="start" x="67.33" y="-18.16" font-family="Helvetica,sans-Serif" font-size="14.00"> p: (0.07, 0.93) </text>
</g>
<!-- 3&#45;&gt;4 -->
<g id="edge7" class="edge">
<title>3:s&#45;&gt;4:n</title>
<path fill="none" stroke="black" d="M142.33,-121.71C142.33,-121.71 131.77,-94.79 126,-80.06"/>
<polygon fill="black" stroke="black" points="129.24,-78.74 122.33,-70.71 122.72,-81.3 129.24,-78.74"/>
<text text-anchor="middle" x="152.83" y="-92.51" font-family="Helvetica,sans-Serif" font-size="14.00">&gt; 51</text>
</g>
<!-- 6 -->
<g id="node9" class="node">
<title>6</title>
<ellipse fill="#4485e5" stroke="black" cx="439.33" cy="-35.36" rx="122.16" ry="35.21"/>
<text text-anchor="start" x="370.83" y="-46.16" font-family="Helvetica,sans-Serif" font-weight="bold" font-size="14.00"> Class=negative </text>
<text text-anchor="start" x="502.83" y="-46.16" font-family="Helvetica,sans-Serif" font-size="14.00"> </text>
<text text-anchor="start" x="360.83" y="-32.16" font-family="Helvetica,sans-Serif" font-size="14.00"> error: 0.116, n=3772 </text>
<text text-anchor="start" x="384.33" y="-18.16" font-family="Helvetica,sans-Serif" font-size="14.00"> p: (0.98, 0.02) </text>
</g>
<!-- 5&#45;&gt;6 -->
<g id="edge8" class="edge">
<title>5:s&#45;&gt;6:n</title>
<path fill="none" stroke="black" d="M419.33,-121.71C419.33,-121.71 429.89,-94.79 435.66,-80.06"/>
<polygon fill="black" stroke="black" points="438.94,-81.3 439.33,-70.71 432.42,-78.74 438.94,-81.3"/>
<text text-anchor="middle" x="452.33" y="-92.51" font-family="Helvetica,sans-Serif" font-size="14.00">&gt; 1.1</text>
</g>
</g>
</svg>
