<?xml version="1.0" encoding="UTF-8" standalone="no"?>
<!DOCTYPE svg PUBLIC "-//W3C//DTD SVG 1.1//EN"
 "http://www.w3.org/Graphics/SVG/1.1/DTD/svg11.dtd">
<!-- Generated by graphviz version 2.43.0 (0)
 -->
<!-- Title: Tree Pages: 1 -->
<svg width="2762pt" height="1083pt"
 viewBox="0.00 0.00 2761.66 1082.71" xmlns="http://www.w3.org/2000/svg" xmlns:xlink="http://www.w3.org/1999/xlink">
<g id="graph0" class="graph" transform="scale(1 1) rotate(0) translate(18 1064.71)">
<title>Tree</title>
<polygon fill="white" stroke="transparent" points="-18,18 -18,-1064.71 2743.66,-1064.71 2743.66,18 -18,18"/>
<!-- 0 -->
<g id="node1" class="node">
<title>0</title>
<polygon fill="white" stroke="transparent" points="1625.33,-1046.71 1571.33,-1046.71 1571.33,-1010.71 1625.33,-1010.71 1625.33,-1046.71"/>
<text text-anchor="middle" x="1598.33" y="-1025.01" font-family="Helvetica,sans-Serif" font-size="14.00">0</text>
</g>
<!-- 1 -->
<g id="node2" class="node">
<title>1</title>
<polygon fill="#cc3d3d" stroke="black" points="1684.83,-973.71 1511.83,-973.71 1511.83,-895.71 1684.83,-895.71 1684.83,-973.71"/>
<text text-anchor="start" x="1559.33" y="-959.51" font-family="Helvetica,sans-Serif" font-weight="bold" font-size="14.00"> Class=0 </text>
<text text-anchor="start" x="1632.33" y="-959.51" font-family="Helvetica,sans-Serif" font-size="14.00"> </text>
<text text-anchor="start" x="1519.83" y="-945.51" font-family="Helvetica,sans-Serif" font-size="14.00"> error: 0.967, n=4601 </text>
<text text-anchor="start" x="1543.33" y="-931.51" font-family="Helvetica,sans-Serif" font-size="14.00"> p: (0.61, 0.39) </text>
<text text-anchor="start" x="1576.83" y="-917.51" font-family="Helvetica,sans-Serif" font-size="14.00">&#45;&#45;&#45;&#45;&#45;&#45;&#45;&#45;</text>
<text text-anchor="start" x="1561.83" y="-903.51" font-family="Helvetica,sans-Serif" font-weight="bold" font-size="14.00">v_4=0.00</text>
</g>
<!-- 0&#45;&gt;1 -->
<!-- 2 -->
<g id="node3" class="node">
<title>2</title>
<polygon fill="#e59744" stroke="black" points="1544.83,-844.71 1371.83,-844.71 1371.83,-766.71 1544.83,-766.71 1544.83,-844.71"/>
<text text-anchor="start" x="1419.33" y="-830.51" font-family="Helvetica,sans-Serif" font-weight="bold" font-size="14.00"> Class=1 </text>
<text text-anchor="start" x="1492.33" y="-830.51" font-family="Helvetica,sans-Serif" font-size="14.00"> </text>
<text text-anchor="start" x="1379.83" y="-816.51" font-family="Helvetica,sans-Serif" font-size="14.00"> error: 1.000, n=4601 </text>
<text text-anchor="start" x="1403.33" y="-802.51" font-family="Helvetica,sans-Serif" font-size="14.00"> p: (0.50, 0.50) </text>
<text text-anchor="start" x="1436.83" y="-788.51" font-family="Helvetica,sans-Serif" font-size="14.00">&#45;&#45;&#45;&#45;&#45;&#45;&#45;&#45;</text>
<text text-anchor="start" x="1421.83" y="-774.51" font-family="Helvetica,sans-Serif" font-weight="bold" font-size="14.00">v_0=0.93</text>
</g>
<!-- 1&#45;&gt;2 -->
<g id="edge2" class="edge">
<title>1:s&#45;&gt;2:n</title>
<path fill="none" stroke="black" d="M1598.33,-895.71C1598.33,-895.71 1499.58,-859.74 1467.95,-848.22"/>
<polygon fill="black" stroke="black" points="1468.92,-844.84 1458.33,-844.71 1466.53,-851.42 1468.92,-844.84"/>
<text text-anchor="middle" x="1581.33" y="-866.51" font-family="Helvetica,sans-Serif" font-size="14.00">&gt; &#45;0.9195</text>
</g>
<!-- 30 -->
<g id="node4" class="node">
<title>30</title>
<ellipse fill="#e59744" stroke="black" cx="1739.33" cy="-805.71" rx="122.16" ry="35.21"/>
<text text-anchor="start" x="1700.33" y="-816.51" font-family="Helvetica,sans-Serif" font-weight="bold" font-size="14.00"> Class=0 </text>
<text text-anchor="start" x="1773.33" y="-816.51" font-family="Helvetica,sans-Serif" font-size="14.00"> </text>
<text text-anchor="start" x="1660.83" y="-802.51" font-family="Helvetica,sans-Serif" font-size="14.00"> error: 0.323, n=4601 </text>
<text text-anchor="start" x="1684.33" y="-788.51" font-family="Helvetica,sans-Serif" font-size="14.00"> p: (0.94, 0.06) </text>
</g>
<!-- 1&#45;&gt;30 -->
<g id="edge3" class="edge">
<title>1:s&#45;&gt;30:n</title>
<path fill="none" stroke="black" d="M1598.33,-895.71C1598.33,-895.71 1697.78,-858.33 1729.64,-846.35"/>
<polygon fill="black" stroke="black" points="1731.2,-849.51 1739.33,-842.71 1728.74,-842.95 1731.2,-849.51"/>
<text text-anchor="middle" x="1728.33" y="-866.51" font-family="Helvetica,sans-Serif" font-size="14.00">&lt;= &#45;0.9195</text>
</g>
<!-- 3 -->
<g id="node5" class="node">
<title>3</title>
<polygon fill="#c8cc3d" stroke="black" points="1283.83,-715.71 1110.83,-715.71 1110.83,-637.71 1283.83,-637.71 1283.83,-715.71"/>
<text text-anchor="start" x="1158.33" y="-701.51" font-family="Helvetica,sans-Serif" font-weight="bold" font-size="14.00"> Class=0 </text>
<text text-anchor="start" x="1231.33" y="-701.51" font-family="Helvetica,sans-Serif" font-size="14.00"> </text>
<text text-anchor="start" x="1118.83" y="-687.51" font-family="Helvetica,sans-Serif" font-size="14.00"> error: 0.819, n=4601 </text>
<text text-anchor="start" x="1142.33" y="-673.51" font-family="Helvetica,sans-Serif" font-size="14.00"> p: (0.74, 0.26) </text>
<text text-anchor="start" x="1175.83" y="-659.51" font-family="Helvetica,sans-Serif" font-size="14.00">&#45;&#45;&#45;&#45;&#45;&#45;&#45;&#45;</text>
<text text-anchor="start" x="1160.83" y="-645.51" font-family="Helvetica,sans-Serif" font-weight="bold" font-size="14.00">v_0=0.93</text>
</g>
<!-- 2&#45;&gt;3 -->
<g id="edge4" class="edge">
<title>2:s&#45;&gt;3:n</title>
<path fill="none" stroke="black" d="M1458.33,-766.71C1458.33,-766.71 1254.92,-726.96 1207.24,-717.65"/>
<polygon fill="black" stroke="black" points="1207.82,-714.19 1197.33,-715.71 1206.47,-721.06 1207.82,-714.19"/>
<text text-anchor="middle" x="1396.83" y="-737.51" font-family="Helvetica,sans-Serif" font-size="14.00">&lt;= &#45;188.5</text>
</g>
<!-- 16 -->
<g id="node6" class="node">
<title>16</title>
<polygon fill="#c8cc3d" stroke="black" points="1942.83,-715.71 1769.83,-715.71 1769.83,-637.71 1942.83,-637.71 1942.83,-715.71"/>
<text text-anchor="start" x="1817.33" y="-701.51" font-family="Helvetica,sans-Serif" font-weight="bold" font-size="14.00"> Class=1 </text>
<text text-anchor="start" x="1890.33" y="-701.51" font-family="Helvetica,sans-Serif" font-size="14.00"> </text>
<text text-anchor="start" x="1777.83" y="-687.51" font-family="Helvetica,sans-Serif" font-size="14.00"> error: 0.786, n=4601 </text>
<text text-anchor="start" x="1801.33" y="-673.51" font-family="Helvetica,sans-Serif" font-size="14.00"> p: (0.23, 0.77) </text>
<text text-anchor="start" x="1834.83" y="-659.51" font-family="Helvetica,sans-Serif" font-size="14.00">&#45;&#45;&#45;&#45;&#45;&#45;&#45;&#45;</text>
<text text-anchor="start" x="1819.83" y="-645.51" font-family="Helvetica,sans-Serif" font-weight="bold" font-size="14.00">v_4=0.00</text>
</g>
<!-- 2&#45;&gt;16 -->
<g id="edge5" class="edge">
<title>2:s&#45;&gt;16:n</title>
<path fill="none" stroke="black" d="M1458.33,-766.71C1458.33,-766.71 1783.8,-725.01 1846.09,-717.02"/>
<polygon fill="black" stroke="black" points="1846.86,-720.45 1856.33,-715.71 1845.97,-713.51 1846.86,-720.45"/>
<text text-anchor="middle" x="1736.83" y="-737.51" font-family="Helvetica,sans-Serif" font-size="14.00">&gt; &#45;188.5</text>
</g>
<!-- 4 -->
<g id="node7" class="node">
<title>4</title>
<polygon fill="#8ee544" stroke="black" points="525.83,-586.71 352.83,-586.71 352.83,-508.71 525.83,-508.71 525.83,-586.71"/>
<text text-anchor="start" x="400.33" y="-572.51" font-family="Helvetica,sans-Serif" font-weight="bold" font-size="14.00"> Class=0 </text>
<text text-anchor="start" x="473.33" y="-572.51" font-family="Helvetica,sans-Serif" font-size="14.00"> </text>
<text text-anchor="start" x="360.83" y="-558.51" font-family="Helvetica,sans-Serif" font-size="14.00"> error: 0.512, n=4601 </text>
<text text-anchor="start" x="384.33" y="-544.51" font-family="Helvetica,sans-Serif" font-size="14.00"> p: (0.89, 0.11) </text>
<text text-anchor="start" x="415.33" y="-530.51" font-family="Helvetica,sans-Serif" font-size="14.00">&#45;&#45;&#45;&#45;&#45;&#45;&#45;&#45;&#45;</text>
<text text-anchor="start" x="398.33" y="-516.51" font-family="Helvetica,sans-Serif" font-weight="bold" font-size="14.00">v_12=0.00</text>
</g>
<!-- 3&#45;&gt;4 -->
<g id="edge6" class="edge">
<title>3:s&#45;&gt;4:n</title>
<path fill="none" stroke="black" d="M1197.33,-637.71C1197.33,-637.71 539.42,-593.45 449.47,-587.39"/>
<polygon fill="black" stroke="black" points="449.54,-583.89 439.33,-586.71 449.07,-590.87 449.54,-583.89"/>
<text text-anchor="middle" x="946.83" y="-608.51" font-family="Helvetica,sans-Serif" font-size="14.00">&lt;= &#45;250.2</text>
</g>
<!-- 9 -->
<g id="node8" class="node">
<title>9</title>
<polygon fill="#8ee544" stroke="black" points="1283.83,-586.71 1110.83,-586.71 1110.83,-508.71 1283.83,-508.71 1283.83,-586.71"/>
<text text-anchor="start" x="1158.33" y="-572.51" font-family="Helvetica,sans-Serif" font-weight="bold" font-size="14.00"> Class=0 </text>
<text text-anchor="start" x="1231.33" y="-572.51" font-family="Helvetica,sans-Serif" font-size="14.00"> </text>
<text text-anchor="start" x="1118.83" y="-558.51" font-family="Helvetica,sans-Serif" font-size="14.00"> error: 0.981, n=4601 </text>
<text text-anchor="start" x="1142.33" y="-544.51" font-family="Helvetica,sans-Serif" font-size="14.00"> p: (0.58, 0.42) </text>
<text text-anchor="start" x="1173.33" y="-530.51" font-family="Helvetica,sans-Serif" font-size="14.00">&#45;&#45;&#45;&#45;&#45;&#45;&#45;&#45;&#45;</text>
<text text-anchor="start" x="1156.33" y="-516.51" font-family="Helvetica,sans-Serif" font-weight="bold" font-size="14.00">v_13=0.00</text>
</g>
<!-- 3&#45;&gt;9 -->
<g id="edge7" class="edge">
<title>3:s&#45;&gt;9:n</title>
<path fill="none" stroke="black" d="M1197.33,-637.71C1197.33,-637.71 1197.33,-611.93 1197.33,-597.03"/>
<polygon fill="black" stroke="black" points="1200.83,-596.71 1197.33,-586.71 1193.83,-596.71 1200.83,-596.71"/>
<text text-anchor="middle" x="1228.83" y="-608.51" font-family="Helvetica,sans-Serif" font-size="14.00">&gt; &#45;250.2</text>
</g>
<!-- 17 -->
<g id="node19" class="node">
<title>17</title>
<polygon fill="#8ee544" stroke="black" points="1942.83,-586.71 1769.83,-586.71 1769.83,-508.71 1942.83,-508.71 1942.83,-586.71"/>
<text text-anchor="start" x="1817.33" y="-572.51" font-family="Helvetica,sans-Serif" font-weight="bold" font-size="14.00"> Class=1 </text>
<text text-anchor="start" x="1890.33" y="-572.51" font-family="Helvetica,sans-Serif" font-size="14.00"> </text>
<text text-anchor="start" x="1777.83" y="-558.51" font-family="Helvetica,sans-Serif" font-size="14.00"> error: 0.962, n=4601 </text>
<text text-anchor="start" x="1801.33" y="-544.51" font-family="Helvetica,sans-Serif" font-size="14.00"> p: (0.39, 0.61) </text>
<text text-anchor="start" x="1832.33" y="-530.51" font-family="Helvetica,sans-Serif" font-size="14.00">&#45;&#45;&#45;&#45;&#45;&#45;&#45;&#45;&#45;</text>
<text text-anchor="start" x="1815.33" y="-516.51" font-family="Helvetica,sans-Serif" font-weight="bold" font-size="14.00">v_13=0.00</text>
</g>
<!-- 16&#45;&gt;17 -->
<g id="edge18" class="edge">
<title>16:s&#45;&gt;17:n</title>
<path fill="none" stroke="black" d="M1856.33,-637.71C1856.33,-637.71 1856.33,-611.93 1856.33,-597.03"/>
<polygon fill="black" stroke="black" points="1859.83,-596.71 1856.33,-586.71 1852.83,-596.71 1859.83,-596.71"/>
<text text-anchor="middle" x="1891.33" y="-608.51" font-family="Helvetica,sans-Serif" font-size="14.00">&lt;= 0.773</text>
</g>
<!-- 24 -->
<g id="node20" class="node">
<title>24</title>
<polygon fill="#8ee544" stroke="black" points="2401.83,-586.71 2228.83,-586.71 2228.83,-508.71 2401.83,-508.71 2401.83,-586.71"/>
<text text-anchor="start" x="2276.33" y="-572.51" font-family="Helvetica,sans-Serif" font-weight="bold" font-size="14.00"> Class=1 </text>
<text text-anchor="start" x="2349.33" y="-572.51" font-family="Helvetica,sans-Serif" font-size="14.00"> </text>
<text text-anchor="start" x="2236.83" y="-558.51" font-family="Helvetica,sans-Serif" font-size="14.00"> error: 0.413, n=4601 </text>
<text text-anchor="start" x="2260.33" y="-544.51" font-family="Helvetica,sans-Serif" font-size="14.00"> p: (0.08, 0.92) </text>
<text text-anchor="start" x="2291.33" y="-530.51" font-family="Helvetica,sans-Serif" font-size="14.00">&#45;&#45;&#45;&#45;&#45;&#45;&#45;&#45;&#45;</text>
<text text-anchor="start" x="2274.33" y="-516.51" font-family="Helvetica,sans-Serif" font-weight="bold" font-size="14.00">v_28=0.00</text>
</g>
<!-- 16&#45;&gt;24 -->
<g id="edge19" class="edge">
<title>16:s&#45;&gt;24:n</title>
<path fill="none" stroke="black" d="M1856.33,-637.71C1856.33,-637.71 2238.19,-595.28 2305.32,-587.82"/>
<polygon fill="black" stroke="black" points="2305.78,-591.29 2315.33,-586.71 2305,-584.34 2305.78,-591.29"/>
<text text-anchor="middle" x="2170.33" y="-608.51" font-family="Helvetica,sans-Serif" font-size="14.00">&gt; 0.773</text>
</g>
<!-- 5 -->
<g id="node9" class="node">
<title>5</title>
<ellipse fill="#3dcc45" stroke="black" cx="158.33" cy="-418.71" rx="122.16" ry="35.21"/>
<text text-anchor="start" x="119.33" y="-429.51" font-family="Helvetica,sans-Serif" font-weight="bold" font-size="14.00"> Class=0 </text>
<text text-anchor="start" x="192.33" y="-429.51" font-family="Helvetica,sans-Serif" font-size="14.00"> </text>
<text text-anchor="start" x="79.83" y="-415.51" font-family="Helvetica,sans-Serif" font-size="14.00"> error: 0.896, n=4601 </text>
<text text-anchor="start" x="103.33" y="-401.51" font-family="Helvetica,sans-Serif" font-size="14.00"> p: (0.69, 0.31) </text>
</g>
<!-- 4&#45;&gt;5 -->
<g id="edge8" class="edge">
<title>4:s&#45;&gt;5:n</title>
<path fill="none" stroke="black" d="M439.33,-508.71C439.33,-508.71 218.39,-467.04 168.33,-457.6"/>
<polygon fill="black" stroke="black" points="168.8,-454.12 158.33,-455.71 167.51,-461 168.8,-454.12"/>
<text text-anchor="middle" x="379.33" y="-479.51" font-family="Helvetica,sans-Serif" font-size="14.00">&lt;= &#45;0.3564</text>
</g>
<!-- 6 -->
<g id="node10" class="node">
<title>6</title>
<polygon fill="#3dcc45" stroke="black" points="525.83,-457.71 352.83,-457.71 352.83,-379.71 525.83,-379.71 525.83,-457.71"/>
<text text-anchor="start" x="400.33" y="-443.51" font-family="Helvetica,sans-Serif" font-weight="bold" font-size="14.00"> Class=0 </text>
<text text-anchor="start" x="473.33" y="-443.51" font-family="Helvetica,sans-Serif" font-size="14.00"> </text>
<text text-anchor="start" x="360.83" y="-429.51" font-family="Helvetica,sans-Serif" font-size="14.00"> error: 0.326, n=4601 </text>
<text text-anchor="start" x="384.33" y="-415.51" font-family="Helvetica,sans-Serif" font-size="14.00"> p: (0.94, 0.06) </text>
<text text-anchor="start" x="417.83" y="-401.51" font-family="Helvetica,sans-Serif" font-size="14.00">&#45;&#45;&#45;&#45;&#45;&#45;&#45;&#45;</text>
<text text-anchor="start" x="402.83" y="-387.51" font-family="Helvetica,sans-Serif" font-weight="bold" font-size="14.00">v_3=0.00</text>
</g>
<!-- 4&#45;&gt;6 -->
<g id="edge9" class="edge">
<title>4:s&#45;&gt;6:n</title>
<path fill="none" stroke="black" d="M439.33,-508.71C439.33,-508.71 439.33,-482.93 439.33,-468.03"/>
<polygon fill="black" stroke="black" points="442.83,-467.71 439.33,-457.71 435.83,-467.71 442.83,-467.71"/>
<text text-anchor="middle" x="475.33" y="-479.51" font-family="Helvetica,sans-Serif" font-size="14.00">&gt; &#45;0.3564</text>
</g>
<!-- 10 -->
<g id="node13" class="node">
<title>10</title>
<polygon fill="#3dcc45" stroke="black" points="1159.83,-457.71 986.83,-457.71 986.83,-379.71 1159.83,-379.71 1159.83,-457.71"/>
<text text-anchor="start" x="1034.33" y="-443.51" font-family="Helvetica,sans-Serif" font-weight="bold" font-size="14.00"> Class=1 </text>
<text text-anchor="start" x="1107.33" y="-443.51" font-family="Helvetica,sans-Serif" font-size="14.00"> </text>
<text text-anchor="start" x="994.83" y="-429.51" font-family="Helvetica,sans-Serif" font-size="14.00"> error: 0.981, n=4601 </text>
<text text-anchor="start" x="1018.33" y="-415.51" font-family="Helvetica,sans-Serif" font-size="14.00"> p: (0.42, 0.58) </text>
<text text-anchor="start" x="1049.33" y="-401.51" font-family="Helvetica,sans-Serif" font-size="14.00">&#45;&#45;&#45;&#45;&#45;&#45;&#45;&#45;&#45;</text>
<text text-anchor="start" x="1032.33" y="-387.51" font-family="Helvetica,sans-Serif" font-weight="bold" font-size="14.00">v_24=0.00</text>
</g>
<!-- 9&#45;&gt;10 -->
<g id="edge12" class="edge">
<title>9:s&#45;&gt;10:n</title>
<path fill="none" stroke="black" d="M1197.33,-508.71C1197.33,-508.71 1111.49,-473.4 1082.65,-461.54"/>
<polygon fill="black" stroke="black" points="1083.91,-458.28 1073.33,-457.71 1081.25,-464.75 1083.91,-458.28"/>
<text text-anchor="middle" x="1192.33" y="-479.51" font-family="Helvetica,sans-Serif" font-size="14.00">&lt;= &#45;0.1089</text>
</g>
<!-- 13 -->
<g id="node14" class="node">
<title>13</title>
<polygon fill="#3dcc45" stroke="black" points="1476.83,-457.71 1303.83,-457.71 1303.83,-379.71 1476.83,-379.71 1476.83,-457.71"/>
<text text-anchor="start" x="1351.33" y="-443.51" font-family="Helvetica,sans-Serif" font-weight="bold" font-size="14.00"> Class=0 </text>
<text text-anchor="start" x="1424.33" y="-443.51" font-family="Helvetica,sans-Serif" font-size="14.00"> </text>
<text text-anchor="start" x="1311.83" y="-429.51" font-family="Helvetica,sans-Serif" font-size="14.00"> error: 0.824, n=4601 </text>
<text text-anchor="start" x="1335.33" y="-415.51" font-family="Helvetica,sans-Serif" font-size="14.00"> p: (0.74, 0.26) </text>
<text text-anchor="start" x="1368.83" y="-401.51" font-family="Helvetica,sans-Serif" font-size="14.00">&#45;&#45;&#45;&#45;&#45;&#45;&#45;&#45;</text>
<text text-anchor="start" x="1353.83" y="-387.51" font-family="Helvetica,sans-Serif" font-weight="bold" font-size="14.00">v_4=0.00</text>
</g>
<!-- 9&#45;&gt;13 -->
<g id="edge13" class="edge">
<title>9:s&#45;&gt;13:n</title>
<path fill="none" stroke="black" d="M1197.33,-508.71C1197.33,-508.71 1341.16,-470.7 1380.49,-460.31"/>
<polygon fill="black" stroke="black" points="1381.56,-463.65 1390.33,-457.71 1379.77,-456.88 1381.56,-463.65"/>
<text text-anchor="middle" x="1353.33" y="-479.51" font-family="Helvetica,sans-Serif" font-size="14.00">&gt; &#45;0.1089</text>
</g>
<!-- 7 -->
<g id="node11" class="node">
<title>7</title>
<ellipse fill="#44e5a1" stroke="black" cx="122.33" cy="-289.71" rx="122.16" ry="35.21"/>
<text text-anchor="start" x="83.33" y="-300.51" font-family="Helvetica,sans-Serif" font-weight="bold" font-size="14.00"> Class=0 </text>
<text text-anchor="start" x="156.33" y="-300.51" font-family="Helvetica,sans-Serif" font-size="14.00"> </text>
<text text-anchor="start" x="43.83" y="-286.51" font-family="Helvetica,sans-Serif" font-size="14.00"> error: 0.554, n=4601 </text>
<text text-anchor="start" x="67.33" y="-272.51" font-family="Helvetica,sans-Serif" font-size="14.00"> p: (0.87, 0.13) </text>
</g>
<!-- 6&#45;&gt;7 -->
<g id="edge10" class="edge">
<title>6:s&#45;&gt;7:n</title>
<path fill="none" stroke="black" d="M439.33,-379.71C439.33,-379.71 186.78,-337.49 132.52,-328.41"/>
<polygon fill="black" stroke="black" points="132.77,-324.91 122.33,-326.71 131.62,-331.81 132.77,-324.91"/>
<text text-anchor="middle" x="370.33" y="-350.51" font-family="Helvetica,sans-Serif" font-size="14.00">&lt;= &#45;0.7927</text>
</g>
<!-- 8 -->
<g id="node12" class="node">
<title>8</title>
<ellipse fill="#44e5a1" stroke="black" cx="439.33" cy="-289.71" rx="122.16" ry="35.21"/>
<text text-anchor="start" x="400.33" y="-300.51" font-family="Helvetica,sans-Serif" font-weight="bold" font-size="14.00"> Class=0 </text>
<text text-anchor="start" x="473.33" y="-300.51" font-family="Helvetica,sans-Serif" font-size="14.00"> </text>
<text text-anchor="start" x="360.83" y="-286.51" font-family="Helvetica,sans-Serif" font-size="14.00"> error: 0.102, n=4601 </text>
<text text-anchor="start" x="384.33" y="-272.51" font-family="Helvetica,sans-Serif" font-size="14.00"> p: (0.99, 0.01) </text>
</g>
<!-- 6&#45;&gt;8 -->
<g id="edge11" class="edge">
<title>6:s&#45;&gt;8:n</title>
<path fill="none" stroke="black" d="M439.33,-379.71C439.33,-379.71 439.33,-352.33 439.33,-336.93"/>
<polygon fill="black" stroke="black" points="442.83,-336.71 439.33,-326.71 435.83,-336.71 442.83,-336.71"/>
<text text-anchor="middle" x="475.33" y="-350.51" font-family="Helvetica,sans-Serif" font-size="14.00">&gt; &#45;0.7927</text>
</g>
<!-- 11 -->
<g id="node15" class="node">
<title>11</title>
<ellipse fill="#44e5a1" stroke="black" cx="756.33" cy="-289.71" rx="122.16" ry="35.21"/>
<text text-anchor="start" x="717.33" y="-300.51" font-family="Helvetica,sans-Serif" font-weight="bold" font-size="14.00"> Class=1 </text>
<text text-anchor="start" x="790.33" y="-300.51" font-family="Helvetica,sans-Serif" font-size="14.00"> </text>
<text text-anchor="start" x="677.83" y="-286.51" font-family="Helvetica,sans-Serif" font-size="14.00"> error: 0.828, n=4601 </text>
<text text-anchor="start" x="701.33" y="-272.51" font-family="Helvetica,sans-Serif" font-size="14.00"> p: (0.26, 0.74) </text>
</g>
<!-- 10&#45;&gt;11 -->
<g id="edge14" class="edge">
<title>10:s&#45;&gt;11:n</title>
<path fill="none" stroke="black" d="M1073.33,-379.71C1073.33,-379.71 820.78,-337.49 766.52,-328.41"/>
<polygon fill="black" stroke="black" points="766.77,-324.91 756.33,-326.71 765.62,-331.81 766.77,-324.91"/>
<text text-anchor="middle" x="1004.33" y="-350.51" font-family="Helvetica,sans-Serif" font-size="14.00">&lt;= &#45;0.1715</text>
</g>
<!-- 12 -->
<g id="node16" class="node">
<title>12</title>
<ellipse fill="#44e5a1" stroke="black" cx="1073.33" cy="-289.71" rx="122.16" ry="35.21"/>
<text text-anchor="start" x="1034.33" y="-300.51" font-family="Helvetica,sans-Serif" font-weight="bold" font-size="14.00"> Class=0 </text>
<text text-anchor="start" x="1107.33" y="-300.51" font-family="Helvetica,sans-Serif" font-size="14.00"> </text>
<text text-anchor="start" x="994.83" y="-286.51" font-family="Helvetica,sans-Serif" font-size="14.00"> error: 0.979, n=4601 </text>
<text text-anchor="start" x="1018.33" y="-272.51" font-family="Helvetica,sans-Serif" font-size="14.00"> p: (0.58, 0.42) </text>
</g>
<!-- 10&#45;&gt;12 -->
<g id="edge15" class="edge">
<title>10:s&#45;&gt;12:n</title>
<path fill="none" stroke="black" d="M1073.33,-379.71C1073.33,-379.71 1073.33,-352.33 1073.33,-336.93"/>
<polygon fill="black" stroke="black" points="1076.83,-336.71 1073.33,-326.71 1069.83,-336.71 1076.83,-336.71"/>
<text text-anchor="middle" x="1109.33" y="-350.51" font-family="Helvetica,sans-Serif" font-size="14.00">&gt; &#45;0.1715</text>
</g>
<!-- 14 -->
<g id="node17" class="node">
<title>14</title>
<ellipse fill="#44e5a1" stroke="black" cx="1390.33" cy="-289.71" rx="122.16" ry="35.21"/>
<text text-anchor="start" x="1351.33" y="-300.51" font-family="Helvetica,sans-Serif" font-weight="bold" font-size="14.00"> Class=0 </text>
<text text-anchor="start" x="1424.33" y="-300.51" font-family="Helvetica,sans-Serif" font-size="14.00"> </text>
<text text-anchor="start" x="1311.83" y="-286.51" font-family="Helvetica,sans-Serif" font-size="14.00"> error: 0.386, n=4601 </text>
<text text-anchor="start" x="1335.33" y="-272.51" font-family="Helvetica,sans-Serif" font-size="14.00"> p: (0.92, 0.08) </text>
</g>
<!-- 13&#45;&gt;14 -->
<g id="edge16" class="edge">
<title>13:s&#45;&gt;14:n</title>
<path fill="none" stroke="black" d="M1390.33,-379.71C1390.33,-379.71 1390.33,-352.33 1390.33,-336.93"/>
<polygon fill="black" stroke="black" points="1393.83,-336.71 1390.33,-326.71 1386.83,-336.71 1393.83,-336.71"/>
<text text-anchor="middle" x="1429.83" y="-350.51" font-family="Helvetica,sans-Serif" font-size="14.00">&lt;= 0.7076</text>
</g>
<!-- 15 -->
<g id="node18" class="node">
<title>15</title>
<ellipse fill="#44e5a1" stroke="black" cx="1707.33" cy="-289.71" rx="122.16" ry="35.21"/>
<text text-anchor="start" x="1668.33" y="-300.51" font-family="Helvetica,sans-Serif" font-weight="bold" font-size="14.00"> Class=0 </text>
<text text-anchor="start" x="1741.33" y="-300.51" font-family="Helvetica,sans-Serif" font-size="14.00"> </text>
<text text-anchor="start" x="1628.83" y="-286.51" font-family="Helvetica,sans-Serif" font-size="14.00"> error: 0.984, n=4601 </text>
<text text-anchor="start" x="1652.33" y="-272.51" font-family="Helvetica,sans-Serif" font-size="14.00"> p: (0.58, 0.42) </text>
</g>
<!-- 13&#45;&gt;15 -->
<g id="edge17" class="edge">
<title>13:s&#45;&gt;15:n</title>
<path fill="none" stroke="black" d="M1390.33,-379.71C1390.33,-379.71 1642.88,-337.49 1697.14,-328.41"/>
<polygon fill="black" stroke="black" points="1698.04,-331.81 1707.33,-326.71 1696.89,-324.91 1698.04,-331.81"/>
<text text-anchor="middle" x="1620.83" y="-350.51" font-family="Helvetica,sans-Serif" font-size="14.00">&gt; 0.7076</text>
</g>
<!-- 18 -->
<g id="node21" class="node">
<title>18</title>
<ellipse fill="#3dcc45" stroke="black" cx="1752.33" cy="-418.71" rx="122.16" ry="35.21"/>
<text text-anchor="start" x="1713.33" y="-429.51" font-family="Helvetica,sans-Serif" font-weight="bold" font-size="14.00"> Class=1 </text>
<text text-anchor="start" x="1786.33" y="-429.51" font-family="Helvetica,sans-Serif" font-size="14.00"> </text>
<text text-anchor="start" x="1673.83" y="-415.51" font-family="Helvetica,sans-Serif" font-size="14.00"> error: 0.542, n=4601 </text>
<text text-anchor="start" x="1697.33" y="-401.51" font-family="Helvetica,sans-Serif" font-size="14.00"> p: (0.12, 0.88) </text>
</g>
<!-- 17&#45;&gt;18 -->
<g id="edge20" class="edge">
<title>17:s&#45;&gt;18:n</title>
<path fill="none" stroke="black" d="M1856.33,-508.71C1856.33,-508.71 1787.01,-473.39 1761.56,-460.41"/>
<polygon fill="black" stroke="black" points="1762.83,-457.13 1752.33,-455.71 1759.65,-463.37 1762.83,-457.13"/>
<text text-anchor="middle" x="1841.33" y="-479.51" font-family="Helvetica,sans-Serif" font-size="14.00">&lt;= &#45;0.3795</text>
</g>
<!-- 19 -->
<g id="node22" class="node">
<title>19</title>
<polygon fill="#3dcc45" stroke="black" points="2119.83,-457.71 1946.83,-457.71 1946.83,-379.71 2119.83,-379.71 2119.83,-457.71"/>
<text text-anchor="start" x="1994.33" y="-443.51" font-family="Helvetica,sans-Serif" font-weight="bold" font-size="14.00"> Class=1 </text>
<text text-anchor="start" x="2067.33" y="-443.51" font-family="Helvetica,sans-Serif" font-size="14.00"> </text>
<text text-anchor="start" x="1954.83" y="-429.51" font-family="Helvetica,sans-Serif" font-size="14.00"> error: 0.998, n=4601 </text>
<text text-anchor="start" x="1978.33" y="-415.51" font-family="Helvetica,sans-Serif" font-size="14.00"> p: (0.47, 0.53) </text>
<text text-anchor="start" x="2011.83" y="-401.51" font-family="Helvetica,sans-Serif" font-size="14.00">&#45;&#45;&#45;&#45;&#45;&#45;&#45;&#45;</text>
<text text-anchor="start" x="1996.83" y="-387.51" font-family="Helvetica,sans-Serif" font-weight="bold" font-size="14.00">v_8=0.00</text>
</g>
<!-- 17&#45;&gt;19 -->
<g id="edge21" class="edge">
<title>17:s&#45;&gt;19:n</title>
<path fill="none" stroke="black" d="M1856.33,-508.71C1856.33,-508.71 1986.45,-471.22 2023.56,-460.53"/>
<polygon fill="black" stroke="black" points="2024.69,-463.84 2033.33,-457.71 2022.75,-457.12 2024.69,-463.84"/>
<text text-anchor="middle" x="2002.33" y="-479.51" font-family="Helvetica,sans-Serif" font-size="14.00">&gt; &#45;0.3795</text>
</g>
<!-- 25 -->
<g id="node27" class="node">
<title>25</title>
<ellipse fill="#3dcc45" stroke="black" cx="2315.33" cy="-418.71" rx="122.16" ry="35.21"/>
<text text-anchor="start" x="2276.33" y="-429.51" font-family="Helvetica,sans-Serif" font-weight="bold" font-size="14.00"> Class=1 </text>
<text text-anchor="start" x="2349.33" y="-429.51" font-family="Helvetica,sans-Serif" font-size="14.00"> </text>
<text text-anchor="start" x="2236.83" y="-415.51" font-family="Helvetica,sans-Serif" font-size="14.00"> error: 0.135, n=4601 </text>
<text text-anchor="start" x="2260.33" y="-401.51" font-family="Helvetica,sans-Serif" font-size="14.00"> p: (0.02, 0.98) </text>
</g>
<!-- 24&#45;&gt;25 -->
<g id="edge26" class="edge">
<title>24:s&#45;&gt;25:n</title>
<path fill="none" stroke="black" d="M2315.33,-508.71C2315.33,-508.71 2315.33,-481.33 2315.33,-465.93"/>
<polygon fill="black" stroke="black" points="2318.83,-465.71 2315.33,-455.71 2311.83,-465.71 2318.83,-465.71"/>
<text text-anchor="middle" x="2361.83" y="-479.51" font-family="Helvetica,sans-Serif" font-size="14.00">&lt;= &#45;0.03154</text>
</g>
<!-- 26 -->
<g id="node28" class="node">
<title>26</title>
<polygon fill="#3dcc45" stroke="black" points="2683.83,-457.71 2510.83,-457.71 2510.83,-379.71 2683.83,-379.71 2683.83,-457.71"/>
<text text-anchor="start" x="2558.33" y="-443.51" font-family="Helvetica,sans-Serif" font-weight="bold" font-size="14.00"> Class=1 </text>
<text text-anchor="start" x="2631.33" y="-443.51" font-family="Helvetica,sans-Serif" font-size="14.00"> </text>
<text text-anchor="start" x="2518.83" y="-429.51" font-family="Helvetica,sans-Serif" font-size="14.00"> error: 0.607, n=4601 </text>
<text text-anchor="start" x="2542.33" y="-415.51" font-family="Helvetica,sans-Serif" font-size="14.00"> p: (0.15, 0.85) </text>
<text text-anchor="start" x="2573.33" y="-401.51" font-family="Helvetica,sans-Serif" font-size="14.00">&#45;&#45;&#45;&#45;&#45;&#45;&#45;&#45;&#45;</text>
<text text-anchor="start" x="2556.33" y="-387.51" font-family="Helvetica,sans-Serif" font-weight="bold" font-size="14.00">v_14=0.00</text>
</g>
<!-- 24&#45;&gt;26 -->
<g id="edge27" class="edge">
<title>24:s&#45;&gt;26:n</title>
<path fill="none" stroke="black" d="M2315.33,-508.71C2315.33,-508.71 2537.06,-468.61 2587.29,-459.53"/>
<polygon fill="black" stroke="black" points="2588.11,-462.93 2597.33,-457.71 2586.87,-456.05 2588.11,-462.93"/>
<text text-anchor="middle" x="2542.83" y="-479.51" font-family="Helvetica,sans-Serif" font-size="14.00">&gt; &#45;0.03154</text>
</g>
<!-- 20 -->
<g id="node23" class="node">
<title>20</title>
<ellipse fill="#44e5a1" stroke="black" cx="2024.33" cy="-289.71" rx="122.16" ry="35.21"/>
<text text-anchor="start" x="1985.33" y="-300.51" font-family="Helvetica,sans-Serif" font-weight="bold" font-size="14.00"> Class=0 </text>
<text text-anchor="start" x="2058.33" y="-300.51" font-family="Helvetica,sans-Serif" font-size="14.00"> </text>
<text text-anchor="start" x="1945.83" y="-286.51" font-family="Helvetica,sans-Serif" font-size="14.00"> error: 0.937, n=4601 </text>
<text text-anchor="start" x="1969.33" y="-272.51" font-family="Helvetica,sans-Serif" font-size="14.00"> p: (0.65, 0.35) </text>
</g>
<!-- 19&#45;&gt;20 -->
<g id="edge22" class="edge">
<title>19:s&#45;&gt;20:n</title>
<path fill="none" stroke="black" d="M2033.33,-379.71C2033.33,-379.71 2028.68,-352.33 2026.06,-336.93"/>
<polygon fill="black" stroke="black" points="2029.45,-335.98 2024.33,-326.71 2022.55,-337.16 2029.45,-335.98"/>
<text text-anchor="middle" x="2072.33" y="-350.51" font-family="Helvetica,sans-Serif" font-size="14.00">&lt;= &#45;0.1051</text>
</g>
<!-- 21 -->
<g id="node24" class="node">
<title>21</title>
<polygon fill="#44e5a1" stroke="black" points="2391.83,-328.71 2218.83,-328.71 2218.83,-250.71 2391.83,-250.71 2391.83,-328.71"/>
<text text-anchor="start" x="2266.33" y="-314.51" font-family="Helvetica,sans-Serif" font-weight="bold" font-size="14.00"> Class=1 </text>
<text text-anchor="start" x="2339.33" y="-314.51" font-family="Helvetica,sans-Serif" font-size="14.00"> </text>
<text text-anchor="start" x="2226.83" y="-300.51" font-family="Helvetica,sans-Serif" font-size="14.00"> error: 0.895, n=4601 </text>
<text text-anchor="start" x="2250.33" y="-286.51" font-family="Helvetica,sans-Serif" font-size="14.00"> p: (0.31, 0.69) </text>
<text text-anchor="start" x="2283.83" y="-272.51" font-family="Helvetica,sans-Serif" font-size="14.00">&#45;&#45;&#45;&#45;&#45;&#45;&#45;&#45;</text>
<text text-anchor="start" x="2268.83" y="-258.51" font-family="Helvetica,sans-Serif" font-weight="bold" font-size="14.00">v_4=0.00</text>
</g>
<!-- 19&#45;&gt;21 -->
<g id="edge23" class="edge">
<title>19:s&#45;&gt;21:n</title>
<path fill="none" stroke="black" d="M2033.33,-379.71C2033.33,-379.71 2246.25,-339.79 2295.33,-330.59"/>
<polygon fill="black" stroke="black" points="2296.15,-333.99 2305.33,-328.71 2294.86,-327.11 2296.15,-333.99"/>
<text text-anchor="middle" x="2245.33" y="-350.51" font-family="Helvetica,sans-Serif" font-size="14.00">&gt; &#45;0.1051</text>
</g>
<!-- 22 -->
<g id="node25" class="node">
<title>22</title>
<polygon fill="#3dc0cc" stroke="black" points="2373.83,-199.71 2200.83,-199.71 2200.83,-121.71 2373.83,-121.71 2373.83,-199.71"/>
<text text-anchor="start" x="2248.33" y="-185.51" font-family="Helvetica,sans-Serif" font-weight="bold" font-size="14.00"> Class=1 </text>
<text text-anchor="start" x="2321.33" y="-185.51" font-family="Helvetica,sans-Serif" font-size="14.00"> </text>
<text text-anchor="start" x="2208.83" y="-171.51" font-family="Helvetica,sans-Serif" font-size="14.00"> error: 0.751, n=4601 </text>
<text text-anchor="start" x="2232.33" y="-157.51" font-family="Helvetica,sans-Serif" font-size="14.00"> p: (0.21, 0.79) </text>
<text text-anchor="start" x="2263.33" y="-143.51" font-family="Helvetica,sans-Serif" font-size="14.00">&#45;&#45;&#45;&#45;&#45;&#45;&#45;&#45;&#45;</text>
<text text-anchor="start" x="2246.33" y="-129.51" font-family="Helvetica,sans-Serif" font-weight="bold" font-size="14.00">v_13=0.00</text>
</g>
<!-- 21&#45;&gt;22 -->
<g id="edge24" class="edge">
<title>21:s&#45;&gt;22:n</title>
<path fill="none" stroke="black" d="M2305.33,-250.71C2305.33,-250.71 2296.03,-224.36 2290.8,-209.54"/>
<polygon fill="black" stroke="black" points="2293.96,-207.98 2287.33,-199.71 2287.36,-210.31 2293.96,-207.98"/>
<text text-anchor="middle" x="2335.33" y="-221.51" font-family="Helvetica,sans-Serif" font-size="14.00">&gt; &#45;0.3521</text>
</g>
<!-- 23 -->
<g id="node26" class="node">
<title>23</title>
<ellipse fill="#4485e5" stroke="black" cx="2286.33" cy="-35.36" rx="122.16" ry="35.21"/>
<text text-anchor="start" x="2247.33" y="-46.16" font-family="Helvetica,sans-Serif" font-weight="bold" font-size="14.00"> Class=1 </text>
<text text-anchor="start" x="2320.33" y="-46.16" font-family="Helvetica,sans-Serif" font-size="14.00"> </text>
<text text-anchor="start" x="2207.83" y="-32.16" font-family="Helvetica,sans-Serif" font-size="14.00"> error: 0.527, n=4601 </text>
<text text-anchor="start" x="2231.33" y="-18.16" font-family="Helvetica,sans-Serif" font-size="14.00"> p: (0.12, 0.88) </text>
</g>
<!-- 22&#45;&gt;23 -->
<g id="edge25" class="edge">
<title>22:s&#45;&gt;23:n</title>
<path fill="none" stroke="black" d="M2287.33,-121.71C2287.33,-121.71 2286.82,-95.93 2286.53,-81.03"/>
<polygon fill="black" stroke="black" points="2290.02,-80.64 2286.33,-70.71 2283.03,-80.78 2290.02,-80.64"/>
<text text-anchor="middle" x="2326.83" y="-92.51" font-family="Helvetica,sans-Serif" font-size="14.00">&lt;= 0.2189</text>
</g>
<!-- 27 -->
<g id="node29" class="node">
<title>27</title>
<polygon fill="#44e5a1" stroke="black" points="2685.83,-328.71 2512.83,-328.71 2512.83,-250.71 2685.83,-250.71 2685.83,-328.71"/>
<text text-anchor="start" x="2560.33" y="-314.51" font-family="Helvetica,sans-Serif" font-weight="bold" font-size="14.00"> Class=1 </text>
<text text-anchor="start" x="2633.33" y="-314.51" font-family="Helvetica,sans-Serif" font-size="14.00"> </text>
<text text-anchor="start" x="2520.83" y="-300.51" font-family="Helvetica,sans-Serif" font-size="14.00"> error: 0.417, n=4601 </text>
<text text-anchor="start" x="2544.33" y="-286.51" font-family="Helvetica,sans-Serif" font-size="14.00"> p: (0.08, 0.92) </text>
<text text-anchor="start" x="2577.83" y="-272.51" font-family="Helvetica,sans-Serif" font-size="14.00">&#45;&#45;&#45;&#45;&#45;&#45;&#45;&#45;</text>
<text text-anchor="start" x="2562.83" y="-258.51" font-family="Helvetica,sans-Serif" font-weight="bold" font-size="14.00">v_0=0.93</text>
</g>
<!-- 26&#45;&gt;27 -->
<g id="edge28" class="edge">
<title>26:s&#45;&gt;27:n</title>
<path fill="none" stroke="black" d="M2597.33,-379.71C2597.33,-379.71 2598.34,-353.93 2598.92,-339.03"/>
<polygon fill="black" stroke="black" points="2602.43,-338.84 2599.33,-328.71 2595.44,-338.57 2602.43,-338.84"/>
<text text-anchor="middle" x="2635.33" y="-350.51" font-family="Helvetica,sans-Serif" font-size="14.00">&gt; &#45;0.2827</text>
</g>
<!-- 28 -->
<g id="node30" class="node">
<title>28</title>
<polygon fill="#3dc0cc" stroke="black" points="2689.83,-199.71 2516.83,-199.71 2516.83,-121.71 2689.83,-121.71 2689.83,-199.71"/>
<text text-anchor="start" x="2564.33" y="-185.51" font-family="Helvetica,sans-Serif" font-weight="bold" font-size="14.00"> Class=1 </text>
<text text-anchor="start" x="2637.33" y="-185.51" font-family="Helvetica,sans-Serif" font-size="14.00"> </text>
<text text-anchor="start" x="2524.83" y="-171.51" font-family="Helvetica,sans-Serif" font-size="14.00"> error: 0.508, n=4601 </text>
<text text-anchor="start" x="2548.33" y="-157.51" font-family="Helvetica,sans-Serif" font-size="14.00"> p: (0.11, 0.89) </text>
<text text-anchor="start" x="2581.83" y="-143.51" font-family="Helvetica,sans-Serif" font-size="14.00">&#45;&#45;&#45;&#45;&#45;&#45;&#45;&#45;</text>
<text text-anchor="start" x="2566.83" y="-129.51" font-family="Helvetica,sans-Serif" font-weight="bold" font-size="14.00">v_8=0.00</text>
</g>
<!-- 27&#45;&gt;28 -->
<g id="edge29" class="edge">
<title>27:s&#45;&gt;28:n</title>
<path fill="none" stroke="black" d="M2599.33,-250.71C2599.33,-250.71 2601.35,-224.93 2602.52,-210.03"/>
<polygon fill="black" stroke="black" points="2606.04,-209.95 2603.33,-199.71 2599.06,-209.41 2606.04,-209.95"/>
<text text-anchor="middle" x="2637.33" y="-221.51" font-family="Helvetica,sans-Serif" font-size="14.00">&lt;= 338.3</text>
</g>
<!-- 29 -->
<g id="node31" class="node">
<title>29</title>
<ellipse fill="#4485e5" stroke="black" cx="2603.33" cy="-35.36" rx="122.16" ry="35.21"/>
<text text-anchor="start" x="2564.33" y="-46.16" font-family="Helvetica,sans-Serif" font-weight="bold" font-size="14.00"> Class=1 </text>
<text text-anchor="start" x="2637.33" y="-46.16" font-family="Helvetica,sans-Serif" font-size="14.00"> </text>
<text text-anchor="start" x="2524.83" y="-32.16" font-family="Helvetica,sans-Serif" font-size="14.00"> error: 0.340, n=4601 </text>
<text text-anchor="start" x="2548.33" y="-18.16" font-family="Helvetica,sans-Serif" font-size="14.00"> p: (0.06, 0.94) </text>
</g>
<!-- 28&#45;&gt;29 -->
<g id="edge30" class="edge">
<title>28:s&#45;&gt;29:n</title>
<path fill="none" stroke="black" d="M2603.33,-121.71C2603.33,-121.71 2603.33,-95.93 2603.33,-81.03"/>
<polygon fill="black" stroke="black" points="2606.83,-80.71 2603.33,-70.71 2599.83,-80.71 2606.83,-80.71"/>
<text text-anchor="middle" x="2634.83" y="-92.51" font-family="Helvetica,sans-Serif" font-size="14.00">&gt; &#45;0.222</text>
</g>
</g>
</svg>
