<?xml version="1.0" encoding="UTF-8" standalone="no"?>
<!DOCTYPE svg PUBLIC "-//W3C//DTD SVG 1.1//EN"
 "http://www.w3.org/Graphics/SVG/1.1/DTD/svg11.dtd">
<!-- Generated by graphviz version 2.43.0 (0)
 -->
<!-- Title: Tree Pages: 1 -->
<svg width="4582pt" height="825pt"
 viewBox="0.00 0.00 4581.66 824.71" xmlns="http://www.w3.org/2000/svg" xmlns:xlink="http://www.w3.org/1999/xlink">
<g id="graph0" class="graph" transform="scale(1 1) rotate(0) translate(18 806.71)">
<title>Tree</title>
<polygon fill="white" stroke="transparent" points="-18,18 -18,-806.71 4563.66,-806.71 4563.66,18 -18,18"/>
<!-- 0 -->
<g id="node1" class="node">
<title>0</title>
<polygon fill="white" stroke="transparent" points="2231.33,-788.71 2177.33,-788.71 2177.33,-752.71 2231.33,-752.71 2231.33,-788.71"/>
<text text-anchor="middle" x="2204.33" y="-767.01" font-family="Helvetica,sans-Serif" font-size="14.00">0</text>
</g>
<!-- 1 -->
<g id="node2" class="node">
<title>1</title>
<polygon fill="#cc3d3d" stroke="black" points="2290.83,-715.71 2117.83,-715.71 2117.83,-637.71 2290.83,-637.71 2290.83,-715.71"/>
<text text-anchor="start" x="2164.33" y="-701.51" font-family="Helvetica,sans-Serif" font-weight="bold" font-size="14.00"> Class=N </text>
<text text-anchor="start" x="2239.33" y="-701.51" font-family="Helvetica,sans-Serif" font-size="14.00"> </text>
<text text-anchor="start" x="2125.83" y="-687.51" font-family="Helvetica,sans-Serif" font-size="14.00"> error: 0.934, n=3190 </text>
<text text-anchor="start" x="2128.83" y="-673.51" font-family="Helvetica,sans-Serif" font-size="14.00"> p: (0.24, 0.24, 0.52) </text>
<text text-anchor="start" x="2172.33" y="-659.51" font-family="Helvetica,sans-Serif" font-size="14.00">&#45;&#45;&#45;&#45;&#45;&#45;&#45;&#45;&#45;&#45;&#45;&#45;</text>
<text text-anchor="start" x="2155.83" y="-645.51" font-family="Helvetica,sans-Serif" font-weight="bold" font-size="14.00">attribute_30</text>
</g>
<!-- 0&#45;&gt;1 -->
<!-- 2 -->
<g id="node3" class="node">
<title>2</title>
<polygon fill="#e5b844" stroke="black" points="842.83,-586.71 669.83,-586.71 669.83,-508.71 842.83,-508.71 842.83,-586.71"/>
<text text-anchor="start" x="716.33" y="-572.51" font-family="Helvetica,sans-Serif" font-weight="bold" font-size="14.00"> Class=N </text>
<text text-anchor="start" x="791.33" y="-572.51" font-family="Helvetica,sans-Serif" font-size="14.00"> </text>
<text text-anchor="start" x="677.83" y="-558.51" font-family="Helvetica,sans-Serif" font-size="14.00"> error: 0.345, n=3190 </text>
<text text-anchor="start" x="680.83" y="-544.51" font-family="Helvetica,sans-Serif" font-size="14.00"> p: (0.13, 0.00, 0.87) </text>
<text text-anchor="start" x="724.33" y="-530.51" font-family="Helvetica,sans-Serif" font-size="14.00">&#45;&#45;&#45;&#45;&#45;&#45;&#45;&#45;&#45;&#45;&#45;&#45;</text>
<text text-anchor="start" x="707.83" y="-516.51" font-family="Helvetica,sans-Serif" font-weight="bold" font-size="14.00">attribute_35</text>
</g>
<!-- 1&#45;&gt;2 -->
<g id="edge2" class="edge">
<title>1:s&#45;&gt;2:n</title>
<path fill="none" stroke="black" d="M2204.33,-637.71C2204.33,-637.71 894.28,-591.57 766.35,-587.06"/>
<polygon fill="black" stroke="black" points="766.45,-583.56 756.33,-586.71 766.2,-590.56 766.45,-583.56"/>
<text text-anchor="middle" x="1657.83" y="-608.51" font-family="Helvetica,sans-Serif" font-size="14.00">T</text>
</g>
<!-- 7 -->
<g id="node4" class="node">
<title>7</title>
<polygon fill="#e5b844" stroke="black" points="2110.83,-586.71 1937.83,-586.71 1937.83,-508.71 2110.83,-508.71 2110.83,-586.71"/>
<text text-anchor="start" x="1984.33" y="-572.51" font-family="Helvetica,sans-Serif" font-weight="bold" font-size="14.00"> Class=N </text>
<text text-anchor="start" x="2059.33" y="-572.51" font-family="Helvetica,sans-Serif" font-size="14.00"> </text>
<text text-anchor="start" x="1945.83" y="-558.51" font-family="Helvetica,sans-Serif" font-size="14.00"> error: 0.363, n=3190 </text>
<text text-anchor="start" x="1948.83" y="-544.51" font-family="Helvetica,sans-Serif" font-size="14.00"> p: (0.13, 0.00, 0.87) </text>
<text text-anchor="start" x="1992.33" y="-530.51" font-family="Helvetica,sans-Serif" font-size="14.00">&#45;&#45;&#45;&#45;&#45;&#45;&#45;&#45;&#45;&#45;&#45;&#45;</text>
<text text-anchor="start" x="1975.83" y="-516.51" font-family="Helvetica,sans-Serif" font-weight="bold" font-size="14.00">attribute_32</text>
</g>
<!-- 1&#45;&gt;7 -->
<g id="edge3" class="edge">
<title>1:s&#45;&gt;7:n</title>
<path fill="none" stroke="black" d="M2204.33,-637.71C2204.33,-637.71 2071.39,-600.05 2034.01,-589.45"/>
<polygon fill="black" stroke="black" points="2034.9,-586.07 2024.33,-586.71 2033,-592.8 2034.9,-586.07"/>
<text text-anchor="middle" x="2141.33" y="-608.51" font-family="Helvetica,sans-Serif" font-size="14.00">A</text>
</g>
<!-- 12 -->
<g id="node5" class="node">
<title>12</title>
<polygon fill="#e5b844" stroke="black" points="2902.83,-586.71 2729.83,-586.71 2729.83,-508.71 2902.83,-508.71 2902.83,-586.71"/>
<text text-anchor="start" x="2776.33" y="-572.51" font-family="Helvetica,sans-Serif" font-weight="bold" font-size="14.00"> Class=N </text>
<text text-anchor="start" x="2851.33" y="-572.51" font-family="Helvetica,sans-Serif" font-size="14.00"> </text>
<text text-anchor="start" x="2737.83" y="-558.51" font-family="Helvetica,sans-Serif" font-size="14.00"> error: 0.201, n=3190 </text>
<text text-anchor="start" x="2740.83" y="-544.51" font-family="Helvetica,sans-Serif" font-size="14.00"> p: (0.05, 0.00, 0.95) </text>
<text text-anchor="start" x="2784.33" y="-530.51" font-family="Helvetica,sans-Serif" font-size="14.00">&#45;&#45;&#45;&#45;&#45;&#45;&#45;&#45;&#45;&#45;&#45;&#45;</text>
<text text-anchor="start" x="2767.83" y="-516.51" font-family="Helvetica,sans-Serif" font-weight="bold" font-size="14.00">attribute_31</text>
</g>
<!-- 1&#45;&gt;12 -->
<g id="edge4" class="edge">
<title>1:s&#45;&gt;12:n</title>
<path fill="none" stroke="black" d="M2204.33,-637.71C2204.33,-637.71 2726.65,-594.18 2806.22,-587.55"/>
<polygon fill="black" stroke="black" points="2806.65,-591.03 2816.33,-586.71 2806.07,-584.05 2806.65,-591.03"/>
<text text-anchor="middle" x="2588.33" y="-608.51" font-family="Helvetica,sans-Serif" font-size="14.00">C</text>
</g>
<!-- 16 -->
<g id="node6" class="node">
<title>16</title>
<polygon fill="#e5b844" stroke="black" points="3904.83,-586.71 3731.83,-586.71 3731.83,-508.71 3904.83,-508.71 3904.83,-586.71"/>
<text text-anchor="start" x="3776.83" y="-572.51" font-family="Helvetica,sans-Serif" font-weight="bold" font-size="14.00"> Class=IE </text>
<text text-anchor="start" x="3854.83" y="-572.51" font-family="Helvetica,sans-Serif" font-size="14.00"> </text>
<text text-anchor="start" x="3739.83" y="-558.51" font-family="Helvetica,sans-Serif" font-size="14.00"> error: 0.976, n=3190 </text>
<text text-anchor="start" x="3742.83" y="-544.51" font-family="Helvetica,sans-Serif" font-size="14.00"> p: (0.34, 0.42, 0.24) </text>
<text text-anchor="start" x="3786.33" y="-530.51" font-family="Helvetica,sans-Serif" font-size="14.00">&#45;&#45;&#45;&#45;&#45;&#45;&#45;&#45;&#45;&#45;&#45;&#45;</text>
<text text-anchor="start" x="3769.83" y="-516.51" font-family="Helvetica,sans-Serif" font-weight="bold" font-size="14.00">attribute_32</text>
</g>
<!-- 1&#45;&gt;16 -->
<g id="edge5" class="edge">
<title>1:s&#45;&gt;16:n</title>
<path fill="none" stroke="black" d="M2204.33,-637.71C2204.33,-637.71 3670.56,-591.38 3808.02,-587.04"/>
<polygon fill="black" stroke="black" points="3808.45,-590.52 3818.33,-586.71 3808.22,-583.53 3808.45,-590.52"/>
<text text-anchor="middle" x="3209.83" y="-608.51" font-family="Helvetica,sans-Serif" font-size="14.00">G</text>
</g>
<!-- 3 -->
<g id="node7" class="node">
<title>3</title>
<ellipse fill="#8dcc3d" stroke="black" cx="122.33" cy="-418.71" rx="122.16" ry="35.21"/>
<text text-anchor="start" x="82.33" y="-429.51" font-family="Helvetica,sans-Serif" font-weight="bold" font-size="14.00"> Class=N </text>
<text text-anchor="start" x="157.33" y="-429.51" font-family="Helvetica,sans-Serif" font-size="14.00"> </text>
<text text-anchor="start" x="43.83" y="-415.51" font-family="Helvetica,sans-Serif" font-size="14.00"> error: 0.618, n=3190 </text>
<text text-anchor="start" x="46.83" y="-401.51" font-family="Helvetica,sans-Serif" font-size="14.00"> p: (0.41, 0.00, 0.59) </text>
</g>
<!-- 2&#45;&gt;3 -->
<g id="edge6" class="edge">
<title>2:s&#45;&gt;3:n</title>
<path fill="none" stroke="black" d="M756.33,-508.71C756.33,-508.71 214.09,-463.38 132.54,-456.56"/>
<polygon fill="black" stroke="black" points="132.59,-453.06 122.33,-455.71 132,-460.03 132.59,-453.06"/>
<text text-anchor="middle" x="536.83" y="-479.51" font-family="Helvetica,sans-Serif" font-size="14.00">G</text>
</g>
<!-- 4 -->
<g id="node8" class="node">
<title>4</title>
<ellipse fill="#8dcc3d" stroke="black" cx="439.33" cy="-418.71" rx="122.16" ry="35.21"/>
<text text-anchor="start" x="399.33" y="-429.51" font-family="Helvetica,sans-Serif" font-weight="bold" font-size="14.00"> Class=N </text>
<text text-anchor="start" x="474.33" y="-429.51" font-family="Helvetica,sans-Serif" font-size="14.00"> </text>
<text text-anchor="start" x="360.83" y="-415.51" font-family="Helvetica,sans-Serif" font-size="14.00"> error: 0.054, n=3190 </text>
<text text-anchor="start" x="363.83" y="-401.51" font-family="Helvetica,sans-Serif" font-size="14.00"> p: (0.01, 0.00, 0.99) </text>
</g>
<!-- 2&#45;&gt;4 -->
<g id="edge7" class="edge">
<title>2:s&#45;&gt;4:n</title>
<path fill="none" stroke="black" d="M756.33,-508.71C756.33,-508.71 503.78,-466.49 449.52,-457.41"/>
<polygon fill="black" stroke="black" points="449.77,-453.91 439.33,-455.71 448.62,-460.81 449.77,-453.91"/>
<text text-anchor="middle" x="650.33" y="-479.51" font-family="Helvetica,sans-Serif" font-size="14.00">C</text>
</g>
<!-- 5 -->
<g id="node9" class="node">
<title>5</title>
<ellipse fill="#8dcc3d" stroke="black" cx="756.33" cy="-418.71" rx="122.16" ry="35.21"/>
<text text-anchor="start" x="716.33" y="-429.51" font-family="Helvetica,sans-Serif" font-weight="bold" font-size="14.00"> Class=N </text>
<text text-anchor="start" x="791.33" y="-429.51" font-family="Helvetica,sans-Serif" font-size="14.00"> </text>
<text text-anchor="start" x="677.83" y="-415.51" font-family="Helvetica,sans-Serif" font-size="14.00"> error: 0.000, n=3190 </text>
<text text-anchor="start" x="680.83" y="-401.51" font-family="Helvetica,sans-Serif" font-size="14.00"> p: (0.00, 0.00, 1.00) </text>
</g>
<!-- 2&#45;&gt;5 -->
<g id="edge8" class="edge">
<title>2:s&#45;&gt;5:n</title>
<path fill="none" stroke="black" d="M756.33,-508.71C756.33,-508.71 756.33,-481.33 756.33,-465.93"/>
<polygon fill="black" stroke="black" points="759.83,-465.71 756.33,-455.71 752.83,-465.71 759.83,-465.71"/>
<text text-anchor="middle" x="760.83" y="-479.51" font-family="Helvetica,sans-Serif" font-size="14.00">T</text>
</g>
<!-- 6 -->
<g id="node10" class="node">
<title>6</title>
<ellipse fill="#8dcc3d" stroke="black" cx="1073.33" cy="-418.71" rx="122.16" ry="35.21"/>
<text text-anchor="start" x="1033.33" y="-429.51" font-family="Helvetica,sans-Serif" font-weight="bold" font-size="14.00"> Class=N </text>
<text text-anchor="start" x="1108.33" y="-429.51" font-family="Helvetica,sans-Serif" font-size="14.00"> </text>
<text text-anchor="start" x="994.83" y="-415.51" font-family="Helvetica,sans-Serif" font-size="14.00"> error: 0.000, n=3190 </text>
<text text-anchor="start" x="997.83" y="-401.51" font-family="Helvetica,sans-Serif" font-size="14.00"> p: (0.00, 0.00, 1.00) </text>
</g>
<!-- 2&#45;&gt;6 -->
<g id="edge9" class="edge">
<title>2:s&#45;&gt;6:n</title>
<path fill="none" stroke="black" d="M756.33,-508.71C756.33,-508.71 1008.88,-466.49 1063.14,-457.41"/>
<polygon fill="black" stroke="black" points="1064.04,-460.81 1073.33,-455.71 1062.89,-453.91 1064.04,-460.81"/>
<text text-anchor="middle" x="958.33" y="-479.51" font-family="Helvetica,sans-Serif" font-size="14.00">A</text>
</g>
<!-- 8 -->
<g id="node11" class="node">
<title>8</title>
<ellipse fill="#8dcc3d" stroke="black" cx="1390.33" cy="-418.71" rx="122.16" ry="35.21"/>
<text text-anchor="start" x="1350.33" y="-429.51" font-family="Helvetica,sans-Serif" font-weight="bold" font-size="14.00"> Class=N </text>
<text text-anchor="start" x="1425.33" y="-429.51" font-family="Helvetica,sans-Serif" font-size="14.00"> </text>
<text text-anchor="start" x="1311.83" y="-415.51" font-family="Helvetica,sans-Serif" font-size="14.00"> error: 0.605, n=3190 </text>
<text text-anchor="start" x="1314.83" y="-401.51" font-family="Helvetica,sans-Serif" font-size="14.00"> p: (0.38, 0.00, 0.62) </text>
</g>
<!-- 7&#45;&gt;8 -->
<g id="edge10" class="edge">
<title>7:s&#45;&gt;8:n</title>
<path fill="none" stroke="black" d="M2024.33,-508.71C2024.33,-508.71 1482.09,-463.38 1400.54,-456.56"/>
<polygon fill="black" stroke="black" points="1400.59,-453.06 1390.33,-455.71 1400,-460.03 1400.59,-453.06"/>
<text text-anchor="middle" x="1805.83" y="-479.51" font-family="Helvetica,sans-Serif" font-size="14.00">T</text>
</g>
<!-- 9 -->
<g id="node12" class="node">
<title>9</title>
<ellipse fill="#8dcc3d" stroke="black" cx="1707.33" cy="-418.71" rx="122.16" ry="35.21"/>
<text text-anchor="start" x="1667.33" y="-429.51" font-family="Helvetica,sans-Serif" font-weight="bold" font-size="14.00"> Class=N </text>
<text text-anchor="start" x="1742.33" y="-429.51" font-family="Helvetica,sans-Serif" font-size="14.00"> </text>
<text text-anchor="start" x="1628.83" y="-415.51" font-family="Helvetica,sans-Serif" font-size="14.00"> error: 0.044, n=3190 </text>
<text text-anchor="start" x="1631.83" y="-401.51" font-family="Helvetica,sans-Serif" font-size="14.00"> p: (0.01, 0.00, 0.99) </text>
</g>
<!-- 7&#45;&gt;9 -->
<g id="edge11" class="edge">
<title>7:s&#45;&gt;9:n</title>
<path fill="none" stroke="black" d="M2024.33,-508.71C2024.33,-508.71 1771.78,-466.49 1717.52,-457.41"/>
<polygon fill="black" stroke="black" points="1717.77,-453.91 1707.33,-455.71 1716.62,-460.81 1717.77,-453.91"/>
<text text-anchor="middle" x="1918.33" y="-479.51" font-family="Helvetica,sans-Serif" font-size="14.00">A</text>
</g>
<!-- 10 -->
<g id="node13" class="node">
<title>10</title>
<ellipse fill="#8dcc3d" stroke="black" cx="2024.33" cy="-418.71" rx="122.16" ry="35.21"/>
<text text-anchor="start" x="1984.33" y="-429.51" font-family="Helvetica,sans-Serif" font-weight="bold" font-size="14.00"> Class=N </text>
<text text-anchor="start" x="2059.33" y="-429.51" font-family="Helvetica,sans-Serif" font-size="14.00"> </text>
<text text-anchor="start" x="1945.83" y="-415.51" font-family="Helvetica,sans-Serif" font-size="14.00"> error: 0.052, n=3190 </text>
<text text-anchor="start" x="1948.83" y="-401.51" font-family="Helvetica,sans-Serif" font-size="14.00"> p: (0.00, 0.01, 0.99) </text>
</g>
<!-- 7&#45;&gt;10 -->
<g id="edge12" class="edge">
<title>7:s&#45;&gt;10:n</title>
<path fill="none" stroke="black" d="M2024.33,-508.71C2024.33,-508.71 2024.33,-481.33 2024.33,-465.93"/>
<polygon fill="black" stroke="black" points="2027.83,-465.71 2024.33,-455.71 2020.83,-465.71 2027.83,-465.71"/>
<text text-anchor="middle" x="2029.83" y="-479.51" font-family="Helvetica,sans-Serif" font-size="14.00">G</text>
</g>
<!-- 11 -->
<g id="node14" class="node">
<title>11</title>
<ellipse fill="#8dcc3d" stroke="black" cx="2341.33" cy="-418.71" rx="122.16" ry="35.21"/>
<text text-anchor="start" x="2301.33" y="-429.51" font-family="Helvetica,sans-Serif" font-weight="bold" font-size="14.00"> Class=N </text>
<text text-anchor="start" x="2376.33" y="-429.51" font-family="Helvetica,sans-Serif" font-size="14.00"> </text>
<text text-anchor="start" x="2262.83" y="-415.51" font-family="Helvetica,sans-Serif" font-size="14.00"> error: 0.000, n=3190 </text>
<text text-anchor="start" x="2265.83" y="-401.51" font-family="Helvetica,sans-Serif" font-size="14.00"> p: (0.00, 0.00, 1.00) </text>
</g>
<!-- 7&#45;&gt;11 -->
<g id="edge13" class="edge">
<title>7:s&#45;&gt;11:n</title>
<path fill="none" stroke="black" d="M2024.33,-508.71C2024.33,-508.71 2276.88,-466.49 2331.14,-457.41"/>
<polygon fill="black" stroke="black" points="2332.04,-460.81 2341.33,-455.71 2330.89,-453.91 2332.04,-460.81"/>
<text text-anchor="middle" x="2226.33" y="-479.51" font-family="Helvetica,sans-Serif" font-size="14.00">C</text>
</g>
<!-- 13 -->
<g id="node15" class="node">
<title>13</title>
<ellipse fill="#8dcc3d" stroke="black" cx="2658.33" cy="-418.71" rx="122.16" ry="35.21"/>
<text text-anchor="start" x="2618.33" y="-429.51" font-family="Helvetica,sans-Serif" font-weight="bold" font-size="14.00"> Class=N </text>
<text text-anchor="start" x="2693.33" y="-429.51" font-family="Helvetica,sans-Serif" font-size="14.00"> </text>
<text text-anchor="start" x="2579.83" y="-415.51" font-family="Helvetica,sans-Serif" font-size="14.00"> error: 0.042, n=3190 </text>
<text text-anchor="start" x="2582.83" y="-401.51" font-family="Helvetica,sans-Serif" font-size="14.00"> p: (0.00, 0.01, 0.99) </text>
</g>
<!-- 12&#45;&gt;13 -->
<g id="edge14" class="edge">
<title>12:s&#45;&gt;13:n</title>
<path fill="none" stroke="black" d="M2816.33,-508.71C2816.33,-508.71 2702.8,-470.63 2668.21,-459.03"/>
<polygon fill="black" stroke="black" points="2668.92,-455.57 2658.33,-455.71 2666.7,-462.21 2668.92,-455.57"/>
<text text-anchor="middle" x="2766.33" y="-479.51" font-family="Helvetica,sans-Serif" font-size="14.00">A</text>
</g>
<!-- 14 -->
<g id="node16" class="node">
<title>14</title>
<ellipse fill="#8dcc3d" stroke="black" cx="2975.33" cy="-418.71" rx="122.16" ry="35.21"/>
<text text-anchor="start" x="2935.33" y="-429.51" font-family="Helvetica,sans-Serif" font-weight="bold" font-size="14.00"> Class=N </text>
<text text-anchor="start" x="3010.33" y="-429.51" font-family="Helvetica,sans-Serif" font-size="14.00"> </text>
<text text-anchor="start" x="2896.83" y="-415.51" font-family="Helvetica,sans-Serif" font-size="14.00"> error: 0.000, n=3190 </text>
<text text-anchor="start" x="2899.83" y="-401.51" font-family="Helvetica,sans-Serif" font-size="14.00"> p: (0.00, 0.00, 1.00) </text>
</g>
<!-- 12&#45;&gt;14 -->
<g id="edge15" class="edge">
<title>12:s&#45;&gt;14:n</title>
<path fill="none" stroke="black" d="M2816.33,-508.71C2816.33,-508.71 2930.57,-470.63 2965.38,-459.03"/>
<polygon fill="black" stroke="black" points="2966.95,-462.19 2975.33,-455.71 2964.74,-455.55 2966.95,-462.19"/>
<text text-anchor="middle" x="2920.33" y="-479.51" font-family="Helvetica,sans-Serif" font-size="14.00">C</text>
</g>
<!-- 15 -->
<g id="node17" class="node">
<title>15</title>
<ellipse fill="#8dcc3d" stroke="black" cx="3292.33" cy="-418.71" rx="122.16" ry="35.21"/>
<text text-anchor="start" x="3252.33" y="-429.51" font-family="Helvetica,sans-Serif" font-weight="bold" font-size="14.00"> Class=N </text>
<text text-anchor="start" x="3327.33" y="-429.51" font-family="Helvetica,sans-Serif" font-size="14.00"> </text>
<text text-anchor="start" x="3213.83" y="-415.51" font-family="Helvetica,sans-Serif" font-size="14.00"> error: 0.000, n=3190 </text>
<text text-anchor="start" x="3216.83" y="-401.51" font-family="Helvetica,sans-Serif" font-size="14.00"> p: (0.00, 0.00, 1.00) </text>
</g>
<!-- 12&#45;&gt;15 -->
<g id="edge16" class="edge">
<title>12:s&#45;&gt;15:n</title>
<path fill="none" stroke="black" d="M2816.33,-508.71C2816.33,-508.71 3214.03,-464.43 3282.39,-456.82"/>
<polygon fill="black" stroke="black" points="3282.78,-460.3 3292.33,-455.71 3282,-453.34 3282.78,-460.3"/>
<text text-anchor="middle" x="3115.83" y="-479.51" font-family="Helvetica,sans-Serif" font-size="14.00">T</text>
</g>
<!-- 17 -->
<g id="node18" class="node">
<title>17</title>
<polygon fill="#8dcc3d" stroke="black" points="3659.83,-457.71 3486.83,-457.71 3486.83,-379.71 3659.83,-379.71 3659.83,-457.71"/>
<text text-anchor="start" x="3531.83" y="-443.51" font-family="Helvetica,sans-Serif" font-weight="bold" font-size="14.00"> Class=EI </text>
<text text-anchor="start" x="3609.83" y="-443.51" font-family="Helvetica,sans-Serif" font-size="14.00"> </text>
<text text-anchor="start" x="3494.83" y="-429.51" font-family="Helvetica,sans-Serif" font-size="14.00"> error: 0.772, n=3190 </text>
<text text-anchor="start" x="3497.83" y="-415.51" font-family="Helvetica,sans-Serif" font-size="14.00"> p: (0.65, 0.26, 0.09) </text>
<text text-anchor="start" x="3541.33" y="-401.51" font-family="Helvetica,sans-Serif" font-size="14.00">&#45;&#45;&#45;&#45;&#45;&#45;&#45;&#45;&#45;&#45;&#45;&#45;</text>
<text text-anchor="start" x="3524.83" y="-387.51" font-family="Helvetica,sans-Serif" font-weight="bold" font-size="14.00">attribute_31</text>
</g>
<!-- 16&#45;&gt;17 -->
<g id="edge17" class="edge">
<title>16:s&#45;&gt;17:n</title>
<path fill="none" stroke="black" d="M3818.33,-508.71C3818.33,-508.71 3629.07,-469.31 3583.24,-459.77"/>
<polygon fill="black" stroke="black" points="3583.83,-456.32 3573.33,-457.71 3582.41,-463.18 3583.83,-456.32"/>
<text text-anchor="middle" x="3729.83" y="-479.51" font-family="Helvetica,sans-Serif" font-size="14.00">T</text>
</g>
<!-- 24 -->
<g id="node19" class="node">
<title>24</title>
<polygon fill="#8dcc3d" stroke="black" points="3904.83,-457.71 3731.83,-457.71 3731.83,-379.71 3904.83,-379.71 3904.83,-457.71"/>
<text text-anchor="start" x="3776.83" y="-443.51" font-family="Helvetica,sans-Serif" font-weight="bold" font-size="14.00"> Class=IE </text>
<text text-anchor="start" x="3854.83" y="-443.51" font-family="Helvetica,sans-Serif" font-size="14.00"> </text>
<text text-anchor="start" x="3739.83" y="-429.51" font-family="Helvetica,sans-Serif" font-size="14.00"> error: 0.667, n=3190 </text>
<text text-anchor="start" x="3742.83" y="-415.51" font-family="Helvetica,sans-Serif" font-size="14.00"> p: (0.01, 0.61, 0.38) </text>
<text text-anchor="start" x="3786.33" y="-401.51" font-family="Helvetica,sans-Serif" font-size="14.00">&#45;&#45;&#45;&#45;&#45;&#45;&#45;&#45;&#45;&#45;&#45;&#45;</text>
<text text-anchor="start" x="3769.83" y="-387.51" font-family="Helvetica,sans-Serif" font-weight="bold" font-size="14.00">attribute_29</text>
</g>
<!-- 16&#45;&gt;24 -->
<g id="edge18" class="edge">
<title>16:s&#45;&gt;24:n</title>
<path fill="none" stroke="black" d="M3818.33,-508.71C3818.33,-508.71 3818.33,-482.93 3818.33,-468.03"/>
<polygon fill="black" stroke="black" points="3821.83,-467.71 3818.33,-457.71 3814.83,-467.71 3821.83,-467.71"/>
<text text-anchor="middle" x="3823.33" y="-479.51" font-family="Helvetica,sans-Serif" font-size="14.00">C</text>
</g>
<!-- 27 -->
<g id="node20" class="node">
<title>27</title>
<polygon fill="#8dcc3d" stroke="black" points="4153.83,-457.71 3980.83,-457.71 3980.83,-379.71 4153.83,-379.71 4153.83,-457.71"/>
<text text-anchor="start" x="4025.83" y="-443.51" font-family="Helvetica,sans-Serif" font-weight="bold" font-size="14.00"> Class=IE </text>
<text text-anchor="start" x="4103.83" y="-443.51" font-family="Helvetica,sans-Serif" font-size="14.00"> </text>
<text text-anchor="start" x="3988.83" y="-429.51" font-family="Helvetica,sans-Serif" font-size="14.00"> error: 0.635, n=3190 </text>
<text text-anchor="start" x="3991.83" y="-415.51" font-family="Helvetica,sans-Serif" font-size="14.00"> p: (0.00, 0.59, 0.41) </text>
<text text-anchor="start" x="4035.33" y="-401.51" font-family="Helvetica,sans-Serif" font-size="14.00">&#45;&#45;&#45;&#45;&#45;&#45;&#45;&#45;&#45;&#45;&#45;&#45;</text>
<text text-anchor="start" x="4018.83" y="-387.51" font-family="Helvetica,sans-Serif" font-weight="bold" font-size="14.00">attribute_29</text>
</g>
<!-- 16&#45;&gt;27 -->
<g id="edge19" class="edge">
<title>16:s&#45;&gt;27:n</title>
<path fill="none" stroke="black" d="M3818.33,-508.71C3818.33,-508.71 4010.68,-469.31 4057.26,-459.77"/>
<polygon fill="black" stroke="black" points="4058.24,-463.15 4067.33,-457.71 4056.83,-456.29 4058.24,-463.15"/>
<text text-anchor="middle" x="3978.83" y="-479.51" font-family="Helvetica,sans-Serif" font-size="14.00">G</text>
</g>
<!-- 30 -->
<g id="node21" class="node">
<title>30</title>
<polygon fill="#8dcc3d" stroke="black" points="4454.83,-457.71 4281.83,-457.71 4281.83,-379.71 4454.83,-379.71 4454.83,-457.71"/>
<text text-anchor="start" x="4326.83" y="-443.51" font-family="Helvetica,sans-Serif" font-weight="bold" font-size="14.00"> Class=IE </text>
<text text-anchor="start" x="4404.83" y="-443.51" font-family="Helvetica,sans-Serif" font-size="14.00"> </text>
<text text-anchor="start" x="4289.83" y="-429.51" font-family="Helvetica,sans-Serif" font-size="14.00"> error: 0.632, n=3190 </text>
<text text-anchor="start" x="4292.83" y="-415.51" font-family="Helvetica,sans-Serif" font-size="14.00"> p: (0.00, 0.59, 0.40) </text>
<text text-anchor="start" x="4336.33" y="-401.51" font-family="Helvetica,sans-Serif" font-size="14.00">&#45;&#45;&#45;&#45;&#45;&#45;&#45;&#45;&#45;&#45;&#45;&#45;</text>
<text text-anchor="start" x="4319.83" y="-387.51" font-family="Helvetica,sans-Serif" font-weight="bold" font-size="14.00">attribute_29</text>
</g>
<!-- 16&#45;&gt;30 -->
<g id="edge20" class="edge">
<title>16:s&#45;&gt;30:n</title>
<path fill="none" stroke="black" d="M3818.33,-508.71C3818.33,-508.71 4283.77,-465.55 4358.31,-458.64"/>
<polygon fill="black" stroke="black" points="4358.7,-462.12 4368.33,-457.71 4358.05,-455.15 4358.7,-462.12"/>
<text text-anchor="middle" x="4164.33" y="-479.51" font-family="Helvetica,sans-Serif" font-size="14.00">A</text>
</g>
<!-- 18 -->
<g id="node22" class="node">
<title>18</title>
<polygon fill="#44e55e" stroke="black" points="3630.83,-328.71 3457.83,-328.71 3457.83,-250.71 3630.83,-250.71 3630.83,-328.71"/>
<text text-anchor="start" x="3502.83" y="-314.51" font-family="Helvetica,sans-Serif" font-weight="bold" font-size="14.00"> Class=EI </text>
<text text-anchor="start" x="3580.83" y="-314.51" font-family="Helvetica,sans-Serif" font-size="14.00"> </text>
<text text-anchor="start" x="3465.83" y="-300.51" font-family="Helvetica,sans-Serif" font-size="14.00"> error: 0.503, n=3190 </text>
<text text-anchor="start" x="3468.83" y="-286.51" font-family="Helvetica,sans-Serif" font-size="14.00"> p: (0.82, 0.14, 0.03) </text>
<text text-anchor="start" x="3512.33" y="-272.51" font-family="Helvetica,sans-Serif" font-size="14.00">&#45;&#45;&#45;&#45;&#45;&#45;&#45;&#45;&#45;&#45;&#45;&#45;</text>
<text text-anchor="start" x="3495.83" y="-258.51" font-family="Helvetica,sans-Serif" font-weight="bold" font-size="14.00">attribute_35</text>
</g>
<!-- 17&#45;&gt;18 -->
<g id="edge21" class="edge">
<title>17:s&#45;&gt;18:n</title>
<path fill="none" stroke="black" d="M3573.33,-379.71C3573.33,-379.71 3557.69,-352.21 3549.38,-337.59"/>
<polygon fill="black" stroke="black" points="3552.32,-335.67 3544.33,-328.71 3546.23,-339.13 3552.32,-335.67"/>
<text text-anchor="middle" x="3567.83" y="-350.51" font-family="Helvetica,sans-Serif" font-size="14.00">G</text>
</g>
<!-- 25 -->
<g id="node28" class="node">
<title>25</title>
<polygon fill="#44e55e" stroke="black" points="3884.83,-328.71 3711.83,-328.71 3711.83,-250.71 3884.83,-250.71 3884.83,-328.71"/>
<text text-anchor="start" x="3756.83" y="-314.51" font-family="Helvetica,sans-Serif" font-weight="bold" font-size="14.00"> Class=IE </text>
<text text-anchor="start" x="3834.83" y="-314.51" font-family="Helvetica,sans-Serif" font-size="14.00"> </text>
<text text-anchor="start" x="3719.83" y="-300.51" font-family="Helvetica,sans-Serif" font-size="14.00"> error: 0.459, n=3190 </text>
<text text-anchor="start" x="3722.83" y="-286.51" font-family="Helvetica,sans-Serif" font-size="14.00"> p: (0.02, 0.83, 0.15) </text>
<text text-anchor="start" x="3766.33" y="-272.51" font-family="Helvetica,sans-Serif" font-size="14.00">&#45;&#45;&#45;&#45;&#45;&#45;&#45;&#45;&#45;&#45;&#45;&#45;</text>
<text text-anchor="start" x="3749.83" y="-258.51" font-family="Helvetica,sans-Serif" font-weight="bold" font-size="14.00">attribute_28</text>
</g>
<!-- 24&#45;&gt;25 -->
<g id="edge27" class="edge">
<title>24:s&#45;&gt;25:n</title>
<path fill="none" stroke="black" d="M3818.33,-379.71C3818.33,-379.71 3807.77,-352.79 3802,-338.06"/>
<polygon fill="black" stroke="black" points="3805.24,-336.74 3798.33,-328.71 3798.72,-339.3 3805.24,-336.74"/>
<text text-anchor="middle" x="3816.33" y="-350.51" font-family="Helvetica,sans-Serif" font-size="14.00">A</text>
</g>
<!-- 28 -->
<g id="node30" class="node">
<title>28</title>
<polygon fill="#44e55e" stroke="black" points="4191.83,-328.71 4018.83,-328.71 4018.83,-250.71 4191.83,-250.71 4191.83,-328.71"/>
<text text-anchor="start" x="4063.83" y="-314.51" font-family="Helvetica,sans-Serif" font-weight="bold" font-size="14.00"> Class=IE </text>
<text text-anchor="start" x="4141.83" y="-314.51" font-family="Helvetica,sans-Serif" font-size="14.00"> </text>
<text text-anchor="start" x="4026.83" y="-300.51" font-family="Helvetica,sans-Serif" font-size="14.00"> error: 0.395, n=3190 </text>
<text text-anchor="start" x="4029.83" y="-286.51" font-family="Helvetica,sans-Serif" font-size="14.00"> p: (0.00, 0.84, 0.16) </text>
<text text-anchor="start" x="4073.33" y="-272.51" font-family="Helvetica,sans-Serif" font-size="14.00">&#45;&#45;&#45;&#45;&#45;&#45;&#45;&#45;&#45;&#45;&#45;&#45;</text>
<text text-anchor="start" x="4056.83" y="-258.51" font-family="Helvetica,sans-Serif" font-weight="bold" font-size="14.00">attribute_28</text>
</g>
<!-- 27&#45;&gt;28 -->
<g id="edge29" class="edge">
<title>27:s&#45;&gt;28:n</title>
<path fill="none" stroke="black" d="M4067.33,-379.71C4067.33,-379.71 4088.26,-351.62 4099.05,-337.13"/>
<polygon fill="black" stroke="black" points="4102.16,-338.82 4105.33,-328.71 4096.55,-334.64 4102.16,-338.82"/>
<text text-anchor="middle" x="4096.33" y="-350.51" font-family="Helvetica,sans-Serif" font-size="14.00">A</text>
</g>
<!-- 31 -->
<g id="node32" class="node">
<title>31</title>
<polygon fill="#44e55e" stroke="black" points="4482.83,-328.71 4309.83,-328.71 4309.83,-250.71 4482.83,-250.71 4482.83,-328.71"/>
<text text-anchor="start" x="4354.83" y="-314.51" font-family="Helvetica,sans-Serif" font-weight="bold" font-size="14.00"> Class=IE </text>
<text text-anchor="start" x="4432.83" y="-314.51" font-family="Helvetica,sans-Serif" font-size="14.00"> </text>
<text text-anchor="start" x="4317.83" y="-300.51" font-family="Helvetica,sans-Serif" font-size="14.00"> error: 0.451, n=3190 </text>
<text text-anchor="start" x="4320.83" y="-286.51" font-family="Helvetica,sans-Serif" font-size="14.00"> p: (0.00, 0.80, 0.20) </text>
<text text-anchor="start" x="4364.33" y="-272.51" font-family="Helvetica,sans-Serif" font-size="14.00">&#45;&#45;&#45;&#45;&#45;&#45;&#45;&#45;&#45;&#45;&#45;&#45;</text>
<text text-anchor="start" x="4347.83" y="-258.51" font-family="Helvetica,sans-Serif" font-weight="bold" font-size="14.00">attribute_28</text>
</g>
<!-- 30&#45;&gt;31 -->
<g id="edge31" class="edge">
<title>30:s&#45;&gt;31:n</title>
<path fill="none" stroke="black" d="M4368.33,-379.71C4368.33,-379.71 4383.43,-352.21 4391.45,-337.59"/>
<polygon fill="black" stroke="black" points="4394.58,-339.16 4396.33,-328.71 4388.45,-335.79 4394.58,-339.16"/>
<text text-anchor="middle" x="4391.33" y="-350.51" font-family="Helvetica,sans-Serif" font-size="14.00">A</text>
</g>
<!-- 19 -->
<g id="node23" class="node">
<title>19</title>
<polygon fill="#3dccba" stroke="black" points="3594.83,-199.71 3421.83,-199.71 3421.83,-121.71 3594.83,-121.71 3594.83,-199.71"/>
<text text-anchor="start" x="3466.83" y="-185.51" font-family="Helvetica,sans-Serif" font-weight="bold" font-size="14.00"> Class=EI </text>
<text text-anchor="start" x="3544.83" y="-185.51" font-family="Helvetica,sans-Serif" font-size="14.00"> </text>
<text text-anchor="start" x="3429.83" y="-171.51" font-family="Helvetica,sans-Serif" font-size="14.00"> error: 0.177, n=3190 </text>
<text text-anchor="start" x="3432.83" y="-157.51" font-family="Helvetica,sans-Serif" font-size="14.00"> p: (0.96, 0.04, 0.00) </text>
<text text-anchor="start" x="3476.33" y="-143.51" font-family="Helvetica,sans-Serif" font-size="14.00">&#45;&#45;&#45;&#45;&#45;&#45;&#45;&#45;&#45;&#45;&#45;&#45;</text>
<text text-anchor="start" x="3459.83" y="-129.51" font-family="Helvetica,sans-Serif" font-weight="bold" font-size="14.00">attribute_25</text>
</g>
<!-- 18&#45;&gt;19 -->
<g id="edge22" class="edge">
<title>18:s&#45;&gt;19:n</title>
<path fill="none" stroke="black" d="M3544.33,-250.71C3544.33,-250.71 3524.5,-222.62 3514.27,-208.13"/>
<polygon fill="black" stroke="black" points="3516.96,-205.86 3508.33,-199.71 3511.24,-209.9 3516.96,-205.86"/>
<text text-anchor="middle" x="3536.83" y="-221.51" font-family="Helvetica,sans-Serif" font-size="14.00">G</text>
</g>
<!-- 20 -->
<g id="node24" class="node">
<title>20</title>
<ellipse fill="#4485e5" stroke="black" cx="3033.33" cy="-35.36" rx="122.16" ry="35.21"/>
<text text-anchor="start" x="2991.83" y="-46.16" font-family="Helvetica,sans-Serif" font-weight="bold" font-size="14.00"> Class=EI </text>
<text text-anchor="start" x="3069.83" y="-46.16" font-family="Helvetica,sans-Serif" font-size="14.00"> </text>
<text text-anchor="start" x="2954.83" y="-32.16" font-family="Helvetica,sans-Serif" font-size="14.00"> error: 0.000, n=3190 </text>
<text text-anchor="start" x="2957.83" y="-18.16" font-family="Helvetica,sans-Serif" font-size="14.00"> p: (1.00, 0.00, 0.00) </text>
</g>
<!-- 19&#45;&gt;20 -->
<g id="edge23" class="edge">
<title>19:s&#45;&gt;20:n</title>
<path fill="none" stroke="black" d="M3508.33,-121.71C3508.33,-121.71 3113.16,-79.28 3043.69,-71.82"/>
<polygon fill="black" stroke="black" points="3043.65,-68.3 3033.33,-70.71 3042.9,-75.26 3043.65,-68.3"/>
<text text-anchor="middle" x="3333.83" y="-92.51" font-family="Helvetica,sans-Serif" font-size="14.00">G</text>
</g>
<!-- 21 -->
<g id="node25" class="node">
<title>21</title>
<ellipse fill="#4485e5" stroke="black" cx="3350.33" cy="-35.36" rx="122.16" ry="35.21"/>
<text text-anchor="start" x="3308.83" y="-46.16" font-family="Helvetica,sans-Serif" font-weight="bold" font-size="14.00"> Class=EI </text>
<text text-anchor="start" x="3386.83" y="-46.16" font-family="Helvetica,sans-Serif" font-size="14.00"> </text>
<text text-anchor="start" x="3271.83" y="-32.16" font-family="Helvetica,sans-Serif" font-size="14.00"> error: 0.284, n=3190 </text>
<text text-anchor="start" x="3274.83" y="-18.16" font-family="Helvetica,sans-Serif" font-size="14.00"> p: (0.92, 0.08, 0.01) </text>
</g>
<!-- 19&#45;&gt;21 -->
<g id="edge24" class="edge">
<title>19:s&#45;&gt;21:n</title>
<path fill="none" stroke="black" d="M3508.33,-121.71C3508.33,-121.71 3394.8,-85.07 3360.21,-73.9"/>
<polygon fill="black" stroke="black" points="3360.92,-70.45 3350.33,-70.71 3358.77,-77.11 3360.92,-70.45"/>
<text text-anchor="middle" x="3452.83" y="-92.51" font-family="Helvetica,sans-Serif" font-size="14.00">T</text>
</g>
<!-- 22 -->
<g id="node26" class="node">
<title>22</title>
<ellipse fill="#4485e5" stroke="black" cx="3667.33" cy="-35.36" rx="122.16" ry="35.21"/>
<text text-anchor="start" x="3625.83" y="-46.16" font-family="Helvetica,sans-Serif" font-weight="bold" font-size="14.00"> Class=EI </text>
<text text-anchor="start" x="3703.83" y="-46.16" font-family="Helvetica,sans-Serif" font-size="14.00"> </text>
<text text-anchor="start" x="3588.83" y="-32.16" font-family="Helvetica,sans-Serif" font-size="14.00"> error: 0.309, n=3190 </text>
<text text-anchor="start" x="3591.83" y="-18.16" font-family="Helvetica,sans-Serif" font-size="14.00"> p: (0.91, 0.09, 0.01) </text>
</g>
<!-- 19&#45;&gt;22 -->
<g id="edge25" class="edge">
<title>19:s&#45;&gt;22:n</title>
<path fill="none" stroke="black" d="M3508.33,-121.71C3508.33,-121.71 3622.57,-85.07 3657.38,-73.9"/>
<polygon fill="black" stroke="black" points="3658.88,-77.1 3667.33,-70.71 3656.74,-70.43 3658.88,-77.1"/>
<text text-anchor="middle" x="3612.33" y="-92.51" font-family="Helvetica,sans-Serif" font-size="14.00">C</text>
</g>
<!-- 23 -->
<g id="node27" class="node">
<title>23</title>
<ellipse fill="#4485e5" stroke="black" cx="3984.33" cy="-35.36" rx="122.16" ry="35.21"/>
<text text-anchor="start" x="3942.83" y="-46.16" font-family="Helvetica,sans-Serif" font-weight="bold" font-size="14.00"> Class=EI </text>
<text text-anchor="start" x="4020.83" y="-46.16" font-family="Helvetica,sans-Serif" font-size="14.00"> </text>
<text text-anchor="start" x="3905.83" y="-32.16" font-family="Helvetica,sans-Serif" font-size="14.00"> error: 0.000, n=3190 </text>
<text text-anchor="start" x="3908.83" y="-18.16" font-family="Helvetica,sans-Serif" font-size="14.00"> p: (1.00, 0.00, 0.00) </text>
</g>
<!-- 19&#45;&gt;23 -->
<g id="edge26" class="edge">
<title>19:s&#45;&gt;23:n</title>
<path fill="none" stroke="black" d="M3508.33,-121.71C3508.33,-121.71 3904.33,-79.28 3973.94,-71.82"/>
<polygon fill="black" stroke="black" points="3974.76,-75.26 3984.33,-70.71 3974.01,-68.3 3974.76,-75.26"/>
<text text-anchor="middle" x="3808.33" y="-92.51" font-family="Helvetica,sans-Serif" font-size="14.00">A</text>
</g>
<!-- 26 -->
<g id="node29" class="node">
<title>26</title>
<ellipse fill="#3dccba" stroke="black" cx="3789.33" cy="-160.71" rx="122.16" ry="35.21"/>
<text text-anchor="start" x="3747.83" y="-171.51" font-family="Helvetica,sans-Serif" font-weight="bold" font-size="14.00"> Class=IE </text>
<text text-anchor="start" x="3825.83" y="-171.51" font-family="Helvetica,sans-Serif" font-size="14.00"> </text>
<text text-anchor="start" x="3710.83" y="-157.51" font-family="Helvetica,sans-Serif" font-size="14.00"> error: 0.310, n=3190 </text>
<text text-anchor="start" x="3713.83" y="-143.51" font-family="Helvetica,sans-Serif" font-size="14.00"> p: (0.01, 0.91, 0.08) </text>
</g>
<!-- 25&#45;&gt;26 -->
<g id="edge28" class="edge">
<title>25:s&#45;&gt;26:n</title>
<path fill="none" stroke="black" d="M3798.33,-250.71C3798.33,-250.71 3793.68,-223.33 3791.06,-207.93"/>
<polygon fill="black" stroke="black" points="3794.45,-206.98 3789.33,-197.71 3787.55,-208.16 3794.45,-206.98"/>
<text text-anchor="middle" x="3800.33" y="-221.51" font-family="Helvetica,sans-Serif" font-size="14.00">C</text>
</g>
<!-- 29 -->
<g id="node31" class="node">
<title>29</title>
<ellipse fill="#3dccba" stroke="black" cx="4106.33" cy="-160.71" rx="122.16" ry="35.21"/>
<text text-anchor="start" x="4064.83" y="-171.51" font-family="Helvetica,sans-Serif" font-weight="bold" font-size="14.00"> Class=IE </text>
<text text-anchor="start" x="4142.83" y="-171.51" font-family="Helvetica,sans-Serif" font-size="14.00"> </text>
<text text-anchor="start" x="4027.83" y="-157.51" font-family="Helvetica,sans-Serif" font-size="14.00"> error: 0.219, n=3190 </text>
<text text-anchor="start" x="4030.83" y="-143.51" font-family="Helvetica,sans-Serif" font-size="14.00"> p: (0.00, 0.94, 0.06) </text>
</g>
<!-- 28&#45;&gt;29 -->
<g id="edge30" class="edge">
<title>28:s&#45;&gt;29:n</title>
<path fill="none" stroke="black" d="M4105.33,-250.71C4105.33,-250.71 4105.85,-223.33 4106.14,-207.93"/>
<polygon fill="black" stroke="black" points="4109.64,-207.77 4106.33,-197.71 4102.64,-207.64 4109.64,-207.77"/>
<text text-anchor="middle" x="4111.33" y="-221.51" font-family="Helvetica,sans-Serif" font-size="14.00">C</text>
</g>
<!-- 32 -->
<g id="node33" class="node">
<title>32</title>
<ellipse fill="#3dccba" stroke="black" cx="4423.33" cy="-160.71" rx="122.16" ry="35.21"/>
<text text-anchor="start" x="4381.83" y="-171.51" font-family="Helvetica,sans-Serif" font-weight="bold" font-size="14.00"> Class=IE </text>
<text text-anchor="start" x="4459.83" y="-171.51" font-family="Helvetica,sans-Serif" font-size="14.00"> </text>
<text text-anchor="start" x="4344.83" y="-157.51" font-family="Helvetica,sans-Serif" font-size="14.00"> error: 0.251, n=3190 </text>
<text text-anchor="start" x="4347.83" y="-143.51" font-family="Helvetica,sans-Serif" font-size="14.00"> p: (0.00, 0.92, 0.08) </text>
</g>
<!-- 31&#45;&gt;32 -->
<g id="edge32" class="edge">
<title>31:s&#45;&gt;32:n</title>
<path fill="none" stroke="black" d="M4396.33,-250.71C4396.33,-250.71 4410.89,-222.13 4418.63,-206.94"/>
<polygon fill="black" stroke="black" points="4421.91,-208.21 4423.33,-197.71 4415.67,-205.03 4421.91,-208.21"/>
<text text-anchor="middle" x="4418.33" y="-221.51" font-family="Helvetica,sans-Serif" font-size="14.00">C</text>
</g>
</g>
</svg>
