<?xml version="1.0" encoding="UTF-8" standalone="no"?>
<!DOCTYPE svg PUBLIC "-//W3C//DTD SVG 1.1//EN"
 "http://www.w3.org/Graphics/SVG/1.1/DTD/svg11.dtd">
<!-- Generated by graphviz version 2.43.0 (0)
 -->
<!-- Title: Tree Pages: 1 -->
<svg width="808pt" height="567pt"
 viewBox="0.00 0.00 807.93 566.71" xmlns="http://www.w3.org/2000/svg" xmlns:xlink="http://www.w3.org/1999/xlink">
<g id="graph0" class="graph" transform="scale(1 1) rotate(0) translate(18 548.71)">
<title>Tree</title>
<polygon fill="white" stroke="transparent" points="-18,18 -18,-548.71 789.93,-548.71 789.93,18 -18,18"/>
<!-- 0 -->
<g id="node1" class="node">
<title>0</title>
<polygon fill="white" stroke="transparent" points="412.97,-530.71 358.97,-530.71 358.97,-494.71 412.97,-494.71 412.97,-530.71"/>
<text text-anchor="middle" x="385.97" y="-509.01" font-family="Helvetica,sans-Serif" font-size="14.00">0</text>
</g>
<!-- 1 -->
<g id="node2" class="node">
<title>1</title>
<polygon fill="#cc3d3d" stroke="black" points="479.97,-457.71 291.97,-457.71 291.97,-379.71 479.97,-379.71 479.97,-457.71"/>
<text text-anchor="start" x="320.97" y="-443.51" font-family="Helvetica,sans-Serif" font-weight="bold" font-size="14.00"> Class=positive </text>
<text text-anchor="start" x="445.97" y="-443.51" font-family="Helvetica,sans-Serif" font-size="14.00"> </text>
<text text-anchor="start" x="311.97" y="-429.51" font-family="Helvetica,sans-Serif" font-size="14.00"> error: 0.931, n=958 </text>
<text text-anchor="start" x="330.97" y="-415.51" font-family="Helvetica,sans-Serif" font-size="14.00"> p: (0.35, 0.65) </text>
<text text-anchor="start" x="332.97" y="-401.51" font-family="Helvetica,sans-Serif" font-size="14.00">&#45;&#45;&#45;&#45;&#45;&#45;&#45;&#45;&#45;&#45;&#45;&#45;&#45;&#45;&#45;&#45;&#45;&#45;&#45;&#45;</text>
<text text-anchor="start" x="299.97" y="-387.51" font-family="Helvetica,sans-Serif" font-weight="bold" font-size="14.00">middle&#45;middle&#45;square</text>
</g>
<!-- 0&#45;&gt;1 -->
<!-- 2 -->
<g id="node3" class="node">
<title>2</title>
<ellipse fill="#c5e544" stroke="black" cx="115.97" cy="-289.71" rx="115.93" ry="35.21"/>
<text text-anchor="start" x="50.97" y="-300.51" font-family="Helvetica,sans-Serif" font-weight="bold" font-size="14.00"> Class=positive </text>
<text text-anchor="start" x="175.97" y="-300.51" font-family="Helvetica,sans-Serif" font-size="14.00"> </text>
<text text-anchor="start" x="41.97" y="-286.51" font-family="Helvetica,sans-Serif" font-size="14.00"> error: 0.724, n=958 </text>
<text text-anchor="start" x="60.97" y="-272.51" font-family="Helvetica,sans-Serif" font-size="14.00"> p: (0.20, 0.80) </text>
</g>
<!-- 1&#45;&gt;2 -->
<g id="edge2" class="edge">
<title>1:s&#45;&gt;2:n</title>
<path fill="none" stroke="black" d="M385.97,-379.71C385.97,-379.71 174.61,-338.22 125.9,-328.66"/>
<polygon fill="black" stroke="black" points="126.45,-325.2 115.97,-326.71 125.1,-332.07 126.45,-325.2"/>
<text text-anchor="middle" x="295.47" y="-350.51" font-family="Helvetica,sans-Serif" font-size="14.00">x</text>
</g>
<!-- 3 -->
<g id="node4" class="node">
<title>3</title>
<polygon fill="#c5e544" stroke="black" points="467.97,-328.71 303.97,-328.71 303.97,-250.71 467.97,-250.71 467.97,-328.71"/>
<text text-anchor="start" x="320.97" y="-314.51" font-family="Helvetica,sans-Serif" font-weight="bold" font-size="14.00"> Class=positive </text>
<text text-anchor="start" x="445.97" y="-314.51" font-family="Helvetica,sans-Serif" font-size="14.00"> </text>
<text text-anchor="start" x="311.97" y="-300.51" font-family="Helvetica,sans-Serif" font-size="14.00"> error: 0.881, n=958 </text>
<text text-anchor="start" x="330.97" y="-286.51" font-family="Helvetica,sans-Serif" font-size="14.00"> p: (0.30, 0.70) </text>
<text text-anchor="start" x="346.47" y="-272.51" font-family="Helvetica,sans-Serif" font-size="14.00">&#45;&#45;&#45;&#45;&#45;&#45;&#45;&#45;&#45;&#45;&#45;&#45;&#45;&#45;&#45;</text>
<text text-anchor="start" x="325.97" y="-258.51" font-family="Helvetica,sans-Serif" font-weight="bold" font-size="14.00">top&#45;left&#45;square</text>
</g>
<!-- 1&#45;&gt;3 -->
<g id="edge3" class="edge">
<title>1:s&#45;&gt;3:n</title>
<path fill="none" stroke="black" d="M385.97,-379.71C385.97,-379.71 385.97,-353.93 385.97,-339.03"/>
<polygon fill="black" stroke="black" points="389.47,-338.71 385.97,-328.71 382.47,-338.71 389.47,-338.71"/>
<text text-anchor="middle" x="390.97" y="-350.51" font-family="Helvetica,sans-Serif" font-size="14.00">b</text>
</g>
<!-- 8 -->
<g id="node5" class="node">
<title>8</title>
<ellipse fill="#c5e544" stroke="black" cx="655.97" cy="-289.71" rx="115.93" ry="35.21"/>
<text text-anchor="start" x="587.47" y="-300.51" font-family="Helvetica,sans-Serif" font-weight="bold" font-size="14.00"> Class=negative </text>
<text text-anchor="start" x="719.47" y="-300.51" font-family="Helvetica,sans-Serif" font-size="14.00"> </text>
<text text-anchor="start" x="581.97" y="-286.51" font-family="Helvetica,sans-Serif" font-size="14.00"> error: 0.988, n=958 </text>
<text text-anchor="start" x="600.97" y="-272.51" font-family="Helvetica,sans-Serif" font-size="14.00"> p: (0.56, 0.44) </text>
</g>
<!-- 1&#45;&gt;8 -->
<g id="edge4" class="edge">
<title>1:s&#45;&gt;8:n</title>
<path fill="none" stroke="black" d="M385.97,-379.71C385.97,-379.71 597.32,-338.22 646.04,-328.66"/>
<polygon fill="black" stroke="black" points="646.83,-332.07 655.97,-326.71 645.48,-325.2 646.83,-332.07"/>
<text text-anchor="middle" x="558.47" y="-350.51" font-family="Helvetica,sans-Serif" font-size="14.00">o</text>
</g>
<!-- 4 -->
<g id="node6" class="node">
<title>4</title>
<polygon fill="#3dcc76" stroke="black" points="330.47,-199.71 153.47,-199.71 153.47,-121.71 330.47,-121.71 330.47,-199.71"/>
<text text-anchor="start" x="176.97" y="-185.51" font-family="Helvetica,sans-Serif" font-weight="bold" font-size="14.00"> Class=positive </text>
<text text-anchor="start" x="301.97" y="-185.51" font-family="Helvetica,sans-Serif" font-size="14.00"> </text>
<text text-anchor="start" x="167.97" y="-171.51" font-family="Helvetica,sans-Serif" font-size="14.00"> error: 0.679, n=958 </text>
<text text-anchor="start" x="186.97" y="-157.51" font-family="Helvetica,sans-Serif" font-size="14.00"> p: (0.18, 0.82) </text>
<text text-anchor="start" x="191.97" y="-143.51" font-family="Helvetica,sans-Serif" font-size="14.00">&#45;&#45;&#45;&#45;&#45;&#45;&#45;&#45;&#45;&#45;&#45;&#45;&#45;&#45;&#45;&#45;&#45;&#45;&#45;</text>
<text text-anchor="start" x="161.47" y="-129.51" font-family="Helvetica,sans-Serif" font-weight="bold" font-size="14.00">bottom&#45;right&#45;square</text>
</g>
<!-- 3&#45;&gt;4 -->
<g id="edge5" class="edge">
<title>3:s&#45;&gt;4:n</title>
<path fill="none" stroke="black" d="M385.97,-250.71C385.97,-250.71 283.45,-214.4 251.41,-203.06"/>
<polygon fill="black" stroke="black" points="252.56,-199.75 241.97,-199.71 250.22,-206.35 252.56,-199.75"/>
<text text-anchor="middle" x="336.47" y="-221.51" font-family="Helvetica,sans-Serif" font-size="14.00">x</text>
</g>
<!-- 6 -->
<g id="node7" class="node">
<title>6</title>
<polygon fill="#3dcc76" stroke="black" points="606.47,-199.71 429.47,-199.71 429.47,-121.71 606.47,-121.71 606.47,-199.71"/>
<text text-anchor="start" x="452.97" y="-185.51" font-family="Helvetica,sans-Serif" font-weight="bold" font-size="14.00"> Class=positive </text>
<text text-anchor="start" x="577.97" y="-185.51" font-family="Helvetica,sans-Serif" font-size="14.00"> </text>
<text text-anchor="start" x="443.97" y="-171.51" font-family="Helvetica,sans-Serif" font-size="14.00"> error: 0.999, n=958 </text>
<text text-anchor="start" x="462.97" y="-157.51" font-family="Helvetica,sans-Serif" font-size="14.00"> p: (0.48, 0.52) </text>
<text text-anchor="start" x="467.97" y="-143.51" font-family="Helvetica,sans-Serif" font-size="14.00">&#45;&#45;&#45;&#45;&#45;&#45;&#45;&#45;&#45;&#45;&#45;&#45;&#45;&#45;&#45;&#45;&#45;&#45;&#45;</text>
<text text-anchor="start" x="437.47" y="-129.51" font-family="Helvetica,sans-Serif" font-weight="bold" font-size="14.00">bottom&#45;right&#45;square</text>
</g>
<!-- 3&#45;&gt;6 -->
<g id="edge6" class="edge">
<title>3:s&#45;&gt;6:n</title>
<path fill="none" stroke="black" d="M385.97,-250.71C385.97,-250.71 478.21,-215.07 508.47,-203.38"/>
<polygon fill="black" stroke="black" points="509.9,-206.58 517.97,-199.71 507.38,-200.05 509.9,-206.58"/>
<text text-anchor="middle" x="472.47" y="-221.51" font-family="Helvetica,sans-Serif" font-size="14.00">o</text>
</g>
<!-- 5 -->
<g id="node8" class="node">
<title>5</title>
<ellipse fill="#4485e5" stroke="black" cx="227.97" cy="-35.36" rx="115.93" ry="35.21"/>
<text text-anchor="start" x="162.97" y="-46.16" font-family="Helvetica,sans-Serif" font-weight="bold" font-size="14.00"> Class=positive </text>
<text text-anchor="start" x="287.97" y="-46.16" font-family="Helvetica,sans-Serif" font-size="14.00"> </text>
<text text-anchor="start" x="153.97" y="-32.16" font-family="Helvetica,sans-Serif" font-size="14.00"> error: 0.918, n=958 </text>
<text text-anchor="start" x="172.97" y="-18.16" font-family="Helvetica,sans-Serif" font-size="14.00"> p: (0.33, 0.67) </text>
</g>
<!-- 4&#45;&gt;5 -->
<g id="edge7" class="edge">
<title>4:s&#45;&gt;5:n</title>
<path fill="none" stroke="black" d="M241.97,-121.71C241.97,-121.71 234.73,-95.36 230.66,-80.54"/>
<polygon fill="black" stroke="black" points="233.99,-79.43 227.97,-70.71 227.24,-81.28 233.99,-79.43"/>
<text text-anchor="middle" x="241.47" y="-92.51" font-family="Helvetica,sans-Serif" font-size="14.00">o</text>
</g>
<!-- 7 -->
<g id="node9" class="node">
<title>7</title>
<ellipse fill="#4485e5" stroke="black" cx="531.97" cy="-35.36" rx="115.93" ry="35.21"/>
<text text-anchor="start" x="466.97" y="-46.16" font-family="Helvetica,sans-Serif" font-weight="bold" font-size="14.00"> Class=positive </text>
<text text-anchor="start" x="591.97" y="-46.16" font-family="Helvetica,sans-Serif" font-size="14.00"> </text>
<text text-anchor="start" x="457.97" y="-32.16" font-family="Helvetica,sans-Serif" font-size="14.00"> error: 0.918, n=958 </text>
<text text-anchor="start" x="476.97" y="-18.16" font-family="Helvetica,sans-Serif" font-size="14.00"> p: (0.33, 0.67) </text>
</g>
<!-- 6&#45;&gt;7 -->
<g id="edge8" class="edge">
<title>6:s&#45;&gt;7:n</title>
<path fill="none" stroke="black" d="M517.97,-121.71C517.97,-121.71 525.2,-95.36 529.27,-80.54"/>
<polygon fill="black" stroke="black" points="532.69,-81.28 531.97,-70.71 525.94,-79.43 532.69,-81.28"/>
<text text-anchor="middle" x="531.47" y="-92.51" font-family="Helvetica,sans-Serif" font-size="14.00">x</text>
</g>
</g>
</svg>
