<?xml version="1.0" encoding="UTF-8" standalone="no"?>
<!DOCTYPE svg PUBLIC "-//W3C//DTD SVG 1.1//EN"
 "http://www.w3.org/Graphics/SVG/1.1/DTD/svg11.dtd">
<!-- Generated by graphviz version 2.43.0 (0)
 -->
<!-- Title: Tree Pages: 1 -->
<svg width="834pt" height="567pt"
 viewBox="0.00 0.00 833.93 566.71" xmlns="http://www.w3.org/2000/svg" xmlns:xlink="http://www.w3.org/1999/xlink">
<g id="graph0" class="graph" transform="scale(1 1) rotate(0) translate(18 548.71)">
<title>Tree</title>
<polygon fill="white" stroke="transparent" points="-18,18 -18,-548.71 815.93,-548.71 815.93,18 -18,18"/>
<!-- 0 -->
<g id="node1" class="node">
<title>0</title>
<polygon fill="white" stroke="transparent" points="432.97,-530.71 378.97,-530.71 378.97,-494.71 432.97,-494.71 432.97,-530.71"/>
<text text-anchor="middle" x="405.97" y="-509.01" font-family="Helvetica,sans-Serif" font-size="14.00">0</text>
</g>
<!-- 1 -->
<g id="node2" class="node">
<title>1</title>
<polygon fill="#cc3d3d" stroke="black" points="499.97,-457.71 311.97,-457.71 311.97,-379.71 499.97,-379.71 499.97,-457.71"/>
<text text-anchor="start" x="340.97" y="-443.51" font-family="Helvetica,sans-Serif" font-weight="bold" font-size="14.00"> Class=positive </text>
<text text-anchor="start" x="465.97" y="-443.51" font-family="Helvetica,sans-Serif" font-size="14.00"> </text>
<text text-anchor="start" x="331.97" y="-429.51" font-family="Helvetica,sans-Serif" font-size="14.00"> error: 0.931, n=958 </text>
<text text-anchor="start" x="350.97" y="-415.51" font-family="Helvetica,sans-Serif" font-size="14.00"> p: (0.35, 0.65) </text>
<text text-anchor="start" x="352.97" y="-401.51" font-family="Helvetica,sans-Serif" font-size="14.00">&#45;&#45;&#45;&#45;&#45;&#45;&#45;&#45;&#45;&#45;&#45;&#45;&#45;&#45;&#45;&#45;&#45;&#45;&#45;&#45;</text>
<text text-anchor="start" x="319.97" y="-387.51" font-family="Helvetica,sans-Serif" font-weight="bold" font-size="14.00">middle&#45;middle&#45;square</text>
</g>
<!-- 0&#45;&gt;1 -->
<!-- 2 -->
<g id="node3" class="node">
<title>2</title>
<ellipse fill="#c5e544" stroke="black" cx="135.97" cy="-289.71" rx="115.93" ry="35.21"/>
<text text-anchor="start" x="70.97" y="-300.51" font-family="Helvetica,sans-Serif" font-weight="bold" font-size="14.00"> Class=positive </text>
<text text-anchor="start" x="195.97" y="-300.51" font-family="Helvetica,sans-Serif" font-size="14.00"> </text>
<text text-anchor="start" x="61.97" y="-286.51" font-family="Helvetica,sans-Serif" font-size="14.00"> error: 0.724, n=958 </text>
<text text-anchor="start" x="80.97" y="-272.51" font-family="Helvetica,sans-Serif" font-size="14.00"> p: (0.20, 0.80) </text>
</g>
<!-- 1&#45;&gt;2 -->
<g id="edge2" class="edge">
<title>1:s&#45;&gt;2:n</title>
<path fill="none" stroke="black" d="M405.97,-379.71C405.97,-379.71 194.61,-338.22 145.9,-328.66"/>
<polygon fill="black" stroke="black" points="146.45,-325.2 135.97,-326.71 145.1,-332.07 146.45,-325.2"/>
<text text-anchor="middle" x="315.47" y="-350.51" font-family="Helvetica,sans-Serif" font-size="14.00">x</text>
</g>
<!-- 3 -->
<g id="node4" class="node">
<title>3</title>
<polygon fill="#c5e544" stroke="black" points="487.97,-328.71 323.97,-328.71 323.97,-250.71 487.97,-250.71 487.97,-328.71"/>
<text text-anchor="start" x="340.97" y="-314.51" font-family="Helvetica,sans-Serif" font-weight="bold" font-size="14.00"> Class=positive </text>
<text text-anchor="start" x="465.97" y="-314.51" font-family="Helvetica,sans-Serif" font-size="14.00"> </text>
<text text-anchor="start" x="331.97" y="-300.51" font-family="Helvetica,sans-Serif" font-size="14.00"> error: 0.881, n=958 </text>
<text text-anchor="start" x="350.97" y="-286.51" font-family="Helvetica,sans-Serif" font-size="14.00"> p: (0.30, 0.70) </text>
<text text-anchor="start" x="366.47" y="-272.51" font-family="Helvetica,sans-Serif" font-size="14.00">&#45;&#45;&#45;&#45;&#45;&#45;&#45;&#45;&#45;&#45;&#45;&#45;&#45;&#45;&#45;</text>
<text text-anchor="start" x="345.97" y="-258.51" font-family="Helvetica,sans-Serif" font-weight="bold" font-size="14.00">top&#45;left&#45;square</text>
</g>
<!-- 1&#45;&gt;3 -->
<g id="edge3" class="edge">
<title>1:s&#45;&gt;3:n</title>
<path fill="none" stroke="black" d="M405.97,-379.71C405.97,-379.71 405.97,-353.93 405.97,-339.03"/>
<polygon fill="black" stroke="black" points="409.47,-338.71 405.97,-328.71 402.47,-338.71 409.47,-338.71"/>
<text text-anchor="middle" x="410.97" y="-350.51" font-family="Helvetica,sans-Serif" font-size="14.00">b</text>
</g>
<!-- 9 -->
<g id="node5" class="node">
<title>9</title>
<ellipse fill="#c5e544" stroke="black" cx="675.97" cy="-289.71" rx="115.93" ry="35.21"/>
<text text-anchor="start" x="607.47" y="-300.51" font-family="Helvetica,sans-Serif" font-weight="bold" font-size="14.00"> Class=negative </text>
<text text-anchor="start" x="739.47" y="-300.51" font-family="Helvetica,sans-Serif" font-size="14.00"> </text>
<text text-anchor="start" x="601.97" y="-286.51" font-family="Helvetica,sans-Serif" font-size="14.00"> error: 0.988, n=958 </text>
<text text-anchor="start" x="620.97" y="-272.51" font-family="Helvetica,sans-Serif" font-size="14.00"> p: (0.56, 0.44) </text>
</g>
<!-- 1&#45;&gt;9 -->
<g id="edge4" class="edge">
<title>1:s&#45;&gt;9:n</title>
<path fill="none" stroke="black" d="M405.97,-379.71C405.97,-379.71 617.32,-338.22 666.04,-328.66"/>
<polygon fill="black" stroke="black" points="666.83,-332.07 675.97,-326.71 665.48,-325.2 666.83,-332.07"/>
<text text-anchor="middle" x="578.47" y="-350.51" font-family="Helvetica,sans-Serif" font-size="14.00">o</text>
</g>
<!-- 4 -->
<g id="node6" class="node">
<title>4</title>
<polygon fill="#3dcc76" stroke="black" points="218.47,-199.71 41.47,-199.71 41.47,-121.71 218.47,-121.71 218.47,-199.71"/>
<text text-anchor="start" x="64.97" y="-185.51" font-family="Helvetica,sans-Serif" font-weight="bold" font-size="14.00"> Class=positive </text>
<text text-anchor="start" x="189.97" y="-185.51" font-family="Helvetica,sans-Serif" font-size="14.00"> </text>
<text text-anchor="start" x="55.97" y="-171.51" font-family="Helvetica,sans-Serif" font-size="14.00"> error: 0.679, n=958 </text>
<text text-anchor="start" x="74.97" y="-157.51" font-family="Helvetica,sans-Serif" font-size="14.00"> p: (0.18, 0.82) </text>
<text text-anchor="start" x="79.97" y="-143.51" font-family="Helvetica,sans-Serif" font-size="14.00">&#45;&#45;&#45;&#45;&#45;&#45;&#45;&#45;&#45;&#45;&#45;&#45;&#45;&#45;&#45;&#45;&#45;&#45;&#45;</text>
<text text-anchor="start" x="49.47" y="-129.51" font-family="Helvetica,sans-Serif" font-weight="bold" font-size="14.00">bottom&#45;right&#45;square</text>
</g>
<!-- 3&#45;&gt;4 -->
<g id="edge5" class="edge">
<title>3:s&#45;&gt;4:n</title>
<path fill="none" stroke="black" d="M405.97,-250.71C405.97,-250.71 189.91,-210.79 140.12,-201.59"/>
<polygon fill="black" stroke="black" points="140.44,-198.09 129.97,-199.71 139.16,-204.97 140.44,-198.09"/>
<text text-anchor="middle" x="305.47" y="-221.51" font-family="Helvetica,sans-Serif" font-size="14.00">x</text>
</g>
<!-- 6 -->
<g id="node7" class="node">
<title>6</title>
<polygon fill="#3dcc76" stroke="black" points="494.47,-199.71 317.47,-199.71 317.47,-121.71 494.47,-121.71 494.47,-199.71"/>
<text text-anchor="start" x="340.97" y="-185.51" font-family="Helvetica,sans-Serif" font-weight="bold" font-size="14.00"> Class=positive </text>
<text text-anchor="start" x="465.97" y="-185.51" font-family="Helvetica,sans-Serif" font-size="14.00"> </text>
<text text-anchor="start" x="331.97" y="-171.51" font-family="Helvetica,sans-Serif" font-size="14.00"> error: 0.999, n=958 </text>
<text text-anchor="start" x="350.97" y="-157.51" font-family="Helvetica,sans-Serif" font-size="14.00"> p: (0.48, 0.52) </text>
<text text-anchor="start" x="355.97" y="-143.51" font-family="Helvetica,sans-Serif" font-size="14.00">&#45;&#45;&#45;&#45;&#45;&#45;&#45;&#45;&#45;&#45;&#45;&#45;&#45;&#45;&#45;&#45;&#45;&#45;&#45;</text>
<text text-anchor="start" x="325.47" y="-129.51" font-family="Helvetica,sans-Serif" font-weight="bold" font-size="14.00">bottom&#45;right&#45;square</text>
</g>
<!-- 3&#45;&gt;6 -->
<g id="edge6" class="edge">
<title>3:s&#45;&gt;6:n</title>
<path fill="none" stroke="black" d="M405.97,-250.71C405.97,-250.71 405.97,-224.93 405.97,-210.03"/>
<polygon fill="black" stroke="black" points="409.47,-209.71 405.97,-199.71 402.47,-209.71 409.47,-209.71"/>
<text text-anchor="middle" x="410.47" y="-221.51" font-family="Helvetica,sans-Serif" font-size="14.00">o</text>
</g>
<!-- 8 -->
<g id="node8" class="node">
<title>8</title>
<ellipse fill="#3dcc76" stroke="black" cx="681.97" cy="-160.71" rx="115.93" ry="35.21"/>
<text text-anchor="start" x="616.97" y="-171.51" font-family="Helvetica,sans-Serif" font-weight="bold" font-size="14.00"> Class=positive </text>
<text text-anchor="start" x="741.97" y="-171.51" font-family="Helvetica,sans-Serif" font-size="14.00"> </text>
<text text-anchor="start" x="607.97" y="-157.51" font-family="Helvetica,sans-Serif" font-size="14.00"> error: 0.863, n=958 </text>
<text text-anchor="start" x="626.97" y="-143.51" font-family="Helvetica,sans-Serif" font-size="14.00"> p: (0.29, 0.71) </text>
</g>
<!-- 3&#45;&gt;8 -->
<g id="edge7" class="edge">
<title>3:s&#45;&gt;8:n</title>
<path fill="none" stroke="black" d="M405.97,-250.71C405.97,-250.71 622.98,-209.04 672.14,-199.6"/>
<polygon fill="black" stroke="black" points="672.81,-203.03 681.97,-197.71 671.48,-196.16 672.81,-203.03"/>
<text text-anchor="middle" x="581.97" y="-221.51" font-family="Helvetica,sans-Serif" font-size="14.00">b</text>
</g>
<!-- 5 -->
<g id="node9" class="node">
<title>5</title>
<ellipse fill="#4485e5" stroke="black" cx="115.97" cy="-35.36" rx="115.93" ry="35.21"/>
<text text-anchor="start" x="50.97" y="-46.16" font-family="Helvetica,sans-Serif" font-weight="bold" font-size="14.00"> Class=positive </text>
<text text-anchor="start" x="175.97" y="-46.16" font-family="Helvetica,sans-Serif" font-size="14.00"> </text>
<text text-anchor="start" x="41.97" y="-32.16" font-family="Helvetica,sans-Serif" font-size="14.00"> error: 0.918, n=958 </text>
<text text-anchor="start" x="60.97" y="-18.16" font-family="Helvetica,sans-Serif" font-size="14.00"> p: (0.33, 0.67) </text>
</g>
<!-- 4&#45;&gt;5 -->
<g id="edge8" class="edge">
<title>4:s&#45;&gt;5:n</title>
<path fill="none" stroke="black" d="M129.97,-121.71C129.97,-121.71 122.73,-95.36 118.66,-80.54"/>
<polygon fill="black" stroke="black" points="121.99,-79.43 115.97,-70.71 115.24,-81.28 121.99,-79.43"/>
<text text-anchor="middle" x="129.47" y="-92.51" font-family="Helvetica,sans-Serif" font-size="14.00">o</text>
</g>
<!-- 7 -->
<g id="node10" class="node">
<title>7</title>
<ellipse fill="#4485e5" stroke="black" cx="419.97" cy="-35.36" rx="115.93" ry="35.21"/>
<text text-anchor="start" x="354.97" y="-46.16" font-family="Helvetica,sans-Serif" font-weight="bold" font-size="14.00"> Class=positive </text>
<text text-anchor="start" x="479.97" y="-46.16" font-family="Helvetica,sans-Serif" font-size="14.00"> </text>
<text text-anchor="start" x="345.97" y="-32.16" font-family="Helvetica,sans-Serif" font-size="14.00"> error: 0.918, n=958 </text>
<text text-anchor="start" x="364.97" y="-18.16" font-family="Helvetica,sans-Serif" font-size="14.00"> p: (0.33, 0.67) </text>
</g>
<!-- 6&#45;&gt;7 -->
<g id="edge9" class="edge">
<title>6:s&#45;&gt;7:n</title>
<path fill="none" stroke="black" d="M405.97,-121.71C405.97,-121.71 413.2,-95.36 417.27,-80.54"/>
<polygon fill="black" stroke="black" points="420.69,-81.28 419.97,-70.71 413.94,-79.43 420.69,-81.28"/>
<text text-anchor="middle" x="419.47" y="-92.51" font-family="Helvetica,sans-Serif" font-size="14.00">x</text>
</g>
</g>
</svg>
