<?xml version="1.0" encoding="UTF-8" standalone="no"?>
<!DOCTYPE svg PUBLIC "-//W3C//DTD SVG 1.1//EN"
 "http://www.w3.org/Graphics/SVG/1.1/DTD/svg11.dtd">
<!-- Generated by graphviz version 2.43.0 (0)
 -->
<!-- Title: Tree Pages: 1 -->
<svg width="876pt" height="696pt"
 viewBox="0.00 0.00 875.93 695.71" xmlns="http://www.w3.org/2000/svg" xmlns:xlink="http://www.w3.org/1999/xlink">
<g id="graph0" class="graph" transform="scale(1 1) rotate(0) translate(18 677.71)">
<title>Tree</title>
<polygon fill="white" stroke="transparent" points="-18,18 -18,-677.71 857.93,-677.71 857.93,18 -18,18"/>
<!-- 0 -->
<g id="node1" class="node">
<title>0</title>
<polygon fill="white" stroke="transparent" points="462.97,-659.71 408.97,-659.71 408.97,-623.71 462.97,-623.71 462.97,-659.71"/>
<text text-anchor="middle" x="435.97" y="-638.01" font-family="Helvetica,sans-Serif" font-size="14.00">0</text>
</g>
<!-- 1 -->
<g id="node2" class="node">
<title>1</title>
<polygon fill="#cc3d3d" stroke="black" points="517.97,-586.71 353.97,-586.71 353.97,-508.71 517.97,-508.71 517.97,-586.71"/>
<text text-anchor="start" x="396.97" y="-572.51" font-family="Helvetica,sans-Serif" font-weight="bold" font-size="14.00"> Class=1 </text>
<text text-anchor="start" x="469.97" y="-572.51" font-family="Helvetica,sans-Serif" font-size="14.00"> </text>
<text text-anchor="start" x="361.97" y="-558.51" font-family="Helvetica,sans-Serif" font-size="14.00"> error: 0.953, n=569 </text>
<text text-anchor="start" x="380.97" y="-544.51" font-family="Helvetica,sans-Serif" font-size="14.00"> p: (0.63, 0.37) </text>
<text text-anchor="start" x="427.97" y="-530.51" font-family="Helvetica,sans-Serif" font-size="14.00">&#45;&#45;&#45;</text>
<text text-anchor="start" x="420.47" y="-516.51" font-family="Helvetica,sans-Serif" font-weight="bold" font-size="14.00">V21</text>
</g>
<!-- 0&#45;&gt;1 -->
<!-- 2 -->
<g id="node3" class="node">
<title>2</title>
<polygon fill="#e5d544" stroke="black" points="382.97,-457.71 218.97,-457.71 218.97,-379.71 382.97,-379.71 382.97,-457.71"/>
<text text-anchor="start" x="261.97" y="-443.51" font-family="Helvetica,sans-Serif" font-weight="bold" font-size="14.00"> Class=2 </text>
<text text-anchor="start" x="334.97" y="-443.51" font-family="Helvetica,sans-Serif" font-size="14.00"> </text>
<text text-anchor="start" x="226.97" y="-429.51" font-family="Helvetica,sans-Serif" font-size="14.00"> error: 0.790, n=569 </text>
<text text-anchor="start" x="245.97" y="-415.51" font-family="Helvetica,sans-Serif" font-size="14.00"> p: (0.24, 0.76) </text>
<text text-anchor="start" x="295.47" y="-401.51" font-family="Helvetica,sans-Serif" font-size="14.00">&#45;&#45;</text>
<text text-anchor="start" x="290.47" y="-387.51" font-family="Helvetica,sans-Serif" font-weight="bold" font-size="14.00">V8</text>
</g>
<!-- 1&#45;&gt;2 -->
<g id="edge2" class="edge">
<title>1:s&#45;&gt;2:n</title>
<path fill="none" stroke="black" d="M435.97,-508.71C435.97,-508.71 341.63,-473.07 310.67,-461.38"/>
<polygon fill="black" stroke="black" points="311.56,-457.97 300.97,-457.71 309.08,-464.52 311.56,-457.97"/>
<text text-anchor="middle" x="413.97" y="-479.51" font-family="Helvetica,sans-Serif" font-size="14.00">&gt; 15.15</text>
</g>
<!-- 11 -->
<g id="node4" class="node">
<title>11</title>
<ellipse fill="#e5d544" stroke="black" cx="570.97" cy="-418.71" rx="115.93" ry="35.21"/>
<text text-anchor="start" x="531.97" y="-429.51" font-family="Helvetica,sans-Serif" font-weight="bold" font-size="14.00"> Class=1 </text>
<text text-anchor="start" x="604.97" y="-429.51" font-family="Helvetica,sans-Serif" font-size="14.00"> </text>
<text text-anchor="start" x="496.97" y="-415.51" font-family="Helvetica,sans-Serif" font-size="14.00"> error: 0.193, n=569 </text>
<text text-anchor="start" x="515.97" y="-401.51" font-family="Helvetica,sans-Serif" font-size="14.00"> p: (0.97, 0.03) </text>
</g>
<!-- 1&#45;&gt;11 -->
<g id="edge3" class="edge">
<title>1:s&#45;&gt;11:n</title>
<path fill="none" stroke="black" d="M435.97,-508.71C435.97,-508.71 530.3,-471.67 561.26,-459.52"/>
<polygon fill="black" stroke="black" points="562.94,-462.62 570.97,-455.71 560.38,-456.11 562.94,-462.62"/>
<text text-anchor="middle" x="554.97" y="-479.51" font-family="Helvetica,sans-Serif" font-size="14.00">&lt;= 15.15</text>
</g>
<!-- 3 -->
<g id="node5" class="node">
<title>3</title>
<polygon fill="#59cc3d" stroke="black" points="265.97,-328.71 101.97,-328.71 101.97,-250.71 265.97,-250.71 265.97,-328.71"/>
<text text-anchor="start" x="144.97" y="-314.51" font-family="Helvetica,sans-Serif" font-weight="bold" font-size="14.00"> Class=1 </text>
<text text-anchor="start" x="217.97" y="-314.51" font-family="Helvetica,sans-Serif" font-size="14.00"> </text>
<text text-anchor="start" x="109.97" y="-300.51" font-family="Helvetica,sans-Serif" font-size="14.00"> error: 0.799, n=569 </text>
<text text-anchor="start" x="128.97" y="-286.51" font-family="Helvetica,sans-Serif" font-size="14.00"> p: (0.76, 0.24) </text>
<text text-anchor="start" x="175.97" y="-272.51" font-family="Helvetica,sans-Serif" font-size="14.00">&#45;&#45;&#45;</text>
<text text-anchor="start" x="168.47" y="-258.51" font-family="Helvetica,sans-Serif" font-weight="bold" font-size="14.00">V24</text>
</g>
<!-- 2&#45;&gt;3 -->
<g id="edge4" class="edge">
<title>2:s&#45;&gt;3:n</title>
<path fill="none" stroke="black" d="M300.97,-379.71C300.97,-379.71 220.73,-344.74 193.15,-332.71"/>
<polygon fill="black" stroke="black" points="194.53,-329.5 183.97,-328.71 191.73,-335.92 194.53,-329.5"/>
<text text-anchor="middle" x="267.97" y="-350.51" font-family="Helvetica,sans-Serif" font-size="14.00">&lt;= 0.04951</text>
</g>
<!-- 6 -->
<g id="node6" class="node">
<title>6</title>
<polygon fill="#59cc3d" stroke="black" points="501.97,-328.71 337.97,-328.71 337.97,-250.71 501.97,-250.71 501.97,-328.71"/>
<text text-anchor="start" x="380.97" y="-314.51" font-family="Helvetica,sans-Serif" font-weight="bold" font-size="14.00"> Class=2 </text>
<text text-anchor="start" x="453.97" y="-314.51" font-family="Helvetica,sans-Serif" font-size="14.00"> </text>
<text text-anchor="start" x="345.97" y="-300.51" font-family="Helvetica,sans-Serif" font-size="14.00"> error: 0.347, n=569 </text>
<text text-anchor="start" x="364.97" y="-286.51" font-family="Helvetica,sans-Serif" font-size="14.00"> p: (0.07, 0.94) </text>
<text text-anchor="start" x="411.97" y="-272.51" font-family="Helvetica,sans-Serif" font-size="14.00">&#45;&#45;&#45;</text>
<text text-anchor="start" x="404.47" y="-258.51" font-family="Helvetica,sans-Serif" font-weight="bold" font-size="14.00">V22</text>
</g>
<!-- 2&#45;&gt;6 -->
<g id="edge5" class="edge">
<title>2:s&#45;&gt;6:n</title>
<path fill="none" stroke="black" d="M300.97,-379.71C300.97,-379.71 382.57,-344.74 410.63,-332.71"/>
<polygon fill="black" stroke="black" points="412.15,-335.87 419.97,-328.71 409.4,-329.43 412.15,-335.87"/>
<text text-anchor="middle" x="412.97" y="-350.51" font-family="Helvetica,sans-Serif" font-size="14.00">&gt; 0.04951</text>
</g>
<!-- 4 -->
<g id="node7" class="node">
<title>4</title>
<polygon fill="#44e5b5" stroke="black" points="231.97,-199.71 67.97,-199.71 67.97,-121.71 231.97,-121.71 231.97,-199.71"/>
<text text-anchor="start" x="110.97" y="-185.51" font-family="Helvetica,sans-Serif" font-weight="bold" font-size="14.00"> Class=1 </text>
<text text-anchor="start" x="183.97" y="-185.51" font-family="Helvetica,sans-Serif" font-size="14.00"> </text>
<text text-anchor="start" x="75.97" y="-171.51" font-family="Helvetica,sans-Serif" font-size="14.00"> error: 0.469, n=569 </text>
<text text-anchor="start" x="94.97" y="-157.51" font-family="Helvetica,sans-Serif" font-size="14.00"> p: (0.90, 0.10) </text>
<text text-anchor="start" x="141.97" y="-143.51" font-family="Helvetica,sans-Serif" font-size="14.00">&#45;&#45;&#45;</text>
<text text-anchor="start" x="134.47" y="-129.51" font-family="Helvetica,sans-Serif" font-weight="bold" font-size="14.00">V22</text>
</g>
<!-- 3&#45;&gt;4 -->
<g id="edge6" class="edge">
<title>3:s&#45;&gt;4:n</title>
<path fill="none" stroke="black" d="M183.97,-250.71C183.97,-250.71 165.24,-222.62 155.58,-208.13"/>
<polygon fill="black" stroke="black" points="158.42,-206.09 149.97,-199.71 152.6,-209.97 158.42,-206.09"/>
<text text-anchor="middle" x="206.97" y="-221.51" font-family="Helvetica,sans-Serif" font-size="14.00">&lt;= 928.2</text>
</g>
<!-- 7 -->
<g id="node9" class="node">
<title>7</title>
<polygon fill="#44e5b5" stroke="black" points="501.97,-199.71 337.97,-199.71 337.97,-121.71 501.97,-121.71 501.97,-199.71"/>
<text text-anchor="start" x="380.97" y="-185.51" font-family="Helvetica,sans-Serif" font-weight="bold" font-size="14.00"> Class=2 </text>
<text text-anchor="start" x="453.97" y="-185.51" font-family="Helvetica,sans-Serif" font-size="14.00"> </text>
<text text-anchor="start" x="345.97" y="-171.51" font-family="Helvetica,sans-Serif" font-size="14.00"> error: 0.843, n=569 </text>
<text text-anchor="start" x="364.97" y="-157.51" font-family="Helvetica,sans-Serif" font-size="14.00"> p: (0.27, 0.73) </text>
<text text-anchor="start" x="414.47" y="-143.51" font-family="Helvetica,sans-Serif" font-size="14.00">&#45;&#45;</text>
<text text-anchor="start" x="409.47" y="-129.51" font-family="Helvetica,sans-Serif" font-weight="bold" font-size="14.00">V3</text>
</g>
<!-- 6&#45;&gt;7 -->
<g id="edge8" class="edge">
<title>6:s&#45;&gt;7:n</title>
<path fill="none" stroke="black" d="M419.97,-250.71C419.97,-250.71 419.97,-224.93 419.97,-210.03"/>
<polygon fill="black" stroke="black" points="423.47,-209.71 419.97,-199.71 416.47,-209.71 423.47,-209.71"/>
<text text-anchor="middle" x="454.97" y="-221.51" font-family="Helvetica,sans-Serif" font-size="14.00">&lt;= 24.89</text>
</g>
<!-- 10 -->
<g id="node10" class="node">
<title>10</title>
<ellipse fill="#44e5b5" stroke="black" cx="689.97" cy="-160.71" rx="115.93" ry="35.21"/>
<text text-anchor="start" x="650.97" y="-171.51" font-family="Helvetica,sans-Serif" font-weight="bold" font-size="14.00"> Class=2 </text>
<text text-anchor="start" x="723.97" y="-171.51" font-family="Helvetica,sans-Serif" font-size="14.00"> </text>
<text text-anchor="start" x="615.97" y="-157.51" font-family="Helvetica,sans-Serif" font-size="14.00"> error: 0.000, n=569 </text>
<text text-anchor="start" x="634.97" y="-143.51" font-family="Helvetica,sans-Serif" font-size="14.00"> p: (0.00, 1.00) </text>
</g>
<!-- 6&#45;&gt;10 -->
<g id="edge9" class="edge">
<title>6:s&#45;&gt;10:n</title>
<path fill="none" stroke="black" d="M419.97,-250.71C419.97,-250.71 631.32,-209.22 680.04,-199.66"/>
<polygon fill="black" stroke="black" points="680.83,-203.07 689.97,-197.71 679.48,-196.2 680.83,-203.07"/>
<text text-anchor="middle" x="616.97" y="-221.51" font-family="Helvetica,sans-Serif" font-size="14.00">&gt; 24.89</text>
</g>
<!-- 5 -->
<g id="node8" class="node">
<title>5</title>
<ellipse fill="#3d76cc" stroke="black" cx="115.97" cy="-35.36" rx="115.93" ry="35.21"/>
<text text-anchor="start" x="76.97" y="-46.16" font-family="Helvetica,sans-Serif" font-weight="bold" font-size="14.00"> Class=1 </text>
<text text-anchor="start" x="149.97" y="-46.16" font-family="Helvetica,sans-Serif" font-size="14.00"> </text>
<text text-anchor="start" x="41.97" y="-32.16" font-family="Helvetica,sans-Serif" font-size="14.00"> error: 0.000, n=569 </text>
<text text-anchor="start" x="60.97" y="-18.16" font-family="Helvetica,sans-Serif" font-size="14.00"> p: (1.00, 0.00) </text>
</g>
<!-- 4&#45;&gt;5 -->
<g id="edge7" class="edge">
<title>4:s&#45;&gt;5:n</title>
<path fill="none" stroke="black" d="M149.97,-121.71C149.97,-121.71 131.24,-93.62 121.58,-79.13"/>
<polygon fill="black" stroke="black" points="124.42,-77.09 115.97,-70.71 118.6,-80.97 124.42,-77.09"/>
<text text-anchor="middle" x="172.97" y="-92.51" font-family="Helvetica,sans-Serif" font-size="14.00">&lt;= 29.09</text>
</g>
<!-- 8 -->
<g id="node11" class="node">
<title>8</title>
<ellipse fill="#3d76cc" stroke="black" cx="419.97" cy="-35.36" rx="115.93" ry="35.21"/>
<text text-anchor="start" x="380.97" y="-46.16" font-family="Helvetica,sans-Serif" font-weight="bold" font-size="14.00"> Class=1 </text>
<text text-anchor="start" x="453.97" y="-46.16" font-family="Helvetica,sans-Serif" font-size="14.00"> </text>
<text text-anchor="start" x="345.97" y="-32.16" font-family="Helvetica,sans-Serif" font-size="14.00"> error: 0.995, n=569 </text>
<text text-anchor="start" x="364.97" y="-18.16" font-family="Helvetica,sans-Serif" font-size="14.00"> p: (0.54, 0.46) </text>
</g>
<!-- 7&#45;&gt;8 -->
<g id="edge10" class="edge">
<title>7:s&#45;&gt;8:n</title>
<path fill="none" stroke="black" d="M419.97,-121.71C419.97,-121.71 419.97,-95.93 419.97,-81.03"/>
<polygon fill="black" stroke="black" points="423.47,-80.71 419.97,-70.71 416.47,-80.71 423.47,-80.71"/>
<text text-anchor="middle" x="454.97" y="-92.51" font-family="Helvetica,sans-Serif" font-size="14.00">&lt;= 106.3</text>
</g>
<!-- 9 -->
<g id="node12" class="node">
<title>9</title>
<ellipse fill="#3d76cc" stroke="black" cx="723.97" cy="-35.36" rx="115.93" ry="35.21"/>
<text text-anchor="start" x="684.97" y="-46.16" font-family="Helvetica,sans-Serif" font-weight="bold" font-size="14.00"> Class=2 </text>
<text text-anchor="start" x="757.97" y="-46.16" font-family="Helvetica,sans-Serif" font-size="14.00"> </text>
<text text-anchor="start" x="649.97" y="-32.16" font-family="Helvetica,sans-Serif" font-size="14.00"> error: 0.000, n=569 </text>
<text text-anchor="start" x="668.97" y="-18.16" font-family="Helvetica,sans-Serif" font-size="14.00"> p: (0.00, 1.00) </text>
</g>
<!-- 7&#45;&gt;9 -->
<g id="edge11" class="edge">
<title>7:s&#45;&gt;9:n</title>
<path fill="none" stroke="black" d="M419.97,-121.71C419.97,-121.71 661.1,-81.26 713.85,-72.41"/>
<polygon fill="black" stroke="black" points="714.68,-75.82 723.97,-70.71 713.52,-68.91 714.68,-75.82"/>
<text text-anchor="middle" x="637.97" y="-92.51" font-family="Helvetica,sans-Serif" font-size="14.00">&gt; 106.3</text>
</g>
</g>
</svg>
