<?xml version="1.0" encoding="UTF-8" standalone="no"?>
<!DOCTYPE svg PUBLIC "-//W3C//DTD SVG 1.1//EN"
 "http://www.w3.org/Graphics/SVG/1.1/DTD/svg11.dtd">
<!-- Generated by graphviz version 2.43.0 (0)
 -->
<!-- Title: Tree Pages: 1 -->
<svg width="3027pt" height="890pt"
 viewBox="0.00 0.00 3026.74 889.84" xmlns="http://www.w3.org/2000/svg" xmlns:xlink="http://www.w3.org/1999/xlink">
<g id="graph0" class="graph" transform="scale(1 1) rotate(0) translate(18 871.84)">
<title>Tree</title>
<polygon fill="white" stroke="transparent" points="-18,18 -18,-871.84 3008.74,-871.84 3008.74,18 -18,18"/>
<!-- 0 -->
<g id="node1" class="node">
<title>0</title>
<polygon fill="white" stroke="transparent" points="1420.37,-853.84 1366.37,-853.84 1366.37,-817.84 1420.37,-817.84 1420.37,-853.84"/>
<text text-anchor="middle" x="1393.37" y="-832.14" font-family="Helvetica,sans-Serif" font-size="14.00">0</text>
</g>
<!-- 1 -->
<g id="node2" class="node">
<title>1</title>
<polygon fill="#cc3d3d" stroke="black" points="1496.87,-780.84 1289.87,-780.84 1289.87,-716.84 1496.87,-716.84 1496.87,-780.84"/>
<text text-anchor="start" x="1331.87" y="-766.64" font-family="Helvetica,sans-Serif" font-weight="bold" font-size="14.00"> Class=Austen </text>
<text text-anchor="start" x="1449.87" y="-766.64" font-family="Helvetica,sans-Serif" font-size="14.00"> </text>
<text text-anchor="start" x="1319.37" y="-752.64" font-family="Helvetica,sans-Serif" font-size="14.00"> error: 0.894, n=841 </text>
<text text-anchor="start" x="1297.87" y="-738.64" font-family="Helvetica,sans-Serif" font-size="14.00"> p: (0.38, 0.35, 0.07, 0.21) </text>
<text text-anchor="start" x="1377.87" y="-724.64" font-family="Helvetica,sans-Serif" font-weight="bold" font-size="14.00">was</text>
</g>
<!-- 0&#45;&gt;1 -->
<!-- 2 -->
<g id="node3" class="node">
<title>2</title>
<polygon fill="#e5a544" stroke="black" points="1032.87,-665.84 825.87,-665.84 825.87,-601.84 1032.87,-601.84 1032.87,-665.84"/>
<text text-anchor="start" x="866.37" y="-651.64" font-family="Helvetica,sans-Serif" font-weight="bold" font-size="14.00"> Class=London </text>
<text text-anchor="start" x="987.37" y="-651.64" font-family="Helvetica,sans-Serif" font-size="14.00"> </text>
<text text-anchor="start" x="855.37" y="-637.64" font-family="Helvetica,sans-Serif" font-size="14.00"> error: 0.509, n=536 </text>
<text text-anchor="start" x="833.87" y="-623.64" font-family="Helvetica,sans-Serif" font-size="14.00"> p: (0.49, 0.51, 0.00, 0.00) </text>
<text text-anchor="start" x="919.37" y="-609.64" font-family="Helvetica,sans-Serif" font-weight="bold" font-size="14.00">be</text>
</g>
<!-- 1&#45;&gt;2 -->
<g id="edge2" class="edge">
<title>1:s&#45;&gt;2:n</title>
<path fill="none" stroke="black" d="M1393.37,-716.84C1393.37,-716.84 1007.35,-674.41 939.49,-666.96"/>
<polygon fill="black" stroke="black" points="939.69,-663.46 929.37,-665.84 938.93,-670.41 939.69,-663.46"/>
<text text-anchor="middle" x="1234.87" y="-687.64" font-family="Helvetica,sans-Serif" font-size="14.00">&gt; 16</text>
</g>
<!-- 17 -->
<g id="node4" class="node">
<title>17</title>
<polygon fill="#e5a544" stroke="black" points="1799.87,-665.84 1592.87,-665.84 1592.87,-601.84 1799.87,-601.84 1799.87,-665.84"/>
<text text-anchor="start" x="1611.37" y="-651.64" font-family="Helvetica,sans-Serif" font-weight="bold" font-size="14.00"> Class=Shakespeare </text>
<text text-anchor="start" x="1776.37" y="-651.64" font-family="Helvetica,sans-Serif" font-size="14.00"> </text>
<text text-anchor="start" x="1622.37" y="-637.64" font-family="Helvetica,sans-Serif" font-size="14.00"> error: 0.823, n=305 </text>
<text text-anchor="start" x="1600.87" y="-623.64" font-family="Helvetica,sans-Serif" font-size="14.00"> p: (0.17, 0.08, 0.18, 0.56) </text>
<text text-anchor="start" x="1680.87" y="-609.64" font-family="Helvetica,sans-Serif" font-weight="bold" font-size="14.00">was</text>
</g>
<!-- 1&#45;&gt;17 -->
<g id="edge3" class="edge">
<title>1:s&#45;&gt;17:n</title>
<path fill="none" stroke="black" d="M1393.37,-716.84C1393.37,-716.84 1633.71,-676.39 1686.29,-667.54"/>
<polygon fill="black" stroke="black" points="1687.09,-670.95 1696.37,-665.84 1685.93,-664.05 1687.09,-670.95"/>
<text text-anchor="middle" x="1604.87" y="-687.64" font-family="Helvetica,sans-Serif" font-size="14.00">&lt;= 16</text>
</g>
<!-- 3 -->
<g id="node5" class="node">
<title>3</title>
<polygon fill="#afcc3d" stroke="black" points="614.87,-550.84 407.87,-550.84 407.87,-486.84 614.87,-486.84 614.87,-550.84"/>
<text text-anchor="start" x="449.87" y="-536.64" font-family="Helvetica,sans-Serif" font-weight="bold" font-size="14.00"> Class=Austen </text>
<text text-anchor="start" x="567.87" y="-536.64" font-family="Helvetica,sans-Serif" font-size="14.00"> </text>
<text text-anchor="start" x="437.37" y="-522.64" font-family="Helvetica,sans-Serif" font-size="14.00"> error: 0.090, n=222 </text>
<text text-anchor="start" x="415.87" y="-508.64" font-family="Helvetica,sans-Serif" font-size="14.00"> p: (0.97, 0.03, 0.00, 0.00) </text>
<text text-anchor="start" x="497.87" y="-494.64" font-family="Helvetica,sans-Serif" font-weight="bold" font-size="14.00">her</text>
</g>
<!-- 2&#45;&gt;3 -->
<g id="edge4" class="edge">
<title>2:s&#45;&gt;3:n</title>
<path fill="none" stroke="black" d="M929.37,-601.84C929.37,-601.84 586.07,-559.96 521.7,-552.1"/>
<polygon fill="black" stroke="black" points="521.72,-548.58 511.37,-550.84 520.87,-555.53 521.72,-548.58"/>
<text text-anchor="middle" x="787.87" y="-572.64" font-family="Helvetica,sans-Serif" font-size="14.00">&gt; 13</text>
</g>
<!-- 6 -->
<g id="node6" class="node">
<title>6</title>
<polygon fill="#afcc3d" stroke="black" points="1032.87,-550.84 825.87,-550.84 825.87,-486.84 1032.87,-486.84 1032.87,-550.84"/>
<text text-anchor="start" x="866.37" y="-536.64" font-family="Helvetica,sans-Serif" font-weight="bold" font-size="14.00"> Class=London </text>
<text text-anchor="start" x="987.37" y="-536.64" font-family="Helvetica,sans-Serif" font-size="14.00"> </text>
<text text-anchor="start" x="855.37" y="-522.64" font-family="Helvetica,sans-Serif" font-size="14.00"> error: 0.324, n=314 </text>
<text text-anchor="start" x="833.87" y="-508.64" font-family="Helvetica,sans-Serif" font-size="14.00"> p: (0.15, 0.84, 0.00, 0.00) </text>
<text text-anchor="start" x="919.37" y="-494.64" font-family="Helvetica,sans-Serif" font-weight="bold" font-size="14.00">be</text>
</g>
<!-- 2&#45;&gt;6 -->
<g id="edge5" class="edge">
<title>2:s&#45;&gt;6:n</title>
<path fill="none" stroke="black" d="M929.37,-601.84C929.37,-601.84 929.37,-576.07 929.37,-561.16"/>
<polygon fill="black" stroke="black" points="932.87,-560.84 929.37,-550.84 925.87,-560.84 932.87,-560.84"/>
<text text-anchor="middle" x="952.87" y="-572.64" font-family="Helvetica,sans-Serif" font-size="14.00">&lt;= 13</text>
</g>
<!-- 18 -->
<g id="node19" class="node">
<title>18</title>
<polygon fill="#afcc3d" stroke="black" points="1799.87,-550.84 1592.87,-550.84 1592.87,-486.84 1799.87,-486.84 1799.87,-550.84"/>
<text text-anchor="start" x="1634.87" y="-536.64" font-family="Helvetica,sans-Serif" font-weight="bold" font-size="14.00"> Class=Austen </text>
<text text-anchor="start" x="1752.87" y="-536.64" font-family="Helvetica,sans-Serif" font-size="14.00"> </text>
<text text-anchor="start" x="1626.87" y="-522.64" font-family="Helvetica,sans-Serif" font-size="14.00"> error: 0.764, n=86 </text>
<text text-anchor="start" x="1600.87" y="-508.64" font-family="Helvetica,sans-Serif" font-size="14.00"> p: (0.55, 0.28, 0.02, 0.15) </text>
<text text-anchor="start" x="1687.87" y="-494.64" font-family="Helvetica,sans-Serif" font-weight="bold" font-size="14.00">to</text>
</g>
<!-- 17&#45;&gt;18 -->
<g id="edge18" class="edge">
<title>17:s&#45;&gt;18:n</title>
<path fill="none" stroke="black" d="M1696.37,-601.84C1696.37,-601.84 1696.37,-576.07 1696.37,-561.16"/>
<polygon fill="black" stroke="black" points="1699.87,-560.84 1696.37,-550.84 1692.87,-560.84 1699.87,-560.84"/>
<text text-anchor="middle" x="1709.37" y="-572.64" font-family="Helvetica,sans-Serif" font-size="14.00">&gt; 8</text>
</g>
<!-- 27 -->
<g id="node20" class="node">
<title>27</title>
<polygon fill="#afcc3d" stroke="black" points="2625.87,-550.84 2418.87,-550.84 2418.87,-486.84 2625.87,-486.84 2625.87,-550.84"/>
<text text-anchor="start" x="2437.37" y="-536.64" font-family="Helvetica,sans-Serif" font-weight="bold" font-size="14.00"> Class=Shakespeare </text>
<text text-anchor="start" x="2602.37" y="-536.64" font-family="Helvetica,sans-Serif" font-size="14.00"> </text>
<text text-anchor="start" x="2448.37" y="-522.64" font-family="Helvetica,sans-Serif" font-size="14.00"> error: 0.504, n=219 </text>
<text text-anchor="start" x="2426.87" y="-508.64" font-family="Helvetica,sans-Serif" font-size="14.00"> p: (0.03, 0.00, 0.24, 0.73) </text>
<text text-anchor="start" x="2516.37" y="-494.64" font-family="Helvetica,sans-Serif" font-weight="bold" font-size="14.00">it</text>
</g>
<!-- 17&#45;&gt;27 -->
<g id="edge19" class="edge">
<title>17:s&#45;&gt;27:n</title>
<path fill="none" stroke="black" d="M1696.37,-601.84C1696.37,-601.84 2417.82,-557.3 2512.23,-551.47"/>
<polygon fill="black" stroke="black" points="2512.61,-554.95 2522.37,-550.84 2512.17,-547.97 2512.61,-554.95"/>
<text text-anchor="middle" x="2227.37" y="-572.64" font-family="Helvetica,sans-Serif" font-size="14.00">&lt;= 8</text>
</g>
<!-- 4 -->
<g id="node7" class="node">
<title>4</title>
<ellipse fill="#64e544" stroke="black" cx="146.37" cy="-400.49" rx="146.24" ry="35.21"/>
<text text-anchor="start" x="84.87" y="-411.29" font-family="Helvetica,sans-Serif" font-weight="bold" font-size="14.00"> Class=Austen </text>
<text text-anchor="start" x="202.87" y="-411.29" font-family="Helvetica,sans-Serif" font-size="14.00"> </text>
<text text-anchor="start" x="72.37" y="-397.29" font-family="Helvetica,sans-Serif" font-size="14.00"> error: 0.000, n=208 </text>
<text text-anchor="start" x="50.87" y="-383.29" font-family="Helvetica,sans-Serif" font-size="14.00"> p: (1.00, 0.00, 0.00, 0.00) </text>
</g>
<!-- 3&#45;&gt;4 -->
<g id="edge6" class="edge">
<title>3:s&#45;&gt;4:n</title>
<path fill="none" stroke="black" d="M511.37,-486.84C511.37,-486.84 215.46,-445.5 156.51,-437.26"/>
<polygon fill="black" stroke="black" points="156.76,-433.76 146.37,-435.84 155.79,-440.69 156.76,-433.76"/>
<text text-anchor="middle" x="389.87" y="-457.64" font-family="Helvetica,sans-Serif" font-size="14.00">&gt; 10</text>
</g>
<!-- 5 -->
<g id="node8" class="node">
<title>5</title>
<ellipse fill="#64e544" stroke="black" cx="511.37" cy="-400.49" rx="146.24" ry="35.21"/>
<text text-anchor="start" x="449.87" y="-411.29" font-family="Helvetica,sans-Serif" font-weight="bold" font-size="14.00"> Class=Austen </text>
<text text-anchor="start" x="567.87" y="-411.29" font-family="Helvetica,sans-Serif" font-size="14.00"> </text>
<text text-anchor="start" x="441.87" y="-397.29" font-family="Helvetica,sans-Serif" font-size="14.00"> error: 0.493, n=14 </text>
<text text-anchor="start" x="415.87" y="-383.29" font-family="Helvetica,sans-Serif" font-size="14.00"> p: (0.57, 0.43, 0.00, 0.00) </text>
</g>
<!-- 3&#45;&gt;5 -->
<g id="edge7" class="edge">
<title>3:s&#45;&gt;5:n</title>
<path fill="none" stroke="black" d="M511.37,-486.84C511.37,-486.84 511.37,-461.07 511.37,-446.16"/>
<polygon fill="black" stroke="black" points="514.87,-445.84 511.37,-435.84 507.87,-445.84 514.87,-445.84"/>
<text text-anchor="middle" x="534.87" y="-457.64" font-family="Helvetica,sans-Serif" font-size="14.00">&lt;= 10</text>
</g>
<!-- 7 -->
<g id="node9" class="node">
<title>7</title>
<polygon fill="#64e544" stroke="black" points="936.87,-432.49 729.87,-432.49 729.87,-368.49 936.87,-368.49 936.87,-432.49"/>
<text text-anchor="start" x="771.87" y="-418.29" font-family="Helvetica,sans-Serif" font-weight="bold" font-size="14.00"> Class=Austen </text>
<text text-anchor="start" x="889.87" y="-418.29" font-family="Helvetica,sans-Serif" font-size="14.00"> </text>
<text text-anchor="start" x="763.87" y="-404.29" font-family="Helvetica,sans-Serif" font-size="14.00"> error: 0.537, n=82 </text>
<text text-anchor="start" x="737.87" y="-390.29" font-family="Helvetica,sans-Serif" font-size="14.00"> p: (0.55, 0.44, 0.00, 0.01) </text>
<text text-anchor="start" x="819.87" y="-376.29" font-family="Helvetica,sans-Serif" font-weight="bold" font-size="14.00">her</text>
</g>
<!-- 6&#45;&gt;7 -->
<g id="edge8" class="edge">
<title>6:s&#45;&gt;7:n</title>
<path fill="none" stroke="black" d="M929.37,-486.84C929.37,-486.84 866,-451.62 842.23,-438.41"/>
<polygon fill="black" stroke="black" points="843.81,-435.29 833.37,-433.49 840.41,-441.4 843.81,-435.29"/>
<text text-anchor="middle" x="909.37" y="-457.64" font-family="Helvetica,sans-Serif" font-size="14.00">&gt; 8</text>
</g>
<!-- 14 -->
<g id="node10" class="node">
<title>14</title>
<polygon fill="#64e544" stroke="black" points="1218.87,-432.49 1011.87,-432.49 1011.87,-368.49 1218.87,-368.49 1218.87,-432.49"/>
<text text-anchor="start" x="1052.37" y="-418.29" font-family="Helvetica,sans-Serif" font-weight="bold" font-size="14.00"> Class=London </text>
<text text-anchor="start" x="1173.37" y="-418.29" font-family="Helvetica,sans-Serif" font-size="14.00"> </text>
<text text-anchor="start" x="1041.37" y="-404.29" font-family="Helvetica,sans-Serif" font-size="14.00"> error: 0.050, n=232 </text>
<text text-anchor="start" x="1019.87" y="-390.29" font-family="Helvetica,sans-Serif" font-size="14.00"> p: (0.01, 0.99, 0.00, 0.00) </text>
<text text-anchor="start" x="1095.37" y="-376.29" font-family="Helvetica,sans-Serif" font-weight="bold" font-size="14.00">been</text>
</g>
<!-- 6&#45;&gt;14 -->
<g id="edge9" class="edge">
<title>6:s&#45;&gt;14:n</title>
<path fill="none" stroke="black" d="M929.37,-486.84C929.37,-486.84 1067.36,-447.26 1105.63,-436.28"/>
<polygon fill="black" stroke="black" points="1106.72,-439.61 1115.37,-433.49 1104.79,-432.88 1106.72,-439.61"/>
<text text-anchor="middle" x="1058.37" y="-457.64" font-family="Helvetica,sans-Serif" font-size="14.00">&lt;= 8</text>
</g>
<!-- 8 -->
<g id="node11" class="node">
<title>8</title>
<polygon fill="#3dcc76" stroke="black" points="656.87,-310.78 449.87,-310.78 449.87,-246.78 656.87,-246.78 656.87,-310.78"/>
<text text-anchor="start" x="491.87" y="-296.58" font-family="Helvetica,sans-Serif" font-weight="bold" font-size="14.00"> Class=Austen </text>
<text text-anchor="start" x="609.87" y="-296.58" font-family="Helvetica,sans-Serif" font-size="14.00"> </text>
<text text-anchor="start" x="483.87" y="-282.58" font-family="Helvetica,sans-Serif" font-size="14.00"> error: 0.227, n=42 </text>
<text text-anchor="start" x="457.87" y="-268.58" font-family="Helvetica,sans-Serif" font-size="14.00"> p: (0.90, 0.10, 0.00, 0.00) </text>
<text text-anchor="start" x="544.87" y="-254.58" font-family="Helvetica,sans-Serif" font-weight="bold" font-size="14.00">to</text>
</g>
<!-- 7&#45;&gt;8 -->
<g id="edge10" class="edge">
<title>7:s&#45;&gt;8:n</title>
<path fill="none" stroke="black" d="M833.37,-367.49C833.37,-367.49 613.22,-323.68 563.34,-313.76"/>
<polygon fill="black" stroke="black" points="563.86,-310.3 553.37,-311.78 562.5,-317.16 563.86,-310.3"/>
<text text-anchor="middle" x="744.87" y="-335.93" font-family="Helvetica,sans-Serif" font-size="14.00">&gt; 17</text>
</g>
<!-- 11 -->
<g id="node12" class="node">
<title>11</title>
<polygon fill="#3dcc76" stroke="black" points="935.87,-310.78 728.87,-310.78 728.87,-246.78 935.87,-246.78 935.87,-310.78"/>
<text text-anchor="start" x="769.37" y="-296.58" font-family="Helvetica,sans-Serif" font-weight="bold" font-size="14.00"> Class=London </text>
<text text-anchor="start" x="890.37" y="-296.58" font-family="Helvetica,sans-Serif" font-size="14.00"> </text>
<text text-anchor="start" x="762.87" y="-282.58" font-family="Helvetica,sans-Serif" font-size="14.00"> error: 0.415, n=40 </text>
<text text-anchor="start" x="736.87" y="-268.58" font-family="Helvetica,sans-Serif" font-size="14.00"> p: (0.17, 0.80, 0.00, 0.03) </text>
<text text-anchor="start" x="818.87" y="-254.58" font-family="Helvetica,sans-Serif" font-weight="bold" font-size="14.00">the</text>
</g>
<!-- 7&#45;&gt;11 -->
<g id="edge11" class="edge">
<title>7:s&#45;&gt;11:n</title>
<path fill="none" stroke="black" d="M833.37,-367.49C833.37,-367.49 832.84,-338.08 832.55,-321.99"/>
<polygon fill="black" stroke="black" points="836.05,-321.71 832.37,-311.78 829.05,-321.84 836.05,-321.71"/>
<text text-anchor="middle" x="856.87" y="-335.93" font-family="Helvetica,sans-Serif" font-size="14.00">&lt;= 17</text>
</g>
<!-- 15 -->
<g id="node17" class="node">
<title>15</title>
<polygon fill="#3dcc76" stroke="black" points="1250.87,-310.78 1043.87,-310.78 1043.87,-246.78 1250.87,-246.78 1250.87,-310.78"/>
<text text-anchor="start" x="1084.37" y="-296.58" font-family="Helvetica,sans-Serif" font-weight="bold" font-size="14.00"> Class=London </text>
<text text-anchor="start" x="1205.37" y="-296.58" font-family="Helvetica,sans-Serif" font-size="14.00"> </text>
<text text-anchor="start" x="1073.37" y="-282.58" font-family="Helvetica,sans-Serif" font-size="14.00"> error: 0.020, n=229 </text>
<text text-anchor="start" x="1051.87" y="-268.58" font-family="Helvetica,sans-Serif" font-size="14.00"> p: (0.00, 1.00, 0.00, 0.00) </text>
<text text-anchor="start" x="1133.87" y="-254.58" font-family="Helvetica,sans-Serif" font-weight="bold" font-size="14.00">the</text>
</g>
<!-- 14&#45;&gt;15 -->
<g id="edge16" class="edge">
<title>14:s&#45;&gt;15:n</title>
<path fill="none" stroke="black" d="M1115.37,-367.49C1115.37,-367.49 1133.37,-336.15 1142.37,-320.48"/>
<polygon fill="black" stroke="black" points="1145.43,-322.19 1147.37,-311.78 1139.36,-318.7 1145.43,-322.19"/>
<text text-anchor="middle" x="1158.87" y="-335.93" font-family="Helvetica,sans-Serif" font-size="14.00">&lt;= 12</text>
</g>
<!-- 9 -->
<g id="node13" class="node">
<title>9</title>
<polygon fill="#44e5e5" stroke="black" points="629.87,-189.07 422.87,-189.07 422.87,-125.07 629.87,-125.07 629.87,-189.07"/>
<text text-anchor="start" x="464.87" y="-174.87" font-family="Helvetica,sans-Serif" font-weight="bold" font-size="14.00"> Class=Austen </text>
<text text-anchor="start" x="582.87" y="-174.87" font-family="Helvetica,sans-Serif" font-size="14.00"> </text>
<text text-anchor="start" x="456.87" y="-160.87" font-family="Helvetica,sans-Serif" font-size="14.00"> error: 0.086, n=39 </text>
<text text-anchor="start" x="430.87" y="-146.87" font-family="Helvetica,sans-Serif" font-size="14.00"> p: (0.97, 0.03, 0.00, 0.00) </text>
<text text-anchor="start" x="516.37" y="-132.87" font-family="Helvetica,sans-Serif" font-weight="bold" font-size="14.00">an</text>
</g>
<!-- 8&#45;&gt;9 -->
<g id="edge12" class="edge">
<title>8:s&#45;&gt;9:n</title>
<path fill="none" stroke="black" d="M553.37,-245.78C553.37,-245.78 538.5,-215.09 530.83,-199.27"/>
<polygon fill="black" stroke="black" points="533.88,-197.54 526.37,-190.07 527.58,-200.59 533.88,-197.54"/>
<text text-anchor="middle" x="560.87" y="-214.22" font-family="Helvetica,sans-Serif" font-size="14.00">&gt; 38</text>
</g>
<!-- 12 -->
<g id="node15" class="node">
<title>12</title>
<polygon fill="#44e5e5" stroke="black" points="929.87,-189.07 722.87,-189.07 722.87,-125.07 929.87,-125.07 929.87,-189.07"/>
<text text-anchor="start" x="763.37" y="-174.87" font-family="Helvetica,sans-Serif" font-weight="bold" font-size="14.00"> Class=London </text>
<text text-anchor="start" x="884.37" y="-174.87" font-family="Helvetica,sans-Serif" font-size="14.00"> </text>
<text text-anchor="start" x="756.87" y="-160.87" font-family="Helvetica,sans-Serif" font-size="14.00"> error: 0.161, n=34 </text>
<text text-anchor="start" x="730.87" y="-146.87" font-family="Helvetica,sans-Serif" font-size="14.00"> p: (0.06, 0.94, 0.00, 0.00) </text>
<text text-anchor="start" x="816.87" y="-132.87" font-family="Helvetica,sans-Serif" font-weight="bold" font-size="14.00">as</text>
</g>
<!-- 11&#45;&gt;12 -->
<g id="edge14" class="edge">
<title>11:s&#45;&gt;12:n</title>
<path fill="none" stroke="black" d="M832.37,-245.78C832.37,-245.78 829.17,-216.05 827.44,-200.03"/>
<polygon fill="black" stroke="black" points="830.92,-199.63 826.37,-190.07 823.96,-200.38 830.92,-199.63"/>
<text text-anchor="middle" x="847.87" y="-214.22" font-family="Helvetica,sans-Serif" font-size="14.00">&gt; 62</text>
</g>
<!-- 10 -->
<g id="node14" class="node">
<title>10</title>
<ellipse fill="#3d76cc" stroke="black" cx="483.37" cy="-35.36" rx="146.24" ry="35.21"/>
<text text-anchor="start" x="421.87" y="-46.16" font-family="Helvetica,sans-Serif" font-weight="bold" font-size="14.00"> Class=Austen </text>
<text text-anchor="start" x="539.87" y="-46.16" font-family="Helvetica,sans-Serif" font-size="14.00"> </text>
<text text-anchor="start" x="413.87" y="-32.16" font-family="Helvetica,sans-Serif" font-size="14.00"> error: 0.000, n=38 </text>
<text text-anchor="start" x="387.87" y="-18.16" font-family="Helvetica,sans-Serif" font-size="14.00"> p: (1.00, 0.00, 0.00, 0.00) </text>
</g>
<!-- 9&#45;&gt;10 -->
<g id="edge13" class="edge">
<title>9:s&#45;&gt;10:n</title>
<path fill="none" stroke="black" d="M526.37,-124.07C526.37,-124.07 501.68,-93.43 489.72,-78.58"/>
<polygon fill="black" stroke="black" points="492.37,-76.3 483.37,-70.71 486.92,-80.69 492.37,-76.3"/>
<text text-anchor="middle" x="532.87" y="-92.51" font-family="Helvetica,sans-Serif" font-size="14.00">&lt;= 10</text>
</g>
<!-- 13 -->
<g id="node16" class="node">
<title>13</title>
<ellipse fill="#3d76cc" stroke="black" cx="848.37" cy="-35.36" rx="146.24" ry="35.21"/>
<text text-anchor="start" x="785.37" y="-46.16" font-family="Helvetica,sans-Serif" font-weight="bold" font-size="14.00"> Class=London </text>
<text text-anchor="start" x="906.37" y="-46.16" font-family="Helvetica,sans-Serif" font-size="14.00"> </text>
<text text-anchor="start" x="778.87" y="-32.16" font-family="Helvetica,sans-Serif" font-size="14.00"> error: 0.000, n=30 </text>
<text text-anchor="start" x="752.87" y="-18.16" font-family="Helvetica,sans-Serif" font-size="14.00"> p: (0.00, 1.00, 0.00, 0.00) </text>
</g>
<!-- 12&#45;&gt;13 -->
<g id="edge15" class="edge">
<title>12:s&#45;&gt;13:n</title>
<path fill="none" stroke="black" d="M826.37,-124.07C826.37,-124.07 838.24,-95.29 844.54,-80"/>
<polygon fill="black" stroke="black" points="847.79,-81.29 848.37,-70.71 841.32,-78.62 847.79,-81.29"/>
<text text-anchor="middle" x="864.87" y="-92.51" font-family="Helvetica,sans-Serif" font-size="14.00">&lt;= 16</text>
</g>
<!-- 16 -->
<g id="node18" class="node">
<title>16</title>
<ellipse fill="#44e5e5" stroke="black" cx="1148.37" cy="-157.07" rx="146.24" ry="35.21"/>
<text text-anchor="start" x="1085.37" y="-167.87" font-family="Helvetica,sans-Serif" font-weight="bold" font-size="14.00"> Class=London </text>
<text text-anchor="start" x="1206.37" y="-167.87" font-family="Helvetica,sans-Serif" font-size="14.00"> </text>
<text text-anchor="start" x="1074.37" y="-153.87" font-family="Helvetica,sans-Serif" font-size="14.00"> error: 0.000, n=227 </text>
<text text-anchor="start" x="1052.87" y="-139.87" font-family="Helvetica,sans-Serif" font-size="14.00"> p: (0.00, 1.00, 0.00, 0.00) </text>
</g>
<!-- 15&#45;&gt;16 -->
<g id="edge17" class="edge">
<title>15:s&#45;&gt;16:n</title>
<path fill="none" stroke="black" d="M1147.37,-245.78C1147.37,-245.78 1147.89,-218.21 1148.18,-202.71"/>
<polygon fill="black" stroke="black" points="1151.68,-202.49 1148.37,-192.42 1144.68,-202.35 1151.68,-202.49"/>
<text text-anchor="middle" x="1165.87" y="-214.22" font-family="Helvetica,sans-Serif" font-size="14.00">&gt; 51</text>
</g>
<!-- 19 -->
<g id="node21" class="node">
<title>19</title>
<polygon fill="#64e544" stroke="black" points="1681.87,-432.49 1474.87,-432.49 1474.87,-368.49 1681.87,-368.49 1681.87,-432.49"/>
<text text-anchor="start" x="1516.87" y="-418.29" font-family="Helvetica,sans-Serif" font-weight="bold" font-size="14.00"> Class=Austen </text>
<text text-anchor="start" x="1634.87" y="-418.29" font-family="Helvetica,sans-Serif" font-size="14.00"> </text>
<text text-anchor="start" x="1508.87" y="-404.29" font-family="Helvetica,sans-Serif" font-size="14.00"> error: 0.248, n=46 </text>
<text text-anchor="start" x="1482.87" y="-390.29" font-family="Helvetica,sans-Serif" font-size="14.00"> p: (0.91, 0.07, 0.02, 0.00) </text>
<text text-anchor="start" x="1568.37" y="-376.29" font-family="Helvetica,sans-Serif" font-weight="bold" font-size="14.00">an</text>
</g>
<!-- 18&#45;&gt;19 -->
<g id="edge20" class="edge">
<title>18:s&#45;&gt;19:n</title>
<path fill="none" stroke="black" d="M1696.37,-486.84C1696.37,-486.84 1615.45,-450.25 1587.63,-437.67"/>
<polygon fill="black" stroke="black" points="1588.92,-434.42 1578.37,-433.49 1586.04,-440.8 1588.92,-434.42"/>
<text text-anchor="middle" x="1672.87" y="-457.64" font-family="Helvetica,sans-Serif" font-size="14.00">&gt; 46</text>
</g>
<!-- 22 -->
<g id="node22" class="node">
<title>22</title>
<polygon fill="#64e544" stroke="black" points="1981.87,-432.49 1774.87,-432.49 1774.87,-368.49 1981.87,-368.49 1981.87,-432.49"/>
<text text-anchor="start" x="1815.37" y="-418.29" font-family="Helvetica,sans-Serif" font-weight="bold" font-size="14.00"> Class=London </text>
<text text-anchor="start" x="1936.37" y="-418.29" font-family="Helvetica,sans-Serif" font-size="14.00"> </text>
<text text-anchor="start" x="1808.87" y="-404.29" font-family="Helvetica,sans-Serif" font-size="14.00"> error: 0.762, n=40 </text>
<text text-anchor="start" x="1782.87" y="-390.29" font-family="Helvetica,sans-Serif" font-size="14.00"> p: (0.12, 0.53, 0.03, 0.33) </text>
<text text-anchor="start" x="1864.87" y="-376.29" font-family="Helvetica,sans-Serif" font-weight="bold" font-size="14.00">not</text>
</g>
<!-- 18&#45;&gt;22 -->
<g id="edge21" class="edge">
<title>18:s&#45;&gt;22:n</title>
<path fill="none" stroke="black" d="M1696.37,-486.84C1696.37,-486.84 1830.78,-447.44 1868.59,-436.36"/>
<polygon fill="black" stroke="black" points="1869.76,-439.66 1878.37,-433.49 1867.79,-432.94 1869.76,-439.66"/>
<text text-anchor="middle" x="1827.87" y="-457.64" font-family="Helvetica,sans-Serif" font-size="14.00">&lt;= 46</text>
</g>
<!-- 28 -->
<g id="node29" class="node">
<title>28</title>
<polygon fill="#64e544" stroke="black" points="2625.87,-432.49 2418.87,-432.49 2418.87,-368.49 2625.87,-368.49 2625.87,-432.49"/>
<text text-anchor="start" x="2437.37" y="-418.29" font-family="Helvetica,sans-Serif" font-weight="bold" font-size="14.00"> Class=Shakespeare </text>
<text text-anchor="start" x="2602.37" y="-418.29" font-family="Helvetica,sans-Serif" font-size="14.00"> </text>
<text text-anchor="start" x="2448.37" y="-404.29" font-family="Helvetica,sans-Serif" font-size="14.00"> error: 0.208, n=161 </text>
<text text-anchor="start" x="2426.87" y="-390.29" font-family="Helvetica,sans-Serif" font-size="14.00"> p: (0.04, 0.01, 0.02, 0.94) </text>
<text text-anchor="start" x="2508.37" y="-376.29" font-family="Helvetica,sans-Serif" font-weight="bold" font-size="14.00">has</text>
</g>
<!-- 27&#45;&gt;28 -->
<g id="edge28" class="edge">
<title>27:s&#45;&gt;28:n</title>
<path fill="none" stroke="black" d="M2522.37,-486.84C2522.37,-486.84 2522.37,-459.28 2522.37,-443.77"/>
<polygon fill="black" stroke="black" points="2525.87,-443.49 2522.37,-433.49 2518.87,-443.49 2525.87,-443.49"/>
<text text-anchor="middle" x="2535.37" y="-457.64" font-family="Helvetica,sans-Serif" font-size="14.00">&gt; 6</text>
</g>
<!-- 32 -->
<g id="node30" class="node">
<title>32</title>
<polygon fill="#64e544" stroke="black" points="2926.87,-432.49 2719.87,-432.49 2719.87,-368.49 2926.87,-368.49 2926.87,-432.49"/>
<text text-anchor="start" x="2764.87" y="-418.29" font-family="Helvetica,sans-Serif" font-weight="bold" font-size="14.00"> Class=Milton </text>
<text text-anchor="start" x="2876.87" y="-418.29" font-family="Helvetica,sans-Serif" font-size="14.00"> </text>
<text text-anchor="start" x="2753.87" y="-404.29" font-family="Helvetica,sans-Serif" font-size="14.00"> error: 0.289, n=58 </text>
<text text-anchor="start" x="2727.87" y="-390.29" font-family="Helvetica,sans-Serif" font-size="14.00"> p: (0.00, 0.00, 0.86, 0.14) </text>
<text text-anchor="start" x="2795.37" y="-376.29" font-family="Helvetica,sans-Serif" font-weight="bold" font-size="14.00">BookID</text>
</g>
<!-- 27&#45;&gt;32 -->
<g id="edge29" class="edge">
<title>27:s&#45;&gt;32:n</title>
<path fill="none" stroke="black" d="M2522.37,-486.84C2522.37,-486.84 2761.13,-444.52 2813.36,-435.26"/>
<polygon fill="black" stroke="black" points="2814.14,-438.68 2823.37,-433.49 2812.91,-431.79 2814.14,-438.68"/>
<text text-anchor="middle" x="2719.37" y="-457.64" font-family="Helvetica,sans-Serif" font-size="14.00">&lt;= 6</text>
</g>
<!-- 20 -->
<g id="node23" class="node">
<title>20</title>
<polygon fill="#3dcc76" stroke="black" points="1659.87,-310.78 1452.87,-310.78 1452.87,-246.78 1659.87,-246.78 1659.87,-310.78"/>
<text text-anchor="start" x="1494.87" y="-296.58" font-family="Helvetica,sans-Serif" font-weight="bold" font-size="14.00"> Class=Austen </text>
<text text-anchor="start" x="1612.87" y="-296.58" font-family="Helvetica,sans-Serif" font-size="14.00"> </text>
<text text-anchor="start" x="1486.87" y="-282.58" font-family="Helvetica,sans-Serif" font-size="14.00"> error: 0.080, n=43 </text>
<text text-anchor="start" x="1460.87" y="-268.58" font-family="Helvetica,sans-Serif" font-size="14.00"> p: (0.98, 0.00, 0.02, 0.00) </text>
<text text-anchor="start" x="1546.87" y="-254.58" font-family="Helvetica,sans-Serif" font-weight="bold" font-size="14.00">by</text>
</g>
<!-- 19&#45;&gt;20 -->
<g id="edge22" class="edge">
<title>19:s&#45;&gt;20:n</title>
<path fill="none" stroke="black" d="M1578.37,-367.49C1578.37,-367.49 1566.38,-337.12 1560.1,-321.23"/>
<polygon fill="black" stroke="black" points="1563.3,-319.79 1556.37,-311.78 1556.79,-322.36 1563.3,-319.79"/>
<text text-anchor="middle" x="1593.87" y="-335.93" font-family="Helvetica,sans-Serif" font-size="14.00">&lt;= 12</text>
</g>
<!-- 23 -->
<g id="node25" class="node">
<title>23</title>
<polygon fill="#3dcc76" stroke="black" points="1981.87,-310.78 1774.87,-310.78 1774.87,-246.78 1981.87,-246.78 1981.87,-310.78"/>
<text text-anchor="start" x="1793.37" y="-296.58" font-family="Helvetica,sans-Serif" font-weight="bold" font-size="14.00"> Class=Shakespeare </text>
<text text-anchor="start" x="1958.37" y="-296.58" font-family="Helvetica,sans-Serif" font-size="14.00"> </text>
<text text-anchor="start" x="1808.87" y="-282.58" font-family="Helvetica,sans-Serif" font-size="14.00"> error: 0.618, n=20 </text>
<text text-anchor="start" x="1782.87" y="-268.58" font-family="Helvetica,sans-Serif" font-size="14.00"> p: (0.25, 0.10, 0.00, 0.65) </text>
<text text-anchor="start" x="1870.37" y="-254.58" font-family="Helvetica,sans-Serif" font-weight="bold" font-size="14.00">of</text>
</g>
<!-- 22&#45;&gt;23 -->
<g id="edge24" class="edge">
<title>22:s&#45;&gt;23:n</title>
<path fill="none" stroke="black" d="M1878.37,-367.49C1878.37,-367.49 1878.37,-338.08 1878.37,-321.99"/>
<polygon fill="black" stroke="black" points="1881.87,-321.78 1878.37,-311.78 1874.87,-321.78 1881.87,-321.78"/>
<text text-anchor="middle" x="1891.37" y="-335.93" font-family="Helvetica,sans-Serif" font-size="14.00">&gt; 9</text>
</g>
<!-- 25 -->
<g id="node26" class="node">
<title>25</title>
<polygon fill="#3dcc76" stroke="black" points="2303.87,-310.78 2096.87,-310.78 2096.87,-246.78 2303.87,-246.78 2303.87,-310.78"/>
<text text-anchor="start" x="2137.37" y="-296.58" font-family="Helvetica,sans-Serif" font-weight="bold" font-size="14.00"> Class=London </text>
<text text-anchor="start" x="2258.37" y="-296.58" font-family="Helvetica,sans-Serif" font-size="14.00"> </text>
<text text-anchor="start" x="2130.87" y="-282.58" font-family="Helvetica,sans-Serif" font-size="14.00"> error: 0.143, n=20 </text>
<text text-anchor="start" x="2104.87" y="-268.58" font-family="Helvetica,sans-Serif" font-size="14.00"> p: (0.00, 0.95, 0.05, 0.00) </text>
<text text-anchor="start" x="2185.37" y="-254.58" font-family="Helvetica,sans-Serif" font-weight="bold" font-size="14.00">and</text>
</g>
<!-- 22&#45;&gt;25 -->
<g id="edge25" class="edge">
<title>22:s&#45;&gt;25:n</title>
<path fill="none" stroke="black" d="M1878.37,-367.49C1878.37,-367.49 2136.03,-322.91 2190.38,-313.51"/>
<polygon fill="black" stroke="black" points="2191.11,-316.93 2200.37,-311.78 2189.92,-310.03 2191.11,-316.93"/>
<text text-anchor="middle" x="2097.37" y="-335.93" font-family="Helvetica,sans-Serif" font-size="14.00">&lt;= 9</text>
</g>
<!-- 21 -->
<g id="node24" class="node">
<title>21</title>
<ellipse fill="#44e5e5" stroke="black" cx="1513.37" cy="-157.07" rx="146.24" ry="35.21"/>
<text text-anchor="start" x="1451.87" y="-167.87" font-family="Helvetica,sans-Serif" font-weight="bold" font-size="14.00"> Class=Austen </text>
<text text-anchor="start" x="1569.87" y="-167.87" font-family="Helvetica,sans-Serif" font-size="14.00"> </text>
<text text-anchor="start" x="1443.87" y="-153.87" font-family="Helvetica,sans-Serif" font-size="14.00"> error: 0.000, n=42 </text>
<text text-anchor="start" x="1417.87" y="-139.87" font-family="Helvetica,sans-Serif" font-size="14.00"> p: (1.00, 0.00, 0.00, 0.00) </text>
</g>
<!-- 20&#45;&gt;21 -->
<g id="edge23" class="edge">
<title>20:s&#45;&gt;21:n</title>
<path fill="none" stroke="black" d="M1556.37,-245.78C1556.37,-245.78 1531.68,-215.14 1519.72,-200.29"/>
<polygon fill="black" stroke="black" points="1522.37,-198.01 1513.37,-192.42 1516.92,-202.4 1522.37,-198.01"/>
<text text-anchor="middle" x="1562.87" y="-214.22" font-family="Helvetica,sans-Serif" font-size="14.00">&lt;= 14</text>
</g>
<!-- 24 -->
<g id="node27" class="node">
<title>24</title>
<ellipse fill="#44e5e5" stroke="black" cx="1878.37" cy="-157.07" rx="146.24" ry="35.21"/>
<text text-anchor="start" x="1793.37" y="-167.87" font-family="Helvetica,sans-Serif" font-weight="bold" font-size="14.00"> Class=Shakespeare </text>
<text text-anchor="start" x="1958.37" y="-167.87" font-family="Helvetica,sans-Serif" font-size="14.00"> </text>
<text text-anchor="start" x="1808.87" y="-153.87" font-family="Helvetica,sans-Serif" font-size="14.00"> error: 0.000, n=13 </text>
<text text-anchor="start" x="1782.87" y="-139.87" font-family="Helvetica,sans-Serif" font-size="14.00"> p: (0.00, 0.00, 0.00, 1.00) </text>
</g>
<!-- 23&#45;&gt;24 -->
<g id="edge26" class="edge">
<title>23:s&#45;&gt;24:n</title>
<path fill="none" stroke="black" d="M1878.37,-245.78C1878.37,-245.78 1878.37,-218.21 1878.37,-202.71"/>
<polygon fill="black" stroke="black" points="1881.87,-202.42 1878.37,-192.42 1874.87,-202.42 1881.87,-202.42"/>
<text text-anchor="middle" x="1901.87" y="-214.22" font-family="Helvetica,sans-Serif" font-size="14.00">&lt;= 39</text>
</g>
<!-- 26 -->
<g id="node28" class="node">
<title>26</title>
<ellipse fill="#44e5e5" stroke="black" cx="2243.37" cy="-157.07" rx="146.24" ry="35.21"/>
<text text-anchor="start" x="2180.37" y="-167.87" font-family="Helvetica,sans-Serif" font-weight="bold" font-size="14.00"> Class=London </text>
<text text-anchor="start" x="2301.37" y="-167.87" font-family="Helvetica,sans-Serif" font-size="14.00"> </text>
<text text-anchor="start" x="2173.87" y="-153.87" font-family="Helvetica,sans-Serif" font-size="14.00"> error: 0.000, n=19 </text>
<text text-anchor="start" x="2147.87" y="-139.87" font-family="Helvetica,sans-Serif" font-size="14.00"> p: (0.00, 1.00, 0.00, 0.00) </text>
</g>
<!-- 25&#45;&gt;26 -->
<g id="edge27" class="edge">
<title>25:s&#45;&gt;26:n</title>
<path fill="none" stroke="black" d="M2200.37,-245.78C2200.37,-245.78 2225.07,-215.14 2237.03,-200.29"/>
<polygon fill="black" stroke="black" points="2239.82,-202.4 2243.37,-192.42 2234.37,-198.01 2239.82,-202.4"/>
<text text-anchor="middle" x="2251.87" y="-214.22" font-family="Helvetica,sans-Serif" font-size="14.00">&lt;= 90</text>
</g>
<!-- 29 -->
<g id="node31" class="node">
<title>29</title>
<polygon fill="#3dcc76" stroke="black" points="2625.87,-310.78 2418.87,-310.78 2418.87,-246.78 2625.87,-246.78 2625.87,-310.78"/>
<text text-anchor="start" x="2437.37" y="-296.58" font-family="Helvetica,sans-Serif" font-weight="bold" font-size="14.00"> Class=Shakespeare </text>
<text text-anchor="start" x="2602.37" y="-296.58" font-family="Helvetica,sans-Serif" font-size="14.00"> </text>
<text text-anchor="start" x="2448.37" y="-282.58" font-family="Helvetica,sans-Serif" font-size="14.00"> error: 0.118, n=156 </text>
<text text-anchor="start" x="2426.87" y="-268.58" font-family="Helvetica,sans-Serif" font-size="14.00"> p: (0.01, 0.00, 0.02, 0.97) </text>
<text text-anchor="start" x="2508.37" y="-254.58" font-family="Helvetica,sans-Serif" font-weight="bold" font-size="14.00">can</text>
</g>
<!-- 28&#45;&gt;29 -->
<g id="edge30" class="edge">
<title>28:s&#45;&gt;29:n</title>
<path fill="none" stroke="black" d="M2522.37,-367.49C2522.37,-367.49 2522.37,-338.08 2522.37,-321.99"/>
<polygon fill="black" stroke="black" points="2525.87,-321.78 2522.37,-311.78 2518.87,-321.78 2525.87,-321.78"/>
<text text-anchor="middle" x="2541.37" y="-335.93" font-family="Helvetica,sans-Serif" font-size="14.00">&lt;= 4</text>
</g>
<!-- 33 -->
<g id="node34" class="node">
<title>33</title>
<ellipse fill="#3dcc76" stroke="black" cx="2844.37" cy="-278.78" rx="146.24" ry="35.21"/>
<text text-anchor="start" x="2785.87" y="-289.58" font-family="Helvetica,sans-Serif" font-weight="bold" font-size="14.00"> Class=Milton </text>
<text text-anchor="start" x="2897.87" y="-289.58" font-family="Helvetica,sans-Serif" font-size="14.00"> </text>
<text text-anchor="start" x="2774.87" y="-275.58" font-family="Helvetica,sans-Serif" font-size="14.00"> error: 0.000, n=50 </text>
<text text-anchor="start" x="2748.87" y="-261.58" font-family="Helvetica,sans-Serif" font-size="14.00"> p: (0.00, 0.00, 1.00, 0.00) </text>
</g>
<!-- 32&#45;&gt;33 -->
<g id="edge33" class="edge">
<title>32:s&#45;&gt;33:n</title>
<path fill="none" stroke="black" d="M2823.37,-367.49C2823.37,-367.49 2834.46,-339.32 2840.52,-323.92"/>
<polygon fill="black" stroke="black" points="2843.97,-324.72 2844.37,-314.13 2837.45,-322.16 2843.97,-324.72"/>
<text text-anchor="middle" x="2856.37" y="-335.93" font-family="Helvetica,sans-Serif" font-size="14.00">&lt;= 2</text>
</g>
<!-- 30 -->
<g id="node32" class="node">
<title>30</title>
<polygon fill="#44e5e5" stroke="black" points="2668.87,-189.07 2461.87,-189.07 2461.87,-125.07 2668.87,-125.07 2668.87,-189.07"/>
<text text-anchor="start" x="2480.37" y="-174.87" font-family="Helvetica,sans-Serif" font-weight="bold" font-size="14.00"> Class=Shakespeare </text>
<text text-anchor="start" x="2645.37" y="-174.87" font-family="Helvetica,sans-Serif" font-size="14.00"> </text>
<text text-anchor="start" x="2491.37" y="-160.87" font-family="Helvetica,sans-Serif" font-size="14.00"> error: 0.051, n=151 </text>
<text text-anchor="start" x="2469.87" y="-146.87" font-family="Helvetica,sans-Serif" font-size="14.00"> p: (0.00, 0.00, 0.01, 0.99) </text>
<text text-anchor="start" x="2558.87" y="-132.87" font-family="Helvetica,sans-Serif" font-weight="bold" font-size="14.00">is</text>
</g>
<!-- 29&#45;&gt;30 -->
<g id="edge31" class="edge">
<title>29:s&#45;&gt;30:n</title>
<path fill="none" stroke="black" d="M2522.37,-245.78C2522.37,-245.78 2547.07,-213.78 2559.03,-198.29"/>
<polygon fill="black" stroke="black" points="2562.03,-200.12 2565.37,-190.07 2556.49,-195.84 2562.03,-200.12"/>
<text text-anchor="middle" x="2568.37" y="-214.22" font-family="Helvetica,sans-Serif" font-size="14.00">&lt;= 6</text>
</g>
<!-- 31 -->
<g id="node33" class="node">
<title>31</title>
<ellipse fill="#3d76cc" stroke="black" cx="2565.37" cy="-35.36" rx="146.24" ry="35.21"/>
<text text-anchor="start" x="2480.37" y="-46.16" font-family="Helvetica,sans-Serif" font-weight="bold" font-size="14.00"> Class=Shakespeare </text>
<text text-anchor="start" x="2645.37" y="-46.16" font-family="Helvetica,sans-Serif" font-size="14.00"> </text>
<text text-anchor="start" x="2491.37" y="-32.16" font-family="Helvetica,sans-Serif" font-size="14.00"> error: 0.000, n=144 </text>
<text text-anchor="start" x="2469.87" y="-18.16" font-family="Helvetica,sans-Serif" font-size="14.00"> p: (0.00, 0.00, 0.00, 1.00) </text>
</g>
<!-- 30&#45;&gt;31 -->
<g id="edge32" class="edge">
<title>30:s&#45;&gt;31:n</title>
<path fill="none" stroke="black" d="M2565.37,-124.07C2565.37,-124.07 2565.37,-96.5 2565.37,-81"/>
<polygon fill="black" stroke="black" points="2568.87,-80.71 2565.37,-70.71 2561.87,-80.71 2568.87,-80.71"/>
<text text-anchor="middle" x="2578.37" y="-92.51" font-family="Helvetica,sans-Serif" font-size="14.00">&gt; 9</text>
</g>
</g>
</svg>
