<?xml version="1.0" encoding="UTF-8" standalone="no"?>
<!DOCTYPE svg PUBLIC "-//W3C//DTD SVG 1.1//EN"
 "http://www.w3.org/Graphics/SVG/1.1/DTD/svg11.dtd">
<!-- Generated by graphviz version 2.43.0 (0)
 -->
<!-- Title: Tree Pages: 1 -->
<svg width="3660pt" height="646pt"
 viewBox="0.00 0.00 3660.17 646.42" xmlns="http://www.w3.org/2000/svg" xmlns:xlink="http://www.w3.org/1999/xlink">
<g id="graph0" class="graph" transform="scale(1 1) rotate(0) translate(18 628.42)">
<title>Tree</title>
<polygon fill="white" stroke="transparent" points="-18,18 -18,-628.42 3642.17,-628.42 3642.17,18 -18,18"/>
<!-- 0 -->
<g id="node1" class="node">
<title>0</title>
<polygon fill="white" stroke="transparent" points="1856.09,-610.42 1802.09,-610.42 1802.09,-574.42 1856.09,-574.42 1856.09,-610.42"/>
<text text-anchor="middle" x="1829.09" y="-588.72" font-family="Helvetica,sans-Serif" font-size="14.00">0</text>
</g>
<!-- 1 -->
<g id="node2" class="node">
<title>1</title>
<polygon fill="#cc3d3d" stroke="black" points="1912.59,-537.42 1745.59,-537.42 1745.59,-473.42 1912.59,-473.42 1912.59,-537.42"/>
<text text-anchor="start" x="1790.59" y="-523.22" font-family="Helvetica,sans-Serif" font-weight="bold" font-size="14.00"> Class=L </text>
<text text-anchor="start" x="1862.59" y="-523.22" font-family="Helvetica,sans-Serif" font-size="14.00"> </text>
<text text-anchor="start" x="1755.09" y="-509.22" font-family="Helvetica,sans-Serif" font-size="14.00"> error: 0.832, n=625 </text>
<text text-anchor="start" x="1753.59" y="-495.22" font-family="Helvetica,sans-Serif" font-size="14.00"> p: (0.08, 0.46, 0.46) </text>
<text text-anchor="start" x="1785.59" y="-481.22" font-family="Helvetica,sans-Serif" font-weight="bold" font-size="14.00">left&#45;weight</text>
</g>
<!-- 0&#45;&gt;1 -->
<!-- 2 -->
<g id="node3" class="node">
<title>2</title>
<polygon fill="#e5d544" stroke="black" points="1468.59,-422.42 1301.59,-422.42 1301.59,-358.42 1468.59,-358.42 1468.59,-422.42"/>
<text text-anchor="start" x="1346.59" y="-408.22" font-family="Helvetica,sans-Serif" font-weight="bold" font-size="14.00"> Class=L </text>
<text text-anchor="start" x="1418.59" y="-408.22" font-family="Helvetica,sans-Serif" font-size="14.00"> </text>
<text text-anchor="start" x="1311.09" y="-394.22" font-family="Helvetica,sans-Serif" font-size="14.00"> error: 0.783, n=625 </text>
<text text-anchor="start" x="1309.59" y="-380.22" font-family="Helvetica,sans-Serif" font-size="14.00"> p: (0.07, 0.61, 0.32) </text>
<text text-anchor="start" x="1335.09" y="-366.22" font-family="Helvetica,sans-Serif" font-weight="bold" font-size="14.00">left&#45;distance</text>
</g>
<!-- 1&#45;&gt;2 -->
<g id="edge2" class="edge">
<title>1:s&#45;&gt;2:n</title>
<path fill="none" stroke="black" d="M1829.09,-473.42C1829.09,-473.42 1461.28,-431.17 1395.19,-423.58"/>
<polygon fill="black" stroke="black" points="1395.42,-420.09 1385.09,-422.42 1394.62,-427.04 1395.42,-420.09"/>
<text text-anchor="middle" x="1673.09" y="-444.22" font-family="Helvetica,sans-Serif" font-size="14.00">&gt; 2</text>
</g>
<!-- 15 -->
<g id="node4" class="node">
<title>15</title>
<polygon fill="#e5d544" stroke="black" points="2511.59,-422.42 2344.59,-422.42 2344.59,-358.42 2511.59,-358.42 2511.59,-422.42"/>
<text text-anchor="start" x="2389.09" y="-408.22" font-family="Helvetica,sans-Serif" font-weight="bold" font-size="14.00"> Class=R </text>
<text text-anchor="start" x="2462.09" y="-408.22" font-family="Helvetica,sans-Serif" font-size="14.00"> </text>
<text text-anchor="start" x="2354.09" y="-394.22" font-family="Helvetica,sans-Serif" font-size="14.00"> error: 0.742, n=625 </text>
<text text-anchor="start" x="2352.59" y="-380.22" font-family="Helvetica,sans-Serif" font-size="14.00"> p: (0.08, 0.24, 0.68) </text>
<text text-anchor="start" x="2379.59" y="-366.22" font-family="Helvetica,sans-Serif" font-weight="bold" font-size="14.00">right&#45;weight</text>
</g>
<!-- 1&#45;&gt;15 -->
<g id="edge3" class="edge">
<title>1:s&#45;&gt;15:n</title>
<path fill="none" stroke="black" d="M1829.09,-473.42C1829.09,-473.42 2338.15,-430.08 2417.69,-423.31"/>
<polygon fill="black" stroke="black" points="2418.42,-426.76 2428.09,-422.42 2417.83,-419.78 2418.42,-426.76"/>
<text text-anchor="middle" x="2219.09" y="-444.22" font-family="Helvetica,sans-Serif" font-size="14.00">&lt;= 2</text>
</g>
<!-- 3 -->
<g id="node5" class="node">
<title>3</title>
<polygon fill="#59cc3d" stroke="black" points="1000.59,-307.42 833.59,-307.42 833.59,-243.42 1000.59,-243.42 1000.59,-307.42"/>
<text text-anchor="start" x="878.09" y="-293.22" font-family="Helvetica,sans-Serif" font-weight="bold" font-size="14.00"> Class=R </text>
<text text-anchor="start" x="951.09" y="-293.22" font-family="Helvetica,sans-Serif" font-size="14.00"> </text>
<text text-anchor="start" x="843.09" y="-279.22" font-family="Helvetica,sans-Serif" font-size="14.00"> error: 0.823, n=625 </text>
<text text-anchor="start" x="841.59" y="-265.22" font-family="Helvetica,sans-Serif" font-size="14.00"> p: (0.09, 0.35, 0.56) </text>
<text text-anchor="start" x="868.59" y="-251.22" font-family="Helvetica,sans-Serif" font-weight="bold" font-size="14.00">right&#45;weight</text>
</g>
<!-- 2&#45;&gt;3 -->
<g id="edge4" class="edge">
<title>2:s&#45;&gt;3:n</title>
<path fill="none" stroke="black" d="M1385.09,-358.42C1385.09,-358.42 995.74,-315.99 927.3,-308.53"/>
<polygon fill="black" stroke="black" points="927.41,-305.03 917.09,-307.42 926.65,-311.98 927.41,-305.03"/>
<text text-anchor="middle" x="1226.09" y="-329.22" font-family="Helvetica,sans-Serif" font-size="14.00">&lt;= 2</text>
</g>
<!-- 10 -->
<g id="node6" class="node">
<title>10</title>
<polygon fill="#59cc3d" stroke="black" points="1468.59,-307.42 1301.59,-307.42 1301.59,-243.42 1468.59,-243.42 1468.59,-307.42"/>
<text text-anchor="start" x="1346.59" y="-293.22" font-family="Helvetica,sans-Serif" font-weight="bold" font-size="14.00"> Class=L </text>
<text text-anchor="start" x="1418.59" y="-293.22" font-family="Helvetica,sans-Serif" font-size="14.00"> </text>
<text text-anchor="start" x="1311.09" y="-279.22" font-family="Helvetica,sans-Serif" font-size="14.00"> error: 0.606, n=625 </text>
<text text-anchor="start" x="1309.59" y="-265.22" font-family="Helvetica,sans-Serif" font-size="14.00"> p: (0.07, 0.78, 0.16) </text>
<text text-anchor="start" x="1336.59" y="-251.22" font-family="Helvetica,sans-Serif" font-weight="bold" font-size="14.00">right&#45;weight</text>
</g>
<!-- 2&#45;&gt;10 -->
<g id="edge5" class="edge">
<title>2:s&#45;&gt;10:n</title>
<path fill="none" stroke="black" d="M1385.09,-358.42C1385.09,-358.42 1385.09,-332.64 1385.09,-317.74"/>
<polygon fill="black" stroke="black" points="1388.59,-317.42 1385.09,-307.42 1381.59,-317.42 1388.59,-317.42"/>
<text text-anchor="middle" x="1398.09" y="-329.22" font-family="Helvetica,sans-Serif" font-size="14.00">&gt; 2</text>
</g>
<!-- 16 -->
<g id="node17" class="node">
<title>16</title>
<polygon fill="#59cc3d" stroke="black" points="2511.59,-307.42 2344.59,-307.42 2344.59,-243.42 2511.59,-243.42 2511.59,-307.42"/>
<text text-anchor="start" x="2389.59" y="-293.22" font-family="Helvetica,sans-Serif" font-weight="bold" font-size="14.00"> Class=L </text>
<text text-anchor="start" x="2461.59" y="-293.22" font-family="Helvetica,sans-Serif" font-size="14.00"> </text>
<text text-anchor="start" x="2354.09" y="-279.22" font-family="Helvetica,sans-Serif" font-size="14.00"> error: 0.911, n=625 </text>
<text text-anchor="start" x="2352.59" y="-265.22" font-family="Helvetica,sans-Serif" font-size="14.00"> p: (0.14, 0.43, 0.43) </text>
<text text-anchor="start" x="2378.09" y="-251.22" font-family="Helvetica,sans-Serif" font-weight="bold" font-size="14.00">left&#45;distance</text>
</g>
<!-- 15&#45;&gt;16 -->
<g id="edge16" class="edge">
<title>15:s&#45;&gt;16:n</title>
<path fill="none" stroke="black" d="M2428.09,-358.42C2428.09,-358.42 2428.09,-332.64 2428.09,-317.74"/>
<polygon fill="black" stroke="black" points="2431.59,-317.42 2428.09,-307.42 2424.59,-317.42 2431.59,-317.42"/>
<text text-anchor="middle" x="2447.09" y="-329.22" font-family="Helvetica,sans-Serif" font-size="14.00">&lt;= 2</text>
</g>
<!-- 23 -->
<g id="node18" class="node">
<title>23</title>
<polygon fill="#59cc3d" stroke="black" points="3281.59,-307.42 3114.59,-307.42 3114.59,-243.42 3281.59,-243.42 3281.59,-307.42"/>
<text text-anchor="start" x="3159.09" y="-293.22" font-family="Helvetica,sans-Serif" font-weight="bold" font-size="14.00"> Class=R </text>
<text text-anchor="start" x="3232.09" y="-293.22" font-family="Helvetica,sans-Serif" font-size="14.00"> </text>
<text text-anchor="start" x="3124.09" y="-279.22" font-family="Helvetica,sans-Serif" font-size="14.00"> error: 0.488, n=625 </text>
<text text-anchor="start" x="3122.59" y="-265.22" font-family="Helvetica,sans-Serif" font-size="14.00"> p: (0.05, 0.11, 0.84) </text>
<text text-anchor="start" x="3142.59" y="-251.22" font-family="Helvetica,sans-Serif" font-weight="bold" font-size="14.00">right&#45;distance</text>
</g>
<!-- 15&#45;&gt;23 -->
<g id="edge17" class="edge">
<title>15:s&#45;&gt;23:n</title>
<path fill="none" stroke="black" d="M2428.09,-358.42C2428.09,-358.42 3097.81,-314.06 3188.07,-308.08"/>
<polygon fill="black" stroke="black" points="3188.34,-311.57 3198.09,-307.42 3187.88,-304.59 3188.34,-311.57"/>
<text text-anchor="middle" x="2918.09" y="-329.22" font-family="Helvetica,sans-Serif" font-size="14.00">&gt; 2</text>
</g>
<!-- 4 -->
<g id="node7" class="node">
<title>4</title>
<polygon fill="#44e5b5" stroke="black" points="509.59,-189.07 342.59,-189.07 342.59,-125.07 509.59,-125.07 509.59,-189.07"/>
<text text-anchor="start" x="387.59" y="-174.87" font-family="Helvetica,sans-Serif" font-weight="bold" font-size="14.00"> Class=L </text>
<text text-anchor="start" x="459.59" y="-174.87" font-family="Helvetica,sans-Serif" font-size="14.00"> </text>
<text text-anchor="start" x="352.09" y="-160.87" font-family="Helvetica,sans-Serif" font-size="14.00"> error: 0.820, n=625 </text>
<text text-anchor="start" x="350.59" y="-146.87" font-family="Helvetica,sans-Serif" font-size="14.00"> p: (0.12, 0.62, 0.27) </text>
<text text-anchor="start" x="370.59" y="-132.87" font-family="Helvetica,sans-Serif" font-weight="bold" font-size="14.00">right&#45;distance</text>
</g>
<!-- 3&#45;&gt;4 -->
<g id="edge6" class="edge">
<title>3:s&#45;&gt;4:n</title>
<path fill="none" stroke="black" d="M917.09,-243.42C917.09,-243.42 506.85,-198.84 436.34,-191.18"/>
<polygon fill="black" stroke="black" points="436.41,-187.67 426.09,-190.07 435.65,-194.63 436.41,-187.67"/>
<text text-anchor="middle" x="764.09" y="-214.22" font-family="Helvetica,sans-Serif" font-size="14.00">&lt;= 2</text>
</g>
<!-- 7 -->
<g id="node8" class="node">
<title>7</title>
<polygon fill="#44e5b5" stroke="black" points="1000.59,-189.07 833.59,-189.07 833.59,-125.07 1000.59,-125.07 1000.59,-189.07"/>
<text text-anchor="start" x="878.09" y="-174.87" font-family="Helvetica,sans-Serif" font-weight="bold" font-size="14.00"> Class=R </text>
<text text-anchor="start" x="951.09" y="-174.87" font-family="Helvetica,sans-Serif" font-size="14.00"> </text>
<text text-anchor="start" x="843.09" y="-160.87" font-family="Helvetica,sans-Serif" font-size="14.00"> error: 0.637, n=625 </text>
<text text-anchor="start" x="841.59" y="-146.87" font-family="Helvetica,sans-Serif" font-size="14.00"> p: (0.07, 0.18, 0.76) </text>
<text text-anchor="start" x="861.59" y="-132.87" font-family="Helvetica,sans-Serif" font-weight="bold" font-size="14.00">right&#45;distance</text>
</g>
<!-- 3&#45;&gt;7 -->
<g id="edge7" class="edge">
<title>3:s&#45;&gt;7:n</title>
<path fill="none" stroke="black" d="M917.09,-243.42C917.09,-243.42 917.09,-215.86 917.09,-200.35"/>
<polygon fill="black" stroke="black" points="920.59,-200.07 917.09,-190.07 913.59,-200.07 920.59,-200.07"/>
<text text-anchor="middle" x="930.09" y="-214.22" font-family="Helvetica,sans-Serif" font-size="14.00">&gt; 2</text>
</g>
<!-- 11 -->
<g id="node13" class="node">
<title>11</title>
<ellipse fill="#44e5b5" stroke="black" cx="1288.09" cy="-157.07" rx="118.17" ry="35.21"/>
<text text-anchor="start" x="1249.59" y="-167.87" font-family="Helvetica,sans-Serif" font-weight="bold" font-size="14.00"> Class=L </text>
<text text-anchor="start" x="1321.59" y="-167.87" font-family="Helvetica,sans-Serif" font-size="14.00"> </text>
<text text-anchor="start" x="1214.09" y="-153.87" font-family="Helvetica,sans-Serif" font-size="14.00"> error: 0.056, n=625 </text>
<text text-anchor="start" x="1212.59" y="-139.87" font-family="Helvetica,sans-Serif" font-size="14.00"> p: (0.00, 0.99, 0.01) </text>
</g>
<!-- 10&#45;&gt;11 -->
<g id="edge12" class="edge">
<title>10:s&#45;&gt;11:n</title>
<path fill="none" stroke="black" d="M1385.09,-243.42C1385.09,-243.42 1321.05,-209.75 1297.04,-197.13"/>
<polygon fill="black" stroke="black" points="1298.57,-193.98 1288.09,-192.42 1295.31,-200.17 1298.57,-193.98"/>
<text text-anchor="middle" x="1368.09" y="-214.22" font-family="Helvetica,sans-Serif" font-size="14.00">&lt;= 2</text>
</g>
<!-- 12 -->
<g id="node14" class="node">
<title>12</title>
<polygon fill="#44e5b5" stroke="black" points="1645.59,-189.07 1478.59,-189.07 1478.59,-125.07 1645.59,-125.07 1645.59,-189.07"/>
<text text-anchor="start" x="1523.59" y="-174.87" font-family="Helvetica,sans-Serif" font-weight="bold" font-size="14.00"> Class=L </text>
<text text-anchor="start" x="1595.59" y="-174.87" font-family="Helvetica,sans-Serif" font-size="14.00"> </text>
<text text-anchor="start" x="1488.09" y="-160.87" font-family="Helvetica,sans-Serif" font-size="14.00"> error: 0.800, n=625 </text>
<text text-anchor="start" x="1486.59" y="-146.87" font-family="Helvetica,sans-Serif" font-size="14.00"> p: (0.11, 0.64, 0.25) </text>
<text text-anchor="start" x="1506.59" y="-132.87" font-family="Helvetica,sans-Serif" font-weight="bold" font-size="14.00">right&#45;distance</text>
</g>
<!-- 10&#45;&gt;12 -->
<g id="edge13" class="edge">
<title>10:s&#45;&gt;12:n</title>
<path fill="none" stroke="black" d="M1385.09,-243.42C1385.09,-243.42 1515.21,-204.2 1552.32,-193.01"/>
<polygon fill="black" stroke="black" points="1553.52,-196.3 1562.09,-190.07 1551.5,-189.6 1553.52,-196.3"/>
<text text-anchor="middle" x="1503.09" y="-214.22" font-family="Helvetica,sans-Serif" font-size="14.00">&gt; 2</text>
</g>
<!-- 5 -->
<g id="node9" class="node">
<title>5</title>
<ellipse fill="#3d76cc" stroke="black" cx="118.09" cy="-35.36" rx="118.17" ry="35.21"/>
<text text-anchor="start" x="79.59" y="-46.16" font-family="Helvetica,sans-Serif" font-weight="bold" font-size="14.00"> Class=L </text>
<text text-anchor="start" x="151.59" y="-46.16" font-family="Helvetica,sans-Serif" font-size="14.00"> </text>
<text text-anchor="start" x="44.09" y="-32.16" font-family="Helvetica,sans-Serif" font-size="14.00"> error: 0.314, n=625 </text>
<text text-anchor="start" x="42.59" y="-18.16" font-family="Helvetica,sans-Serif" font-size="14.00"> p: (0.04, 0.92, 0.04) </text>
</g>
<!-- 4&#45;&gt;5 -->
<g id="edge8" class="edge">
<title>4:s&#45;&gt;5:n</title>
<path fill="none" stroke="black" d="M426.09,-124.07C426.09,-124.07 180.7,-81.56 127.99,-72.43"/>
<polygon fill="black" stroke="black" points="128.54,-68.97 118.09,-70.71 127.34,-75.87 128.54,-68.97"/>
<text text-anchor="middle" x="319.09" y="-92.51" font-family="Helvetica,sans-Serif" font-size="14.00">&lt;= 2</text>
</g>
<!-- 6 -->
<g id="node10" class="node">
<title>6</title>
<ellipse fill="#3d76cc" stroke="black" cx="426.09" cy="-35.36" rx="118.17" ry="35.21"/>
<text text-anchor="start" x="387.59" y="-46.16" font-family="Helvetica,sans-Serif" font-weight="bold" font-size="14.00"> Class=L </text>
<text text-anchor="start" x="459.59" y="-46.16" font-family="Helvetica,sans-Serif" font-size="14.00"> </text>
<text text-anchor="start" x="352.09" y="-32.16" font-family="Helvetica,sans-Serif" font-size="14.00"> error: 0.936, n=625 </text>
<text text-anchor="start" x="350.59" y="-18.16" font-family="Helvetica,sans-Serif" font-size="14.00"> p: (0.17, 0.42, 0.42) </text>
</g>
<!-- 4&#45;&gt;6 -->
<g id="edge9" class="edge">
<title>4:s&#45;&gt;6:n</title>
<path fill="none" stroke="black" d="M426.09,-124.07C426.09,-124.07 426.09,-96.5 426.09,-81"/>
<polygon fill="black" stroke="black" points="429.59,-80.71 426.09,-70.71 422.59,-80.71 429.59,-80.71"/>
<text text-anchor="middle" x="439.09" y="-92.51" font-family="Helvetica,sans-Serif" font-size="14.00">&gt; 2</text>
</g>
<!-- 8 -->
<g id="node11" class="node">
<title>8</title>
<ellipse fill="#3d76cc" stroke="black" cx="734.09" cy="-35.36" rx="118.17" ry="35.21"/>
<text text-anchor="start" x="695.59" y="-46.16" font-family="Helvetica,sans-Serif" font-weight="bold" font-size="14.00"> Class=L </text>
<text text-anchor="start" x="767.59" y="-46.16" font-family="Helvetica,sans-Serif" font-size="14.00"> </text>
<text text-anchor="start" x="660.09" y="-32.16" font-family="Helvetica,sans-Serif" font-size="14.00"> error: 0.936, n=625 </text>
<text text-anchor="start" x="658.59" y="-18.16" font-family="Helvetica,sans-Serif" font-size="14.00"> p: (0.17, 0.42, 0.42) </text>
</g>
<!-- 7&#45;&gt;8 -->
<g id="edge10" class="edge">
<title>7:s&#45;&gt;8:n</title>
<path fill="none" stroke="black" d="M917.09,-124.07C917.09,-124.07 781.94,-84.66 743.93,-73.58"/>
<polygon fill="black" stroke="black" points="744.67,-70.15 734.09,-70.71 742.71,-76.87 744.67,-70.15"/>
<text text-anchor="middle" x="861.09" y="-92.51" font-family="Helvetica,sans-Serif" font-size="14.00">&lt;= 2</text>
</g>
<!-- 9 -->
<g id="node12" class="node">
<title>9</title>
<ellipse fill="#3d76cc" stroke="black" cx="1042.09" cy="-35.36" rx="118.17" ry="35.21"/>
<text text-anchor="start" x="1003.09" y="-46.16" font-family="Helvetica,sans-Serif" font-weight="bold" font-size="14.00"> Class=R </text>
<text text-anchor="start" x="1076.09" y="-46.16" font-family="Helvetica,sans-Serif" font-size="14.00"> </text>
<text text-anchor="start" x="968.09" y="-32.16" font-family="Helvetica,sans-Serif" font-size="14.00"> error: 0.084, n=625 </text>
<text text-anchor="start" x="966.59" y="-18.16" font-family="Helvetica,sans-Serif" font-size="14.00"> p: (0.00, 0.02, 0.98) </text>
</g>
<!-- 7&#45;&gt;9 -->
<g id="edge11" class="edge">
<title>7:s&#45;&gt;9:n</title>
<path fill="none" stroke="black" d="M917.09,-124.07C917.09,-124.07 1003.62,-87.13 1032.69,-74.72"/>
<polygon fill="black" stroke="black" points="1034.26,-77.86 1042.09,-70.71 1031.52,-71.42 1034.26,-77.86"/>
<text text-anchor="middle" x="1011.09" y="-92.51" font-family="Helvetica,sans-Serif" font-size="14.00">&gt; 2</text>
</g>
<!-- 13 -->
<g id="node15" class="node">
<title>13</title>
<ellipse fill="#3d76cc" stroke="black" cx="1350.09" cy="-35.36" rx="118.17" ry="35.21"/>
<text text-anchor="start" x="1311.59" y="-46.16" font-family="Helvetica,sans-Serif" font-weight="bold" font-size="14.00"> Class=L </text>
<text text-anchor="start" x="1383.59" y="-46.16" font-family="Helvetica,sans-Serif" font-size="14.00"> </text>
<text text-anchor="start" x="1276.09" y="-32.16" font-family="Helvetica,sans-Serif" font-size="14.00"> error: 0.084, n=625 </text>
<text text-anchor="start" x="1274.59" y="-18.16" font-family="Helvetica,sans-Serif" font-size="14.00"> p: (0.00, 0.98, 0.02) </text>
</g>
<!-- 12&#45;&gt;13 -->
<g id="edge14" class="edge">
<title>12:s&#45;&gt;13:n</title>
<path fill="none" stroke="black" d="M1562.09,-124.07C1562.09,-124.07 1401.94,-83.76 1360.03,-73.21"/>
<polygon fill="black" stroke="black" points="1360.64,-69.76 1350.09,-70.71 1358.93,-76.55 1360.64,-69.76"/>
<text text-anchor="middle" x="1494.09" y="-92.51" font-family="Helvetica,sans-Serif" font-size="14.00">&lt;= 2</text>
</g>
<!-- 14 -->
<g id="node16" class="node">
<title>14</title>
<ellipse fill="#3d76cc" stroke="black" cx="1658.09" cy="-35.36" rx="118.17" ry="35.21"/>
<text text-anchor="start" x="1619.59" y="-46.16" font-family="Helvetica,sans-Serif" font-weight="bold" font-size="14.00"> Class=L </text>
<text text-anchor="start" x="1691.59" y="-46.16" font-family="Helvetica,sans-Serif" font-size="14.00"> </text>
<text text-anchor="start" x="1584.09" y="-32.16" font-family="Helvetica,sans-Serif" font-size="14.00"> error: 0.950, n=625 </text>
<text text-anchor="start" x="1582.59" y="-18.16" font-family="Helvetica,sans-Serif" font-size="14.00"> p: (0.19, 0.41, 0.41) </text>
</g>
<!-- 12&#45;&gt;14 -->
<g id="edge15" class="edge">
<title>12:s&#45;&gt;14:n</title>
<path fill="none" stroke="black" d="M1562.09,-124.07C1562.09,-124.07 1625.46,-88.84 1649.23,-75.63"/>
<polygon fill="black" stroke="black" points="1651.05,-78.63 1658.09,-70.71 1647.65,-72.51 1651.05,-78.63"/>
<text text-anchor="middle" x="1638.09" y="-92.51" font-family="Helvetica,sans-Serif" font-size="14.00">&gt; 2</text>
</g>
<!-- 17 -->
<g id="node19" class="node">
<title>17</title>
<polygon fill="#44e5b5" stroke="black" points="2357.59,-189.07 2190.59,-189.07 2190.59,-125.07 2357.59,-125.07 2357.59,-189.07"/>
<text text-anchor="start" x="2235.09" y="-174.87" font-family="Helvetica,sans-Serif" font-weight="bold" font-size="14.00"> Class=R </text>
<text text-anchor="start" x="2308.09" y="-174.87" font-family="Helvetica,sans-Serif" font-size="14.00"> </text>
<text text-anchor="start" x="2200.09" y="-160.87" font-family="Helvetica,sans-Serif" font-size="14.00"> error: 0.778, n=625 </text>
<text text-anchor="start" x="2198.59" y="-146.87" font-family="Helvetica,sans-Serif" font-size="14.00"> p: (0.17, 0.15, 0.68) </text>
<text text-anchor="start" x="2218.59" y="-132.87" font-family="Helvetica,sans-Serif" font-weight="bold" font-size="14.00">right&#45;distance</text>
</g>
<!-- 16&#45;&gt;17 -->
<g id="edge18" class="edge">
<title>16:s&#45;&gt;17:n</title>
<path fill="none" stroke="black" d="M2428.09,-243.42C2428.09,-243.42 2317.43,-205.08 2283.72,-193.4"/>
<polygon fill="black" stroke="black" points="2284.68,-190.03 2274.09,-190.07 2282.39,-196.65 2284.68,-190.03"/>
<text text-anchor="middle" x="2377.09" y="-214.22" font-family="Helvetica,sans-Serif" font-size="14.00">&lt;= 2</text>
</g>
<!-- 20 -->
<g id="node20" class="node">
<title>20</title>
<polygon fill="#44e5b5" stroke="black" points="2665.59,-189.07 2498.59,-189.07 2498.59,-125.07 2665.59,-125.07 2665.59,-189.07"/>
<text text-anchor="start" x="2543.59" y="-174.87" font-family="Helvetica,sans-Serif" font-weight="bold" font-size="14.00"> Class=L </text>
<text text-anchor="start" x="2615.59" y="-174.87" font-family="Helvetica,sans-Serif" font-size="14.00"> </text>
<text text-anchor="start" x="2508.09" y="-160.87" font-family="Helvetica,sans-Serif" font-size="14.00"> error: 0.820, n=625 </text>
<text text-anchor="start" x="2506.59" y="-146.87" font-family="Helvetica,sans-Serif" font-size="14.00"> p: (0.12, 0.62, 0.27) </text>
<text text-anchor="start" x="2526.59" y="-132.87" font-family="Helvetica,sans-Serif" font-weight="bold" font-size="14.00">right&#45;distance</text>
</g>
<!-- 16&#45;&gt;20 -->
<g id="edge19" class="edge">
<title>16:s&#45;&gt;20:n</title>
<path fill="none" stroke="black" d="M2428.09,-243.42C2428.09,-243.42 2538.74,-205.08 2572.45,-193.4"/>
<polygon fill="black" stroke="black" points="2573.78,-196.65 2582.09,-190.07 2571.49,-190.03 2573.78,-196.65"/>
<text text-anchor="middle" x="2532.09" y="-214.22" font-family="Helvetica,sans-Serif" font-size="14.00">&gt; 2</text>
</g>
<!-- 24 -->
<g id="node25" class="node">
<title>24</title>
<polygon fill="#44e5b5" stroke="black" points="3281.59,-189.07 3114.59,-189.07 3114.59,-125.07 3281.59,-125.07 3281.59,-189.07"/>
<text text-anchor="start" x="3159.09" y="-174.87" font-family="Helvetica,sans-Serif" font-weight="bold" font-size="14.00"> Class=R </text>
<text text-anchor="start" x="3232.09" y="-174.87" font-family="Helvetica,sans-Serif" font-size="14.00"> </text>
<text text-anchor="start" x="3124.09" y="-160.87" font-family="Helvetica,sans-Serif" font-size="14.00"> error: 0.820, n=625 </text>
<text text-anchor="start" x="3122.59" y="-146.87" font-family="Helvetica,sans-Serif" font-size="14.00"> p: (0.12, 0.27, 0.62) </text>
<text text-anchor="start" x="3148.09" y="-132.87" font-family="Helvetica,sans-Serif" font-weight="bold" font-size="14.00">left&#45;distance</text>
</g>
<!-- 23&#45;&gt;24 -->
<g id="edge24" class="edge">
<title>23:s&#45;&gt;24:n</title>
<path fill="none" stroke="black" d="M3198.09,-243.42C3198.09,-243.42 3198.09,-215.86 3198.09,-200.35"/>
<polygon fill="black" stroke="black" points="3201.59,-200.07 3198.09,-190.07 3194.59,-200.07 3201.59,-200.07"/>
<text text-anchor="middle" x="3217.09" y="-214.22" font-family="Helvetica,sans-Serif" font-size="14.00">&lt;= 2</text>
</g>
<!-- 27 -->
<g id="node26" class="node">
<title>27</title>
<ellipse fill="#44e5b5" stroke="black" cx="3472.09" cy="-157.07" rx="118.17" ry="35.21"/>
<text text-anchor="start" x="3433.09" y="-167.87" font-family="Helvetica,sans-Serif" font-weight="bold" font-size="14.00"> Class=R </text>
<text text-anchor="start" x="3506.09" y="-167.87" font-family="Helvetica,sans-Serif" font-size="14.00"> </text>
<text text-anchor="start" x="3398.09" y="-153.87" font-family="Helvetica,sans-Serif" font-size="14.00"> error: 0.056, n=625 </text>
<text text-anchor="start" x="3396.59" y="-139.87" font-family="Helvetica,sans-Serif" font-size="14.00"> p: (0.00, 0.01, 0.99) </text>
</g>
<!-- 23&#45;&gt;27 -->
<g id="edge25" class="edge">
<title>23:s&#45;&gt;27:n</title>
<path fill="none" stroke="black" d="M3198.09,-243.42C3198.09,-243.42 3412.58,-203.5 3462.01,-194.3"/>
<polygon fill="black" stroke="black" points="3462.9,-197.69 3472.09,-192.42 3461.62,-190.81 3462.9,-197.69"/>
<text text-anchor="middle" x="3381.09" y="-214.22" font-family="Helvetica,sans-Serif" font-size="14.00">&gt; 2</text>
</g>
<!-- 18 -->
<g id="node21" class="node">
<title>18</title>
<ellipse fill="#3d76cc" stroke="black" cx="1966.09" cy="-35.36" rx="118.17" ry="35.21"/>
<text text-anchor="start" x="1927.09" y="-46.16" font-family="Helvetica,sans-Serif" font-weight="bold" font-size="14.00"> Class=B </text>
<text text-anchor="start" x="2000.09" y="-46.16" font-family="Helvetica,sans-Serif" font-size="14.00"> </text>
<text text-anchor="start" x="1892.09" y="-32.16" font-family="Helvetica,sans-Serif" font-size="14.00"> error: 0.997, n=625 </text>
<text text-anchor="start" x="1890.59" y="-18.16" font-family="Helvetica,sans-Serif" font-size="14.00"> p: (0.38, 0.31, 0.31) </text>
</g>
<!-- 17&#45;&gt;18 -->
<g id="edge20" class="edge">
<title>17:s&#45;&gt;18:n</title>
<path fill="none" stroke="black" d="M2274.09,-124.07C2274.09,-124.07 2028.7,-81.56 1975.99,-72.43"/>
<polygon fill="black" stroke="black" points="1976.54,-68.97 1966.09,-70.71 1975.34,-75.87 1976.54,-68.97"/>
<text text-anchor="middle" x="2167.09" y="-92.51" font-family="Helvetica,sans-Serif" font-size="14.00">&lt;= 2</text>
</g>
<!-- 19 -->
<g id="node22" class="node">
<title>19</title>
<ellipse fill="#3d76cc" stroke="black" cx="2274.09" cy="-35.36" rx="118.17" ry="35.21"/>
<text text-anchor="start" x="2235.09" y="-46.16" font-family="Helvetica,sans-Serif" font-weight="bold" font-size="14.00"> Class=R </text>
<text text-anchor="start" x="2308.09" y="-46.16" font-family="Helvetica,sans-Serif" font-size="14.00"> </text>
<text text-anchor="start" x="2200.09" y="-32.16" font-family="Helvetica,sans-Serif" font-size="14.00"> error: 0.314, n=625 </text>
<text text-anchor="start" x="2198.59" y="-18.16" font-family="Helvetica,sans-Serif" font-size="14.00"> p: (0.04, 0.04, 0.92) </text>
</g>
<!-- 17&#45;&gt;19 -->
<g id="edge21" class="edge">
<title>17:s&#45;&gt;19:n</title>
<path fill="none" stroke="black" d="M2274.09,-124.07C2274.09,-124.07 2274.09,-96.5 2274.09,-81"/>
<polygon fill="black" stroke="black" points="2277.59,-80.71 2274.09,-70.71 2270.59,-80.71 2277.59,-80.71"/>
<text text-anchor="middle" x="2287.09" y="-92.51" font-family="Helvetica,sans-Serif" font-size="14.00">&gt; 2</text>
</g>
<!-- 21 -->
<g id="node23" class="node">
<title>21</title>
<ellipse fill="#3d76cc" stroke="black" cx="2582.09" cy="-35.36" rx="118.17" ry="35.21"/>
<text text-anchor="start" x="2543.59" y="-46.16" font-family="Helvetica,sans-Serif" font-weight="bold" font-size="14.00"> Class=L </text>
<text text-anchor="start" x="2615.59" y="-46.16" font-family="Helvetica,sans-Serif" font-size="14.00"> </text>
<text text-anchor="start" x="2508.09" y="-32.16" font-family="Helvetica,sans-Serif" font-size="14.00"> error: 0.314, n=625 </text>
<text text-anchor="start" x="2506.59" y="-18.16" font-family="Helvetica,sans-Serif" font-size="14.00"> p: (0.04, 0.92, 0.04) </text>
</g>
<!-- 20&#45;&gt;21 -->
<g id="edge22" class="edge">
<title>20:s&#45;&gt;21:n</title>
<path fill="none" stroke="black" d="M2582.09,-124.07C2582.09,-124.07 2582.09,-96.5 2582.09,-81"/>
<polygon fill="black" stroke="black" points="2585.59,-80.71 2582.09,-70.71 2578.59,-80.71 2585.59,-80.71"/>
<text text-anchor="middle" x="2601.09" y="-92.51" font-family="Helvetica,sans-Serif" font-size="14.00">&lt;= 2</text>
</g>
<!-- 22 -->
<g id="node24" class="node">
<title>22</title>
<ellipse fill="#3d76cc" stroke="black" cx="2890.09" cy="-35.36" rx="118.17" ry="35.21"/>
<text text-anchor="start" x="2851.59" y="-46.16" font-family="Helvetica,sans-Serif" font-weight="bold" font-size="14.00"> Class=L </text>
<text text-anchor="start" x="2923.59" y="-46.16" font-family="Helvetica,sans-Serif" font-size="14.00"> </text>
<text text-anchor="start" x="2816.09" y="-32.16" font-family="Helvetica,sans-Serif" font-size="14.00"> error: 0.936, n=625 </text>
<text text-anchor="start" x="2814.59" y="-18.16" font-family="Helvetica,sans-Serif" font-size="14.00"> p: (0.17, 0.42, 0.42) </text>
</g>
<!-- 20&#45;&gt;22 -->
<g id="edge23" class="edge">
<title>20:s&#45;&gt;22:n</title>
<path fill="none" stroke="black" d="M2582.09,-124.07C2582.09,-124.07 2827.47,-81.56 2880.19,-72.43"/>
<polygon fill="black" stroke="black" points="2880.83,-75.87 2890.09,-70.71 2879.64,-68.97 2880.83,-75.87"/>
<text text-anchor="middle" x="2795.09" y="-92.51" font-family="Helvetica,sans-Serif" font-size="14.00">&gt; 2</text>
</g>
<!-- 25 -->
<g id="node27" class="node">
<title>25</title>
<ellipse fill="#3d76cc" stroke="black" cx="3198.09" cy="-35.36" rx="118.17" ry="35.21"/>
<text text-anchor="start" x="3159.09" y="-46.16" font-family="Helvetica,sans-Serif" font-weight="bold" font-size="14.00"> Class=R </text>
<text text-anchor="start" x="3232.09" y="-46.16" font-family="Helvetica,sans-Serif" font-size="14.00"> </text>
<text text-anchor="start" x="3124.09" y="-32.16" font-family="Helvetica,sans-Serif" font-size="14.00"> error: 0.314, n=625 </text>
<text text-anchor="start" x="3122.59" y="-18.16" font-family="Helvetica,sans-Serif" font-size="14.00"> p: (0.04, 0.04, 0.92) </text>
</g>
<!-- 24&#45;&gt;25 -->
<g id="edge26" class="edge">
<title>24:s&#45;&gt;25:n</title>
<path fill="none" stroke="black" d="M3198.09,-124.07C3198.09,-124.07 3198.09,-96.5 3198.09,-81"/>
<polygon fill="black" stroke="black" points="3201.59,-80.71 3198.09,-70.71 3194.59,-80.71 3201.59,-80.71"/>
<text text-anchor="middle" x="3217.09" y="-92.51" font-family="Helvetica,sans-Serif" font-size="14.00">&lt;= 2</text>
</g>
<!-- 26 -->
<g id="node28" class="node">
<title>26</title>
<ellipse fill="#3d76cc" stroke="black" cx="3506.09" cy="-35.36" rx="118.17" ry="35.21"/>
<text text-anchor="start" x="3467.59" y="-46.16" font-family="Helvetica,sans-Serif" font-weight="bold" font-size="14.00"> Class=L </text>
<text text-anchor="start" x="3539.59" y="-46.16" font-family="Helvetica,sans-Serif" font-size="14.00"> </text>
<text text-anchor="start" x="3432.09" y="-32.16" font-family="Helvetica,sans-Serif" font-size="14.00"> error: 0.936, n=625 </text>
<text text-anchor="start" x="3430.59" y="-18.16" font-family="Helvetica,sans-Serif" font-size="14.00"> p: (0.17, 0.42, 0.42) </text>
</g>
<!-- 24&#45;&gt;26 -->
<g id="edge27" class="edge">
<title>24:s&#45;&gt;26:n</title>
<path fill="none" stroke="black" d="M3198.09,-124.07C3198.09,-124.07 3443.47,-81.56 3496.19,-72.43"/>
<polygon fill="black" stroke="black" points="3496.83,-75.87 3506.09,-70.71 3495.64,-68.97 3496.83,-75.87"/>
<text text-anchor="middle" x="3411.09" y="-92.51" font-family="Helvetica,sans-Serif" font-size="14.00">&gt; 2</text>
</g>
</g>
</svg>
