<?xml version="1.0" encoding="UTF-8" standalone="no"?>
<!DOCTYPE svg PUBLIC "-//W3C//DTD SVG 1.1//EN"
 "http://www.w3.org/Graphics/SVG/1.1/DTD/svg11.dtd">
<!-- Generated by graphviz version 2.43.0 (0)
 -->
<!-- Title: Tree Pages: 1 -->
<svg width="1849pt" height="768pt"
 viewBox="0.00 0.00 1848.93 768.13" xmlns="http://www.w3.org/2000/svg" xmlns:xlink="http://www.w3.org/1999/xlink">
<g id="graph0" class="graph" transform="scale(1 1) rotate(0) translate(18 750.13)">
<title>Tree</title>
<polygon fill="white" stroke="transparent" points="-18,18 -18,-750.13 1830.93,-750.13 1830.93,18 -18,18"/>
<!-- 0 -->
<g id="node1" class="node">
<title>0</title>
<polygon fill="white" stroke="transparent" points="1149.97,-732.13 1095.97,-732.13 1095.97,-696.13 1149.97,-696.13 1149.97,-732.13"/>
<text text-anchor="middle" x="1122.97" y="-710.43" font-family="Helvetica,sans-Serif" font-size="14.00">0</text>
</g>
<!-- 1 -->
<g id="node2" class="node">
<title>1</title>
<polygon fill="#cc3d3d" stroke="black" points="1209.97,-659.13 1035.97,-659.13 1035.97,-595.13 1209.97,-595.13 1209.97,-659.13"/>
<text text-anchor="start" x="1062.47" y="-644.93" font-family="Helvetica,sans-Serif" font-weight="bold" font-size="14.00"> Class=benign </text>
<text text-anchor="start" x="1178.47" y="-644.93" font-family="Helvetica,sans-Serif" font-size="14.00"> </text>
<text text-anchor="start" x="1048.97" y="-630.93" font-family="Helvetica,sans-Serif" font-size="14.00"> error: 0.929, n=699 </text>
<text text-anchor="start" x="1067.97" y="-616.93" font-family="Helvetica,sans-Serif" font-size="14.00"> p: (0.66, 0.34) </text>
<text text-anchor="start" x="1043.97" y="-602.93" font-family="Helvetica,sans-Serif" font-weight="bold" font-size="14.00">Cell_Size_Uniformity</text>
</g>
<!-- 0&#45;&gt;1 -->
<!-- 2 -->
<g id="node3" class="node">
<title>2</title>
<polygon fill="#e5b844" stroke="black" points="1089.97,-544.13 915.97,-544.13 915.97,-480.13 1089.97,-480.13 1089.97,-544.13"/>
<text text-anchor="start" x="929.47" y="-529.93" font-family="Helvetica,sans-Serif" font-weight="bold" font-size="14.00"> Class=malignant </text>
<text text-anchor="start" x="1071.47" y="-529.93" font-family="Helvetica,sans-Serif" font-size="14.00"> </text>
<text text-anchor="start" x="928.97" y="-515.93" font-family="Helvetica,sans-Serif" font-size="14.00"> error: 0.614, n=270 </text>
<text text-anchor="start" x="947.97" y="-501.93" font-family="Helvetica,sans-Serif" font-size="14.00"> p: (0.15, 0.85) </text>
<text text-anchor="start" x="923.97" y="-487.93" font-family="Helvetica,sans-Serif" font-weight="bold" font-size="14.00">Cell_Size_Uniformity</text>
</g>
<!-- 1&#45;&gt;2 -->
<g id="edge2" class="edge">
<title>1:s&#45;&gt;2:n</title>
<path fill="none" stroke="black" d="M1122.97,-595.13C1122.97,-595.13 1040.67,-560.16 1012.38,-548.13"/>
<polygon fill="black" stroke="black" points="1013.54,-544.82 1002.97,-544.13 1010.8,-551.26 1013.54,-544.82"/>
<text text-anchor="middle" x="1090.97" y="-565.93" font-family="Helvetica,sans-Serif" font-size="14.00">&gt; 2</text>
</g>
<!-- 17 -->
<g id="node4" class="node">
<title>17</title>
<polygon fill="#e5b844" stroke="black" points="1481.97,-544.13 1317.97,-544.13 1317.97,-480.13 1481.97,-480.13 1481.97,-544.13"/>
<text text-anchor="start" x="1339.47" y="-529.93" font-family="Helvetica,sans-Serif" font-weight="bold" font-size="14.00"> Class=benign </text>
<text text-anchor="start" x="1455.47" y="-529.93" font-family="Helvetica,sans-Serif" font-size="14.00"> </text>
<text text-anchor="start" x="1325.97" y="-515.93" font-family="Helvetica,sans-Serif" font-size="14.00"> error: 0.184, n=429 </text>
<text text-anchor="start" x="1344.97" y="-501.93" font-family="Helvetica,sans-Serif" font-size="14.00"> p: (0.97, 0.03) </text>
<text text-anchor="start" x="1333.47" y="-487.93" font-family="Helvetica,sans-Serif" font-weight="bold" font-size="14.00">Clump_Thickness</text>
</g>
<!-- 1&#45;&gt;17 -->
<g id="edge3" class="edge">
<title>1:s&#45;&gt;17:n</title>
<path fill="none" stroke="black" d="M1122.97,-595.13C1122.97,-595.13 1340.76,-555.03 1390.11,-545.95"/>
<polygon fill="black" stroke="black" points="1390.76,-549.38 1399.97,-544.13 1389.5,-542.5 1390.76,-549.38"/>
<text text-anchor="middle" x="1313.97" y="-565.93" font-family="Helvetica,sans-Serif" font-size="14.00">&lt;= 2</text>
</g>
<!-- 3 -->
<g id="node5" class="node">
<title>3</title>
<polygon fill="#8dcc3d" stroke="black" points="466.97,-429.13 302.97,-429.13 302.97,-365.13 466.97,-365.13 466.97,-429.13"/>
<text text-anchor="start" x="311.47" y="-414.93" font-family="Helvetica,sans-Serif" font-weight="bold" font-size="14.00"> Class=malignant </text>
<text text-anchor="start" x="453.47" y="-414.93" font-family="Helvetica,sans-Serif" font-size="14.00"> </text>
<text text-anchor="start" x="310.97" y="-400.93" font-family="Helvetica,sans-Serif" font-size="14.00"> error: 0.185, n=178 </text>
<text text-anchor="start" x="329.97" y="-386.93" font-family="Helvetica,sans-Serif" font-size="14.00"> p: (0.03, 0.97) </text>
<text text-anchor="start" x="318.47" y="-372.93" font-family="Helvetica,sans-Serif" font-weight="bold" font-size="14.00">Clump_Thickness</text>
</g>
<!-- 2&#45;&gt;3 -->
<g id="edge4" class="edge">
<title>2:s&#45;&gt;3:n</title>
<path fill="none" stroke="black" d="M1002.97,-480.13C1002.97,-480.13 475.53,-436.61 395.18,-429.97"/>
<polygon fill="black" stroke="black" points="395.22,-426.47 384.97,-429.13 394.64,-433.44 395.22,-426.47"/>
<text text-anchor="middle" x="780.97" y="-450.93" font-family="Helvetica,sans-Serif" font-size="14.00">&gt; 4</text>
</g>
<!-- 9 -->
<g id="node6" class="node">
<title>9</title>
<polygon fill="#8dcc3d" stroke="black" points="1084.47,-429.13 921.47,-429.13 921.47,-365.13 1084.47,-365.13 1084.47,-429.13"/>
<text text-anchor="start" x="929.47" y="-414.93" font-family="Helvetica,sans-Serif" font-weight="bold" font-size="14.00"> Class=malignant </text>
<text text-anchor="start" x="1071.47" y="-414.93" font-family="Helvetica,sans-Serif" font-size="14.00"> </text>
<text text-anchor="start" x="933.47" y="-400.93" font-family="Helvetica,sans-Serif" font-size="14.00"> error: 0.966, n=92 </text>
<text text-anchor="start" x="947.97" y="-386.93" font-family="Helvetica,sans-Serif" font-size="14.00"> p: (0.39, 0.61) </text>
<text text-anchor="start" x="956.47" y="-372.93" font-family="Helvetica,sans-Serif" font-weight="bold" font-size="14.00">Bare_Nuclei</text>
</g>
<!-- 2&#45;&gt;9 -->
<g id="edge5" class="edge">
<title>2:s&#45;&gt;9:n</title>
<path fill="none" stroke="black" d="M1002.97,-480.13C1002.97,-480.13 1002.97,-454.35 1002.97,-439.45"/>
<polygon fill="black" stroke="black" points="1006.47,-439.13 1002.97,-429.13 999.47,-439.13 1006.47,-439.13"/>
<text text-anchor="middle" x="1021.97" y="-450.93" font-family="Helvetica,sans-Serif" font-size="14.00">&lt;= 4</text>
</g>
<!-- 18 -->
<g id="node19" class="node">
<title>18</title>
<polygon fill="#8dcc3d" stroke="black" points="1513.97,-429.13 1349.97,-429.13 1349.97,-365.13 1513.97,-365.13 1513.97,-429.13"/>
<text text-anchor="start" x="1371.47" y="-414.93" font-family="Helvetica,sans-Serif" font-weight="bold" font-size="14.00"> Class=benign </text>
<text text-anchor="start" x="1487.47" y="-414.93" font-family="Helvetica,sans-Serif" font-size="14.00"> </text>
<text text-anchor="start" x="1357.97" y="-400.93" font-family="Helvetica,sans-Serif" font-size="14.00"> error: 0.093, n=420 </text>
<text text-anchor="start" x="1376.97" y="-386.93" font-family="Helvetica,sans-Serif" font-size="14.00"> p: (0.99, 0.01) </text>
<text text-anchor="start" x="1385.47" y="-372.93" font-family="Helvetica,sans-Serif" font-weight="bold" font-size="14.00">Bare_Nuclei</text>
</g>
<!-- 17&#45;&gt;18 -->
<g id="edge18" class="edge">
<title>17:s&#45;&gt;18:n</title>
<path fill="none" stroke="black" d="M1399.97,-480.13C1399.97,-480.13 1417.22,-452.63 1426.39,-438.02"/>
<polygon fill="black" stroke="black" points="1429.62,-439.46 1431.97,-429.13 1423.69,-435.74 1429.62,-439.46"/>
<text text-anchor="middle" x="1438.97" y="-450.93" font-family="Helvetica,sans-Serif" font-size="14.00">&lt;= 6</text>
</g>
<!-- 4 -->
<g id="node7" class="node">
<title>4</title>
<ellipse fill="#44e55e" stroke="black" cx="115.97" cy="-278.78" rx="115.93" ry="35.21"/>
<text text-anchor="start" x="42.47" y="-289.58" font-family="Helvetica,sans-Serif" font-weight="bold" font-size="14.00"> Class=malignant </text>
<text text-anchor="start" x="184.47" y="-289.58" font-family="Helvetica,sans-Serif" font-size="14.00"> </text>
<text text-anchor="start" x="41.97" y="-275.58" font-family="Helvetica,sans-Serif" font-size="14.00"> error: 0.000, n=106 </text>
<text text-anchor="start" x="60.97" y="-261.58" font-family="Helvetica,sans-Serif" font-size="14.00"> p: (0.00, 1.00) </text>
</g>
<!-- 3&#45;&gt;4 -->
<g id="edge6" class="edge">
<title>3:s&#45;&gt;4:n</title>
<path fill="none" stroke="black" d="M384.97,-365.13C384.97,-365.13 174.39,-325.21 125.86,-316.01"/>
<polygon fill="black" stroke="black" points="126.44,-312.56 115.97,-314.13 125.14,-319.43 126.44,-312.56"/>
<text text-anchor="middle" x="295.97" y="-335.93" font-family="Helvetica,sans-Serif" font-size="14.00">&gt; 6</text>
</g>
<!-- 5 -->
<g id="node8" class="node">
<title>5</title>
<polygon fill="#44e55e" stroke="black" points="466.47,-310.78 303.47,-310.78 303.47,-246.78 466.47,-246.78 466.47,-310.78"/>
<text text-anchor="start" x="311.47" y="-296.58" font-family="Helvetica,sans-Serif" font-weight="bold" font-size="14.00"> Class=malignant </text>
<text text-anchor="start" x="453.47" y="-296.58" font-family="Helvetica,sans-Serif" font-size="14.00"> </text>
<text text-anchor="start" x="315.47" y="-282.58" font-family="Helvetica,sans-Serif" font-size="14.00"> error: 0.364, n=72 </text>
<text text-anchor="start" x="329.97" y="-268.58" font-family="Helvetica,sans-Serif" font-size="14.00"> p: (0.07, 0.93) </text>
<text text-anchor="start" x="318.47" y="-254.58" font-family="Helvetica,sans-Serif" font-weight="bold" font-size="14.00">Bland_Chromatin</text>
</g>
<!-- 3&#45;&gt;5 -->
<g id="edge7" class="edge">
<title>3:s&#45;&gt;5:n</title>
<path fill="none" stroke="black" d="M384.97,-365.13C384.97,-365.13 384.97,-337.57 384.97,-322.06"/>
<polygon fill="black" stroke="black" points="388.47,-321.78 384.97,-311.78 381.47,-321.78 388.47,-321.78"/>
<text text-anchor="middle" x="403.97" y="-335.93" font-family="Helvetica,sans-Serif" font-size="14.00">&lt;= 6</text>
</g>
<!-- 10 -->
<g id="node12" class="node">
<title>10</title>
<polygon fill="#44e55e" stroke="black" points="970.47,-310.78 807.47,-310.78 807.47,-246.78 970.47,-246.78 970.47,-310.78"/>
<text text-anchor="start" x="815.47" y="-296.58" font-family="Helvetica,sans-Serif" font-weight="bold" font-size="14.00"> Class=malignant </text>
<text text-anchor="start" x="957.47" y="-296.58" font-family="Helvetica,sans-Serif" font-size="14.00"> </text>
<text text-anchor="start" x="819.47" y="-282.58" font-family="Helvetica,sans-Serif" font-size="14.00"> error: 0.674, n=62 </text>
<text text-anchor="start" x="833.97" y="-268.58" font-family="Helvetica,sans-Serif" font-size="14.00"> p: (0.18, 0.82) </text>
<text text-anchor="start" x="822.47" y="-254.58" font-family="Helvetica,sans-Serif" font-weight="bold" font-size="14.00">Clump_Thickness</text>
</g>
<!-- 9&#45;&gt;10 -->
<g id="edge11" class="edge">
<title>9:s&#45;&gt;10:n</title>
<path fill="none" stroke="black" d="M1002.97,-365.13C1002.97,-365.13 925.52,-328.89 898.29,-316.14"/>
<polygon fill="black" stroke="black" points="899.51,-312.85 888.97,-311.78 896.54,-319.19 899.51,-312.85"/>
<text text-anchor="middle" x="960.97" y="-335.93" font-family="Helvetica,sans-Serif" font-size="14.00">&gt; 2</text>
</g>
<!-- 15 -->
<g id="node13" class="node">
<title>15</title>
<polygon fill="#44e55e" stroke="black" points="1213.47,-310.78 1058.47,-310.78 1058.47,-246.78 1213.47,-246.78 1213.47,-310.78"/>
<text text-anchor="start" x="1075.47" y="-296.58" font-family="Helvetica,sans-Serif" font-weight="bold" font-size="14.00"> Class=benign </text>
<text text-anchor="start" x="1191.47" y="-296.58" font-family="Helvetica,sans-Serif" font-size="14.00"> </text>
<text text-anchor="start" x="1066.47" y="-282.58" font-family="Helvetica,sans-Serif" font-size="14.00"> error: 0.650, n=30 </text>
<text text-anchor="start" x="1080.97" y="-268.58" font-family="Helvetica,sans-Serif" font-size="14.00"> p: (0.83, 0.17) </text>
<text text-anchor="start" x="1072.47" y="-254.58" font-family="Helvetica,sans-Serif" font-weight="bold" font-size="14.00">Normal_Nucleoli</text>
</g>
<!-- 9&#45;&gt;15 -->
<g id="edge12" class="edge">
<title>9:s&#45;&gt;15:n</title>
<path fill="none" stroke="black" d="M1002.97,-365.13C1002.97,-365.13 1095.9,-327.85 1126.4,-315.61"/>
<polygon fill="black" stroke="black" points="1127.99,-318.75 1135.97,-311.78 1125.38,-312.25 1127.99,-318.75"/>
<text text-anchor="middle" x="1100.97" y="-335.93" font-family="Helvetica,sans-Serif" font-size="14.00">&lt;= 2</text>
</g>
<!-- 6 -->
<g id="node9" class="node">
<title>6</title>
<polygon fill="#3dccba" stroke="black" points="197.47,-189.07 34.47,-189.07 34.47,-125.07 197.47,-125.07 197.47,-189.07"/>
<text text-anchor="start" x="42.47" y="-174.87" font-family="Helvetica,sans-Serif" font-weight="bold" font-size="14.00"> Class=malignant </text>
<text text-anchor="start" x="184.47" y="-174.87" font-family="Helvetica,sans-Serif" font-size="14.00"> </text>
<text text-anchor="start" x="46.47" y="-160.87" font-family="Helvetica,sans-Serif" font-size="14.00"> error: 0.131, n=55 </text>
<text text-anchor="start" x="60.97" y="-146.87" font-family="Helvetica,sans-Serif" font-size="14.00"> p: (0.02, 0.98) </text>
<text text-anchor="start" x="49.47" y="-132.87" font-family="Helvetica,sans-Serif" font-weight="bold" font-size="14.00">Clump_Thickness</text>
</g>
<!-- 5&#45;&gt;6 -->
<g id="edge8" class="edge">
<title>5:s&#45;&gt;6:n</title>
<path fill="none" stroke="black" d="M384.97,-245.78C384.97,-245.78 174.39,-202.17 125.86,-192.11"/>
<polygon fill="black" stroke="black" points="126.47,-188.67 115.97,-190.07 125.05,-195.52 126.47,-188.67"/>
<text text-anchor="middle" x="295.97" y="-214.22" font-family="Helvetica,sans-Serif" font-size="14.00">&gt; 4</text>
</g>
<!-- 8 -->
<g id="node10" class="node">
<title>8</title>
<ellipse fill="#3dccba" stroke="black" cx="384.97" cy="-157.07" rx="115.02" ry="35.21"/>
<text text-anchor="start" x="311.47" y="-167.87" font-family="Helvetica,sans-Serif" font-weight="bold" font-size="14.00"> Class=malignant </text>
<text text-anchor="start" x="453.47" y="-167.87" font-family="Helvetica,sans-Serif" font-size="14.00"> </text>
<text text-anchor="start" x="315.47" y="-153.87" font-family="Helvetica,sans-Serif" font-size="14.00"> error: 0.787, n=17 </text>
<text text-anchor="start" x="329.97" y="-139.87" font-family="Helvetica,sans-Serif" font-size="14.00"> p: (0.24, 0.76) </text>
</g>
<!-- 5&#45;&gt;8 -->
<g id="edge9" class="edge">
<title>5:s&#45;&gt;8:n</title>
<path fill="none" stroke="black" d="M384.97,-245.78C384.97,-245.78 384.97,-218.21 384.97,-202.71"/>
<polygon fill="black" stroke="black" points="388.47,-202.42 384.97,-192.42 381.47,-202.42 388.47,-202.42"/>
<text text-anchor="middle" x="403.97" y="-214.22" font-family="Helvetica,sans-Serif" font-size="14.00">&lt;= 4</text>
</g>
<!-- 7 -->
<g id="node11" class="node">
<title>7</title>
<ellipse fill="#4485e5" stroke="black" cx="115.97" cy="-35.36" rx="115.02" ry="35.21"/>
<text text-anchor="start" x="42.47" y="-46.16" font-family="Helvetica,sans-Serif" font-weight="bold" font-size="14.00"> Class=malignant </text>
<text text-anchor="start" x="184.47" y="-46.16" font-family="Helvetica,sans-Serif" font-size="14.00"> </text>
<text text-anchor="start" x="46.47" y="-32.16" font-family="Helvetica,sans-Serif" font-size="14.00"> error: 0.000, n=40 </text>
<text text-anchor="start" x="60.97" y="-18.16" font-family="Helvetica,sans-Serif" font-size="14.00"> p: (0.00, 1.00) </text>
</g>
<!-- 6&#45;&gt;7 -->
<g id="edge10" class="edge">
<title>6:s&#45;&gt;7:n</title>
<path fill="none" stroke="black" d="M115.97,-124.07C115.97,-124.07 115.97,-96.5 115.97,-81"/>
<polygon fill="black" stroke="black" points="119.47,-80.71 115.97,-70.71 112.47,-80.71 119.47,-80.71"/>
<text text-anchor="middle" x="134.97" y="-92.51" font-family="Helvetica,sans-Serif" font-size="14.00">&lt;= 5</text>
</g>
<!-- 11 -->
<g id="node14" class="node">
<title>11</title>
<polygon fill="#3dccba" stroke="black" points="735.47,-189.07 572.47,-189.07 572.47,-125.07 735.47,-125.07 735.47,-189.07"/>
<text text-anchor="start" x="580.47" y="-174.87" font-family="Helvetica,sans-Serif" font-weight="bold" font-size="14.00"> Class=malignant </text>
<text text-anchor="start" x="722.47" y="-174.87" font-family="Helvetica,sans-Serif" font-size="14.00"> </text>
<text text-anchor="start" x="584.47" y="-160.87" font-family="Helvetica,sans-Serif" font-size="14.00"> error: 0.196, n=33 </text>
<text text-anchor="start" x="598.97" y="-146.87" font-family="Helvetica,sans-Serif" font-size="14.00"> p: (0.03, 0.97) </text>
<text text-anchor="start" x="607.47" y="-132.87" font-family="Helvetica,sans-Serif" font-weight="bold" font-size="14.00">Bare_Nuclei</text>
</g>
<!-- 10&#45;&gt;11 -->
<g id="edge13" class="edge">
<title>10:s&#45;&gt;11:n</title>
<path fill="none" stroke="black" d="M888.97,-245.78C888.97,-245.78 708.24,-202.93 663.76,-192.39"/>
<polygon fill="black" stroke="black" points="664.5,-188.97 653.97,-190.07 662.89,-195.78 664.5,-188.97"/>
<text text-anchor="middle" x="812.97" y="-214.22" font-family="Helvetica,sans-Serif" font-size="14.00">&gt; 6</text>
</g>
<!-- 13 -->
<g id="node15" class="node">
<title>13</title>
<polygon fill="#3dccba" stroke="black" points="970.47,-189.07 807.47,-189.07 807.47,-125.07 970.47,-125.07 970.47,-189.07"/>
<text text-anchor="start" x="815.47" y="-174.87" font-family="Helvetica,sans-Serif" font-weight="bold" font-size="14.00"> Class=malignant </text>
<text text-anchor="start" x="957.47" y="-174.87" font-family="Helvetica,sans-Serif" font-size="14.00"> </text>
<text text-anchor="start" x="819.47" y="-160.87" font-family="Helvetica,sans-Serif" font-size="14.00"> error: 0.929, n=29 </text>
<text text-anchor="start" x="833.97" y="-146.87" font-family="Helvetica,sans-Serif" font-size="14.00"> p: (0.34, 0.66) </text>
<text text-anchor="start" x="822.47" y="-132.87" font-family="Helvetica,sans-Serif" font-weight="bold" font-size="14.00">Bland_Chromatin</text>
</g>
<!-- 10&#45;&gt;13 -->
<g id="edge14" class="edge">
<title>10:s&#45;&gt;13:n</title>
<path fill="none" stroke="black" d="M888.97,-245.78C888.97,-245.78 888.97,-216.37 888.97,-200.28"/>
<polygon fill="black" stroke="black" points="892.47,-200.07 888.97,-190.07 885.47,-200.07 892.47,-200.07"/>
<text text-anchor="middle" x="907.97" y="-214.22" font-family="Helvetica,sans-Serif" font-size="14.00">&lt;= 6</text>
</g>
<!-- 16 -->
<g id="node18" class="node">
<title>16</title>
<ellipse fill="#3dccba" stroke="black" cx="1151.97" cy="-157.07" rx="109.7" ry="35.21"/>
<text text-anchor="start" x="1091.47" y="-167.87" font-family="Helvetica,sans-Serif" font-weight="bold" font-size="14.00"> Class=benign </text>
<text text-anchor="start" x="1207.47" y="-167.87" font-family="Helvetica,sans-Serif" font-size="14.00"> </text>
<text text-anchor="start" x="1082.47" y="-153.87" font-family="Helvetica,sans-Serif" font-size="14.00"> error: 0.000, n=19 </text>
<text text-anchor="start" x="1096.97" y="-139.87" font-family="Helvetica,sans-Serif" font-size="14.00"> p: (1.00, 0.00) </text>
</g>
<!-- 15&#45;&gt;16 -->
<g id="edge17" class="edge">
<title>15:s&#45;&gt;16:n</title>
<path fill="none" stroke="black" d="M1135.97,-245.78C1135.97,-245.78 1144.41,-217.61 1149.03,-202.21"/>
<polygon fill="black" stroke="black" points="1152.45,-203.01 1151.97,-192.42 1145.74,-200.99 1152.45,-203.01"/>
<text text-anchor="middle" x="1165.97" y="-214.22" font-family="Helvetica,sans-Serif" font-size="14.00">&lt;= 2</text>
</g>
<!-- 12 -->
<g id="node16" class="node">
<title>12</title>
<ellipse fill="#4485e5" stroke="black" cx="619.97" cy="-35.36" rx="115.02" ry="35.21"/>
<text text-anchor="start" x="546.47" y="-46.16" font-family="Helvetica,sans-Serif" font-weight="bold" font-size="14.00"> Class=malignant </text>
<text text-anchor="start" x="688.47" y="-46.16" font-family="Helvetica,sans-Serif" font-size="14.00"> </text>
<text text-anchor="start" x="550.47" y="-32.16" font-family="Helvetica,sans-Serif" font-size="14.00"> error: 0.000, n=24 </text>
<text text-anchor="start" x="564.97" y="-18.16" font-family="Helvetica,sans-Serif" font-size="14.00"> p: (0.00, 1.00) </text>
</g>
<!-- 11&#45;&gt;12 -->
<g id="edge15" class="edge">
<title>11:s&#45;&gt;12:n</title>
<path fill="none" stroke="black" d="M653.97,-124.07C653.97,-124.07 635.24,-94.68 625.58,-79.52"/>
<polygon fill="black" stroke="black" points="628.29,-77.26 619.97,-70.71 622.39,-81.02 628.29,-77.26"/>
<text text-anchor="middle" x="653.97" y="-92.51" font-family="Helvetica,sans-Serif" font-size="14.00">&gt; 7</text>
</g>
<!-- 14 -->
<g id="node17" class="node">
<title>14</title>
<ellipse fill="#4485e5" stroke="black" cx="922.97" cy="-35.36" rx="115.02" ry="35.21"/>
<text text-anchor="start" x="849.47" y="-46.16" font-family="Helvetica,sans-Serif" font-weight="bold" font-size="14.00"> Class=malignant </text>
<text text-anchor="start" x="991.47" y="-46.16" font-family="Helvetica,sans-Serif" font-size="14.00"> </text>
<text text-anchor="start" x="853.47" y="-32.16" font-family="Helvetica,sans-Serif" font-size="14.00"> error: 0.650, n=18 </text>
<text text-anchor="start" x="867.97" y="-18.16" font-family="Helvetica,sans-Serif" font-size="14.00"> p: (0.17, 0.83) </text>
</g>
<!-- 13&#45;&gt;14 -->
<g id="edge16" class="edge">
<title>13:s&#45;&gt;14:n</title>
<path fill="none" stroke="black" d="M888.97,-124.07C888.97,-124.07 907.69,-94.68 917.35,-79.52"/>
<polygon fill="black" stroke="black" points="920.54,-81.02 922.97,-70.71 914.64,-77.26 920.54,-81.02"/>
<text text-anchor="middle" x="924.97" y="-92.51" font-family="Helvetica,sans-Serif" font-size="14.00">&gt; 3</text>
</g>
<!-- 19 -->
<g id="node20" class="node">
<title>19</title>
<polygon fill="#44e55e" stroke="black" points="1509.47,-310.78 1354.47,-310.78 1354.47,-246.78 1509.47,-246.78 1509.47,-310.78"/>
<text text-anchor="start" x="1371.47" y="-296.58" font-family="Helvetica,sans-Serif" font-weight="bold" font-size="14.00"> Class=benign </text>
<text text-anchor="start" x="1487.47" y="-296.58" font-family="Helvetica,sans-Serif" font-size="14.00"> </text>
<text text-anchor="start" x="1362.47" y="-282.58" font-family="Helvetica,sans-Serif" font-size="14.00"> error: 0.738, n=24 </text>
<text text-anchor="start" x="1376.97" y="-268.58" font-family="Helvetica,sans-Serif" font-size="14.00"> p: (0.79, 0.21) </text>
<text text-anchor="start" x="1365.47" y="-254.58" font-family="Helvetica,sans-Serif" font-weight="bold" font-size="14.00">Clump_Thickness</text>
</g>
<!-- 18&#45;&gt;19 -->
<g id="edge19" class="edge">
<title>18:s&#45;&gt;19:n</title>
<path fill="none" stroke="black" d="M1431.97,-365.13C1431.97,-365.13 1431.97,-337.57 1431.97,-322.06"/>
<polygon fill="black" stroke="black" points="1435.47,-321.78 1431.97,-311.78 1428.47,-321.78 1435.47,-321.78"/>
<text text-anchor="middle" x="1444.97" y="-335.93" font-family="Helvetica,sans-Serif" font-size="14.00">&gt; 4</text>
</g>
<!-- 21 -->
<g id="node21" class="node">
<title>21</title>
<ellipse fill="#44e55e" stroke="black" cx="1696.97" cy="-278.78" rx="115.93" ry="35.21"/>
<text text-anchor="start" x="1636.47" y="-289.58" font-family="Helvetica,sans-Serif" font-weight="bold" font-size="14.00"> Class=benign </text>
<text text-anchor="start" x="1752.47" y="-289.58" font-family="Helvetica,sans-Serif" font-size="14.00"> </text>
<text text-anchor="start" x="1622.97" y="-275.58" font-family="Helvetica,sans-Serif" font-size="14.00"> error: 0.000, n=396 </text>
<text text-anchor="start" x="1641.97" y="-261.58" font-family="Helvetica,sans-Serif" font-size="14.00"> p: (1.00, 0.00) </text>
</g>
<!-- 18&#45;&gt;21 -->
<g id="edge20" class="edge">
<title>18:s&#45;&gt;21:n</title>
<path fill="none" stroke="black" d="M1431.97,-365.13C1431.97,-365.13 1638.5,-325.38 1686.9,-316.07"/>
<polygon fill="black" stroke="black" points="1687.81,-319.46 1696.97,-314.13 1686.48,-312.59 1687.81,-319.46"/>
<text text-anchor="middle" x="1615.97" y="-335.93" font-family="Helvetica,sans-Serif" font-size="14.00">&lt;= 4</text>
</g>
<!-- 20 -->
<g id="node22" class="node">
<title>20</title>
<ellipse fill="#3dccba" stroke="black" cx="1442.97" cy="-157.07" rx="109.7" ry="35.21"/>
<text text-anchor="start" x="1382.47" y="-167.87" font-family="Helvetica,sans-Serif" font-weight="bold" font-size="14.00"> Class=benign </text>
<text text-anchor="start" x="1498.47" y="-167.87" font-family="Helvetica,sans-Serif" font-size="14.00"> </text>
<text text-anchor="start" x="1373.47" y="-153.87" font-family="Helvetica,sans-Serif" font-size="14.00"> error: 0.000, n=17 </text>
<text text-anchor="start" x="1387.97" y="-139.87" font-family="Helvetica,sans-Serif" font-size="14.00"> p: (1.00, 0.00) </text>
</g>
<!-- 19&#45;&gt;20 -->
<g id="edge21" class="edge">
<title>19:s&#45;&gt;20:n</title>
<path fill="none" stroke="black" d="M1431.97,-245.78C1431.97,-245.78 1437.65,-218.21 1440.84,-202.71"/>
<polygon fill="black" stroke="black" points="1444.37,-202.92 1442.97,-192.42 1437.52,-201.51 1444.37,-202.92"/>
<text text-anchor="middle" x="1458.97" y="-214.22" font-family="Helvetica,sans-Serif" font-size="14.00">&lt;= 3</text>
</g>
</g>
</svg>
