<?xml version="1.0" encoding="UTF-8" standalone="no"?>
<!DOCTYPE svg PUBLIC "-//W3C//DTD SVG 1.1//EN"
 "http://www.w3.org/Graphics/SVG/1.1/DTD/svg11.dtd">
<!-- Generated by graphviz version 2.43.0 (0)
 -->
<!-- Title: Tree Pages: 1 -->
<svg width="1446pt" height="775pt"
 viewBox="0.00 0.00 1445.93 774.84" xmlns="http://www.w3.org/2000/svg" xmlns:xlink="http://www.w3.org/1999/xlink">
<g id="graph0" class="graph" transform="scale(1 1) rotate(0) translate(18 756.84)">
<title>Tree</title>
<polygon fill="white" stroke="transparent" points="-18,18 -18,-756.84 1427.93,-756.84 1427.93,18 -18,18"/>
<!-- 0 -->
<g id="node1" class="node">
<title>0</title>
<polygon fill="white" stroke="transparent" points="600.97,-738.84 546.97,-738.84 546.97,-702.84 600.97,-702.84 600.97,-738.84"/>
<text text-anchor="middle" x="573.97" y="-717.14" font-family="Helvetica,sans-Serif" font-size="14.00">0</text>
</g>
<!-- 1 -->
<g id="node2" class="node">
<title>1</title>
<polygon fill="#cc3d3d" stroke="black" points="660.97,-665.84 486.97,-665.84 486.97,-601.84 660.97,-601.84 660.97,-665.84"/>
<text text-anchor="start" x="513.47" y="-651.64" font-family="Helvetica,sans-Serif" font-weight="bold" font-size="14.00"> Class=benign </text>
<text text-anchor="start" x="629.47" y="-651.64" font-family="Helvetica,sans-Serif" font-size="14.00"> </text>
<text text-anchor="start" x="499.97" y="-637.64" font-family="Helvetica,sans-Serif" font-size="14.00"> error: 0.929, n=699 </text>
<text text-anchor="start" x="518.97" y="-623.64" font-family="Helvetica,sans-Serif" font-size="14.00"> p: (0.66, 0.34) </text>
<text text-anchor="start" x="494.97" y="-609.64" font-family="Helvetica,sans-Serif" font-weight="bold" font-size="14.00">Cell_Size_Uniformity</text>
</g>
<!-- 0&#45;&gt;1 -->
<!-- 2 -->
<g id="node3" class="node">
<title>2</title>
<polygon fill="#e5b844" stroke="black" points="510.97,-550.84 346.97,-550.84 346.97,-486.84 510.97,-486.84 510.97,-550.84"/>
<text text-anchor="start" x="355.47" y="-536.64" font-family="Helvetica,sans-Serif" font-weight="bold" font-size="14.00"> Class=malignant </text>
<text text-anchor="start" x="497.47" y="-536.64" font-family="Helvetica,sans-Serif" font-size="14.00"> </text>
<text text-anchor="start" x="354.97" y="-522.64" font-family="Helvetica,sans-Serif" font-size="14.00"> error: 0.344, n=699 </text>
<text text-anchor="start" x="373.97" y="-508.64" font-family="Helvetica,sans-Serif" font-size="14.00"> p: (0.06, 0.94) </text>
<text text-anchor="start" x="382.47" y="-494.64" font-family="Helvetica,sans-Serif" font-weight="bold" font-size="14.00">Bare_Nuclei</text>
</g>
<!-- 1&#45;&gt;2 -->
<g id="edge2" class="edge">
<title>1:s&#45;&gt;2:n</title>
<path fill="none" stroke="black" d="M573.97,-601.84C573.97,-601.84 470.74,-565.54 438.48,-554.19"/>
<polygon fill="black" stroke="black" points="439.56,-550.86 428.97,-550.84 437.24,-557.46 439.56,-550.86"/>
<text text-anchor="middle" x="531.97" y="-572.64" font-family="Helvetica,sans-Serif" font-size="14.00">&gt; 3</text>
</g>
<!-- 11 -->
<g id="node4" class="node">
<title>11</title>
<polygon fill="#e5b844" stroke="black" points="782.97,-550.84 618.97,-550.84 618.97,-486.84 782.97,-486.84 782.97,-550.84"/>
<text text-anchor="start" x="640.47" y="-536.64" font-family="Helvetica,sans-Serif" font-weight="bold" font-size="14.00"> Class=benign </text>
<text text-anchor="start" x="756.47" y="-536.64" font-family="Helvetica,sans-Serif" font-size="14.00"> </text>
<text text-anchor="start" x="626.97" y="-522.64" font-family="Helvetica,sans-Serif" font-size="14.00"> error: 0.391, n=699 </text>
<text text-anchor="start" x="645.97" y="-508.64" font-family="Helvetica,sans-Serif" font-size="14.00"> p: (0.92, 0.08) </text>
<text text-anchor="start" x="654.47" y="-494.64" font-family="Helvetica,sans-Serif" font-weight="bold" font-size="14.00">Bare_Nuclei</text>
</g>
<!-- 1&#45;&gt;11 -->
<g id="edge3" class="edge">
<title>1:s&#45;&gt;11:n</title>
<path fill="none" stroke="black" d="M573.97,-601.84C573.97,-601.84 661.88,-566.54 691.42,-554.68"/>
<polygon fill="black" stroke="black" points="692.99,-557.82 700.97,-550.84 690.38,-551.32 692.99,-557.82"/>
<text text-anchor="middle" x="671.97" y="-572.64" font-family="Helvetica,sans-Serif" font-size="14.00">&lt;= 3</text>
</g>
<!-- 3 -->
<g id="node5" class="node">
<title>3</title>
<polygon fill="#8dcc3d" stroke="black" points="266.97,-432.49 92.97,-432.49 92.97,-368.49 266.97,-368.49 266.97,-432.49"/>
<text text-anchor="start" x="106.47" y="-418.29" font-family="Helvetica,sans-Serif" font-weight="bold" font-size="14.00"> Class=malignant </text>
<text text-anchor="start" x="248.47" y="-418.29" font-family="Helvetica,sans-Serif" font-size="14.00"> </text>
<text text-anchor="start" x="105.97" y="-404.29" font-family="Helvetica,sans-Serif" font-size="14.00"> error: 0.503, n=699 </text>
<text text-anchor="start" x="124.97" y="-390.29" font-family="Helvetica,sans-Serif" font-size="14.00"> p: (0.11, 0.89) </text>
<text text-anchor="start" x="100.97" y="-376.29" font-family="Helvetica,sans-Serif" font-weight="bold" font-size="14.00">Cell_Size_Uniformity</text>
</g>
<!-- 2&#45;&gt;3 -->
<g id="edge4" class="edge">
<title>2:s&#45;&gt;3:n</title>
<path fill="none" stroke="black" d="M428.97,-486.84C428.97,-486.84 236.62,-445.63 190.04,-435.65"/>
<polygon fill="black" stroke="black" points="190.48,-432.16 179.97,-433.49 189.01,-439 190.48,-432.16"/>
<text text-anchor="middle" x="360.97" y="-457.64" font-family="Helvetica,sans-Serif" font-size="14.00">&lt;= 7</text>
</g>
<!-- 6 -->
<g id="node6" class="node">
<title>6</title>
<polygon fill="#8dcc3d" stroke="black" points="510.97,-432.49 346.97,-432.49 346.97,-368.49 510.97,-368.49 510.97,-432.49"/>
<text text-anchor="start" x="355.47" y="-418.29" font-family="Helvetica,sans-Serif" font-weight="bold" font-size="14.00"> Class=malignant </text>
<text text-anchor="start" x="497.47" y="-418.29" font-family="Helvetica,sans-Serif" font-size="14.00"> </text>
<text text-anchor="start" x="354.97" y="-404.29" font-family="Helvetica,sans-Serif" font-size="14.00"> error: 0.149, n=699 </text>
<text text-anchor="start" x="373.97" y="-390.29" font-family="Helvetica,sans-Serif" font-size="14.00"> p: (0.02, 0.98) </text>
<text text-anchor="start" x="362.47" y="-376.29" font-family="Helvetica,sans-Serif" font-weight="bold" font-size="14.00">Bland_Chromatin</text>
</g>
<!-- 2&#45;&gt;6 -->
<g id="edge5" class="edge">
<title>2:s&#45;&gt;6:n</title>
<path fill="none" stroke="black" d="M428.97,-486.84C428.97,-486.84 428.97,-459.28 428.97,-443.77"/>
<polygon fill="black" stroke="black" points="432.47,-443.49 428.97,-433.49 425.47,-443.49 432.47,-443.49"/>
<text text-anchor="middle" x="441.97" y="-457.64" font-family="Helvetica,sans-Serif" font-size="14.00">&gt; 7</text>
</g>
<!-- 12 -->
<g id="node13" class="node">
<title>12</title>
<ellipse fill="#8dcc3d" stroke="black" cx="700.97" cy="-400.49" rx="115.93" ry="35.21"/>
<text text-anchor="start" x="640.47" y="-411.29" font-family="Helvetica,sans-Serif" font-weight="bold" font-size="14.00"> Class=benign </text>
<text text-anchor="start" x="756.47" y="-411.29" font-family="Helvetica,sans-Serif" font-size="14.00"> </text>
<text text-anchor="start" x="626.97" y="-397.29" font-family="Helvetica,sans-Serif" font-size="14.00"> error: 0.026, n=699 </text>
<text text-anchor="start" x="645.97" y="-383.29" font-family="Helvetica,sans-Serif" font-size="14.00"> p: (1.00, 0.00) </text>
</g>
<!-- 11&#45;&gt;12 -->
<g id="edge12" class="edge">
<title>11:s&#45;&gt;12:n</title>
<path fill="none" stroke="black" d="M700.97,-486.84C700.97,-486.84 700.97,-461.07 700.97,-446.16"/>
<polygon fill="black" stroke="black" points="704.47,-445.84 700.97,-435.84 697.47,-445.84 704.47,-445.84"/>
<text text-anchor="middle" x="719.97" y="-457.64" font-family="Helvetica,sans-Serif" font-size="14.00">&lt;= 1</text>
</g>
<!-- 13 -->
<g id="node14" class="node">
<title>13</title>
<polygon fill="#8dcc3d" stroke="black" points="1089.47,-432.49 898.47,-432.49 898.47,-368.49 1089.47,-368.49 1089.47,-432.49"/>
<text text-anchor="start" x="933.47" y="-418.29" font-family="Helvetica,sans-Serif" font-weight="bold" font-size="14.00"> Class=benign </text>
<text text-anchor="start" x="1049.47" y="-418.29" font-family="Helvetica,sans-Serif" font-size="14.00"> </text>
<text text-anchor="start" x="919.97" y="-404.29" font-family="Helvetica,sans-Serif" font-size="14.00"> error: 0.985, n=699 </text>
<text text-anchor="start" x="938.97" y="-390.29" font-family="Helvetica,sans-Serif" font-size="14.00"> p: (0.57, 0.43) </text>
<text text-anchor="start" x="906.47" y="-376.29" font-family="Helvetica,sans-Serif" font-weight="bold" font-size="14.00">Cell_Shape_Uniformity</text>
</g>
<!-- 11&#45;&gt;13 -->
<g id="edge13" class="edge">
<title>11:s&#45;&gt;13:n</title>
<path fill="none" stroke="black" d="M700.97,-486.84C700.97,-486.84 932.36,-444.71 983.88,-435.32"/>
<polygon fill="black" stroke="black" points="984.75,-438.72 993.97,-433.49 983.5,-431.84 984.75,-438.72"/>
<text text-anchor="middle" x="886.97" y="-457.64" font-family="Helvetica,sans-Serif" font-size="14.00">&gt; 1</text>
</g>
<!-- 4 -->
<g id="node7" class="node">
<title>4</title>
<polygon fill="#44e55e" stroke="black" points="214.97,-310.78 50.97,-310.78 50.97,-246.78 214.97,-246.78 214.97,-310.78"/>
<text text-anchor="start" x="59.47" y="-296.58" font-family="Helvetica,sans-Serif" font-weight="bold" font-size="14.00"> Class=malignant </text>
<text text-anchor="start" x="201.47" y="-296.58" font-family="Helvetica,sans-Serif" font-size="14.00"> </text>
<text text-anchor="start" x="58.97" y="-282.58" font-family="Helvetica,sans-Serif" font-size="14.00"> error: 0.129, n=699 </text>
<text text-anchor="start" x="77.97" y="-268.58" font-family="Helvetica,sans-Serif" font-size="14.00"> p: (0.02, 0.98) </text>
<text text-anchor="start" x="58.97" y="-254.58" font-family="Helvetica,sans-Serif" font-weight="bold" font-size="14.00">Marginal_Adhesion</text>
</g>
<!-- 3&#45;&gt;4 -->
<g id="edge6" class="edge">
<title>3:s&#45;&gt;4:n</title>
<path fill="none" stroke="black" d="M179.97,-367.49C179.97,-367.49 152.41,-334.83 139.5,-319.52"/>
<polygon fill="black" stroke="black" points="142.09,-317.16 132.97,-311.78 136.74,-321.68 142.09,-317.16"/>
<text text-anchor="middle" x="175.97" y="-335.93" font-family="Helvetica,sans-Serif" font-size="14.00">&gt; 4</text>
</g>
<!-- 7 -->
<g id="node9" class="node">
<title>7</title>
<polygon fill="#44e55e" stroke="black" points="502.97,-310.78 338.97,-310.78 338.97,-246.78 502.97,-246.78 502.97,-310.78"/>
<text text-anchor="start" x="347.47" y="-296.58" font-family="Helvetica,sans-Serif" font-weight="bold" font-size="14.00"> Class=malignant </text>
<text text-anchor="start" x="489.47" y="-296.58" font-family="Helvetica,sans-Serif" font-size="14.00"> </text>
<text text-anchor="start" x="346.97" y="-282.58" font-family="Helvetica,sans-Serif" font-size="14.00"> error: 0.414, n=699 </text>
<text text-anchor="start" x="365.97" y="-268.58" font-family="Helvetica,sans-Serif" font-size="14.00"> p: (0.08, 0.92) </text>
<text text-anchor="start" x="354.47" y="-254.58" font-family="Helvetica,sans-Serif" font-weight="bold" font-size="14.00">Clump_Thickness</text>
</g>
<!-- 6&#45;&gt;7 -->
<g id="edge8" class="edge">
<title>6:s&#45;&gt;7:n</title>
<path fill="none" stroke="black" d="M428.97,-367.49C428.97,-367.49 424.7,-337.76 422.4,-321.74"/>
<polygon fill="black" stroke="black" points="425.85,-321.18 420.97,-311.78 418.92,-322.17 425.85,-321.18"/>
<text text-anchor="middle" x="444.97" y="-335.93" font-family="Helvetica,sans-Serif" font-size="14.00">&lt;= 4</text>
</g>
<!-- 10 -->
<g id="node10" class="node">
<title>10</title>
<ellipse fill="#44e55e" stroke="black" cx="690.97" cy="-278.78" rx="115.93" ry="35.21"/>
<text text-anchor="start" x="617.47" y="-289.58" font-family="Helvetica,sans-Serif" font-weight="bold" font-size="14.00"> Class=malignant </text>
<text text-anchor="start" x="759.47" y="-289.58" font-family="Helvetica,sans-Serif" font-size="14.00"> </text>
<text text-anchor="start" x="616.97" y="-275.58" font-family="Helvetica,sans-Serif" font-size="14.00"> error: 0.000, n=699 </text>
<text text-anchor="start" x="635.97" y="-261.58" font-family="Helvetica,sans-Serif" font-size="14.00"> p: (0.00, 1.00) </text>
</g>
<!-- 6&#45;&gt;10 -->
<g id="edge9" class="edge">
<title>6:s&#45;&gt;10:n</title>
<path fill="none" stroke="black" d="M428.97,-367.49C428.97,-367.49 633.16,-325.9 681.01,-316.16"/>
<polygon fill="black" stroke="black" points="681.87,-319.56 690.97,-314.13 680.47,-312.7 681.87,-319.56"/>
<text text-anchor="middle" x="611.97" y="-335.93" font-family="Helvetica,sans-Serif" font-size="14.00">&gt; 4</text>
</g>
<!-- 5 -->
<g id="node8" class="node">
<title>5</title>
<ellipse fill="#3dccba" stroke="black" cx="115.97" cy="-157.07" rx="115.93" ry="35.21"/>
<text text-anchor="start" x="42.47" y="-167.87" font-family="Helvetica,sans-Serif" font-weight="bold" font-size="14.00"> Class=malignant </text>
<text text-anchor="start" x="184.47" y="-167.87" font-family="Helvetica,sans-Serif" font-size="14.00"> </text>
<text text-anchor="start" x="41.97" y="-153.87" font-family="Helvetica,sans-Serif" font-size="14.00"> error: 0.000, n=699 </text>
<text text-anchor="start" x="60.97" y="-139.87" font-family="Helvetica,sans-Serif" font-size="14.00"> p: (0.00, 1.00) </text>
</g>
<!-- 4&#45;&gt;5 -->
<g id="edge7" class="edge">
<title>4:s&#45;&gt;5:n</title>
<path fill="none" stroke="black" d="M132.97,-245.78C132.97,-245.78 123.99,-217.61 119.08,-202.21"/>
<polygon fill="black" stroke="black" points="122.34,-200.89 115.97,-192.42 115.67,-203.01 122.34,-200.89"/>
<text text-anchor="middle" x="139.97" y="-214.22" font-family="Helvetica,sans-Serif" font-size="14.00">&gt; 1</text>
</g>
<!-- 8 -->
<g id="node11" class="node">
<title>8</title>
<ellipse fill="#3dccba" stroke="black" cx="419.97" cy="-157.07" rx="115.93" ry="35.21"/>
<text text-anchor="start" x="346.47" y="-167.87" font-family="Helvetica,sans-Serif" font-weight="bold" font-size="14.00"> Class=malignant </text>
<text text-anchor="start" x="488.47" y="-167.87" font-family="Helvetica,sans-Serif" font-size="14.00"> </text>
<text text-anchor="start" x="345.97" y="-153.87" font-family="Helvetica,sans-Serif" font-size="14.00"> error: 0.650, n=699 </text>
<text text-anchor="start" x="364.97" y="-139.87" font-family="Helvetica,sans-Serif" font-size="14.00"> p: (0.17, 0.83) </text>
</g>
<!-- 7&#45;&gt;8 -->
<g id="edge10" class="edge">
<title>7:s&#45;&gt;8:n</title>
<path fill="none" stroke="black" d="M420.97,-245.78C420.97,-245.78 420.45,-218.21 420.16,-202.71"/>
<polygon fill="black" stroke="black" points="423.65,-202.35 419.97,-192.42 416.65,-202.49 423.65,-202.35"/>
<text text-anchor="middle" x="439.97" y="-214.22" font-family="Helvetica,sans-Serif" font-size="14.00">&lt;= 7</text>
</g>
<!-- 9 -->
<g id="node12" class="node">
<title>9</title>
<ellipse fill="#3dccba" stroke="black" cx="723.97" cy="-157.07" rx="115.93" ry="35.21"/>
<text text-anchor="start" x="650.47" y="-167.87" font-family="Helvetica,sans-Serif" font-weight="bold" font-size="14.00"> Class=malignant </text>
<text text-anchor="start" x="792.47" y="-167.87" font-family="Helvetica,sans-Serif" font-size="14.00"> </text>
<text text-anchor="start" x="649.97" y="-153.87" font-family="Helvetica,sans-Serif" font-size="14.00"> error: 0.000, n=699 </text>
<text text-anchor="start" x="668.97" y="-139.87" font-family="Helvetica,sans-Serif" font-size="14.00"> p: (0.00, 1.00) </text>
</g>
<!-- 7&#45;&gt;9 -->
<g id="edge11" class="edge">
<title>7:s&#45;&gt;9:n</title>
<path fill="none" stroke="black" d="M420.97,-245.78C420.97,-245.78 661.31,-203.45 713.88,-194.2"/>
<polygon fill="black" stroke="black" points="714.72,-197.6 723.97,-192.42 713.51,-190.71 714.72,-197.6"/>
<text text-anchor="middle" x="630.97" y="-214.22" font-family="Helvetica,sans-Serif" font-size="14.00">&gt; 7</text>
</g>
<!-- 14 -->
<g id="node15" class="node">
<title>14</title>
<polygon fill="#44e55e" stroke="black" points="1075.97,-310.78 911.97,-310.78 911.97,-246.78 1075.97,-246.78 1075.97,-310.78"/>
<text text-anchor="start" x="933.47" y="-296.58" font-family="Helvetica,sans-Serif" font-weight="bold" font-size="14.00"> Class=benign </text>
<text text-anchor="start" x="1049.47" y="-296.58" font-family="Helvetica,sans-Serif" font-size="14.00"> </text>
<text text-anchor="start" x="919.97" y="-282.58" font-family="Helvetica,sans-Serif" font-size="14.00"> error: 0.599, n=699 </text>
<text text-anchor="start" x="938.97" y="-268.58" font-family="Helvetica,sans-Serif" font-size="14.00"> p: (0.85, 0.15) </text>
<text text-anchor="start" x="927.47" y="-254.58" font-family="Helvetica,sans-Serif" font-weight="bold" font-size="14.00">Clump_Thickness</text>
</g>
<!-- 13&#45;&gt;14 -->
<g id="edge14" class="edge">
<title>13:s&#45;&gt;14:n</title>
<path fill="none" stroke="black" d="M993.97,-367.49C993.97,-367.49 993.97,-338.08 993.97,-321.99"/>
<polygon fill="black" stroke="black" points="997.47,-321.78 993.97,-311.78 990.47,-321.78 997.47,-321.78"/>
<text text-anchor="middle" x="1012.97" y="-335.93" font-family="Helvetica,sans-Serif" font-size="14.00">&lt;= 2</text>
</g>
<!-- 17 -->
<g id="node16" class="node">
<title>17</title>
<polygon fill="#44e55e" stroke="black" points="1345.97,-310.78 1181.97,-310.78 1181.97,-246.78 1345.97,-246.78 1345.97,-310.78"/>
<text text-anchor="start" x="1190.47" y="-296.58" font-family="Helvetica,sans-Serif" font-weight="bold" font-size="14.00"> Class=malignant </text>
<text text-anchor="start" x="1332.47" y="-296.58" font-family="Helvetica,sans-Serif" font-size="14.00"> </text>
<text text-anchor="start" x="1189.97" y="-282.58" font-family="Helvetica,sans-Serif" font-size="14.00"> error: 0.711, n=699 </text>
<text text-anchor="start" x="1208.97" y="-268.58" font-family="Helvetica,sans-Serif" font-size="14.00"> p: (0.19, 0.81) </text>
<text text-anchor="start" x="1217.47" y="-254.58" font-family="Helvetica,sans-Serif" font-weight="bold" font-size="14.00">Bare_Nuclei</text>
</g>
<!-- 13&#45;&gt;17 -->
<g id="edge15" class="edge">
<title>13:s&#45;&gt;17:n</title>
<path fill="none" stroke="black" d="M993.97,-367.49C993.97,-367.49 1205.32,-323.88 1254.04,-313.83"/>
<polygon fill="black" stroke="black" points="1254.88,-317.23 1263.97,-311.78 1253.46,-310.37 1254.88,-317.23"/>
<text text-anchor="middle" x="1174.97" y="-335.93" font-family="Helvetica,sans-Serif" font-size="14.00">&gt; 2</text>
</g>
<!-- 15 -->
<g id="node17" class="node">
<title>15</title>
<polygon fill="#3dccba" stroke="black" points="1075.97,-189.07 911.97,-189.07 911.97,-125.07 1075.97,-125.07 1075.97,-189.07"/>
<text text-anchor="start" x="933.47" y="-174.87" font-family="Helvetica,sans-Serif" font-weight="bold" font-size="14.00"> Class=benign </text>
<text text-anchor="start" x="1049.47" y="-174.87" font-family="Helvetica,sans-Serif" font-size="14.00"> </text>
<text text-anchor="start" x="919.97" y="-160.87" font-family="Helvetica,sans-Serif" font-size="14.00"> error: 0.271, n=699 </text>
<text text-anchor="start" x="938.97" y="-146.87" font-family="Helvetica,sans-Serif" font-size="14.00"> p: (0.95, 0.05) </text>
<text text-anchor="start" x="919.97" y="-132.87" font-family="Helvetica,sans-Serif" font-weight="bold" font-size="14.00">Marginal_Adhesion</text>
</g>
<!-- 14&#45;&gt;15 -->
<g id="edge16" class="edge">
<title>14:s&#45;&gt;15:n</title>
<path fill="none" stroke="black" d="M993.97,-245.78C993.97,-245.78 993.97,-216.37 993.97,-200.28"/>
<polygon fill="black" stroke="black" points="997.47,-200.07 993.97,-190.07 990.47,-200.07 997.47,-200.07"/>
<text text-anchor="middle" x="1012.97" y="-214.22" font-family="Helvetica,sans-Serif" font-size="14.00">&lt;= 5</text>
</g>
<!-- 18 -->
<g id="node19" class="node">
<title>18</title>
<polygon fill="#3dccba" stroke="black" points="1367.97,-189.07 1203.97,-189.07 1203.97,-125.07 1367.97,-125.07 1367.97,-189.07"/>
<text text-anchor="start" x="1212.47" y="-174.87" font-family="Helvetica,sans-Serif" font-weight="bold" font-size="14.00"> Class=malignant </text>
<text text-anchor="start" x="1354.47" y="-174.87" font-family="Helvetica,sans-Serif" font-size="14.00"> </text>
<text text-anchor="start" x="1211.97" y="-160.87" font-family="Helvetica,sans-Serif" font-size="14.00"> error: 0.459, n=699 </text>
<text text-anchor="start" x="1230.97" y="-146.87" font-family="Helvetica,sans-Serif" font-size="14.00"> p: (0.10, 0.90) </text>
<text text-anchor="start" x="1219.47" y="-132.87" font-family="Helvetica,sans-Serif" font-weight="bold" font-size="14.00">Clump_Thickness</text>
</g>
<!-- 17&#45;&gt;18 -->
<g id="edge18" class="edge">
<title>17:s&#45;&gt;18:n</title>
<path fill="none" stroke="black" d="M1263.97,-245.78C1263.97,-245.78 1275.96,-215.41 1282.23,-199.52"/>
<polygon fill="black" stroke="black" points="1285.55,-200.65 1285.97,-190.07 1279.04,-198.08 1285.55,-200.65"/>
<text text-anchor="middle" x="1290.97" y="-214.22" font-family="Helvetica,sans-Serif" font-size="14.00">&gt; 2</text>
</g>
<!-- 16 -->
<g id="node18" class="node">
<title>16</title>
<ellipse fill="#4485e5" stroke="black" cx="989.97" cy="-35.36" rx="115.93" ry="35.21"/>
<text text-anchor="start" x="929.47" y="-46.16" font-family="Helvetica,sans-Serif" font-weight="bold" font-size="14.00"> Class=benign </text>
<text text-anchor="start" x="1045.47" y="-46.16" font-family="Helvetica,sans-Serif" font-size="14.00"> </text>
<text text-anchor="start" x="915.97" y="-32.16" font-family="Helvetica,sans-Serif" font-size="14.00"> error: 0.000, n=699 </text>
<text text-anchor="start" x="934.97" y="-18.16" font-family="Helvetica,sans-Serif" font-size="14.00"> p: (1.00, 0.00) </text>
</g>
<!-- 15&#45;&gt;16 -->
<g id="edge17" class="edge">
<title>15:s&#45;&gt;16:n</title>
<path fill="none" stroke="black" d="M993.97,-124.07C993.97,-124.07 991.9,-96.5 990.74,-81"/>
<polygon fill="black" stroke="black" points="994.2,-80.42 989.97,-70.71 987.22,-80.94 994.2,-80.42"/>
<text text-anchor="middle" x="1011.97" y="-92.51" font-family="Helvetica,sans-Serif" font-size="14.00">&lt;= 2</text>
</g>
<!-- 19 -->
<g id="node20" class="node">
<title>19</title>
<ellipse fill="#4485e5" stroke="black" cx="1293.97" cy="-35.36" rx="115.93" ry="35.21"/>
<text text-anchor="start" x="1220.47" y="-46.16" font-family="Helvetica,sans-Serif" font-weight="bold" font-size="14.00"> Class=malignant </text>
<text text-anchor="start" x="1362.47" y="-46.16" font-family="Helvetica,sans-Serif" font-size="14.00"> </text>
<text text-anchor="start" x="1219.97" y="-32.16" font-family="Helvetica,sans-Serif" font-size="14.00"> error: 0.650, n=699 </text>
<text text-anchor="start" x="1238.97" y="-18.16" font-family="Helvetica,sans-Serif" font-size="14.00"> p: (0.17, 0.83) </text>
</g>
<!-- 18&#45;&gt;19 -->
<g id="edge19" class="edge">
<title>18:s&#45;&gt;19:n</title>
<path fill="none" stroke="black" d="M1285.97,-124.07C1285.97,-124.07 1290.1,-96.5 1292.42,-81"/>
<polygon fill="black" stroke="black" points="1295.94,-81.12 1293.97,-70.71 1289.02,-80.08 1295.94,-81.12"/>
<text text-anchor="middle" x="1310.97" y="-92.51" font-family="Helvetica,sans-Serif" font-size="14.00">&lt;= 6</text>
</g>
</g>
</svg>
