<?xml version="1.0" encoding="UTF-8" standalone="no"?>
<!DOCTYPE svg PUBLIC "-//W3C//DTD SVG 1.1//EN"
 "http://www.w3.org/Graphics/SVG/1.1/DTD/svg11.dtd">
<!-- Generated by graphviz version 2.43.0 (0)
 -->
<!-- Title: Tree Pages: 1 -->
<svg width="3660pt" height="761pt"
 viewBox="0.00 0.00 3660.17 761.42" xmlns="http://www.w3.org/2000/svg" xmlns:xlink="http://www.w3.org/1999/xlink">
<g id="graph0" class="graph" transform="scale(1 1) rotate(0) translate(18 743.42)">
<title>Tree</title>
<polygon fill="white" stroke="transparent" points="-18,18 -18,-743.42 3642.17,-743.42 3642.17,18 -18,18"/>
<!-- 0 -->
<g id="node1" class="node">
<title>0</title>
<polygon fill="white" stroke="transparent" points="2560.09,-725.42 2506.09,-725.42 2506.09,-689.42 2560.09,-689.42 2560.09,-725.42"/>
<text text-anchor="middle" x="2533.09" y="-703.72" font-family="Helvetica,sans-Serif" font-size="14.00">0</text>
</g>
<!-- 1 -->
<g id="node2" class="node">
<title>1</title>
<polygon fill="#cc3d3d" stroke="black" points="2661.09,-652.42 2405.09,-652.42 2405.09,-588.42 2661.09,-588.42 2661.09,-652.42"/>
<text text-anchor="start" x="2494.09" y="-638.22" font-family="Helvetica,sans-Serif" font-weight="bold" font-size="14.00"> Class=1 </text>
<text text-anchor="start" x="2567.09" y="-638.22" font-family="Helvetica,sans-Serif" font-size="14.00"> </text>
<text text-anchor="start" x="2454.59" y="-624.22" font-family="Helvetica,sans-Serif" font-size="14.00"> error: 0.971, n=1473 </text>
<text text-anchor="start" x="2457.59" y="-610.22" font-family="Helvetica,sans-Serif" font-size="14.00"> p: (0.43, 0.23, 0.35) </text>
<text text-anchor="start" x="2413.09" y="-596.22" font-family="Helvetica,sans-Serif" font-weight="bold" font-size="14.00">Number_of_children_ever_born</text>
</g>
<!-- 0&#45;&gt;1 -->
<!-- 2 -->
<g id="node3" class="node">
<title>2</title>
<polygon fill="#e5b844" stroke="black" points="2499.59,-537.42 2326.59,-537.42 2326.59,-473.42 2499.59,-473.42 2499.59,-537.42"/>
<text text-anchor="start" x="2374.09" y="-523.22" font-family="Helvetica,sans-Serif" font-weight="bold" font-size="14.00"> Class=1 </text>
<text text-anchor="start" x="2447.09" y="-523.22" font-family="Helvetica,sans-Serif" font-size="14.00"> </text>
<text text-anchor="start" x="2334.59" y="-509.22" font-family="Helvetica,sans-Serif" font-size="14.00"> error: 0.982, n=1376 </text>
<text text-anchor="start" x="2337.59" y="-495.22" font-family="Helvetica,sans-Serif" font-size="14.00"> p: (0.39, 0.24, 0.37) </text>
<text text-anchor="start" x="2348.09" y="-481.22" font-family="Helvetica,sans-Serif" font-weight="bold" font-size="14.00">Wifes_education</text>
</g>
<!-- 1&#45;&gt;2 -->
<g id="edge2" class="edge">
<title>1:s&#45;&gt;2:n</title>
<path fill="none" stroke="black" d="M2533.09,-588.42C2533.09,-588.42 2450.79,-553.45 2422.5,-541.42"/>
<polygon fill="black" stroke="black" points="2423.66,-538.11 2413.09,-537.42 2420.92,-544.55 2423.66,-538.11"/>
<text text-anchor="middle" x="2501.09" y="-559.22" font-family="Helvetica,sans-Serif" font-size="14.00">&gt; 0</text>
</g>
<!-- 28 -->
<g id="node4" class="node">
<title>28</title>
<polygon fill="#e5b844" stroke="black" points="2918.59,-537.42 2751.59,-537.42 2751.59,-473.42 2918.59,-473.42 2918.59,-537.42"/>
<text text-anchor="start" x="2796.09" y="-523.22" font-family="Helvetica,sans-Serif" font-weight="bold" font-size="14.00"> Class=1 </text>
<text text-anchor="start" x="2869.09" y="-523.22" font-family="Helvetica,sans-Serif" font-size="14.00"> </text>
<text text-anchor="start" x="2765.59" y="-509.22" font-family="Helvetica,sans-Serif" font-size="14.00"> error: 0.091, n=97 </text>
<text text-anchor="start" x="2759.59" y="-495.22" font-family="Helvetica,sans-Serif" font-size="14.00"> p: (0.98, 0.00, 0.02) </text>
<text text-anchor="start" x="2794.59" y="-481.22" font-family="Helvetica,sans-Serif" font-weight="bold" font-size="14.00">Wifes_age</text>
</g>
<!-- 1&#45;&gt;28 -->
<g id="edge3" class="edge">
<title>1:s&#45;&gt;28:n</title>
<path fill="none" stroke="black" d="M2533.09,-588.42C2533.09,-588.42 2772.64,-547.97 2825.04,-539.12"/>
<polygon fill="black" stroke="black" points="2825.81,-542.54 2835.09,-537.42 2824.64,-535.64 2825.81,-542.54"/>
<text text-anchor="middle" x="2739.09" y="-559.22" font-family="Helvetica,sans-Serif" font-size="14.00">&lt;= 0</text>
</g>
<!-- 3 -->
<g id="node5" class="node">
<title>3</title>
<polygon fill="#8dcc3d" stroke="black" points="1632.09,-422.42 1376.09,-422.42 1376.09,-358.42 1632.09,-358.42 1632.09,-422.42"/>
<text text-anchor="start" x="1465.09" y="-408.22" font-family="Helvetica,sans-Serif" font-weight="bold" font-size="14.00"> Class=2 </text>
<text text-anchor="start" x="1538.09" y="-408.22" font-family="Helvetica,sans-Serif" font-size="14.00"> </text>
<text text-anchor="start" x="1430.09" y="-394.22" font-family="Helvetica,sans-Serif" font-size="14.00"> error: 0.987, n=541 </text>
<text text-anchor="start" x="1428.59" y="-380.22" font-family="Helvetica,sans-Serif" font-size="14.00"> p: (0.26, 0.38, 0.36) </text>
<text text-anchor="start" x="1384.09" y="-366.22" font-family="Helvetica,sans-Serif" font-weight="bold" font-size="14.00">Number_of_children_ever_born</text>
</g>
<!-- 2&#45;&gt;3 -->
<g id="edge4" class="edge">
<title>2:s&#45;&gt;3:n</title>
<path fill="none" stroke="black" d="M2413.09,-473.42C2413.09,-473.42 1614.16,-428.6 1514.3,-422.99"/>
<polygon fill="black" stroke="black" points="1514.27,-419.49 1504.09,-422.42 1513.88,-426.48 1514.27,-419.49"/>
<text text-anchor="middle" x="2080.09" y="-444.22" font-family="Helvetica,sans-Serif" font-size="14.00">&gt; 3</text>
</g>
<!-- 15 -->
<g id="node6" class="node">
<title>15</title>
<polygon fill="#8dcc3d" stroke="black" points="2496.59,-422.42 2329.59,-422.42 2329.59,-358.42 2496.59,-358.42 2496.59,-422.42"/>
<text text-anchor="start" x="2374.09" y="-408.22" font-family="Helvetica,sans-Serif" font-weight="bold" font-size="14.00"> Class=1 </text>
<text text-anchor="start" x="2447.09" y="-408.22" font-family="Helvetica,sans-Serif" font-size="14.00"> </text>
<text text-anchor="start" x="2339.09" y="-394.22" font-family="Helvetica,sans-Serif" font-size="14.00"> error: 0.917, n=835 </text>
<text text-anchor="start" x="2337.59" y="-380.22" font-family="Helvetica,sans-Serif" font-size="14.00"> p: (0.47, 0.15, 0.38) </text>
<text text-anchor="start" x="2372.59" y="-366.22" font-family="Helvetica,sans-Serif" font-weight="bold" font-size="14.00">Wifes_age</text>
</g>
<!-- 2&#45;&gt;15 -->
<g id="edge5" class="edge">
<title>2:s&#45;&gt;15:n</title>
<path fill="none" stroke="black" d="M2413.09,-473.42C2413.09,-473.42 2413.09,-447.64 2413.09,-432.74"/>
<polygon fill="black" stroke="black" points="2416.59,-432.42 2413.09,-422.42 2409.59,-432.42 2416.59,-432.42"/>
<text text-anchor="middle" x="2432.09" y="-444.22" font-family="Helvetica,sans-Serif" font-size="14.00">&lt;= 3</text>
</g>
<!-- 29 -->
<g id="node30" class="node">
<title>29</title>
<polygon fill="#8dcc3d" stroke="black" points="2968.59,-422.42 2781.59,-422.42 2781.59,-358.42 2968.59,-358.42 2968.59,-422.42"/>
<text text-anchor="start" x="2836.09" y="-408.22" font-family="Helvetica,sans-Serif" font-weight="bold" font-size="14.00"> Class=1 </text>
<text text-anchor="start" x="2909.09" y="-408.22" font-family="Helvetica,sans-Serif" font-size="14.00"> </text>
<text text-anchor="start" x="2805.59" y="-394.22" font-family="Helvetica,sans-Serif" font-size="14.00"> error: 0.053, n=96 </text>
<text text-anchor="start" x="2799.59" y="-380.22" font-family="Helvetica,sans-Serif" font-size="14.00"> p: (0.99, 0.00, 0.01) </text>
<text text-anchor="start" x="2789.59" y="-366.22" font-family="Helvetica,sans-Serif" font-weight="bold" font-size="14.00">Husbands_occupation</text>
</g>
<!-- 28&#45;&gt;29 -->
<g id="edge29" class="edge">
<title>28:s&#45;&gt;29:n</title>
<path fill="none" stroke="black" d="M2835.09,-473.42C2835.09,-473.42 2857.59,-444.73 2868.84,-430.39"/>
<polygon fill="black" stroke="black" points="2871.67,-432.45 2875.09,-422.42 2866.16,-428.13 2871.67,-432.45"/>
<text text-anchor="middle" x="2877.59" y="-444.22" font-family="Helvetica,sans-Serif" font-size="14.00">&gt; 17</text>
</g>
<!-- 4 -->
<g id="node7" class="node">
<title>4</title>
<polygon fill="#44e55e" stroke="black" points="999.59,-304.07 832.59,-304.07 832.59,-240.07 999.59,-240.07 999.59,-304.07"/>
<text text-anchor="start" x="877.09" y="-289.87" font-family="Helvetica,sans-Serif" font-weight="bold" font-size="14.00"> Class=2 </text>
<text text-anchor="start" x="950.09" y="-289.87" font-family="Helvetica,sans-Serif" font-size="14.00"> </text>
<text text-anchor="start" x="842.09" y="-275.87" font-family="Helvetica,sans-Serif" font-size="14.00"> error: 0.935, n=298 </text>
<text text-anchor="start" x="840.59" y="-261.87" font-family="Helvetica,sans-Serif" font-size="14.00"> p: (0.18, 0.48, 0.34) </text>
<text text-anchor="start" x="875.59" y="-247.87" font-family="Helvetica,sans-Serif" font-weight="bold" font-size="14.00">Wifes_age</text>
</g>
<!-- 3&#45;&gt;4 -->
<g id="edge6" class="edge">
<title>3:s&#45;&gt;4:n</title>
<path fill="none" stroke="black" d="M1504.09,-358.42C1504.09,-358.42 1004.37,-313.08 926.29,-305.99"/>
<polygon fill="black" stroke="black" points="926.36,-302.48 916.09,-305.07 925.73,-309.46 926.36,-302.48"/>
<text text-anchor="middle" x="1311.09" y="-329.22" font-family="Helvetica,sans-Serif" font-size="14.00">&gt; 2</text>
</g>
<!-- 11 -->
<g id="node8" class="node">
<title>11</title>
<polygon fill="#44e55e" stroke="black" points="1587.59,-304.07 1420.59,-304.07 1420.59,-240.07 1587.59,-240.07 1587.59,-304.07"/>
<text text-anchor="start" x="1465.09" y="-289.87" font-family="Helvetica,sans-Serif" font-weight="bold" font-size="14.00"> Class=3 </text>
<text text-anchor="start" x="1538.09" y="-289.87" font-family="Helvetica,sans-Serif" font-size="14.00"> </text>
<text text-anchor="start" x="1430.09" y="-275.87" font-family="Helvetica,sans-Serif" font-size="14.00"> error: 0.987, n=243 </text>
<text text-anchor="start" x="1428.59" y="-261.87" font-family="Helvetica,sans-Serif" font-size="14.00"> p: (0.35, 0.26, 0.39) </text>
<text text-anchor="start" x="1463.59" y="-247.87" font-family="Helvetica,sans-Serif" font-weight="bold" font-size="14.00">Wifes_age</text>
</g>
<!-- 3&#45;&gt;11 -->
<g id="edge7" class="edge">
<title>3:s&#45;&gt;11:n</title>
<path fill="none" stroke="black" d="M1504.09,-358.42C1504.09,-358.42 1504.09,-330.86 1504.09,-315.35"/>
<polygon fill="black" stroke="black" points="1507.59,-315.07 1504.09,-305.07 1500.59,-315.07 1507.59,-315.07"/>
<text text-anchor="middle" x="1523.09" y="-329.22" font-family="Helvetica,sans-Serif" font-size="14.00">&lt;= 2</text>
</g>
<!-- 16 -->
<g id="node18" class="node">
<title>16</title>
<polygon fill="#44e55e" stroke="black" points="2357.59,-304.07 2190.59,-304.07 2190.59,-240.07 2357.59,-240.07 2357.59,-304.07"/>
<text text-anchor="start" x="2235.09" y="-289.87" font-family="Helvetica,sans-Serif" font-weight="bold" font-size="14.00"> Class=1 </text>
<text text-anchor="start" x="2308.09" y="-289.87" font-family="Helvetica,sans-Serif" font-size="14.00"> </text>
<text text-anchor="start" x="2200.09" y="-275.87" font-family="Helvetica,sans-Serif" font-size="14.00"> error: 0.688, n=158 </text>
<text text-anchor="start" x="2198.59" y="-261.87" font-family="Helvetica,sans-Serif" font-size="14.00"> p: (0.73, 0.16, 0.10) </text>
<text text-anchor="start" x="2209.09" y="-247.87" font-family="Helvetica,sans-Serif" font-weight="bold" font-size="14.00">Wifes_education</text>
</g>
<!-- 15&#45;&gt;16 -->
<g id="edge17" class="edge">
<title>15:s&#45;&gt;16:n</title>
<path fill="none" stroke="black" d="M2413.09,-358.42C2413.09,-358.42 2315.04,-320.79 2283.64,-308.73"/>
<polygon fill="black" stroke="black" points="2284.68,-305.38 2274.09,-305.07 2282.17,-311.92 2284.68,-305.38"/>
<text text-anchor="middle" x="2376.59" y="-329.22" font-family="Helvetica,sans-Serif" font-size="14.00">&gt; 41</text>
</g>
<!-- 21 -->
<g id="node19" class="node">
<title>21</title>
<polygon fill="#44e55e" stroke="black" points="2698.09,-304.07 2442.09,-304.07 2442.09,-240.07 2698.09,-240.07 2698.09,-304.07"/>
<text text-anchor="start" x="2531.09" y="-289.87" font-family="Helvetica,sans-Serif" font-weight="bold" font-size="14.00"> Class=3 </text>
<text text-anchor="start" x="2604.09" y="-289.87" font-family="Helvetica,sans-Serif" font-size="14.00"> </text>
<text text-anchor="start" x="2496.09" y="-275.87" font-family="Helvetica,sans-Serif" font-size="14.00"> error: 0.918, n=677 </text>
<text text-anchor="start" x="2494.59" y="-261.87" font-family="Helvetica,sans-Serif" font-size="14.00"> p: (0.41, 0.15, 0.44) </text>
<text text-anchor="start" x="2450.09" y="-247.87" font-family="Helvetica,sans-Serif" font-weight="bold" font-size="14.00">Number_of_children_ever_born</text>
</g>
<!-- 15&#45;&gt;21 -->
<g id="edge18" class="edge">
<title>15:s&#45;&gt;21:n</title>
<path fill="none" stroke="black" d="M2413.09,-358.42C2413.09,-358.42 2525.89,-320.08 2560.27,-308.4"/>
<polygon fill="black" stroke="black" points="2561.74,-311.6 2570.09,-305.07 2559.49,-304.97 2561.74,-311.6"/>
<text text-anchor="middle" x="2529.59" y="-329.22" font-family="Helvetica,sans-Serif" font-size="14.00">&lt;= 41</text>
</g>
<!-- 5 -->
<g id="node9" class="node">
<title>5</title>
<polygon fill="#3dccba" stroke="black" points="509.59,-185.71 342.59,-185.71 342.59,-121.71 509.59,-121.71 509.59,-185.71"/>
<text text-anchor="start" x="387.09" y="-171.51" font-family="Helvetica,sans-Serif" font-weight="bold" font-size="14.00"> Class=2 </text>
<text text-anchor="start" x="460.09" y="-171.51" font-family="Helvetica,sans-Serif" font-size="14.00"> </text>
<text text-anchor="start" x="352.09" y="-157.51" font-family="Helvetica,sans-Serif" font-size="14.00"> error: 0.894, n=214 </text>
<text text-anchor="start" x="350.59" y="-143.51" font-family="Helvetica,sans-Serif" font-size="14.00"> p: (0.16, 0.55, 0.29) </text>
<text text-anchor="start" x="385.59" y="-129.51" font-family="Helvetica,sans-Serif" font-weight="bold" font-size="14.00">Wifes_age</text>
</g>
<!-- 4&#45;&gt;5 -->
<g id="edge8" class="edge">
<title>4:s&#45;&gt;5:n</title>
<path fill="none" stroke="black" d="M916.09,-239.07C916.09,-239.07 506.69,-194.49 436.32,-186.83"/>
<polygon fill="black" stroke="black" points="436.41,-183.31 426.09,-185.71 435.65,-190.27 436.41,-183.31"/>
<text text-anchor="middle" x="732.59" y="-207.51" font-family="Helvetica,sans-Serif" font-size="14.00">&gt; 33</text>
</g>
<!-- 8 -->
<g id="node10" class="node">
<title>8</title>
<polygon fill="#3dccba" stroke="black" points="999.59,-185.71 832.59,-185.71 832.59,-121.71 999.59,-121.71 999.59,-185.71"/>
<text text-anchor="start" x="877.09" y="-171.51" font-family="Helvetica,sans-Serif" font-weight="bold" font-size="14.00"> Class=3 </text>
<text text-anchor="start" x="950.09" y="-171.51" font-family="Helvetica,sans-Serif" font-size="14.00"> </text>
<text text-anchor="start" x="846.59" y="-157.51" font-family="Helvetica,sans-Serif" font-size="14.00"> error: 0.961, n=84 </text>
<text text-anchor="start" x="840.59" y="-143.51" font-family="Helvetica,sans-Serif" font-size="14.00"> p: (0.23, 0.31, 0.46) </text>
<text text-anchor="start" x="875.59" y="-129.51" font-family="Helvetica,sans-Serif" font-weight="bold" font-size="14.00">Wifes_age</text>
</g>
<!-- 4&#45;&gt;8 -->
<g id="edge9" class="edge">
<title>4:s&#45;&gt;8:n</title>
<path fill="none" stroke="black" d="M916.09,-239.07C916.09,-239.07 916.09,-211.5 916.09,-196"/>
<polygon fill="black" stroke="black" points="919.59,-195.71 916.09,-185.71 912.59,-195.71 919.59,-195.71"/>
<text text-anchor="middle" x="939.59" y="-207.51" font-family="Helvetica,sans-Serif" font-size="14.00">&lt;= 33</text>
</g>
<!-- 12 -->
<g id="node15" class="node">
<title>12</title>
<polygon fill="#3dccba" stroke="black" points="1597.59,-185.71 1410.59,-185.71 1410.59,-121.71 1597.59,-121.71 1597.59,-185.71"/>
<text text-anchor="start" x="1465.09" y="-171.51" font-family="Helvetica,sans-Serif" font-weight="bold" font-size="14.00"> Class=3 </text>
<text text-anchor="start" x="1538.09" y="-171.51" font-family="Helvetica,sans-Serif" font-size="14.00"> </text>
<text text-anchor="start" x="1430.09" y="-157.51" font-family="Helvetica,sans-Serif" font-size="14.00"> error: 0.986, n=230 </text>
<text text-anchor="start" x="1428.59" y="-143.51" font-family="Helvetica,sans-Serif" font-size="14.00"> p: (0.32, 0.27, 0.41) </text>
<text text-anchor="start" x="1418.59" y="-129.51" font-family="Helvetica,sans-Serif" font-weight="bold" font-size="14.00">Husbands_occupation</text>
</g>
<!-- 11&#45;&gt;12 -->
<g id="edge14" class="edge">
<title>11:s&#45;&gt;12:n</title>
<path fill="none" stroke="black" d="M1504.09,-239.07C1504.09,-239.07 1504.09,-211.5 1504.09,-196"/>
<polygon fill="black" stroke="black" points="1507.59,-195.71 1504.09,-185.71 1500.59,-195.71 1507.59,-195.71"/>
<text text-anchor="middle" x="1527.59" y="-207.51" font-family="Helvetica,sans-Serif" font-size="14.00">&lt;= 44</text>
</g>
<!-- 6 -->
<g id="node11" class="node">
<title>6</title>
<ellipse fill="#4485e5" stroke="black" cx="118.09" cy="-35.36" rx="118.17" ry="35.21"/>
<text text-anchor="start" x="79.09" y="-46.16" font-family="Helvetica,sans-Serif" font-weight="bold" font-size="14.00"> Class=2 </text>
<text text-anchor="start" x="152.09" y="-46.16" font-family="Helvetica,sans-Serif" font-size="14.00"> </text>
<text text-anchor="start" x="48.59" y="-32.16" font-family="Helvetica,sans-Serif" font-size="14.00"> error: 0.967, n=73 </text>
<text text-anchor="start" x="42.59" y="-18.16" font-family="Helvetica,sans-Serif" font-size="14.00"> p: (0.32, 0.45, 0.23) </text>
</g>
<!-- 5&#45;&gt;6 -->
<g id="edge10" class="edge">
<title>5:s&#45;&gt;6:n</title>
<path fill="none" stroke="black" d="M426.09,-121.71C426.09,-121.71 180.7,-81.08 127.99,-72.35"/>
<polygon fill="black" stroke="black" points="128.52,-68.89 118.09,-70.71 127.38,-75.8 128.52,-68.89"/>
<text text-anchor="middle" x="326.59" y="-92.51" font-family="Helvetica,sans-Serif" font-size="14.00">&gt; 42</text>
</g>
<!-- 7 -->
<g id="node12" class="node">
<title>7</title>
<ellipse fill="#4485e5" stroke="black" cx="426.09" cy="-35.36" rx="118.17" ry="35.21"/>
<text text-anchor="start" x="387.09" y="-46.16" font-family="Helvetica,sans-Serif" font-weight="bold" font-size="14.00"> Class=2 </text>
<text text-anchor="start" x="460.09" y="-46.16" font-family="Helvetica,sans-Serif" font-size="14.00"> </text>
<text text-anchor="start" x="352.09" y="-32.16" font-family="Helvetica,sans-Serif" font-size="14.00"> error: 0.799, n=141 </text>
<text text-anchor="start" x="350.59" y="-18.16" font-family="Helvetica,sans-Serif" font-size="14.00"> p: (0.09, 0.60, 0.31) </text>
</g>
<!-- 5&#45;&gt;7 -->
<g id="edge11" class="edge">
<title>5:s&#45;&gt;7:n</title>
<path fill="none" stroke="black" d="M426.09,-121.71C426.09,-121.71 426.09,-95.93 426.09,-81.03"/>
<polygon fill="black" stroke="black" points="429.59,-80.71 426.09,-70.71 422.59,-80.71 429.59,-80.71"/>
<text text-anchor="middle" x="449.59" y="-92.51" font-family="Helvetica,sans-Serif" font-size="14.00">&lt;= 42</text>
</g>
<!-- 9 -->
<g id="node13" class="node">
<title>9</title>
<ellipse fill="#4485e5" stroke="black" cx="734.09" cy="-35.36" rx="118.17" ry="35.21"/>
<text text-anchor="start" x="695.09" y="-46.16" font-family="Helvetica,sans-Serif" font-weight="bold" font-size="14.00"> Class=3 </text>
<text text-anchor="start" x="768.09" y="-46.16" font-family="Helvetica,sans-Serif" font-size="14.00"> </text>
<text text-anchor="start" x="664.59" y="-32.16" font-family="Helvetica,sans-Serif" font-size="14.00"> error: 0.933, n=55 </text>
<text text-anchor="start" x="658.59" y="-18.16" font-family="Helvetica,sans-Serif" font-size="14.00"> p: (0.16, 0.40, 0.44) </text>
</g>
<!-- 8&#45;&gt;9 -->
<g id="edge12" class="edge">
<title>8:s&#45;&gt;9:n</title>
<path fill="none" stroke="black" d="M916.09,-121.71C916.09,-121.71 781.68,-84.05 743.87,-73.45"/>
<polygon fill="black" stroke="black" points="744.66,-70.04 734.09,-70.71 742.77,-76.78 744.66,-70.04"/>
<text text-anchor="middle" x="864.59" y="-92.51" font-family="Helvetica,sans-Serif" font-size="14.00">&gt; 28</text>
</g>
<!-- 10 -->
<g id="node14" class="node">
<title>10</title>
<ellipse fill="#4485e5" stroke="black" cx="1042.09" cy="-35.36" rx="118.17" ry="35.21"/>
<text text-anchor="start" x="1003.09" y="-46.16" font-family="Helvetica,sans-Serif" font-weight="bold" font-size="14.00"> Class=3 </text>
<text text-anchor="start" x="1076.09" y="-46.16" font-family="Helvetica,sans-Serif" font-size="14.00"> </text>
<text text-anchor="start" x="972.59" y="-32.16" font-family="Helvetica,sans-Serif" font-size="14.00"> error: 0.893, n=29 </text>
<text text-anchor="start" x="966.59" y="-18.16" font-family="Helvetica,sans-Serif" font-size="14.00"> p: (0.34, 0.14, 0.52) </text>
</g>
<!-- 8&#45;&gt;10 -->
<g id="edge13" class="edge">
<title>8:s&#45;&gt;10:n</title>
<path fill="none" stroke="black" d="M916.09,-121.71C916.09,-121.71 1003.31,-86.4 1032.62,-74.54"/>
<polygon fill="black" stroke="black" points="1034.13,-77.71 1042.09,-70.71 1031.5,-71.22 1034.13,-77.71"/>
<text text-anchor="middle" x="1017.59" y="-92.51" font-family="Helvetica,sans-Serif" font-size="14.00">&lt;= 28</text>
</g>
<!-- 13 -->
<g id="node16" class="node">
<title>13</title>
<ellipse fill="#4485e5" stroke="black" cx="1350.09" cy="-35.36" rx="118.17" ry="35.21"/>
<text text-anchor="start" x="1311.09" y="-46.16" font-family="Helvetica,sans-Serif" font-weight="bold" font-size="14.00"> Class=3 </text>
<text text-anchor="start" x="1384.09" y="-46.16" font-family="Helvetica,sans-Serif" font-size="14.00"> </text>
<text text-anchor="start" x="1276.09" y="-32.16" font-family="Helvetica,sans-Serif" font-size="14.00"> error: 0.927, n=110 </text>
<text text-anchor="start" x="1274.59" y="-18.16" font-family="Helvetica,sans-Serif" font-size="14.00"> p: (0.25, 0.22, 0.53) </text>
</g>
<!-- 12&#45;&gt;13 -->
<g id="edge15" class="edge">
<title>12:s&#45;&gt;13:n</title>
<path fill="none" stroke="black" d="M1504.09,-121.71C1504.09,-121.71 1393.43,-85.07 1359.72,-73.9"/>
<polygon fill="black" stroke="black" points="1360.68,-70.53 1350.09,-70.71 1358.48,-77.18 1360.68,-70.53"/>
<text text-anchor="middle" x="1459.09" y="-92.51" font-family="Helvetica,sans-Serif" font-size="14.00">&gt; 1</text>
</g>
<!-- 14 -->
<g id="node17" class="node">
<title>14</title>
<ellipse fill="#4485e5" stroke="black" cx="1658.09" cy="-35.36" rx="118.17" ry="35.21"/>
<text text-anchor="start" x="1619.09" y="-46.16" font-family="Helvetica,sans-Serif" font-weight="bold" font-size="14.00"> Class=1 </text>
<text text-anchor="start" x="1692.09" y="-46.16" font-family="Helvetica,sans-Serif" font-size="14.00"> </text>
<text text-anchor="start" x="1584.09" y="-32.16" font-family="Helvetica,sans-Serif" font-size="14.00"> error: 0.996, n=120 </text>
<text text-anchor="start" x="1582.59" y="-18.16" font-family="Helvetica,sans-Serif" font-size="14.00"> p: (0.38, 0.32, 0.31) </text>
</g>
<!-- 12&#45;&gt;14 -->
<g id="edge16" class="edge">
<title>12:s&#45;&gt;14:n</title>
<path fill="none" stroke="black" d="M1504.09,-121.71C1504.09,-121.71 1614.74,-85.07 1648.45,-73.9"/>
<polygon fill="black" stroke="black" points="1649.69,-77.18 1658.09,-70.71 1647.49,-70.53 1649.69,-77.18"/>
<text text-anchor="middle" x="1619.09" y="-92.51" font-family="Helvetica,sans-Serif" font-size="14.00">&lt;= 1</text>
</g>
<!-- 17 -->
<g id="node20" class="node">
<title>17</title>
<polygon fill="#3dccba" stroke="black" points="2084.59,-185.71 1881.59,-185.71 1881.59,-121.71 2084.59,-121.71 2084.59,-185.71"/>
<text text-anchor="start" x="1944.09" y="-171.51" font-family="Helvetica,sans-Serif" font-weight="bold" font-size="14.00"> Class=1 </text>
<text text-anchor="start" x="2017.09" y="-171.51" font-family="Helvetica,sans-Serif" font-size="14.00"> </text>
<text text-anchor="start" x="1913.59" y="-157.51" font-family="Helvetica,sans-Serif" font-size="14.00"> error: 0.816, n=96 </text>
<text text-anchor="start" x="1907.59" y="-143.51" font-family="Helvetica,sans-Serif" font-size="14.00"> p: (0.64, 0.23, 0.14) </text>
<text text-anchor="start" x="1889.59" y="-129.51" font-family="Helvetica,sans-Serif" font-weight="bold" font-size="14.00">Wifes_now_working%3F</text>
</g>
<!-- 16&#45;&gt;17 -->
<g id="edge19" class="edge">
<title>16:s&#45;&gt;17:n</title>
<path fill="none" stroke="black" d="M2274.09,-239.07C2274.09,-239.07 2044.27,-196.93 1993.1,-187.55"/>
<polygon fill="black" stroke="black" points="1993.55,-184.07 1983.09,-185.71 1992.29,-190.96 1993.55,-184.07"/>
<text text-anchor="middle" x="2168.09" y="-207.51" font-family="Helvetica,sans-Serif" font-size="14.00">&gt; 1</text>
</g>
<!-- 19 -->
<g id="node21" class="node">
<title>19</title>
<polygon fill="#3dccba" stroke="black" points="2375.59,-185.71 2172.59,-185.71 2172.59,-121.71 2375.59,-121.71 2375.59,-185.71"/>
<text text-anchor="start" x="2235.09" y="-171.51" font-family="Helvetica,sans-Serif" font-weight="bold" font-size="14.00"> Class=1 </text>
<text text-anchor="start" x="2308.09" y="-171.51" font-family="Helvetica,sans-Serif" font-size="14.00"> </text>
<text text-anchor="start" x="2204.59" y="-157.51" font-family="Helvetica,sans-Serif" font-size="14.00"> error: 0.391, n=62 </text>
<text text-anchor="start" x="2198.59" y="-143.51" font-family="Helvetica,sans-Serif" font-size="14.00"> p: (0.89, 0.06, 0.05) </text>
<text text-anchor="start" x="2180.59" y="-129.51" font-family="Helvetica,sans-Serif" font-weight="bold" font-size="14.00">Wifes_now_working%3F</text>
</g>
<!-- 16&#45;&gt;19 -->
<g id="edge20" class="edge">
<title>16:s&#45;&gt;19:n</title>
<path fill="none" stroke="black" d="M2274.09,-239.07C2274.09,-239.07 2274.09,-211.5 2274.09,-196"/>
<polygon fill="black" stroke="black" points="2277.59,-195.71 2274.09,-185.71 2270.59,-195.71 2277.59,-195.71"/>
<text text-anchor="middle" x="2293.09" y="-207.51" font-family="Helvetica,sans-Serif" font-size="14.00">&lt;= 1</text>
</g>
<!-- 22 -->
<g id="node24" class="node">
<title>22</title>
<polygon fill="#3dccba" stroke="black" points="2665.59,-185.71 2498.59,-185.71 2498.59,-121.71 2665.59,-121.71 2665.59,-185.71"/>
<text text-anchor="start" x="2543.09" y="-171.51" font-family="Helvetica,sans-Serif" font-weight="bold" font-size="14.00"> Class=3 </text>
<text text-anchor="start" x="2616.09" y="-171.51" font-family="Helvetica,sans-Serif" font-size="14.00"> </text>
<text text-anchor="start" x="2508.09" y="-157.51" font-family="Helvetica,sans-Serif" font-size="14.00"> error: 0.914, n=398 </text>
<text text-anchor="start" x="2506.59" y="-143.51" font-family="Helvetica,sans-Serif" font-size="14.00"> p: (0.33, 0.16, 0.51) </text>
<text text-anchor="start" x="2541.59" y="-129.51" font-family="Helvetica,sans-Serif" font-weight="bold" font-size="14.00">Wifes_age</text>
</g>
<!-- 21&#45;&gt;22 -->
<g id="edge23" class="edge">
<title>21:s&#45;&gt;22:n</title>
<path fill="none" stroke="black" d="M2570.09,-239.07C2570.09,-239.07 2576.42,-210.9 2579.89,-195.5"/>
<polygon fill="black" stroke="black" points="2583.31,-196.23 2582.09,-185.71 2576.48,-194.7 2583.31,-196.23"/>
<text text-anchor="middle" x="2591.09" y="-207.51" font-family="Helvetica,sans-Serif" font-size="14.00">&gt; 2</text>
</g>
<!-- 25 -->
<g id="node25" class="node">
<title>25</title>
<polygon fill="#3dccba" stroke="black" points="3281.59,-185.71 3114.59,-185.71 3114.59,-121.71 3281.59,-121.71 3281.59,-185.71"/>
<text text-anchor="start" x="3159.09" y="-171.51" font-family="Helvetica,sans-Serif" font-weight="bold" font-size="14.00"> Class=1 </text>
<text text-anchor="start" x="3232.09" y="-171.51" font-family="Helvetica,sans-Serif" font-size="14.00"> </text>
<text text-anchor="start" x="3124.09" y="-157.51" font-family="Helvetica,sans-Serif" font-size="14.00"> error: 0.882, n=279 </text>
<text text-anchor="start" x="3122.59" y="-143.51" font-family="Helvetica,sans-Serif" font-size="14.00"> p: (0.53, 0.13, 0.34) </text>
<text text-anchor="start" x="3157.59" y="-129.51" font-family="Helvetica,sans-Serif" font-weight="bold" font-size="14.00">Wifes_age</text>
</g>
<!-- 21&#45;&gt;25 -->
<g id="edge24" class="edge">
<title>21:s&#45;&gt;25:n</title>
<path fill="none" stroke="black" d="M2570.09,-239.07C2570.09,-239.07 3107.19,-193.43 3187.97,-186.57"/>
<polygon fill="black" stroke="black" points="3188.42,-190.04 3198.09,-185.71 3187.83,-183.07 3188.42,-190.04"/>
<text text-anchor="middle" x="2995.09" y="-207.51" font-family="Helvetica,sans-Serif" font-size="14.00">&lt;= 2</text>
</g>
<!-- 18 -->
<g id="node22" class="node">
<title>18</title>
<ellipse fill="#4485e5" stroke="black" cx="1966.09" cy="-35.36" rx="118.17" ry="35.21"/>
<text text-anchor="start" x="1927.09" y="-46.16" font-family="Helvetica,sans-Serif" font-weight="bold" font-size="14.00"> Class=1 </text>
<text text-anchor="start" x="2000.09" y="-46.16" font-family="Helvetica,sans-Serif" font-size="14.00"> </text>
<text text-anchor="start" x="1896.59" y="-32.16" font-family="Helvetica,sans-Serif" font-size="14.00"> error: 0.757, n=73 </text>
<text text-anchor="start" x="1890.59" y="-18.16" font-family="Helvetica,sans-Serif" font-size="14.00"> p: (0.66, 0.26, 0.08) </text>
</g>
<!-- 17&#45;&gt;18 -->
<g id="edge21" class="edge">
<title>17:s&#45;&gt;18:n</title>
<path fill="none" stroke="black" d="M1983.09,-121.71C1983.09,-121.71 1974.3,-95.36 1969.36,-80.54"/>
<polygon fill="black" stroke="black" points="1972.57,-79.09 1966.09,-70.71 1965.93,-81.3 1972.57,-79.09"/>
<text text-anchor="middle" x="1990.09" y="-92.51" font-family="Helvetica,sans-Serif" font-size="14.00">&gt; 0</text>
</g>
<!-- 20 -->
<g id="node23" class="node">
<title>20</title>
<ellipse fill="#4485e5" stroke="black" cx="2274.09" cy="-35.36" rx="118.17" ry="35.21"/>
<text text-anchor="start" x="2235.09" y="-46.16" font-family="Helvetica,sans-Serif" font-weight="bold" font-size="14.00"> Class=1 </text>
<text text-anchor="start" x="2308.09" y="-46.16" font-family="Helvetica,sans-Serif" font-size="14.00"> </text>
<text text-anchor="start" x="2204.59" y="-32.16" font-family="Helvetica,sans-Serif" font-size="14.00"> error: 0.346, n=49 </text>
<text text-anchor="start" x="2198.59" y="-18.16" font-family="Helvetica,sans-Serif" font-size="14.00"> p: (0.90, 0.08, 0.02) </text>
</g>
<!-- 19&#45;&gt;20 -->
<g id="edge22" class="edge">
<title>19:s&#45;&gt;20:n</title>
<path fill="none" stroke="black" d="M2274.09,-121.71C2274.09,-121.71 2274.09,-95.93 2274.09,-81.03"/>
<polygon fill="black" stroke="black" points="2277.59,-80.71 2274.09,-70.71 2270.59,-80.71 2277.59,-80.71"/>
<text text-anchor="middle" x="2287.09" y="-92.51" font-family="Helvetica,sans-Serif" font-size="14.00">&gt; 0</text>
</g>
<!-- 23 -->
<g id="node26" class="node">
<title>23</title>
<ellipse fill="#4485e5" stroke="black" cx="2582.09" cy="-35.36" rx="118.17" ry="35.21"/>
<text text-anchor="start" x="2543.09" y="-46.16" font-family="Helvetica,sans-Serif" font-weight="bold" font-size="14.00"> Class=1 </text>
<text text-anchor="start" x="2616.09" y="-46.16" font-family="Helvetica,sans-Serif" font-size="14.00"> </text>
<text text-anchor="start" x="2508.09" y="-32.16" font-family="Helvetica,sans-Serif" font-size="14.00"> error: 0.957, n=157 </text>
<text text-anchor="start" x="2506.59" y="-18.16" font-family="Helvetica,sans-Serif" font-size="14.00"> p: (0.43, 0.20, 0.38) </text>
</g>
<!-- 22&#45;&gt;23 -->
<g id="edge25" class="edge">
<title>22:s&#45;&gt;23:n</title>
<path fill="none" stroke="black" d="M2582.09,-121.71C2582.09,-121.71 2582.09,-95.93 2582.09,-81.03"/>
<polygon fill="black" stroke="black" points="2585.59,-80.71 2582.09,-70.71 2578.59,-80.71 2585.59,-80.71"/>
<text text-anchor="middle" x="2599.59" y="-92.51" font-family="Helvetica,sans-Serif" font-size="14.00">&gt; 33</text>
</g>
<!-- 24 -->
<g id="node27" class="node">
<title>24</title>
<ellipse fill="#4485e5" stroke="black" cx="2890.09" cy="-35.36" rx="118.17" ry="35.21"/>
<text text-anchor="start" x="2851.09" y="-46.16" font-family="Helvetica,sans-Serif" font-weight="bold" font-size="14.00"> Class=3 </text>
<text text-anchor="start" x="2924.09" y="-46.16" font-family="Helvetica,sans-Serif" font-size="14.00"> </text>
<text text-anchor="start" x="2816.09" y="-32.16" font-family="Helvetica,sans-Serif" font-size="14.00"> error: 0.851, n=241 </text>
<text text-anchor="start" x="2814.59" y="-18.16" font-family="Helvetica,sans-Serif" font-size="14.00"> p: (0.27, 0.14, 0.59) </text>
</g>
<!-- 22&#45;&gt;24 -->
<g id="edge26" class="edge">
<title>22:s&#45;&gt;24:n</title>
<path fill="none" stroke="black" d="M2582.09,-121.71C2582.09,-121.71 2827.47,-81.08 2880.19,-72.35"/>
<polygon fill="black" stroke="black" points="2880.79,-75.8 2890.09,-70.71 2879.65,-68.89 2880.79,-75.8"/>
<text text-anchor="middle" x="2796.59" y="-92.51" font-family="Helvetica,sans-Serif" font-size="14.00">&lt;= 33</text>
</g>
<!-- 26 -->
<g id="node28" class="node">
<title>26</title>
<ellipse fill="#4485e5" stroke="black" cx="3198.09" cy="-35.36" rx="118.17" ry="35.21"/>
<text text-anchor="start" x="3159.09" y="-46.16" font-family="Helvetica,sans-Serif" font-weight="bold" font-size="14.00"> Class=1 </text>
<text text-anchor="start" x="3232.09" y="-46.16" font-family="Helvetica,sans-Serif" font-size="14.00"> </text>
<text text-anchor="start" x="3128.59" y="-32.16" font-family="Helvetica,sans-Serif" font-size="14.00"> error: 0.701, n=63 </text>
<text text-anchor="start" x="3122.59" y="-18.16" font-family="Helvetica,sans-Serif" font-size="14.00"> p: (0.73, 0.14, 0.13) </text>
</g>
<!-- 25&#45;&gt;26 -->
<g id="edge27" class="edge">
<title>25:s&#45;&gt;26:n</title>
<path fill="none" stroke="black" d="M3198.09,-121.71C3198.09,-121.71 3198.09,-95.93 3198.09,-81.03"/>
<polygon fill="black" stroke="black" points="3201.59,-80.71 3198.09,-70.71 3194.59,-80.71 3201.59,-80.71"/>
<text text-anchor="middle" x="3215.59" y="-92.51" font-family="Helvetica,sans-Serif" font-size="14.00">&gt; 29</text>
</g>
<!-- 27 -->
<g id="node29" class="node">
<title>27</title>
<ellipse fill="#4485e5" stroke="black" cx="3506.09" cy="-35.36" rx="118.17" ry="35.21"/>
<text text-anchor="start" x="3467.09" y="-46.16" font-family="Helvetica,sans-Serif" font-weight="bold" font-size="14.00"> Class=1 </text>
<text text-anchor="start" x="3540.09" y="-46.16" font-family="Helvetica,sans-Serif" font-size="14.00"> </text>
<text text-anchor="start" x="3432.09" y="-32.16" font-family="Helvetica,sans-Serif" font-size="14.00"> error: 0.893, n=216 </text>
<text text-anchor="start" x="3430.59" y="-18.16" font-family="Helvetica,sans-Serif" font-size="14.00"> p: (0.47, 0.12, 0.41) </text>
</g>
<!-- 25&#45;&gt;27 -->
<g id="edge28" class="edge">
<title>25:s&#45;&gt;27:n</title>
<path fill="none" stroke="black" d="M3198.09,-121.71C3198.09,-121.71 3443.47,-81.08 3496.19,-72.35"/>
<polygon fill="black" stroke="black" points="3496.79,-75.8 3506.09,-70.71 3495.65,-68.89 3496.79,-75.8"/>
<text text-anchor="middle" x="3411.59" y="-92.51" font-family="Helvetica,sans-Serif" font-size="14.00">&lt;= 29</text>
</g>
<!-- 30 -->
<g id="node31" class="node">
<title>30</title>
<ellipse fill="#44e55e" stroke="black" cx="2888.09" cy="-272.07" rx="118.17" ry="35.21"/>
<text text-anchor="start" x="2849.09" y="-282.87" font-family="Helvetica,sans-Serif" font-weight="bold" font-size="14.00"> Class=1 </text>
<text text-anchor="start" x="2922.09" y="-282.87" font-family="Helvetica,sans-Serif" font-size="14.00"> </text>
<text text-anchor="start" x="2818.59" y="-268.87" font-family="Helvetica,sans-Serif" font-size="14.00"> error: 0.000, n=92 </text>
<text text-anchor="start" x="2812.59" y="-254.87" font-family="Helvetica,sans-Serif" font-size="14.00"> p: (1.00, 0.00, 0.00) </text>
</g>
<!-- 29&#45;&gt;30 -->
<g id="edge30" class="edge">
<title>29:s&#45;&gt;30:n</title>
<path fill="none" stroke="black" d="M2875.09,-358.42C2875.09,-358.42 2881.8,-332.07 2885.58,-317.25"/>
<polygon fill="black" stroke="black" points="2889.01,-317.98 2888.09,-307.42 2882.23,-316.25 2889.01,-317.98"/>
<text text-anchor="middle" x="2903.09" y="-329.22" font-family="Helvetica,sans-Serif" font-size="14.00">&lt;= 3</text>
</g>
</g>
</svg>
