<?xml version="1.0" encoding="UTF-8" standalone="no"?>
<!DOCTYPE svg PUBLIC "-//W3C//DTD SVG 1.1//EN"
 "http://www.w3.org/Graphics/SVG/1.1/DTD/svg11.dtd">
<!-- Generated by graphviz version 2.43.0 (0)
 -->
<!-- Title: Tree Pages: 1 -->
<svg width="2745pt" height="416pt"
 viewBox="0.00 0.00 2744.66 416.42" xmlns="http://www.w3.org/2000/svg" xmlns:xlink="http://www.w3.org/1999/xlink">
<g id="graph0" class="graph" transform="scale(1 1) rotate(0) translate(18 398.42)">
<title>Tree</title>
<polygon fill="white" stroke="transparent" points="-18,18 -18,-398.42 2726.66,-398.42 2726.66,18 -18,18"/>
<!-- 0 -->
<g id="node1" class="node">
<title>0</title>
<polygon fill="white" stroke="transparent" points="1345.33,-380.42 1291.33,-380.42 1291.33,-344.42 1345.33,-344.42 1345.33,-380.42"/>
<text text-anchor="middle" x="1318.33" y="-358.72" font-family="Helvetica,sans-Serif" font-size="14.00">0</text>
</g>
<!-- 1 -->
<g id="node2" class="node">
<title>1</title>
<polygon fill="#cc3d3d" stroke="black" points="1446.33,-307.42 1190.33,-307.42 1190.33,-243.42 1446.33,-243.42 1446.33,-307.42"/>
<text text-anchor="start" x="1279.33" y="-293.22" font-family="Helvetica,sans-Serif" font-weight="bold" font-size="14.00"> Class=1 </text>
<text text-anchor="start" x="1352.33" y="-293.22" font-family="Helvetica,sans-Serif" font-size="14.00"> </text>
<text text-anchor="start" x="1239.83" y="-279.22" font-family="Helvetica,sans-Serif" font-size="14.00"> error: 0.971, n=1473 </text>
<text text-anchor="start" x="1242.83" y="-265.22" font-family="Helvetica,sans-Serif" font-size="14.00"> p: (0.43, 0.23, 0.35) </text>
<text text-anchor="start" x="1198.33" y="-251.22" font-family="Helvetica,sans-Serif" font-weight="bold" font-size="14.00">Number_of_children_ever_born</text>
</g>
<!-- 0&#45;&gt;1 -->
<!-- 2 -->
<g id="node3" class="node">
<title>2</title>
<ellipse fill="#64e544" stroke="black" cx="122.33" cy="-157.07" rx="122.16" ry="35.21"/>
<text text-anchor="start" x="83.33" y="-167.87" font-family="Helvetica,sans-Serif" font-weight="bold" font-size="14.00"> Class=3 </text>
<text text-anchor="start" x="156.33" y="-167.87" font-family="Helvetica,sans-Serif" font-size="14.00"> </text>
<text text-anchor="start" x="43.83" y="-153.87" font-family="Helvetica,sans-Serif" font-size="14.00"> error: 0.986, n=1473 </text>
<text text-anchor="start" x="46.83" y="-139.87" font-family="Helvetica,sans-Serif" font-size="14.00"> p: (0.33, 0.27, 0.41) </text>
</g>
<!-- 1&#45;&gt;2 -->
<g id="edge2" class="edge">
<title>1:s&#45;&gt;2:n</title>
<path fill="none" stroke="black" d="M1318.33,-243.42C1318.33,-243.42 249.57,-197.85 132.67,-192.86"/>
<polygon fill="black" stroke="black" points="132.47,-189.35 122.33,-192.42 132.17,-196.34 132.47,-189.35"/>
<text text-anchor="middle" x="699.33" y="-214.22" font-family="Helvetica,sans-Serif" font-size="14.00">5</text>
</g>
<!-- 3 -->
<g id="node4" class="node">
<title>3</title>
<ellipse fill="#64e544" stroke="black" cx="439.33" cy="-157.07" rx="122.16" ry="35.21"/>
<text text-anchor="start" x="400.33" y="-167.87" font-family="Helvetica,sans-Serif" font-weight="bold" font-size="14.00"> Class=3 </text>
<text text-anchor="start" x="473.33" y="-167.87" font-family="Helvetica,sans-Serif" font-size="14.00"> </text>
<text text-anchor="start" x="360.83" y="-153.87" font-family="Helvetica,sans-Serif" font-size="14.00"> error: 0.992, n=1473 </text>
<text text-anchor="start" x="363.83" y="-139.87" font-family="Helvetica,sans-Serif" font-size="14.00"> p: (0.29, 0.31, 0.40) </text>
</g>
<!-- 1&#45;&gt;3 -->
<g id="edge3" class="edge">
<title>1:s&#45;&gt;3:n</title>
<path fill="none" stroke="black" d="M1318.33,-243.42C1318.33,-243.42 547.38,-198.69 449.51,-193.01"/>
<polygon fill="black" stroke="black" points="449.52,-189.51 439.33,-192.42 449.11,-196.49 449.52,-189.51"/>
<text text-anchor="middle" x="948.33" y="-214.22" font-family="Helvetica,sans-Serif" font-size="14.00">4</text>
</g>
<!-- 4 -->
<g id="node5" class="node">
<title>4</title>
<ellipse fill="#64e544" stroke="black" cx="756.33" cy="-157.07" rx="122.16" ry="35.21"/>
<text text-anchor="start" x="717.33" y="-167.87" font-family="Helvetica,sans-Serif" font-weight="bold" font-size="14.00"> Class=1 </text>
<text text-anchor="start" x="790.33" y="-167.87" font-family="Helvetica,sans-Serif" font-size="14.00"> </text>
<text text-anchor="start" x="677.83" y="-153.87" font-family="Helvetica,sans-Serif" font-size="14.00"> error: 0.962, n=1473 </text>
<text text-anchor="start" x="680.83" y="-139.87" font-family="Helvetica,sans-Serif" font-size="14.00"> p: (0.41, 0.20, 0.38) </text>
</g>
<!-- 1&#45;&gt;4 -->
<g id="edge4" class="edge">
<title>1:s&#45;&gt;4:n</title>
<path fill="none" stroke="black" d="M1318.33,-243.42C1318.33,-243.42 842.73,-200.26 766.56,-193.35"/>
<polygon fill="black" stroke="black" points="766.6,-189.84 756.33,-192.42 765.97,-196.81 766.6,-189.84"/>
<text text-anchor="middle" x="1109.33" y="-214.22" font-family="Helvetica,sans-Serif" font-size="14.00">2</text>
</g>
<!-- 5 -->
<g id="node6" class="node">
<title>5</title>
<polygon fill="#64e544" stroke="black" points="1123.83,-189.07 950.83,-189.07 950.83,-125.07 1123.83,-125.07 1123.83,-189.07"/>
<text text-anchor="start" x="998.33" y="-174.87" font-family="Helvetica,sans-Serif" font-weight="bold" font-size="14.00"> Class=1 </text>
<text text-anchor="start" x="1071.33" y="-174.87" font-family="Helvetica,sans-Serif" font-size="14.00"> </text>
<text text-anchor="start" x="958.83" y="-160.87" font-family="Helvetica,sans-Serif" font-size="14.00"> error: 0.913, n=1473 </text>
<text text-anchor="start" x="961.83" y="-146.87" font-family="Helvetica,sans-Serif" font-size="14.00"> p: (0.52, 0.17, 0.32) </text>
<text text-anchor="start" x="996.83" y="-132.87" font-family="Helvetica,sans-Serif" font-weight="bold" font-size="14.00">Wifes_age</text>
</g>
<!-- 1&#45;&gt;5 -->
<g id="edge5" class="edge">
<title>1:s&#45;&gt;5:n</title>
<path fill="none" stroke="black" d="M1318.33,-243.42C1318.33,-243.42 1097.39,-201.47 1047.33,-191.96"/>
<polygon fill="black" stroke="black" points="1047.81,-188.49 1037.33,-190.07 1046.5,-195.37 1047.81,-188.49"/>
<text text-anchor="middle" x="1225.33" y="-214.22" font-family="Helvetica,sans-Serif" font-size="14.00">1</text>
</g>
<!-- 8 -->
<g id="node7" class="node">
<title>8</title>
<ellipse fill="#64e544" stroke="black" cx="1318.33" cy="-157.07" rx="122.16" ry="35.21"/>
<text text-anchor="start" x="1279.33" y="-167.87" font-family="Helvetica,sans-Serif" font-weight="bold" font-size="14.00"> Class=1 </text>
<text text-anchor="start" x="1352.33" y="-167.87" font-family="Helvetica,sans-Serif" font-size="14.00"> </text>
<text text-anchor="start" x="1239.83" y="-153.87" font-family="Helvetica,sans-Serif" font-size="14.00"> error: 0.995, n=1473 </text>
<text text-anchor="start" x="1242.83" y="-139.87" font-family="Helvetica,sans-Serif" font-size="14.00"> p: (0.38, 0.29, 0.33) </text>
</g>
<!-- 1&#45;&gt;8 -->
<g id="edge6" class="edge">
<title>1:s&#45;&gt;8:n</title>
<path fill="none" stroke="black" d="M1318.33,-243.42C1318.33,-243.42 1318.33,-217.64 1318.33,-202.74"/>
<polygon fill="black" stroke="black" points="1321.83,-202.42 1318.33,-192.42 1314.83,-202.42 1321.83,-202.42"/>
<text text-anchor="middle" x="1323.33" y="-214.22" font-family="Helvetica,sans-Serif" font-size="14.00">6</text>
</g>
<!-- 9 -->
<g id="node8" class="node">
<title>9</title>
<ellipse fill="#64e544" stroke="black" cx="1635.33" cy="-157.07" rx="122.16" ry="35.21"/>
<text text-anchor="start" x="1596.33" y="-167.87" font-family="Helvetica,sans-Serif" font-weight="bold" font-size="14.00"> Class=1 </text>
<text text-anchor="start" x="1669.33" y="-167.87" font-family="Helvetica,sans-Serif" font-size="14.00"> </text>
<text text-anchor="start" x="1556.83" y="-153.87" font-family="Helvetica,sans-Serif" font-size="14.00"> error: 0.091, n=1473 </text>
<text text-anchor="start" x="1559.83" y="-139.87" font-family="Helvetica,sans-Serif" font-size="14.00"> p: (0.98, 0.00, 0.02) </text>
</g>
<!-- 1&#45;&gt;9 -->
<g id="edge7" class="edge">
<title>1:s&#45;&gt;9:n</title>
<path fill="none" stroke="black" d="M1318.33,-243.42C1318.33,-243.42 1570.88,-202.79 1625.14,-194.06"/>
<polygon fill="black" stroke="black" points="1626.01,-197.47 1635.33,-192.42 1624.9,-190.55 1626.01,-197.47"/>
<text text-anchor="middle" x="1520.33" y="-214.22" font-family="Helvetica,sans-Serif" font-size="14.00">0</text>
</g>
<!-- 10 -->
<g id="node9" class="node">
<title>10</title>
<ellipse fill="#64e544" stroke="black" cx="1952.33" cy="-157.07" rx="122.16" ry="35.21"/>
<text text-anchor="start" x="1913.33" y="-167.87" font-family="Helvetica,sans-Serif" font-weight="bold" font-size="14.00"> Class=1 </text>
<text text-anchor="start" x="1986.33" y="-167.87" font-family="Helvetica,sans-Serif" font-size="14.00"> </text>
<text text-anchor="start" x="1873.83" y="-153.87" font-family="Helvetica,sans-Serif" font-size="14.00"> error: 0.847, n=1473 </text>
<text text-anchor="start" x="1876.83" y="-139.87" font-family="Helvetica,sans-Serif" font-size="14.00"> p: (0.62, 0.19, 0.19) </text>
</g>
<!-- 1&#45;&gt;10 -->
<g id="edge8" class="edge">
<title>1:s&#45;&gt;10:n</title>
<path fill="none" stroke="black" d="M1318.33,-243.42C1318.33,-243.42 1860.57,-199.8 1942.11,-193.24"/>
<polygon fill="black" stroke="black" points="1942.64,-196.71 1952.33,-192.42 1942.08,-189.73 1942.64,-196.71"/>
<text text-anchor="middle" x="1729.33" y="-214.22" font-family="Helvetica,sans-Serif" font-size="14.00">8</text>
</g>
<!-- 11 -->
<g id="node10" class="node">
<title>11</title>
<ellipse fill="#64e544" stroke="black" cx="2269.33" cy="-157.07" rx="122.16" ry="35.21"/>
<text text-anchor="start" x="2230.33" y="-167.87" font-family="Helvetica,sans-Serif" font-weight="bold" font-size="14.00"> Class=2 </text>
<text text-anchor="start" x="2303.33" y="-167.87" font-family="Helvetica,sans-Serif" font-size="14.00"> </text>
<text text-anchor="start" x="2190.83" y="-153.87" font-family="Helvetica,sans-Serif" font-size="14.00"> error: 0.983, n=1473 </text>
<text text-anchor="start" x="2193.83" y="-139.87" font-family="Helvetica,sans-Serif" font-size="14.00"> p: (0.37, 0.39, 0.24) </text>
</g>
<!-- 1&#45;&gt;11 -->
<g id="edge9" class="edge">
<title>1:s&#45;&gt;11:n</title>
<path fill="none" stroke="black" d="M1318.33,-243.42C1318.33,-243.42 2157.66,-198.41 2259.29,-192.96"/>
<polygon fill="black" stroke="black" points="2259.53,-196.45 2269.33,-192.42 2259.16,-189.46 2259.53,-196.45"/>
<text text-anchor="middle" x="1985.33" y="-214.22" font-family="Helvetica,sans-Serif" font-size="14.00">7</text>
</g>
<!-- 12 -->
<g id="node11" class="node">
<title>12</title>
<ellipse fill="#64e544" stroke="black" cx="2586.33" cy="-157.07" rx="122.16" ry="35.21"/>
<text text-anchor="start" x="2547.33" y="-167.87" font-family="Helvetica,sans-Serif" font-weight="bold" font-size="14.00"> Class=3 </text>
<text text-anchor="start" x="2620.33" y="-167.87" font-family="Helvetica,sans-Serif" font-size="14.00"> </text>
<text text-anchor="start" x="2507.83" y="-153.87" font-family="Helvetica,sans-Serif" font-size="14.00"> error: 0.969, n=1473 </text>
<text text-anchor="start" x="2510.83" y="-139.87" font-family="Helvetica,sans-Serif" font-size="14.00"> p: (0.27, 0.27, 0.46) </text>
</g>
<!-- 1&#45;&gt;12 -->
<g id="edge10" class="edge">
<title>1:s&#45;&gt;12:n</title>
<path fill="none" stroke="black" d="M1318.33,-243.42C1318.33,-243.42 2456.12,-197.66 2576.12,-192.83"/>
<polygon fill="black" stroke="black" points="2576.48,-196.32 2586.33,-192.42 2576.2,-189.33 2576.48,-196.32"/>
<text text-anchor="middle" x="2268.33" y="-214.22" font-family="Helvetica,sans-Serif" font-size="14.00">3</text>
</g>
<!-- 6 -->
<g id="node12" class="node">
<title>6</title>
<ellipse fill="#3d76cc" stroke="black" cx="878.33" cy="-35.36" rx="122.16" ry="35.21"/>
<text text-anchor="start" x="839.33" y="-46.16" font-family="Helvetica,sans-Serif" font-weight="bold" font-size="14.00"> Class=3 </text>
<text text-anchor="start" x="912.33" y="-46.16" font-family="Helvetica,sans-Serif" font-size="14.00"> </text>
<text text-anchor="start" x="799.83" y="-32.16" font-family="Helvetica,sans-Serif" font-size="14.00"> error: 0.887, n=1473 </text>
<text text-anchor="start" x="802.83" y="-18.16" font-family="Helvetica,sans-Serif" font-size="14.00"> p: (0.25, 0.18, 0.57) </text>
</g>
<!-- 5&#45;&gt;6 -->
<g id="edge11" class="edge">
<title>5:s&#45;&gt;6:n</title>
<path fill="none" stroke="black" d="M1037.33,-124.07C1037.33,-124.07 923.08,-85.73 888.28,-74.05"/>
<polygon fill="black" stroke="black" points="888.92,-70.57 878.33,-70.71 886.7,-77.21 888.92,-70.57"/>
<text text-anchor="middle" x="981.83" y="-92.51" font-family="Helvetica,sans-Serif" font-size="14.00">21</text>
</g>
<!-- 7 -->
<g id="node13" class="node">
<title>7</title>
<ellipse fill="#3d76cc" stroke="black" cx="1195.33" cy="-35.36" rx="122.16" ry="35.21"/>
<text text-anchor="start" x="1156.33" y="-46.16" font-family="Helvetica,sans-Serif" font-weight="bold" font-size="14.00"> Class=1 </text>
<text text-anchor="start" x="1229.33" y="-46.16" font-family="Helvetica,sans-Serif" font-size="14.00"> </text>
<text text-anchor="start" x="1116.83" y="-32.16" font-family="Helvetica,sans-Serif" font-size="14.00"> error: 0.870, n=1473 </text>
<text text-anchor="start" x="1119.83" y="-18.16" font-family="Helvetica,sans-Serif" font-size="14.00"> p: (0.57, 0.14, 0.29) </text>
</g>
<!-- 5&#45;&gt;7 -->
<g id="edge12" class="edge">
<title>5:s&#45;&gt;7:n</title>
<path fill="none" stroke="black" d="M1037.33,-124.07C1037.33,-124.07 1150.86,-85.73 1185.45,-74.05"/>
<polygon fill="black" stroke="black" points="1186.97,-77.23 1195.33,-70.71 1184.74,-70.59 1186.97,-77.23"/>
<text text-anchor="middle" x="1149.83" y="-92.51" font-family="Helvetica,sans-Serif" font-size="14.00">25</text>
</g>
</g>
</svg>
