<?xml version="1.0" encoding="UTF-8" standalone="no"?>
<!DOCTYPE svg PUBLIC "-//W3C//DTD SVG 1.1//EN"
 "http://www.w3.org/Graphics/SVG/1.1/DTD/svg11.dtd">
<!-- Generated by graphviz version 2.43.0 (0)
 -->
<!-- Title: Tree Pages: 1 -->
<svg width="720pt" height="416pt"
 viewBox="0.00 0.00 719.66 416.42" xmlns="http://www.w3.org/2000/svg" xmlns:xlink="http://www.w3.org/1999/xlink">
<g id="graph0" class="graph" transform="scale(1 1) rotate(0) translate(18 398.42)">
<title>Tree</title>
<polygon fill="white" stroke="transparent" points="-18,18 -18,-398.42 701.66,-398.42 701.66,18 -18,18"/>
<!-- 0 -->
<g id="node1" class="node">
<title>0</title>
<polygon fill="white" stroke="transparent" points="448.33,-380.42 394.33,-380.42 394.33,-344.42 448.33,-344.42 448.33,-380.42"/>
<text text-anchor="middle" x="421.33" y="-358.72" font-family="Helvetica,sans-Serif" font-size="14.00">0</text>
</g>
<!-- 1 -->
<g id="node2" class="node">
<title>1</title>
<polygon fill="#cc3d3d" stroke="black" points="512.33,-307.42 330.33,-307.42 330.33,-243.42 512.33,-243.42 512.33,-307.42"/>
<text text-anchor="start" x="366.83" y="-293.22" font-family="Helvetica,sans-Serif" font-weight="bold" font-size="14.00"> Class=False </text>
<text text-anchor="start" x="470.83" y="-293.22" font-family="Helvetica,sans-Serif" font-size="14.00"> </text>
<text text-anchor="start" x="338.33" y="-279.22" font-family="Helvetica,sans-Serif" font-size="14.00"> error: 0.709, n=10885 </text>
<text text-anchor="start" x="366.33" y="-265.22" font-family="Helvetica,sans-Serif" font-size="14.00"> p: (0.81, 0.19) </text>
<text text-anchor="start" x="409.83" y="-251.22" font-family="Helvetica,sans-Serif" font-weight="bold" font-size="14.00">loc</text>
</g>
<!-- 0&#45;&gt;1 -->
<!-- 2 -->
<g id="node3" class="node">
<title>2</title>
<polygon fill="#64e544" stroke="black" points="366.83,-189.07 193.83,-189.07 193.83,-125.07 366.83,-125.07 366.83,-189.07"/>
<text text-anchor="start" x="225.83" y="-174.87" font-family="Helvetica,sans-Serif" font-weight="bold" font-size="14.00"> Class=False </text>
<text text-anchor="start" x="329.83" y="-174.87" font-family="Helvetica,sans-Serif" font-size="14.00"> </text>
<text text-anchor="start" x="201.83" y="-160.87" font-family="Helvetica,sans-Serif" font-size="14.00"> error: 0.954, n=2757 </text>
<text text-anchor="start" x="225.33" y="-146.87" font-family="Helvetica,sans-Serif" font-size="14.00"> p: (0.62, 0.38) </text>
<text text-anchor="start" x="268.83" y="-132.87" font-family="Helvetica,sans-Serif" font-weight="bold" font-size="14.00">loc</text>
</g>
<!-- 1&#45;&gt;2 -->
<g id="edge2" class="edge">
<title>1:s&#45;&gt;2:n</title>
<path fill="none" stroke="black" d="M421.33,-243.42C421.33,-243.42 321.88,-205.79 290.02,-193.73"/>
<polygon fill="black" stroke="black" points="290.92,-190.33 280.33,-190.07 288.44,-196.88 290.92,-190.33"/>
<text text-anchor="middle" x="389.83" y="-214.22" font-family="Helvetica,sans-Serif" font-size="14.00">&gt; 45</text>
</g>
<!-- 5 -->
<g id="node4" class="node">
<title>5</title>
<ellipse fill="#64e544" stroke="black" cx="561.33" cy="-157.07" rx="122.16" ry="35.21"/>
<text text-anchor="start" x="506.83" y="-167.87" font-family="Helvetica,sans-Serif" font-weight="bold" font-size="14.00"> Class=False </text>
<text text-anchor="start" x="610.83" y="-167.87" font-family="Helvetica,sans-Serif" font-size="14.00"> </text>
<text text-anchor="start" x="482.83" y="-153.87" font-family="Helvetica,sans-Serif" font-size="14.00"> error: 0.563, n=8128 </text>
<text text-anchor="start" x="506.33" y="-139.87" font-family="Helvetica,sans-Serif" font-size="14.00"> p: (0.87, 0.13) </text>
</g>
<!-- 1&#45;&gt;5 -->
<g id="edge3" class="edge">
<title>1:s&#45;&gt;5:n</title>
<path fill="none" stroke="black" d="M421.33,-243.42C421.33,-243.42 520.08,-207.45 551.71,-195.93"/>
<polygon fill="black" stroke="black" points="553.13,-199.13 561.33,-192.42 550.74,-192.56 553.13,-199.13"/>
<text text-anchor="middle" x="531.83" y="-214.22" font-family="Helvetica,sans-Serif" font-size="14.00">&lt;= 45</text>
</g>
<!-- 3 -->
<g id="node5" class="node">
<title>3</title>
<ellipse fill="#3d76cc" stroke="black" cx="122.33" cy="-35.36" rx="122.16" ry="35.21"/>
<text text-anchor="start" x="67.83" y="-46.16" font-family="Helvetica,sans-Serif" font-weight="bold" font-size="14.00"> Class=False </text>
<text text-anchor="start" x="171.83" y="-46.16" font-family="Helvetica,sans-Serif" font-size="14.00"> </text>
<text text-anchor="start" x="43.83" y="-32.16" font-family="Helvetica,sans-Serif" font-size="14.00"> error: 0.999, n=1161 </text>
<text text-anchor="start" x="67.33" y="-18.16" font-family="Helvetica,sans-Serif" font-size="14.00"> p: (0.51, 0.49) </text>
</g>
<!-- 2&#45;&gt;3 -->
<g id="edge4" class="edge">
<title>2:s&#45;&gt;3:n</title>
<path fill="none" stroke="black" d="M280.33,-124.07C280.33,-124.07 166.8,-85.73 132.21,-74.05"/>
<polygon fill="black" stroke="black" points="132.92,-70.59 122.33,-70.71 130.68,-77.23 132.92,-70.59"/>
<text text-anchor="middle" x="233.83" y="-92.51" font-family="Helvetica,sans-Serif" font-size="14.00">&gt; 88</text>
</g>
<!-- 4 -->
<g id="node6" class="node">
<title>4</title>
<ellipse fill="#3d76cc" stroke="black" cx="439.33" cy="-35.36" rx="122.16" ry="35.21"/>
<text text-anchor="start" x="384.83" y="-46.16" font-family="Helvetica,sans-Serif" font-weight="bold" font-size="14.00"> Class=False </text>
<text text-anchor="start" x="488.83" y="-46.16" font-family="Helvetica,sans-Serif" font-size="14.00"> </text>
<text text-anchor="start" x="360.83" y="-32.16" font-family="Helvetica,sans-Serif" font-size="14.00"> error: 0.874, n=1596 </text>
<text text-anchor="start" x="384.33" y="-18.16" font-family="Helvetica,sans-Serif" font-size="14.00"> p: (0.71, 0.29) </text>
</g>
<!-- 2&#45;&gt;4 -->
<g id="edge5" class="edge">
<title>2:s&#45;&gt;4:n</title>
<path fill="none" stroke="black" d="M280.33,-124.07C280.33,-124.07 394.57,-85.73 429.38,-74.05"/>
<polygon fill="black" stroke="black" points="430.96,-77.21 439.33,-70.71 428.74,-70.57 430.96,-77.21"/>
<text text-anchor="middle" x="407.83" y="-92.51" font-family="Helvetica,sans-Serif" font-size="14.00">&lt;= 88</text>
</g>
</g>
</svg>
