<?xml version="1.0" encoding="UTF-8" standalone="no"?>
<!DOCTYPE svg PUBLIC "-//W3C//DTD SVG 1.1//EN"
 "http://www.w3.org/Graphics/SVG/1.1/DTD/svg11.dtd">
<!-- Generated by graphviz version 2.43.0 (0)
 -->
<!-- Title: Tree Pages: 1 -->
<svg width="679pt" height="998pt"
 viewBox="0.00 0.00 678.57 998.13" xmlns="http://www.w3.org/2000/svg" xmlns:xlink="http://www.w3.org/1999/xlink">
<g id="graph0" class="graph" transform="scale(1 1) rotate(0) translate(18 980.13)">
<title>Tree</title>
<polygon fill="white" stroke="transparent" points="-18,18 -18,-980.13 660.57,-980.13 660.57,18 -18,18"/>
<!-- 0 -->
<g id="node1" class="node">
<title>0</title>
<polygon fill="white" stroke="transparent" points="484.6,-962.13 430.6,-962.13 430.6,-926.13 484.6,-926.13 484.6,-962.13"/>
<text text-anchor="middle" x="457.6" y="-940.43" font-family="Helvetica,sans-Serif" font-size="14.00">0</text>
</g>
<!-- 1 -->
<g id="node2" class="node">
<title>1</title>
<polygon fill="#cc3d3d" stroke="black" points="544.1,-889.13 371.1,-889.13 371.1,-825.13 544.1,-825.13 544.1,-889.13"/>
<text text-anchor="start" x="403.1" y="-874.93" font-family="Helvetica,sans-Serif" font-weight="bold" font-size="14.00"> Class=False </text>
<text text-anchor="start" x="507.1" y="-874.93" font-family="Helvetica,sans-Serif" font-size="14.00"> </text>
<text text-anchor="start" x="379.1" y="-860.93" font-family="Helvetica,sans-Serif" font-size="14.00"> error: 0.621, n=2109 </text>
<text text-anchor="start" x="402.6" y="-846.93" font-family="Helvetica,sans-Serif" font-size="14.00"> p: (0.85, 0.15) </text>
<text text-anchor="start" x="429.1" y="-832.93" font-family="Helvetica,sans-Serif" font-weight="bold" font-size="14.00">lOCode</text>
</g>
<!-- 0&#45;&gt;1 -->
<!-- 2 -->
<g id="node3" class="node">
<title>2</title>
<polygon fill="#e59744" stroke="black" points="339.1,-770.78 166.1,-770.78 166.1,-706.78 339.1,-706.78 339.1,-770.78"/>
<text text-anchor="start" x="198.1" y="-756.58" font-family="Helvetica,sans-Serif" font-weight="bold" font-size="14.00"> Class=False </text>
<text text-anchor="start" x="302.1" y="-756.58" font-family="Helvetica,sans-Serif" font-size="14.00"> </text>
<text text-anchor="start" x="174.1" y="-742.58" font-family="Helvetica,sans-Serif" font-size="14.00"> error: 0.825, n=1162 </text>
<text text-anchor="start" x="197.6" y="-728.58" font-family="Helvetica,sans-Serif" font-size="14.00"> p: (0.74, 0.26) </text>
<text text-anchor="start" x="209.6" y="-714.58" font-family="Helvetica,sans-Serif" font-weight="bold" font-size="14.00">total_Opnd</text>
</g>
<!-- 1&#45;&gt;2 -->
<g id="edge2" class="edge">
<title>1:s&#45;&gt;2:n</title>
<path fill="none" stroke="black" d="M457.6,-825.13C457.6,-825.13 303.44,-785.01 262.49,-774.35"/>
<polygon fill="black" stroke="black" points="263.16,-770.91 252.6,-771.78 261.4,-777.68 263.16,-770.91"/>
<text text-anchor="middle" x="398.6" y="-795.93" font-family="Helvetica,sans-Serif" font-size="14.00">&gt; 3</text>
</g>
<!-- 10 -->
<g id="node4" class="node">
<title>10</title>
<ellipse fill="#e59744" stroke="black" cx="526.6" cy="-738.78" rx="115.93" ry="35.21"/>
<text text-anchor="start" x="472.1" y="-749.58" font-family="Helvetica,sans-Serif" font-weight="bold" font-size="14.00"> Class=False </text>
<text text-anchor="start" x="576.1" y="-749.58" font-family="Helvetica,sans-Serif" font-size="14.00"> </text>
<text text-anchor="start" x="452.6" y="-735.58" font-family="Helvetica,sans-Serif" font-size="14.00"> error: 0.176, n=947 </text>
<text text-anchor="start" x="471.6" y="-721.58" font-family="Helvetica,sans-Serif" font-size="14.00"> p: (0.97, 0.03) </text>
</g>
<!-- 1&#45;&gt;10 -->
<g id="edge3" class="edge">
<title>1:s&#45;&gt;10:n</title>
<path fill="none" stroke="black" d="M457.6,-825.13C457.6,-825.13 500.14,-793.69 518.42,-780.18"/>
<polygon fill="black" stroke="black" points="520.64,-782.89 526.6,-774.13 516.48,-777.26 520.64,-782.89"/>
<text text-anchor="middle" x="518.6" y="-795.93" font-family="Helvetica,sans-Serif" font-size="14.00">&lt;= 3</text>
</g>
<!-- 3 -->
<g id="node5" class="node">
<title>3</title>
<polygon fill="#c8cc3d" stroke="black" points="201.6,-649.07 17.6,-649.07 17.6,-585.07 201.6,-585.07 201.6,-649.07"/>
<text text-anchor="start" x="58.6" y="-634.87" font-family="Helvetica,sans-Serif" font-weight="bold" font-size="14.00"> Class=True </text>
<text text-anchor="start" x="155.6" y="-634.87" font-family="Helvetica,sans-Serif" font-size="14.00"> </text>
<text text-anchor="start" x="35.6" y="-620.87" font-family="Helvetica,sans-Serif" font-size="14.00"> error: 0.988, n=147 </text>
<text text-anchor="start" x="54.6" y="-606.87" font-family="Helvetica,sans-Serif" font-size="14.00"> p: (0.44, 0.56) </text>
<text text-anchor="start" x="25.6" y="-592.87" font-family="Helvetica,sans-Serif" font-weight="bold" font-size="14.00">locCodeAndComment</text>
</g>
<!-- 2&#45;&gt;3 -->
<g id="edge4" class="edge">
<title>2:s&#45;&gt;3:n</title>
<path fill="none" stroke="black" d="M252.6,-705.78C252.6,-705.78 150.8,-666.12 118.98,-653.72"/>
<polygon fill="black" stroke="black" points="120.19,-650.43 109.6,-650.07 117.65,-656.96 120.19,-650.43"/>
<text text-anchor="middle" x="216.1" y="-674.22" font-family="Helvetica,sans-Serif" font-size="14.00">&gt; 64</text>
</g>
<!-- 9 -->
<g id="node6" class="node">
<title>9</title>
<ellipse fill="#c8cc3d" stroke="black" cx="395.6" cy="-617.07" rx="122.16" ry="35.21"/>
<text text-anchor="start" x="341.1" y="-627.87" font-family="Helvetica,sans-Serif" font-weight="bold" font-size="14.00"> Class=False </text>
<text text-anchor="start" x="445.1" y="-627.87" font-family="Helvetica,sans-Serif" font-size="14.00"> </text>
<text text-anchor="start" x="317.1" y="-613.87" font-family="Helvetica,sans-Serif" font-size="14.00"> error: 0.751, n=1015 </text>
<text text-anchor="start" x="340.6" y="-599.87" font-family="Helvetica,sans-Serif" font-size="14.00"> p: (0.79, 0.21) </text>
</g>
<!-- 2&#45;&gt;9 -->
<g id="edge5" class="edge">
<title>2:s&#45;&gt;9:n</title>
<path fill="none" stroke="black" d="M252.6,-705.78C252.6,-705.78 354.41,-667.79 386.22,-655.92"/>
<polygon fill="black" stroke="black" points="387.46,-659.2 395.6,-652.42 385.01,-652.64 387.46,-659.2"/>
<text text-anchor="middle" x="369.1" y="-674.22" font-family="Helvetica,sans-Serif" font-size="14.00">&lt;= 64</text>
</g>
<!-- 4 -->
<g id="node7" class="node">
<title>4</title>
<polygon fill="#8ee544" stroke="black" points="191.6,-530.71 27.6,-530.71 27.6,-466.71 191.6,-466.71 191.6,-530.71"/>
<text text-anchor="start" x="58.6" y="-516.51" font-family="Helvetica,sans-Serif" font-weight="bold" font-size="14.00"> Class=True </text>
<text text-anchor="start" x="155.6" y="-516.51" font-family="Helvetica,sans-Serif" font-size="14.00"> </text>
<text text-anchor="start" x="35.6" y="-502.51" font-family="Helvetica,sans-Serif" font-size="14.00"> error: 0.943, n=111 </text>
<text text-anchor="start" x="54.6" y="-488.51" font-family="Helvetica,sans-Serif" font-size="14.00"> p: (0.36, 0.64) </text>
<text text-anchor="start" x="63.6" y="-474.51" font-family="Helvetica,sans-Serif" font-weight="bold" font-size="14.00">lOComment</text>
</g>
<!-- 3&#45;&gt;4 -->
<g id="edge6" class="edge">
<title>3:s&#45;&gt;4:n</title>
<path fill="none" stroke="black" d="M109.6,-584.07C109.6,-584.07 109.6,-556.5 109.6,-541"/>
<polygon fill="black" stroke="black" points="113.1,-540.71 109.6,-530.71 106.1,-540.71 113.1,-540.71"/>
<text text-anchor="middle" x="128.6" y="-552.51" font-family="Helvetica,sans-Serif" font-size="14.00">&lt;= 0</text>
</g>
<!-- 5 -->
<g id="node8" class="node">
<title>5</title>
<polygon fill="#3dcc45" stroke="black" points="191.6,-415.71 27.6,-415.71 27.6,-351.71 191.6,-351.71 191.6,-415.71"/>
<text text-anchor="start" x="58.6" y="-401.51" font-family="Helvetica,sans-Serif" font-weight="bold" font-size="14.00"> Class=True </text>
<text text-anchor="start" x="155.6" y="-401.51" font-family="Helvetica,sans-Serif" font-size="14.00"> </text>
<text text-anchor="start" x="35.6" y="-387.51" font-family="Helvetica,sans-Serif" font-size="14.00"> error: 0.966, n=102 </text>
<text text-anchor="start" x="54.6" y="-373.51" font-family="Helvetica,sans-Serif" font-size="14.00"> p: (0.39, 0.61) </text>
<text text-anchor="start" x="78.1" y="-359.51" font-family="Helvetica,sans-Serif" font-weight="bold" font-size="14.00">uniq_Op</text>
</g>
<!-- 4&#45;&gt;5 -->
<g id="edge7" class="edge">
<title>4:s&#45;&gt;5:n</title>
<path fill="none" stroke="black" d="M109.6,-466.71C109.6,-466.71 109.6,-440.93 109.6,-426.03"/>
<polygon fill="black" stroke="black" points="113.1,-425.71 109.6,-415.71 106.1,-425.71 113.1,-425.71"/>
<text text-anchor="middle" x="133.1" y="-437.51" font-family="Helvetica,sans-Serif" font-size="14.00">&lt;= 19</text>
</g>
<!-- 6 -->
<g id="node9" class="node">
<title>6</title>
<polygon fill="#44e5a1" stroke="black" points="187.1,-300.71 32.1,-300.71 32.1,-236.71 187.1,-236.71 187.1,-300.71"/>
<text text-anchor="start" x="58.6" y="-286.51" font-family="Helvetica,sans-Serif" font-weight="bold" font-size="14.00"> Class=True </text>
<text text-anchor="start" x="155.6" y="-286.51" font-family="Helvetica,sans-Serif" font-size="14.00"> </text>
<text text-anchor="start" x="40.1" y="-272.51" font-family="Helvetica,sans-Serif" font-size="14.00"> error: 0.978, n=97 </text>
<text text-anchor="start" x="54.6" y="-258.51" font-family="Helvetica,sans-Serif" font-size="14.00"> p: (0.41, 0.59) </text>
<text text-anchor="start" x="59.1" y="-244.51" font-family="Helvetica,sans-Serif" font-weight="bold" font-size="14.00">branchCount</text>
</g>
<!-- 5&#45;&gt;6 -->
<g id="edge8" class="edge">
<title>5:s&#45;&gt;6:n</title>
<path fill="none" stroke="black" d="M109.6,-351.71C109.6,-351.71 109.6,-325.93 109.6,-311.03"/>
<polygon fill="black" stroke="black" points="113.1,-310.71 109.6,-300.71 106.1,-310.71 113.1,-310.71"/>
<text text-anchor="middle" x="133.1" y="-322.51" font-family="Helvetica,sans-Serif" font-size="14.00">&lt;= 28</text>
</g>
<!-- 7 -->
<g id="node10" class="node">
<title>7</title>
<polygon fill="#3dc0cc" stroke="black" points="187.1,-185.71 32.1,-185.71 32.1,-121.71 187.1,-121.71 187.1,-185.71"/>
<text text-anchor="start" x="58.6" y="-171.51" font-family="Helvetica,sans-Serif" font-weight="bold" font-size="14.00"> Class=True </text>
<text text-anchor="start" x="155.6" y="-171.51" font-family="Helvetica,sans-Serif" font-size="14.00"> </text>
<text text-anchor="start" x="40.1" y="-157.51" font-family="Helvetica,sans-Serif" font-size="14.00"> error: 0.999, n=66 </text>
<text text-anchor="start" x="54.6" y="-143.51" font-family="Helvetica,sans-Serif" font-size="14.00"> p: (0.48, 0.52) </text>
<text text-anchor="start" x="68.6" y="-129.51" font-family="Helvetica,sans-Serif" font-weight="bold" font-size="14.00">uniq_Opnd</text>
</g>
<!-- 6&#45;&gt;7 -->
<g id="edge9" class="edge">
<title>6:s&#45;&gt;7:n</title>
<path fill="none" stroke="black" d="M109.6,-236.71C109.6,-236.71 109.6,-210.93 109.6,-196.03"/>
<polygon fill="black" stroke="black" points="113.1,-195.71 109.6,-185.71 106.1,-195.71 113.1,-195.71"/>
<text text-anchor="middle" x="127.1" y="-207.51" font-family="Helvetica,sans-Serif" font-size="14.00">&gt; 15</text>
</g>
<!-- 8 -->
<g id="node11" class="node">
<title>8</title>
<ellipse fill="#4485e5" stroke="black" cx="109.6" cy="-35.36" rx="109.7" ry="35.21"/>
<text text-anchor="start" x="55.1" y="-46.16" font-family="Helvetica,sans-Serif" font-weight="bold" font-size="14.00"> Class=False </text>
<text text-anchor="start" x="159.1" y="-46.16" font-family="Helvetica,sans-Serif" font-size="14.00"> </text>
<text text-anchor="start" x="40.1" y="-32.16" font-family="Helvetica,sans-Serif" font-size="14.00"> error: 0.998, n=61 </text>
<text text-anchor="start" x="54.6" y="-18.16" font-family="Helvetica,sans-Serif" font-size="14.00"> p: (0.52, 0.48) </text>
</g>
<!-- 7&#45;&gt;8 -->
<g id="edge10" class="edge">
<title>7:s&#45;&gt;8:n</title>
<path fill="none" stroke="black" d="M109.6,-121.71C109.6,-121.71 109.6,-95.93 109.6,-81.03"/>
<polygon fill="black" stroke="black" points="113.1,-80.71 109.6,-70.71 106.1,-80.71 113.1,-80.71"/>
<text text-anchor="middle" x="133.1" y="-92.51" font-family="Helvetica,sans-Serif" font-size="14.00">&lt;= 60</text>
</g>
</g>
</svg>
