<?xml version="1.0" encoding="UTF-8" standalone="no"?>
<!DOCTYPE svg PUBLIC "-//W3C//DTD SVG 1.1//EN"
 "http://www.w3.org/Graphics/SVG/1.1/DTD/svg11.dtd">
<!-- Generated by graphviz version 2.43.0 (0)
 -->
<!-- Title: Tree Pages: 1 -->
<svg width="1267pt" height="1127pt"
 viewBox="0.00 0.00 1267.20 1126.55" xmlns="http://www.w3.org/2000/svg" xmlns:xlink="http://www.w3.org/1999/xlink">
<g id="graph0" class="graph" transform="scale(1 1) rotate(0) translate(18 1108.55)">
<title>Tree</title>
<polygon fill="white" stroke="transparent" points="-18,18 -18,-1108.55 1249.2,-1108.55 1249.2,18 -18,18"/>
<!-- 0 -->
<g id="node1" class="node">
<title>0</title>
<polygon fill="white" stroke="transparent" points="579.6,-1090.55 525.6,-1090.55 525.6,-1054.55 579.6,-1054.55 579.6,-1090.55"/>
<text text-anchor="middle" x="552.6" y="-1068.85" font-family="Helvetica,sans-Serif" font-size="14.00">0</text>
</g>
<!-- 1 -->
<g id="node2" class="node">
<title>1</title>
<polygon fill="#cc3d3d" stroke="black" points="634.6,-1017.55 470.6,-1017.55 470.6,-953.55 634.6,-953.55 634.6,-1017.55"/>
<text text-anchor="start" x="509.1" y="-1003.35" font-family="Helvetica,sans-Serif" font-weight="bold" font-size="14.00"> Class=no </text>
<text text-anchor="start" x="591.1" y="-1003.35" font-family="Helvetica,sans-Serif" font-size="14.00"> </text>
<text text-anchor="start" x="478.6" y="-989.35" font-family="Helvetica,sans-Serif" font-size="14.00"> error: 0.732, n=522 </text>
<text text-anchor="start" x="497.6" y="-975.35" font-family="Helvetica,sans-Serif" font-size="14.00"> p: (0.80, 0.20) </text>
<text text-anchor="start" x="509.6" y="-961.35" font-family="Helvetica,sans-Serif" font-weight="bold" font-size="14.00">total_Opnd</text>
</g>
<!-- 0&#45;&gt;1 -->
<!-- 2 -->
<g id="node3" class="node">
<title>2</title>
<polygon fill="#e58d44" stroke="black" points="516.6,-902.55 352.6,-902.55 352.6,-838.55 516.6,-838.55 516.6,-902.55"/>
<text text-anchor="start" x="387.1" y="-888.35" font-family="Helvetica,sans-Serif" font-weight="bold" font-size="14.00"> Class=yes </text>
<text text-anchor="start" x="477.1" y="-888.35" font-family="Helvetica,sans-Serif" font-size="14.00"> </text>
<text text-anchor="start" x="360.6" y="-874.35" font-family="Helvetica,sans-Serif" font-size="14.00"> error: 0.950, n=111 </text>
<text text-anchor="start" x="379.6" y="-860.35" font-family="Helvetica,sans-Serif" font-size="14.00"> p: (0.37, 0.63) </text>
<text text-anchor="start" x="413.1" y="-846.35" font-family="Helvetica,sans-Serif" font-weight="bold" font-size="14.00">ev(g)</text>
</g>
<!-- 1&#45;&gt;2 -->
<g id="edge2" class="edge">
<title>1:s&#45;&gt;2:n</title>
<path fill="none" stroke="black" d="M552.6,-953.55C552.6,-953.55 471.68,-918.58 443.86,-906.56"/>
<polygon fill="black" stroke="black" points="445.17,-903.31 434.6,-902.55 442.39,-909.73 445.17,-903.31"/>
<text text-anchor="middle" x="526.1" y="-924.35" font-family="Helvetica,sans-Serif" font-size="14.00">&gt; 49</text>
</g>
<!-- 14 -->
<g id="node4" class="node">
<title>14</title>
<polygon fill="#e58d44" stroke="black" points="805.6,-902.55 641.6,-902.55 641.6,-838.55 805.6,-838.55 805.6,-902.55"/>
<text text-anchor="start" x="680.1" y="-888.35" font-family="Helvetica,sans-Serif" font-weight="bold" font-size="14.00"> Class=no </text>
<text text-anchor="start" x="762.1" y="-888.35" font-family="Helvetica,sans-Serif" font-size="14.00"> </text>
<text text-anchor="start" x="649.6" y="-874.35" font-family="Helvetica,sans-Serif" font-size="14.00"> error: 0.437, n=411 </text>
<text text-anchor="start" x="668.6" y="-860.35" font-family="Helvetica,sans-Serif" font-size="14.00"> p: (0.91, 0.09) </text>
<text text-anchor="start" x="721.1" y="-846.35" font-family="Helvetica,sans-Serif" font-weight="bold" font-size="14.00">i</text>
</g>
<!-- 1&#45;&gt;14 -->
<g id="edge3" class="edge">
<title>1:s&#45;&gt;14:n</title>
<path fill="none" stroke="black" d="M552.6,-953.55C552.6,-953.55 677.74,-916.23 713.92,-905.44"/>
<polygon fill="black" stroke="black" points="715.02,-908.77 723.6,-902.55 713.02,-902.06 715.02,-908.77"/>
<text text-anchor="middle" x="682.1" y="-924.35" font-family="Helvetica,sans-Serif" font-size="14.00">&lt;= 49</text>
</g>
<!-- 3 -->
<g id="node5" class="node">
<title>3</title>
<polygon fill="#ccbd3d" stroke="black" points="269.1,-784.2 114.1,-784.2 114.1,-720.2 269.1,-720.2 269.1,-784.2"/>
<text text-anchor="start" x="144.1" y="-770" font-family="Helvetica,sans-Serif" font-weight="bold" font-size="14.00"> Class=yes </text>
<text text-anchor="start" x="234.1" y="-770" font-family="Helvetica,sans-Serif" font-size="14.00"> </text>
<text text-anchor="start" x="122.1" y="-756" font-family="Helvetica,sans-Serif" font-size="14.00"> error: 0.381, n=27 </text>
<text text-anchor="start" x="136.6" y="-742" font-family="Helvetica,sans-Serif" font-size="14.00"> p: (0.07, 0.93) </text>
<text text-anchor="start" x="161.1" y="-728" font-family="Helvetica,sans-Serif" font-weight="bold" font-size="14.00">lOBlank</text>
</g>
<!-- 2&#45;&gt;3 -->
<g id="edge4" class="edge">
<title>2:s&#45;&gt;3:n</title>
<path fill="none" stroke="black" d="M434.6,-838.55C434.6,-838.55 246.89,-797.34 201.43,-787.36"/>
<polygon fill="black" stroke="black" points="202.12,-783.92 191.6,-785.2 200.62,-790.76 202.12,-783.92"/>
<text text-anchor="middle" x="362.6" y="-809.35" font-family="Helvetica,sans-Serif" font-size="14.00">&gt; 7</text>
</g>
<!-- 5 -->
<g id="node6" class="node">
<title>5</title>
<polygon fill="#ccbd3d" stroke="black" points="512.1,-784.2 357.1,-784.2 357.1,-720.2 512.1,-720.2 512.1,-784.2"/>
<text text-anchor="start" x="387.1" y="-770" font-family="Helvetica,sans-Serif" font-weight="bold" font-size="14.00"> Class=yes </text>
<text text-anchor="start" x="477.1" y="-770" font-family="Helvetica,sans-Serif" font-size="14.00"> </text>
<text text-anchor="start" x="365.1" y="-756" font-family="Helvetica,sans-Serif" font-size="14.00"> error: 0.996, n=84 </text>
<text text-anchor="start" x="379.6" y="-742" font-family="Helvetica,sans-Serif" font-size="14.00"> p: (0.46, 0.54) </text>
<text text-anchor="start" x="413.1" y="-728" font-family="Helvetica,sans-Serif" font-weight="bold" font-size="14.00">ev(g)</text>
</g>
<!-- 2&#45;&gt;5 -->
<g id="edge5" class="edge">
<title>2:s&#45;&gt;5:n</title>
<path fill="none" stroke="black" d="M434.6,-838.55C434.6,-838.55 434.6,-810.99 434.6,-795.49"/>
<polygon fill="black" stroke="black" points="438.1,-795.2 434.6,-785.2 431.1,-795.2 438.1,-795.2"/>
<text text-anchor="middle" x="453.6" y="-809.35" font-family="Helvetica,sans-Serif" font-size="14.00">&lt;= 7</text>
</g>
<!-- 15 -->
<g id="node16" class="node">
<title>15</title>
<polygon fill="#ccbd3d" stroke="black" points="805.6,-784.2 641.6,-784.2 641.6,-720.2 805.6,-720.2 805.6,-784.2"/>
<text text-anchor="start" x="680.1" y="-770" font-family="Helvetica,sans-Serif" font-weight="bold" font-size="14.00"> Class=no </text>
<text text-anchor="start" x="762.1" y="-770" font-family="Helvetica,sans-Serif" font-size="14.00"> </text>
<text text-anchor="start" x="649.6" y="-756" font-family="Helvetica,sans-Serif" font-size="14.00"> error: 0.748, n=117 </text>
<text text-anchor="start" x="668.6" y="-742" font-family="Helvetica,sans-Serif" font-size="14.00"> p: (0.79, 0.21) </text>
<text text-anchor="start" x="718.6" y="-728" font-family="Helvetica,sans-Serif" font-weight="bold" font-size="14.00">b</text>
</g>
<!-- 14&#45;&gt;15 -->
<g id="edge15" class="edge">
<title>14:s&#45;&gt;15:n</title>
<path fill="none" stroke="black" d="M723.6,-838.55C723.6,-838.55 723.6,-810.99 723.6,-795.49"/>
<polygon fill="black" stroke="black" points="727.1,-795.2 723.6,-785.2 720.1,-795.2 727.1,-795.2"/>
<text text-anchor="middle" x="752.6" y="-809.35" font-family="Helvetica,sans-Serif" font-size="14.00">&gt; 24.38</text>
</g>
<!-- 24 -->
<g id="node17" class="node">
<title>24</title>
<ellipse fill="#ccbd3d" stroke="black" cx="993.6" cy="-752.2" rx="115.93" ry="35.21"/>
<text text-anchor="start" x="950.1" y="-763" font-family="Helvetica,sans-Serif" font-weight="bold" font-size="14.00"> Class=no </text>
<text text-anchor="start" x="1032.1" y="-763" font-family="Helvetica,sans-Serif" font-size="14.00"> </text>
<text text-anchor="start" x="919.6" y="-749" font-family="Helvetica,sans-Serif" font-size="14.00"> error: 0.246, n=294 </text>
<text text-anchor="start" x="938.6" y="-735" font-family="Helvetica,sans-Serif" font-size="14.00"> p: (0.96, 0.04) </text>
</g>
<!-- 14&#45;&gt;24 -->
<g id="edge16" class="edge">
<title>14:s&#45;&gt;24:n</title>
<path fill="none" stroke="black" d="M723.6,-838.55C723.6,-838.55 934.96,-798.63 983.67,-789.43"/>
<polygon fill="black" stroke="black" points="984.42,-792.85 993.6,-787.55 983.13,-785.97 984.42,-792.85"/>
<text text-anchor="middle" x="926.6" y="-809.35" font-family="Helvetica,sans-Serif" font-size="14.00">&lt;= 24.38</text>
</g>
<!-- 4 -->
<g id="node7" class="node">
<title>4</title>
<ellipse fill="#ade544" stroke="black" cx="109.6" cy="-630.49" rx="109.7" ry="35.21"/>
<text text-anchor="start" x="62.1" y="-641.29" font-family="Helvetica,sans-Serif" font-weight="bold" font-size="14.00"> Class=yes </text>
<text text-anchor="start" x="152.1" y="-641.29" font-family="Helvetica,sans-Serif" font-size="14.00"> </text>
<text text-anchor="start" x="40.1" y="-627.29" font-family="Helvetica,sans-Serif" font-size="14.00"> error: 0.000, n=21 </text>
<text text-anchor="start" x="54.6" y="-613.29" font-family="Helvetica,sans-Serif" font-size="14.00"> p: (0.00, 1.00) </text>
</g>
<!-- 3&#45;&gt;4 -->
<g id="edge6" class="edge">
<title>3:s&#45;&gt;4:n</title>
<path fill="none" stroke="black" d="M191.6,-719.2C191.6,-719.2 139.02,-684.98 118.07,-671.35"/>
<polygon fill="black" stroke="black" points="119.89,-668.36 109.6,-665.84 116.07,-674.23 119.89,-668.36"/>
<text text-anchor="middle" x="171.6" y="-687.64" font-family="Helvetica,sans-Serif" font-size="14.00">&gt; 8</text>
</g>
<!-- 6 -->
<g id="node8" class="node">
<title>6</title>
<polygon fill="#ade544" stroke="black" points="446.1,-662.49 291.1,-662.49 291.1,-598.49 446.1,-598.49 446.1,-662.49"/>
<text text-anchor="start" x="321.1" y="-648.29" font-family="Helvetica,sans-Serif" font-weight="bold" font-size="14.00"> Class=yes </text>
<text text-anchor="start" x="411.1" y="-648.29" font-family="Helvetica,sans-Serif" font-size="14.00"> </text>
<text text-anchor="start" x="299.1" y="-634.29" font-family="Helvetica,sans-Serif" font-size="14.00"> error: 0.877, n=27 </text>
<text text-anchor="start" x="313.6" y="-620.29" font-family="Helvetica,sans-Serif" font-size="14.00"> p: (0.30, 0.70) </text>
<text text-anchor="start" x="363.6" y="-606.29" font-family="Helvetica,sans-Serif" font-weight="bold" font-size="14.00">n</text>
</g>
<!-- 5&#45;&gt;6 -->
<g id="edge7" class="edge">
<title>5:s&#45;&gt;6:n</title>
<path fill="none" stroke="black" d="M434.6,-719.2C434.6,-719.2 393.91,-684.85 376.43,-670.1"/>
<polygon fill="black" stroke="black" points="378.5,-667.26 368.6,-663.49 373.99,-672.61 378.5,-667.26"/>
<text text-anchor="middle" x="422.6" y="-687.64" font-family="Helvetica,sans-Serif" font-size="14.00">&gt; 4</text>
</g>
<!-- 8 -->
<g id="node9" class="node">
<title>8</title>
<polygon fill="#ade544" stroke="black" points="673.1,-662.49 518.1,-662.49 518.1,-598.49 673.1,-598.49 673.1,-662.49"/>
<text text-anchor="start" x="552.1" y="-648.29" font-family="Helvetica,sans-Serif" font-weight="bold" font-size="14.00"> Class=no </text>
<text text-anchor="start" x="634.1" y="-648.29" font-family="Helvetica,sans-Serif" font-size="14.00"> </text>
<text text-anchor="start" x="526.1" y="-634.29" font-family="Helvetica,sans-Serif" font-size="14.00"> error: 0.994, n=57 </text>
<text text-anchor="start" x="540.6" y="-620.29" font-family="Helvetica,sans-Serif" font-size="14.00"> p: (0.54, 0.46) </text>
<text text-anchor="start" x="552.6" y="-606.29" font-family="Helvetica,sans-Serif" font-weight="bold" font-size="14.00">total_Opnd</text>
</g>
<!-- 5&#45;&gt;8 -->
<g id="edge8" class="edge">
<title>5:s&#45;&gt;8:n</title>
<path fill="none" stroke="black" d="M434.6,-719.2C434.6,-719.2 551.35,-678.8 586.01,-666.81"/>
<polygon fill="black" stroke="black" points="587.3,-670.07 595.6,-663.49 585.01,-663.45 587.3,-670.07"/>
<text text-anchor="middle" x="553.6" y="-687.64" font-family="Helvetica,sans-Serif" font-size="14.00">&lt;= 4</text>
</g>
<!-- 7 -->
<g id="node10" class="node">
<title>7</title>
<ellipse fill="#59cc3d" stroke="black" cx="336.6" cy="-508.78" rx="109.7" ry="35.21"/>
<text text-anchor="start" x="289.1" y="-519.58" font-family="Helvetica,sans-Serif" font-weight="bold" font-size="14.00"> Class=yes </text>
<text text-anchor="start" x="379.1" y="-519.58" font-family="Helvetica,sans-Serif" font-size="14.00"> </text>
<text text-anchor="start" x="267.1" y="-505.58" font-family="Helvetica,sans-Serif" font-size="14.00"> error: 0.989, n=16 </text>
<text text-anchor="start" x="281.6" y="-491.58" font-family="Helvetica,sans-Serif" font-size="14.00"> p: (0.44, 0.56) </text>
</g>
<!-- 6&#45;&gt;7 -->
<g id="edge9" class="edge">
<title>6:s&#45;&gt;7:n</title>
<path fill="none" stroke="black" d="M368.6,-597.49C368.6,-597.49 350.97,-568.1 341.89,-552.94"/>
<polygon fill="black" stroke="black" points="344.75,-550.91 336.6,-544.13 338.74,-554.51 344.75,-550.91"/>
<text text-anchor="middle" x="377.6" y="-565.93" font-family="Helvetica,sans-Serif" font-size="14.00">&gt; 200</text>
</g>
<!-- 9 -->
<g id="node11" class="node">
<title>9</title>
<polygon fill="#59cc3d" stroke="black" points="673.1,-540.78 518.1,-540.78 518.1,-476.78 673.1,-476.78 673.1,-540.78"/>
<text text-anchor="start" x="552.1" y="-526.58" font-family="Helvetica,sans-Serif" font-weight="bold" font-size="14.00"> Class=no </text>
<text text-anchor="start" x="634.1" y="-526.58" font-family="Helvetica,sans-Serif" font-size="14.00"> </text>
<text text-anchor="start" x="526.1" y="-512.58" font-family="Helvetica,sans-Serif" font-size="14.00"> error: 0.973, n=52 </text>
<text text-anchor="start" x="540.6" y="-498.58" font-family="Helvetica,sans-Serif" font-size="14.00"> p: (0.60, 0.40) </text>
<text text-anchor="start" x="590.6" y="-484.58" font-family="Helvetica,sans-Serif" font-weight="bold" font-size="14.00">d</text>
</g>
<!-- 8&#45;&gt;9 -->
<g id="edge10" class="edge">
<title>8:s&#45;&gt;9:n</title>
<path fill="none" stroke="black" d="M595.6,-597.49C595.6,-597.49 595.6,-568.08 595.6,-551.99"/>
<polygon fill="black" stroke="black" points="599.1,-551.78 595.6,-541.78 592.1,-551.78 599.1,-551.78"/>
<text text-anchor="middle" x="613.1" y="-565.93" font-family="Helvetica,sans-Serif" font-size="14.00">&gt; 53</text>
</g>
<!-- 10 -->
<g id="node12" class="node">
<title>10</title>
<polygon fill="#44e56d" stroke="black" points="669.1,-422.42 514.1,-422.42 514.1,-358.42 669.1,-358.42 669.1,-422.42"/>
<text text-anchor="start" x="548.1" y="-408.22" font-family="Helvetica,sans-Serif" font-weight="bold" font-size="14.00"> Class=no </text>
<text text-anchor="start" x="630.1" y="-408.22" font-family="Helvetica,sans-Serif" font-size="14.00"> </text>
<text text-anchor="start" x="522.1" y="-394.22" font-family="Helvetica,sans-Serif" font-size="14.00"> error: 0.995, n=46 </text>
<text text-anchor="start" x="536.6" y="-380.22" font-family="Helvetica,sans-Serif" font-size="14.00"> p: (0.54, 0.46) </text>
<text text-anchor="start" x="586.6" y="-366.22" font-family="Helvetica,sans-Serif" font-weight="bold" font-size="14.00">d</text>
</g>
<!-- 9&#45;&gt;10 -->
<g id="edge11" class="edge">
<title>9:s&#45;&gt;10:n</title>
<path fill="none" stroke="black" d="M595.6,-475.78C595.6,-475.78 593.54,-448.21 592.37,-432.71"/>
<polygon fill="black" stroke="black" points="595.84,-432.13 591.6,-422.42 588.86,-432.66 595.84,-432.13"/>
<text text-anchor="middle" x="623.6" y="-444.22" font-family="Helvetica,sans-Serif" font-size="14.00">&gt; 16.11</text>
</g>
<!-- 11 -->
<g id="node13" class="node">
<title>11</title>
<polygon fill="#3dcca1" stroke="black" points="647.1,-307.42 492.1,-307.42 492.1,-243.42 647.1,-243.42 647.1,-307.42"/>
<text text-anchor="start" x="526.1" y="-293.22" font-family="Helvetica,sans-Serif" font-weight="bold" font-size="14.00"> Class=no </text>
<text text-anchor="start" x="608.1" y="-293.22" font-family="Helvetica,sans-Serif" font-size="14.00"> </text>
<text text-anchor="start" x="500.1" y="-279.22" font-family="Helvetica,sans-Serif" font-size="14.00"> error: 0.942, n=39 </text>
<text text-anchor="start" x="514.6" y="-265.22" font-family="Helvetica,sans-Serif" font-size="14.00"> p: (0.64, 0.36) </text>
<text text-anchor="start" x="564.6" y="-251.22" font-family="Helvetica,sans-Serif" font-weight="bold" font-size="14.00">d</text>
</g>
<!-- 10&#45;&gt;11 -->
<g id="edge12" class="edge">
<title>10:s&#45;&gt;11:n</title>
<path fill="none" stroke="black" d="M591.6,-358.42C591.6,-358.42 579.99,-331.5 573.64,-316.78"/>
<polygon fill="black" stroke="black" points="576.78,-315.22 569.6,-307.42 570.35,-317.99 576.78,-315.22"/>
<text text-anchor="middle" x="612.6" y="-329.22" font-family="Helvetica,sans-Serif" font-size="14.00">&gt; 16.57</text>
</g>
<!-- 12 -->
<g id="node14" class="node">
<title>12</title>
<polygon fill="#44cde5" stroke="black" points="618.1,-189.07 463.1,-189.07 463.1,-125.07 618.1,-125.07 618.1,-189.07"/>
<text text-anchor="start" x="497.1" y="-174.87" font-family="Helvetica,sans-Serif" font-weight="bold" font-size="14.00"> Class=no </text>
<text text-anchor="start" x="579.1" y="-174.87" font-family="Helvetica,sans-Serif" font-size="14.00"> </text>
<text text-anchor="start" x="471.1" y="-160.87" font-family="Helvetica,sans-Serif" font-size="14.00"> error: 0.874, n=34 </text>
<text text-anchor="start" x="485.6" y="-146.87" font-family="Helvetica,sans-Serif" font-size="14.00"> p: (0.71, 0.29) </text>
<text text-anchor="start" x="522.1" y="-132.87" font-family="Helvetica,sans-Serif" font-weight="bold" font-size="14.00">iv(g)</text>
</g>
<!-- 11&#45;&gt;12 -->
<g id="edge13" class="edge">
<title>11:s&#45;&gt;12:n</title>
<path fill="none" stroke="black" d="M569.6,-243.42C569.6,-243.42 553.63,-214.03 545.39,-198.88"/>
<polygon fill="black" stroke="black" points="548.45,-197.18 540.6,-190.07 542.3,-200.52 548.45,-197.18"/>
<text text-anchor="middle" x="594.6" y="-214.22" font-family="Helvetica,sans-Serif" font-size="14.00">&lt;= 28.75</text>
</g>
<!-- 13 -->
<g id="node15" class="node">
<title>13</title>
<ellipse fill="#3d76cc" stroke="black" cx="539.6" cy="-35.36" rx="109.7" ry="35.21"/>
<text text-anchor="start" x="496.1" y="-46.16" font-family="Helvetica,sans-Serif" font-weight="bold" font-size="14.00"> Class=no </text>
<text text-anchor="start" x="578.1" y="-46.16" font-family="Helvetica,sans-Serif" font-size="14.00"> </text>
<text text-anchor="start" x="470.1" y="-32.16" font-family="Helvetica,sans-Serif" font-size="14.00"> error: 0.811, n=32 </text>
<text text-anchor="start" x="484.6" y="-18.16" font-family="Helvetica,sans-Serif" font-size="14.00"> p: (0.75, 0.25) </text>
</g>
<!-- 12&#45;&gt;13 -->
<g id="edge14" class="edge">
<title>12:s&#45;&gt;13:n</title>
<path fill="none" stroke="black" d="M540.6,-124.07C540.6,-124.07 540.08,-96.5 539.79,-81"/>
<polygon fill="black" stroke="black" points="543.29,-80.64 539.6,-70.71 536.29,-80.77 543.29,-80.64"/>
<text text-anchor="middle" x="559.6" y="-92.51" font-family="Helvetica,sans-Serif" font-size="14.00">&lt;= 8</text>
</g>
<!-- 16 -->
<g id="node18" class="node">
<title>16</title>
<polygon fill="#ade544" stroke="black" points="909.6,-662.49 745.6,-662.49 745.6,-598.49 909.6,-598.49 909.6,-662.49"/>
<text text-anchor="start" x="784.1" y="-648.29" font-family="Helvetica,sans-Serif" font-weight="bold" font-size="14.00"> Class=no </text>
<text text-anchor="start" x="866.1" y="-648.29" font-family="Helvetica,sans-Serif" font-size="14.00"> </text>
<text text-anchor="start" x="753.6" y="-634.29" font-family="Helvetica,sans-Serif" font-size="14.00"> error: 0.792, n=105 </text>
<text text-anchor="start" x="772.6" y="-620.29" font-family="Helvetica,sans-Serif" font-size="14.00"> p: (0.76, 0.24) </text>
<text text-anchor="start" x="796.1" y="-606.29" font-family="Helvetica,sans-Serif" font-weight="bold" font-size="14.00">uniq_Op</text>
</g>
<!-- 15&#45;&gt;16 -->
<g id="edge17" class="edge">
<title>15:s&#45;&gt;16:n</title>
<path fill="none" stroke="black" d="M723.6,-719.2C723.6,-719.2 793.58,-681.71 818.73,-668.24"/>
<polygon fill="black" stroke="black" points="820.44,-671.29 827.6,-663.49 817.13,-665.12 820.44,-671.29"/>
<text text-anchor="middle" x="819.1" y="-687.64" font-family="Helvetica,sans-Serif" font-size="14.00">&lt;= 0.19</text>
</g>
<!-- 17 -->
<g id="node19" class="node">
<title>17</title>
<polygon fill="#59cc3d" stroke="black" points="909.6,-540.78 745.6,-540.78 745.6,-476.78 909.6,-476.78 909.6,-540.78"/>
<text text-anchor="start" x="784.1" y="-526.58" font-family="Helvetica,sans-Serif" font-weight="bold" font-size="14.00"> Class=no </text>
<text text-anchor="start" x="866.1" y="-526.58" font-family="Helvetica,sans-Serif" font-size="14.00"> </text>
<text text-anchor="start" x="753.6" y="-512.58" font-family="Helvetica,sans-Serif" font-size="14.00"> error: 0.752, n=102 </text>
<text text-anchor="start" x="772.6" y="-498.58" font-family="Helvetica,sans-Serif" font-size="14.00"> p: (0.78, 0.22) </text>
<text text-anchor="start" x="794.1" y="-484.58" font-family="Helvetica,sans-Serif" font-weight="bold" font-size="14.00">total_Op</text>
</g>
<!-- 16&#45;&gt;17 -->
<g id="edge18" class="edge">
<title>16:s&#45;&gt;17:n</title>
<path fill="none" stroke="black" d="M827.6,-597.49C827.6,-597.49 827.6,-568.08 827.6,-551.99"/>
<polygon fill="black" stroke="black" points="831.1,-551.78 827.6,-541.78 824.1,-551.78 831.1,-551.78"/>
<text text-anchor="middle" x="851.1" y="-565.93" font-family="Helvetica,sans-Serif" font-size="14.00">&lt;= 18</text>
</g>
<!-- 18 -->
<g id="node20" class="node">
<title>18</title>
<polygon fill="#44e56d" stroke="black" points="907.1,-422.42 752.1,-422.42 752.1,-358.42 907.1,-358.42 907.1,-422.42"/>
<text text-anchor="start" x="786.1" y="-408.22" font-family="Helvetica,sans-Serif" font-weight="bold" font-size="14.00"> Class=no </text>
<text text-anchor="start" x="868.1" y="-408.22" font-family="Helvetica,sans-Serif" font-size="14.00"> </text>
<text text-anchor="start" x="760.1" y="-394.22" font-family="Helvetica,sans-Serif" font-size="14.00"> error: 0.789, n=93 </text>
<text text-anchor="start" x="774.6" y="-380.22" font-family="Helvetica,sans-Serif" font-size="14.00"> p: (0.76, 0.24) </text>
<text text-anchor="start" x="824.6" y="-366.22" font-family="Helvetica,sans-Serif" font-weight="bold" font-size="14.00">v</text>
</g>
<!-- 17&#45;&gt;18 -->
<g id="edge19" class="edge">
<title>17:s&#45;&gt;18:n</title>
<path fill="none" stroke="black" d="M827.6,-475.78C827.6,-475.78 828.63,-448.21 829.22,-432.71"/>
<polygon fill="black" stroke="black" points="832.72,-432.55 829.6,-422.42 825.73,-432.28 832.72,-432.55"/>
<text text-anchor="middle" x="847.1" y="-444.22" font-family="Helvetica,sans-Serif" font-size="14.00">&gt; 11</text>
</g>
<!-- 19 -->
<g id="node21" class="node">
<title>19</title>
<polygon fill="#3dcca1" stroke="black" points="908.1,-307.42 753.1,-307.42 753.1,-243.42 908.1,-243.42 908.1,-307.42"/>
<text text-anchor="start" x="787.1" y="-293.22" font-family="Helvetica,sans-Serif" font-weight="bold" font-size="14.00"> Class=no </text>
<text text-anchor="start" x="869.1" y="-293.22" font-family="Helvetica,sans-Serif" font-size="14.00"> </text>
<text text-anchor="start" x="761.1" y="-279.22" font-family="Helvetica,sans-Serif" font-size="14.00"> error: 0.689, n=87 </text>
<text text-anchor="start" x="775.6" y="-265.22" font-family="Helvetica,sans-Serif" font-size="14.00"> p: (0.82, 0.18) </text>
<text text-anchor="start" x="789.6" y="-251.22" font-family="Helvetica,sans-Serif" font-weight="bold" font-size="14.00">uniq_Opnd</text>
</g>
<!-- 18&#45;&gt;19 -->
<g id="edge20" class="edge">
<title>18:s&#45;&gt;19:n</title>
<path fill="none" stroke="black" d="M829.6,-358.42C829.6,-358.42 830.11,-332.64 830.4,-317.74"/>
<polygon fill="black" stroke="black" points="833.9,-317.49 830.6,-307.42 826.91,-317.35 833.9,-317.49"/>
<text text-anchor="middle" x="859.6" y="-329.22" font-family="Helvetica,sans-Serif" font-size="14.00">&gt; 175.7</text>
</g>
<!-- 20 -->
<g id="node22" class="node">
<title>20</title>
<polygon fill="#44cde5" stroke="black" points="908.1,-189.07 753.1,-189.07 753.1,-125.07 908.1,-125.07 908.1,-189.07"/>
<text text-anchor="start" x="787.1" y="-174.87" font-family="Helvetica,sans-Serif" font-weight="bold" font-size="14.00"> Class=no </text>
<text text-anchor="start" x="869.1" y="-174.87" font-family="Helvetica,sans-Serif" font-size="14.00"> </text>
<text text-anchor="start" x="761.1" y="-160.87" font-family="Helvetica,sans-Serif" font-size="14.00"> error: 0.787, n=68 </text>
<text text-anchor="start" x="775.6" y="-146.87" font-family="Helvetica,sans-Serif" font-size="14.00"> p: (0.76, 0.24) </text>
<text text-anchor="start" x="787.6" y="-132.87" font-family="Helvetica,sans-Serif" font-weight="bold" font-size="14.00">total_Opnd</text>
</g>
<!-- 19&#45;&gt;20 -->
<g id="edge21" class="edge">
<title>19:s&#45;&gt;20:n</title>
<path fill="none" stroke="black" d="M830.6,-243.42C830.6,-243.42 830.6,-215.86 830.6,-200.35"/>
<polygon fill="black" stroke="black" points="834.1,-200.07 830.6,-190.07 827.1,-200.07 834.1,-200.07"/>
<text text-anchor="middle" x="848.1" y="-214.22" font-family="Helvetica,sans-Serif" font-size="14.00">&gt; 12</text>
</g>
<!-- 23 -->
<g id="node23" class="node">
<title>23</title>
<ellipse fill="#44cde5" stroke="black" cx="1089.6" cy="-157.07" rx="109.7" ry="35.21"/>
<text text-anchor="start" x="1046.1" y="-167.87" font-family="Helvetica,sans-Serif" font-weight="bold" font-size="14.00"> Class=no </text>
<text text-anchor="start" x="1128.1" y="-167.87" font-family="Helvetica,sans-Serif" font-size="14.00"> </text>
<text text-anchor="start" x="1020.1" y="-153.87" font-family="Helvetica,sans-Serif" font-size="14.00"> error: 0.000, n=19 </text>
<text text-anchor="start" x="1034.6" y="-139.87" font-family="Helvetica,sans-Serif" font-size="14.00"> p: (1.00, 0.00) </text>
</g>
<!-- 19&#45;&gt;23 -->
<g id="edge22" class="edge">
<title>19:s&#45;&gt;23:n</title>
<path fill="none" stroke="black" d="M830.6,-243.42C830.6,-243.42 1032.46,-203.67 1079.76,-194.36"/>
<polygon fill="black" stroke="black" points="1080.47,-197.79 1089.6,-192.42 1079.11,-190.92 1080.47,-197.79"/>
<text text-anchor="middle" x="1015.1" y="-214.22" font-family="Helvetica,sans-Serif" font-size="14.00">&lt;= 12</text>
</g>
<!-- 21 -->
<g id="node24" class="node">
<title>21</title>
<ellipse fill="#3d76cc" stroke="black" cx="830.6" cy="-35.36" rx="109.7" ry="35.21"/>
<text text-anchor="start" x="787.1" y="-46.16" font-family="Helvetica,sans-Serif" font-weight="bold" font-size="14.00"> Class=no </text>
<text text-anchor="start" x="869.1" y="-46.16" font-family="Helvetica,sans-Serif" font-size="14.00"> </text>
<text text-anchor="start" x="761.1" y="-32.16" font-family="Helvetica,sans-Serif" font-size="14.00"> error: 0.894, n=45 </text>
<text text-anchor="start" x="775.6" y="-18.16" font-family="Helvetica,sans-Serif" font-size="14.00"> p: (0.69, 0.31) </text>
</g>
<!-- 20&#45;&gt;21 -->
<g id="edge23" class="edge">
<title>20:s&#45;&gt;21:n</title>
<path fill="none" stroke="black" d="M830.6,-124.07C830.6,-124.07 830.6,-96.5 830.6,-81"/>
<polygon fill="black" stroke="black" points="834.1,-80.71 830.6,-70.71 827.1,-80.71 834.1,-80.71"/>
<text text-anchor="middle" x="848.1" y="-92.51" font-family="Helvetica,sans-Serif" font-size="14.00">&gt; 28</text>
</g>
<!-- 22 -->
<g id="node25" class="node">
<title>22</title>
<ellipse fill="#3d76cc" stroke="black" cx="1121.6" cy="-35.36" rx="109.7" ry="35.21"/>
<text text-anchor="start" x="1078.1" y="-46.16" font-family="Helvetica,sans-Serif" font-weight="bold" font-size="14.00"> Class=no </text>
<text text-anchor="start" x="1160.1" y="-46.16" font-family="Helvetica,sans-Serif" font-size="14.00"> </text>
<text text-anchor="start" x="1052.1" y="-32.16" font-family="Helvetica,sans-Serif" font-size="14.00"> error: 0.426, n=23 </text>
<text text-anchor="start" x="1066.6" y="-18.16" font-family="Helvetica,sans-Serif" font-size="14.00"> p: (0.91, 0.09) </text>
</g>
<!-- 20&#45;&gt;22 -->
<g id="edge24" class="edge">
<title>20:s&#45;&gt;22:n</title>
<path fill="none" stroke="black" d="M830.6,-124.07C830.6,-124.07 1060.42,-81.93 1111.58,-72.55"/>
<polygon fill="black" stroke="black" points="1112.4,-75.96 1121.6,-70.71 1111.13,-69.07 1112.4,-75.96"/>
<text text-anchor="middle" x="1043.1" y="-92.51" font-family="Helvetica,sans-Serif" font-size="14.00">&lt;= 28</text>
</g>
</g>
</svg>
