<?xml version="1.0" encoding="UTF-8" standalone="no"?>
<!DOCTYPE svg PUBLIC "-//W3C//DTD SVG 1.1//EN"
 "http://www.w3.org/Graphics/SVG/1.1/DTD/svg11.dtd">
<!-- Generated by graphviz version 2.43.0 (0)
 -->
<!-- Title: Tree Pages: 1 -->
<svg width="1849pt" height="1127pt"
 viewBox="0.00 0.00 1848.93 1126.55" xmlns="http://www.w3.org/2000/svg" xmlns:xlink="http://www.w3.org/1999/xlink">
<g id="graph0" class="graph" transform="scale(1 1) rotate(0) translate(18 1108.55)">
<title>Tree</title>
<polygon fill="white" stroke="transparent" points="-18,18 -18,-1108.55 1830.93,-1108.55 1830.93,18 -18,18"/>
<!-- 0 -->
<g id="node1" class="node">
<title>0</title>
<polygon fill="white" stroke="transparent" points="330.97,-1090.55 276.97,-1090.55 276.97,-1054.55 330.97,-1054.55 330.97,-1090.55"/>
<text text-anchor="middle" x="303.97" y="-1068.85" font-family="Helvetica,sans-Serif" font-size="14.00">0</text>
</g>
<!-- 1 -->
<g id="node2" class="node">
<title>1</title>
<polygon fill="#cc3d3d" stroke="black" points="390.47,-1017.55 217.47,-1017.55 217.47,-953.55 390.47,-953.55 390.47,-1017.55"/>
<text text-anchor="start" x="253.97" y="-1003.35" font-family="Helvetica,sans-Serif" font-weight="bold" font-size="14.00"> Class=won </text>
<text text-anchor="start" x="348.97" y="-1003.35" font-family="Helvetica,sans-Serif" font-size="14.00"> </text>
<text text-anchor="start" x="225.47" y="-989.35" font-family="Helvetica,sans-Serif" font-size="14.00"> error: 0.999, n=3196 </text>
<text text-anchor="start" x="248.97" y="-975.35" font-family="Helvetica,sans-Serif" font-size="14.00"> p: (0.48, 0.52) </text>
<text text-anchor="start" x="279.47" y="-961.35" font-family="Helvetica,sans-Serif" font-weight="bold" font-size="14.00">rimmx</text>
</g>
<!-- 0&#45;&gt;1 -->
<!-- 2 -->
<g id="node3" class="node">
<title>2</title>
<ellipse fill="#e58d44" stroke="black" cx="262.97" cy="-867.2" rx="115.93" ry="35.21"/>
<text text-anchor="start" x="212.97" y="-878" font-family="Helvetica,sans-Serif" font-weight="bold" font-size="14.00"> Class=won </text>
<text text-anchor="start" x="307.97" y="-878" font-family="Helvetica,sans-Serif" font-size="14.00"> </text>
<text text-anchor="start" x="188.97" y="-864" font-family="Helvetica,sans-Serif" font-size="14.00"> error: 0.000, n=584 </text>
<text text-anchor="start" x="207.97" y="-850" font-family="Helvetica,sans-Serif" font-size="14.00"> p: (0.00, 1.00) </text>
</g>
<!-- 1&#45;&gt;2 -->
<g id="edge2" class="edge">
<title>1:s&#45;&gt;2:n</title>
<path fill="none" stroke="black" d="M303.97,-953.55C303.97,-953.55 280.9,-924.87 269.37,-910.52"/>
<polygon fill="black" stroke="black" points="271.96,-908.15 262.97,-902.55 266.5,-912.54 271.96,-908.15"/>
<text text-anchor="middle" x="291.97" y="-924.35" font-family="Helvetica,sans-Serif" font-size="14.00">t</text>
</g>
<!-- 3 -->
<g id="node4" class="node">
<title>3</title>
<polygon fill="#e58d44" stroke="black" points="623.47,-899.2 450.47,-899.2 450.47,-835.2 623.47,-835.2 623.47,-899.2"/>
<text text-anchor="start" x="479.97" y="-885" font-family="Helvetica,sans-Serif" font-weight="bold" font-size="14.00"> Class=nowin </text>
<text text-anchor="start" x="588.97" y="-885" font-family="Helvetica,sans-Serif" font-size="14.00"> </text>
<text text-anchor="start" x="458.47" y="-871" font-family="Helvetica,sans-Serif" font-size="14.00"> error: 0.979, n=2612 </text>
<text text-anchor="start" x="481.97" y="-857" font-family="Helvetica,sans-Serif" font-size="14.00"> p: (0.58, 0.42) </text>
<text text-anchor="start" x="513.47" y="-843" font-family="Helvetica,sans-Serif" font-weight="bold" font-size="14.00">bxqsq</text>
</g>
<!-- 1&#45;&gt;3 -->
<g id="edge3" class="edge">
<title>1:s&#45;&gt;3:n</title>
<path fill="none" stroke="black" d="M303.97,-953.55C303.97,-953.55 482.36,-912.7 526.95,-902.49"/>
<polygon fill="black" stroke="black" points="528,-905.84 536.97,-900.2 526.44,-899.02 528,-905.84"/>
<text text-anchor="middle" x="444.97" y="-924.35" font-family="Helvetica,sans-Serif" font-size="14.00">f</text>
</g>
<!-- 4 -->
<g id="node5" class="node">
<title>4</title>
<ellipse fill="#ccbd3d" stroke="black" cx="447.97" cy="-745.49" rx="115.93" ry="35.21"/>
<text text-anchor="start" x="390.97" y="-756.29" font-family="Helvetica,sans-Serif" font-weight="bold" font-size="14.00"> Class=nowin </text>
<text text-anchor="start" x="499.97" y="-756.29" font-family="Helvetica,sans-Serif" font-size="14.00"> </text>
<text text-anchor="start" x="373.97" y="-742.29" font-family="Helvetica,sans-Serif" font-size="14.00"> error: 0.000, n=743 </text>
<text text-anchor="start" x="392.97" y="-728.29" font-family="Helvetica,sans-Serif" font-size="14.00"> p: (1.00, 0.00) </text>
</g>
<!-- 3&#45;&gt;4 -->
<g id="edge4" class="edge">
<title>3:s&#45;&gt;4:n</title>
<path fill="none" stroke="black" d="M536.97,-834.2C536.97,-834.2 479.34,-799.65 456.82,-786.15"/>
<polygon fill="black" stroke="black" points="458.34,-782.98 447.97,-780.84 454.74,-788.99 458.34,-782.98"/>
<text text-anchor="middle" x="503.97" y="-802.64" font-family="Helvetica,sans-Serif" font-size="14.00">t</text>
</g>
<!-- 5 -->
<g id="node6" class="node">
<title>5</title>
<polygon fill="#ccbd3d" stroke="black" points="808.47,-777.49 635.47,-777.49 635.47,-713.49 808.47,-713.49 808.47,-777.49"/>
<text text-anchor="start" x="671.97" y="-763.29" font-family="Helvetica,sans-Serif" font-weight="bold" font-size="14.00"> Class=won </text>
<text text-anchor="start" x="766.97" y="-763.29" font-family="Helvetica,sans-Serif" font-size="14.00"> </text>
<text text-anchor="start" x="643.47" y="-749.29" font-family="Helvetica,sans-Serif" font-size="14.00"> error: 0.981, n=1869 </text>
<text text-anchor="start" x="666.97" y="-735.29" font-family="Helvetica,sans-Serif" font-size="14.00"> p: (0.42, 0.58) </text>
<text text-anchor="start" x="697.47" y="-721.29" font-family="Helvetica,sans-Serif" font-weight="bold" font-size="14.00">wknck</text>
</g>
<!-- 3&#45;&gt;5 -->
<g id="edge5" class="edge">
<title>3:s&#45;&gt;5:n</title>
<path fill="none" stroke="black" d="M536.97,-834.2C536.97,-834.2 674.21,-792.87 712.28,-781.4"/>
<polygon fill="black" stroke="black" points="713.4,-784.72 721.97,-778.49 711.38,-778.02 713.4,-784.72"/>
<text text-anchor="middle" x="654.97" y="-802.64" font-family="Helvetica,sans-Serif" font-size="14.00">f</text>
</g>
<!-- 6 -->
<g id="node7" class="node">
<title>6</title>
<polygon fill="#ade544" stroke="black" points="645.97,-659.13 481.97,-659.13 481.97,-595.13 645.97,-595.13 645.97,-659.13"/>
<text text-anchor="start" x="506.97" y="-644.93" font-family="Helvetica,sans-Serif" font-weight="bold" font-size="14.00"> Class=nowin </text>
<text text-anchor="start" x="615.97" y="-644.93" font-family="Helvetica,sans-Serif" font-size="14.00"> </text>
<text text-anchor="start" x="489.97" y="-630.93" font-family="Helvetica,sans-Serif" font-size="14.00"> error: 0.405, n=570 </text>
<text text-anchor="start" x="508.97" y="-616.93" font-family="Helvetica,sans-Serif" font-size="14.00"> p: (0.92, 0.08) </text>
<text text-anchor="start" x="540.97" y="-602.93" font-family="Helvetica,sans-Serif" font-weight="bold" font-size="14.00">wkovl</text>
</g>
<!-- 5&#45;&gt;6 -->
<g id="edge6" class="edge">
<title>5:s&#45;&gt;6:n</title>
<path fill="none" stroke="black" d="M721.97,-712.49C721.97,-712.49 608.44,-674.15 573.85,-662.47"/>
<polygon fill="black" stroke="black" points="574.56,-659.02 563.97,-659.13 572.32,-665.65 574.56,-659.02"/>
<text text-anchor="middle" x="660.97" y="-680.93" font-family="Helvetica,sans-Serif" font-size="14.00">t</text>
</g>
<!-- 13 -->
<g id="node8" class="node">
<title>13</title>
<polygon fill="#ade544" stroke="black" points="1046.47,-659.13 873.47,-659.13 873.47,-595.13 1046.47,-595.13 1046.47,-659.13"/>
<text text-anchor="start" x="909.97" y="-644.93" font-family="Helvetica,sans-Serif" font-weight="bold" font-size="14.00"> Class=won </text>
<text text-anchor="start" x="1004.97" y="-644.93" font-family="Helvetica,sans-Serif" font-size="14.00"> </text>
<text text-anchor="start" x="881.47" y="-630.93" font-family="Helvetica,sans-Serif" font-size="14.00"> error: 0.722, n=1299 </text>
<text text-anchor="start" x="904.97" y="-616.93" font-family="Helvetica,sans-Serif" font-size="14.00"> p: (0.20, 0.80) </text>
<text text-anchor="start" x="933.97" y="-602.93" font-family="Helvetica,sans-Serif" font-weight="bold" font-size="14.00">wkna8</text>
</g>
<!-- 5&#45;&gt;13 -->
<g id="edge7" class="edge">
<title>5:s&#45;&gt;13:n</title>
<path fill="none" stroke="black" d="M721.97,-712.49C721.97,-712.49 905,-671.45 950.04,-661.36"/>
<polygon fill="black" stroke="black" points="950.97,-664.73 959.97,-659.13 949.44,-657.9 950.97,-664.73"/>
<text text-anchor="middle" x="879.97" y="-680.93" font-family="Helvetica,sans-Serif" font-size="14.00">f</text>
</g>
<!-- 7 -->
<g id="node9" class="node">
<title>7</title>
<polygon fill="#59cc3d" stroke="black" points="240.97,-544.13 76.97,-544.13 76.97,-480.13 240.97,-480.13 240.97,-544.13"/>
<text text-anchor="start" x="101.97" y="-529.93" font-family="Helvetica,sans-Serif" font-weight="bold" font-size="14.00"> Class=nowin </text>
<text text-anchor="start" x="210.97" y="-529.93" font-family="Helvetica,sans-Serif" font-size="14.00"> </text>
<text text-anchor="start" x="84.97" y="-515.93" font-family="Helvetica,sans-Serif" font-size="14.00"> error: 0.079, n=310 </text>
<text text-anchor="start" x="103.97" y="-501.93" font-family="Helvetica,sans-Serif" font-size="14.00"> p: (0.99, 0.01) </text>
<text text-anchor="start" x="133.47" y="-487.93" font-family="Helvetica,sans-Serif" font-weight="bold" font-size="14.00">bknwy</text>
</g>
<!-- 6&#45;&gt;7 -->
<g id="edge8" class="edge">
<title>6:s&#45;&gt;7:n</title>
<path fill="none" stroke="black" d="M563.97,-595.13C563.97,-595.13 231.34,-553.25 168.98,-545.39"/>
<polygon fill="black" stroke="black" points="169.32,-541.91 158.97,-544.13 168.45,-548.85 169.32,-541.91"/>
<text text-anchor="middle" x="412.97" y="-565.93" font-family="Helvetica,sans-Serif" font-size="14.00">t</text>
</g>
<!-- 9 -->
<g id="node10" class="node">
<title>9</title>
<polygon fill="#59cc3d" stroke="black" points="645.97,-544.13 481.97,-544.13 481.97,-480.13 645.97,-480.13 645.97,-544.13"/>
<text text-anchor="start" x="506.97" y="-529.93" font-family="Helvetica,sans-Serif" font-weight="bold" font-size="14.00"> Class=nowin </text>
<text text-anchor="start" x="615.97" y="-529.93" font-family="Helvetica,sans-Serif" font-size="14.00"> </text>
<text text-anchor="start" x="489.97" y="-515.93" font-family="Helvetica,sans-Serif" font-size="14.00"> error: 0.647, n=260 </text>
<text text-anchor="start" x="508.97" y="-501.93" font-family="Helvetica,sans-Serif" font-size="14.00"> p: (0.83, 0.17) </text>
<text text-anchor="start" x="542.47" y="-487.93" font-family="Helvetica,sans-Serif" font-weight="bold" font-size="14.00">bkxcr</text>
</g>
<!-- 6&#45;&gt;9 -->
<g id="edge9" class="edge">
<title>6:s&#45;&gt;9:n</title>
<path fill="none" stroke="black" d="M563.97,-595.13C563.97,-595.13 563.97,-569.35 563.97,-554.45"/>
<polygon fill="black" stroke="black" points="567.47,-554.13 563.97,-544.13 560.47,-554.13 567.47,-554.13"/>
<text text-anchor="middle" x="566.97" y="-565.93" font-family="Helvetica,sans-Serif" font-size="14.00">f</text>
</g>
<!-- 14 -->
<g id="node15" class="node">
<title>14</title>
<polygon fill="#59cc3d" stroke="black" points="1041.97,-544.13 877.97,-544.13 877.97,-480.13 1041.97,-480.13 1041.97,-544.13"/>
<text text-anchor="start" x="902.97" y="-529.93" font-family="Helvetica,sans-Serif" font-weight="bold" font-size="14.00"> Class=nowin </text>
<text text-anchor="start" x="1011.97" y="-529.93" font-family="Helvetica,sans-Serif" font-size="14.00"> </text>
<text text-anchor="start" x="885.97" y="-515.93" font-family="Helvetica,sans-Serif" font-size="14.00"> error: 0.165, n=123 </text>
<text text-anchor="start" x="904.97" y="-501.93" font-family="Helvetica,sans-Serif" font-size="14.00"> p: (0.98, 0.02) </text>
<text text-anchor="start" x="934.47" y="-487.93" font-family="Helvetica,sans-Serif" font-weight="bold" font-size="14.00">bknwy</text>
</g>
<!-- 13&#45;&gt;14 -->
<g id="edge14" class="edge">
<title>13:s&#45;&gt;14:n</title>
<path fill="none" stroke="black" d="M959.97,-595.13C959.97,-595.13 959.97,-569.35 959.97,-554.45"/>
<polygon fill="black" stroke="black" points="963.47,-554.13 959.97,-544.13 956.47,-554.13 963.47,-554.13"/>
<text text-anchor="middle" x="962.97" y="-565.93" font-family="Helvetica,sans-Serif" font-size="14.00">t</text>
</g>
<!-- 16 -->
<g id="node16" class="node">
<title>16</title>
<polygon fill="#59cc3d" stroke="black" points="1350.47,-544.13 1177.47,-544.13 1177.47,-480.13 1350.47,-480.13 1350.47,-544.13"/>
<text text-anchor="start" x="1213.97" y="-529.93" font-family="Helvetica,sans-Serif" font-weight="bold" font-size="14.00"> Class=won </text>
<text text-anchor="start" x="1308.97" y="-529.93" font-family="Helvetica,sans-Serif" font-size="14.00"> </text>
<text text-anchor="start" x="1185.47" y="-515.93" font-family="Helvetica,sans-Serif" font-size="14.00"> error: 0.527, n=1176 </text>
<text text-anchor="start" x="1208.97" y="-501.93" font-family="Helvetica,sans-Serif" font-size="14.00"> p: (0.12, 0.88) </text>
<text text-anchor="start" x="1239.97" y="-487.93" font-family="Helvetica,sans-Serif" font-weight="bold" font-size="14.00">bkxbq</text>
</g>
<!-- 13&#45;&gt;16 -->
<g id="edge15" class="edge">
<title>13:s&#45;&gt;16:n</title>
<path fill="none" stroke="black" d="M959.97,-595.13C959.97,-595.13 1201.1,-554.68 1253.85,-545.83"/>
<polygon fill="black" stroke="black" points="1254.68,-549.24 1263.97,-544.13 1253.52,-542.33 1254.68,-549.24"/>
<text text-anchor="middle" x="1151.97" y="-565.93" font-family="Helvetica,sans-Serif" font-size="14.00">f</text>
</g>
<!-- 8 -->
<g id="node11" class="node">
<title>8</title>
<ellipse fill="#44e56d" stroke="black" cx="115.97" cy="-393.78" rx="115.93" ry="35.21"/>
<text text-anchor="start" x="58.97" y="-404.58" font-family="Helvetica,sans-Serif" font-weight="bold" font-size="14.00"> Class=nowin </text>
<text text-anchor="start" x="167.97" y="-404.58" font-family="Helvetica,sans-Serif" font-size="14.00"> </text>
<text text-anchor="start" x="41.97" y="-390.58" font-family="Helvetica,sans-Serif" font-size="14.00"> error: 0.000, n=302 </text>
<text text-anchor="start" x="60.97" y="-376.58" font-family="Helvetica,sans-Serif" font-size="14.00"> p: (1.00, 0.00) </text>
</g>
<!-- 7&#45;&gt;8 -->
<g id="edge10" class="edge">
<title>7:s&#45;&gt;8:n</title>
<path fill="none" stroke="black" d="M158.97,-480.13C158.97,-480.13 134.78,-451.44 122.68,-437.1"/>
<polygon fill="black" stroke="black" points="125.09,-434.52 115.97,-429.13 119.74,-439.03 125.09,-434.52"/>
<text text-anchor="middle" x="145.97" y="-450.93" font-family="Helvetica,sans-Serif" font-size="14.00">f</text>
</g>
<!-- 10 -->
<g id="node12" class="node">
<title>10</title>
<ellipse fill="#44e56d" stroke="black" cx="419.97" cy="-393.78" rx="115.93" ry="35.21"/>
<text text-anchor="start" x="362.97" y="-404.58" font-family="Helvetica,sans-Serif" font-weight="bold" font-size="14.00"> Class=nowin </text>
<text text-anchor="start" x="471.97" y="-404.58" font-family="Helvetica,sans-Serif" font-size="14.00"> </text>
<text text-anchor="start" x="345.97" y="-390.58" font-family="Helvetica,sans-Serif" font-size="14.00"> error: 0.000, n=118 </text>
<text text-anchor="start" x="364.97" y="-376.58" font-family="Helvetica,sans-Serif" font-size="14.00"> p: (1.00, 0.00) </text>
</g>
<!-- 9&#45;&gt;10 -->
<g id="edge11" class="edge">
<title>9:s&#45;&gt;10:n</title>
<path fill="none" stroke="black" d="M563.97,-480.13C563.97,-480.13 461.45,-443.82 429.41,-432.48"/>
<polygon fill="black" stroke="black" points="430.56,-429.17 419.97,-429.13 428.22,-435.77 430.56,-429.17"/>
<text text-anchor="middle" x="512.97" y="-450.93" font-family="Helvetica,sans-Serif" font-size="14.00">t</text>
</g>
<!-- 11 -->
<g id="node13" class="node">
<title>11</title>
<polygon fill="#44e56d" stroke="black" points="771.97,-425.78 607.97,-425.78 607.97,-361.78 771.97,-361.78 771.97,-425.78"/>
<text text-anchor="start" x="632.97" y="-411.58" font-family="Helvetica,sans-Serif" font-weight="bold" font-size="14.00"> Class=nowin </text>
<text text-anchor="start" x="741.97" y="-411.58" font-family="Helvetica,sans-Serif" font-size="14.00"> </text>
<text text-anchor="start" x="615.97" y="-397.58" font-family="Helvetica,sans-Serif" font-size="14.00"> error: 0.885, n=142 </text>
<text text-anchor="start" x="634.97" y="-383.58" font-family="Helvetica,sans-Serif" font-size="14.00"> p: (0.70, 0.30) </text>
<text text-anchor="start" x="668.47" y="-369.58" font-family="Helvetica,sans-Serif" font-weight="bold" font-size="14.00">skrxp</text>
</g>
<!-- 9&#45;&gt;11 -->
<g id="edge12" class="edge">
<title>9:s&#45;&gt;11:n</title>
<path fill="none" stroke="black" d="M563.97,-480.13C563.97,-480.13 651.19,-443.2 680.5,-430.79"/>
<polygon fill="black" stroke="black" points="682.12,-433.9 689.97,-426.78 679.39,-427.45 682.12,-433.9"/>
<text text-anchor="middle" x="641.97" y="-450.93" font-family="Helvetica,sans-Serif" font-size="14.00">f</text>
</g>
<!-- 12 -->
<g id="node14" class="node">
<title>12</title>
<ellipse fill="#3dcca1" stroke="black" cx="689.97" cy="-272.07" rx="115.93" ry="35.21"/>
<text text-anchor="start" x="632.97" y="-282.87" font-family="Helvetica,sans-Serif" font-weight="bold" font-size="14.00"> Class=nowin </text>
<text text-anchor="start" x="741.97" y="-282.87" font-family="Helvetica,sans-Serif" font-size="14.00"> </text>
<text text-anchor="start" x="615.97" y="-268.87" font-family="Helvetica,sans-Serif" font-size="14.00"> error: 0.986, n=100 </text>
<text text-anchor="start" x="634.97" y="-254.87" font-family="Helvetica,sans-Serif" font-size="14.00"> p: (0.57, 0.43) </text>
</g>
<!-- 11&#45;&gt;12 -->
<g id="edge13" class="edge">
<title>11:s&#45;&gt;12:n</title>
<path fill="none" stroke="black" d="M689.97,-360.78C689.97,-360.78 689.97,-333.21 689.97,-317.71"/>
<polygon fill="black" stroke="black" points="693.47,-317.42 689.97,-307.42 686.47,-317.42 693.47,-317.42"/>
<text text-anchor="middle" x="692.97" y="-329.22" font-family="Helvetica,sans-Serif" font-size="14.00">f</text>
</g>
<!-- 15 -->
<g id="node17" class="node">
<title>15</title>
<ellipse fill="#44e56d" stroke="black" cx="959.97" cy="-393.78" rx="115.93" ry="35.21"/>
<text text-anchor="start" x="902.97" y="-404.58" font-family="Helvetica,sans-Serif" font-weight="bold" font-size="14.00"> Class=nowin </text>
<text text-anchor="start" x="1011.97" y="-404.58" font-family="Helvetica,sans-Serif" font-size="14.00"> </text>
<text text-anchor="start" x="885.97" y="-390.58" font-family="Helvetica,sans-Serif" font-size="14.00"> error: 0.000, n=106 </text>
<text text-anchor="start" x="904.97" y="-376.58" font-family="Helvetica,sans-Serif" font-size="14.00"> p: (1.00, 0.00) </text>
</g>
<!-- 14&#45;&gt;15 -->
<g id="edge16" class="edge">
<title>14:s&#45;&gt;15:n</title>
<path fill="none" stroke="black" d="M959.97,-480.13C959.97,-480.13 959.97,-454.35 959.97,-439.45"/>
<polygon fill="black" stroke="black" points="963.47,-439.13 959.97,-429.13 956.47,-439.13 963.47,-439.13"/>
<text text-anchor="middle" x="962.97" y="-450.93" font-family="Helvetica,sans-Serif" font-size="14.00">f</text>
</g>
<!-- 17 -->
<g id="node18" class="node">
<title>17</title>
<ellipse fill="#44e56d" stroke="black" cx="1263.97" cy="-393.78" rx="115.93" ry="35.21"/>
<text text-anchor="start" x="1213.97" y="-404.58" font-family="Helvetica,sans-Serif" font-weight="bold" font-size="14.00"> Class=won </text>
<text text-anchor="start" x="1308.97" y="-404.58" font-family="Helvetica,sans-Serif" font-size="14.00"> </text>
<text text-anchor="start" x="1189.97" y="-390.58" font-family="Helvetica,sans-Serif" font-size="14.00"> error: 0.000, n=599 </text>
<text text-anchor="start" x="1208.97" y="-376.58" font-family="Helvetica,sans-Serif" font-size="14.00"> p: (0.00, 1.00) </text>
</g>
<!-- 16&#45;&gt;17 -->
<g id="edge17" class="edge">
<title>16:s&#45;&gt;17:n</title>
<path fill="none" stroke="black" d="M1263.97,-480.13C1263.97,-480.13 1263.97,-454.35 1263.97,-439.45"/>
<polygon fill="black" stroke="black" points="1267.47,-439.13 1263.97,-429.13 1260.47,-439.13 1267.47,-439.13"/>
<text text-anchor="middle" x="1266.97" y="-450.93" font-family="Helvetica,sans-Serif" font-size="14.00">t</text>
</g>
<!-- 18 -->
<g id="node19" class="node">
<title>18</title>
<polygon fill="#44e56d" stroke="black" points="1615.97,-425.78 1451.97,-425.78 1451.97,-361.78 1615.97,-361.78 1615.97,-425.78"/>
<text text-anchor="start" x="1483.97" y="-411.58" font-family="Helvetica,sans-Serif" font-weight="bold" font-size="14.00"> Class=won </text>
<text text-anchor="start" x="1578.97" y="-411.58" font-family="Helvetica,sans-Serif" font-size="14.00"> </text>
<text text-anchor="start" x="1459.97" y="-397.58" font-family="Helvetica,sans-Serif" font-size="14.00"> error: 0.799, n=577 </text>
<text text-anchor="start" x="1478.97" y="-383.58" font-family="Helvetica,sans-Serif" font-size="14.00"> p: (0.24, 0.76) </text>
<text text-anchor="start" x="1508.97" y="-369.58" font-family="Helvetica,sans-Serif" font-weight="bold" font-size="14.00">wkpos</text>
</g>
<!-- 16&#45;&gt;18 -->
<g id="edge18" class="edge">
<title>16:s&#45;&gt;18:n</title>
<path fill="none" stroke="black" d="M1263.97,-480.13C1263.97,-480.13 1475.32,-438.36 1524.04,-428.74"/>
<polygon fill="black" stroke="black" points="1524.83,-432.15 1533.97,-426.78 1523.48,-425.28 1524.83,-432.15"/>
<text text-anchor="middle" x="1426.97" y="-450.93" font-family="Helvetica,sans-Serif" font-size="14.00">f</text>
</g>
<!-- 19 -->
<g id="node20" class="node">
<title>19</title>
<polygon fill="#3dcca1" stroke="black" points="1504.97,-304.07 1340.97,-304.07 1340.97,-240.07 1504.97,-240.07 1504.97,-304.07"/>
<text text-anchor="start" x="1365.97" y="-289.87" font-family="Helvetica,sans-Serif" font-weight="bold" font-size="14.00"> Class=nowin </text>
<text text-anchor="start" x="1474.97" y="-289.87" font-family="Helvetica,sans-Serif" font-size="14.00"> </text>
<text text-anchor="start" x="1348.97" y="-275.87" font-family="Helvetica,sans-Serif" font-size="14.00"> error: 1.000, n=199 </text>
<text text-anchor="start" x="1367.97" y="-261.87" font-family="Helvetica,sans-Serif" font-size="14.00"> p: (0.51, 0.49) </text>
<text text-anchor="start" x="1404.47" y="-247.87" font-family="Helvetica,sans-Serif" font-weight="bold" font-size="14.00">katri</text>
</g>
<!-- 18&#45;&gt;19 -->
<g id="edge19" class="edge">
<title>18:s&#45;&gt;19:n</title>
<path fill="none" stroke="black" d="M1533.97,-360.78C1533.97,-360.78 1458.56,-322.93 1432.05,-309.63"/>
<polygon fill="black" stroke="black" points="1433.47,-306.42 1422.97,-305.07 1430.33,-312.68 1433.47,-306.42"/>
<text text-anchor="middle" x="1494.97" y="-329.22" font-family="Helvetica,sans-Serif" font-size="14.00">f</text>
</g>
<!-- 22 -->
<g id="node21" class="node">
<title>22</title>
<polygon fill="#3dcca1" stroke="black" points="1755.97,-304.07 1591.97,-304.07 1591.97,-240.07 1755.97,-240.07 1755.97,-304.07"/>
<text text-anchor="start" x="1623.97" y="-289.87" font-family="Helvetica,sans-Serif" font-weight="bold" font-size="14.00"> Class=won </text>
<text text-anchor="start" x="1718.97" y="-289.87" font-family="Helvetica,sans-Serif" font-size="14.00"> </text>
<text text-anchor="start" x="1599.97" y="-275.87" font-family="Helvetica,sans-Serif" font-size="14.00"> error: 0.471, n=378 </text>
<text text-anchor="start" x="1618.97" y="-261.87" font-family="Helvetica,sans-Serif" font-size="14.00"> p: (0.10, 0.90) </text>
<text text-anchor="start" x="1655.47" y="-247.87" font-family="Helvetica,sans-Serif" font-weight="bold" font-size="14.00">katri</text>
</g>
<!-- 18&#45;&gt;22 -->
<g id="edge20" class="edge">
<title>18:s&#45;&gt;22:n</title>
<path fill="none" stroke="black" d="M1533.97,-360.78C1533.97,-360.78 1632.71,-321.48 1664.34,-308.9"/>
<polygon fill="black" stroke="black" points="1665.97,-312.02 1673.97,-305.07 1663.38,-305.51 1665.97,-312.02"/>
<text text-anchor="middle" x="1623.97" y="-329.22" font-family="Helvetica,sans-Serif" font-size="14.00">t</text>
</g>
<!-- 20 -->
<g id="node22" class="node">
<title>20</title>
<polygon fill="#44cde5" stroke="black" points="1496.97,-185.71 1332.97,-185.71 1332.97,-121.71 1496.97,-121.71 1496.97,-185.71"/>
<text text-anchor="start" x="1357.97" y="-171.51" font-family="Helvetica,sans-Serif" font-weight="bold" font-size="14.00"> Class=nowin </text>
<text text-anchor="start" x="1466.97" y="-171.51" font-family="Helvetica,sans-Serif" font-size="14.00"> </text>
<text text-anchor="start" x="1340.97" y="-157.51" font-family="Helvetica,sans-Serif" font-size="14.00"> error: 0.796, n=108 </text>
<text text-anchor="start" x="1359.97" y="-143.51" font-family="Helvetica,sans-Serif" font-size="14.00"> p: (0.76, 0.24) </text>
<text text-anchor="start" x="1393.47" y="-129.51" font-family="Helvetica,sans-Serif" font-weight="bold" font-size="14.00">bkblk</text>
</g>
<!-- 19&#45;&gt;20 -->
<g id="edge21" class="edge">
<title>19:s&#45;&gt;20:n</title>
<path fill="none" stroke="black" d="M1422.97,-239.07C1422.97,-239.07 1418.83,-211.5 1416.51,-196"/>
<polygon fill="black" stroke="black" points="1419.91,-195.08 1414.97,-185.71 1412.99,-196.12 1419.91,-195.08"/>
<text text-anchor="middle" x="1424.97" y="-207.51" font-family="Helvetica,sans-Serif" font-size="14.00">n</text>
</g>
<!-- 23 -->
<g id="node24" class="node">
<title>23</title>
<polygon fill="#44cde5" stroke="black" points="1763.97,-185.71 1599.97,-185.71 1599.97,-121.71 1763.97,-121.71 1763.97,-185.71"/>
<text text-anchor="start" x="1631.97" y="-171.51" font-family="Helvetica,sans-Serif" font-weight="bold" font-size="14.00"> Class=won </text>
<text text-anchor="start" x="1726.97" y="-171.51" font-family="Helvetica,sans-Serif" font-size="14.00"> </text>
<text text-anchor="start" x="1607.97" y="-157.51" font-family="Helvetica,sans-Serif" font-size="14.00"> error: 0.315, n=299 </text>
<text text-anchor="start" x="1626.97" y="-143.51" font-family="Helvetica,sans-Serif" font-size="14.00"> p: (0.06, 0.94) </text>
<text text-anchor="start" x="1657.47" y="-129.51" font-family="Helvetica,sans-Serif" font-weight="bold" font-size="14.00">rxmsq</text>
</g>
<!-- 22&#45;&gt;23 -->
<g id="edge23" class="edge">
<title>22:s&#45;&gt;23:n</title>
<path fill="none" stroke="black" d="M1673.97,-239.07C1673.97,-239.07 1678.1,-211.5 1680.42,-196"/>
<polygon fill="black" stroke="black" points="1683.94,-196.12 1681.97,-185.71 1677.02,-195.08 1683.94,-196.12"/>
<text text-anchor="middle" x="1684.97" y="-207.51" font-family="Helvetica,sans-Serif" font-size="14.00">n</text>
</g>
<!-- 21 -->
<g id="node23" class="node">
<title>21</title>
<ellipse fill="#3d76cc" stroke="black" cx="1398.97" cy="-35.36" rx="109.7" ry="35.21"/>
<text text-anchor="start" x="1341.97" y="-46.16" font-family="Helvetica,sans-Serif" font-weight="bold" font-size="14.00"> Class=nowin </text>
<text text-anchor="start" x="1450.97" y="-46.16" font-family="Helvetica,sans-Serif" font-size="14.00"> </text>
<text text-anchor="start" x="1329.47" y="-32.16" font-family="Helvetica,sans-Serif" font-size="14.00"> error: 0.281, n=82 </text>
<text text-anchor="start" x="1343.97" y="-18.16" font-family="Helvetica,sans-Serif" font-size="14.00"> p: (0.95, 0.05) </text>
</g>
<!-- 20&#45;&gt;21 -->
<g id="edge22" class="edge">
<title>20:s&#45;&gt;21:n</title>
<path fill="none" stroke="black" d="M1414.97,-121.71C1414.97,-121.71 1406.7,-95.36 1402.05,-80.54"/>
<polygon fill="black" stroke="black" points="1405.3,-79.2 1398.97,-70.71 1398.62,-81.3 1405.3,-79.2"/>
<text text-anchor="middle" x="1411.97" y="-92.51" font-family="Helvetica,sans-Serif" font-size="14.00">f</text>
</g>
<!-- 24 -->
<g id="node25" class="node">
<title>24</title>
<ellipse fill="#3d76cc" stroke="black" cx="1696.97" cy="-35.36" rx="115.93" ry="35.21"/>
<text text-anchor="start" x="1646.97" y="-46.16" font-family="Helvetica,sans-Serif" font-weight="bold" font-size="14.00"> Class=won </text>
<text text-anchor="start" x="1741.97" y="-46.16" font-family="Helvetica,sans-Serif" font-size="14.00"> </text>
<text text-anchor="start" x="1622.97" y="-32.16" font-family="Helvetica,sans-Serif" font-size="14.00"> error: 0.066, n=257 </text>
<text text-anchor="start" x="1641.97" y="-18.16" font-family="Helvetica,sans-Serif" font-size="14.00"> p: (0.01, 0.99) </text>
</g>
<!-- 23&#45;&gt;24 -->
<g id="edge24" class="edge">
<title>23:s&#45;&gt;24:n</title>
<path fill="none" stroke="black" d="M1681.97,-121.71C1681.97,-121.71 1689.71,-95.36 1694.07,-80.54"/>
<polygon fill="black" stroke="black" points="1697.5,-81.29 1696.97,-70.71 1690.79,-79.32 1697.5,-81.29"/>
<text text-anchor="middle" x="1694.97" y="-92.51" font-family="Helvetica,sans-Serif" font-size="14.00">f</text>
</g>
</g>
</svg>
