<?xml version="1.0" encoding="UTF-8" standalone="no"?>
<!DOCTYPE svg PUBLIC "-//W3C//DTD SVG 1.1//EN"
 "http://www.w3.org/Graphics/SVG/1.1/DTD/svg11.dtd">
<!-- Generated by graphviz version 2.43.0 (0)
 -->
<!-- Title: Tree Pages: 1 -->
<svg width="1939pt" height="1127pt"
 viewBox="0.00 0.00 1938.66 1126.55" xmlns="http://www.w3.org/2000/svg" xmlns:xlink="http://www.w3.org/1999/xlink">
<g id="graph0" class="graph" transform="scale(1 1) rotate(0) translate(18 1108.55)">
<title>Tree</title>
<polygon fill="white" stroke="transparent" points="-18,18 -18,-1108.55 1920.66,-1108.55 1920.66,18 -18,18"/>
<!-- 0 -->
<g id="node1" class="node">
<title>0</title>
<polygon fill="white" stroke="transparent" points="1018.33,-1090.55 964.33,-1090.55 964.33,-1054.55 1018.33,-1054.55 1018.33,-1090.55"/>
<text text-anchor="middle" x="991.33" y="-1068.85" font-family="Helvetica,sans-Serif" font-size="14.00">0</text>
</g>
<!-- 1 -->
<g id="node2" class="node">
<title>1</title>
<polygon fill="#cc3d3d" stroke="black" points="1077.83,-1017.55 904.83,-1017.55 904.83,-953.55 1077.83,-953.55 1077.83,-1017.55"/>
<text text-anchor="start" x="941.33" y="-1003.35" font-family="Helvetica,sans-Serif" font-weight="bold" font-size="14.00"> Class=won </text>
<text text-anchor="start" x="1036.33" y="-1003.35" font-family="Helvetica,sans-Serif" font-size="14.00"> </text>
<text text-anchor="start" x="912.83" y="-989.35" font-family="Helvetica,sans-Serif" font-size="14.00"> error: 0.999, n=3196 </text>
<text text-anchor="start" x="936.33" y="-975.35" font-family="Helvetica,sans-Serif" font-size="14.00"> p: (0.48, 0.52) </text>
<text text-anchor="start" x="966.83" y="-961.35" font-family="Helvetica,sans-Serif" font-weight="bold" font-size="14.00">rimmx</text>
</g>
<!-- 0&#45;&gt;1 -->
<!-- 2 -->
<g id="node3" class="node">
<title>2</title>
<ellipse fill="#e58d44" stroke="black" cx="950.33" cy="-867.2" rx="122.16" ry="35.21"/>
<text text-anchor="start" x="900.33" y="-878" font-family="Helvetica,sans-Serif" font-weight="bold" font-size="14.00"> Class=won </text>
<text text-anchor="start" x="995.33" y="-878" font-family="Helvetica,sans-Serif" font-size="14.00"> </text>
<text text-anchor="start" x="871.83" y="-864" font-family="Helvetica,sans-Serif" font-size="14.00"> error: 0.000, n=3196 </text>
<text text-anchor="start" x="895.33" y="-850" font-family="Helvetica,sans-Serif" font-size="14.00"> p: (0.00, 1.00) </text>
</g>
<!-- 1&#45;&gt;2 -->
<g id="edge2" class="edge">
<title>1:s&#45;&gt;2:n</title>
<path fill="none" stroke="black" d="M991.33,-953.55C991.33,-953.55 968.27,-924.87 956.74,-910.52"/>
<polygon fill="black" stroke="black" points="959.32,-908.15 950.33,-902.55 953.87,-912.54 959.32,-908.15"/>
<text text-anchor="middle" x="979.33" y="-924.35" font-family="Helvetica,sans-Serif" font-size="14.00">t</text>
</g>
<!-- 3 -->
<g id="node4" class="node">
<title>3</title>
<polygon fill="#e58d44" stroke="black" points="1317.83,-899.2 1144.83,-899.2 1144.83,-835.2 1317.83,-835.2 1317.83,-899.2"/>
<text text-anchor="start" x="1174.33" y="-885" font-family="Helvetica,sans-Serif" font-weight="bold" font-size="14.00"> Class=nowin </text>
<text text-anchor="start" x="1283.33" y="-885" font-family="Helvetica,sans-Serif" font-size="14.00"> </text>
<text text-anchor="start" x="1152.83" y="-871" font-family="Helvetica,sans-Serif" font-size="14.00"> error: 0.979, n=3196 </text>
<text text-anchor="start" x="1176.33" y="-857" font-family="Helvetica,sans-Serif" font-size="14.00"> p: (0.58, 0.42) </text>
<text text-anchor="start" x="1207.83" y="-843" font-family="Helvetica,sans-Serif" font-weight="bold" font-size="14.00">bxqsq</text>
</g>
<!-- 1&#45;&gt;3 -->
<g id="edge3" class="edge">
<title>1:s&#45;&gt;3:n</title>
<path fill="none" stroke="black" d="M991.33,-953.55C991.33,-953.55 1175.9,-912.52 1221.32,-902.42"/>
<polygon fill="black" stroke="black" points="1222.33,-905.78 1231.33,-900.2 1220.81,-898.95 1222.33,-905.78"/>
<text text-anchor="middle" x="1136.33" y="-924.35" font-family="Helvetica,sans-Serif" font-size="14.00">f</text>
</g>
<!-- 4 -->
<g id="node5" class="node">
<title>4</title>
<polygon fill="#ccbd3d" stroke="black" points="1127.83,-777.49 954.83,-777.49 954.83,-713.49 1127.83,-713.49 1127.83,-777.49"/>
<text text-anchor="start" x="991.33" y="-763.29" font-family="Helvetica,sans-Serif" font-weight="bold" font-size="14.00"> Class=won </text>
<text text-anchor="start" x="1086.33" y="-763.29" font-family="Helvetica,sans-Serif" font-size="14.00"> </text>
<text text-anchor="start" x="962.83" y="-749.29" font-family="Helvetica,sans-Serif" font-size="14.00"> error: 0.981, n=3196 </text>
<text text-anchor="start" x="986.33" y="-735.29" font-family="Helvetica,sans-Serif" font-size="14.00"> p: (0.42, 0.58) </text>
<text text-anchor="start" x="1016.83" y="-721.29" font-family="Helvetica,sans-Serif" font-weight="bold" font-size="14.00">wknck</text>
</g>
<!-- 3&#45;&gt;4 -->
<g id="edge4" class="edge">
<title>3:s&#45;&gt;4:n</title>
<path fill="none" stroke="black" d="M1231.33,-834.2C1231.33,-834.2 1089.73,-792.68 1051.01,-781.33"/>
<polygon fill="black" stroke="black" points="1051.91,-777.94 1041.33,-778.49 1049.94,-784.66 1051.91,-777.94"/>
<text text-anchor="middle" x="1162.33" y="-802.64" font-family="Helvetica,sans-Serif" font-size="14.00">f</text>
</g>
<!-- 24 -->
<g id="node6" class="node">
<title>24</title>
<ellipse fill="#ccbd3d" stroke="black" cx="1322.33" cy="-745.49" rx="122.16" ry="35.21"/>
<text text-anchor="start" x="1265.33" y="-756.29" font-family="Helvetica,sans-Serif" font-weight="bold" font-size="14.00"> Class=nowin </text>
<text text-anchor="start" x="1374.33" y="-756.29" font-family="Helvetica,sans-Serif" font-size="14.00"> </text>
<text text-anchor="start" x="1243.83" y="-742.29" font-family="Helvetica,sans-Serif" font-size="14.00"> error: 0.000, n=3196 </text>
<text text-anchor="start" x="1267.33" y="-728.29" font-family="Helvetica,sans-Serif" font-size="14.00"> p: (1.00, 0.00) </text>
</g>
<!-- 3&#45;&gt;24 -->
<g id="edge5" class="edge">
<title>3:s&#45;&gt;24:n</title>
<path fill="none" stroke="black" d="M1231.33,-834.2C1231.33,-834.2 1290.83,-799.31 1313.6,-785.96"/>
<polygon fill="black" stroke="black" points="1315.47,-788.92 1322.33,-780.84 1311.93,-782.88 1315.47,-788.92"/>
<text text-anchor="middle" x="1293.33" y="-802.64" font-family="Helvetica,sans-Serif" font-size="14.00">t</text>
</g>
<!-- 5 -->
<g id="node7" class="node">
<title>5</title>
<polygon fill="#ade544" stroke="black" points="987.83,-659.13 814.83,-659.13 814.83,-595.13 987.83,-595.13 987.83,-659.13"/>
<text text-anchor="start" x="851.33" y="-644.93" font-family="Helvetica,sans-Serif" font-weight="bold" font-size="14.00"> Class=won </text>
<text text-anchor="start" x="946.33" y="-644.93" font-family="Helvetica,sans-Serif" font-size="14.00"> </text>
<text text-anchor="start" x="822.83" y="-630.93" font-family="Helvetica,sans-Serif" font-size="14.00"> error: 0.722, n=3196 </text>
<text text-anchor="start" x="846.33" y="-616.93" font-family="Helvetica,sans-Serif" font-size="14.00"> p: (0.20, 0.80) </text>
<text text-anchor="start" x="875.33" y="-602.93" font-family="Helvetica,sans-Serif" font-weight="bold" font-size="14.00">wkna8</text>
</g>
<!-- 4&#45;&gt;5 -->
<g id="edge6" class="edge">
<title>4:s&#45;&gt;5:n</title>
<path fill="none" stroke="black" d="M1041.33,-712.49C1041.33,-712.49 942.58,-674.85 910.95,-662.8"/>
<polygon fill="black" stroke="black" points="911.92,-659.42 901.33,-659.13 909.43,-665.96 911.92,-659.42"/>
<text text-anchor="middle" x="987.33" y="-680.93" font-family="Helvetica,sans-Serif" font-size="14.00">f</text>
</g>
<!-- 17 -->
<g id="node8" class="node">
<title>17</title>
<polygon fill="#ade544" stroke="black" points="1461.83,-659.13 1288.83,-659.13 1288.83,-595.13 1461.83,-595.13 1461.83,-659.13"/>
<text text-anchor="start" x="1318.33" y="-644.93" font-family="Helvetica,sans-Serif" font-weight="bold" font-size="14.00"> Class=nowin </text>
<text text-anchor="start" x="1427.33" y="-644.93" font-family="Helvetica,sans-Serif" font-size="14.00"> </text>
<text text-anchor="start" x="1296.83" y="-630.93" font-family="Helvetica,sans-Serif" font-size="14.00"> error: 0.405, n=3196 </text>
<text text-anchor="start" x="1320.33" y="-616.93" font-family="Helvetica,sans-Serif" font-size="14.00"> p: (0.92, 0.08) </text>
<text text-anchor="start" x="1352.33" y="-602.93" font-family="Helvetica,sans-Serif" font-weight="bold" font-size="14.00">wkovl</text>
</g>
<!-- 4&#45;&gt;17 -->
<g id="edge7" class="edge">
<title>4:s&#45;&gt;17:n</title>
<path fill="none" stroke="black" d="M1041.33,-712.49C1041.33,-712.49 1309.76,-669.61 1365.33,-660.73"/>
<polygon fill="black" stroke="black" points="1366.01,-664.17 1375.33,-659.13 1364.9,-657.25 1366.01,-664.17"/>
<text text-anchor="middle" x="1261.33" y="-680.93" font-family="Helvetica,sans-Serif" font-size="14.00">t</text>
</g>
<!-- 6 -->
<g id="node9" class="node">
<title>6</title>
<polygon fill="#59cc3d" stroke="black" points="670.83,-544.13 497.83,-544.13 497.83,-480.13 670.83,-480.13 670.83,-544.13"/>
<text text-anchor="start" x="534.33" y="-529.93" font-family="Helvetica,sans-Serif" font-weight="bold" font-size="14.00"> Class=won </text>
<text text-anchor="start" x="629.33" y="-529.93" font-family="Helvetica,sans-Serif" font-size="14.00"> </text>
<text text-anchor="start" x="505.83" y="-515.93" font-family="Helvetica,sans-Serif" font-size="14.00"> error: 0.527, n=3196 </text>
<text text-anchor="start" x="529.33" y="-501.93" font-family="Helvetica,sans-Serif" font-size="14.00"> p: (0.12, 0.88) </text>
<text text-anchor="start" x="560.33" y="-487.93" font-family="Helvetica,sans-Serif" font-weight="bold" font-size="14.00">bkxbq</text>
</g>
<!-- 5&#45;&gt;6 -->
<g id="edge8" class="edge">
<title>5:s&#45;&gt;6:n</title>
<path fill="none" stroke="black" d="M901.33,-595.13C901.33,-595.13 648.78,-554.5 594.52,-545.77"/>
<polygon fill="black" stroke="black" points="594.76,-542.26 584.33,-544.13 593.65,-549.18 594.76,-542.26"/>
<text text-anchor="middle" x="784.33" y="-565.93" font-family="Helvetica,sans-Serif" font-size="14.00">f</text>
</g>
<!-- 15 -->
<g id="node10" class="node">
<title>15</title>
<polygon fill="#59cc3d" stroke="black" points="987.83,-544.13 814.83,-544.13 814.83,-480.13 987.83,-480.13 987.83,-544.13"/>
<text text-anchor="start" x="844.33" y="-529.93" font-family="Helvetica,sans-Serif" font-weight="bold" font-size="14.00"> Class=nowin </text>
<text text-anchor="start" x="953.33" y="-529.93" font-family="Helvetica,sans-Serif" font-size="14.00"> </text>
<text text-anchor="start" x="822.83" y="-515.93" font-family="Helvetica,sans-Serif" font-size="14.00"> error: 0.165, n=3196 </text>
<text text-anchor="start" x="846.33" y="-501.93" font-family="Helvetica,sans-Serif" font-size="14.00"> p: (0.98, 0.02) </text>
<text text-anchor="start" x="875.83" y="-487.93" font-family="Helvetica,sans-Serif" font-weight="bold" font-size="14.00">bknwy</text>
</g>
<!-- 5&#45;&gt;15 -->
<g id="edge9" class="edge">
<title>5:s&#45;&gt;15:n</title>
<path fill="none" stroke="black" d="M901.33,-595.13C901.33,-595.13 901.33,-569.35 901.33,-554.45"/>
<polygon fill="black" stroke="black" points="904.83,-554.13 901.33,-544.13 897.83,-554.13 904.83,-554.13"/>
<text text-anchor="middle" x="904.33" y="-565.93" font-family="Helvetica,sans-Serif" font-size="14.00">t</text>
</g>
<!-- 18 -->
<g id="node20" class="node">
<title>18</title>
<polygon fill="#59cc3d" stroke="black" points="1461.83,-544.13 1288.83,-544.13 1288.83,-480.13 1461.83,-480.13 1461.83,-544.13"/>
<text text-anchor="start" x="1318.33" y="-529.93" font-family="Helvetica,sans-Serif" font-weight="bold" font-size="14.00"> Class=nowin </text>
<text text-anchor="start" x="1427.33" y="-529.93" font-family="Helvetica,sans-Serif" font-size="14.00"> </text>
<text text-anchor="start" x="1296.83" y="-515.93" font-family="Helvetica,sans-Serif" font-size="14.00"> error: 0.647, n=3196 </text>
<text text-anchor="start" x="1320.33" y="-501.93" font-family="Helvetica,sans-Serif" font-size="14.00"> p: (0.83, 0.17) </text>
<text text-anchor="start" x="1353.83" y="-487.93" font-family="Helvetica,sans-Serif" font-weight="bold" font-size="14.00">bkxcr</text>
</g>
<!-- 17&#45;&gt;18 -->
<g id="edge19" class="edge">
<title>17:s&#45;&gt;18:n</title>
<path fill="none" stroke="black" d="M1375.33,-595.13C1375.33,-595.13 1375.33,-569.35 1375.33,-554.45"/>
<polygon fill="black" stroke="black" points="1378.83,-554.13 1375.33,-544.13 1371.83,-554.13 1378.83,-554.13"/>
<text text-anchor="middle" x="1378.33" y="-565.93" font-family="Helvetica,sans-Serif" font-size="14.00">f</text>
</g>
<!-- 22 -->
<g id="node21" class="node">
<title>22</title>
<polygon fill="#59cc3d" stroke="black" points="1834.83,-544.13 1661.83,-544.13 1661.83,-480.13 1834.83,-480.13 1834.83,-544.13"/>
<text text-anchor="start" x="1691.33" y="-529.93" font-family="Helvetica,sans-Serif" font-weight="bold" font-size="14.00"> Class=nowin </text>
<text text-anchor="start" x="1800.33" y="-529.93" font-family="Helvetica,sans-Serif" font-size="14.00"> </text>
<text text-anchor="start" x="1669.83" y="-515.93" font-family="Helvetica,sans-Serif" font-size="14.00"> error: 0.079, n=3196 </text>
<text text-anchor="start" x="1693.33" y="-501.93" font-family="Helvetica,sans-Serif" font-size="14.00"> p: (0.99, 0.01) </text>
<text text-anchor="start" x="1722.83" y="-487.93" font-family="Helvetica,sans-Serif" font-weight="bold" font-size="14.00">bknwy</text>
</g>
<!-- 17&#45;&gt;22 -->
<g id="edge20" class="edge">
<title>17:s&#45;&gt;22:n</title>
<path fill="none" stroke="black" d="M1375.33,-595.13C1375.33,-595.13 1679.04,-553.61 1738.35,-545.5"/>
<polygon fill="black" stroke="black" points="1738.9,-548.95 1748.33,-544.13 1737.95,-542.02 1738.9,-548.95"/>
<text text-anchor="middle" x="1609.33" y="-565.93" font-family="Helvetica,sans-Serif" font-size="14.00">t</text>
</g>
<!-- 7 -->
<g id="node11" class="node">
<title>7</title>
<polygon fill="#44e56d" stroke="black" points="389.83,-425.78 216.83,-425.78 216.83,-361.78 389.83,-361.78 389.83,-425.78"/>
<text text-anchor="start" x="253.33" y="-411.58" font-family="Helvetica,sans-Serif" font-weight="bold" font-size="14.00"> Class=won </text>
<text text-anchor="start" x="348.33" y="-411.58" font-family="Helvetica,sans-Serif" font-size="14.00"> </text>
<text text-anchor="start" x="224.83" y="-397.58" font-family="Helvetica,sans-Serif" font-size="14.00"> error: 0.799, n=3196 </text>
<text text-anchor="start" x="248.33" y="-383.58" font-family="Helvetica,sans-Serif" font-size="14.00"> p: (0.24, 0.76) </text>
<text text-anchor="start" x="278.33" y="-369.58" font-family="Helvetica,sans-Serif" font-weight="bold" font-size="14.00">wkpos</text>
</g>
<!-- 6&#45;&gt;7 -->
<g id="edge10" class="edge">
<title>6:s&#45;&gt;7:n</title>
<path fill="none" stroke="black" d="M584.33,-480.13C584.33,-480.13 363.39,-438.18 313.33,-428.68"/>
<polygon fill="black" stroke="black" points="313.81,-425.2 303.33,-426.78 312.5,-432.08 313.81,-425.2"/>
<text text-anchor="middle" x="489.33" y="-450.93" font-family="Helvetica,sans-Serif" font-size="14.00">f</text>
</g>
<!-- 14 -->
<g id="node12" class="node">
<title>14</title>
<ellipse fill="#44e56d" stroke="black" cx="584.33" cy="-393.78" rx="122.16" ry="35.21"/>
<text text-anchor="start" x="534.33" y="-404.58" font-family="Helvetica,sans-Serif" font-weight="bold" font-size="14.00"> Class=won </text>
<text text-anchor="start" x="629.33" y="-404.58" font-family="Helvetica,sans-Serif" font-size="14.00"> </text>
<text text-anchor="start" x="505.83" y="-390.58" font-family="Helvetica,sans-Serif" font-size="14.00"> error: 0.000, n=3196 </text>
<text text-anchor="start" x="529.33" y="-376.58" font-family="Helvetica,sans-Serif" font-size="14.00"> p: (0.00, 1.00) </text>
</g>
<!-- 6&#45;&gt;14 -->
<g id="edge11" class="edge">
<title>6:s&#45;&gt;14:n</title>
<path fill="none" stroke="black" d="M584.33,-480.13C584.33,-480.13 584.33,-454.35 584.33,-439.45"/>
<polygon fill="black" stroke="black" points="587.83,-439.13 584.33,-429.13 580.83,-439.13 587.83,-439.13"/>
<text text-anchor="middle" x="587.33" y="-450.93" font-family="Helvetica,sans-Serif" font-size="14.00">t</text>
</g>
<!-- 16 -->
<g id="node19" class="node">
<title>16</title>
<ellipse fill="#44e56d" stroke="black" cx="901.33" cy="-393.78" rx="122.16" ry="35.21"/>
<text text-anchor="start" x="844.33" y="-404.58" font-family="Helvetica,sans-Serif" font-weight="bold" font-size="14.00"> Class=nowin </text>
<text text-anchor="start" x="953.33" y="-404.58" font-family="Helvetica,sans-Serif" font-size="14.00"> </text>
<text text-anchor="start" x="822.83" y="-390.58" font-family="Helvetica,sans-Serif" font-size="14.00"> error: 0.000, n=3196 </text>
<text text-anchor="start" x="846.33" y="-376.58" font-family="Helvetica,sans-Serif" font-size="14.00"> p: (1.00, 0.00) </text>
</g>
<!-- 15&#45;&gt;16 -->
<g id="edge18" class="edge">
<title>15:s&#45;&gt;16:n</title>
<path fill="none" stroke="black" d="M901.33,-480.13C901.33,-480.13 901.33,-454.35 901.33,-439.45"/>
<polygon fill="black" stroke="black" points="904.83,-439.13 901.33,-429.13 897.83,-439.13 904.83,-439.13"/>
<text text-anchor="middle" x="904.33" y="-450.93" font-family="Helvetica,sans-Serif" font-size="14.00">f</text>
</g>
<!-- 8 -->
<g id="node13" class="node">
<title>8</title>
<polygon fill="#3dcca1" stroke="black" points="226.83,-304.07 53.83,-304.07 53.83,-240.07 226.83,-240.07 226.83,-304.07"/>
<text text-anchor="start" x="90.33" y="-289.87" font-family="Helvetica,sans-Serif" font-weight="bold" font-size="14.00"> Class=won </text>
<text text-anchor="start" x="185.33" y="-289.87" font-family="Helvetica,sans-Serif" font-size="14.00"> </text>
<text text-anchor="start" x="61.83" y="-275.87" font-family="Helvetica,sans-Serif" font-size="14.00"> error: 0.471, n=3196 </text>
<text text-anchor="start" x="85.33" y="-261.87" font-family="Helvetica,sans-Serif" font-size="14.00"> p: (0.10, 0.90) </text>
<text text-anchor="start" x="121.83" y="-247.87" font-family="Helvetica,sans-Serif" font-weight="bold" font-size="14.00">katri</text>
</g>
<!-- 7&#45;&gt;8 -->
<g id="edge12" class="edge">
<title>7:s&#45;&gt;8:n</title>
<path fill="none" stroke="black" d="M303.33,-360.78C303.33,-360.78 185.13,-320.38 150.04,-308.38"/>
<polygon fill="black" stroke="black" points="150.92,-304.99 140.33,-305.07 148.66,-311.61 150.92,-304.99"/>
<text text-anchor="middle" x="244.33" y="-329.22" font-family="Helvetica,sans-Serif" font-size="14.00">t</text>
</g>
<!-- 11 -->
<g id="node14" class="node">
<title>11</title>
<polygon fill="#3dcca1" stroke="black" points="489.83,-304.07 316.83,-304.07 316.83,-240.07 489.83,-240.07 489.83,-304.07"/>
<text text-anchor="start" x="346.33" y="-289.87" font-family="Helvetica,sans-Serif" font-weight="bold" font-size="14.00"> Class=nowin </text>
<text text-anchor="start" x="455.33" y="-289.87" font-family="Helvetica,sans-Serif" font-size="14.00"> </text>
<text text-anchor="start" x="324.83" y="-275.87" font-family="Helvetica,sans-Serif" font-size="14.00"> error: 1.000, n=3196 </text>
<text text-anchor="start" x="348.33" y="-261.87" font-family="Helvetica,sans-Serif" font-size="14.00"> p: (0.51, 0.49) </text>
<text text-anchor="start" x="384.83" y="-247.87" font-family="Helvetica,sans-Serif" font-weight="bold" font-size="14.00">katri</text>
</g>
<!-- 7&#45;&gt;11 -->
<g id="edge13" class="edge">
<title>7:s&#45;&gt;11:n</title>
<path fill="none" stroke="black" d="M303.33,-360.78C303.33,-360.78 369.98,-323.64 394.46,-310.01"/>
<polygon fill="black" stroke="black" points="396.3,-312.99 403.33,-305.07 392.89,-306.88 396.3,-312.99"/>
<text text-anchor="middle" x="368.33" y="-329.22" font-family="Helvetica,sans-Serif" font-size="14.00">f</text>
</g>
<!-- 9 -->
<g id="node15" class="node">
<title>9</title>
<polygon fill="#44cde5" stroke="black" points="226.83,-185.71 53.83,-185.71 53.83,-121.71 226.83,-121.71 226.83,-185.71"/>
<text text-anchor="start" x="90.33" y="-171.51" font-family="Helvetica,sans-Serif" font-weight="bold" font-size="14.00"> Class=won </text>
<text text-anchor="start" x="185.33" y="-171.51" font-family="Helvetica,sans-Serif" font-size="14.00"> </text>
<text text-anchor="start" x="61.83" y="-157.51" font-family="Helvetica,sans-Serif" font-size="14.00"> error: 0.315, n=3196 </text>
<text text-anchor="start" x="85.33" y="-143.51" font-family="Helvetica,sans-Serif" font-size="14.00"> p: (0.06, 0.94) </text>
<text text-anchor="start" x="115.83" y="-129.51" font-family="Helvetica,sans-Serif" font-weight="bold" font-size="14.00">rxmsq</text>
</g>
<!-- 8&#45;&gt;9 -->
<g id="edge14" class="edge">
<title>8:s&#45;&gt;9:n</title>
<path fill="none" stroke="black" d="M140.33,-239.07C140.33,-239.07 140.33,-211.5 140.33,-196"/>
<polygon fill="black" stroke="black" points="143.83,-195.71 140.33,-185.71 136.83,-195.71 143.83,-195.71"/>
<text text-anchor="middle" x="145.33" y="-207.51" font-family="Helvetica,sans-Serif" font-size="14.00">n</text>
</g>
<!-- 12 -->
<g id="node17" class="node">
<title>12</title>
<polygon fill="#44cde5" stroke="black" points="507.83,-185.71 334.83,-185.71 334.83,-121.71 507.83,-121.71 507.83,-185.71"/>
<text text-anchor="start" x="364.33" y="-171.51" font-family="Helvetica,sans-Serif" font-weight="bold" font-size="14.00"> Class=nowin </text>
<text text-anchor="start" x="473.33" y="-171.51" font-family="Helvetica,sans-Serif" font-size="14.00"> </text>
<text text-anchor="start" x="342.83" y="-157.51" font-family="Helvetica,sans-Serif" font-size="14.00"> error: 0.796, n=3196 </text>
<text text-anchor="start" x="366.33" y="-143.51" font-family="Helvetica,sans-Serif" font-size="14.00"> p: (0.76, 0.24) </text>
<text text-anchor="start" x="399.83" y="-129.51" font-family="Helvetica,sans-Serif" font-weight="bold" font-size="14.00">bkblk</text>
</g>
<!-- 11&#45;&gt;12 -->
<g id="edge16" class="edge">
<title>11:s&#45;&gt;12:n</title>
<path fill="none" stroke="black" d="M403.33,-239.07C403.33,-239.07 412.83,-210.9 418.03,-195.5"/>
<polygon fill="black" stroke="black" points="421.45,-196.3 421.33,-185.71 414.82,-194.07 421.45,-196.3"/>
<text text-anchor="middle" x="420.33" y="-207.51" font-family="Helvetica,sans-Serif" font-size="14.00">n</text>
</g>
<!-- 10 -->
<g id="node16" class="node">
<title>10</title>
<ellipse fill="#3d76cc" stroke="black" cx="122.33" cy="-35.36" rx="122.16" ry="35.21"/>
<text text-anchor="start" x="72.33" y="-46.16" font-family="Helvetica,sans-Serif" font-weight="bold" font-size="14.00"> Class=won </text>
<text text-anchor="start" x="167.33" y="-46.16" font-family="Helvetica,sans-Serif" font-size="14.00"> </text>
<text text-anchor="start" x="43.83" y="-32.16" font-family="Helvetica,sans-Serif" font-size="14.00"> error: 0.066, n=3196 </text>
<text text-anchor="start" x="67.33" y="-18.16" font-family="Helvetica,sans-Serif" font-size="14.00"> p: (0.01, 0.99) </text>
</g>
<!-- 9&#45;&gt;10 -->
<g id="edge15" class="edge">
<title>9:s&#45;&gt;10:n</title>
<path fill="none" stroke="black" d="M140.33,-121.71C140.33,-121.71 131.03,-95.36 125.8,-80.54"/>
<polygon fill="black" stroke="black" points="128.96,-78.98 122.33,-70.71 122.36,-81.31 128.96,-78.98"/>
<text text-anchor="middle" x="137.33" y="-92.51" font-family="Helvetica,sans-Serif" font-size="14.00">f</text>
</g>
<!-- 13 -->
<g id="node18" class="node">
<title>13</title>
<ellipse fill="#3d76cc" stroke="black" cx="439.33" cy="-35.36" rx="122.16" ry="35.21"/>
<text text-anchor="start" x="382.33" y="-46.16" font-family="Helvetica,sans-Serif" font-weight="bold" font-size="14.00"> Class=nowin </text>
<text text-anchor="start" x="491.33" y="-46.16" font-family="Helvetica,sans-Serif" font-size="14.00"> </text>
<text text-anchor="start" x="360.83" y="-32.16" font-family="Helvetica,sans-Serif" font-size="14.00"> error: 0.281, n=3196 </text>
<text text-anchor="start" x="384.33" y="-18.16" font-family="Helvetica,sans-Serif" font-size="14.00"> p: (0.95, 0.05) </text>
</g>
<!-- 12&#45;&gt;13 -->
<g id="edge17" class="edge">
<title>12:s&#45;&gt;13:n</title>
<path fill="none" stroke="black" d="M421.33,-121.71C421.33,-121.71 430.63,-95.36 435.86,-80.54"/>
<polygon fill="black" stroke="black" points="439.3,-81.31 439.33,-70.71 432.7,-78.98 439.3,-81.31"/>
<text text-anchor="middle" x="436.33" y="-92.51" font-family="Helvetica,sans-Serif" font-size="14.00">f</text>
</g>
<!-- 19 -->
<g id="node22" class="node">
<title>19</title>
<polygon fill="#44e56d" stroke="black" points="1268.83,-425.78 1095.83,-425.78 1095.83,-361.78 1268.83,-361.78 1268.83,-425.78"/>
<text text-anchor="start" x="1125.33" y="-411.58" font-family="Helvetica,sans-Serif" font-weight="bold" font-size="14.00"> Class=nowin </text>
<text text-anchor="start" x="1234.33" y="-411.58" font-family="Helvetica,sans-Serif" font-size="14.00"> </text>
<text text-anchor="start" x="1103.83" y="-397.58" font-family="Helvetica,sans-Serif" font-size="14.00"> error: 0.885, n=3196 </text>
<text text-anchor="start" x="1127.33" y="-383.58" font-family="Helvetica,sans-Serif" font-size="14.00"> p: (0.70, 0.30) </text>
<text text-anchor="start" x="1160.83" y="-369.58" font-family="Helvetica,sans-Serif" font-weight="bold" font-size="14.00">skrxp</text>
</g>
<!-- 18&#45;&gt;19 -->
<g id="edge21" class="edge">
<title>18:s&#45;&gt;19:n</title>
<path fill="none" stroke="black" d="M1375.33,-480.13C1375.33,-480.13 1231.5,-440.37 1192.17,-429.5"/>
<polygon fill="black" stroke="black" points="1192.9,-426.07 1182.33,-426.78 1191.04,-432.81 1192.9,-426.07"/>
<text text-anchor="middle" x="1311.33" y="-450.93" font-family="Helvetica,sans-Serif" font-size="14.00">f</text>
</g>
<!-- 21 -->
<g id="node23" class="node">
<title>21</title>
<ellipse fill="#44e56d" stroke="black" cx="1463.33" cy="-393.78" rx="122.16" ry="35.21"/>
<text text-anchor="start" x="1406.33" y="-404.58" font-family="Helvetica,sans-Serif" font-weight="bold" font-size="14.00"> Class=nowin </text>
<text text-anchor="start" x="1515.33" y="-404.58" font-family="Helvetica,sans-Serif" font-size="14.00"> </text>
<text text-anchor="start" x="1384.83" y="-390.58" font-family="Helvetica,sans-Serif" font-size="14.00"> error: 0.000, n=3196 </text>
<text text-anchor="start" x="1408.33" y="-376.58" font-family="Helvetica,sans-Serif" font-size="14.00"> p: (1.00, 0.00) </text>
</g>
<!-- 18&#45;&gt;21 -->
<g id="edge22" class="edge">
<title>18:s&#45;&gt;21:n</title>
<path fill="none" stroke="black" d="M1375.33,-480.13C1375.33,-480.13 1432.31,-447.11 1454.57,-434.21"/>
<polygon fill="black" stroke="black" points="1456.43,-437.17 1463.33,-429.13 1452.92,-431.12 1456.43,-437.17"/>
<text text-anchor="middle" x="1433.33" y="-450.93" font-family="Helvetica,sans-Serif" font-size="14.00">t</text>
</g>
<!-- 23 -->
<g id="node25" class="node">
<title>23</title>
<ellipse fill="#44e56d" stroke="black" cx="1780.33" cy="-393.78" rx="122.16" ry="35.21"/>
<text text-anchor="start" x="1723.33" y="-404.58" font-family="Helvetica,sans-Serif" font-weight="bold" font-size="14.00"> Class=nowin </text>
<text text-anchor="start" x="1832.33" y="-404.58" font-family="Helvetica,sans-Serif" font-size="14.00"> </text>
<text text-anchor="start" x="1701.83" y="-390.58" font-family="Helvetica,sans-Serif" font-size="14.00"> error: 0.000, n=3196 </text>
<text text-anchor="start" x="1725.33" y="-376.58" font-family="Helvetica,sans-Serif" font-size="14.00"> p: (1.00, 0.00) </text>
</g>
<!-- 22&#45;&gt;23 -->
<g id="edge24" class="edge">
<title>22:s&#45;&gt;23:n</title>
<path fill="none" stroke="black" d="M1748.33,-480.13C1748.33,-480.13 1765.59,-452.63 1774.76,-438.02"/>
<polygon fill="black" stroke="black" points="1777.98,-439.46 1780.33,-429.13 1772.05,-435.74 1777.98,-439.46"/>
<text text-anchor="middle" x="1770.33" y="-450.93" font-family="Helvetica,sans-Serif" font-size="14.00">f</text>
</g>
<!-- 20 -->
<g id="node24" class="node">
<title>20</title>
<ellipse fill="#3dcca1" stroke="black" cx="1182.33" cy="-272.07" rx="122.16" ry="35.21"/>
<text text-anchor="start" x="1125.33" y="-282.87" font-family="Helvetica,sans-Serif" font-weight="bold" font-size="14.00"> Class=nowin </text>
<text text-anchor="start" x="1234.33" y="-282.87" font-family="Helvetica,sans-Serif" font-size="14.00"> </text>
<text text-anchor="start" x="1103.83" y="-268.87" font-family="Helvetica,sans-Serif" font-size="14.00"> error: 0.986, n=3196 </text>
<text text-anchor="start" x="1127.33" y="-254.87" font-family="Helvetica,sans-Serif" font-size="14.00"> p: (0.57, 0.43) </text>
</g>
<!-- 19&#45;&gt;20 -->
<g id="edge23" class="edge">
<title>19:s&#45;&gt;20:n</title>
<path fill="none" stroke="black" d="M1182.33,-360.78C1182.33,-360.78 1182.33,-333.21 1182.33,-317.71"/>
<polygon fill="black" stroke="black" points="1185.83,-317.42 1182.33,-307.42 1178.83,-317.42 1185.83,-317.42"/>
<text text-anchor="middle" x="1185.33" y="-329.22" font-family="Helvetica,sans-Serif" font-size="14.00">f</text>
</g>
</g>
</svg>
