<?xml version="1.0" encoding="UTF-8" standalone="no"?>
<!DOCTYPE svg PUBLIC "-//W3C//DTD SVG 1.1//EN"
 "http://www.w3.org/Graphics/SVG/1.1/DTD/svg11.dtd">
<!-- Generated by graphviz version 2.43.0 (0)
 -->
<!-- Title: Tree Pages: 1 -->
<svg width="6858pt" height="646pt"
 viewBox="0.00 0.00 6858.40 646.42" xmlns="http://www.w3.org/2000/svg" xmlns:xlink="http://www.w3.org/1999/xlink">
<g id="graph0" class="graph" transform="scale(1 1) rotate(0) translate(18 628.42)">
<title>Tree</title>
<polygon fill="white" stroke="transparent" points="-18,18 -18,-628.42 6840.4,-628.42 6840.4,18 -18,18"/>
<!-- 0 -->
<g id="node1" class="node">
<title>0</title>
<polygon fill="white" stroke="transparent" points="2152.2,-610.42 2098.2,-610.42 2098.2,-574.42 2152.2,-574.42 2152.2,-610.42"/>
<text text-anchor="middle" x="2125.2" y="-588.72" font-family="Helvetica,sans-Serif" font-size="14.00">0</text>
</g>
<!-- 1 -->
<g id="node2" class="node">
<title>1</title>
<polygon fill="#cc3d3d" stroke="black" points="2350.2,-537.42 1900.2,-537.42 1900.2,-473.42 2350.2,-473.42 2350.2,-537.42"/>
<text text-anchor="start" x="2086.2" y="-523.22" font-family="Helvetica,sans-Serif" font-weight="bold" font-size="14.00"> Class=1 </text>
<text text-anchor="start" x="2159.2" y="-523.22" font-family="Helvetica,sans-Serif" font-size="14.00"> </text>
<text text-anchor="start" x="2046.7" y="-509.22" font-family="Helvetica,sans-Serif" font-size="14.00"> error: 1.000, n=2000 </text>
<text text-anchor="start" x="1908.2" y="-495.22" font-family="Helvetica,sans-Serif" font-size="14.00"> p: (0.10, 0.10, 0.10, 0.10, 0.10, 0.10, 0.10, 0.10, 0.10, 0.10) </text>
<text text-anchor="start" x="2108.2" y="-481.22" font-family="Helvetica,sans-Serif" font-weight="bold" font-size="14.00">att1</text>
</g>
<!-- 0&#45;&gt;1 -->
<!-- 2 -->
<g id="node3" class="node">
<title>2</title>
<polygon fill="#e5d544" stroke="black" points="1959.2,-422.42 1509.2,-422.42 1509.2,-358.42 1959.2,-358.42 1959.2,-422.42"/>
<text text-anchor="start" x="1695.2" y="-408.22" font-family="Helvetica,sans-Serif" font-weight="bold" font-size="14.00"> Class=9 </text>
<text text-anchor="start" x="1768.2" y="-408.22" font-family="Helvetica,sans-Serif" font-size="14.00"> </text>
<text text-anchor="start" x="1655.7" y="-394.22" font-family="Helvetica,sans-Serif" font-size="14.00"> error: 0.615, n=2000 </text>
<text text-anchor="start" x="1517.2" y="-380.22" font-family="Helvetica,sans-Serif" font-size="14.00"> p: (0.25, 0.24, 0.00, 0.00, 0.00, 0.00, 0.00, 0.25, 0.00, 0.25) </text>
<text text-anchor="start" x="1717.2" y="-366.22" font-family="Helvetica,sans-Serif" font-weight="bold" font-size="14.00">att2</text>
</g>
<!-- 1&#45;&gt;2 -->
<g id="edge2" class="edge">
<title>1:s&#45;&gt;2:n</title>
<path fill="none" stroke="black" d="M2125.2,-473.42C2125.2,-473.42 1805.46,-431.72 1744.26,-423.73"/>
<polygon fill="black" stroke="black" points="1744.57,-420.24 1734.2,-422.42 1743.66,-427.19 1744.57,-420.24"/>
<text text-anchor="middle" x="1990.2" y="-444.22" font-family="Helvetica,sans-Serif" font-size="14.00">&gt; 0</text>
</g>
<!-- 8 -->
<g id="node4" class="node">
<title>8</title>
<polygon fill="#e5d544" stroke="black" points="2835.2,-422.42 2385.2,-422.42 2385.2,-358.42 2835.2,-358.42 2835.2,-422.42"/>
<text text-anchor="start" x="2571.2" y="-408.22" font-family="Helvetica,sans-Serif" font-weight="bold" font-size="14.00"> Class=4 </text>
<text text-anchor="start" x="2644.2" y="-408.22" font-family="Helvetica,sans-Serif" font-size="14.00"> </text>
<text text-anchor="start" x="2531.7" y="-394.22" font-family="Helvetica,sans-Serif" font-size="14.00"> error: 0.798, n=2000 </text>
<text text-anchor="start" x="2393.2" y="-380.22" font-family="Helvetica,sans-Serif" font-size="14.00"> p: (0.00, 0.00, 0.16, 0.16, 0.17, 0.16, 0.17, 0.00, 0.17, 0.00) </text>
<text text-anchor="start" x="2593.2" y="-366.22" font-family="Helvetica,sans-Serif" font-weight="bold" font-size="14.00">att6</text>
</g>
<!-- 1&#45;&gt;8 -->
<g id="edge3" class="edge">
<title>1:s&#45;&gt;8:n</title>
<path fill="none" stroke="black" d="M2125.2,-473.42C2125.2,-473.42 2530.42,-430.81 2600.07,-423.49"/>
<polygon fill="black" stroke="black" points="2600.62,-426.95 2610.2,-422.42 2599.89,-419.99 2600.62,-426.95"/>
<text text-anchor="middle" x="2445.2" y="-444.22" font-family="Helvetica,sans-Serif" font-size="14.00">&lt;= 0</text>
</g>
<!-- 3 -->
<g id="node5" class="node">
<title>3</title>
<polygon fill="#59cc3d" stroke="black" points="1251.2,-307.42 801.2,-307.42 801.2,-243.42 1251.2,-243.42 1251.2,-307.42"/>
<text text-anchor="start" x="987.2" y="-293.22" font-family="Helvetica,sans-Serif" font-weight="bold" font-size="14.00"> Class=1 </text>
<text text-anchor="start" x="1060.2" y="-293.22" font-family="Helvetica,sans-Serif" font-size="14.00"> </text>
<text text-anchor="start" x="947.7" y="-279.22" font-family="Helvetica,sans-Serif" font-size="14.00"> error: 0.301, n=2000 </text>
<text text-anchor="start" x="809.2" y="-265.22" font-family="Helvetica,sans-Serif" font-size="14.00"> p: (0.51, 0.00, 0.00, 0.00, 0.00, 0.00, 0.00, 0.00, 0.00, 0.49) </text>
<text text-anchor="start" x="1009.2" y="-251.22" font-family="Helvetica,sans-Serif" font-weight="bold" font-size="14.00">att1</text>
</g>
<!-- 2&#45;&gt;3 -->
<g id="edge4" class="edge">
<title>2:s&#45;&gt;3:n</title>
<path fill="none" stroke="black" d="M1734.2,-358.42C1734.2,-358.42 1122.26,-314.34 1036.21,-308.14"/>
<polygon fill="black" stroke="black" points="1036.42,-304.65 1026.2,-307.42 1035.92,-311.63 1036.42,-304.65"/>
<text text-anchor="middle" x="1484.2" y="-329.22" font-family="Helvetica,sans-Serif" font-size="14.00">&lt;= 0</text>
</g>
<!-- 6 -->
<g id="node6" class="node">
<title>6</title>
<polygon fill="#59cc3d" stroke="black" points="1959.2,-307.42 1509.2,-307.42 1509.2,-243.42 1959.2,-243.42 1959.2,-307.42"/>
<text text-anchor="start" x="1695.2" y="-293.22" font-family="Helvetica,sans-Serif" font-weight="bold" font-size="14.00"> Class=7 </text>
<text text-anchor="start" x="1768.2" y="-293.22" font-family="Helvetica,sans-Serif" font-size="14.00"> </text>
<text text-anchor="start" x="1655.7" y="-279.22" font-family="Helvetica,sans-Serif" font-size="14.00"> error: 0.369, n=2000 </text>
<text text-anchor="start" x="1517.2" y="-265.22" font-family="Helvetica,sans-Serif" font-size="14.00"> p: (0.00, 0.48, 0.00, 0.00, 0.00, 0.00, 0.00, 0.49, 0.00, 0.02) </text>
<text text-anchor="start" x="1717.2" y="-251.22" font-family="Helvetica,sans-Serif" font-weight="bold" font-size="14.00">att3</text>
</g>
<!-- 2&#45;&gt;6 -->
<g id="edge5" class="edge">
<title>2:s&#45;&gt;6:n</title>
<path fill="none" stroke="black" d="M1734.2,-358.42C1734.2,-358.42 1734.2,-332.64 1734.2,-317.74"/>
<polygon fill="black" stroke="black" points="1737.7,-317.42 1734.2,-307.42 1730.7,-317.42 1737.7,-317.42"/>
<text text-anchor="middle" x="1747.2" y="-329.22" font-family="Helvetica,sans-Serif" font-size="14.00">&gt; 0</text>
</g>
<!-- 9 -->
<g id="node10" class="node">
<title>9</title>
<polygon fill="#59cc3d" stroke="black" points="2835.2,-307.42 2385.2,-307.42 2385.2,-243.42 2835.2,-243.42 2835.2,-307.42"/>
<text text-anchor="start" x="2571.2" y="-293.22" font-family="Helvetica,sans-Serif" font-weight="bold" font-size="14.00"> Class=2 </text>
<text text-anchor="start" x="2644.2" y="-293.22" font-family="Helvetica,sans-Serif" font-size="14.00"> </text>
<text text-anchor="start" x="2531.7" y="-279.22" font-family="Helvetica,sans-Serif" font-size="14.00"> error: 0.622, n=2000 </text>
<text text-anchor="start" x="2393.2" y="-265.22" font-family="Helvetica,sans-Serif" font-size="14.00"> p: (0.00, 0.00, 0.33, 0.03, 0.07, 0.23, 0.01, 0.00, 0.32, 0.00) </text>
<text text-anchor="start" x="2593.2" y="-251.22" font-family="Helvetica,sans-Serif" font-weight="bold" font-size="14.00">att5</text>
</g>
<!-- 8&#45;&gt;9 -->
<g id="edge9" class="edge">
<title>8:s&#45;&gt;9:n</title>
<path fill="none" stroke="black" d="M2610.2,-358.42C2610.2,-358.42 2610.2,-332.64 2610.2,-317.74"/>
<polygon fill="black" stroke="black" points="2613.7,-317.42 2610.2,-307.42 2606.7,-317.42 2613.7,-317.42"/>
<text text-anchor="middle" x="2642.7" y="-329.22" font-family="Helvetica,sans-Serif" font-size="14.00">&lt;= 8129</text>
</g>
<!-- 16 -->
<g id="node11" class="node">
<title>16</title>
<polygon fill="#59cc3d" stroke="black" points="4959.2,-307.42 4509.2,-307.42 4509.2,-243.42 4959.2,-243.42 4959.2,-307.42"/>
<text text-anchor="start" x="4695.2" y="-293.22" font-family="Helvetica,sans-Serif" font-weight="bold" font-size="14.00"> Class=6 </text>
<text text-anchor="start" x="4768.2" y="-293.22" font-family="Helvetica,sans-Serif" font-size="14.00"> </text>
<text text-anchor="start" x="4655.7" y="-279.22" font-family="Helvetica,sans-Serif" font-size="14.00"> error: 0.617, n=2000 </text>
<text text-anchor="start" x="4517.2" y="-265.22" font-family="Helvetica,sans-Serif" font-size="14.00"> p: (0.00, 0.01, 0.00, 0.30, 0.26, 0.10, 0.32, 0.00, 0.01, 0.00) </text>
<text text-anchor="start" x="4717.2" y="-251.22" font-family="Helvetica,sans-Serif" font-weight="bold" font-size="14.00">att3</text>
</g>
<!-- 8&#45;&gt;16 -->
<g id="edge10" class="edge">
<title>8:s&#45;&gt;16:n</title>
<path fill="none" stroke="black" d="M2610.2,-358.42C2610.2,-358.42 4563.54,-311.52 4723.77,-307.67"/>
<polygon fill="black" stroke="black" points="4724.28,-311.16 4734.2,-307.42 4724.12,-304.16 4724.28,-311.16"/>
<text text-anchor="middle" x="3950.7" y="-329.22" font-family="Helvetica,sans-Serif" font-size="14.00">&gt; 8129</text>
</g>
<!-- 4 -->
<g id="node7" class="node">
<title>4</title>
<ellipse fill="#44e5b5" stroke="black" cx="318.2" cy="-157.07" rx="318.4" ry="35.21"/>
<text text-anchor="start" x="279.2" y="-167.87" font-family="Helvetica,sans-Serif" font-weight="bold" font-size="14.00"> Class=1 </text>
<text text-anchor="start" x="352.2" y="-167.87" font-family="Helvetica,sans-Serif" font-size="14.00"> </text>
<text text-anchor="start" x="239.7" y="-153.87" font-family="Helvetica,sans-Serif" font-size="14.00"> error: 0.000, n=2000 </text>
<text text-anchor="start" x="101.2" y="-139.87" font-family="Helvetica,sans-Serif" font-size="14.00"> p: (1.00, 0.00, 0.00, 0.00, 0.00, 0.00, 0.00, 0.00, 0.00, 0.00) </text>
</g>
<!-- 3&#45;&gt;4 -->
<g id="edge6" class="edge">
<title>3:s&#45;&gt;4:n</title>
<path fill="none" stroke="black" d="M1026.2,-243.42C1026.2,-243.42 414.26,-199.34 328.21,-193.14"/>
<polygon fill="black" stroke="black" points="328.42,-189.65 318.2,-192.42 327.92,-196.63 328.42,-189.65"/>
<text text-anchor="middle" x="776.2" y="-214.22" font-family="Helvetica,sans-Serif" font-size="14.00">&lt;= 1</text>
</g>
<!-- 5 -->
<g id="node8" class="node">
<title>5</title>
<ellipse fill="#44e5b5" stroke="black" cx="1026.2" cy="-157.07" rx="318.4" ry="35.21"/>
<text text-anchor="start" x="987.2" y="-167.87" font-family="Helvetica,sans-Serif" font-weight="bold" font-size="14.00"> Class=9 </text>
<text text-anchor="start" x="1060.2" y="-167.87" font-family="Helvetica,sans-Serif" font-size="14.00"> </text>
<text text-anchor="start" x="947.7" y="-153.87" font-family="Helvetica,sans-Serif" font-size="14.00"> error: 0.000, n=2000 </text>
<text text-anchor="start" x="809.2" y="-139.87" font-family="Helvetica,sans-Serif" font-size="14.00"> p: (0.00, 0.00, 0.00, 0.00, 0.00, 0.00, 0.00, 0.00, 0.00, 1.00) </text>
</g>
<!-- 3&#45;&gt;5 -->
<g id="edge7" class="edge">
<title>3:s&#45;&gt;5:n</title>
<path fill="none" stroke="black" d="M1026.2,-243.42C1026.2,-243.42 1026.2,-217.64 1026.2,-202.74"/>
<polygon fill="black" stroke="black" points="1029.7,-202.42 1026.2,-192.42 1022.7,-202.42 1029.7,-202.42"/>
<text text-anchor="middle" x="1039.2" y="-214.22" font-family="Helvetica,sans-Serif" font-size="14.00">&gt; 1</text>
</g>
<!-- 7 -->
<g id="node9" class="node">
<title>7</title>
<ellipse fill="#44e5b5" stroke="black" cx="1734.2" cy="-157.07" rx="318.4" ry="35.21"/>
<text text-anchor="start" x="1695.2" y="-167.87" font-family="Helvetica,sans-Serif" font-weight="bold" font-size="14.00"> Class=7 </text>
<text text-anchor="start" x="1768.2" y="-167.87" font-family="Helvetica,sans-Serif" font-size="14.00"> </text>
<text text-anchor="start" x="1655.7" y="-153.87" font-family="Helvetica,sans-Serif" font-size="14.00"> error: 0.356, n=2000 </text>
<text text-anchor="start" x="1517.2" y="-139.87" font-family="Helvetica,sans-Serif" font-size="14.00"> p: (0.00, 0.48, 0.00, 0.00, 0.00, 0.00, 0.00, 0.49, 0.00, 0.02) </text>
</g>
<!-- 6&#45;&gt;7 -->
<g id="edge8" class="edge">
<title>6:s&#45;&gt;7:n</title>
<path fill="none" stroke="black" d="M1734.2,-243.42C1734.2,-243.42 1734.2,-217.64 1734.2,-202.74"/>
<polygon fill="black" stroke="black" points="1737.7,-202.42 1734.2,-192.42 1730.7,-202.42 1737.7,-202.42"/>
<text text-anchor="middle" x="1753.2" y="-214.22" font-family="Helvetica,sans-Serif" font-size="14.00">&lt;= 2</text>
</g>
<!-- 10 -->
<g id="node12" class="node">
<title>10</title>
<polygon fill="#44e5b5" stroke="black" points="2574.2,-189.07 2124.2,-189.07 2124.2,-125.07 2574.2,-125.07 2574.2,-189.07"/>
<text text-anchor="start" x="2310.2" y="-174.87" font-family="Helvetica,sans-Serif" font-weight="bold" font-size="14.00"> Class=2 </text>
<text text-anchor="start" x="2383.2" y="-174.87" font-family="Helvetica,sans-Serif" font-size="14.00"> </text>
<text text-anchor="start" x="2270.7" y="-160.87" font-family="Helvetica,sans-Serif" font-size="14.00"> error: 0.076, n=2000 </text>
<text text-anchor="start" x="2132.2" y="-146.87" font-family="Helvetica,sans-Serif" font-size="14.00"> p: (0.00, 0.01, 0.97, 0.00, 0.00, 0.02, 0.00, 0.01, 0.00, 0.00) </text>
<text text-anchor="start" x="2332.2" y="-132.87" font-family="Helvetica,sans-Serif" font-weight="bold" font-size="14.00">att5</text>
</g>
<!-- 9&#45;&gt;10 -->
<g id="edge11" class="edge">
<title>9:s&#45;&gt;10:n</title>
<path fill="none" stroke="black" d="M2610.2,-243.42C2610.2,-243.42 2406.79,-201.84 2359.11,-192.09"/>
<polygon fill="black" stroke="black" points="2359.7,-188.64 2349.2,-190.07 2358.29,-195.5 2359.7,-188.64"/>
<text text-anchor="middle" x="2554.2" y="-214.22" font-family="Helvetica,sans-Serif" font-size="14.00">&lt;= 1.438</text>
</g>
<!-- 13 -->
<g id="node13" class="node">
<title>13</title>
<polygon fill="#44e5b5" stroke="black" points="3189.2,-189.07 2739.2,-189.07 2739.2,-125.07 3189.2,-125.07 3189.2,-189.07"/>
<text text-anchor="start" x="2925.2" y="-174.87" font-family="Helvetica,sans-Serif" font-weight="bold" font-size="14.00"> Class=8 </text>
<text text-anchor="start" x="2998.2" y="-174.87" font-family="Helvetica,sans-Serif" font-size="14.00"> </text>
<text text-anchor="start" x="2885.7" y="-160.87" font-family="Helvetica,sans-Serif" font-size="14.00"> error: 0.602, n=2000 </text>
<text text-anchor="start" x="2747.2" y="-146.87" font-family="Helvetica,sans-Serif" font-size="14.00"> p: (0.00, 0.00, 0.12, 0.04, 0.10, 0.30, 0.02, 0.00, 0.43, 0.00) </text>
<text text-anchor="start" x="2947.2" y="-132.87" font-family="Helvetica,sans-Serif" font-weight="bold" font-size="14.00">att3</text>
</g>
<!-- 9&#45;&gt;13 -->
<g id="edge12" class="edge">
<title>9:s&#45;&gt;13:n</title>
<path fill="none" stroke="black" d="M2610.2,-243.42C2610.2,-243.42 2895.94,-200.35 2953.99,-191.61"/>
<polygon fill="black" stroke="black" points="2954.83,-195.02 2964.2,-190.07 2953.79,-188.1 2954.83,-195.02"/>
<text text-anchor="middle" x="2848.2" y="-214.22" font-family="Helvetica,sans-Serif" font-size="14.00">&gt; 1.438</text>
</g>
<!-- 17 -->
<g id="node18" class="node">
<title>17</title>
<polygon fill="#44e5b5" stroke="black" points="4959.2,-189.07 4509.2,-189.07 4509.2,-125.07 4959.2,-125.07 4959.2,-189.07"/>
<text text-anchor="start" x="4695.2" y="-174.87" font-family="Helvetica,sans-Serif" font-weight="bold" font-size="14.00"> Class=3 </text>
<text text-anchor="start" x="4768.2" y="-174.87" font-family="Helvetica,sans-Serif" font-size="14.00"> </text>
<text text-anchor="start" x="4655.7" y="-160.87" font-family="Helvetica,sans-Serif" font-size="14.00"> error: 0.447, n=2000 </text>
<text text-anchor="start" x="4517.2" y="-146.87" font-family="Helvetica,sans-Serif" font-size="14.00"> p: (0.01, 0.01, 0.00, 0.62, 0.07, 0.01, 0.27, 0.00, 0.01, 0.00) </text>
<text text-anchor="start" x="4717.2" y="-132.87" font-family="Helvetica,sans-Serif" font-weight="bold" font-size="14.00">att6</text>
</g>
<!-- 16&#45;&gt;17 -->
<g id="edge17" class="edge">
<title>16:s&#45;&gt;17:n</title>
<path fill="none" stroke="black" d="M4734.2,-243.42C4734.2,-243.42 4734.2,-215.86 4734.2,-200.35"/>
<polygon fill="black" stroke="black" points="4737.7,-200.07 4734.2,-190.07 4730.7,-200.07 4737.7,-200.07"/>
<text text-anchor="middle" x="4753.2" y="-214.22" font-family="Helvetica,sans-Serif" font-size="14.00">&lt;= 0</text>
</g>
<!-- 20 -->
<g id="node19" class="node">
<title>20</title>
<polygon fill="#44e5b5" stroke="black" points="6021.2,-189.07 5571.2,-189.07 5571.2,-125.07 6021.2,-125.07 6021.2,-189.07"/>
<text text-anchor="start" x="5757.2" y="-174.87" font-family="Helvetica,sans-Serif" font-weight="bold" font-size="14.00"> Class=4 </text>
<text text-anchor="start" x="5830.2" y="-174.87" font-family="Helvetica,sans-Serif" font-size="14.00"> </text>
<text text-anchor="start" x="5717.7" y="-160.87" font-family="Helvetica,sans-Serif" font-size="14.00"> error: 0.541, n=2000 </text>
<text text-anchor="start" x="5579.2" y="-146.87" font-family="Helvetica,sans-Serif" font-size="14.00"> p: (0.00, 0.01, 0.00, 0.04, 0.41, 0.17, 0.36, 0.00, 0.01, 0.00) </text>
<text text-anchor="start" x="5779.2" y="-132.87" font-family="Helvetica,sans-Serif" font-weight="bold" font-size="14.00">att6</text>
</g>
<!-- 16&#45;&gt;20 -->
<g id="edge18" class="edge">
<title>16:s&#45;&gt;20:n</title>
<path fill="none" stroke="black" d="M4734.2,-243.42C4734.2,-243.42 5677.34,-196.04 5786.03,-190.58"/>
<polygon fill="black" stroke="black" points="5786.39,-194.06 5796.2,-190.07 5786.03,-187.07 5786.39,-194.06"/>
<text text-anchor="middle" x="5373.2" y="-214.22" font-family="Helvetica,sans-Serif" font-size="14.00">&gt; 0</text>
</g>
<!-- 11 -->
<g id="node14" class="node">
<title>11</title>
<ellipse fill="#3d76cc" stroke="black" cx="1548.2" cy="-35.36" rx="318.4" ry="35.21"/>
<text text-anchor="start" x="1509.2" y="-46.16" font-family="Helvetica,sans-Serif" font-weight="bold" font-size="14.00"> Class=2 </text>
<text text-anchor="start" x="1582.2" y="-46.16" font-family="Helvetica,sans-Serif" font-size="14.00"> </text>
<text text-anchor="start" x="1469.7" y="-32.16" font-family="Helvetica,sans-Serif" font-size="14.00"> error: 0.039, n=2000 </text>
<text text-anchor="start" x="1331.2" y="-18.16" font-family="Helvetica,sans-Serif" font-size="14.00"> p: (0.00, 0.00, 0.98, 0.00, 0.00, 0.02, 0.00, 0.00, 0.00, 0.00) </text>
</g>
<!-- 10&#45;&gt;11 -->
<g id="edge13" class="edge">
<title>10:s&#45;&gt;11:n</title>
<path fill="none" stroke="black" d="M2349.2,-124.07C2349.2,-124.07 1651.05,-77.56 1558.33,-71.39"/>
<polygon fill="black" stroke="black" points="1558.41,-67.88 1548.2,-70.71 1557.94,-74.87 1558.41,-67.88"/>
<text text-anchor="middle" x="2056.2" y="-92.51" font-family="Helvetica,sans-Serif" font-size="14.00">&lt;= 1.368</text>
</g>
<!-- 12 -->
<g id="node15" class="node">
<title>12</title>
<ellipse fill="#3d76cc" stroke="black" cx="2256.2" cy="-35.36" rx="318.4" ry="35.21"/>
<text text-anchor="start" x="2217.2" y="-46.16" font-family="Helvetica,sans-Serif" font-weight="bold" font-size="14.00"> Class=2 </text>
<text text-anchor="start" x="2290.2" y="-46.16" font-family="Helvetica,sans-Serif" font-size="14.00"> </text>
<text text-anchor="start" x="2177.7" y="-32.16" font-family="Helvetica,sans-Serif" font-size="14.00"> error: 0.151, n=2000 </text>
<text text-anchor="start" x="2039.2" y="-18.16" font-family="Helvetica,sans-Serif" font-size="14.00"> p: (0.00, 0.03, 0.93, 0.00, 0.00, 0.03, 0.00, 0.03, 0.00, 0.00) </text>
</g>
<!-- 10&#45;&gt;12 -->
<g id="edge14" class="edge">
<title>10:s&#45;&gt;12:n</title>
<path fill="none" stroke="black" d="M2349.2,-124.07C2349.2,-124.07 2288.39,-89.18 2265.12,-75.83"/>
<polygon fill="black" stroke="black" points="2266.61,-72.65 2256.2,-70.71 2263.13,-78.72 2266.61,-72.65"/>
<text text-anchor="middle" x="2340.2" y="-92.51" font-family="Helvetica,sans-Serif" font-size="14.00">&gt; 1.368</text>
</g>
<!-- 14 -->
<g id="node16" class="node">
<title>14</title>
<ellipse fill="#3d76cc" stroke="black" cx="2964.2" cy="-35.36" rx="318.4" ry="35.21"/>
<text text-anchor="start" x="2925.2" y="-46.16" font-family="Helvetica,sans-Serif" font-weight="bold" font-size="14.00"> Class=8 </text>
<text text-anchor="start" x="2998.2" y="-46.16" font-family="Helvetica,sans-Serif" font-size="14.00"> </text>
<text text-anchor="start" x="2885.7" y="-32.16" font-family="Helvetica,sans-Serif" font-size="14.00"> error: 0.529, n=2000 </text>
<text text-anchor="start" x="2747.2" y="-18.16" font-family="Helvetica,sans-Serif" font-size="14.00"> p: (0.00, 0.00, 0.08, 0.05, 0.07, 0.16, 0.02, 0.00, 0.62, 0.00) </text>
</g>
<!-- 13&#45;&gt;14 -->
<g id="edge15" class="edge">
<title>13:s&#45;&gt;14:n</title>
<path fill="none" stroke="black" d="M2964.2,-124.07C2964.2,-124.07 2964.2,-96.5 2964.2,-81"/>
<polygon fill="black" stroke="black" points="2967.7,-80.71 2964.2,-70.71 2960.7,-80.71 2967.7,-80.71"/>
<text text-anchor="middle" x="2983.2" y="-92.51" font-family="Helvetica,sans-Serif" font-size="14.00">&lt;= 0</text>
</g>
<!-- 15 -->
<g id="node17" class="node">
<title>15</title>
<ellipse fill="#3d76cc" stroke="black" cx="3672.2" cy="-35.36" rx="318.4" ry="35.21"/>
<text text-anchor="start" x="3633.2" y="-46.16" font-family="Helvetica,sans-Serif" font-weight="bold" font-size="14.00"> Class=5 </text>
<text text-anchor="start" x="3706.2" y="-46.16" font-family="Helvetica,sans-Serif" font-size="14.00"> </text>
<text text-anchor="start" x="3593.7" y="-32.16" font-family="Helvetica,sans-Serif" font-size="14.00"> error: 0.555, n=2000 </text>
<text text-anchor="start" x="3455.2" y="-18.16" font-family="Helvetica,sans-Serif" font-size="14.00"> p: (0.00, 0.00, 0.17, 0.01, 0.14, 0.53, 0.01, 0.00, 0.14, 0.00) </text>
</g>
<!-- 13&#45;&gt;15 -->
<g id="edge16" class="edge">
<title>13:s&#45;&gt;15:n</title>
<path fill="none" stroke="black" d="M2964.2,-124.07C2964.2,-124.07 3576.14,-77.95 3662.19,-71.46"/>
<polygon fill="black" stroke="black" points="3662.49,-74.95 3672.2,-70.71 3661.96,-67.97 3662.49,-74.95"/>
<text text-anchor="middle" x="3436.2" y="-92.51" font-family="Helvetica,sans-Serif" font-size="14.00">&gt; 0</text>
</g>
<!-- 18 -->
<g id="node20" class="node">
<title>18</title>
<ellipse fill="#3d76cc" stroke="black" cx="4380.2" cy="-35.36" rx="318.4" ry="35.21"/>
<text text-anchor="start" x="4341.2" y="-46.16" font-family="Helvetica,sans-Serif" font-weight="bold" font-size="14.00"> Class=3 </text>
<text text-anchor="start" x="4414.2" y="-46.16" font-family="Helvetica,sans-Serif" font-size="14.00"> </text>
<text text-anchor="start" x="4301.7" y="-32.16" font-family="Helvetica,sans-Serif" font-size="14.00"> error: 0.615, n=2000 </text>
<text text-anchor="start" x="4163.2" y="-18.16" font-family="Helvetica,sans-Serif" font-size="14.00"> p: (0.01, 0.04, 0.00, 0.51, 0.19, 0.04, 0.15, 0.00, 0.04, 0.00) </text>
</g>
<!-- 17&#45;&gt;18 -->
<g id="edge19" class="edge">
<title>17:s&#45;&gt;18:n</title>
<path fill="none" stroke="black" d="M4734.2,-124.07C4734.2,-124.07 4448.45,-81 4390.41,-72.25"/>
<polygon fill="black" stroke="black" points="4390.61,-68.74 4380.2,-70.71 4389.56,-75.66 4390.61,-68.74"/>
<text text-anchor="middle" x="4620.7" y="-92.51" font-family="Helvetica,sans-Serif" font-size="14.00">&lt;= 9638</text>
</g>
<!-- 19 -->
<g id="node21" class="node">
<title>19</title>
<ellipse fill="#3d76cc" stroke="black" cx="5088.2" cy="-35.36" rx="318.4" ry="35.21"/>
<text text-anchor="start" x="5049.2" y="-46.16" font-family="Helvetica,sans-Serif" font-weight="bold" font-size="14.00"> Class=3 </text>
<text text-anchor="start" x="5122.2" y="-46.16" font-family="Helvetica,sans-Serif" font-size="14.00"> </text>
<text text-anchor="start" x="5009.7" y="-32.16" font-family="Helvetica,sans-Serif" font-size="14.00"> error: 0.337, n=2000 </text>
<text text-anchor="start" x="4871.2" y="-18.16" font-family="Helvetica,sans-Serif" font-size="14.00"> p: (0.01, 0.00, 0.00, 0.66, 0.02, 0.00, 0.31, 0.00, 0.00, 0.00) </text>
</g>
<!-- 17&#45;&gt;19 -->
<g id="edge20" class="edge">
<title>17:s&#45;&gt;19:n</title>
<path fill="none" stroke="black" d="M4734.2,-124.07C4734.2,-124.07 5019.94,-81 5077.99,-72.25"/>
<polygon fill="black" stroke="black" points="5078.83,-75.66 5088.2,-70.71 5077.79,-68.74 5078.83,-75.66"/>
<text text-anchor="middle" x="4989.7" y="-92.51" font-family="Helvetica,sans-Serif" font-size="14.00">&gt; 9638</text>
</g>
<!-- 21 -->
<g id="node22" class="node">
<title>21</title>
<ellipse fill="#3d76cc" stroke="black" cx="5796.2" cy="-35.36" rx="318.4" ry="35.21"/>
<text text-anchor="start" x="5757.2" y="-46.16" font-family="Helvetica,sans-Serif" font-weight="bold" font-size="14.00"> Class=4 </text>
<text text-anchor="start" x="5830.2" y="-46.16" font-family="Helvetica,sans-Serif" font-size="14.00"> </text>
<text text-anchor="start" x="5717.7" y="-32.16" font-family="Helvetica,sans-Serif" font-size="14.00"> error: 0.518, n=2000 </text>
<text text-anchor="start" x="5579.2" y="-18.16" font-family="Helvetica,sans-Serif" font-size="14.00"> p: (0.00, 0.01, 0.00, 0.05, 0.50, 0.34, 0.08, 0.01, 0.01, 0.00) </text>
</g>
<!-- 20&#45;&gt;21 -->
<g id="edge21" class="edge">
<title>20:s&#45;&gt;21:n</title>
<path fill="none" stroke="black" d="M5796.2,-124.07C5796.2,-124.07 5796.2,-96.5 5796.2,-81"/>
<polygon fill="black" stroke="black" points="5799.7,-80.71 5796.2,-70.71 5792.7,-80.71 5799.7,-80.71"/>
<text text-anchor="middle" x="5850.2" y="-92.51" font-family="Helvetica,sans-Serif" font-size="14.00">&lt;= 1.084e+04</text>
</g>
<!-- 22 -->
<g id="node23" class="node">
<title>22</title>
<ellipse fill="#3d76cc" stroke="black" cx="6504.2" cy="-35.36" rx="318.4" ry="35.21"/>
<text text-anchor="start" x="6465.2" y="-46.16" font-family="Helvetica,sans-Serif" font-weight="bold" font-size="14.00"> Class=6 </text>
<text text-anchor="start" x="6538.2" y="-46.16" font-family="Helvetica,sans-Serif" font-size="14.00"> </text>
<text text-anchor="start" x="6425.7" y="-32.16" font-family="Helvetica,sans-Serif" font-size="14.00"> error: 0.341, n=2000 </text>
<text text-anchor="start" x="6287.2" y="-18.16" font-family="Helvetica,sans-Serif" font-size="14.00"> p: (0.00, 0.01, 0.00, 0.03, 0.32, 0.00, 0.64, 0.00, 0.00, 0.00) </text>
</g>
<!-- 20&#45;&gt;22 -->
<g id="edge22" class="edge">
<title>20:s&#45;&gt;22:n</title>
<path fill="none" stroke="black" d="M5796.2,-124.07C5796.2,-124.07 6408.14,-77.95 6494.19,-71.46"/>
<polygon fill="black" stroke="black" points="6494.49,-74.95 6504.2,-70.71 6493.96,-67.97 6494.49,-74.95"/>
<text text-anchor="middle" x="6302.2" y="-92.51" font-family="Helvetica,sans-Serif" font-size="14.00">&gt; 1.084e+04</text>
</g>
</g>
</svg>
