<?xml version="1.0" encoding="UTF-8" standalone="no"?>
<!DOCTYPE svg PUBLIC "-//W3C//DTD SVG 1.1//EN"
 "http://www.w3.org/Graphics/SVG/1.1/DTD/svg11.dtd">
<!-- Generated by graphviz version 2.43.0 (0)
 -->
<!-- Title: Tree Pages: 1 -->
<svg width="548pt" height="531pt"
 viewBox="0.00 0.00 547.93 531.42" xmlns="http://www.w3.org/2000/svg" xmlns:xlink="http://www.w3.org/1999/xlink">
<g id="graph0" class="graph" transform="scale(1 1) rotate(0) translate(18 513.42)">
<title>Tree</title>
<polygon fill="white" stroke="transparent" points="-18,18 -18,-513.42 529.93,-513.42 529.93,18 -18,18"/>
<!-- 0 -->
<g id="node1" class="node">
<title>0</title>
<polygon fill="white" stroke="transparent" points="282.97,-495.42 228.97,-495.42 228.97,-459.42 282.97,-459.42 282.97,-495.42"/>
<text text-anchor="middle" x="255.97" y="-473.72" font-family="Helvetica,sans-Serif" font-size="14.00">0</text>
</g>
<!-- 1 -->
<g id="node2" class="node">
<title>1</title>
<polygon fill="#cc3d3d" stroke="black" points="342.47,-422.42 169.47,-422.42 169.47,-358.42 342.47,-358.42 342.47,-422.42"/>
<text text-anchor="start" x="201.47" y="-408.22" font-family="Helvetica,sans-Serif" font-weight="bold" font-size="14.00"> Class=False </text>
<text text-anchor="start" x="305.47" y="-408.22" font-family="Helvetica,sans-Serif" font-size="14.00"> </text>
<text text-anchor="start" x="177.47" y="-394.22" font-family="Helvetica,sans-Serif" font-size="14.00"> error: 0.364, n=1109 </text>
<text text-anchor="start" x="200.97" y="-380.22" font-family="Helvetica,sans-Serif" font-size="14.00"> p: (0.93, 0.07) </text>
<text text-anchor="start" x="225.47" y="-366.22" font-family="Helvetica,sans-Serif" font-weight="bold" font-size="14.00">lOBlank</text>
</g>
<!-- 0&#45;&gt;1 -->
<!-- 2 -->
<g id="node3" class="node">
<title>2</title>
<polygon fill="#c5e544" stroke="black" points="207.97,-304.07 23.97,-304.07 23.97,-240.07 207.97,-240.07 207.97,-304.07"/>
<text text-anchor="start" x="61.47" y="-289.87" font-family="Helvetica,sans-Serif" font-weight="bold" font-size="14.00"> Class=False </text>
<text text-anchor="start" x="165.47" y="-289.87" font-family="Helvetica,sans-Serif" font-size="14.00"> </text>
<text text-anchor="start" x="41.97" y="-275.87" font-family="Helvetica,sans-Serif" font-size="14.00"> error: 0.620, n=389 </text>
<text text-anchor="start" x="60.97" y="-261.87" font-family="Helvetica,sans-Serif" font-size="14.00"> p: (0.85, 0.15) </text>
<text text-anchor="start" x="31.97" y="-247.87" font-family="Helvetica,sans-Serif" font-weight="bold" font-size="14.00">locCodeAndComment</text>
</g>
<!-- 1&#45;&gt;2 -->
<g id="edge2" class="edge">
<title>1:s&#45;&gt;2:n</title>
<path fill="none" stroke="black" d="M255.97,-358.42C255.97,-358.42 157.22,-320.79 125.59,-308.73"/>
<polygon fill="black" stroke="black" points="126.56,-305.36 115.97,-305.07 124.06,-311.9 126.56,-305.36"/>
<text text-anchor="middle" x="219.97" y="-329.22" font-family="Helvetica,sans-Serif" font-size="14.00">&gt; 5</text>
</g>
<!-- 5 -->
<g id="node4" class="node">
<title>5</title>
<ellipse fill="#c5e544" stroke="black" cx="395.97" cy="-272.07" rx="115.93" ry="35.21"/>
<text text-anchor="start" x="341.47" y="-282.87" font-family="Helvetica,sans-Serif" font-weight="bold" font-size="14.00"> Class=False </text>
<text text-anchor="start" x="445.47" y="-282.87" font-family="Helvetica,sans-Serif" font-size="14.00"> </text>
<text text-anchor="start" x="321.97" y="-268.87" font-family="Helvetica,sans-Serif" font-size="14.00"> error: 0.161, n=720 </text>
<text text-anchor="start" x="340.97" y="-254.87" font-family="Helvetica,sans-Serif" font-size="14.00"> p: (0.98, 0.02) </text>
</g>
<!-- 1&#45;&gt;5 -->
<g id="edge3" class="edge">
<title>1:s&#45;&gt;5:n</title>
<path fill="none" stroke="black" d="M255.97,-358.42C255.97,-358.42 354.71,-322.45 386.34,-310.93"/>
<polygon fill="black" stroke="black" points="387.77,-314.13 395.97,-307.42 385.37,-307.56 387.77,-314.13"/>
<text text-anchor="middle" x="360.97" y="-329.22" font-family="Helvetica,sans-Serif" font-size="14.00">&lt;= 5</text>
</g>
<!-- 3 -->
<g id="node5" class="node">
<title>3</title>
<polygon fill="#3dcc76" stroke="black" points="197.97,-185.71 33.97,-185.71 33.97,-121.71 197.97,-121.71 197.97,-185.71"/>
<text text-anchor="start" x="61.47" y="-171.51" font-family="Helvetica,sans-Serif" font-weight="bold" font-size="14.00"> Class=False </text>
<text text-anchor="start" x="165.47" y="-171.51" font-family="Helvetica,sans-Serif" font-size="14.00"> </text>
<text text-anchor="start" x="41.97" y="-157.51" font-family="Helvetica,sans-Serif" font-size="14.00"> error: 0.551, n=368 </text>
<text text-anchor="start" x="60.97" y="-143.51" font-family="Helvetica,sans-Serif" font-size="14.00"> p: (0.87, 0.13) </text>
<text text-anchor="start" x="110.47" y="-129.51" font-family="Helvetica,sans-Serif" font-weight="bold" font-size="14.00">V</text>
</g>
<!-- 2&#45;&gt;3 -->
<g id="edge4" class="edge">
<title>2:s&#45;&gt;3:n</title>
<path fill="none" stroke="black" d="M115.97,-239.07C115.97,-239.07 115.97,-211.5 115.97,-196"/>
<polygon fill="black" stroke="black" points="119.47,-195.71 115.97,-185.71 112.47,-195.71 119.47,-195.71"/>
<text text-anchor="middle" x="134.97" y="-207.51" font-family="Helvetica,sans-Serif" font-size="14.00">&lt;= 9</text>
</g>
<!-- 4 -->
<g id="node6" class="node">
<title>4</title>
<ellipse fill="#4485e5" stroke="black" cx="115.97" cy="-35.36" rx="115.93" ry="35.21"/>
<text text-anchor="start" x="61.47" y="-46.16" font-family="Helvetica,sans-Serif" font-weight="bold" font-size="14.00"> Class=False </text>
<text text-anchor="start" x="165.47" y="-46.16" font-family="Helvetica,sans-Serif" font-size="14.00"> </text>
<text text-anchor="start" x="41.97" y="-32.16" font-family="Helvetica,sans-Serif" font-size="14.00"> error: 0.497, n=349 </text>
<text text-anchor="start" x="60.97" y="-18.16" font-family="Helvetica,sans-Serif" font-size="14.00"> p: (0.89, 0.11) </text>
</g>
<!-- 3&#45;&gt;4 -->
<g id="edge5" class="edge">
<title>3:s&#45;&gt;4:n</title>
<path fill="none" stroke="black" d="M115.97,-121.71C115.97,-121.71 115.97,-95.93 115.97,-81.03"/>
<polygon fill="black" stroke="black" points="119.47,-80.71 115.97,-70.71 112.47,-80.71 119.47,-80.71"/>
<text text-anchor="middle" x="148.47" y="-92.51" font-family="Helvetica,sans-Serif" font-size="14.00">&lt;= 3543</text>
</g>
</g>
</svg>
