<?xml version="1.0" encoding="UTF-8" standalone="no"?>
<!DOCTYPE svg PUBLIC "-//W3C//DTD SVG 1.1//EN"
 "http://www.w3.org/Graphics/SVG/1.1/DTD/svg11.dtd">
<!-- Generated by graphviz version 2.43.0 (0)
 -->
<!-- Title: Tree Pages: 1 -->
<svg width="1274pt" height="1242pt"
 viewBox="0.00 0.00 1273.57 1241.55" xmlns="http://www.w3.org/2000/svg" xmlns:xlink="http://www.w3.org/1999/xlink">
<g id="graph0" class="graph" transform="scale(1 1) rotate(0) translate(18 1223.55)">
<title>Tree</title>
<polygon fill="white" stroke="transparent" points="-18,18 -18,-1223.55 1255.57,-1223.55 1255.57,18 -18,18"/>
<!-- 0 -->
<g id="node1" class="node">
<title>0</title>
<polygon fill="white" stroke="transparent" points="709.6,-1205.55 655.6,-1205.55 655.6,-1169.55 709.6,-1169.55 709.6,-1205.55"/>
<text text-anchor="middle" x="682.6" y="-1183.85" font-family="Helvetica,sans-Serif" font-size="14.00">0</text>
</g>
<!-- 1 -->
<g id="node2" class="node">
<title>1</title>
<polygon fill="#cc3d3d" stroke="black" points="769.1,-1132.55 596.1,-1132.55 596.1,-1068.55 769.1,-1068.55 769.1,-1132.55"/>
<text text-anchor="start" x="628.1" y="-1118.35" font-family="Helvetica,sans-Serif" font-weight="bold" font-size="14.00"> Class=False </text>
<text text-anchor="start" x="732.1" y="-1118.35" font-family="Helvetica,sans-Serif" font-size="14.00"> </text>
<text text-anchor="start" x="604.1" y="-1104.35" font-family="Helvetica,sans-Serif" font-size="14.00"> error: 0.476, n=1563 </text>
<text text-anchor="start" x="627.6" y="-1090.35" font-family="Helvetica,sans-Serif" font-size="14.00"> p: (0.90, 0.10) </text>
<text text-anchor="start" x="637.1" y="-1076.35" font-family="Helvetica,sans-Serif" font-weight="bold" font-size="14.00">LOC_BLANK</text>
</g>
<!-- 0&#45;&gt;1 -->
<!-- 2 -->
<g id="node3" class="node">
<title>2</title>
<polygon fill="#e58544" stroke="black" points="647.1,-1017.55 474.1,-1017.55 474.1,-953.55 647.1,-953.55 647.1,-1017.55"/>
<text text-anchor="start" x="506.1" y="-1003.35" font-family="Helvetica,sans-Serif" font-weight="bold" font-size="14.00"> Class=False </text>
<text text-anchor="start" x="610.1" y="-1003.35" font-family="Helvetica,sans-Serif" font-size="14.00"> </text>
<text text-anchor="start" x="486.6" y="-989.35" font-family="Helvetica,sans-Serif" font-size="14.00"> error: 0.869, n=358 </text>
<text text-anchor="start" x="505.6" y="-975.35" font-family="Helvetica,sans-Serif" font-size="14.00"> p: (0.71, 0.29) </text>
<text text-anchor="start" x="482.1" y="-961.35" font-family="Helvetica,sans-Serif" font-weight="bold" font-size="14.00">PARAMETER_COUNT</text>
</g>
<!-- 1&#45;&gt;2 -->
<g id="edge2" class="edge">
<title>1:s&#45;&gt;2:n</title>
<path fill="none" stroke="black" d="M682.6,-1068.55C682.6,-1068.55 598.94,-1033.58 570.17,-1021.56"/>
<polygon fill="black" stroke="black" points="571.18,-1018.18 560.6,-1017.55 568.48,-1024.64 571.18,-1018.18"/>
<text text-anchor="middle" x="649.6" y="-1039.35" font-family="Helvetica,sans-Serif" font-size="14.00">&gt; 9</text>
</g>
<!-- 21 -->
<g id="node4" class="node">
<title>21</title>
<polygon fill="#e58544" stroke="black" points="904.1,-1017.55 731.1,-1017.55 731.1,-953.55 904.1,-953.55 904.1,-1017.55"/>
<text text-anchor="start" x="763.1" y="-1003.35" font-family="Helvetica,sans-Serif" font-weight="bold" font-size="14.00"> Class=False </text>
<text text-anchor="start" x="867.1" y="-1003.35" font-family="Helvetica,sans-Serif" font-size="14.00"> </text>
<text text-anchor="start" x="739.1" y="-989.35" font-family="Helvetica,sans-Serif" font-size="14.00"> error: 0.271, n=1205 </text>
<text text-anchor="start" x="762.6" y="-975.35" font-family="Helvetica,sans-Serif" font-size="14.00"> p: (0.95, 0.05) </text>
<text text-anchor="start" x="772.1" y="-961.35" font-family="Helvetica,sans-Serif" font-weight="bold" font-size="14.00">LOC_BLANK</text>
</g>
<!-- 1&#45;&gt;21 -->
<g id="edge3" class="edge">
<title>1:s&#45;&gt;21:n</title>
<path fill="none" stroke="black" d="M682.6,-1068.55C682.6,-1068.55 776.94,-1032.92 807.89,-1021.22"/>
<polygon fill="black" stroke="black" points="809.48,-1024.36 817.6,-1017.55 807.01,-1017.81 809.48,-1024.36"/>
<text text-anchor="middle" x="785.6" y="-1039.35" font-family="Helvetica,sans-Serif" font-size="14.00">&lt;= 9</text>
</g>
<!-- 3 -->
<g id="node5" class="node">
<title>3</title>
<polygon fill="#ccaf3d" stroke="black" points="630.1,-899.2 415.1,-899.2 415.1,-835.2 630.1,-835.2 630.1,-899.2"/>
<text text-anchor="start" x="468.1" y="-885" font-family="Helvetica,sans-Serif" font-weight="bold" font-size="14.00"> Class=False </text>
<text text-anchor="start" x="572.1" y="-885" font-family="Helvetica,sans-Serif" font-size="14.00"> </text>
<text text-anchor="start" x="448.6" y="-871" font-family="Helvetica,sans-Serif" font-size="14.00"> error: 0.890, n=338 </text>
<text text-anchor="start" x="467.6" y="-857" font-family="Helvetica,sans-Serif" font-size="14.00"> p: (0.69, 0.31) </text>
<text text-anchor="start" x="423.1" y="-843" font-family="Helvetica,sans-Serif" font-weight="bold" font-size="14.00">NUM_UNIQUE_OPERANDS</text>
</g>
<!-- 2&#45;&gt;3 -->
<g id="edge4" class="edge">
<title>2:s&#45;&gt;3:n</title>
<path fill="none" stroke="black" d="M560.6,-953.55C560.6,-953.55 539.23,-923.54 528.54,-908.53"/>
<polygon fill="black" stroke="black" points="531.25,-906.31 522.6,-900.2 525.55,-910.37 531.25,-906.31"/>
<text text-anchor="middle" x="566.6" y="-924.35" font-family="Helvetica,sans-Serif" font-size="14.00">&lt;= 3</text>
</g>
<!-- 22 -->
<g id="node23" class="node">
<title>22</title>
<ellipse fill="#ccaf3d" stroke="black" cx="817.6" cy="-867.2" rx="115.93" ry="35.21"/>
<text text-anchor="start" x="763.1" y="-878" font-family="Helvetica,sans-Serif" font-weight="bold" font-size="14.00"> Class=False </text>
<text text-anchor="start" x="867.1" y="-878" font-family="Helvetica,sans-Serif" font-size="14.00"> </text>
<text text-anchor="start" x="743.6" y="-864" font-family="Helvetica,sans-Serif" font-size="14.00"> error: 0.400, n=654 </text>
<text text-anchor="start" x="762.6" y="-850" font-family="Helvetica,sans-Serif" font-size="14.00"> p: (0.92, 0.08) </text>
</g>
<!-- 21&#45;&gt;22 -->
<g id="edge22" class="edge">
<title>21:s&#45;&gt;22:n</title>
<path fill="none" stroke="black" d="M817.6,-953.55C817.6,-953.55 817.6,-927.78 817.6,-912.87"/>
<polygon fill="black" stroke="black" points="821.1,-912.55 817.6,-902.55 814.1,-912.55 821.1,-912.55"/>
<text text-anchor="middle" x="830.6" y="-924.35" font-family="Helvetica,sans-Serif" font-size="14.00">&gt; 1</text>
</g>
<!-- 23 -->
<g id="node24" class="node">
<title>23</title>
<ellipse fill="#ccaf3d" stroke="black" cx="1121.6" cy="-867.2" rx="115.93" ry="35.21"/>
<text text-anchor="start" x="1067.1" y="-878" font-family="Helvetica,sans-Serif" font-weight="bold" font-size="14.00"> Class=False </text>
<text text-anchor="start" x="1171.1" y="-878" font-family="Helvetica,sans-Serif" font-size="14.00"> </text>
<text text-anchor="start" x="1047.6" y="-864" font-family="Helvetica,sans-Serif" font-size="14.00"> error: 0.062, n=551 </text>
<text text-anchor="start" x="1066.6" y="-850" font-family="Helvetica,sans-Serif" font-size="14.00"> p: (0.99, 0.01) </text>
</g>
<!-- 21&#45;&gt;23 -->
<g id="edge23" class="edge">
<title>21:s&#45;&gt;23:n</title>
<path fill="none" stroke="black" d="M817.6,-953.55C817.6,-953.55 1058.74,-913.1 1111.49,-904.25"/>
<polygon fill="black" stroke="black" points="1112.32,-907.66 1121.6,-902.55 1111.16,-900.76 1112.32,-907.66"/>
<text text-anchor="middle" x="1025.6" y="-924.35" font-family="Helvetica,sans-Serif" font-size="14.00">&lt;= 1</text>
</g>
<!-- 4 -->
<g id="node6" class="node">
<title>4</title>
<polygon fill="#c5e544" stroke="black" points="486.6,-780.84 262.6,-780.84 262.6,-716.84 486.6,-716.84 486.6,-780.84"/>
<text text-anchor="start" x="320.1" y="-766.64" font-family="Helvetica,sans-Serif" font-weight="bold" font-size="14.00"> Class=False </text>
<text text-anchor="start" x="424.1" y="-766.64" font-family="Helvetica,sans-Serif" font-size="14.00"> </text>
<text text-anchor="start" x="300.6" y="-752.64" font-family="Helvetica,sans-Serif" font-size="14.00"> error: 0.979, n=140 </text>
<text text-anchor="start" x="319.6" y="-738.64" font-family="Helvetica,sans-Serif" font-size="14.00"> p: (0.59, 0.41) </text>
<text text-anchor="start" x="270.6" y="-724.64" font-family="Helvetica,sans-Serif" font-weight="bold" font-size="14.00">NUM_UNIQUE_OPERATORS</text>
</g>
<!-- 3&#45;&gt;4 -->
<g id="edge5" class="edge">
<title>3:s&#45;&gt;4:n</title>
<path fill="none" stroke="black" d="M522.6,-834.2C522.6,-834.2 417.24,-796.21 384.31,-784.34"/>
<polygon fill="black" stroke="black" points="385.2,-780.94 374.6,-780.84 382.82,-787.53 385.2,-780.94"/>
<text text-anchor="middle" x="480.1" y="-802.64" font-family="Helvetica,sans-Serif" font-size="14.00">&gt; 37</text>
</g>
<!-- 12 -->
<g id="node7" class="node">
<title>12</title>
<polygon fill="#c5e544" stroke="black" points="784.6,-780.84 558.6,-780.84 558.6,-716.84 784.6,-716.84 784.6,-780.84"/>
<text text-anchor="start" x="617.1" y="-766.64" font-family="Helvetica,sans-Serif" font-weight="bold" font-size="14.00"> Class=False </text>
<text text-anchor="start" x="721.1" y="-766.64" font-family="Helvetica,sans-Serif" font-size="14.00"> </text>
<text text-anchor="start" x="597.6" y="-752.64" font-family="Helvetica,sans-Serif" font-size="14.00"> error: 0.782, n=198 </text>
<text text-anchor="start" x="616.6" y="-738.64" font-family="Helvetica,sans-Serif" font-size="14.00"> p: (0.77, 0.23) </text>
<text text-anchor="start" x="566.6" y="-724.64" font-family="Helvetica,sans-Serif" font-weight="bold" font-size="14.00">CYCLOMATIC_COMPLEXITY</text>
</g>
<!-- 3&#45;&gt;12 -->
<g id="edge6" class="edge">
<title>3:s&#45;&gt;12:n</title>
<path fill="none" stroke="black" d="M522.6,-834.2C522.6,-834.2 628.68,-796.21 661.83,-784.34"/>
<polygon fill="black" stroke="black" points="663.37,-787.51 671.6,-780.84 661.01,-780.92 663.37,-787.51"/>
<text text-anchor="middle" x="643.1" y="-802.64" font-family="Helvetica,sans-Serif" font-size="14.00">&lt;= 37</text>
</g>
<!-- 5 -->
<g id="node8" class="node">
<title>5</title>
<polygon fill="#76cc3d" stroke="black" points="205.6,-665.84 13.6,-665.84 13.6,-601.84 205.6,-601.84 205.6,-665.84"/>
<text text-anchor="start" x="55.1" y="-651.64" font-family="Helvetica,sans-Serif" font-weight="bold" font-size="14.00"> Class=False </text>
<text text-anchor="start" x="159.1" y="-651.64" font-family="Helvetica,sans-Serif" font-size="14.00"> </text>
<text text-anchor="start" x="40.1" y="-637.64" font-family="Helvetica,sans-Serif" font-size="14.00"> error: 0.811, n=52 </text>
<text text-anchor="start" x="54.6" y="-623.64" font-family="Helvetica,sans-Serif" font-size="14.00"> p: (0.75, 0.25) </text>
<text text-anchor="start" x="21.6" y="-609.64" font-family="Helvetica,sans-Serif" font-weight="bold" font-size="14.00">CYCLOMATIC_DENSITY</text>
</g>
<!-- 4&#45;&gt;5 -->
<g id="edge7" class="edge">
<title>4:s&#45;&gt;5:n</title>
<path fill="none" stroke="black" d="M374.6,-716.84C374.6,-716.84 168.07,-677.1 119.67,-667.78"/>
<polygon fill="black" stroke="black" points="120.08,-664.3 109.6,-665.84 118.76,-671.17 120.08,-664.3"/>
<text text-anchor="middle" x="292.1" y="-687.64" font-family="Helvetica,sans-Serif" font-size="14.00">&gt; 22</text>
</g>
<!-- 7 -->
<g id="node9" class="node">
<title>7</title>
<polygon fill="#76cc3d" stroke="black" points="501.6,-665.84 277.6,-665.84 277.6,-601.84 501.6,-601.84 501.6,-665.84"/>
<text text-anchor="start" x="338.6" y="-651.64" font-family="Helvetica,sans-Serif" font-weight="bold" font-size="14.00"> Class=True </text>
<text text-anchor="start" x="435.6" y="-651.64" font-family="Helvetica,sans-Serif" font-size="14.00"> </text>
<text text-anchor="start" x="320.1" y="-637.64" font-family="Helvetica,sans-Serif" font-size="14.00"> error: 1.000, n=88 </text>
<text text-anchor="start" x="334.6" y="-623.64" font-family="Helvetica,sans-Serif" font-size="14.00"> p: (0.49, 0.51) </text>
<text text-anchor="start" x="285.6" y="-609.64" font-family="Helvetica,sans-Serif" font-weight="bold" font-size="14.00">NUM_UNIQUE_OPERATORS</text>
</g>
<!-- 4&#45;&gt;7 -->
<g id="edge8" class="edge">
<title>4:s&#45;&gt;7:n</title>
<path fill="none" stroke="black" d="M374.6,-716.84C374.6,-716.84 382.35,-690.5 386.71,-675.68"/>
<polygon fill="black" stroke="black" points="390.14,-676.42 389.6,-665.84 383.42,-674.45 390.14,-676.42"/>
<text text-anchor="middle" x="408.1" y="-687.64" font-family="Helvetica,sans-Serif" font-size="14.00">&lt;= 22</text>
</g>
<!-- 13 -->
<g id="node15" class="node">
<title>13</title>
<polygon fill="#76cc3d" stroke="black" points="764.1,-665.84 579.1,-665.84 579.1,-601.84 764.1,-601.84 764.1,-665.84"/>
<text text-anchor="start" x="617.1" y="-651.64" font-family="Helvetica,sans-Serif" font-weight="bold" font-size="14.00"> Class=False </text>
<text text-anchor="start" x="721.1" y="-651.64" font-family="Helvetica,sans-Serif" font-size="14.00"> </text>
<text text-anchor="start" x="597.6" y="-637.64" font-family="Helvetica,sans-Serif" font-size="14.00"> error: 0.816, n=182 </text>
<text text-anchor="start" x="616.6" y="-623.64" font-family="Helvetica,sans-Serif" font-size="14.00"> p: (0.75, 0.25) </text>
<text text-anchor="start" x="587.1" y="-609.64" font-family="Helvetica,sans-Serif" font-weight="bold" font-size="14.00">DESIGN_COMPLEXITY</text>
</g>
<!-- 12&#45;&gt;13 -->
<g id="edge14" class="edge">
<title>12:s&#45;&gt;13:n</title>
<path fill="none" stroke="black" d="M671.6,-716.84C671.6,-716.84 671.6,-691.07 671.6,-676.16"/>
<polygon fill="black" stroke="black" points="675.1,-675.84 671.6,-665.84 668.1,-675.84 675.1,-675.84"/>
<text text-anchor="middle" x="684.6" y="-687.64" font-family="Helvetica,sans-Serif" font-size="14.00">&gt; 1</text>
</g>
<!-- 6 -->
<g id="node10" class="node">
<title>6</title>
<ellipse fill="#45e544" stroke="black" cx="109.6" cy="-515.49" rx="109.7" ry="35.21"/>
<text text-anchor="start" x="55.1" y="-526.29" font-family="Helvetica,sans-Serif" font-weight="bold" font-size="14.00"> Class=False </text>
<text text-anchor="start" x="159.1" y="-526.29" font-family="Helvetica,sans-Serif" font-size="14.00"> </text>
<text text-anchor="start" x="40.1" y="-512.29" font-family="Helvetica,sans-Serif" font-size="14.00"> error: 0.893, n=42 </text>
<text text-anchor="start" x="54.6" y="-498.29" font-family="Helvetica,sans-Serif" font-size="14.00"> p: (0.69, 0.31) </text>
</g>
<!-- 5&#45;&gt;6 -->
<g id="edge9" class="edge">
<title>5:s&#45;&gt;6:n</title>
<path fill="none" stroke="black" d="M109.6,-601.84C109.6,-601.84 109.6,-576.07 109.6,-561.16"/>
<polygon fill="black" stroke="black" points="113.1,-560.84 109.6,-550.84 106.1,-560.84 113.1,-560.84"/>
<text text-anchor="middle" x="140.1" y="-572.64" font-family="Helvetica,sans-Serif" font-size="14.00">&lt;= 0.26</text>
</g>
<!-- 8 -->
<g id="node11" class="node">
<title>8</title>
<polygon fill="#45e544" stroke="black" points="467.1,-547.49 312.1,-547.49 312.1,-483.49 467.1,-483.49 467.1,-547.49"/>
<text text-anchor="start" x="338.6" y="-533.29" font-family="Helvetica,sans-Serif" font-weight="bold" font-size="14.00"> Class=True </text>
<text text-anchor="start" x="435.6" y="-533.29" font-family="Helvetica,sans-Serif" font-size="14.00"> </text>
<text text-anchor="start" x="320.1" y="-519.29" font-family="Helvetica,sans-Serif" font-size="14.00"> error: 0.995, n=83 </text>
<text text-anchor="start" x="334.6" y="-505.29" font-family="Helvetica,sans-Serif" font-size="14.00"> p: (0.46, 0.54) </text>
<text text-anchor="start" x="324.6" y="-491.29" font-family="Helvetica,sans-Serif" font-weight="bold" font-size="14.00">LOC_COMMENTS</text>
</g>
<!-- 7&#45;&gt;8 -->
<g id="edge10" class="edge">
<title>7:s&#45;&gt;8:n</title>
<path fill="none" stroke="black" d="M389.6,-601.84C389.6,-601.84 389.6,-574.28 389.6,-558.77"/>
<polygon fill="black" stroke="black" points="393.1,-558.49 389.6,-548.49 386.1,-558.49 393.1,-558.49"/>
<text text-anchor="middle" x="407.1" y="-572.64" font-family="Helvetica,sans-Serif" font-size="14.00">&gt; 10</text>
</g>
<!-- 9 -->
<g id="node12" class="node">
<title>9</title>
<polygon fill="#3dcc76" stroke="black" points="472.6,-429.13 306.6,-429.13 306.6,-365.13 472.6,-365.13 472.6,-429.13"/>
<text text-anchor="start" x="335.1" y="-414.93" font-family="Helvetica,sans-Serif" font-weight="bold" font-size="14.00"> Class=False </text>
<text text-anchor="start" x="439.1" y="-414.93" font-family="Helvetica,sans-Serif" font-size="14.00"> </text>
<text text-anchor="start" x="320.1" y="-400.93" font-family="Helvetica,sans-Serif" font-size="14.00"> error: 0.985, n=49 </text>
<text text-anchor="start" x="334.6" y="-386.93" font-family="Helvetica,sans-Serif" font-size="14.00"> p: (0.57, 0.43) </text>
<text text-anchor="start" x="314.6" y="-372.93" font-family="Helvetica,sans-Serif" font-weight="bold" font-size="14.00">NUMBER_OF_LINES</text>
</g>
<!-- 8&#45;&gt;9 -->
<g id="edge11" class="edge">
<title>8:s&#45;&gt;9:n</title>
<path fill="none" stroke="black" d="M389.6,-482.49C389.6,-482.49 389.6,-454.92 389.6,-439.42"/>
<polygon fill="black" stroke="black" points="393.1,-439.13 389.6,-429.13 386.1,-439.13 393.1,-439.13"/>
<text text-anchor="middle" x="413.1" y="-450.93" font-family="Helvetica,sans-Serif" font-size="14.00">&lt;= 19</text>
</g>
<!-- 10 -->
<g id="node13" class="node">
<title>10</title>
<polygon fill="#44e5c5" stroke="black" points="467.1,-310.78 312.1,-310.78 312.1,-246.78 467.1,-246.78 467.1,-310.78"/>
<text text-anchor="start" x="335.1" y="-296.58" font-family="Helvetica,sans-Serif" font-weight="bold" font-size="14.00"> Class=False </text>
<text text-anchor="start" x="439.1" y="-296.58" font-family="Helvetica,sans-Serif" font-size="14.00"> </text>
<text text-anchor="start" x="320.1" y="-282.58" font-family="Helvetica,sans-Serif" font-size="14.00"> error: 0.999, n=44 </text>
<text text-anchor="start" x="334.6" y="-268.58" font-family="Helvetica,sans-Serif" font-size="14.00"> p: (0.52, 0.48) </text>
<text text-anchor="start" x="322.1" y="-254.58" font-family="Helvetica,sans-Serif" font-weight="bold" font-size="14.00">DESIGN_DENSITY</text>
</g>
<!-- 9&#45;&gt;10 -->
<g id="edge12" class="edge">
<title>9:s&#45;&gt;10:n</title>
<path fill="none" stroke="black" d="M389.6,-365.13C389.6,-365.13 389.6,-337.57 389.6,-322.06"/>
<polygon fill="black" stroke="black" points="393.1,-321.78 389.6,-311.78 386.1,-321.78 393.1,-321.78"/>
<text text-anchor="middle" x="417.6" y="-335.93" font-family="Helvetica,sans-Serif" font-size="14.00">&lt;= 102</text>
</g>
<!-- 11 -->
<g id="node14" class="node">
<title>11</title>
<ellipse fill="#3dafcc" stroke="black" cx="389.6" cy="-157.07" rx="109.7" ry="35.21"/>
<text text-anchor="start" x="335.1" y="-167.87" font-family="Helvetica,sans-Serif" font-weight="bold" font-size="14.00"> Class=False </text>
<text text-anchor="start" x="439.1" y="-167.87" font-family="Helvetica,sans-Serif" font-size="14.00"> </text>
<text text-anchor="start" x="320.1" y="-153.87" font-family="Helvetica,sans-Serif" font-size="14.00"> error: 0.977, n=39 </text>
<text text-anchor="start" x="334.6" y="-139.87" font-family="Helvetica,sans-Serif" font-size="14.00"> p: (0.59, 0.41) </text>
</g>
<!-- 10&#45;&gt;11 -->
<g id="edge13" class="edge">
<title>10:s&#45;&gt;11:n</title>
<path fill="none" stroke="black" d="M389.6,-245.78C389.6,-245.78 389.6,-218.21 389.6,-202.71"/>
<polygon fill="black" stroke="black" points="393.1,-202.42 389.6,-192.42 386.1,-202.42 393.1,-202.42"/>
<text text-anchor="middle" x="414.1" y="-214.22" font-family="Helvetica,sans-Serif" font-size="14.00">&gt; 0.25</text>
</g>
<!-- 14 -->
<g id="node16" class="node">
<title>14</title>
<polygon fill="#45e544" stroke="black" points="764.1,-547.49 579.1,-547.49 579.1,-483.49 764.1,-483.49 764.1,-547.49"/>
<text text-anchor="start" x="617.1" y="-533.29" font-family="Helvetica,sans-Serif" font-weight="bold" font-size="14.00"> Class=False </text>
<text text-anchor="start" x="721.1" y="-533.29" font-family="Helvetica,sans-Serif" font-size="14.00"> </text>
<text text-anchor="start" x="597.6" y="-519.29" font-family="Helvetica,sans-Serif" font-size="14.00"> error: 0.840, n=171 </text>
<text text-anchor="start" x="616.6" y="-505.29" font-family="Helvetica,sans-Serif" font-size="14.00"> p: (0.73, 0.27) </text>
<text text-anchor="start" x="587.1" y="-491.29" font-family="Helvetica,sans-Serif" font-weight="bold" font-size="14.00">DESIGN_COMPLEXITY</text>
</g>
<!-- 13&#45;&gt;14 -->
<g id="edge15" class="edge">
<title>13:s&#45;&gt;14:n</title>
<path fill="none" stroke="black" d="M671.6,-601.84C671.6,-601.84 671.6,-574.28 671.6,-558.77"/>
<polygon fill="black" stroke="black" points="675.1,-558.49 671.6,-548.49 668.1,-558.49 675.1,-558.49"/>
<text text-anchor="middle" x="690.6" y="-572.64" font-family="Helvetica,sans-Serif" font-size="14.00">&lt;= 6</text>
</g>
<!-- 15 -->
<g id="node17" class="node">
<title>15</title>
<polygon fill="#3dcc76" stroke="black" points="739.1,-429.13 584.1,-429.13 584.1,-365.13 739.1,-365.13 739.1,-429.13"/>
<text text-anchor="start" x="607.1" y="-414.93" font-family="Helvetica,sans-Serif" font-weight="bold" font-size="14.00"> Class=False </text>
<text text-anchor="start" x="711.1" y="-414.93" font-family="Helvetica,sans-Serif" font-size="14.00"> </text>
<text text-anchor="start" x="592.1" y="-400.93" font-family="Helvetica,sans-Serif" font-size="14.00"> error: 0.971, n=55 </text>
<text text-anchor="start" x="606.6" y="-386.93" font-family="Helvetica,sans-Serif" font-size="14.00"> p: (0.60, 0.40) </text>
<text text-anchor="start" x="597.1" y="-372.93" font-family="Helvetica,sans-Serif" font-weight="bold" font-size="14.00">BRANCH_COUNT</text>
</g>
<!-- 14&#45;&gt;15 -->
<g id="edge16" class="edge">
<title>14:s&#45;&gt;15:n</title>
<path fill="none" stroke="black" d="M671.6,-482.49C671.6,-482.49 666.44,-454.92 663.53,-439.42"/>
<polygon fill="black" stroke="black" points="666.88,-438.32 661.6,-429.13 660,-439.61 666.88,-438.32"/>
<text text-anchor="middle" x="680.6" y="-450.93" font-family="Helvetica,sans-Serif" font-size="14.00">&gt; 3</text>
</g>
<!-- 17 -->
<g id="node18" class="node">
<title>17</title>
<polygon fill="#3dcc76" stroke="black" points="991.6,-429.13 827.6,-429.13 827.6,-365.13 991.6,-365.13 991.6,-429.13"/>
<text text-anchor="start" x="855.1" y="-414.93" font-family="Helvetica,sans-Serif" font-weight="bold" font-size="14.00"> Class=False </text>
<text text-anchor="start" x="959.1" y="-414.93" font-family="Helvetica,sans-Serif" font-size="14.00"> </text>
<text text-anchor="start" x="835.6" y="-400.93" font-family="Helvetica,sans-Serif" font-size="14.00"> error: 0.736, n=116 </text>
<text text-anchor="start" x="854.6" y="-386.93" font-family="Helvetica,sans-Serif" font-size="14.00"> p: (0.79, 0.21) </text>
<text text-anchor="start" x="864.1" y="-372.93" font-family="Helvetica,sans-Serif" font-weight="bold" font-size="14.00">CALL_PAIRS</text>
</g>
<!-- 14&#45;&gt;17 -->
<g id="edge17" class="edge">
<title>14:s&#45;&gt;17:n</title>
<path fill="none" stroke="black" d="M671.6,-482.49C671.6,-482.49 854.63,-441.45 899.68,-431.36"/>
<polygon fill="black" stroke="black" points="900.61,-434.73 909.6,-429.13 899.08,-427.9 900.61,-434.73"/>
<text text-anchor="middle" x="845.6" y="-450.93" font-family="Helvetica,sans-Serif" font-size="14.00">&lt;= 3</text>
</g>
<!-- 16 -->
<g id="node19" class="node">
<title>16</title>
<ellipse fill="#44e5c5" stroke="black" cx="653.6" cy="-278.78" rx="109.7" ry="35.21"/>
<text text-anchor="start" x="599.1" y="-289.58" font-family="Helvetica,sans-Serif" font-weight="bold" font-size="14.00"> Class=False </text>
<text text-anchor="start" x="703.1" y="-289.58" font-family="Helvetica,sans-Serif" font-size="14.00"> </text>
<text text-anchor="start" x="584.1" y="-275.58" font-family="Helvetica,sans-Serif" font-size="14.00"> error: 1.000, n=45 </text>
<text text-anchor="start" x="598.6" y="-261.58" font-family="Helvetica,sans-Serif" font-size="14.00"> p: (0.51, 0.49) </text>
</g>
<!-- 15&#45;&gt;16 -->
<g id="edge18" class="edge">
<title>15:s&#45;&gt;16:n</title>
<path fill="none" stroke="black" d="M661.6,-365.13C661.6,-365.13 657.56,-339.35 655.22,-324.45"/>
<polygon fill="black" stroke="black" points="658.61,-323.47 653.6,-314.13 651.69,-324.55 658.61,-323.47"/>
<text text-anchor="middle" x="682.1" y="-335.93" font-family="Helvetica,sans-Serif" font-size="14.00">&lt;= 13</text>
</g>
<!-- 18 -->
<g id="node20" class="node">
<title>18</title>
<polygon fill="#44e5c5" stroke="black" points="1001.6,-310.78 835.6,-310.78 835.6,-246.78 1001.6,-246.78 1001.6,-310.78"/>
<text text-anchor="start" x="864.1" y="-296.58" font-family="Helvetica,sans-Serif" font-weight="bold" font-size="14.00"> Class=False </text>
<text text-anchor="start" x="968.1" y="-296.58" font-family="Helvetica,sans-Serif" font-size="14.00"> </text>
<text text-anchor="start" x="844.6" y="-282.58" font-family="Helvetica,sans-Serif" font-size="14.00"> error: 0.680, n=111 </text>
<text text-anchor="start" x="863.6" y="-268.58" font-family="Helvetica,sans-Serif" font-size="14.00"> p: (0.82, 0.18) </text>
<text text-anchor="start" x="843.6" y="-254.58" font-family="Helvetica,sans-Serif" font-weight="bold" font-size="14.00">NUMBER_OF_LINES</text>
</g>
<!-- 17&#45;&gt;18 -->
<g id="edge19" class="edge">
<title>17:s&#45;&gt;18:n</title>
<path fill="none" stroke="black" d="M909.6,-365.13C909.6,-365.13 914.25,-337.57 916.87,-322.06"/>
<polygon fill="black" stroke="black" points="920.39,-322.22 918.6,-311.78 913.49,-321.06 920.39,-322.22"/>
<text text-anchor="middle" x="934.6" y="-335.93" font-family="Helvetica,sans-Serif" font-size="14.00">&lt;= 7</text>
</g>
<!-- 19 -->
<g id="node21" class="node">
<title>19</title>
<polygon fill="#3dafcc" stroke="black" points="996.1,-189.07 841.1,-189.07 841.1,-125.07 996.1,-125.07 996.1,-189.07"/>
<text text-anchor="start" x="864.1" y="-174.87" font-family="Helvetica,sans-Serif" font-weight="bold" font-size="14.00"> Class=False </text>
<text text-anchor="start" x="968.1" y="-174.87" font-family="Helvetica,sans-Serif" font-size="14.00"> </text>
<text text-anchor="start" x="849.1" y="-160.87" font-family="Helvetica,sans-Serif" font-size="14.00"> error: 0.548, n=87 </text>
<text text-anchor="start" x="863.6" y="-146.87" font-family="Helvetica,sans-Serif" font-size="14.00"> p: (0.87, 0.13) </text>
<text text-anchor="start" x="849.6" y="-132.87" font-family="Helvetica,sans-Serif" font-weight="bold" font-size="14.00">LOC_EXECUTABLE</text>
</g>
<!-- 18&#45;&gt;19 -->
<g id="edge20" class="edge">
<title>18:s&#45;&gt;19:n</title>
<path fill="none" stroke="black" d="M918.6,-245.78C918.6,-245.78 918.6,-216.37 918.6,-200.28"/>
<polygon fill="black" stroke="black" points="922.1,-200.07 918.6,-190.07 915.1,-200.07 922.1,-200.07"/>
<text text-anchor="middle" x="942.1" y="-214.22" font-family="Helvetica,sans-Serif" font-size="14.00">&lt;= 60</text>
</g>
<!-- 20 -->
<g id="node22" class="node">
<title>20</title>
<ellipse fill="#4485e5" stroke="black" cx="918.6" cy="-35.36" rx="109.7" ry="35.21"/>
<text text-anchor="start" x="864.1" y="-46.16" font-family="Helvetica,sans-Serif" font-weight="bold" font-size="14.00"> Class=False </text>
<text text-anchor="start" x="968.1" y="-46.16" font-family="Helvetica,sans-Serif" font-size="14.00"> </text>
<text text-anchor="start" x="849.1" y="-32.16" font-family="Helvetica,sans-Serif" font-size="14.00"> error: 0.694, n=59 </text>
<text text-anchor="start" x="863.6" y="-18.16" font-family="Helvetica,sans-Serif" font-size="14.00"> p: (0.81, 0.19) </text>
</g>
<!-- 19&#45;&gt;20 -->
<g id="edge21" class="edge">
<title>19:s&#45;&gt;20:n</title>
<path fill="none" stroke="black" d="M918.6,-124.07C918.6,-124.07 918.6,-96.5 918.6,-81"/>
<polygon fill="black" stroke="black" points="922.1,-80.71 918.6,-70.71 915.1,-80.71 922.1,-80.71"/>
<text text-anchor="middle" x="942.1" y="-92.51" font-family="Helvetica,sans-Serif" font-size="14.00">&lt;= 21</text>
</g>
</g>
</svg>
