<?xml version="1.0" encoding="UTF-8" standalone="no"?>
<!DOCTYPE svg PUBLIC "-//W3C//DTD SVG 1.1//EN"
 "http://www.w3.org/Graphics/SVG/1.1/DTD/svg11.dtd">
<!-- Generated by graphviz version 2.43.0 (0)
 -->
<!-- Title: Tree Pages: 1 -->
<svg width="1647pt" height="1235pt"
 viewBox="0.00 0.00 1646.57 1234.84" xmlns="http://www.w3.org/2000/svg" xmlns:xlink="http://www.w3.org/1999/xlink">
<g id="graph0" class="graph" transform="scale(1 1) rotate(0) translate(18 1216.84)">
<title>Tree</title>
<polygon fill="white" stroke="transparent" points="-18,18 -18,-1216.84 1628.57,-1216.84 1628.57,18 -18,18"/>
<!-- 0 -->
<g id="node1" class="node">
<title>0</title>
<polygon fill="white" stroke="transparent" points="958.6,-1198.84 904.6,-1198.84 904.6,-1162.84 958.6,-1162.84 958.6,-1198.84"/>
<text text-anchor="middle" x="931.6" y="-1177.14" font-family="Helvetica,sans-Serif" font-size="14.00">0</text>
</g>
<!-- 1 -->
<g id="node2" class="node">
<title>1</title>
<polygon fill="#cc3d3d" stroke="black" points="1025.6,-1125.84 837.6,-1125.84 837.6,-1061.84 1025.6,-1061.84 1025.6,-1125.84"/>
<text text-anchor="start" x="877.1" y="-1111.64" font-family="Helvetica,sans-Serif" font-weight="bold" font-size="14.00"> Class=False </text>
<text text-anchor="start" x="981.1" y="-1111.64" font-family="Helvetica,sans-Serif" font-size="14.00"> </text>
<text text-anchor="start" x="853.1" y="-1097.64" font-family="Helvetica,sans-Serif" font-size="14.00"> error: 0.535, n=1458 </text>
<text text-anchor="start" x="876.6" y="-1083.64" font-family="Helvetica,sans-Serif" font-size="14.00"> p: (0.88, 0.12) </text>
<text text-anchor="start" x="845.6" y="-1069.64" font-family="Helvetica,sans-Serif" font-weight="bold" font-size="14.00">PERCENT_COMMENTS</text>
</g>
<!-- 0&#45;&gt;1 -->
<!-- 2 -->
<g id="node3" class="node">
<title>2</title>
<polygon fill="#e58544" stroke="black" points="894.1,-1007.49 667.1,-1007.49 667.1,-943.49 894.1,-943.49 894.1,-1007.49"/>
<text text-anchor="start" x="726.1" y="-993.29" font-family="Helvetica,sans-Serif" font-weight="bold" font-size="14.00"> Class=False </text>
<text text-anchor="start" x="830.1" y="-993.29" font-family="Helvetica,sans-Serif" font-size="14.00"> </text>
<text text-anchor="start" x="706.6" y="-979.29" font-family="Helvetica,sans-Serif" font-size="14.00"> error: 0.766, n=789 </text>
<text text-anchor="start" x="725.6" y="-965.29" font-family="Helvetica,sans-Serif" font-size="14.00"> p: (0.78, 0.22) </text>
<text text-anchor="start" x="675.1" y="-951.29" font-family="Helvetica,sans-Serif" font-weight="bold" font-size="14.00">LOC_CODE_AND_COMMENT</text>
</g>
<!-- 1&#45;&gt;2 -->
<g id="edge2" class="edge">
<title>1:s&#45;&gt;2:n</title>
<path fill="none" stroke="black" d="M931.6,-1061.84C931.6,-1061.84 823.1,-1023.51 790.05,-1011.82"/>
<polygon fill="black" stroke="black" points="791.2,-1008.52 780.6,-1008.49 788.86,-1015.12 791.2,-1008.52"/>
<text text-anchor="middle" x="903.1" y="-1032.64" font-family="Helvetica,sans-Serif" font-size="14.00">&gt; 5.13</text>
</g>
<!-- 26 -->
<g id="node4" class="node">
<title>26</title>
<ellipse fill="#e58544" stroke="black" cx="1081.6" cy="-975.49" rx="115.93" ry="35.21"/>
<text text-anchor="start" x="1027.1" y="-986.29" font-family="Helvetica,sans-Serif" font-weight="bold" font-size="14.00"> Class=False </text>
<text text-anchor="start" x="1131.1" y="-986.29" font-family="Helvetica,sans-Serif" font-size="14.00"> </text>
<text text-anchor="start" x="1007.6" y="-972.29" font-family="Helvetica,sans-Serif" font-size="14.00"> error: 0.029, n=669 </text>
<text text-anchor="start" x="1026.6" y="-958.29" font-family="Helvetica,sans-Serif" font-size="14.00"> p: (1.00, 0.00) </text>
</g>
<!-- 1&#45;&gt;26 -->
<g id="edge3" class="edge">
<title>1:s&#45;&gt;26:n</title>
<path fill="none" stroke="black" d="M931.6,-1061.84C931.6,-1061.84 1038.39,-1025.54 1071.76,-1014.19"/>
<polygon fill="black" stroke="black" points="1073.26,-1017.38 1081.6,-1010.84 1071.01,-1010.75 1073.26,-1017.38"/>
<text text-anchor="middle" x="1055.1" y="-1032.64" font-family="Helvetica,sans-Serif" font-size="14.00">&lt;= 5.13</text>
</g>
<!-- 3 -->
<g id="node5" class="node">
<title>3</title>
<polygon fill="#ccaf3d" stroke="black" points="729.6,-889.13 565.6,-889.13 565.6,-825.13 729.6,-825.13 729.6,-889.13"/>
<text text-anchor="start" x="596.6" y="-874.93" font-family="Helvetica,sans-Serif" font-weight="bold" font-size="14.00"> Class=True </text>
<text text-anchor="start" x="693.6" y="-874.93" font-family="Helvetica,sans-Serif" font-size="14.00"> </text>
<text text-anchor="start" x="573.6" y="-860.93" font-family="Helvetica,sans-Serif" font-size="14.00"> error: 0.971, n=100 </text>
<text text-anchor="start" x="592.6" y="-846.93" font-family="Helvetica,sans-Serif" font-size="14.00"> p: (0.40, 0.60) </text>
<text text-anchor="start" x="602.1" y="-832.93" font-family="Helvetica,sans-Serif" font-weight="bold" font-size="14.00">LOC_BLANK</text>
</g>
<!-- 2&#45;&gt;3 -->
<g id="edge4" class="edge">
<title>2:s&#45;&gt;3:n</title>
<path fill="none" stroke="black" d="M780.6,-942.49C780.6,-942.49 687.66,-905.2 657.17,-892.97"/>
<polygon fill="black" stroke="black" points="658.19,-889.61 647.6,-889.13 655.58,-896.1 658.19,-889.61"/>
<text text-anchor="middle" x="739.6" y="-910.93" font-family="Helvetica,sans-Serif" font-size="14.00">&gt; 8</text>
</g>
<!-- 8 -->
<g id="node6" class="node">
<title>8</title>
<polygon fill="#ccaf3d" stroke="black" points="1037.1,-889.13 810.1,-889.13 810.1,-825.13 1037.1,-825.13 1037.1,-889.13"/>
<text text-anchor="start" x="869.1" y="-874.93" font-family="Helvetica,sans-Serif" font-weight="bold" font-size="14.00"> Class=False </text>
<text text-anchor="start" x="973.1" y="-874.93" font-family="Helvetica,sans-Serif" font-size="14.00"> </text>
<text text-anchor="start" x="849.6" y="-860.93" font-family="Helvetica,sans-Serif" font-size="14.00"> error: 0.654, n=689 </text>
<text text-anchor="start" x="868.6" y="-846.93" font-family="Helvetica,sans-Serif" font-size="14.00"> p: (0.83, 0.17) </text>
<text text-anchor="start" x="818.1" y="-832.93" font-family="Helvetica,sans-Serif" font-weight="bold" font-size="14.00">LOC_CODE_AND_COMMENT</text>
</g>
<!-- 2&#45;&gt;8 -->
<g id="edge5" class="edge">
<title>2:s&#45;&gt;8:n</title>
<path fill="none" stroke="black" d="M780.6,-942.49C780.6,-942.49 882.41,-904.5 914.22,-892.63"/>
<polygon fill="black" stroke="black" points="915.46,-895.91 923.6,-889.13 913.01,-889.35 915.46,-895.91"/>
<text text-anchor="middle" x="892.6" y="-910.93" font-family="Helvetica,sans-Serif" font-size="14.00">&lt;= 8</text>
</g>
<!-- 4 -->
<g id="node7" class="node">
<title>4</title>
<polygon fill="#c5e544" stroke="black" points="683.1,-774.13 514.1,-774.13 514.1,-710.13 683.1,-710.13 683.1,-774.13"/>
<text text-anchor="start" x="547.6" y="-759.93" font-family="Helvetica,sans-Serif" font-weight="bold" font-size="14.00"> Class=True </text>
<text text-anchor="start" x="644.6" y="-759.93" font-family="Helvetica,sans-Serif" font-size="14.00"> </text>
<text text-anchor="start" x="529.1" y="-745.93" font-family="Helvetica,sans-Serif" font-size="14.00"> error: 0.800, n=70 </text>
<text text-anchor="start" x="543.6" y="-731.93" font-family="Helvetica,sans-Serif" font-size="14.00"> p: (0.24, 0.76) </text>
<text text-anchor="start" x="522.1" y="-717.93" font-family="Helvetica,sans-Serif" font-weight="bold" font-size="14.00">CONDITION_COUNT</text>
</g>
<!-- 3&#45;&gt;4 -->
<g id="edge6" class="edge">
<title>3:s&#45;&gt;4:n</title>
<path fill="none" stroke="black" d="M647.6,-825.13C647.6,-825.13 619.46,-795.84 605.83,-781.66"/>
<polygon fill="black" stroke="black" points="608.05,-778.92 598.6,-774.13 603.01,-783.77 608.05,-778.92"/>
<text text-anchor="middle" x="653.1" y="-795.93" font-family="Helvetica,sans-Serif" font-size="14.00">&lt;= 27</text>
</g>
<!-- 9 -->
<g id="node11" class="node">
<title>9</title>
<polygon fill="#c5e544" stroke="black" points="1029.1,-774.13 818.1,-774.13 818.1,-710.13 1029.1,-710.13 1029.1,-774.13"/>
<text text-anchor="start" x="869.1" y="-759.93" font-family="Helvetica,sans-Serif" font-weight="bold" font-size="14.00"> Class=False </text>
<text text-anchor="start" x="973.1" y="-759.93" font-family="Helvetica,sans-Serif" font-size="14.00"> </text>
<text text-anchor="start" x="849.6" y="-745.93" font-family="Helvetica,sans-Serif" font-size="14.00"> error: 0.817, n=446 </text>
<text text-anchor="start" x="868.6" y="-731.93" font-family="Helvetica,sans-Serif" font-size="14.00"> p: (0.75, 0.25) </text>
<text text-anchor="start" x="826.1" y="-717.93" font-family="Helvetica,sans-Serif" font-weight="bold" font-size="14.00">ESSENTIAL_COMPLEXITY</text>
</g>
<!-- 8&#45;&gt;9 -->
<g id="edge10" class="edge">
<title>8:s&#45;&gt;9:n</title>
<path fill="none" stroke="black" d="M923.6,-825.13C923.6,-825.13 923.6,-799.35 923.6,-784.45"/>
<polygon fill="black" stroke="black" points="927.1,-784.13 923.6,-774.13 920.1,-784.13 927.1,-784.13"/>
<text text-anchor="middle" x="936.6" y="-795.93" font-family="Helvetica,sans-Serif" font-size="14.00">&gt; 0</text>
</g>
<!-- 23 -->
<g id="node12" class="node">
<title>23</title>
<polygon fill="#c5e544" stroke="black" points="1287.6,-774.13 1105.6,-774.13 1105.6,-710.13 1287.6,-710.13 1287.6,-774.13"/>
<text text-anchor="start" x="1142.1" y="-759.93" font-family="Helvetica,sans-Serif" font-weight="bold" font-size="14.00"> Class=False </text>
<text text-anchor="start" x="1246.1" y="-759.93" font-family="Helvetica,sans-Serif" font-size="14.00"> </text>
<text text-anchor="start" x="1122.6" y="-745.93" font-family="Helvetica,sans-Serif" font-size="14.00"> error: 0.096, n=243 </text>
<text text-anchor="start" x="1141.6" y="-731.93" font-family="Helvetica,sans-Serif" font-size="14.00"> p: (0.99, 0.01) </text>
<text text-anchor="start" x="1113.6" y="-717.93" font-family="Helvetica,sans-Serif" font-weight="bold" font-size="14.00">HALSTEAD_CONTENT</text>
</g>
<!-- 8&#45;&gt;23 -->
<g id="edge11" class="edge">
<title>8:s&#45;&gt;23:n</title>
<path fill="none" stroke="black" d="M923.6,-825.13C923.6,-825.13 1137.31,-785.21 1186.56,-776.01"/>
<polygon fill="black" stroke="black" points="1187.41,-779.41 1196.6,-774.13 1186.13,-772.53 1187.41,-779.41"/>
<text text-anchor="middle" x="1111.6" y="-795.93" font-family="Helvetica,sans-Serif" font-size="14.00">&lt;= 0</text>
</g>
<!-- 5 -->
<g id="node8" class="node">
<title>5</title>
<polygon fill="#76cc3d" stroke="black" points="477.1,-655.78 322.1,-655.78 322.1,-591.78 477.1,-591.78 477.1,-655.78"/>
<text text-anchor="start" x="348.6" y="-641.58" font-family="Helvetica,sans-Serif" font-weight="bold" font-size="14.00"> Class=True </text>
<text text-anchor="start" x="445.6" y="-641.58" font-family="Helvetica,sans-Serif" font-size="14.00"> </text>
<text text-anchor="start" x="330.1" y="-627.58" font-family="Helvetica,sans-Serif" font-size="14.00"> error: 0.644, n=61 </text>
<text text-anchor="start" x="344.6" y="-613.58" font-family="Helvetica,sans-Serif" font-size="14.00"> p: (0.16, 0.84) </text>
<text text-anchor="start" x="334.6" y="-599.58" font-family="Helvetica,sans-Serif" font-weight="bold" font-size="14.00">LOC_COMMENTS</text>
</g>
<!-- 4&#45;&gt;5 -->
<g id="edge7" class="edge">
<title>4:s&#45;&gt;5:n</title>
<path fill="none" stroke="black" d="M598.6,-710.13C598.6,-710.13 449.62,-670.19 409.47,-659.42"/>
<polygon fill="black" stroke="black" points="410.17,-655.99 399.6,-656.78 408.35,-662.75 410.17,-655.99"/>
<text text-anchor="middle" x="541.6" y="-680.93" font-family="Helvetica,sans-Serif" font-size="14.00">&gt; 0</text>
</g>
<!-- 6 -->
<g id="node9" class="node">
<title>6</title>
<polygon fill="#45e544" stroke="black" points="215.1,-537.42 60.1,-537.42 60.1,-473.42 215.1,-473.42 215.1,-537.42"/>
<text text-anchor="start" x="86.6" y="-523.22" font-family="Helvetica,sans-Serif" font-weight="bold" font-size="14.00"> Class=True </text>
<text text-anchor="start" x="183.6" y="-523.22" font-family="Helvetica,sans-Serif" font-size="14.00"> </text>
<text text-anchor="start" x="68.1" y="-509.22" font-family="Helvetica,sans-Serif" font-size="14.00"> error: 0.531, n=58 </text>
<text text-anchor="start" x="82.6" y="-495.22" font-family="Helvetica,sans-Serif" font-size="14.00"> p: (0.12, 0.88) </text>
<text text-anchor="start" x="68.6" y="-481.22" font-family="Helvetica,sans-Serif" font-weight="bold" font-size="14.00">HALSTEAD_LEVEL</text>
</g>
<!-- 5&#45;&gt;6 -->
<g id="edge8" class="edge">
<title>5:s&#45;&gt;6:n</title>
<path fill="none" stroke="black" d="M399.6,-590.78C399.6,-590.78 195.41,-549.19 147.55,-539.45"/>
<polygon fill="black" stroke="black" points="148.1,-535.99 137.6,-537.42 146.7,-542.85 148.1,-535.99"/>
<text text-anchor="middle" x="316.1" y="-559.22" font-family="Helvetica,sans-Serif" font-size="14.00">&lt;= 28</text>
</g>
<!-- 7 -->
<g id="node10" class="node">
<title>7</title>
<ellipse fill="#3dcc76" stroke="black" cx="109.6" cy="-387.07" rx="109.7" ry="35.21"/>
<text text-anchor="start" x="58.6" y="-397.87" font-family="Helvetica,sans-Serif" font-weight="bold" font-size="14.00"> Class=True </text>
<text text-anchor="start" x="155.6" y="-397.87" font-family="Helvetica,sans-Serif" font-size="14.00"> </text>
<text text-anchor="start" x="40.1" y="-383.87" font-family="Helvetica,sans-Serif" font-size="14.00"> error: 0.386, n=53 </text>
<text text-anchor="start" x="54.6" y="-369.87" font-family="Helvetica,sans-Serif" font-size="14.00"> p: (0.08, 0.92) </text>
</g>
<!-- 6&#45;&gt;7 -->
<g id="edge9" class="edge">
<title>6:s&#45;&gt;7:n</title>
<path fill="none" stroke="black" d="M137.6,-473.42C137.6,-473.42 122.5,-445.92 114.48,-431.3"/>
<polygon fill="black" stroke="black" points="117.48,-429.5 109.6,-422.42 111.35,-432.87 117.48,-429.5"/>
<text text-anchor="middle" x="152.1" y="-444.22" font-family="Helvetica,sans-Serif" font-size="14.00">&gt; 0.01</text>
</g>
<!-- 10 -->
<g id="node13" class="node">
<title>10</title>
<polygon fill="#76cc3d" stroke="black" points="773.6,-655.78 609.6,-655.78 609.6,-591.78 773.6,-591.78 773.6,-655.78"/>
<text text-anchor="start" x="637.1" y="-641.58" font-family="Helvetica,sans-Serif" font-weight="bold" font-size="14.00"> Class=False </text>
<text text-anchor="start" x="741.1" y="-641.58" font-family="Helvetica,sans-Serif" font-size="14.00"> </text>
<text text-anchor="start" x="617.6" y="-627.58" font-family="Helvetica,sans-Serif" font-size="14.00"> error: 0.416, n=131 </text>
<text text-anchor="start" x="636.6" y="-613.58" font-family="Helvetica,sans-Serif" font-size="14.00"> p: (0.92, 0.08) </text>
<text text-anchor="start" x="646.1" y="-599.58" font-family="Helvetica,sans-Serif" font-weight="bold" font-size="14.00">CALL_PAIRS</text>
</g>
<!-- 9&#45;&gt;10 -->
<g id="edge12" class="edge">
<title>9:s&#45;&gt;10:n</title>
<path fill="none" stroke="black" d="M923.6,-710.13C923.6,-710.13 745.98,-669.28 701.57,-659.07"/>
<polygon fill="black" stroke="black" points="702.13,-655.61 691.6,-656.78 700.56,-662.43 702.13,-655.61"/>
<text text-anchor="middle" x="855.6" y="-680.93" font-family="Helvetica,sans-Serif" font-size="14.00">&gt; 1</text>
</g>
<!-- 15 -->
<g id="node14" class="node">
<title>15</title>
<polygon fill="#76cc3d" stroke="black" points="1014.6,-655.78 850.6,-655.78 850.6,-591.78 1014.6,-591.78 1014.6,-655.78"/>
<text text-anchor="start" x="878.1" y="-641.58" font-family="Helvetica,sans-Serif" font-weight="bold" font-size="14.00"> Class=False </text>
<text text-anchor="start" x="982.1" y="-641.58" font-family="Helvetica,sans-Serif" font-size="14.00"> </text>
<text text-anchor="start" x="858.6" y="-627.58" font-family="Helvetica,sans-Serif" font-size="14.00"> error: 0.908, n=315 </text>
<text text-anchor="start" x="877.6" y="-613.58" font-family="Helvetica,sans-Serif" font-size="14.00"> p: (0.68, 0.32) </text>
<text text-anchor="start" x="867.6" y="-599.58" font-family="Helvetica,sans-Serif" font-weight="bold" font-size="14.00">LOC_COMMENTS</text>
</g>
<!-- 9&#45;&gt;15 -->
<g id="edge13" class="edge">
<title>9:s&#45;&gt;15:n</title>
<path fill="none" stroke="black" d="M923.6,-710.13C923.6,-710.13 928.25,-682.57 930.87,-667.06"/>
<polygon fill="black" stroke="black" points="934.39,-667.22 932.6,-656.78 927.49,-666.06 934.39,-667.22"/>
<text text-anchor="middle" x="948.6" y="-680.93" font-family="Helvetica,sans-Serif" font-size="14.00">&lt;= 1</text>
</g>
<!-- 24 -->
<g id="node26" class="node">
<title>24</title>
<ellipse fill="#76cc3d" stroke="black" cx="1196.6" cy="-623.78" rx="109.7" ry="35.21"/>
<text text-anchor="start" x="1142.1" y="-634.58" font-family="Helvetica,sans-Serif" font-weight="bold" font-size="14.00"> Class=False </text>
<text text-anchor="start" x="1246.1" y="-634.58" font-family="Helvetica,sans-Serif" font-size="14.00"> </text>
<text text-anchor="start" x="1127.1" y="-620.58" font-family="Helvetica,sans-Serif" font-size="14.00"> error: 0.314, n=53 </text>
<text text-anchor="start" x="1141.6" y="-606.58" font-family="Helvetica,sans-Serif" font-size="14.00"> p: (0.94, 0.06) </text>
</g>
<!-- 23&#45;&gt;24 -->
<g id="edge25" class="edge">
<title>23:s&#45;&gt;24:n</title>
<path fill="none" stroke="black" d="M1196.6,-710.13C1196.6,-710.13 1196.6,-684.35 1196.6,-669.45"/>
<polygon fill="black" stroke="black" points="1200.1,-669.13 1196.6,-659.13 1193.1,-669.13 1200.1,-669.13"/>
<text text-anchor="middle" x="1225.6" y="-680.93" font-family="Helvetica,sans-Serif" font-size="14.00">&gt; 33.15</text>
</g>
<!-- 25 -->
<g id="node27" class="node">
<title>25</title>
<ellipse fill="#76cc3d" stroke="black" cx="1494.6" cy="-623.78" rx="115.93" ry="35.21"/>
<text text-anchor="start" x="1440.1" y="-634.58" font-family="Helvetica,sans-Serif" font-weight="bold" font-size="14.00"> Class=False </text>
<text text-anchor="start" x="1544.1" y="-634.58" font-family="Helvetica,sans-Serif" font-size="14.00"> </text>
<text text-anchor="start" x="1420.6" y="-620.58" font-family="Helvetica,sans-Serif" font-size="14.00"> error: 0.000, n=190 </text>
<text text-anchor="start" x="1439.6" y="-606.58" font-family="Helvetica,sans-Serif" font-size="14.00"> p: (1.00, 0.00) </text>
</g>
<!-- 23&#45;&gt;25 -->
<g id="edge26" class="edge">
<title>23:s&#45;&gt;25:n</title>
<path fill="none" stroke="black" d="M1196.6,-710.13C1196.6,-710.13 1432.98,-669.68 1484.69,-660.83"/>
<polygon fill="black" stroke="black" points="1485.34,-664.27 1494.6,-659.13 1484.15,-657.37 1485.34,-664.27"/>
<text text-anchor="middle" x="1416.6" y="-680.93" font-family="Helvetica,sans-Serif" font-size="14.00">&lt;= 33.15</text>
</g>
<!-- 11 -->
<g id="node15" class="node">
<title>11</title>
<polygon fill="#45e544" stroke="black" points="515.1,-537.42 342.1,-537.42 342.1,-473.42 515.1,-473.42 515.1,-537.42"/>
<text text-anchor="start" x="374.1" y="-523.22" font-family="Helvetica,sans-Serif" font-weight="bold" font-size="14.00"> Class=False </text>
<text text-anchor="start" x="478.1" y="-523.22" font-family="Helvetica,sans-Serif" font-size="14.00"> </text>
<text text-anchor="start" x="359.1" y="-509.22" font-family="Helvetica,sans-Serif" font-size="14.00"> error: 0.151, n=92 </text>
<text text-anchor="start" x="373.6" y="-495.22" font-family="Helvetica,sans-Serif" font-size="14.00"> p: (0.98, 0.02) </text>
<text text-anchor="start" x="350.1" y="-481.22" font-family="Helvetica,sans-Serif" font-weight="bold" font-size="14.00">PARAMETER_COUNT</text>
</g>
<!-- 10&#45;&gt;11 -->
<g id="edge14" class="edge">
<title>10:s&#45;&gt;11:n</title>
<path fill="none" stroke="black" d="M691.6,-590.78C691.6,-590.78 486.63,-549.19 438.59,-539.45"/>
<polygon fill="black" stroke="black" points="439.1,-535.98 428.6,-537.42 437.71,-542.84 439.1,-535.98"/>
<text text-anchor="middle" x="597.6" y="-559.22" font-family="Helvetica,sans-Serif" font-size="14.00">&gt; 1</text>
</g>
<!-- 13 -->
<g id="node16" class="node">
<title>13</title>
<polygon fill="#45e544" stroke="black" points="769.1,-537.42 614.1,-537.42 614.1,-473.42 769.1,-473.42 769.1,-537.42"/>
<text text-anchor="start" x="637.1" y="-523.22" font-family="Helvetica,sans-Serif" font-weight="bold" font-size="14.00"> Class=False </text>
<text text-anchor="start" x="741.1" y="-523.22" font-family="Helvetica,sans-Serif" font-size="14.00"> </text>
<text text-anchor="start" x="622.1" y="-509.22" font-family="Helvetica,sans-Serif" font-size="14.00"> error: 0.779, n=39 </text>
<text text-anchor="start" x="636.6" y="-495.22" font-family="Helvetica,sans-Serif" font-size="14.00"> p: (0.77, 0.23) </text>
<text text-anchor="start" x="622.6" y="-481.22" font-family="Helvetica,sans-Serif" font-weight="bold" font-size="14.00">HALSTEAD_LEVEL</text>
</g>
<!-- 10&#45;&gt;13 -->
<g id="edge15" class="edge">
<title>10:s&#45;&gt;13:n</title>
<path fill="none" stroke="black" d="M691.6,-590.78C691.6,-590.78 691.6,-563.21 691.6,-547.71"/>
<polygon fill="black" stroke="black" points="695.1,-547.42 691.6,-537.42 688.1,-547.42 695.1,-547.42"/>
<text text-anchor="middle" x="710.6" y="-559.22" font-family="Helvetica,sans-Serif" font-size="14.00">&lt;= 1</text>
</g>
<!-- 16 -->
<g id="node19" class="node">
<title>16</title>
<polygon fill="#45e544" stroke="black" points="1058.1,-537.42 863.1,-537.42 863.1,-473.42 1058.1,-473.42 1058.1,-537.42"/>
<text text-anchor="start" x="906.1" y="-523.22" font-family="Helvetica,sans-Serif" font-weight="bold" font-size="14.00"> Class=False </text>
<text text-anchor="start" x="1010.1" y="-523.22" font-family="Helvetica,sans-Serif" font-size="14.00"> </text>
<text text-anchor="start" x="891.1" y="-509.22" font-family="Helvetica,sans-Serif" font-size="14.00"> error: 0.318, n=52 </text>
<text text-anchor="start" x="905.6" y="-495.22" font-family="Helvetica,sans-Serif" font-size="14.00"> p: (0.94, 0.06) </text>
<text text-anchor="start" x="871.1" y="-481.22" font-family="Helvetica,sans-Serif" font-weight="bold" font-size="14.00">HALSTEAD_ERROR_EST</text>
</g>
<!-- 15&#45;&gt;16 -->
<g id="edge18" class="edge">
<title>15:s&#45;&gt;16:n</title>
<path fill="none" stroke="black" d="M932.6,-590.78C932.6,-590.78 947.7,-562 955.72,-546.72"/>
<polygon fill="black" stroke="black" points="959.05,-547.9 960.6,-537.42 952.86,-544.65 959.05,-547.9"/>
<text text-anchor="middle" x="969.1" y="-559.22" font-family="Helvetica,sans-Serif" font-size="14.00">&gt; 13</text>
</g>
<!-- 18 -->
<g id="node20" class="node">
<title>18</title>
<polygon fill="#45e544" stroke="black" points="1326.6,-537.42 1162.6,-537.42 1162.6,-473.42 1326.6,-473.42 1326.6,-537.42"/>
<text text-anchor="start" x="1190.1" y="-523.22" font-family="Helvetica,sans-Serif" font-weight="bold" font-size="14.00"> Class=False </text>
<text text-anchor="start" x="1294.1" y="-523.22" font-family="Helvetica,sans-Serif" font-size="14.00"> </text>
<text text-anchor="start" x="1170.6" y="-509.22" font-family="Helvetica,sans-Serif" font-size="14.00"> error: 0.955, n=263 </text>
<text text-anchor="start" x="1189.6" y="-495.22" font-family="Helvetica,sans-Serif" font-size="14.00"> p: (0.62, 0.38) </text>
<text text-anchor="start" x="1199.1" y="-481.22" font-family="Helvetica,sans-Serif" font-weight="bold" font-size="14.00">LOC_BLANK</text>
</g>
<!-- 15&#45;&gt;18 -->
<g id="edge19" class="edge">
<title>15:s&#45;&gt;18:n</title>
<path fill="none" stroke="black" d="M932.6,-590.78C932.6,-590.78 1181.17,-548.27 1234.57,-539.14"/>
<polygon fill="black" stroke="black" points="1235.33,-542.56 1244.6,-537.42 1234.15,-535.66 1235.33,-542.56"/>
<text text-anchor="middle" x="1159.1" y="-559.22" font-family="Helvetica,sans-Serif" font-size="14.00">&lt;= 13</text>
</g>
<!-- 12 -->
<g id="node17" class="node">
<title>12</title>
<ellipse fill="#3dcc76" stroke="black" cx="400.6" cy="-387.07" rx="109.7" ry="35.21"/>
<text text-anchor="start" x="346.1" y="-397.87" font-family="Helvetica,sans-Serif" font-weight="bold" font-size="14.00"> Class=False </text>
<text text-anchor="start" x="450.1" y="-397.87" font-family="Helvetica,sans-Serif" font-size="14.00"> </text>
<text text-anchor="start" x="331.1" y="-383.87" font-family="Helvetica,sans-Serif" font-size="14.00"> error: 0.000, n=64 </text>
<text text-anchor="start" x="345.6" y="-369.87" font-family="Helvetica,sans-Serif" font-size="14.00"> p: (1.00, 0.00) </text>
</g>
<!-- 11&#45;&gt;12 -->
<g id="edge16" class="edge">
<title>11:s&#45;&gt;12:n</title>
<path fill="none" stroke="black" d="M428.6,-473.42C428.6,-473.42 413.5,-445.92 405.48,-431.3"/>
<polygon fill="black" stroke="black" points="408.48,-429.5 400.6,-422.42 402.35,-432.87 408.48,-429.5"/>
<text text-anchor="middle" x="437.6" y="-444.22" font-family="Helvetica,sans-Serif" font-size="14.00">&lt;= 1</text>
</g>
<!-- 14 -->
<g id="node18" class="node">
<title>14</title>
<ellipse fill="#3dcc76" stroke="black" cx="691.6" cy="-387.07" rx="109.7" ry="35.21"/>
<text text-anchor="start" x="637.1" y="-397.87" font-family="Helvetica,sans-Serif" font-weight="bold" font-size="14.00"> Class=False </text>
<text text-anchor="start" x="741.1" y="-397.87" font-family="Helvetica,sans-Serif" font-size="14.00"> </text>
<text text-anchor="start" x="622.1" y="-383.87" font-family="Helvetica,sans-Serif" font-size="14.00"> error: 0.650, n=36 </text>
<text text-anchor="start" x="636.6" y="-369.87" font-family="Helvetica,sans-Serif" font-size="14.00"> p: (0.83, 0.17) </text>
</g>
<!-- 13&#45;&gt;14 -->
<g id="edge17" class="edge">
<title>13:s&#45;&gt;14:n</title>
<path fill="none" stroke="black" d="M691.6,-473.42C691.6,-473.42 691.6,-447.64 691.6,-432.74"/>
<polygon fill="black" stroke="black" points="695.1,-432.42 691.6,-422.42 688.1,-432.42 695.1,-432.42"/>
<text text-anchor="middle" x="717.6" y="-444.22" font-family="Helvetica,sans-Serif" font-size="14.00">&lt;= 0.1</text>
</g>
<!-- 17 -->
<g id="node21" class="node">
<title>17</title>
<ellipse fill="#3dcc76" stroke="black" cx="982.6" cy="-387.07" rx="109.7" ry="35.21"/>
<text text-anchor="start" x="928.1" y="-397.87" font-family="Helvetica,sans-Serif" font-weight="bold" font-size="14.00"> Class=False </text>
<text text-anchor="start" x="1032.1" y="-397.87" font-family="Helvetica,sans-Serif" font-size="14.00"> </text>
<text text-anchor="start" x="913.1" y="-383.87" font-family="Helvetica,sans-Serif" font-size="14.00"> error: 0.000, n=42 </text>
<text text-anchor="start" x="927.6" y="-369.87" font-family="Helvetica,sans-Serif" font-size="14.00"> p: (1.00, 0.00) </text>
</g>
<!-- 16&#45;&gt;17 -->
<g id="edge20" class="edge">
<title>16:s&#45;&gt;17:n</title>
<path fill="none" stroke="black" d="M960.6,-473.42C960.6,-473.42 972.22,-446.5 978.57,-431.78"/>
<polygon fill="black" stroke="black" points="981.85,-432.99 982.6,-422.42 975.43,-430.22 981.85,-432.99"/>
<text text-anchor="middle" x="1005.1" y="-444.22" font-family="Helvetica,sans-Serif" font-size="14.00">&lt;= 0.44</text>
</g>
<!-- 19 -->
<g id="node22" class="node">
<title>19</title>
<polygon fill="#3dcc76" stroke="black" points="1390.6,-419.07 1164.6,-419.07 1164.6,-355.07 1390.6,-355.07 1390.6,-419.07"/>
<text text-anchor="start" x="1223.1" y="-404.87" font-family="Helvetica,sans-Serif" font-weight="bold" font-size="14.00"> Class=False </text>
<text text-anchor="start" x="1327.1" y="-404.87" font-family="Helvetica,sans-Serif" font-size="14.00"> </text>
<text text-anchor="start" x="1203.6" y="-390.87" font-family="Helvetica,sans-Serif" font-size="14.00"> error: 0.978, n=237 </text>
<text text-anchor="start" x="1222.6" y="-376.87" font-family="Helvetica,sans-Serif" font-size="14.00"> p: (0.59, 0.41) </text>
<text text-anchor="start" x="1172.6" y="-362.87" font-family="Helvetica,sans-Serif" font-weight="bold" font-size="14.00">CYCLOMATIC_COMPLEXITY</text>
</g>
<!-- 18&#45;&gt;19 -->
<g id="edge21" class="edge">
<title>18:s&#45;&gt;19:n</title>
<path fill="none" stroke="black" d="M1244.6,-473.42C1244.6,-473.42 1262.78,-444.03 1272.15,-428.88"/>
<polygon fill="black" stroke="black" points="1275.32,-430.41 1277.6,-420.07 1269.36,-426.73 1275.32,-430.41"/>
<text text-anchor="middle" x="1277.6" y="-444.22" font-family="Helvetica,sans-Serif" font-size="14.00">&gt; 1</text>
</g>
<!-- 20 -->
<g id="node23" class="node">
<title>20</title>
<polygon fill="#44e5c5" stroke="black" points="1373.6,-300.71 1181.6,-300.71 1181.6,-236.71 1373.6,-236.71 1373.6,-300.71"/>
<text text-anchor="start" x="1223.1" y="-286.51" font-family="Helvetica,sans-Serif" font-weight="bold" font-size="14.00"> Class=False </text>
<text text-anchor="start" x="1327.1" y="-286.51" font-family="Helvetica,sans-Serif" font-size="14.00"> </text>
<text text-anchor="start" x="1203.6" y="-272.51" font-family="Helvetica,sans-Serif" font-size="14.00"> error: 0.987, n=227 </text>
<text text-anchor="start" x="1222.6" y="-258.51" font-family="Helvetica,sans-Serif" font-size="14.00"> p: (0.57, 0.43) </text>
<text text-anchor="start" x="1189.6" y="-244.51" font-family="Helvetica,sans-Serif" font-weight="bold" font-size="14.00">CYCLOMATIC_DENSITY</text>
</g>
<!-- 19&#45;&gt;20 -->
<g id="edge22" class="edge">
<title>19:s&#45;&gt;20:n</title>
<path fill="none" stroke="black" d="M1277.6,-354.07C1277.6,-354.07 1277.6,-326.5 1277.6,-311"/>
<polygon fill="black" stroke="black" points="1281.1,-310.71 1277.6,-300.71 1274.1,-310.71 1281.1,-310.71"/>
<text text-anchor="middle" x="1296.6" y="-322.51" font-family="Helvetica,sans-Serif" font-size="14.00">&lt;= 9</text>
</g>
<!-- 21 -->
<g id="node24" class="node">
<title>21</title>
<polygon fill="#3dafcc" stroke="black" points="1441.6,-185.71 1113.6,-185.71 1113.6,-121.71 1441.6,-121.71 1441.6,-185.71"/>
<text text-anchor="start" x="1223.1" y="-171.51" font-family="Helvetica,sans-Serif" font-weight="bold" font-size="14.00"> Class=False </text>
<text text-anchor="start" x="1327.1" y="-171.51" font-family="Helvetica,sans-Serif" font-size="14.00"> </text>
<text text-anchor="start" x="1203.6" y="-157.51" font-family="Helvetica,sans-Serif" font-size="14.00"> error: 0.993, n=217 </text>
<text text-anchor="start" x="1222.6" y="-143.51" font-family="Helvetica,sans-Serif" font-size="14.00"> p: (0.55, 0.45) </text>
<text text-anchor="start" x="1121.6" y="-129.51" font-family="Helvetica,sans-Serif" font-weight="bold" font-size="14.00">NORMALIZED_CYLOMATIC_COMPLEXITY</text>
</g>
<!-- 20&#45;&gt;21 -->
<g id="edge23" class="edge">
<title>20:s&#45;&gt;21:n</title>
<path fill="none" stroke="black" d="M1277.6,-236.71C1277.6,-236.71 1277.6,-210.93 1277.6,-196.03"/>
<polygon fill="black" stroke="black" points="1281.1,-195.71 1277.6,-185.71 1274.1,-195.71 1281.1,-195.71"/>
<text text-anchor="middle" x="1308.1" y="-207.51" font-family="Helvetica,sans-Serif" font-size="14.00">&lt;= 0.38</text>
</g>
<!-- 22 -->
<g id="node25" class="node">
<title>22</title>
<ellipse fill="#4485e5" stroke="black" cx="1277.6" cy="-35.36" rx="115.93" ry="35.21"/>
<text text-anchor="start" x="1223.1" y="-46.16" font-family="Helvetica,sans-Serif" font-weight="bold" font-size="14.00"> Class=False </text>
<text text-anchor="start" x="1327.1" y="-46.16" font-family="Helvetica,sans-Serif" font-size="14.00"> </text>
<text text-anchor="start" x="1203.6" y="-32.16" font-family="Helvetica,sans-Serif" font-size="14.00"> error: 0.997, n=210 </text>
<text text-anchor="start" x="1222.6" y="-18.16" font-family="Helvetica,sans-Serif" font-size="14.00"> p: (0.53, 0.47) </text>
</g>
<!-- 21&#45;&gt;22 -->
<g id="edge24" class="edge">
<title>21:s&#45;&gt;22:n</title>
<path fill="none" stroke="black" d="M1277.6,-121.71C1277.6,-121.71 1277.6,-95.93 1277.6,-81.03"/>
<polygon fill="black" stroke="black" points="1281.1,-80.71 1277.6,-70.71 1274.1,-80.71 1281.1,-80.71"/>
<text text-anchor="middle" x="1302.1" y="-92.51" font-family="Helvetica,sans-Serif" font-size="14.00">&gt; 0.02</text>
</g>
</g>
</svg>
